<svg width="1152" height="240" viewBox="0 0 1152 240" fill="none" xmlns="http://www.w3.org/2000/svg">
<g clip-path="url(#clip0_479_104)">
<rect width="1152" height="240" fill="white"/>
<rect x="384" y="120" width="768" height="60" fill="white"/>
<rect x="384" y="180" width="768" height="60" fill="white"/>
<rect width="287" height="240" fill="#F2F1E8"/>
<rect width="1152" height="60" fill="#0060A9"/>
<line x1="1" y1="179.5" x2="1152" y2="179.5" stroke="#004376"/>
<line x1="1" y1="59.5" x2="1150" y2="59.5" stroke="#004376"/>
<line x1="1" y1="119.5" x2="1151" y2="119.5" stroke="#004376"/>
<line x1="287.5" y1="2.18557e-08" x2="287.5" y2="240" stroke="#004376"/>
<line x1="574.5" y1="2.18557e-08" x2="574.5" y2="240" stroke="#004376"/>
<line x1="861.5" y1="2.18557e-08" x2="861.5" y2="240" stroke="#004376"/>
<rect x="0.5" y="0.5" width="1151" height="239" stroke="#004376"/>
<path d="M411.566 40V35.2H403.342C409.07 31.488 411.406 28.704 411.406 25.44C411.406 21.152 407.79 18.336 402.766 18.336C399.79 18.336 396.398 19.392 394.126 21.888L397.166 25.536C398.702 24.096 400.494 23.2 402.766 23.2C404.43 23.2 405.806 23.968 405.806 25.44C405.806 27.552 404.078 29.024 394.83 35.712V40H411.566ZM413.691 29.344C413.691 34.976 416.603 40.384 422.843 40.384C429.083 40.384 431.995 34.976 431.995 29.344C431.995 23.712 429.083 18.336 422.843 18.336C416.603 18.336 413.691 23.712 413.691 29.344ZM426.427 29.344C426.427 33.12 425.403 35.52 422.843 35.52C420.283 35.52 419.259 33.12 419.259 29.344C419.259 25.568 420.283 23.2 422.843 23.2C425.403 23.2 426.427 25.568 426.427 29.344ZM450.972 40V35.2H442.748C448.476 31.488 450.812 28.704 450.812 25.44C450.812 21.152 447.196 18.336 442.172 18.336C439.196 18.336 435.804 19.392 433.532 21.888L436.572 25.536C438.108 24.096 439.9 23.2 442.172 23.2C443.836 23.2 445.212 23.968 445.212 25.44C445.212 27.552 443.484 29.024 434.236 35.712V40H450.972ZM464.65 40V18.656H459.882L452.426 26.016L455.562 29.312L459.146 25.696V40H464.65Z" fill="white"/>
<path d="M697.238 40V35.2H689.014C694.742 31.488 697.078 28.704 697.078 25.44C697.078 21.152 693.462 18.336 688.438 18.336C685.462 18.336 682.07 19.392 679.798 21.888L682.838 25.536C684.374 24.096 686.166 23.2 688.438 23.2C690.102 23.2 691.478 23.968 691.478 25.44C691.478 27.552 689.75 29.024 680.502 35.712V40H697.238ZM699.363 29.344C699.363 34.976 702.275 40.384 708.515 40.384C714.755 40.384 717.667 34.976 717.667 29.344C717.667 23.712 714.755 18.336 708.515 18.336C702.275 18.336 699.363 23.712 699.363 29.344ZM712.099 29.344C712.099 33.12 711.075 35.52 708.515 35.52C705.955 35.52 704.931 33.12 704.931 29.344C704.931 25.568 705.955 23.2 708.515 23.2C711.075 23.2 712.099 25.568 712.099 29.344ZM736.644 40V35.2H728.42C734.148 31.488 736.484 28.704 736.484 25.44C736.484 21.152 732.868 18.336 727.844 18.336C724.868 18.336 721.476 19.392 719.204 21.888L722.244 25.536C723.78 24.096 725.572 23.2 727.844 23.2C729.508 23.2 730.884 23.968 730.884 25.44C730.884 27.552 729.156 29.024 719.908 35.712V40H736.644ZM738.77 29.344C738.77 34.976 741.682 40.384 747.922 40.384C754.162 40.384 757.074 34.976 757.074 29.344C757.074 23.712 754.162 18.336 747.922 18.336C741.682 18.336 738.77 23.712 738.77 29.344ZM751.506 29.344C751.506 33.12 750.482 35.52 747.922 35.52C745.362 35.52 744.338 33.12 744.338 29.344C744.338 25.568 745.362 23.2 747.922 23.2C750.482 23.2 751.506 25.568 751.506 29.344Z" fill="white"/>
<path d="M908.951 40H917.943C924.631 40 929.463 35.936 929.463 29.312C929.463 22.688 924.631 18.656 917.911 18.656H908.951V40ZM914.455 35.2V23.456H917.943C921.847 23.456 923.831 26.016 923.831 29.312C923.831 32.48 921.655 35.2 917.911 35.2H914.455ZM931.049 32.256C931.049 37.28 934.729 40.384 939.497 40.384C941.865 40.384 944.425 39.712 945.961 38.336L943.881 35.264C943.017 36.032 941.481 36.576 940.105 36.576C937.801 36.576 936.457 35.264 936.169 33.824H947.177V32.768C947.177 27.52 943.849 24.16 939.273 24.16C934.441 24.16 931.049 27.776 931.049 32.256ZM939.273 27.968C941.545 27.968 942.345 29.536 942.473 30.624H936.105C936.297 29.504 937.129 27.968 939.273 27.968ZM953.573 40H958.821L964.901 24.544H959.685L956.165 34.336L952.677 24.544H947.492L953.573 40ZM965.362 32.256C965.362 37.28 969.042 40.384 973.81 40.384C976.178 40.384 978.738 39.712 980.274 38.336L978.194 35.264C977.33 36.032 975.794 36.576 974.418 36.576C972.114 36.576 970.77 35.264 970.482 33.824H981.49V32.768C981.49 27.52 978.162 24.16 973.586 24.16C968.754 24.16 965.362 27.776 965.362 32.256ZM973.586 27.968C975.858 27.968 976.658 29.536 976.786 30.624H970.418C970.61 29.504 971.442 27.968 973.586 27.968ZM983.917 40H988.845V18.656H983.917V40ZM999.809 40.384C1005.12 40.384 1008.26 36.608 1008.26 32.256C1008.26 27.904 1005.12 24.16 999.809 24.16C994.561 24.16 991.393 27.904 991.393 32.256C991.393 36.608 994.561 40.384 999.809 40.384ZM999.809 36.032C997.665 36.032 996.481 34.336 996.481 32.256C996.481 30.208 997.665 28.512 999.809 28.512C1001.99 28.512 1003.2 30.208 1003.2 32.256C1003.2 34.336 1001.99 36.032 999.809 36.032ZM1015.78 45.888V38.176C1017.06 39.712 1018.63 40.384 1020.36 40.384C1024.23 40.384 1027.14 37.504 1027.14 32.256C1027.14 27.04 1024.23 24.16 1020.36 24.16C1018.6 24.16 1017 24.864 1015.78 26.336V24.544H1010.85V45.888H1015.78ZM1022.12 32.256C1022.12 34.592 1020.65 36.032 1018.73 36.032C1017.67 36.032 1016.39 35.424 1015.78 34.624V29.92C1016.39 29.088 1017.67 28.512 1018.73 28.512C1020.65 28.512 1022.12 29.952 1022.12 32.256ZM1049.22 40H1054.11V28.8C1054.11 25.632 1052.32 24.16 1049.47 24.16C1047.04 24.16 1045.03 25.568 1044.13 26.912C1043.49 25.088 1041.95 24.16 1039.75 24.16C1037.31 24.16 1035.33 25.536 1034.66 26.432V24.544H1029.73V40H1034.66V30.016C1035.17 29.376 1036.1 28.512 1037.41 28.512C1038.91 28.512 1039.46 29.408 1039.46 30.592V40H1044.39V30.016C1044.87 29.376 1045.83 28.512 1047.17 28.512C1048.64 28.512 1049.22 29.408 1049.22 30.592V40ZM1056.71 32.256C1056.71 37.28 1060.39 40.384 1065.15 40.384C1067.52 40.384 1070.08 39.712 1071.62 38.336L1069.54 35.264C1068.67 36.032 1067.14 36.576 1065.76 36.576C1063.46 36.576 1062.11 35.264 1061.83 33.824H1072.83V32.768C1072.83 27.52 1069.51 24.16 1064.93 24.16C1060.1 24.16 1056.71 27.776 1056.71 32.256ZM1064.93 27.968C1067.2 27.968 1068 29.536 1068.13 30.624H1061.76C1061.95 29.504 1062.79 27.968 1064.93 27.968ZM1085.72 40H1090.65V29.056C1090.65 26.208 1089.05 24.16 1085.53 24.16C1082.94 24.16 1081.12 25.344 1080.19 26.432V24.544H1075.26V40H1080.19V30.016C1080.76 29.312 1081.72 28.512 1083.2 28.512C1084.73 28.512 1085.72 29.184 1085.72 31.072V40ZM1100.09 40.384C1101.91 40.384 1103.13 39.936 1103.73 39.36L1102.77 35.648C1102.61 35.84 1102.07 36.032 1101.53 36.032C1100.66 36.032 1100.15 35.36 1100.15 34.464V28.832H1103.29V24.544H1100.15V20.32H1095.25V24.544H1092.69V28.832H1095.25V35.84C1095.25 38.816 1096.95 40.384 1100.09 40.384Z" fill="white"/>
<path d="M26.016 97H30.144V84.592H34.608V80.992H21.528V84.592H26.016V97ZM42.8946 97H46.5906V85.408H42.8946V92.896C42.4626 93.448 41.7426 94.024 40.6866 94.024C39.4866 94.024 38.7666 93.544 38.7666 92.152V85.408H35.0706V93.664C35.0706 95.8 36.2466 97.288 38.8866 97.288C40.8306 97.288 42.1746 96.424 42.8946 95.608V97ZM49.2737 97H52.9697V89.656C53.4497 88.984 54.7217 88.576 55.6817 88.576C56.0657 88.576 56.3777 88.624 56.5937 88.696V85.12C55.2017 85.12 53.7377 85.936 52.9697 86.872V85.408H49.2737V97ZM66.1217 97H69.8177V88.792C69.8177 86.656 68.6177 85.12 65.9777 85.12C64.0337 85.12 62.6657 86.008 61.9697 86.824V85.408H58.2737V97H61.9697V89.512C62.4017 88.984 63.1217 88.384 64.2257 88.384C65.3777 88.384 66.1217 88.888 66.1217 90.304V97ZM78.0443 97.288C82.0283 97.288 84.3802 94.456 84.3802 91.192C84.3802 87.928 82.0283 85.12 78.0443 85.12C74.1083 85.12 71.7323 87.928 71.7323 91.192C71.7323 94.456 74.1083 97.288 78.0443 97.288ZM78.0443 94.024C76.4363 94.024 75.5483 92.752 75.5483 91.192C75.5483 89.656 76.4363 88.384 78.0443 88.384C79.6763 88.384 80.5883 89.656 80.5883 91.192C80.5883 92.752 79.6763 94.024 78.0443 94.024ZM89.3044 97H93.2404L97.8004 85.408H93.8884L91.2484 92.752L88.6324 85.408H84.7444L89.3044 97ZM98.1463 91.192C98.1463 94.96 100.906 97.288 104.482 97.288C106.258 97.288 108.178 96.784 109.33 95.752L107.77 93.448C107.122 94.024 105.97 94.432 104.938 94.432C103.21 94.432 102.202 93.448 101.986 92.368H110.242V91.576C110.242 87.64 107.746 85.12 104.314 85.12C100.69 85.12 98.1463 87.832 98.1463 91.192ZM104.314 87.976C106.018 87.976 106.618 89.152 106.714 89.968H101.938C102.082 89.128 102.706 87.976 104.314 87.976ZM112.063 97H115.759V89.656C116.239 88.984 117.511 88.576 118.471 88.576C118.855 88.576 119.167 88.624 119.383 88.696V85.12C117.991 85.12 116.527 85.936 115.759 86.872V85.408H112.063V97Z" fill="#333333"/>
<path d="M432.594 95.344C433.602 96.496 434.994 97.264 437.034 97.264C441.522 97.264 443.538 93.328 443.538 89.008C443.538 84.64 441.834 80.728 437.346 80.728C433.866 80.728 431.754 83.2 431.754 85.96C431.754 89.368 434.13 91.072 437.01 91.072C439.05 91.072 440.826 89.68 441.522 88.576C441.546 88.792 441.546 89.008 441.546 89.224C441.546 92.248 440.274 95.488 437.034 95.488C435.378 95.488 434.418 94.816 433.602 93.856L432.594 95.344ZM441.45 86.968C440.61 88.384 439.05 89.344 437.466 89.344C435.402 89.344 433.77 88.24 433.77 85.888C433.77 84.376 434.994 82.504 437.442 82.504C440.226 82.504 441.282 84.976 441.45 86.968ZM445.982 89.008C445.982 92.896 447.71 97.288 452.102 97.288C456.47 97.288 458.222 92.896 458.222 89.008C458.222 85.096 456.47 80.752 452.102 80.752C447.71 80.752 445.982 85.096 445.982 89.008ZM456.182 89.008C456.182 92.2 455.15 95.512 452.102 95.512C449.054 95.512 448.022 92.2 448.022 89.008C448.022 85.816 449.054 82.528 452.102 82.528C455.15 82.528 456.182 85.816 456.182 89.008ZM460.677 89.008C460.677 92.896 462.405 97.288 466.797 97.288C471.165 97.288 472.917 92.896 472.917 89.008C472.917 85.096 471.165 80.752 466.797 80.752C462.405 80.752 460.677 85.096 460.677 89.008ZM470.877 89.008C470.877 92.2 469.845 95.512 466.797 95.512C463.749 95.512 462.717 92.2 462.717 89.008C462.717 85.816 463.749 82.528 466.797 82.528C469.845 82.528 470.877 85.816 470.877 89.008ZM497.88 97V80.992H495.024L490.032 93.184L485.064 80.992H482.208V97H484.2V83.68L489.624 97H490.44L495.888 83.68V97H497.88ZM518.29 97V95.224H509.794V89.704H518.122V87.928H509.794V82.768H518.29V80.992H507.802V97H518.29ZM521.466 90.784C521.466 94.72 523.65 97.288 527.994 97.288C532.338 97.288 534.522 94.744 534.522 90.76V80.992H532.53V90.736C532.53 93.664 530.946 95.512 527.994 95.512C525.042 95.512 523.458 93.664 523.458 90.736V80.992H521.466V90.784ZM549.886 97L545.566 90.472C547.75 90.28 549.718 88.696 549.718 85.816C549.718 82.864 547.63 80.992 544.702 80.992H538.27V97H540.262V90.64H543.454L547.534 97H549.886ZM547.654 85.816C547.654 87.616 546.358 88.888 544.462 88.888H540.262V82.768H544.462C546.358 82.768 547.654 84.016 547.654 85.816Z" fill="#333333"/>
<path d="M725.401 97L731.953 82.36V80.992H721.033V82.768H729.649L723.193 97H725.401ZM737.753 97L744.305 82.36V80.992H733.385V82.768H742.001L735.545 97H737.753ZM746.576 94.72C747.776 96.304 749.504 97.288 752.216 97.288C755.432 97.288 757.904 95.272 757.904 92.008C757.904 88.72 755.48 86.896 752.816 86.896C751.208 86.896 749.84 87.568 749.072 88.336V82.768H756.872V80.992H747.08V89.632L748.544 90.136C749.624 89.08 750.824 88.624 752.24 88.624C754.4 88.624 755.912 89.968 755.912 92.08C755.912 94.024 754.4 95.512 752.216 95.512C750.248 95.512 748.856 94.744 747.8 93.4L746.576 94.72ZM782.88 97V80.992H780.024L775.032 93.184L770.064 80.992H767.208V97H769.2V83.68L774.624 97H775.44L780.888 83.68V97H782.88ZM803.29 97V95.224H794.794V89.704H803.122V87.928H794.794V82.768H803.29V80.992H792.802V97H803.29ZM806.466 90.784C806.466 94.72 808.65 97.288 812.994 97.288C817.338 97.288 819.522 94.744 819.522 90.76V80.992H817.53V90.736C817.53 93.664 815.946 95.512 812.994 95.512C810.042 95.512 808.458 93.664 808.458 90.736V80.992H806.466V90.784ZM834.886 97L830.566 90.472C832.75 90.28 834.718 88.696 834.718 85.816C834.718 82.864 832.63 80.992 829.702 80.992H823.27V97H825.262V90.64H828.454L832.534 97H834.886ZM832.654 85.816C832.654 87.616 831.358 88.888 829.462 88.888H825.262V82.768H829.462C831.358 82.768 832.654 84.016 832.654 85.816Z" fill="#333333"/>
<path d="M1002.87 89.536V88.288H998.258V83.32H996.89V88.288H992.282V89.536H996.89V94.648H998.258V89.536H1002.87ZM1016.01 97V80.992H1014.26L1010.25 85.12L1011.45 86.344L1014.02 83.632V97H1016.01ZM1030.17 97V95.224H1022.32C1026.79 91.696 1030.1 88.72 1030.1 85.456C1030.1 82.264 1027.39 80.752 1024.72 80.752C1022.47 80.752 1020.38 81.664 1019.15 83.272L1020.38 84.544C1021.31 83.344 1022.8 82.528 1024.72 82.528C1026.38 82.528 1028.06 83.416 1028.06 85.456C1028.06 88.216 1024.94 90.88 1019.18 95.416V97H1030.17ZM1033.58 94.72C1034.78 96.304 1036.5 97.288 1039.22 97.288C1042.43 97.288 1044.9 95.272 1044.9 92.008C1044.9 88.72 1042.48 86.896 1039.82 86.896C1038.21 86.896 1036.84 87.568 1036.07 88.336V82.768H1043.87V80.992H1034.08V89.632L1035.54 90.136C1036.62 89.08 1037.82 88.624 1039.24 88.624C1041.4 88.624 1042.91 89.968 1042.91 92.08C1042.91 94.024 1041.4 95.512 1039.22 95.512C1037.25 95.512 1035.86 94.744 1034.8 93.4L1033.58 94.72ZM1069.88 97V80.992H1067.02L1062.03 93.184L1057.06 80.992H1054.21V97H1056.2V83.68L1061.62 97H1062.44L1067.89 83.68V97H1069.88ZM1090.29 97V95.224H1081.79V89.704H1090.12V87.928H1081.79V82.768H1090.29V80.992H1079.8V97H1090.29ZM1093.47 90.784C1093.47 94.72 1095.65 97.288 1099.99 97.288C1104.34 97.288 1106.52 94.744 1106.52 90.76V80.992H1104.53V90.736C1104.53 93.664 1102.95 95.512 1099.99 95.512C1097.04 95.512 1095.46 93.664 1095.46 90.736V80.992H1093.47V90.784ZM1121.89 97L1117.57 90.472C1119.75 90.28 1121.72 88.696 1121.72 85.816C1121.72 82.864 1119.63 80.992 1116.7 80.992H1110.27V97H1112.26V90.64H1115.45L1119.53 97H1121.89ZM1119.65 85.816C1119.65 87.616 1118.36 88.888 1116.46 88.888H1112.26V82.768H1116.46C1118.36 82.768 1119.65 84.016 1119.65 85.816Z" fill="#333333"/>
<path d="M1025.07 151.984V150.4H1019.31V151.984H1025.07ZM1033.19 149.032C1033.19 153.376 1034.9 157.288 1039.36 157.288C1042.86 157.288 1044.98 154.84 1044.98 152.056C1044.98 148.648 1042.62 146.944 1039.74 146.944C1037.68 146.944 1035.9 148.336 1035.21 149.44C1035.18 149.224 1035.18 149.032 1035.18 148.816C1035.18 145.672 1036.6 142.528 1039.7 142.528C1041.38 142.528 1042.31 143.2 1043.13 144.16L1044.14 142.672C1043.15 141.544 1041.76 140.752 1039.7 140.752C1035.21 140.752 1033.19 144.688 1033.19 149.032ZM1042.96 152.128C1042.96 153.664 1041.76 155.512 1039.29 155.512C1036.5 155.512 1035.45 153.064 1035.26 151.072C1036.14 149.656 1037.68 148.672 1039.26 148.672C1041.33 148.672 1042.96 149.776 1042.96 152.128ZM1069.88 157V140.992H1067.02L1062.03 153.184L1057.06 140.992H1054.21V157H1056.2V143.68L1061.62 157H1062.44L1067.89 143.68V157H1069.88ZM1090.29 157V155.224H1081.79V149.704H1090.12V147.928H1081.79V142.768H1090.29V140.992H1079.8V157H1090.29ZM1093.47 150.784C1093.47 154.72 1095.65 157.288 1099.99 157.288C1104.34 157.288 1106.52 154.744 1106.52 150.76V140.992H1104.53V150.736C1104.53 153.664 1102.95 155.512 1099.99 155.512C1097.04 155.512 1095.46 153.664 1095.46 150.736V140.992H1093.47V150.784ZM1121.89 157L1117.57 150.472C1119.75 150.28 1121.72 148.696 1121.72 145.816C1121.72 142.864 1119.63 140.992 1116.7 140.992H1110.27V157H1112.26V150.64H1115.45L1119.53 157H1121.89ZM1119.65 145.816C1119.65 147.616 1118.36 148.888 1116.46 148.888H1112.26V142.768H1116.46C1118.36 142.768 1119.65 144.016 1119.65 145.816Z" fill="#333333"/>
<path d="M1017.77 209.536V208.288H1013.16V203.32H1011.8V208.288H1007.19V209.536H1011.8V214.648H1013.16V209.536H1017.77ZM1030.92 217V200.992H1029.17L1025.16 205.12L1026.36 206.344L1028.93 203.632V217H1030.92ZM1033.49 214.648C1034.47 216.088 1036.46 217.288 1039.17 217.288C1042.7 217.288 1044.84 215.344 1044.84 212.68C1044.84 210.112 1042.61 208.864 1041.14 208.744C1042.65 208.48 1044.6 207.328 1044.6 205.024C1044.6 202.312 1042.25 200.752 1039.17 200.752C1036.7 200.752 1034.85 201.832 1033.7 203.224L1034.81 204.472C1035.98 203.2 1037.28 202.528 1039.03 202.528C1040.97 202.528 1042.61 203.488 1042.61 205.264C1042.61 207.112 1040.9 207.904 1038.89 207.904C1038.24 207.904 1037.49 207.904 1037.23 207.88V209.704C1037.47 209.68 1038.21 209.68 1038.89 209.68C1041.24 209.68 1042.87 210.52 1042.87 212.512C1042.87 214.36 1041.45 215.512 1039.13 215.512C1037.23 215.512 1035.6 214.648 1034.66 213.4L1033.49 214.648ZM1069.88 217V200.992H1067.02L1062.03 213.184L1057.06 200.992H1054.21V217H1056.2V203.68L1061.62 217H1062.44L1067.89 203.68V217H1069.88ZM1090.29 217V215.224H1081.79V209.704H1090.12V207.928H1081.79V202.768H1090.29V200.992H1079.8V217H1090.29ZM1093.47 210.784C1093.47 214.72 1095.65 217.288 1099.99 217.288C1104.34 217.288 1106.52 214.744 1106.52 210.76V200.992H1104.53V210.736C1104.53 213.664 1102.95 215.512 1099.99 215.512C1097.04 215.512 1095.46 213.664 1095.46 210.736V200.992H1093.47V210.784ZM1121.89 217L1117.57 210.472C1119.75 210.28 1121.72 208.696 1121.72 205.816C1121.72 202.864 1119.63 200.992 1116.7 200.992H1110.27V217H1112.26V210.64H1115.45L1119.53 217H1121.89ZM1119.65 205.816C1119.65 207.616 1118.36 208.888 1116.46 208.888H1112.26V202.768H1116.46C1118.36 202.768 1119.65 204.016 1119.65 205.816Z" fill="#333333"/>
<path d="M31.368 157H36.096L32.832 151.12C34.32 150.592 36.024 149.104 36.024 146.32C36.024 143.344 34.008 140.992 30.456 140.992H22.44V157H26.568V151.576H28.68L31.368 157ZM31.824 146.272C31.824 147.376 30.912 148.072 29.832 148.072H26.568V144.472H29.832C30.912 144.472 31.824 145.168 31.824 146.272ZM36.7166 151.192C36.7166 154.96 39.4766 157.288 43.0526 157.288C44.8286 157.288 46.7486 156.784 47.9006 155.752L46.3406 153.448C45.6926 154.024 44.5406 154.432 43.5086 154.432C41.7806 154.432 40.7726 153.448 40.5566 152.368H48.8126V151.576C48.8126 147.64 46.3166 145.12 42.8846 145.12C39.2606 145.12 36.7166 147.832 36.7166 151.192ZM42.8846 147.976C44.5886 147.976 45.1886 149.152 45.2846 149.968H40.5086C40.6526 149.128 41.2766 147.976 42.8846 147.976ZM49.6491 155.512C50.8731 156.592 53.0091 157.288 55.0731 157.288C58.4091 157.288 60.3531 155.656 60.3531 153.448C60.3531 150.376 57.4251 149.896 55.4571 149.56C54.2331 149.344 53.6091 149.152 53.6091 148.624C53.6091 148.12 54.2091 147.832 55.0731 147.832C56.4651 147.832 57.7851 148.432 58.4811 149.104L59.8971 146.656C58.6491 145.744 56.9931 145.12 55.0491 145.12C51.8331 145.12 50.0811 146.896 50.0811 148.936C50.0811 151.888 52.8651 152.296 54.8331 152.632C56.0331 152.824 56.8251 153.04 56.8251 153.64C56.8251 154.144 56.3691 154.504 55.2651 154.504C53.8971 154.504 52.0491 153.736 51.1851 152.968L49.6491 155.512ZM70.0821 157H73.7781V145.408H70.0821V152.896C69.6501 153.448 68.9301 154.024 67.8741 154.024C66.6741 154.024 65.9541 153.544 65.9541 152.152V145.408H62.2581V153.664C62.2581 155.8 63.4341 157.288 66.0741 157.288C68.0181 157.288 69.3621 156.424 70.0821 155.608V157ZM76.4612 157H80.1572V140.992H76.4612V157ZM87.2282 157.288C88.5962 157.288 89.5082 156.952 89.9642 156.52L89.2442 153.736C89.1242 153.88 88.7162 154.024 88.3082 154.024C87.6602 154.024 87.2762 153.52 87.2762 152.848V148.624H89.6282V145.408H87.2762V142.24H83.6042V145.408H81.6842V148.624H83.6042V153.88C83.6042 156.112 84.8762 157.288 87.2282 157.288ZM97.6253 157H101.321V155.656C102.281 156.76 103.457 157.288 104.753 157.288C107.609 157.288 109.865 155.128 109.865 151.192C109.865 147.4 107.633 145.12 104.753 145.12C103.481 145.12 102.233 145.624 101.321 146.776V140.992H97.6253V157ZM101.321 152.992V149.44C101.777 148.816 102.737 148.384 103.529 148.384C104.993 148.384 106.097 149.464 106.097 151.192C106.097 152.944 104.993 154.024 103.529 154.024C102.737 154.024 101.777 153.616 101.321 152.992ZM111.037 151.192C111.037 154.96 113.797 157.288 117.373 157.288C119.149 157.288 121.069 156.784 122.221 155.752L120.661 153.448C120.013 154.024 118.861 154.432 117.829 154.432C116.101 154.432 115.093 153.448 114.877 152.368H123.133V151.576C123.133 147.64 120.637 145.12 117.205 145.12C113.581 145.12 111.037 147.832 111.037 151.192ZM117.205 147.976C118.909 147.976 119.509 149.152 119.605 149.968H114.829C114.973 149.128 115.597 147.976 117.205 147.976ZM125.745 157H129.441V148.624H131.793V145.408H129.441V144.928C129.441 144.04 129.945 143.56 130.713 143.56C131.049 143.56 131.385 143.632 131.673 143.8L132.345 141.28C131.769 140.968 130.905 140.752 129.897 140.752C127.497 140.752 125.745 142.36 125.745 144.832V145.408H123.825V148.624H125.745V157ZM138.865 157.288C142.849 157.288 145.201 154.456 145.201 151.192C145.201 147.928 142.849 145.12 138.865 145.12C134.929 145.12 132.553 147.928 132.553 151.192C132.553 154.456 134.929 157.288 138.865 157.288ZM138.865 154.024C137.257 154.024 136.369 152.752 136.369 151.192C136.369 149.656 137.257 148.384 138.865 148.384C140.497 148.384 141.409 149.656 141.409 151.192C141.409 152.752 140.497 154.024 138.865 154.024ZM147.149 157H150.845V149.656C151.325 148.984 152.597 148.576 153.557 148.576C153.941 148.576 154.253 148.624 154.469 148.696V145.12C153.077 145.12 151.613 145.936 150.845 146.872V145.408H147.149V157ZM155.381 151.192C155.381 154.96 158.141 157.288 161.717 157.288C163.493 157.288 165.413 156.784 166.565 155.752L165.005 153.448C164.357 154.024 163.205 154.432 162.173 154.432C160.445 154.432 159.437 153.448 159.221 152.368H167.477V151.576C167.477 147.64 164.981 145.12 161.549 145.12C157.925 145.12 155.381 147.832 155.381 151.192ZM161.549 147.976C163.253 147.976 163.853 149.152 163.949 149.968H159.173C159.317 149.128 159.941 147.976 161.549 147.976ZM179.83 157.288C181.198 157.288 182.11 156.952 182.566 156.52L181.846 153.736C181.726 153.88 181.318 154.024 180.91 154.024C180.262 154.024 179.878 153.52 179.878 152.848V148.624H182.23V145.408H179.878V142.24H176.206V145.408H174.286V148.624H176.206V153.88C176.206 156.112 177.478 157.288 179.83 157.288ZM190.926 157H194.622V149.752C194.622 146.152 192.006 145.12 189.222 145.12C187.446 145.12 185.454 145.648 183.966 146.92L185.286 149.248C186.222 148.456 187.422 148.024 188.574 148.024C190.062 148.024 190.926 148.696 190.926 149.704V151.168C190.23 150.304 188.862 149.824 187.326 149.824C185.55 149.824 183.342 150.664 183.342 153.472C183.342 156.088 185.55 157.288 187.326 157.288C188.814 157.288 190.206 156.712 190.926 155.848V157ZM190.926 154.024C190.542 154.576 189.678 154.864 188.862 154.864C187.878 154.864 187.014 154.432 187.014 153.52C187.014 152.608 187.878 152.176 188.862 152.176C189.678 152.176 190.542 152.464 190.926 152.992V154.024ZM204.337 157H208.393L204.433 151.048L208.129 145.408H204.073L202.105 148.552L200.113 145.408H196.057L199.777 151.048L195.817 157H199.849L202.105 153.496L204.337 157Z" fill="#333333"/>
<path d="M458.1 157V140.992H456.348L452.34 145.12L453.54 146.344L456.108 143.632V157H458.1ZM461.985 155.344C462.993 156.496 464.385 157.264 466.425 157.264C470.913 157.264 472.929 153.328 472.929 149.008C472.929 144.64 471.225 140.728 466.737 140.728C463.257 140.728 461.145 143.2 461.145 145.96C461.145 149.368 463.521 151.072 466.401 151.072C468.441 151.072 470.217 149.68 470.913 148.576C470.937 148.792 470.937 149.008 470.937 149.224C470.937 152.248 469.665 155.488 466.425 155.488C464.769 155.488 463.809 154.816 462.993 153.856L461.985 155.344ZM470.841 146.968C470.001 148.384 468.441 149.344 466.857 149.344C464.793 149.344 463.161 148.24 463.161 145.888C463.161 144.376 464.385 142.504 466.833 142.504C469.617 142.504 470.673 144.976 470.841 146.968ZM497.88 157V140.992H495.024L490.032 153.184L485.064 140.992H482.208V157H484.2V143.68L489.624 157H490.44L495.888 143.68V157H497.88ZM518.29 157V155.224H509.794V149.704H518.122V147.928H509.794V142.768H518.29V140.992H507.802V157H518.29ZM521.466 150.784C521.466 154.72 523.65 157.288 527.994 157.288C532.338 157.288 534.522 154.744 534.522 150.76V140.992H532.53V150.736C532.53 153.664 530.946 155.512 527.994 155.512C525.042 155.512 523.458 153.664 523.458 150.736V140.992H521.466V150.784ZM549.886 157L545.566 150.472C547.75 150.28 549.718 148.696 549.718 145.816C549.718 142.864 547.63 140.992 544.702 140.992H538.27V157H540.262V150.64H543.454L547.534 157H549.886ZM547.654 145.816C547.654 147.616 546.358 148.888 544.462 148.888H540.262V142.768H544.462C546.358 142.768 547.654 144.016 547.654 145.816Z" fill="#333333"/>
<path d="M743.171 157V155.224H735.323C739.787 151.696 743.099 148.72 743.099 145.456C743.099 142.264 740.387 140.752 737.723 140.752C735.467 140.752 733.379 141.664 732.155 143.272L733.379 144.544C734.315 143.344 735.803 142.528 737.723 142.528C739.379 142.528 741.059 143.416 741.059 145.456C741.059 148.216 737.939 150.88 732.179 155.416V157H743.171ZM746.576 154.72C747.776 156.304 749.504 157.288 752.216 157.288C755.432 157.288 757.904 155.272 757.904 152.008C757.904 148.72 755.48 146.896 752.816 146.896C751.208 146.896 749.84 147.568 749.072 148.336V142.768H756.872V140.992H747.08V149.632L748.544 150.136C749.624 149.08 750.824 148.624 752.24 148.624C754.4 148.624 755.912 149.968 755.912 152.08C755.912 154.024 754.4 155.512 752.216 155.512C750.248 155.512 748.856 154.744 747.8 153.4L746.576 154.72ZM782.88 157V140.992H780.024L775.032 153.184L770.064 140.992H767.208V157H769.2V143.68L774.624 157H775.44L780.888 143.68V157H782.88ZM803.29 157V155.224H794.794V149.704H803.122V147.928H794.794V142.768H803.29V140.992H792.802V157H803.29ZM806.466 150.784C806.466 154.72 808.65 157.288 812.994 157.288C817.338 157.288 819.522 154.744 819.522 150.76V140.992H817.53V150.736C817.53 153.664 815.946 155.512 812.994 155.512C810.042 155.512 808.458 153.664 808.458 150.736V140.992H806.466V150.784ZM834.886 157L830.566 150.472C832.75 150.28 834.718 148.696 834.718 145.816C834.718 142.864 832.63 140.992 829.702 140.992H823.27V157H825.262V150.64H828.454L832.534 157H834.886ZM832.654 145.816C832.654 147.616 831.358 148.888 829.462 148.888H825.262V142.768H829.462C831.358 142.768 832.654 144.016 832.654 145.816Z" fill="#333333"/>
<path d="M22.44 217H34.176V213.52H26.568V210.64H34.008V207.136H26.568V204.472H34.176V200.992H22.44V217ZM47.9248 221.416V205.408H44.2528V206.752C43.3408 205.648 42.1408 205.12 40.8208 205.12C37.8928 205.12 35.7088 207.28 35.7088 211.192C35.7088 215.128 37.8928 217.288 40.8208 217.288C42.1168 217.288 43.2928 216.784 44.2528 215.632V221.416H47.9248ZM44.2528 212.968C43.7968 213.568 42.8128 214.024 42.0448 214.024C40.6048 214.024 39.5008 212.944 39.5008 211.192C39.5008 209.464 40.6048 208.384 42.0448 208.384C42.8128 208.384 43.7968 208.816 44.2528 209.44V212.968ZM58.4571 217H62.1531V205.408H58.4571V212.896C58.0251 213.448 57.3051 214.024 56.2491 214.024C55.0491 214.024 54.3291 213.544 54.3291 212.152V205.408H50.6331V213.664C50.6331 215.8 51.8091 217.288 54.4491 217.288C56.3931 217.288 57.7371 216.424 58.4571 215.608V217ZM66.6842 203.944C67.8602 203.944 68.7962 203.008 68.7962 201.832C68.7962 200.656 67.8602 199.72 66.6842 199.72C65.5082 199.72 64.5722 200.656 64.5722 201.832C64.5722 203.008 65.5082 203.944 66.6842 203.944ZM64.8362 217H68.5322V205.408H64.8362V217ZM75.6032 217.288C76.9712 217.288 77.8832 216.952 78.3392 216.52L77.6192 213.736C77.4992 213.88 77.0912 214.024 76.6832 214.024C76.0352 214.024 75.6512 213.52 75.6512 212.848V208.624H78.0032V205.408H75.6512V202.24H71.9792V205.408H70.0592V208.624H71.9792V213.88C71.9792 216.112 73.2512 217.288 75.6032 217.288ZM80.1476 218.224L79.6196 221.512C80.0036 221.632 80.8676 221.704 81.2036 221.704C83.4116 221.656 85.1636 221.104 86.0996 218.656L91.3316 205.408H87.4196L84.7796 212.752L82.1636 205.408H78.2756L82.8836 217.168L82.6196 217.792C82.4276 218.272 81.8996 218.44 81.0596 218.44C80.7716 218.44 80.4116 218.368 80.1476 218.224Z" fill="#333333"/>
<path d="M452.729 217L459.281 202.36V200.992H448.361V202.768H456.977L450.521 217H452.729ZM461.193 209.032C461.193 213.376 462.897 217.288 467.361 217.288C470.865 217.288 472.977 214.84 472.977 212.056C472.977 208.648 470.625 206.944 467.745 206.944C465.681 206.944 463.905 208.336 463.209 209.44C463.185 209.224 463.185 209.032 463.185 208.816C463.185 205.672 464.601 202.528 467.697 202.528C469.377 202.528 470.313 203.2 471.129 204.16L472.137 202.672C471.153 201.544 469.761 200.752 467.697 200.752C463.209 200.752 461.193 204.688 461.193 209.032ZM470.961 212.128C470.961 213.664 469.761 215.512 467.289 215.512C464.505 215.512 463.449 213.064 463.257 211.072C464.145 209.656 465.681 208.672 467.265 208.672C469.329 208.672 470.961 209.776 470.961 212.128ZM497.88 217V200.992H495.024L490.032 213.184L485.064 200.992H482.208V217H484.2V203.68L489.624 217H490.44L495.888 203.68V217H497.88ZM518.29 217V215.224H509.794V209.704H518.122V207.928H509.794V202.768H518.29V200.992H507.802V217H518.29ZM521.466 210.784C521.466 214.72 523.65 217.288 527.994 217.288C532.338 217.288 534.522 214.744 534.522 210.76V200.992H532.53V210.736C532.53 213.664 530.946 215.512 527.994 215.512C525.042 215.512 523.458 213.664 523.458 210.736V200.992H521.466V210.784ZM549.886 217L545.566 210.472C547.75 210.28 549.718 208.696 549.718 205.816C549.718 202.864 547.63 200.992 544.702 200.992H538.27V217H540.262V210.64H543.454L547.534 217H549.886ZM547.654 205.816C547.654 207.616 546.358 208.888 544.462 208.888H540.262V202.768H544.462C546.358 202.768 547.654 204.016 547.654 205.816Z" fill="#333333"/>
<path d="M732.833 209.032C732.833 213.376 734.537 217.288 739.001 217.288C742.505 217.288 744.617 214.84 744.617 212.056C744.617 208.648 742.265 206.944 739.385 206.944C737.321 206.944 735.545 208.336 734.849 209.44C734.825 209.224 734.825 209.032 734.825 208.816C734.825 205.672 736.241 202.528 739.337 202.528C741.017 202.528 741.953 203.2 742.769 204.16L743.777 202.672C742.793 201.544 741.401 200.752 739.337 200.752C734.849 200.752 732.833 204.688 732.833 209.032ZM742.601 212.128C742.601 213.664 741.401 215.512 738.929 215.512C736.145 215.512 735.089 213.064 734.897 211.072C735.785 209.656 737.321 208.672 738.905 208.672C740.969 208.672 742.601 209.776 742.601 212.128ZM746.485 214.648C747.469 216.088 749.461 217.288 752.173 217.288C755.701 217.288 757.837 215.344 757.837 212.68C757.837 210.112 755.605 208.864 754.141 208.744C755.653 208.48 757.597 207.328 757.597 205.024C757.597 202.312 755.245 200.752 752.173 200.752C749.701 200.752 747.853 201.832 746.701 203.224L747.805 204.472C748.981 203.2 750.277 202.528 752.029 202.528C753.973 202.528 755.605 203.488 755.605 205.264C755.605 207.112 753.901 207.904 751.885 207.904C751.237 207.904 750.493 207.904 750.229 207.88V209.704C750.469 209.68 751.213 209.68 751.885 209.68C754.237 209.68 755.869 210.52 755.869 212.512C755.869 214.36 754.453 215.512 752.125 215.512C750.229 215.512 748.597 214.648 747.661 213.4L746.485 214.648ZM782.88 217V200.992H780.024L775.032 213.184L770.064 200.992H767.208V217H769.2V203.68L774.624 217H775.44L780.888 203.68V217H782.88ZM803.29 217V215.224H794.794V209.704H803.122V207.928H794.794V202.768H803.29V200.992H792.802V217H803.29ZM806.466 210.784C806.466 214.72 808.65 217.288 812.994 217.288C817.338 217.288 819.522 214.744 819.522 210.76V200.992H817.53V210.736C817.53 213.664 815.946 215.512 812.994 215.512C810.042 215.512 808.458 213.664 808.458 210.736V200.992H806.466V210.784ZM834.886 217L830.566 210.472C832.75 210.28 834.718 208.696 834.718 205.816C834.718 202.864 832.63 200.992 829.702 200.992H823.27V217H825.262V210.64H828.454L832.534 217H834.886ZM832.654 205.816C832.654 207.616 831.358 208.888 829.462 208.888H825.262V202.768H829.462C831.358 202.768 832.654 204.016 832.654 205.816Z" fill="#333333"/>
<line x1="1150" y1="179.5" x2="1535" y2="179.5" stroke="#004376"/>
</g>
<defs>
<clipPath id="clip0_479_104">
<rect width="1152" height="240" fill="white"/>
</clipPath>
</defs>
</svg>
