<svg width="1240" height="120" viewBox="0 0 1240 120" fill="none" xmlns="http://www.w3.org/2000/svg">
<rect x="160" width="340" height="120" fill="#F2F1E8"/>
<rect x="530" width="340" height="120" fill="#F2F1E8"/>
<rect x="900" width="340" height="120" fill="#F2F1E8"/>
<rect width="130" height="120" fill="#004376"/>
<path d="M46.4192 35.2748C46.2551 35.1108 46.1731 34.7826 46.2551 34.5365C46.3372 34.2904 46.5012 34.0443 46.7473 33.9623L50.767 32.4857C50.9311 32.4036 51.0952 32.4036 51.2592 32.4857C51.3413 32.4857 51.4233 32.5677 51.5053 32.5677L67.5021 41.5915C64.3027 42.2478 61.5956 42.822 60.119 43.1501C58.2322 43.5603 56.4274 43.9705 54.7047 44.2986L46.4192 35.2748ZM98.6751 45.7752C98.347 44.3807 97.2806 43.0681 95.886 42.0837C94.9016 43.4783 92.3585 44.1346 90.8819 44.4627C90.8819 44.4627 89.6514 44.6268 89.1592 43.7244C88.667 42.822 89.1592 42.5759 89.1592 42.5759C92.1124 41.9196 93.3429 41.2633 93.4249 40.7711C90.6358 39.6227 87.3544 39.2125 84.7293 39.7047C78.6587 40.9352 64.5488 43.9705 60.6112 44.7908C53.5562 46.2674 48.306 47.662 44.3684 48.9746C44.2863 48.8926 44.2863 48.8926 44.2043 48.8105L35.5086 43.7244C35.4266 43.6423 35.3446 43.6423 35.2625 43.6423C35.0985 43.6423 34.9344 43.6423 34.8524 43.6423L31.9812 44.2986C31.735 44.3807 31.571 44.5447 31.4889 44.7908C31.4069 45.0369 31.4069 45.283 31.571 45.5291L36.0829 52.5021C33.2937 54.1428 32.8835 55.3733 32.8015 55.8655C32.6374 57.6702 44.1222 59.9672 59.9549 56.6858L53.8023 72.7646C53.7203 73.0107 53.7203 73.3388 53.8843 73.5849C53.9664 73.749 54.1304 73.831 54.3766 73.9131C54.4586 73.9131 54.5406 73.9131 54.6227 73.9131L59.3807 73.2568C59.6268 73.2568 59.7908 73.0927 59.9549 72.9287L74.8852 53.5685C76.6899 53.1583 77.8384 52.9943 80.3815 52.42C91.21 49.959 99.3314 48.8105 98.6751 45.7752Z" fill="white"/>
<path d="M21.9288 101H28.9688V98.6H24.6808V90.328H21.9288V101ZM30.0381 96.68C30.0381 99.304 31.5741 101.192 34.9981 101.192C38.4221 101.192 39.9421 99.32 39.9421 96.664V90.328H37.1421V96.584C37.1421 97.848 36.4701 98.76 34.9981 98.76C33.5101 98.76 32.8381 97.848 32.8381 96.584V90.328H30.0381V96.68ZM41.8663 101H44.6183V96.76H49.5783V94.424H44.6183V92.648H49.6903V90.328H41.8663V101ZM53.5628 101H56.3148V92.728H59.2908V90.328H50.5708V92.728H53.5628V101ZM60.6006 101H63.3526V96.76H68.3126V94.424H63.3526V92.648H68.4246V90.328H60.6006V101ZM75.8651 101H79.0171L76.8411 97.08C77.8331 96.728 78.9691 95.736 78.9691 93.88C78.9691 91.896 77.6251 90.328 75.2571 90.328H69.9131V101H72.6651V97.384H74.0731L75.8651 101ZM76.1691 93.848C76.1691 94.584 75.5611 95.048 74.8411 95.048H72.6651V92.648H74.8411C75.5611 92.648 76.1691 93.112 76.1691 93.848ZM87.8673 101H90.8593L86.8273 90.328H83.3713L79.3552 101H82.3473L82.8913 99.384H87.3233L87.8673 101ZM85.0993 92.728L86.6033 97.064H83.6113L85.0993 92.728ZM90.5879 95.672C90.5879 99.064 93.1799 101.192 96.3639 101.192C98.3799 101.192 99.9319 100.376 101.084 99.112V94.936H95.9319V97.224H98.3799V98.12C97.9479 98.472 97.1959 98.76 96.3639 98.76C94.6199 98.76 93.3879 97.416 93.3879 95.672C93.3879 93.928 94.6199 92.584 96.3639 92.584C97.3719 92.584 98.1879 93.144 98.6199 93.848L100.924 92.632C100.14 91.304 98.6999 90.152 96.3639 90.152C93.1799 90.152 90.5879 92.28 90.5879 95.672ZM104.953 101H107.705V92.728H110.681V90.328H101.961V92.728H104.953V101Z" fill="white"/>
<path d="M280.221 36.006C280.221 39.822 283.137 42.216 286.719 42.216C288.987 42.216 290.733 41.298 292.029 39.876V35.178H286.233V37.752H288.987V38.76C288.501 39.156 287.655 39.48 286.719 39.48C284.757 39.48 283.371 37.968 283.371 36.006C283.371 34.044 284.757 32.532 286.719 32.532C287.853 32.532 288.771 33.162 289.257 33.954L291.849 32.586C290.967 31.092 289.347 29.796 286.719 29.796C283.137 29.796 280.221 32.19 280.221 36.006ZM300.537 42H304.083L301.635 37.59C302.751 37.194 304.029 36.078 304.029 33.99C304.029 31.758 302.517 29.994 299.853 29.994H293.841V42H296.937V37.932H298.521L300.537 42ZM300.879 33.954C300.879 34.782 300.195 35.304 299.385 35.304H296.937V32.604H299.385C300.195 32.604 300.879 33.126 300.879 33.954ZM315.803 31.236L316.685 30.03L315.443 29.13L314.507 30.426C313.643 30.012 312.635 29.796 311.555 29.796C307.883 29.796 305.129 32.352 305.129 36.006C305.129 37.914 305.885 39.534 307.127 40.632L306.173 41.964L307.415 42.864L308.405 41.496C309.323 41.964 310.385 42.216 311.555 42.216C315.227 42.216 317.963 39.66 317.963 36.006C317.963 34.008 317.153 32.352 315.803 31.236ZM308.279 36.006C308.279 34.044 309.557 32.532 311.555 32.532C312.023 32.532 312.437 32.622 312.815 32.766L308.927 38.166C308.513 37.572 308.279 36.834 308.279 36.006ZM311.555 39.48C311.015 39.48 310.511 39.372 310.097 39.156L314.057 33.684C314.543 34.296 314.813 35.106 314.813 36.006C314.813 37.95 313.535 39.48 311.555 39.48ZM327.694 42H330.682V29.994H327.568V36.906L322.708 29.994H319.522V42H322.618V34.746L327.694 42ZM332.847 42H340.767V39.3H335.943V29.994H332.847V42ZM350.672 42H354.038L349.502 29.994H345.614L341.096 42H344.462L345.074 40.182H350.06L350.672 42ZM347.558 32.694L349.25 37.572H345.884L347.558 32.694ZM363.097 42H366.085V29.994H362.971V36.906L358.111 29.994H354.925V42H358.021V34.746L363.097 42ZM368.249 42H373.307C377.069 42 379.787 39.714 379.787 35.988C379.787 32.262 377.069 29.994 373.289 29.994H368.249V42ZM371.345 39.3V32.694H373.307C375.503 32.694 376.619 34.134 376.619 35.988C376.619 37.77 375.395 39.3 373.289 39.3H371.345Z" fill="#333333"/>
<path d="M232.417 93H238.599C243.197 93 246.519 90.206 246.519 85.652C246.519 81.098 243.197 78.326 238.577 78.326H232.417V93ZM236.201 89.7V81.626H238.599C241.283 81.626 242.647 83.386 242.647 85.652C242.647 87.83 241.151 89.7 238.577 89.7H236.201ZM257.834 93H261.948L256.404 78.326H251.652L246.13 93H250.244L250.992 90.778H257.086L257.834 93ZM254.028 81.626L256.096 87.588H251.982L254.028 81.626ZM261.575 85.674C261.575 90.338 265.139 93.264 269.517 93.264C272.289 93.264 274.423 92.142 276.007 90.404V84.662H268.923V87.808H272.289V89.04C271.695 89.524 270.661 89.92 269.517 89.92C267.119 89.92 265.425 88.072 265.425 85.674C265.425 83.276 267.119 81.428 269.517 81.428C270.903 81.428 272.025 82.198 272.619 83.166L275.787 81.494C274.709 79.668 272.729 78.084 269.517 78.084C265.139 78.084 261.575 81.01 261.575 85.674ZM278.221 93H287.901V89.7H282.005V78.326H278.221V93ZM289.866 93H293.65V78.326H289.866V93ZM295.542 85.674C295.542 90.338 299.106 93.264 303.484 93.264C306.256 93.264 308.39 92.142 309.974 90.404V84.662H302.89V87.808H306.256V89.04C305.662 89.524 304.628 89.92 303.484 89.92C301.086 89.92 299.392 88.072 299.392 85.674C299.392 83.276 301.086 81.428 303.484 81.428C304.87 81.428 305.992 82.198 306.586 83.166L309.754 81.494C308.676 79.668 306.696 78.084 303.484 78.084C299.106 78.084 295.542 81.01 295.542 85.674ZM312.188 93H322.946V89.81H315.972V87.17H322.792V83.958H315.972V81.516H322.946V78.326H312.188V93ZM341.948 93H343.356L337.35 78.326H335.788L329.782 93H331.19L332.664 89.392H340.474L341.948 93ZM336.558 79.558L340.078 88.248H333.06L336.558 79.558ZM345.522 93H346.776V86.048H354.674V84.904H346.776V79.47H354.828V78.326H345.522V93ZM356.896 85.674C356.896 90.206 360.196 93.286 364.332 93.286C366.642 93.286 368.578 92.296 369.898 90.844V85.718H363.078V86.862H368.644V90.36C367.83 91.174 366.29 92.142 364.332 92.142C360.878 92.142 358.216 89.458 358.216 85.674C358.216 81.846 360.878 79.228 364.332 79.228C366.202 79.228 367.874 80.042 368.908 81.274L369.854 80.592C368.512 79.052 366.752 78.084 364.332 78.084C360.196 78.084 356.896 81.142 356.896 85.674ZM383.714 93H385.122L379.116 78.326H377.554L371.548 93H372.956L374.43 89.392H382.24L383.714 93ZM378.324 79.558L381.844 88.248H374.826L378.324 79.558ZM397.782 93H399.014V78.326H397.76V90.822L388.564 78.326H387.288V93H388.542V80.328L397.782 93ZM402.121 85.674C402.121 90.206 405.421 93.286 409.557 93.286C411.867 93.286 413.803 92.296 415.123 90.844V85.718H408.303V86.862H413.869V90.36C413.055 91.174 411.515 92.142 409.557 92.142C406.103 92.142 403.441 89.458 403.441 85.674C403.441 81.846 406.103 79.228 409.557 79.228C411.427 79.228 413.099 80.042 414.133 81.274L415.079 80.592C413.737 79.052 411.977 78.084 409.557 78.084C405.421 78.084 402.121 81.142 402.121 85.674ZM418.311 93H427.617V91.856H419.565V86.048H427.463V84.904H419.565V79.47H427.617V78.326H418.311V93Z" fill="#333333"/>
<path d="M602.417 93H608.599C613.197 93 616.519 90.206 616.519 85.652C616.519 81.098 613.197 78.326 608.577 78.326H602.417V93ZM606.201 89.7V81.626H608.599C611.283 81.626 612.647 83.386 612.647 85.652C612.647 87.83 611.151 89.7 608.577 89.7H606.201ZM627.834 93H631.948L626.404 78.326H621.652L616.13 93H620.244L620.992 90.778H627.086L627.834 93ZM624.028 81.626L626.096 87.588H621.982L624.028 81.626ZM631.575 85.674C631.575 90.338 635.139 93.264 639.517 93.264C642.289 93.264 644.423 92.142 646.007 90.404V84.662H638.923V87.808H642.289V89.04C641.695 89.524 640.661 89.92 639.517 89.92C637.119 89.92 635.425 88.072 635.425 85.674C635.425 83.276 637.119 81.428 639.517 81.428C640.903 81.428 642.025 82.198 642.619 83.166L645.787 81.494C644.709 79.668 642.729 78.084 639.517 78.084C635.139 78.084 631.575 81.01 631.575 85.674ZM648.221 93H657.901V89.7H652.005V78.326H648.221V93ZM659.866 93H663.65V78.326H659.866V93ZM665.542 85.674C665.542 90.338 669.106 93.264 673.484 93.264C676.256 93.264 678.39 92.142 679.974 90.404V84.662H672.89V87.808H676.256V89.04C675.662 89.524 674.628 89.92 673.484 89.92C671.086 89.92 669.392 88.072 669.392 85.674C669.392 83.276 671.086 81.428 673.484 81.428C674.87 81.428 675.992 82.198 676.586 83.166L679.754 81.494C678.676 79.668 676.696 78.084 673.484 78.084C669.106 78.084 665.542 81.01 665.542 85.674ZM682.188 93H692.946V89.81H685.972V87.17H692.792V83.958H685.972V81.516H692.946V78.326H682.188V93ZM711.948 93H713.356L707.35 78.326H705.788L699.782 93H701.19L702.664 89.392H710.474L711.948 93ZM706.558 79.558L710.078 88.248H703.06L706.558 79.558ZM715.522 93H716.776V86.048H724.674V84.904H716.776V79.47H724.828V78.326H715.522V93ZM726.896 85.674C726.896 90.206 730.196 93.286 734.332 93.286C736.642 93.286 738.578 92.296 739.898 90.844V85.718H733.078V86.862H738.644V90.36C737.83 91.174 736.29 92.142 734.332 92.142C730.878 92.142 728.216 89.458 728.216 85.674C728.216 81.846 730.878 79.228 734.332 79.228C736.202 79.228 737.874 80.042 738.908 81.274L739.854 80.592C738.512 79.052 736.752 78.084 734.332 78.084C730.196 78.084 726.896 81.142 726.896 85.674ZM753.714 93H755.122L749.116 78.326H747.554L741.548 93H742.956L744.43 89.392H752.24L753.714 93ZM748.324 79.558L751.844 88.248H744.826L748.324 79.558ZM767.782 93H769.014V78.326H767.76V90.822L758.564 78.326H757.288V93H758.542V80.328L767.782 93ZM772.121 85.674C772.121 90.206 775.421 93.286 779.557 93.286C781.867 93.286 783.803 92.296 785.123 90.844V85.718H778.303V86.862H783.869V90.36C783.055 91.174 781.515 92.142 779.557 92.142C776.103 92.142 773.441 89.458 773.441 85.674C773.441 81.846 776.103 79.228 779.557 79.228C781.427 79.228 783.099 80.042 784.133 81.274L785.079 80.592C783.737 79.052 781.977 78.084 779.557 78.084C775.421 78.084 772.121 81.142 772.121 85.674ZM788.311 93H797.617V91.856H789.565V86.048H797.463V84.904H789.565V79.47H797.617V78.326H788.311V93Z" fill="#333333"/>
<path d="M972.417 93H978.599C983.197 93 986.519 90.206 986.519 85.652C986.519 81.098 983.197 78.326 978.577 78.326H972.417V93ZM976.201 89.7V81.626H978.599C981.283 81.626 982.647 83.386 982.647 85.652C982.647 87.83 981.151 89.7 978.577 89.7H976.201ZM997.834 93H1001.95L996.404 78.326H991.652L986.13 93H990.244L990.992 90.778H997.086L997.834 93ZM994.028 81.626L996.096 87.588H991.982L994.028 81.626ZM1001.57 85.674C1001.57 90.338 1005.14 93.264 1009.52 93.264C1012.29 93.264 1014.42 92.142 1016.01 90.404V84.662H1008.92V87.808H1012.29V89.04C1011.69 89.524 1010.66 89.92 1009.52 89.92C1007.12 89.92 1005.42 88.072 1005.42 85.674C1005.42 83.276 1007.12 81.428 1009.52 81.428C1010.9 81.428 1012.02 82.198 1012.62 83.166L1015.79 81.494C1014.71 79.668 1012.73 78.084 1009.52 78.084C1005.14 78.084 1001.57 81.01 1001.57 85.674ZM1018.22 93H1027.9V89.7H1022.01V78.326H1018.22V93ZM1029.87 93H1033.65V78.326H1029.87V93ZM1035.54 85.674C1035.54 90.338 1039.11 93.264 1043.48 93.264C1046.26 93.264 1048.39 92.142 1049.97 90.404V84.662H1042.89V87.808H1046.26V89.04C1045.66 89.524 1044.63 89.92 1043.48 89.92C1041.09 89.92 1039.39 88.072 1039.39 85.674C1039.39 83.276 1041.09 81.428 1043.48 81.428C1044.87 81.428 1045.99 82.198 1046.59 83.166L1049.75 81.494C1048.68 79.668 1046.7 78.084 1043.48 78.084C1039.11 78.084 1035.54 81.01 1035.54 85.674ZM1052.19 93H1062.95V89.81H1055.97V87.17H1062.79V83.958H1055.97V81.516H1062.95V78.326H1052.19V93ZM1081.95 93H1083.36L1077.35 78.326H1075.79L1069.78 93H1071.19L1072.66 89.392H1080.47L1081.95 93ZM1076.56 79.558L1080.08 88.248H1073.06L1076.56 79.558ZM1085.52 93H1086.78V86.048H1094.67V84.904H1086.78V79.47H1094.83V78.326H1085.52V93ZM1096.9 85.674C1096.9 90.206 1100.2 93.286 1104.33 93.286C1106.64 93.286 1108.58 92.296 1109.9 90.844V85.718H1103.08V86.862H1108.64V90.36C1107.83 91.174 1106.29 92.142 1104.33 92.142C1100.88 92.142 1098.22 89.458 1098.22 85.674C1098.22 81.846 1100.88 79.228 1104.33 79.228C1106.2 79.228 1107.87 80.042 1108.91 81.274L1109.85 80.592C1108.51 79.052 1106.75 78.084 1104.33 78.084C1100.2 78.084 1096.9 81.142 1096.9 85.674ZM1123.71 93H1125.12L1119.12 78.326H1117.55L1111.55 93H1112.96L1114.43 89.392H1122.24L1123.71 93ZM1118.32 79.558L1121.84 88.248H1114.83L1118.32 79.558ZM1137.78 93H1139.01V78.326H1137.76V90.822L1128.56 78.326H1127.29V93H1128.54V80.328L1137.78 93ZM1142.12 85.674C1142.12 90.206 1145.42 93.286 1149.56 93.286C1151.87 93.286 1153.8 92.296 1155.12 90.844V85.718H1148.3V86.862H1153.87V90.36C1153.05 91.174 1151.51 92.142 1149.56 92.142C1146.1 92.142 1143.44 89.458 1143.44 85.674C1143.44 81.846 1146.1 79.228 1149.56 79.228C1151.43 79.228 1153.1 80.042 1154.13 81.274L1155.08 80.592C1153.74 79.052 1151.98 78.084 1149.56 78.084C1145.42 78.084 1142.12 81.142 1142.12 85.674ZM1158.31 93H1167.62V91.856H1159.57V86.048H1167.46V84.904H1159.57V79.47H1167.62V78.326H1158.31V93Z" fill="#333333"/>
<path d="M668.754 42H671.85V29.994H668.754V42ZM673.146 40.308C674.352 41.46 676.044 42.216 678.474 42.216C681.696 42.216 683.478 40.614 683.478 38.202C683.478 35.484 680.742 34.908 678.762 34.494C677.43 34.242 676.692 34.026 676.692 33.396C676.692 32.874 677.088 32.46 678.114 32.46C679.176 32.46 680.49 32.874 681.498 33.702L683.19 31.488C681.912 30.39 680.238 29.814 678.312 29.814C675.234 29.814 673.524 31.56 673.524 33.576C673.524 36.42 676.296 36.924 678.276 37.32C679.554 37.59 680.328 37.86 680.328 38.544C680.328 39.12 679.68 39.57 678.618 39.57C676.98 39.57 675.648 38.85 674.784 37.986L673.146 40.308ZM684.926 42H692.846V39.3H688.022V29.994H684.926V42ZM702.751 42H706.117L701.581 29.994H697.693L693.175 42H696.541L697.153 40.182H702.139L702.751 42ZM699.637 32.694L701.329 37.572H697.963L699.637 32.694ZM715.176 42H718.164V29.994H715.05V36.906L710.19 29.994H707.004V42H710.1V34.746L715.176 42ZM720.328 42H725.386C729.148 42 731.866 39.714 731.866 35.988C731.866 32.262 729.148 29.994 725.368 29.994H720.328V42ZM723.424 39.3V32.694H725.386C727.582 32.694 728.698 34.134 728.698 35.988C728.698 37.77 727.474 39.3 725.368 39.3H723.424Z" fill="#333333"/>
<path d="M1021.4 42H1024.5V37.23H1030.08V34.602H1024.5V32.604H1030.21V29.994H1021.4V42ZM1038.13 42H1046.93V39.39H1041.23V37.23H1046.81V34.602H1041.23V32.604H1046.93V29.994H1036.85L1029.65 42H1033.04L1034.04 40.182H1038.13V42ZM1038.13 32.694V37.572H1035.45L1038.13 32.694ZM1055.35 42H1058.89L1056.44 37.59C1057.56 37.194 1058.84 36.078 1058.84 33.99C1058.84 31.758 1057.33 29.994 1054.66 29.994H1048.65V42H1051.75V37.932H1053.33L1055.35 42ZM1055.69 33.954C1055.69 34.782 1055 35.304 1054.19 35.304H1051.75V32.604H1054.19C1055 32.604 1055.69 33.126 1055.69 33.954ZM1070.61 31.236L1071.49 30.03L1070.25 29.13L1069.32 30.426C1068.45 30.012 1067.44 29.796 1066.36 29.796C1062.69 29.796 1059.94 32.352 1059.94 36.006C1059.94 37.914 1060.69 39.534 1061.94 40.632L1060.98 41.964L1062.22 42.864L1063.21 41.496C1064.13 41.964 1065.19 42.216 1066.36 42.216C1070.04 42.216 1072.77 39.66 1072.77 36.006C1072.77 34.008 1071.96 32.352 1070.61 31.236ZM1063.09 36.006C1063.09 34.044 1064.37 32.532 1066.36 32.532C1066.83 32.532 1067.25 32.622 1067.62 32.766L1063.74 38.166C1063.32 37.572 1063.09 36.834 1063.09 36.006ZM1066.36 39.48C1065.82 39.48 1065.32 39.372 1064.91 39.156L1068.87 33.684C1069.35 34.296 1069.62 35.106 1069.62 36.006C1069.62 37.95 1068.34 39.48 1066.36 39.48ZM1074.33 42H1083.13V39.39H1077.43V37.23H1083.01V34.602H1077.43V32.604H1083.13V29.994H1074.33V42ZM1091.63 42H1095.17L1092.73 37.59C1093.84 37.194 1095.12 36.078 1095.12 33.99C1095.12 31.758 1093.61 29.994 1090.94 29.994H1084.93V42H1088.03V37.932H1089.61L1091.63 42ZM1091.97 33.954C1091.97 34.782 1091.29 35.304 1090.48 35.304H1088.03V32.604H1090.48C1091.29 32.604 1091.97 33.126 1091.97 33.954ZM1105 42H1107.99V29.994H1104.88V36.906L1100.02 29.994H1096.83V42H1099.93V34.746L1105 42ZM1110.16 42H1118.96V39.39H1113.25V37.23H1118.83V34.602H1113.25V32.604H1118.96V29.994H1110.16V42Z" fill="#333333"/>
<g clip-path="url(#clip0)">
<path d="M1011.86 24H976V48H1011.86V24Z" fill="white"/>
<path d="M976 39.2536H985.774V48H992.281V39.2536H1011.83V32.7464H992.281V24H985.774V32.7464H976V39.2536Z" fill="#0066B2"/>
<path d="M976 37.6202H987.407V48H990.674V37.6202H1011.86V34.3535H990.674V24H987.407V34.3535H976V37.6202Z" fill="#E63542"/>
</g>
<g clip-path="url(#clip1)">
<path d="M1165.86 24H1130V48H1165.86V24Z" fill="white"/>
<path d="M1130 39.2536H1139.77V48H1146.28V39.2536H1165.83V32.7464H1146.28V24H1139.77V32.7464H1130V39.2536Z" fill="#0066B2"/>
<path d="M1130 37.6202H1141.41V48H1144.67V37.6202H1165.86V34.3535H1144.67V24H1141.41V34.3535H1130V37.6202Z" fill="#E63542"/>
</g>
<g clip-path="url(#clip2)">
<path d="M269.855 24H234V48H269.855V24Z" fill="white"/>
<path d="M234 36.0395H269.855V48H234V36.0395ZM239.98 36.0395C239.98 40.4391 243.537 43.9956 247.936 43.9956C252.336 43.9956 255.892 40.4391 255.892 36.0395C255.892 31.6399 252.336 28.0834 247.936 28.0834C243.537 28.0834 239.98 31.6399 239.98 36.0395Z" fill="#E41A35"/>
</g>
<g clip-path="url(#clip3)">
<path d="M425.855 24H390V48H425.855V24Z" fill="white"/>
<path d="M390 36.0395H425.855V48H390V36.0395ZM395.98 36.0395C395.98 40.4391 399.537 43.9956 403.936 43.9956C408.336 43.9956 411.892 40.4391 411.892 36.0395C411.892 31.6399 408.336 28.0834 403.936 28.0834C399.537 28.0834 395.98 31.6399 395.98 36.0395Z" fill="#E41A35"/>
</g>
<path d="M658.833 24H623V48H658.833V24Z" fill="#2F207E"/>
<path d="M658.833 32.9308H638.086V24H631.952V32.9308H623V39.0692H631.952V48H638.086V39.0692H658.833V32.9308Z" fill="white"/>
<path d="M633.61 24V34.5906H623V37.4094H633.61V48H636.428V37.4094H658.833V34.5906H636.428V24H633.61Z" fill="#E50004"/>
<path d="M777.833 24H742V48H777.833V24Z" fill="#2F207E"/>
<path d="M777.833 32.9308H757.086V24H750.952V32.9308H742V39.0692H750.952V48H757.086V39.0692H777.833V32.9308Z" fill="white"/>
<path d="M752.61 24V34.5906H742V37.4094H752.61V48H755.428V37.4094H777.833V34.5906H755.428V24H752.61Z" fill="#E50004"/>
<defs>
<clipPath id="clip0">
<rect width="35.8551" height="24" fill="white" transform="translate(976 24)"/>
</clipPath>
<clipPath id="clip1">
<rect width="35.8551" height="24" fill="white" transform="translate(1130 24)"/>
</clipPath>
<clipPath id="clip2">
<rect width="35.8551" height="24" fill="white" transform="translate(234 24)"/>
</clipPath>
<clipPath id="clip3">
<rect width="35.8551" height="24" fill="white" transform="translate(390 24)"/>
</clipPath>
</defs>
</svg>
