<svg xmlns="http://www.w3.org/2000/svg" viewBox="0 0 136.06 91.12"><defs><style>.cls-1{fill:#2f207d;}.cls-2{fill:#fff;}.cls-3{fill:#e60004;}.cls-4{fill:none;}</style></defs><g id="Layer_2" data-name="Layer 2"><g id="Layer_1-2" data-name="Layer 1"><rect class="cls-1" width="136.06" height="91.12"/><polygon class="cls-2" points="0 0 17.05 0 52.75 23.91 52.75 0 83.34 0 83.34 23.9 119.01 0 136.06 0 136.06 0 136.06 11.41 107.91 30.27 136.06 30.27 136.06 60.85 107.91 60.85 136.06 79.71 136.06 91.12 119.02 91.12 83.34 67.22 83.34 91.12 52.75 91.12 52.75 67.21 17.05 91.12 0 91.12 0 79.71 28.15 60.85 0 60.85 0 30.27 28.16 30.27 0 11.41 0 0"/><polygon class="cls-3" points="52.75 63.04 52.75 60.85 45.19 60.85 0 91.12 10.81 91.12 52.75 63.04"/><polygon class="cls-3" points="83.34 28.07 83.34 30.27 90.87 30.27 136.06 0 125.25 0 83.34 28.07"/><polygon class="cls-3" points="0 7.23 34.39 30.27 45.2 30.27 0 0 0 0 0 7.23"/><polygon class="cls-3" points="90.88 60.85 136.06 91.12 136.06 83.88 101.68 60.85 90.88 60.85"/><polygon class="cls-3" points="77.22 36.38 77.22 0 58.86 0 58.86 36.38 0 36.38 0 54.74 58.86 54.74 58.86 91.12 77.22 91.12 77.22 54.74 136.06 54.74 136.06 36.38 77.22 36.38"/><rect class="cls-4" width="136.06" height="91.12"/></g></g></svg>