<svg width="100" height="100" viewBox="0 0 100 100" xmlns="http://www.w3.org/2000/svg"><title>Service - Aid and Relief (blue)</title><g id="Page-1" fill="none" fill-rule="evenodd"><g id="Service---Aid-and-Relief-(blue)"><circle id="Oval" fill="#0060A9" cx="49.882" cy="49.882" r="49.882"/><path d="M73.467 35.548h-9.662c-.865-5.583-6.513-8.738-13.924-8.738-7.41 0-13.06 3.164-13.924 8.738h-9.662c-.9 0-1.632.73-1.632 1.632v27.726c0 .902.73 1.633 1.632 1.633h5.397v1.333c0 .15.123.272.273.272h4.433c.15 0 .272-.12.272-.272V66.54h26.424v1.333c0 .15.122.272.272.272h4.433c.15 0 .272-.12.272-.272V66.54h5.397c.902 0 1.632-.732 1.632-1.634V37.18c0-.9-.73-1.632-1.633-1.632zM49.88 30.435c4.965 0 8.82 1.524 9.762 5.113h-19.52c.942-3.586 4.796-5.112 9.76-5.112zm0 31.985A11.21 11.21 0 1 1 61.09 51.21c.002 6.19-5.015 11.21-11.205 11.213l-.002-.003zm7.856-13.452v4.703a.607.607 0 0 1-.607.607h-3.67a.607.607 0 0 0-.606.607v3.67a.607.607 0 0 1-.607.606h-4.703a.607.607 0 0 1-.606-.607V54.9a.607.607 0 0 0-.607-.608h-3.69a.607.607 0 0 1-.605-.607v-4.703c0-.335.27-.606.606-.606h3.67a.607.607 0 0 0 .607-.607V44.1c0-.335.272-.607.607-.607h4.705c.334 0 .606.272.606.607v3.67c0 .334.27.606.606.606h3.67a.607.607 0 0 1 .625.592z" id="Shape" fill="#FFF"/></g></g></svg>