<svg width="100" height="100" viewBox="0 0 100 100" xmlns="http://www.w3.org/2000/svg"><title>Slice 1</title><g id="Page-1" fill="none" fill-rule="evenodd"><g id="hsseq-on"><g id="Layer_2"><g id="Blue_icons"><circle id="Oval" fill="#0060A9" cx="49.942" cy="49.942" r="49.942"/><path d="M78.58 61.015c-2.01-22.382-12.773-25.89-12.773-25.89L59.322 48.75l3.716-16.56c.105-.493-1.673-1.087-1.944-1.186-2.23-.816-4.618-1.27-6.97-1.65-.468-1.354-1.753-1.6-3.267-1.6-1.43 0-2.658.14-3.184 1.378-1.586.198-3.16.476-4.718.834-1.277.278-2.563.584-3.793 1.032-.608.22-1.682.533-1.966 1.195l3.715 16.563-6.487-13.63S23.66 38.632 21.65 61.006h-.17a1.774 1.774 0 1 0 0 3.548h56.926a1.774 1.774 0 0 0 .174-3.538z" id="Shape" fill="#FFF"/></g></g></g></g></svg>