<svg xmlns="http://www.w3.org/2000/svg" viewBox="0 0 136.06 84.05"><defs><style>.cls-1{fill:#b92d3d;}.cls-2{fill:#f3dd2a;}.cls-11,.cls-3,.cls-4{fill:none;}.cls-11,.cls-4{stroke:#212125;}.cls-4{stroke-width:0px;}.cls-5{fill:#e4e5e9;}.cls-6{fill:#efd31f;}.cls-7{fill:#7cafdf;}.cls-8{fill:#fff;}.cls-9{fill:#81b046;}.cls-10{fill:#31a9e7;}.cls-11{stroke-width:0px;}.cls-12{fill:#329945;}.cls-13{fill:#79b6e5;}.cls-14{fill:#212125;}</style></defs><g id="Layer_2" data-name="Layer 2"><g id="Layer_1-2" data-name="Layer 1"><rect class="cls-1" y="0.05" width="136.06" height="20.3"/><rect class="cls-1" y="63.75" width="136.06" height="20.3"/><rect class="cls-2" y="20.35" width="136.06" height="43.4"/><rect class="cls-3" width="136.06" height="83.99"/><path class="cls-1" d="M25.3,36c1.23,0,2.16-.73,2.16-1.3s-.93-1.12-2.16-1.12c-.93,0-1.85.51-1.85,1.12S24.37,36,25.3,36"/><path class="cls-4" d="M25.3,36c1.23,0,2.15-.73,2.15-1.29s-.92-1.13-2.15-1.13c-.93,0-1.85.51-1.85,1.13S24.37,36,25.3,36Z"/><path class="cls-1" d="M58.32,46.66c-.63.45-.94,1.12-5.87,1.63l-.31-1.06c0-.8.93-.85,1.24-.8s3.38-.16,4-.61l.94.84"/><path class="cls-4" d="M58.3,46.66c-.61.45-.92,1.12-5.85,1.63l-.31-1.06c0-.79.93-.85,1.24-.79s3.38-.17,4-.62Z"/><rect class="cls-5" x="53.38" y="39.18" width="3.08" height="16.81"/><rect class="cls-4" x="53.38" y="39.18" width="3.08" height="16.81"/><rect class="cls-5" x="55.84" y="39.18" width="0.31" height="16.81"/><rect class="cls-4" x="55.84" y="39.18" width="0.31" height="16.81"/><rect class="cls-5" x="53.68" y="38.85" width="2.77" height="0.28"/><rect class="cls-5" x="53.68" y="55.94" width="2.77" height="0.28"/><rect class="cls-4" x="53.68" y="55.94" width="2.77" height="0.28"/><polyline class="cls-6" points="56.46 56.61 56.76 56.45 56.46 56.22 53.38 56.22 53.07 56.45 53.38 56.61 56.46 56.61"/><polygon class="cls-4" points="56.46 56.61 56.76 56.45 56.46 56.22 53.38 56.22 53.07 56.45 53.38 56.61 56.46 56.61"/><rect class="cls-6" x="52.76" y="57.23" width="4.62" height="1.29"/><rect class="cls-4" x="52.76" y="57.23" width="4.62" height="1.29"/><path class="cls-6" d="M56.46,56.61c0,.28.3.56.92.62H52.76a.75.75,0,0,0,.62-.62h3.08"/><path class="cls-4" d="M56.46,56.61c0,.28.3.56.92.62H52.76a.75.75,0,0,0,.62-.62Z"/><rect class="cls-5" x="53.68" y="38.85" width="2.77" height="0.28"/><rect class="cls-4" x="53.68" y="38.85" width="2.77" height="0.28"/><polyline class="cls-6" points="56.46 38.51 56.76 38.68 56.46 38.85 53.38 38.85 53.07 38.68 53.38 38.51 56.46 38.51"/><polygon class="cls-4" points="56.46 38.51 56.76 38.68 56.46 38.85 53.38 38.85 53.07 38.68 53.38 38.51 56.46 38.51"/><rect class="cls-6" x="52.76" y="36.6" width="4.62" height="1.3"/><rect class="cls-4" x="52.76" y="36.6" width="4.62" height="1.29"/><path class="cls-6" d="M56.46,38.51c0-.28.3-.56.92-.61H52.76a.73.73,0,0,1,.62.61h3.08"/><path class="cls-4" d="M56.46,38.51c0-.28.3-.56.92-.62H52.76a.75.75,0,0,1,.62.62Z"/><path class="cls-7" d="M58,59.14c-.62,0-.93-.28-1.54-.28s-.93.28-1.54.28a14,14,0,0,1-1.54-.28c-.62,0-.93.28-1.54.28v-.5c.61,0,.92-.28,1.54-.28a14,14,0,0,0,1.54.28c.61,0,.92-.28,1.54-.28s.92.28,1.54.28v.5"/><path class="cls-4" d="M58,59.14c-.62,0-.93-.28-1.54-.28s-.93.28-1.54.28a14,14,0,0,1-1.54-.28c-.62,0-.93.28-1.54.28v-.5c.61,0,.92-.28,1.54-.28a14,14,0,0,0,1.54.28c.61,0,.92-.28,1.54-.28s.92.28,1.54.28Z"/><path class="cls-5" d="M58,59.65c-.62,0-.93-.29-1.54-.29s-.93.29-1.54.29a13.52,13.52,0,0,1-1.54-.29c-.62,0-.93.29-1.54.29v-.51c.61,0,.92-.28,1.54-.28a14,14,0,0,0,1.54.28c.61,0,.92-.28,1.54-.28s.92.28,1.54.28v.51"/><path class="cls-4" d="M58,59.65c-.62,0-.93-.29-1.54-.29s-.93.29-1.54.29a13.52,13.52,0,0,1-1.54-.29c-.62,0-.93.29-1.54.29v-.51c.61,0,.92-.28,1.54-.28a14,14,0,0,0,1.54.28c.61,0,.92-.28,1.54-.28s.92.28,1.54.28Z"/><path class="cls-7" d="M58,60.15c-.62,0-.93-.27-1.54-.27s-.93.27-1.54.27a14.42,14.42,0,0,1-1.54-.27c-.62,0-.93.27-1.54.27v-.5c.61,0,.92-.29,1.54-.29a13.52,13.52,0,0,0,1.54.29c.61,0,.92-.29,1.54-.29s.92.29,1.54.29v.5"/><path class="cls-4" d="M58,60.15c-.62,0-.93-.27-1.54-.27s-.93.27-1.54.27a14.42,14.42,0,0,1-1.54-.27c-.62,0-.93.27-1.54.27v-.5c.61,0,.92-.29,1.54-.29a13.52,13.52,0,0,0,1.54.29c.61,0,.92-.29,1.54-.29s.92.29,1.54.29Z"/><path class="cls-5" d="M58,60.66c-.62,0-.93-.28-1.54-.28s-.93.28-1.54.28a14,14,0,0,1-1.54-.28c-.62,0-.93.28-1.54.28v-.51c.61,0,.92-.27,1.54-.27a14.42,14.42,0,0,0,1.54.27c.61,0,.92-.27,1.54-.27s.92.27,1.54.27v.51"/><path class="cls-4" d="M58,60.66c-.62,0-.93-.28-1.54-.28s-.93.28-1.54.28a14,14,0,0,1-1.54-.28c-.62,0-.93.28-1.54.28v-.51c.61,0,.92-.27,1.54-.27a14.42,14.42,0,0,0,1.54.27c.61,0,.92-.27,1.54-.27s.92.27,1.54.27Z"/><path class="cls-7" d="M58,61.17c-.62,0-.93-.28-1.54-.28s-.93.28-1.54.28a14,14,0,0,1-1.54-.28c-.62,0-.93.28-1.54.28v-.51c.61,0,.92-.28,1.54-.28a14,14,0,0,0,1.54.28c.61,0,.92-.28,1.54-.28s.92.28,1.54.28v.51"/><path class="cls-4" d="M58,61.17c-.62,0-.93-.28-1.54-.28s-.93.28-1.54.28a14,14,0,0,1-1.54-.28c-.62,0-.93.28-1.54.28v-.51c.61,0,.92-.28,1.54-.28a14,14,0,0,0,1.54.28c.61,0,.92-.28,1.54-.28s.92.28,1.54.28Z"/><path class="cls-1" d="M49.67,43.4c.93-.22,5.55-1.34,9,1.46-.31.51-.63,1.29-.31,1.8a10.33,10.33,0,0,0-8.65-1.17V43.4"/><path class="cls-4" d="M49.67,43.4c.92-.22,5.55-1.35,9,1.46a1.92,1.92,0,0,0-.33,1.8,10.29,10.29,0,0,0-8.63-1.18Z"/><path class="cls-1" d="M52.14,47.11c-.3.85-.3,1.24-.61,1.58.61.5.92,1,4.62,2.47A7,7,0,0,1,58,52.62a1.89,1.89,0,0,0-.93-2.76c-1.23-.61-4.93-2.3-4.93-2.75"/><path class="cls-4" d="M52.14,47.11c-.3.85-.3,1.24-.61,1.58.61.5.92,1,4.62,2.47A6.83,6.83,0,0,1,58,52.62a1.9,1.9,0,0,0-.93-2.76C55.84,49.25,52.14,47.56,52.14,47.11Z"/><path class="cls-1" d="M58,52.62c-.31.45-.31.73-.62,1.07L56.76,53l.62-1a6.81,6.81,0,0,1,.62.67"/><path class="cls-4" d="M58,52.62c-.31.45-.31.73-.62,1.07L56.76,53l.62-1A6.81,6.81,0,0,1,58,52.62Z"/><path class="cls-1" d="M22.22,46.66c.3.45.61,1.12,5.55,1.63l.62-1.06c0-.8-.93-.85-1.25-.8-.61.06-3.69-.16-4.31-.61l-.61.84"/><path class="cls-4" d="M22.22,46.66c.3.45.61,1.12,5.55,1.63l.62-1.06c0-.79-.94-.85-1.25-.79-.61.05-3.69-.17-4.31-.62Z"/><rect class="cls-5" x="23.76" y="39.18" width="3.08" height="16.81"/><rect class="cls-4" x="23.76" y="39.18" width="3.08" height="16.81"/><rect class="cls-5" x="24.06" y="39.18" width="0.31" height="16.81"/><rect class="cls-4" x="24.06" y="39.18" width="0.31" height="16.81"/><rect class="cls-5" x="24.06" y="38.85" width="2.77" height="0.28"/><rect class="cls-5" x="24.06" y="55.94" width="2.77" height="0.28"/><rect class="cls-4" x="24.06" y="55.94" width="2.77" height="0.28"/><polyline class="cls-6" points="23.76 56.61 23.45 56.45 23.76 56.22 26.84 56.22 27.14 56.45 26.84 56.61 23.76 56.61"/><polygon class="cls-4" points="23.76 56.61 23.45 56.45 23.76 56.22 26.84 56.22 27.14 56.45 26.84 56.61 23.76 56.61"/><rect class="cls-6" x="23.14" y="57.23" width="4.63" height="1.29"/><rect class="cls-4" x="23.14" y="57.23" width="4.63" height="1.29"/><path class="cls-6" d="M23.76,56.61a.75.75,0,0,1-.62.62h4.63c-.63-.06-.93-.34-.93-.62H23.76"/><path class="cls-4" d="M23.76,56.61a.75.75,0,0,1-.62.62h4.63c-.63-.06-.93-.34-.93-.62Z"/><rect class="cls-5" x="24.06" y="38.85" width="2.77" height="0.28"/><rect class="cls-4" x="24.06" y="38.85" width="2.77" height="0.28"/><polyline class="cls-6" points="23.76 38.51 23.45 38.68 23.76 38.85 26.84 38.85 27.14 38.68 26.84 38.51 23.76 38.51"/><polygon class="cls-4" points="23.76 38.51 23.45 38.68 23.76 38.85 26.84 38.85 27.14 38.68 26.84 38.51 23.76 38.51"/><rect class="cls-6" x="23.14" y="36.6" width="4.63" height="1.3"/><rect class="cls-4" x="23.14" y="36.6" width="4.63" height="1.29"/><path class="cls-6" d="M23.76,38.51a.73.73,0,0,0-.62-.61h4.63c-.63.05-.93.33-.93.61H23.76"/><path class="cls-4" d="M23.76,38.51a.75.75,0,0,0-.62-.62h4.63c-.63.06-.93.34-.93.62Z"/><path class="cls-7" d="M22.22,59.14c.61,0,.92-.28,1.54-.28s.92.28,1.54.28a14.92,14.92,0,0,0,1.54-.28c.62,0,.93.28,1.85.28v-.5c-.92,0-1.23-.28-1.85-.28a14.92,14.92,0,0,1-1.54.28c-.62,0-.93-.28-1.54-.28s-.93.28-1.54.28v.5"/><path class="cls-4" d="M22.22,59.14c.61,0,.92-.28,1.54-.28s.92.28,1.54.28a14.92,14.92,0,0,0,1.54-.28c.61,0,.93.28,1.85.28v-.5c-.92,0-1.24-.28-1.85-.28a14.92,14.92,0,0,1-1.54.28c-.62,0-.93-.28-1.54-.28s-.93.28-1.54.28Z"/><path class="cls-5" d="M22.22,59.65c.61,0,.92-.29,1.54-.29s.92.29,1.54.29a14.46,14.46,0,0,0,1.54-.29c.62,0,.93.29,1.85.29v-.51c-.92,0-1.23-.28-1.85-.28a14.92,14.92,0,0,1-1.54.28c-.62,0-.93-.28-1.54-.28s-.93.28-1.54.28v.51"/><path class="cls-4" d="M22.22,59.65c.61,0,.92-.29,1.54-.29s.92.29,1.54.29a14.46,14.46,0,0,0,1.54-.29c.61,0,.93.29,1.85.29v-.51c-.92,0-1.24-.28-1.85-.28a14.92,14.92,0,0,1-1.54.28c-.62,0-.93-.28-1.54-.28s-.93.28-1.54.28Z"/><path class="cls-7" d="M22.22,60.15c.61,0,.92-.27,1.54-.27s.92.27,1.54.27a15.42,15.42,0,0,0,1.54-.27c.62,0,.93.27,1.85.27v-.5c-.92,0-1.23-.29-1.85-.29a14.46,14.46,0,0,1-1.54.29c-.62,0-.93-.29-1.54-.29s-.93.29-1.54.29v.5"/><path class="cls-4" d="M22.22,60.15c.61,0,.92-.27,1.54-.27s.92.27,1.54.27a15.42,15.42,0,0,0,1.54-.27c.61,0,.93.27,1.85.27v-.5c-.92,0-1.24-.29-1.85-.29a14.46,14.46,0,0,1-1.54.29c-.62,0-.93-.29-1.54-.29s-.93.29-1.54.29Z"/><path class="cls-5" d="M22.22,60.66c.61,0,.92-.28,1.54-.28s.92.28,1.54.28a14.92,14.92,0,0,0,1.54-.28c.62,0,.93.28,1.85.28v-.51c-.92,0-1.23-.27-1.85-.27a15.42,15.42,0,0,1-1.54.27c-.62,0-.93-.27-1.54-.27s-.93.27-1.54.27v.51"/><path class="cls-4" d="M22.22,60.66c.61,0,.92-.28,1.54-.28s.92.28,1.54.28a14.92,14.92,0,0,0,1.54-.28c.61,0,.93.28,1.85.28v-.51c-.92,0-1.24-.27-1.85-.27a15.42,15.42,0,0,1-1.54.27c-.62,0-.93-.27-1.54-.27s-.93.27-1.54.27Z"/><path class="cls-7" d="M22.22,61.17c.61,0,.92-.28,1.54-.28s.92.28,1.54.28a14.92,14.92,0,0,0,1.54-.28c.62,0,.93.28,1.85.28v-.51c-.92,0-1.23-.28-1.85-.28a14.92,14.92,0,0,1-1.54.28c-.62,0-.93-.28-1.54-.28s-.93.28-1.54.28v.51"/><path class="cls-4" d="M22.22,61.17c.61,0,.92-.28,1.54-.28s.92.28,1.54.28a14.92,14.92,0,0,0,1.54-.28c.61,0,.93.28,1.85.28v-.51c-.92,0-1.24-.28-1.85-.28a14.92,14.92,0,0,1-1.54.28c-.62,0-.93-.28-1.54-.28s-.93.28-1.54.28Z"/><path class="cls-1" d="M30.54,43.4c-.92-.22-5.55-1.34-8.94,1.46a4.17,4.17,0,0,1,.62,1.8c.92-.67,3.69-2.47,8.63-1.17l-.31-2.09"/><path class="cls-4" d="M30.54,43.4c-.92-.22-5.55-1.35-8.94,1.46a4.21,4.21,0,0,1,.62,1.8c.92-.67,3.69-2.47,8.63-1.18Z"/><path class="cls-1" d="M28.39,47.11c0,.85,0,1.24.3,1.58-.3.5-.92,1-4.32,2.47a5.22,5.22,0,0,0-2.15,1.46,1.91,1.91,0,0,1,.92-2.76c1.54-.61,4.94-2.3,5.25-2.75"/><path class="cls-4" d="M28.39,47.11c0,.85,0,1.24.3,1.58-.3.5-.92,1-4.32,2.47a5.12,5.12,0,0,0-2.15,1.46,1.91,1.91,0,0,1,.92-2.76C24.68,49.25,28.08,47.56,28.39,47.11Z"/><path class="cls-1" d="M22.22,52.62c.3.45.61.73.61,1.07l.62-.73-.31-1a1.83,1.83,0,0,0-.92.67"/><path class="cls-4" d="M22.22,52.62c.3.45.61.73.61,1.07l.62-.73-.31-1A1.83,1.83,0,0,0,22.22,52.62Z"/><path class="cls-5" d="M30.23,54.36c0,5.52,4.32,7,9.88,7s9.87-1.45,9.87-7V36.09H30.23V54.36"/><path class="cls-4" d="M30.23,54.36c0,5.52,4.32,7,9.88,7s9.87-1.45,9.87-7V36.09H30.23Z"/><path class="cls-4" d="M30.23,54.36c0,5.52,4.32,7,9.88,7s9.87-1.45,9.87-7V36.09H30.23Z"/><rect class="cls-1" x="30.23" y="36.09" width="9.87" height="11.75"/><rect class="cls-4" x="30.23" y="36.09" width="9.87" height="11.75"/><rect class="cls-5" x="40.11" y="36.09" width="9.87" height="11.75"/><rect class="cls-4" x="40.11" y="36.09" width="9.87" height="11.75"/><path class="cls-1" d="M40.11,55c0,2.74,2.15,5.45,4.94,5.45a3.51,3.51,0,0,0,1.54-.29A6,6,0,0,0,50,54.53V47.84H40.11V55"/><path class="cls-4" d="M40.11,55c0,2.76,2.15,5.46,4.94,5.46a3.66,3.66,0,0,0,1.54-.29A6,6,0,0,0,50,54.53V47.84H40.11Z"/><polyline class="cls-6" points="34.24 45.2 34.86 44.87 35.18 45.26 34.86 45.54 34.24 45.2"/><polygon class="cls-4" points="34.24 45.2 34.86 44.87 35.17 45.26 34.86 45.54 34.24 45.2"/><rect class="cls-6" x="35.18" y="46.16" width="0.92" height="0.39"/><rect class="cls-4" x="35.17" y="46.16" width="0.93" height="0.39"/><rect class="cls-6" x="35.79" y="45.76" width="0.62" height="0.79"/><rect class="cls-4" x="35.79" y="45.76" width="0.62" height="0.79"/><polyline class="cls-6" points="36.1 45.2 35.79 44.87 35.49 45.26 35.79 45.54 36.1 45.2"/><polygon class="cls-4" points="36.1 45.2 35.79 44.87 35.49 45.26 35.79 45.54 36.1 45.2"/><polyline class="cls-6" points="36.41 45.37 37.03 45.37 37.03 44.98 36.41 44.98 36.41 45.03 36.41 45.37"/><polygon class="cls-4" points="36.41 45.37 37.03 45.37 37.03 44.98 36.41 44.98 36.41 45.03 36.41 45.37"/><rect class="cls-6" x="32.7" y="41.38" width="0.62" height="0.45"/><rect class="cls-4" x="32.7" y="41.37" width="0.62" height="0.46"/><rect class="cls-6" x="33.01" y="41.38" width="0.92" height="0.45"/><rect class="cls-4" x="33.01" y="41.37" width="0.92" height="0.46"/><rect class="cls-6" x="33.93" y="41.38" width="0.92" height="0.45"/><rect class="cls-4" x="33.93" y="41.37" width="0.92" height="0.46"/><rect class="cls-6" x="34.86" y="41.38" width="0.94" height="0.45"/><rect class="cls-4" x="34.86" y="41.37" width="0.94" height="0.46"/><rect class="cls-6" x="35.79" y="41.38" width="0.92" height="0.45"/><rect class="cls-4" x="35.79" y="41.37" width="0.92" height="0.46"/><rect class="cls-6" x="36.72" y="41.38" width="0.92" height="0.45"/><rect class="cls-4" x="36.72" y="41.37" width="0.92" height="0.46"/><rect class="cls-6" x="37.33" y="41.38" width="0.62" height="0.45"/><rect class="cls-4" x="37.33" y="41.37" width="0.62" height="0.46"/><rect class="cls-6" x="32.7" y="41.04" width="1.85" height="0.39"/><rect class="cls-4" x="32.7" y="41.04" width="1.85" height="0.39"/><rect class="cls-6" x="34.24" y="41.04" width="1.86" height="0.39"/><rect class="cls-4" x="34.24" y="41.04" width="1.86" height="0.39"/><rect class="cls-6" x="36.1" y="41.04" width="1.85" height="0.39"/><rect class="cls-4" x="36.1" y="41.04" width="1.85" height="0.39"/><rect class="cls-6" x="32.7" y="40.65" width="0.62" height="0.34"/><rect class="cls-4" x="32.7" y="40.65" width="0.62" height="0.34"/><rect class="cls-6" x="32.7" y="40.31" width="0.62" height="0.34"/><rect class="cls-4" x="32.7" y="40.31" width="0.62" height="0.34"/><rect class="cls-6" x="33.01" y="40.65" width="0.62" height="0.34"/><rect class="cls-4" x="33.01" y="40.65" width="0.62" height="0.34"/><rect class="cls-6" x="33.01" y="40.31" width="0.62" height="0.34"/><rect class="cls-4" x="33.01" y="40.31" width="0.62" height="0.34"/><rect class="cls-6" x="33.62" y="40.65" width="0.62" height="0.34"/><rect class="cls-4" x="33.62" y="40.65" width="0.62" height="0.34"/><rect class="cls-6" x="33.62" y="40.31" width="0.62" height="0.34"/><rect class="cls-4" x="33.62" y="40.31" width="0.62" height="0.34"/><rect class="cls-6" x="34.24" y="40.65" width="0.31" height="0.34"/><rect class="cls-4" x="34.24" y="40.65" width="0.31" height="0.34"/><rect class="cls-6" x="34.24" y="40.31" width="0.94" height="0.34"/><rect class="cls-4" x="34.24" y="40.31" width="0.92" height="0.34"/><rect class="cls-6" x="33.62" y="40.98" width="0.62" height="0.11"/><rect class="cls-4" x="33.62" y="40.98" width="0.62" height="0.11"/><rect class="cls-6" x="33.62" y="40.65" width="0.31" height="0.34"/><rect class="cls-4" x="33.62" y="40.65" width="0.31" height="0.34"/><rect class="cls-6" x="33.32" y="39.97" width="0.92" height="0.33"/><rect class="cls-4" x="33.32" y="39.97" width="0.92" height="0.34"/><rect class="cls-6" x="33.32" y="39.97" width="0.62" height="0.33"/><rect class="cls-4" x="33.32" y="39.97" width="0.62" height="0.34"/><rect class="cls-6" x="33.32" y="39.63" width="0.92" height="0.34"/><rect class="cls-4" x="33.32" y="39.64" width="0.92" height="0.34"/><rect class="cls-6" x="33.93" y="39.3" width="0.62" height="0.39"/><rect class="cls-4" x="33.93" y="39.3" width="0.62" height="0.4"/><rect class="cls-6" x="33.01" y="39.3" width="0.62" height="0.39"/><rect class="cls-4" x="33.01" y="39.3" width="0.62" height="0.4"/><polyline class="cls-6" points="33.01 39.3 33.01 38.68 33.32 38.68 33.32 39.02 33.62 39.02 33.62 38.68 33.93 38.68 33.93 39.02 34.24 39.02 34.24 38.68 34.55 38.68 34.55 39.3 33.01 39.3"/><polygon class="cls-4" points="33.01 39.3 33.01 38.68 33.32 38.68 33.32 39.02 33.62 39.02 33.62 38.68 33.93 38.68 33.93 39.02 34.24 39.02 34.24 38.68 34.55 38.68 34.55 39.3 33.01 39.3"/><rect class="cls-6" x="37.33" y="40.65" width="0.62" height="0.34"/><rect class="cls-4" x="37.33" y="40.65" width="0.62" height="0.34"/><rect class="cls-6" x="37.33" y="40.31" width="0.62" height="0.34"/><rect class="cls-4" x="37.33" y="40.31" width="0.62" height="0.34"/><rect class="cls-6" x="37.03" y="40.65" width="0.61" height="0.34"/><rect class="cls-4" x="37.03" y="40.65" width="0.61" height="0.34"/><rect class="cls-6" x="37.03" y="40.31" width="0.61" height="0.34"/><rect class="cls-4" x="37.03" y="40.31" width="0.61" height="0.34"/><rect class="cls-6" x="36.41" y="40.65" width="0.62" height="0.34"/><rect class="cls-4" x="36.41" y="40.65" width="0.62" height="0.34"/><rect class="cls-6" x="36.41" y="40.31" width="0.62" height="0.34"/><rect class="cls-4" x="36.41" y="40.31" width="0.62" height="0.34"/><rect class="cls-6" x="36.41" y="40.98" width="0.62" height="0.11"/><rect class="cls-4" x="36.41" y="40.98" width="0.62" height="0.11"/><rect class="cls-6" x="36.72" y="40.65" width="0.31" height="0.34"/><rect class="cls-4" x="36.72" y="40.65" width="0.31" height="0.34"/><rect class="cls-6" x="36.1" y="39.97" width="0.93" height="0.33"/><rect class="cls-4" x="36.1" y="39.97" width="0.93" height="0.34"/><rect class="cls-6" x="36.72" y="39.97" width="0.31" height="0.33"/><rect class="cls-4" x="36.72" y="39.97" width="0.31" height="0.34"/><rect class="cls-6" x="36.1" y="39.63" width="0.93" height="0.34"/><rect class="cls-4" x="36.1" y="39.64" width="0.93" height="0.34"/><rect class="cls-6" x="35.79" y="39.3" width="0.62" height="0.39"/><rect class="cls-4" x="35.79" y="39.3" width="0.62" height="0.4"/><rect class="cls-6" x="36.72" y="39.3" width="0.62" height="0.39"/><rect class="cls-4" x="36.72" y="39.3" width="0.62" height="0.4"/><polyline class="cls-6" points="37.33 39.3 37.33 38.68 37.03 38.68 37.03 39.02 36.72 39.02 36.72 38.68 36.41 38.68 36.41 39.02 36.41 38.68 35.79 38.68 35.79 39.3 37.33 39.3"/><polygon class="cls-4" points="37.33 39.3 37.33 38.68 37.03 38.68 37.03 39.02 36.72 39.02 36.72 38.68 36.41 38.68 36.41 39.02 36.41 38.68 35.79 38.68 35.79 39.3 37.33 39.3"/><rect class="cls-6" x="34.55" y="40.65" width="0.31" height="0.34"/><rect class="cls-4" x="34.55" y="40.65" width="0.31" height="0.34"/><rect class="cls-6" x="36.1" y="40.65" width="0.31" height="0.34"/><rect class="cls-4" x="36.1" y="40.65" width="0.31" height="0.34"/><rect class="cls-6" x="35.49" y="40.31" width="0.92" height="0.34"/><rect class="cls-4" x="35.49" y="40.31" width="0.92" height="0.34"/><rect class="cls-6" x="35.49" y="40.65" width="0.31" height="0.34"/><rect class="cls-4" x="35.49" y="40.65" width="0.31" height="0.34"/><rect class="cls-6" x="35.18" y="39.97" width="0.31" height="0.33"/><rect class="cls-4" x="35.17" y="39.97" width="0.32" height="0.34"/><rect class="cls-6" x="34.86" y="39.97" width="0.32" height="0.33"/><rect class="cls-4" x="34.86" y="39.97" width="0.31" height="0.34"/><rect class="cls-6" x="34.86" y="40.31" width="0.63" height="0.34"/><rect class="cls-4" x="34.86" y="40.31" width="0.63" height="0.34"/><rect class="cls-6" x="34.86" y="40.65" width="0.63" height="0.34"/><rect class="cls-4" x="34.86" y="40.65" width="0.63" height="0.34"/><rect class="cls-6" x="35.18" y="40.65" width="0.31" height="0.34"/><rect class="cls-4" x="35.17" y="40.65" width="0.32" height="0.34"/><rect class="cls-6" x="34.86" y="39.63" width="0.94" height="0.34"/><rect class="cls-4" x="34.86" y="39.64" width="0.94" height="0.34"/><rect class="cls-6" x="35.18" y="39.35" width="0.31" height="0.34"/><rect class="cls-4" x="35.17" y="39.35" width="0.32" height="0.34"/><rect class="cls-6" x="34.86" y="39.35" width="0.32" height="0.34"/><rect class="cls-4" x="34.86" y="39.35" width="0.31" height="0.34"/><rect class="cls-6" x="34.86" y="39.02" width="0.94" height="0.34"/><rect class="cls-4" x="34.86" y="39.02" width="0.94" height="0.34"/><rect class="cls-6" x="35.18" y="38.73" width="0.31" height="0.34"/><rect class="cls-4" x="35.17" y="38.73" width="0.32" height="0.34"/><rect class="cls-6" x="34.86" y="38.73" width="0.32" height="0.34"/><rect class="cls-4" x="34.86" y="38.73" width="0.31" height="0.34"/><rect class="cls-6" x="34.86" y="38.4" width="0.94" height="0.34"/><rect class="cls-4" x="34.86" y="38.4" width="0.94" height="0.34"/><rect class="cls-6" x="34.24" y="38.06" width="0.94" height="0.34"/><rect class="cls-4" x="34.24" y="38.06" width="0.92" height="0.33"/><rect class="cls-6" x="35.18" y="38.06" width="0.92" height="0.34"/><rect class="cls-4" x="35.17" y="38.06" width="0.93" height="0.33"/><polyline class="cls-6" points="34.24 38.12 34.24 37.5 34.55 37.5 34.55 37.84 35.18 37.84 35.18 37.5 35.49 37.5 35.49 37.84 35.79 37.84 35.79 37.5 36.1 37.5 36.1 38.12 34.24 38.12"/><polygon class="cls-4" points="34.24 38.12 34.24 37.5 34.55 37.5 34.55 37.83 35.17 37.83 35.17 37.5 35.49 37.5 35.49 37.83 35.79 37.83 35.79 37.5 36.1 37.5 36.1 38.12 34.24 38.12"/><rect class="cls-6" x="33.01" y="41.83" width="0.62" height="0.4"/><rect class="cls-4" x="33.01" y="41.83" width="0.62" height="0.39"/><rect class="cls-6" x="33.32" y="41.83" width="0.92" height="0.4"/><rect class="cls-4" x="33.32" y="41.83" width="0.92" height="0.39"/><rect class="cls-6" x="34.24" y="41.83" width="0.94" height="0.4"/><rect class="cls-4" x="34.24" y="41.83" width="0.92" height="0.39"/><rect class="cls-6" x="35.18" y="41.83" width="0.92" height="0.4"/><rect class="cls-4" x="35.17" y="41.83" width="0.93" height="0.39"/><rect class="cls-6" x="36.1" y="41.83" width="1.54" height="0.4"/><rect class="cls-4" x="36.1" y="41.83" width="1.54" height="0.39"/><rect class="cls-6" x="33.01" y="42.22" width="1.85" height="0.39"/><rect class="cls-4" x="33.01" y="42.22" width="1.85" height="0.39"/><rect class="cls-6" x="34.55" y="42.22" width="0.94" height="0.39"/><rect class="cls-4" x="34.55" y="42.22" width="0.94" height="0.39"/><rect class="cls-6" x="35.49" y="42.22" width="1.85" height="0.39"/><rect class="cls-4" x="35.49" y="42.22" width="1.85" height="0.39"/><rect class="cls-6" x="35.18" y="42.62" width="2.46" height="0.39"/><rect class="cls-4" x="35.17" y="42.62" width="2.47" height="0.39"/><rect class="cls-6" x="33.01" y="42.62" width="2.17" height="0.39"/><rect class="cls-4" x="33.01" y="42.62" width="2.16" height="0.39"/><rect class="cls-6" x="33.01" y="43.01" width="1.85" height="0.39"/><rect class="cls-4" x="33.01" y="43.01" width="1.85" height="0.39"/><rect class="cls-6" x="34.55" y="43.01" width="0.94" height="0.39"/><rect class="cls-4" x="34.55" y="43.01" width="0.94" height="0.39"/><rect class="cls-6" x="35.49" y="43.01" width="2.15" height="0.39"/><rect class="cls-4" x="35.49" y="43.01" width="2.15" height="0.39"/><rect class="cls-6" x="35.18" y="43.4" width="2.46" height="0.4"/><rect class="cls-4" x="35.17" y="43.4" width="2.47" height="0.4"/><rect class="cls-6" x="33.01" y="43.4" width="2.17" height="0.4"/><rect class="cls-4" x="33.01" y="43.4" width="2.16" height="0.4"/><rect class="cls-6" x="33.01" y="43.79" width="0.92" height="0.4"/><rect class="cls-4" x="33.01" y="43.79" width="0.92" height="0.4"/><rect class="cls-6" x="33.93" y="43.79" width="0.62" height="0.4"/><rect class="cls-4" x="33.93" y="43.79" width="0.62" height="0.4"/><rect class="cls-6" x="34.55" y="43.79" width="0.94" height="0.4"/><rect class="cls-4" x="34.55" y="43.79" width="0.94" height="0.4"/><rect class="cls-6" x="35.49" y="43.79" width="0.92" height="0.4"/><rect class="cls-4" x="35.49" y="43.79" width="0.92" height="0.4"/><rect class="cls-6" x="36.41" y="43.79" width="0.92" height="0.4"/><rect class="cls-4" x="36.41" y="43.79" width="0.92" height="0.4"/><rect class="cls-6" x="37.33" y="43.79" width="0.31" height="0.4"/><rect class="cls-4" x="37.33" y="43.79" width="0.31" height="0.4"/><rect class="cls-6" x="33.62" y="44.19" width="0.62" height="0.39"/><rect class="cls-4" x="33.62" y="44.19" width="0.62" height="0.39"/><rect class="cls-6" x="33.01" y="44.19" width="0.62" height="0.39"/><rect class="cls-4" x="33.01" y="44.19" width="0.62" height="0.39"/><rect class="cls-6" x="34.24" y="44.19" width="0.94" height="0.39"/><rect class="cls-4" x="34.24" y="44.19" width="0.92" height="0.39"/><rect class="cls-6" x="35.18" y="44.19" width="0.92" height="0.39"/><rect class="cls-4" x="35.17" y="44.19" width="0.93" height="0.39"/><rect class="cls-6" x="36.1" y="44.19" width="0.62" height="0.39"/><rect class="cls-4" x="36.1" y="44.19" width="0.62" height="0.39"/><rect class="cls-6" x="36.72" y="44.19" width="0.92" height="0.39"/><rect class="cls-4" x="36.72" y="44.19" width="0.92" height="0.39"/><rect class="cls-6" x="33.01" y="44.58" width="1.23" height="0.39"/><rect class="cls-4" x="33.01" y="44.58" width="1.23" height="0.39"/><rect class="cls-6" x="32.09" y="44.97" width="1.23" height="0.39"/><rect class="cls-4" x="32.09" y="44.98" width="1.23" height="0.39"/><rect class="cls-6" x="32.09" y="45.37" width="0.92" height="0.39"/><rect class="cls-4" x="32.09" y="45.37" width="0.92" height="0.39"/><rect class="cls-6" x="33.32" y="45.37" width="1.23" height="0.39"/><rect class="cls-4" x="33.32" y="45.37" width="1.23" height="0.39"/><rect class="cls-6" x="32.09" y="45.76" width="0.62" height="0.39"/><rect class="cls-4" x="32.09" y="45.76" width="0.62" height="0.39"/><rect class="cls-6" x="32.7" y="45.76" width="0.92" height="0.39"/><rect class="cls-4" x="32.7" y="45.76" width="0.92" height="0.39"/><rect class="cls-6" x="33.62" y="45.76" width="0.92" height="0.39"/><rect class="cls-4" x="33.62" y="45.76" width="0.92" height="0.39"/><rect class="cls-6" x="32.09" y="46.16" width="0.92" height="0.39"/><rect class="cls-4" x="32.09" y="46.16" width="0.92" height="0.39"/><rect class="cls-6" x="33.32" y="46.16" width="0.92" height="0.39"/><rect class="cls-4" x="33.32" y="46.16" width="0.92" height="0.39"/><rect class="cls-6" x="34.24" y="46.16" width="0.94" height="0.39"/><rect class="cls-4" x="34.24" y="46.16" width="0.92" height="0.39"/><rect class="cls-6" x="34.24" y="45.76" width="0.62" height="0.79"/><rect class="cls-4" x="34.24" y="45.76" width="0.62" height="0.79"/><polyline class="cls-6" points="34.55 45.76 34.86 45.54 34.24 45.03 33.93 45.76 34.55 45.76"/><polygon class="cls-4" points="34.55 45.76 34.86 45.54 34.24 45.03 33.93 45.76 34.55 45.76"/><polyline class="cls-6" points="34.24 45.2 34.24 44.98 33.93 44.98 33.93 44.58 34.55 44.58 34.86 44.87 34.24 45.2"/><polygon class="cls-4" points="34.24 45.2 34.24 44.98 33.93 44.98 33.93 44.58 34.55 44.58 34.86 44.87 34.24 45.2"/><rect class="cls-6" x="36.41" y="44.58" width="0.92" height="0.39"/><rect class="cls-4" x="36.41" y="44.58" width="0.92" height="0.39"/><rect class="cls-6" x="37.03" y="44.97" width="1.23" height="0.39"/><rect class="cls-4" x="37.03" y="44.98" width="1.23" height="0.39"/><rect class="cls-6" x="37.33" y="45.37" width="0.92" height="0.39"/><rect class="cls-4" x="37.33" y="45.37" width="0.92" height="0.39"/><rect class="cls-6" x="36.1" y="45.37" width="1.23" height="0.39"/><rect class="cls-4" x="36.1" y="45.37" width="1.23" height="0.39"/><rect class="cls-6" x="37.64" y="45.76" width="0.62" height="0.39"/><rect class="cls-4" x="37.64" y="45.76" width="0.62" height="0.39"/><rect class="cls-6" x="37.03" y="45.76" width="0.92" height="0.39"/><rect class="cls-4" x="37.03" y="45.76" width="0.92" height="0.39"/><rect class="cls-6" x="36.1" y="45.76" width="0.93" height="0.39"/><rect class="cls-4" x="36.1" y="45.76" width="0.93" height="0.39"/><rect class="cls-6" x="37.33" y="46.16" width="0.92" height="0.39"/><rect class="cls-4" x="37.33" y="46.16" width="0.92" height="0.39"/><rect class="cls-6" x="36.41" y="46.16" width="0.92" height="0.39"/><rect class="cls-4" x="36.41" y="46.16" width="0.92" height="0.39"/><polyline class="cls-6" points="35.79 45.76 35.79 45.54 36.41 45.03 36.72 45.76 35.79 45.76"/><polygon class="cls-4" points="35.79 45.76 35.79 45.54 36.41 45.03 36.72 45.76 35.79 45.76"/><polyline class="cls-6" points="36.1 45.2 36.41 44.98 36.41 44.58 35.79 44.58 35.79 44.87 36.1 45.2"/><polygon class="cls-4" points="36.1 45.2 36.41 44.98 36.41 44.58 35.79 44.58 35.79 44.87 36.1 45.2"/><polyline class="cls-6" points="35.49 45.26 35.79 44.52 34.55 44.52 35.18 45.26 35.49 45.26"/><polygon class="cls-4" points="35.49 45.26 35.79 44.52 34.55 44.52 35.17 45.26 35.49 45.26"/><polyline class="cls-6" points="35.79 46.55 35.79 45.76 35.79 45.54 35.49 45.26 35.18 45.26 34.86 45.54 34.55 45.76 34.55 46.55 35.79 46.55"/><polygon class="cls-4" points="35.79 46.55 35.79 45.76 35.79 45.54 35.49 45.26 35.17 45.26 34.86 45.54 34.55 45.76 34.55 46.55 35.79 46.55"/><polyline class="cls-6" points="33.62 44.98 33.62 45.37 33.93 45.37 34.24 45.03 34.24 44.98 33.62 44.98"/><polygon class="cls-4" points="33.62 44.98 33.62 45.37 33.93 45.37 34.24 45.03 34.24 44.98 33.62 44.98"/><path class="cls-6" d="M34.55,43a.64.64,0,0,0-.62-.56.63.63,0,0,0-.61.56v.85h1.23V43"/><path class="cls-4" d="M34.55,43a.64.64,0,0,0-.62-.56.63.63,0,0,0-.61.56v.84h1.23Z"/><path class="cls-6" d="M34.24,43c0-.23,0-.33-.31-.33,0,0-.31.1-.31.33v.68h.62V43"/><path class="cls-4" d="M34.24,43c0-.23,0-.33-.31-.33,0,0-.31.1-.31.33v.68h.62Z"/><path class="cls-6" d="M37,43a.64.64,0,0,0-.62-.56c-.31,0-.31.28-.31.56v.85H37V43"/><path class="cls-4" d="M37,43a.64.64,0,0,0-.62-.56c-.31,0-.31.28-.31.56v.84H37Z"/><path class="cls-6" d="M36.72,43c0-.23,0-.33-.31-.33,0,0-.31.1-.31.33v.68h.62V43"/><path class="cls-4" d="M36.72,43c0-.23,0-.33-.31-.33,0,0-.31.1-.31.33v.68h.62Z"/><path class="cls-8" d="M40.11,60.1c.61-.05,1.23-.45,1.23-.9a1,1,0,0,0-.62-.84V58s-.31,0-.31.18c0-.18-.3-.23-.3-.28h0c-.31.05-.31.1-.31.28,0-.18-.31-.18-.31-.18v.35a1,1,0,0,0-.62.84.91.91,0,0,0,.93.9v1.13h.31V60.1"/><path class="cls-4" d="M40.11,60.1c.61-.06,1.23-.45,1.23-.9a1,1,0,0,0-.62-.84V58s-.31,0-.31.17c0-.17-.3-.23-.3-.28h0c-.31.05-.31.11-.31.28,0-.17-.31-.17-.31-.17v.34a1,1,0,0,0-.62.84.91.91,0,0,0,.93.9v1.13h.31Z"/><path class="cls-1" d="M39.8,59.14c0-.39,0-.73.31-.73s.3.34.3.73,0,.74-.3.74-.31-.34-.31-.74"/><path class="cls-4" d="M39.8,59.14c0-.39,0-.73.31-.73s.3.34.3.73,0,.74-.3.74S39.8,59.54,39.8,59.14Z"/><path class="cls-9" d="M38,60a2.06,2.06,0,0,1,1.85.85C39.18,61,38,60.66,38,60"/><path class="cls-4" d="M38,60a2.06,2.06,0,0,1,1.85.85C39.18,61,38,60.66,38,60Z"/><path class="cls-9" d="M42.26,60a2.57,2.57,0,0,0-2.15.85A1.94,1.94,0,0,0,42.26,60"/><path class="cls-4" d="M42.26,60a2.57,2.57,0,0,0-2.15.85A1.94,1.94,0,0,0,42.26,60Z"/><path class="cls-6" d="M42,38.23c.31,0,.62,0,.62.28l-.31.17a.39.39,0,0,0-.31-.45"/><path class="cls-4" d="M42,38.23c.31-.06.62,0,.62.28l-.31.17A.39.39,0,0,0,42,38.23Z"/><path class="cls-6" d="M41.34,38.74c.31-.12.31-.28.61.11V39a2.18,2.18,0,0,1-.61-.28"/><path class="cls-4" d="M41.34,38.73c.31-.11.31-.27.61.12V39C41.65,38.91,41.34,38.79,41.34,38.73Z"/><path class="cls-6" d="M41.65,39.53s-.31.16-.31.49c.31-.1.31-.21.61-.16l-.3-.33"/><path class="cls-4" d="M41.65,39.52c0,.06-.31.17-.31.51.31-.11.31-.23.61-.17Z"/><path class="cls-6" d="M42.57,41.66c-.62-.23-.92-.06-.92.51.3-.18.61-.29.61-.18l.31-.33"/><path class="cls-4" d="M42.57,41.66c-.62-.23-.92-.06-.92.51.3-.17.61-.29.61-.17Z"/><path class="cls-6" d="M42.26,42.39a.59.59,0,0,0-.61.56c.3,0,.61-.17.61-.28v-.28"/><path class="cls-4" d="M42.26,42.39a.59.59,0,0,0-.61.56c.3,0,.61-.17.61-.28Z"/><path class="cls-6" d="M42.57,42.9v.56c.32-.22.32-.28.32-.63l-.32.07"/><path class="cls-4" d="M42.57,42.9v.56c.31-.22.31-.28.31-.62Z"/><path class="cls-6" d="M43.82,44.47c-.31-.06-.62,0-.62.22.31,0,.62.06.62.17v-.39"/><path class="cls-4" d="M43.82,44.47c-.31-.06-.62,0-.62.22.31,0,.62.06.62.17Z"/><path class="cls-6" d="M43.82,45c-.31.05-.93.16-.62.73,0-.17.31-.39.62-.34V45"/><path class="cls-4" d="M43.82,45c-.31.05-.94.16-.62.73,0-.17.31-.39.62-.34Z"/><path class="cls-6" d="M43.82,45.49c0,.22,0,.61.3.78v-.62l-.3-.16"/><path class="cls-4" d="M43.82,45.48c0,.23,0,.62.3.79v-.62Z"/><path class="cls-6" d="M46.9,45.87a.88.88,0,0,0-.93.56,3.15,3.15,0,0,1,.93-.22v-.34"/><path class="cls-4" d="M46.9,45.88a.88.88,0,0,0-.93.56,2.65,2.65,0,0,1,.93-.23Z"/><path class="cls-6" d="M46.9,46.33a1,1,0,0,0-.62.9,1.9,1.9,0,0,0,.62-.62v-.28"/><path class="cls-4" d="M46.9,46.32a1,1,0,0,0-.62.91,1.81,1.81,0,0,0,.62-.62Z"/><path class="cls-6" d="M47.2,46.66a.65.65,0,0,0,.62.74c0-.23-.31-.63-.31-.74H47.2"/><path class="cls-4" d="M47.2,46.66a.64.64,0,0,0,.62.73c0-.22-.31-.61-.31-.73Z"/><path class="cls-1" d="M42.26,38.51h.31l.32.39c-.32.12-.32.34,0,.45s2.46,1.07,2.46,1.07l-1.53,1c0-.16-.31-.5-.31-.56s-.31-.22-.62-.22c0-.06-.32-.23-.32-.4a.58.58,0,0,0-.62-.39c0,.06-.3,0-.3-.17-.31-.16,0-.28,0-.28l.3-.23v-.33l.31-.11v-.23"/><path class="cls-4" d="M42.26,38.51h.31l.31.4c-.31.11-.31.33,0,.44s2.47,1.07,2.47,1.07l-1.53,1c0-.16-.31-.5-.31-.56s-.31-.22-.63-.22c0-.06-.31-.23-.31-.4a.56.56,0,0,0-.62-.39c0,.06-.3-.06-.3-.17-.31-.17,0-.28,0-.28l.3-.23v-.33l.31-.12Z"/><path class="cls-1" d="M46.59,43a4.88,4.88,0,0,1-1.24.23h-.3c-.31-.06-.62,0-.62.39.31.39.31.5.31.61a.37.37,0,0,1,.31.4c-.31.11-.62.11-.62-.06-.31-.11-.31-.22-.61-.17v.28c0,.17,0,.17-.31.29a.4.4,0,0,0,.31.39v.23s.3.16.3,0c.31-.16.31-.33.62-.28,0,.06.61.06.61.06.31-.06.31-.23.31-.45v-.62c0-.12,0-.34.31.22L46.59,43"/><path class="cls-4" d="M46.59,43a4.88,4.88,0,0,1-1.24.23h-.3c-.31-.06-.62,0-.62.39.31.39.31.5.31.61a.37.37,0,0,1,.31.4c-.31.11-.62.11-.62-.06-.31-.11-.31-.23-.61-.17v.28c0,.17,0,.17-.31.29a.4.4,0,0,0,.31.39v.23s.3.16.3,0c.31-.17.31-.33.62-.28,0,.06.61.06.61.06.31-.06.31-.23.31-.45v-.63c0-.11,0-.33.31.23Z"/><path class="cls-1" d="M46.28,44.86c0,.06,0,.22.31.28s.61.18.61.35,0,.33-.3.33c0,0-.31.11-.31.23v.33c0,.11.31.28.31.28.3,0,.3.06.3.11h.62v-.39c0-.11-.31-.51,0-.62a.47.47,0,0,1,.31-.5c0-.12,0-.57-.31-.62s-.62-.23-.62-.51,0-.67.31-.73.92-.16.92-.5c.31-.4,0-1.07,0-1.35s-.61-1.13-.3-1.58a3,3,0,0,1,.3-1c.31-.06.31-.22.31-.5v-.28c.31-.12,0-.34,0-.23-.31.11-.31.17-.31.11-.3-.06-.3-.06-.61.17v.84a.83.83,0,0,1-.31.79A2.24,2.24,0,0,0,47.82,41c0,.51.61,1.35.31,1.63,0,.28-.62.57-1.23.28-.31-.28-.62-.56-.93-2.14l-1.85-.16a3.2,3.2,0,0,0-.92,1l-.63.06-.31-.11v.39c0,.12.31.28,0,.28,0,0-.31,0-.31.22,0,0,.31.12.31.28s0,.23.31.23.32-.12.32-.23a.73.73,0,0,1,.62-.38s.31-.12.31-.17l.3-.11c.31,0,.31-.07.31-.29a.93.93,0,0,0,.62.73,12.75,12.75,0,0,0,1.23.79v.56c0,.23-.31.62,0,1"/><path class="cls-4" d="M46.28,44.86c0,.06,0,.23.31.28s.61.18.61.34,0,.34-.3.34c0,.06-.31.11-.31.22v.34c0,.11.31.28.31.28.3,0,.3.06.3.12h.62v-.4c0-.11-.31-.5,0-.62a.47.47,0,0,1,.31-.5c0-.12,0-.57-.31-.62s-.62-.23-.62-.51,0-.67.31-.73.92-.16.92-.5c.31-.4,0-1.07,0-1.35s-.61-1.13-.3-1.58a3,3,0,0,1,.3-1c.31-.05.31-.23.31-.5v-.29c.31-.11,0-.34,0-.22-.31.11-.31.17-.31.11-.3-.06-.3-.06-.61.17v.84a.83.83,0,0,1-.31.79A2.22,2.22,0,0,0,47.82,41c0,.51.61,1.35.31,1.63,0,.28-.62.57-1.23.28-.31-.28-.62-.56-.93-2.14l-1.85-.16a3.2,3.2,0,0,0-.92,1l-.63.06-.31-.11v.39c0,.11.31.28,0,.28,0,0-.31,0-.31.23,0,0,.31.11.31.27s0,.23.31.23.31-.11.31-.23a.75.75,0,0,1,.63-.39s.31-.11.31-.16l.3-.12c.31.06.31,0,.31-.28a1,1,0,0,0,.62.73,12.75,12.75,0,0,0,1.23.79v.56C46.28,44.07,46,44.47,46.28,44.86Z"/><path class="cls-1" d="M45.35,38.06c0-.16.31-.39.62-.28s.93.45.93.84,0,1,.3,1.24a1.3,1.3,0,0,1-.61-.22c.31.17.31.66.61.84-.3-.06-.61.05-.3.45-.31-.28-.62-.56-.62.34L46,41.1c0,.22,0,.27-.31.33l-.31-.28-.3.28v-.62a5.87,5.87,0,0,1-.62.29v-.62c-.31-.06-.31-.18-.61-.11,0-.4.61-.45.92-.4s.31-.28,0-.28v-.16l.31-.12a.31.31,0,0,0,.3-.34c0-.33-.3-.33-.3-.28-.31.06-.31,0-.31-.17V38.4c0-.06-.31-.34,0-.28l.61-.06"/><path class="cls-4" d="M45.35,38.06c0-.17.31-.39.62-.28s.93.45.93.84,0,1,.3,1.24a1.56,1.56,0,0,1-.61-.22c.31.16.31.67.61.84-.3-.06-.61.05-.3.45-.31-.28-.62-.57-.62.34L46,41.1c0,.22,0,.27-.31.33l-.31-.28-.3.28v-.62a5.87,5.87,0,0,1-.62.29v-.62c-.31-.06-.31-.17-.61-.12,0-.39.61-.44.92-.39s.31-.28,0-.28v-.17l.31-.11a.31.31,0,0,0,.3-.34c0-.34-.3-.34-.3-.28-.31.06-.31-.06-.31-.17V38.4c0-.06-.31-.34,0-.28Z"/><path class="cls-1" d="M45.35,39.13a1.91,1.91,0,0,1-.61-.28c-.31,0-.62-.17-.62-.28s-.3-.34-.61-.34c0,.17.31.51.61.79,0,.22.31.16.62.11,0-.06.31-.06.61,0"/><path class="cls-4" d="M45.35,39.13c-.3-.11-.61-.22-.61-.28-.31,0-.62-.17-.62-.28s-.3-.34-.61-.34c0,.17.31.5.61.79,0,.22.31.16.62.11C44.74,39.07,45.05,39.07,45.35,39.13Z"/><path class="cls-6" d="M46.9,38.62l-1.24-.78c.31-.23,0-.51,0-.74H46v.46l.31-.28.31.16-.31.23v.11l.31-.22.31.16-.31.23.31.11V37.9l.3.16-.3.17v.05l.61-.05v.23c-.31,0-.61,0-.61.16"/><path class="cls-4" d="M46.9,38.62l-1.24-.79c.31-.22,0-.5,0-.73H46v.45l.31-.28.31.17-.31.23v.11l.31-.23.31.17-.31.23.31.11v-.17l.3.17-.3.17v.06l.61-.06v.23C47.2,38.46,46.9,38.46,46.9,38.62Z"/><rect class="cls-6" x="48.13" y="51.67" width="0.31" height="1.46"/><rect class="cls-4" x="48.13" y="51.67" width="0.31" height="1.46"/><rect class="cls-6" x="46.28" y="49.81" width="1.23" height="0.33"/><rect class="cls-4" x="46.28" y="49.81" width="1.23" height="0.34"/><rect class="cls-6" x="41.65" y="51.22" width="0.31" height="0.45"/><rect class="cls-4" x="41.65" y="51.21" width="0.31" height="0.46"/><rect class="cls-6" x="41.65" y="51.22" width="0.31" height="0.45"/><rect class="cls-4" x="41.65" y="51.21" width="0.31" height="0.46"/><rect class="cls-6" x="48.13" y="51.22" width="0.31" height="0.45"/><rect class="cls-4" x="48.13" y="51.21" width="0.31" height="0.46"/><rect class="cls-6" x="48.13" y="51.22" width="0.31" height="0.45"/><rect class="cls-4" x="48.13" y="51.21" width="0.31" height="0.46"/><rect class="cls-6" x="47.82" y="50.82" width="0.31" height="1.18"/><rect class="cls-4" x="47.82" y="50.82" width="0.31" height="1.18"/><rect class="cls-6" x="48.43" y="50.82" width="0.31" height="1.18"/><rect class="cls-4" x="48.43" y="50.82" width="0.31" height="1.18"/><rect class="cls-6" x="48.13" y="49.86" width="0.31" height="1.35"/><rect class="cls-4" x="48.13" y="49.86" width="0.31" height="1.35"/><polyline class="cls-6" points="45.05 53.86 45.35 53.64 45.05 53.41 44.74 53.64 45.05 53.86"/><polygon class="cls-4" points="45.05 53.86 45.35 53.63 45.05 53.41 44.74 53.63 45.05 53.86"/><path class="cls-6" d="M44.43,53.64a.62.62,0,0,1,1.23,0,.62.62,0,0,1-1.23,0"/><path class="cls-4" d="M44.43,53.63a.62.62,0,0,1,1.23,0,.62.62,0,0,1-1.23,0Z"/><rect class="cls-6" x="45.05" y="56.22" width="0.31" height="0.51"/><rect class="cls-4" x="45.05" y="56.22" width="0.31" height="0.51"/><rect class="cls-6" x="45.05" y="56.22" width="0.31" height="0.51"/><rect class="cls-4" x="45.05" y="56.22" width="0.31" height="0.51"/><rect class="cls-6" x="44.43" y="55.88" width="0.31" height="1.18"/><rect class="cls-4" x="44.43" y="55.88" width="0.31" height="1.18"/><rect class="cls-6" x="45.35" y="55.88" width="0.31" height="1.18"/><rect class="cls-4" x="45.35" y="55.88" width="0.31" height="1.18"/><rect class="cls-6" x="45.05" y="54.08" width="0.31" height="2.13"/><rect class="cls-4" x="45.05" y="54.08" width="0.31" height="2.13"/><rect class="cls-6" x="45.05" y="56.73" width="0.31" height="1.8"/><rect class="cls-4" x="45.05" y="56.73" width="0.31" height="1.8"/><rect class="cls-6" x="45.05" y="50.94" width="0.31" height="0.45"/><rect class="cls-4" x="45.05" y="50.93" width="0.31" height="0.45"/><rect class="cls-6" x="45.05" y="50.94" width="0.31" height="0.45"/><rect class="cls-4" x="45.05" y="50.93" width="0.31" height="0.45"/><rect class="cls-6" x="44.43" y="50.54" width="0.31" height="1.18"/><rect class="cls-4" x="44.43" y="50.54" width="0.31" height="1.18"/><rect class="cls-6" x="45.35" y="50.54" width="0.31" height="1.18"/><rect class="cls-4" x="45.35" y="50.54" width="0.31" height="1.18"/><rect class="cls-6" x="45.05" y="51.39" width="0.31" height="1.69"/><rect class="cls-4" x="45.05" y="51.39" width="0.31" height="1.69"/><rect class="cls-6" x="45.05" y="49.86" width="0.31" height="1.07"/><rect class="cls-4" x="45.05" y="49.86" width="0.31" height="1.07"/><rect class="cls-6" x="45.05" y="50.94" width="0.31" height="0.45"/><rect class="cls-4" x="45.05" y="50.93" width="0.31" height="0.45"/><rect class="cls-6" x="45.05" y="50.94" width="0.31" height="0.45"/><rect class="cls-4" x="45.05" y="50.93" width="0.31" height="0.45"/><polyline class="cls-6" points="43.82 51.78 43.51 51.44 43.2 51.67 43.51 52.06 43.82 51.78"/><polygon class="cls-4" points="43.82 51.78 43.51 51.44 43.2 51.67 43.51 52.06 43.82 51.78"/><polyline class="cls-6" points="43.82 51.78 43.51 51.44 43.2 51.67 43.51 52.06 43.82 51.78"/><polygon class="cls-4" points="43.82 51.78 43.51 51.44 43.2 51.67 43.51 52.06 43.82 51.78"/><polyline class="cls-6" points="43.82 52.28 42.89 51.44 42.57 51.62 43.51 52.51 43.82 52.28"/><polygon class="cls-4" points="43.82 52.28 42.88 51.44 42.57 51.61 43.51 52.51 43.82 52.28"/><polyline class="cls-6" points="44.12 51.83 43.51 50.93 43.2 51.16 44.12 52.06 44.12 51.83"/><polygon class="cls-4" points="44.12 51.83 43.51 50.93 43.2 51.16 44.12 52.06 44.12 51.83"/><polyline class="cls-6" points="45.05 53.13 43.82 51.78 43.51 52.06 44.74 53.35 45.05 53.13"/><polygon class="cls-4" points="45.05 53.13 43.82 51.78 43.51 52.06 44.74 53.35 45.05 53.13"/><polyline class="cls-6" points="42.26 50.04 43.51 51.44 43.2 51.67 41.95 50.32 42.26 50.04"/><polygon class="cls-4" points="42.26 50.04 43.51 51.44 43.2 51.67 41.95 50.32 42.26 50.04"/><polyline class="cls-6" points="46.28 51.78 46.59 51.44 46.9 51.67 46.59 52.06 46.28 51.78"/><polygon class="cls-4" points="46.28 51.78 46.59 51.44 46.9 51.67 46.59 52.06 46.28 51.78"/><polyline class="cls-6" points="46.28 51.78 46.59 51.44 46.9 51.67 46.59 52.06 46.28 51.78"/><polygon class="cls-4" points="46.28 51.78 46.59 51.44 46.9 51.67 46.59 52.06 46.28 51.78"/><polyline class="cls-6" points="46.59 52.28 47.2 51.44 47.51 51.62 46.59 52.51 46.59 52.28"/><polygon class="cls-4" points="46.59 52.28 47.2 51.44 47.51 51.61 46.59 52.51 46.59 52.28"/><polyline class="cls-6" points="45.97 51.83 46.59 50.93 46.9 51.16 46.28 52.06 45.97 51.83"/><polygon class="cls-4" points="45.97 51.83 46.59 50.93 46.9 51.16 46.28 52.06 45.97 51.83"/><polyline class="cls-6" points="45.35 53.13 46.28 51.78 46.59 52.06 45.66 53.35 45.35 53.13"/><polygon class="cls-4" points="45.35 53.13 46.28 51.78 46.59 52.06 45.66 53.35 45.35 53.13"/><polyline class="cls-6" points="48.13 49.87 46.59 51.44 46.9 51.67 48.13 50.09 48.13 49.87"/><polygon class="cls-4" points="48.13 49.87 46.59 51.44 46.9 51.67 48.13 50.09 48.13 49.87"/><rect class="cls-6" x="43.2" y="55.21" width="0.62" height="0.62"/><rect class="cls-4" x="43.2" y="55.21" width="0.62" height="0.62"/><rect class="cls-6" x="43.2" y="55.21" width="0.62" height="0.62"/><rect class="cls-4" x="43.2" y="55.21" width="0.62" height="0.62"/><polyline class="cls-6" points="43.82 54.99 42.89 55.83 42.57 55.61 43.51 54.76 43.82 54.99"/><polygon class="cls-4" points="43.82 54.98 42.88 55.83 42.57 55.6 43.51 54.76 43.82 54.98"/><polyline class="cls-6" points="44.12 55.43 43.51 56.27 43.2 56.11 44.12 55.2 44.12 55.43"/><polygon class="cls-4" points="44.12 55.43 43.51 56.28 43.2 56.11 44.12 55.21 44.12 55.43"/><polyline class="cls-6" points="45.05 54.14 43.82 55.43 43.51 55.2 44.74 53.92 45.05 54.14"/><polygon class="cls-4" points="45.05 54.14 43.82 55.43 43.51 55.21 44.74 53.91 45.05 54.14"/><polyline class="cls-6" points="42.26 57.17 43.51 55.83 43.2 55.61 41.95 56.95 42.26 57.17"/><polygon class="cls-4" points="42.26 57.17 43.51 55.83 43.2 55.6 41.95 56.95 42.26 57.17"/><polyline class="cls-6" points="46.28 55.43 46.59 55.83 46.9 55.61 46.59 55.2 46.28 55.43"/><polygon class="cls-4" points="46.28 55.43 46.59 55.83 46.9 55.6 46.59 55.21 46.28 55.43"/><polyline class="cls-6" points="46.28 55.43 46.59 55.83 46.9 55.61 46.59 55.2 46.28 55.43"/><polygon class="cls-4" points="46.28 55.43 46.59 55.83 46.9 55.6 46.59 55.21 46.28 55.43"/><polyline class="cls-6" points="46.59 54.99 47.2 55.83 47.51 55.61 46.59 54.76 46.59 54.99"/><polygon class="cls-4" points="46.59 54.98 47.2 55.83 47.51 55.6 46.59 54.76 46.59 54.98"/><polyline class="cls-6" points="45.97 55.43 46.59 56.27 46.9 56.11 46.28 55.2 45.97 55.43"/><polygon class="cls-4" points="45.97 55.43 46.59 56.28 46.9 56.11 46.28 55.21 45.97 55.43"/><polyline class="cls-6" points="45.35 54.14 46.28 55.43 46.59 55.2 45.66 53.92 45.35 54.14"/><polygon class="cls-4" points="45.35 54.14 46.28 55.43 46.59 55.21 45.66 53.91 45.35 54.14"/><polyline class="cls-6" points="48.13 57.4 46.59 55.83 46.9 55.61 48.13 57.12 48.13 57.4"/><polygon class="cls-4" points="48.13 57.4 46.59 55.83 46.9 55.6 48.13 57.12 48.13 57.4"/><rect class="cls-6" x="43.51" y="49.42" width="0.62" height="0.4"/><rect class="cls-4" x="43.51" y="49.42" width="0.62" height="0.4"/><rect class="cls-6" x="43.51" y="49.42" width="0.62" height="0.4"/><rect class="cls-4" x="43.51" y="49.42" width="0.62" height="0.4"/><rect class="cls-6" x="43.2" y="49.81" width="1.23" height="0.33"/><rect class="cls-4" x="43.2" y="49.81" width="1.23" height="0.34"/><rect class="cls-6" x="43.2" y="49.08" width="1.23" height="0.34"/><rect class="cls-4" x="43.2" y="49.08" width="1.23" height="0.34"/><rect class="cls-6" x="43.82" y="49.42" width="1.54" height="0.4"/><rect class="cls-4" x="43.82" y="49.42" width="1.54" height="0.4"/><rect class="cls-6" x="41.95" y="49.42" width="1.25" height="0.4"/><rect class="cls-4" x="41.95" y="49.42" width="1.25" height="0.4"/><rect class="cls-6" x="46.59" y="49.42" width="0.62" height="0.4"/><rect class="cls-4" x="46.59" y="49.42" width="0.62" height="0.4"/><rect class="cls-6" x="46.59" y="49.42" width="0.62" height="0.4"/><rect class="cls-4" x="46.59" y="49.42" width="0.62" height="0.4"/><rect class="cls-6" x="46.28" y="49.08" width="1.23" height="0.34"/><rect class="cls-4" x="46.28" y="49.08" width="1.23" height="0.34"/><rect class="cls-6" x="46.9" y="49.42" width="1.54" height="0.4"/><rect class="cls-4" x="46.9" y="49.42" width="1.54" height="0.4"/><rect class="cls-6" x="45.05" y="49.42" width="1.23" height="0.4"/><rect class="cls-4" x="45.05" y="49.42" width="1.23" height="0.4"/><path class="cls-6" d="M47.82,49.64a.62.62,0,1,1,.61.57.6.6,0,0,1-.61-.57"/><path class="cls-4" d="M47.82,49.64a.62.62,0,1,1,.61.56A.59.59,0,0,1,47.82,49.64Z"/><path class="cls-6" d="M44.43,49.64a.62.62,0,0,1,1.23,0,.62.62,0,0,1-1.23,0"/><path class="cls-4" d="M44.43,49.64a.62.62,0,0,1,1.23,0,.62.62,0,0,1-1.23,0Z"/><rect class="cls-1" x="48.13" y="49.42" width="0.31" height="0.45"/><rect class="cls-4" x="48.13" y="49.42" width="0.31" height="0.45"/><rect class="cls-6" x="41.95" y="50.82" width="0.31" height="1.18"/><rect class="cls-4" x="41.95" y="50.82" width="0.31" height="1.18"/><rect class="cls-6" x="41.34" y="50.82" width="0.31" height="1.18"/><rect class="cls-4" x="41.34" y="50.82" width="0.31" height="1.18"/><rect class="cls-6" x="41.65" y="51.67" width="0.31" height="1.46"/><rect class="cls-4" x="41.65" y="51.67" width="0.31" height="1.46"/><rect class="cls-6" x="41.65" y="49.86" width="0.31" height="1.35"/><rect class="cls-4" x="41.65" y="49.86" width="0.31" height="1.35"/><path class="cls-6" d="M41.34,49.64c0-.27,0-.51.31-.51a.54.54,0,1,1,0,1.08c-.31,0-.31-.23-.31-.57"/><path class="cls-4" d="M41.34,49.64c0-.28,0-.51.31-.51a.54.54,0,1,1,0,1.07C41.34,50.2,41.34,50,41.34,49.64Z"/><rect class="cls-1" x="41.65" y="49.42" width="0.31" height="0.45"/><rect class="cls-4" x="41.65" y="49.42" width="0.31" height="0.45"/><rect class="cls-1" x="44.74" y="49.42" width="0.31" height="0.45"/><rect class="cls-4" x="44.74" y="49.42" width="0.31" height="0.45"/><rect class="cls-6" x="43.2" y="53.3" width="0.62" height="0.39"/><rect class="cls-4" x="43.2" y="53.3" width="0.62" height="0.39"/><rect class="cls-6" x="43.2" y="53.3" width="0.62" height="0.39"/><rect class="cls-4" x="43.2" y="53.3" width="0.62" height="0.39"/><rect class="cls-6" x="42.89" y="53.69" width="1.23" height="0.34"/><rect class="cls-4" x="42.88" y="53.69" width="1.25" height="0.34"/><rect class="cls-6" x="42.89" y="52.96" width="1.23" height="0.33"/><rect class="cls-4" x="42.88" y="52.96" width="1.25" height="0.34"/><rect class="cls-6" x="43.82" y="53.3" width="1.54" height="0.39"/><rect class="cls-4" x="43.82" y="53.3" width="1.54" height="0.39"/><rect class="cls-6" x="41.95" y="53.3" width="1.25" height="0.39"/><rect class="cls-4" x="41.95" y="53.3" width="1.25" height="0.39"/><rect class="cls-6" x="46.59" y="53.3" width="0.62" height="0.39"/><rect class="cls-4" x="46.59" y="53.3" width="0.62" height="0.39"/><rect class="cls-6" x="46.59" y="53.3" width="0.62" height="0.39"/><rect class="cls-4" x="46.59" y="53.3" width="0.62" height="0.39"/><rect class="cls-6" x="45.97" y="53.69" width="1.23" height="0.34"/><rect class="cls-4" x="45.97" y="53.69" width="1.23" height="0.34"/><rect class="cls-6" x="45.97" y="52.96" width="1.23" height="0.33"/><rect class="cls-4" x="45.97" y="52.96" width="1.23" height="0.34"/><rect class="cls-6" x="45.05" y="53.3" width="1.54" height="0.39"/><rect class="cls-4" x="45.05" y="53.3" width="1.54" height="0.39"/><rect class="cls-6" x="46.9" y="53.3" width="1.23" height="0.39"/><rect class="cls-4" x="46.9" y="53.3" width="1.23" height="0.39"/><rect class="cls-6" x="48.13" y="54.98" width="0.31" height="0.45"/><rect class="cls-4" x="48.13" y="54.98" width="0.31" height="0.45"/><rect class="cls-6" x="48.13" y="54.98" width="0.31" height="0.45"/><rect class="cls-4" x="48.13" y="54.98" width="0.31" height="0.45"/><rect class="cls-6" x="47.82" y="54.58" width="0.31" height="1.18"/><rect class="cls-4" x="47.82" y="54.59" width="0.31" height="1.18"/><rect class="cls-6" x="48.43" y="54.58" width="0.31" height="1.18"/><rect class="cls-4" x="48.43" y="54.59" width="0.31" height="1.18"/><rect class="cls-6" x="48.13" y="53.64" width="0.31" height="1.35"/><rect class="cls-4" x="48.13" y="53.63" width="0.31" height="1.35"/><rect class="cls-6" x="41.95" y="54.58" width="0.31" height="1.18"/><rect class="cls-4" x="41.95" y="54.59" width="0.31" height="1.18"/><rect class="cls-6" x="41.34" y="54.58" width="0.31" height="1.18"/><rect class="cls-4" x="41.34" y="54.59" width="0.31" height="1.18"/><rect class="cls-6" x="41.65" y="53.64" width="0.31" height="1.35"/><rect class="cls-4" x="41.65" y="53.63" width="0.31" height="1.35"/><path class="cls-6" d="M48.43,55.43a3.39,3.39,0,1,1-6.78,0H42a3.19,3.19,0,0,0,3.1,3.09,3,3,0,0,0,3.08-3.09h.3"/><path class="cls-4" d="M48.43,55.43a3.39,3.39,0,1,1-6.78,0H42a3.19,3.19,0,0,0,3.1,3.09,3,3,0,0,0,3.08-3.09Z"/><rect class="cls-6" x="41.65" y="54.98" width="0.31" height="0.45"/><rect class="cls-4" x="41.65" y="54.98" width="0.31" height="0.45"/><polyline class="cls-6" points="43.82 58.36 43.2 57.91 43.2 57.63 44.12 58.01 43.82 58.36"/><polygon class="cls-4" points="43.82 58.36 43.2 57.91 43.2 57.63 44.12 58.02 43.82 58.36"/><polyline class="cls-6" points="43.51 58.98 42.89 58.52 42.89 58.24 43.82 58.64 43.51 58.98"/><polygon class="cls-4" points="43.51 58.98 42.88 58.52 42.88 58.24 43.82 58.64 43.51 58.98"/><polyline class="cls-6" points="43.82 58.24 43.2 58.01 43.2 58.29 43.51 58.52 43.82 58.24"/><polygon class="cls-4" points="43.82 58.24 43.2 58.02 43.2 58.3 43.51 58.52 43.82 58.24"/><rect class="cls-6" x="45.97" y="57.63" width="0.92" height="0.73"/><rect class="cls-4" x="45.97" y="57.63" width="0.92" height="0.73"/><polyline class="cls-6" points="46.59 58.98 47.51 58.52 47.2 58.24 46.59 58.64 46.59 58.98"/><polygon class="cls-4" points="46.59 58.98 47.51 58.52 47.2 58.24 46.59 58.64 46.59 58.98"/><polyline class="cls-6" points="46.9 58.29 46.59 58.52 46.28 58.24 46.9 58.01 46.9 58.29"/><polygon class="cls-4" points="46.9 58.3 46.59 58.52 46.28 58.24 46.9 58.02 46.9 58.3"/><path class="cls-6" d="M44.43,53.64a.62.62,0,0,1,1.23,0,.62.62,0,0,1-1.23,0"/><path class="cls-4" d="M44.43,53.63a.62.62,0,0,1,1.23,0,.62.62,0,0,1-1.23,0Z"/><path class="cls-6" d="M44.43,58.75a.62.62,0,0,1,1.23,0,.63.63,0,0,1-1.23,0"/><path class="cls-4" d="M44.43,58.75a.62.62,0,0,1,1.23,0,.63.63,0,0,1-1.23,0Z"/><polyline class="cls-10" points="45.05 53.41 45.35 53.64 45.05 53.86 44.74 53.64 45.05 53.41"/><polygon class="cls-4" points="45.05 53.41 45.35 53.63 45.05 53.86 44.74 53.63 45.05 53.41"/><path class="cls-6" d="M41.65,54c-.31,0-.31-.23-.31-.56s0-.51.31-.51a.59.59,0,0,1,.61.51.6.6,0,0,1-.61.56"/><path class="cls-4" d="M41.65,54c-.31,0-.31-.23-.31-.56s0-.51.31-.51a.59.59,0,0,1,.61.51A.6.6,0,0,1,41.65,54Z"/><polyline class="cls-1" points="41.65 53.47 41.65 53.3 41.95 53.47 41.65 53.69 41.65 53.47"/><polygon class="cls-4" points="41.65 53.47 41.65 53.3 41.95 53.47 41.65 53.69 41.65 53.47"/><path class="cls-6" d="M48.43,54a.6.6,0,0,1-.61-.56.63.63,0,0,1,1.23,0,.6.6,0,0,1-.62.56"/><path class="cls-4" d="M48.43,54a.6.6,0,0,1-.61-.56.63.63,0,0,1,1.23,0A.6.6,0,0,1,48.43,54Z"/><polyline class="cls-1" points="48.13 53.47 48.43 53.3 48.74 53.47 48.43 53.69 48.13 53.47"/><polygon class="cls-4" points="48.13 53.47 48.43 53.3 48.74 53.47 48.43 53.69 48.13 53.47"/><path class="cls-6" d="M41.65,57.12a.59.59,0,0,1,.61-.57.61.61,0,0,1,.63.57.66.66,0,0,1-.63.56.64.64,0,0,1-.61-.56"/><path class="cls-4" d="M41.65,57.12a.58.58,0,0,1,.61-.56.59.59,0,0,1,.62.56.64.64,0,0,1-.62.56A.63.63,0,0,1,41.65,57.12Z"/><polyline class="cls-1" points="41.95 57.12 42.26 56.89 42.26 57.12 42.26 57.34 41.95 57.12"/><polygon class="cls-4" points="41.95 57.12 42.26 56.89 42.26 57.12 42.26 57.34 41.95 57.12"/><path class="cls-6" d="M47.51,57.12a.6.6,0,0,1,.62-.57c.3,0,.3.23.3.57s0,.56-.3.56a.65.65,0,0,1-.62-.56"/><path class="cls-4" d="M47.51,57.12a.59.59,0,0,1,.62-.56c.3,0,.3.22.3.56s0,.56-.3.56A.64.64,0,0,1,47.51,57.12Z"/><polyline class="cls-1" points="47.82 57.12 48.13 56.89 48.13 57.12 48.13 57.34 47.82 57.12"/><polygon class="cls-4" points="47.82 57.12 48.13 56.89 48.13 57.12 48.13 57.34 47.82 57.12"/><rect class="cls-1" x="44.74" y="58.53" width="0.31" height="0.45"/><rect class="cls-4" x="44.74" y="58.52" width="0.31" height="0.45"/><path class="cls-6" d="M22.52,44.41l.62-.33c.62-.17.62.05.92.28,0,.28,0,.56-.3.67l-.31.11.31.4-.62.22-.62-1.35"/><path class="cls-1" d="M23.45,44.81v-.06c0-.06.31-.11.31-.23l-.31-.05-.31.11.31.23"/><polyline class="cls-6" points="24.37 43.68 24.68 43.57 24.99 44.64 25.6 44.52 25.6 44.92 24.37 45.08 24.37 43.68"/><polyline class="cls-6" points="26.53 44.8 25.91 44.8 25.6 43.4 25.91 43.4 26.22 44.24 26.53 43.35 26.84 43.29 26.53 44.8"/><path class="cls-6" d="M27.46,44.24v.06l.31.17.31-.11c0-.12,0-.12-.31-.23s-.63-.17-.63-.45.32-.44.63-.44.62.16.62.56l-.31-.06v-.11l-.31-.06v.06c0,.11,0,.17.31.22s.31.23.31.45c0,.39-.31.51-.62.45s-.63-.11-.63-.56l.32.05"/><polyline class="cls-6" points="51.84 44.8 51.22 44.87 50.6 43.46 51.22 43.4 51.53 44.24 51.53 43.35 52.14 43.29 51.84 44.8"/><polyline class="cls-6" points="52.45 43.29 52.76 43.29 52.76 44.36 53.68 44.36 53.68 44.75 52.45 44.75 52.45 43.29"/><polyline class="cls-6" points="53.99 43.74 53.68 43.74 53.68 43.35 54.92 43.46 54.92 43.85 54.61 43.8 54.3 44.87 53.99 44.8 53.99 43.74"/><path class="cls-6" d="M55.22,43.52l.93.16c0,.06.31.28.31.51s-.31.28-.31.33v.74l-.31-.12v-.22c0-.17,0-.28-.31-.34v-.06l-.31.51-.3-.11.3-1.4"/><path class="cls-1" d="M55.53,44.24l.31.06V44L55.53,44v.28"/><polyline class="cls-6" points="57.38 44.24 57.69 44.41 57.69 45.99 57.38 45.76 57.38 45.54 56.76 45.37 56.76 45.54 56.15 45.32 57.38 44.24"/><polyline class="cls-1" points="57.38 45.26 57.38 44.75 57.07 45.15 57.38 45.26"/><line class="cls-4" x1="25.3" y1="33.45" x2="25.3" y2="32.83"/><line class="cls-11" x1="25.3" y1="33.11" x2="25.3" y2="33"/><rect class="cls-6" x="25.3" y="33.23" width="0.31" height="0.4"/><rect class="cls-4" x="25.3" y="33.22" width="0.31" height="0.4"/><path class="cls-6" d="M27.14,35.31c0-.18-.3-.28-.3-.28,0-.17,0-.63-.93-.63-.31,0-.31.12-.61.28,0-.16-.31-.28-.31-.28-.93,0-.93.46-.93.63,0,0-.3.1-.3.28s0,.16.3.28h2.78c.3-.17.3-.23.3-.28"/><path class="cls-4" d="M27.14,35.31c0-.18-.3-.28-.3-.28,0-.17,0-.62-.93-.62-.31,0-.31.11-.61.28,0-.17-.31-.28-.31-.28-.93,0-.93.45-.93.62,0,0-.3.1-.3.28s0,.16.3.28h2.78C27.14,35.42,27.14,35.36,27.14,35.31Z"/><path class="cls-6" d="M23.45,34.57c0,.18,0,.29.31.23,0,0,.3.06.3.23-.3,0-.3.16-.3.28a.76.76,0,0,1-.31-.74"/><path class="cls-4" d="M23.45,34.57c0,.18,0,.29.31.23,0,0,.3.06.3.23-.3,0-.3.16-.3.28A.76.76,0,0,1,23.45,34.57Z"/><path class="cls-6" d="M27.46,34.57c0,.18,0,.29-.32.23s-.3.06-.3.23c0,0,.3.16.3.28a.75.75,0,0,0,.32-.74"/><path class="cls-4" d="M27.45,34.57c0,.18,0,.29-.31.23s-.3.06-.3.23c0,0,.3.16.3.28A.76.76,0,0,0,27.45,34.57Z"/><path class="cls-6" d="M25.3,33.45c.3.11.3.73.3.95.93-.72,1.24-.56,1.24-.44v.22c-.31,0-.31,0-.31.22-.31.07-.31.07-.31.23-.31.12-.31,0-.31.23s-.31.17-.61,0c0,.17-.31.11-.31,0-.31-.18-.31-.11-.31-.23s-.31-.16-.31-.23,0-.22-.31-.22c0-.06,0-.11-.3-.22.3-.12.61-.28,1.54.44v-.95"/><path class="cls-4" d="M25.3,33.45c.3.11.3.73.3,1,.93-.73,1.24-.57,1.24-.45v.22c-.31,0-.31,0-.31.23-.31.05-.31.05-.31.22-.31.12-.31.06-.31.23s-.31.17-.61,0c0,.17-.31.11-.31,0-.31-.17-.31-.11-.31-.23s-.31-.17-.31-.22c0-.23,0-.23-.31-.23,0,0,0-.11-.3-.22.3-.12.61-.28,1.54.45Z"/><path class="cls-6" d="M24.06,36c0-.28,0-.45-.3-.62a3.6,3.6,0,0,1,1.54-.29,6.92,6.92,0,0,1,1.84.29c-.3.17-.3.34-.3.62H24.06"/><path class="cls-4" d="M24.06,36c0-.28,0-.45-.3-.62a3.6,3.6,0,0,1,1.54-.29,6.92,6.92,0,0,1,1.84.29c-.3.17-.3.34-.3.62Z"/><path class="cls-4" d="M26.84,35.64a5.26,5.26,0,0,0-1.54-.22,3.19,3.19,0,0,0-1.24.22"/><path class="cls-6" d="M24.06,36c0-.17.62-.34,1.24-.34.92,0,1.54.17,1.54.34s-.62.39-1.54.39c-.62,0-1.24-.17-1.24-.39"/><path class="cls-4" d="M24.06,36c0-.17.62-.34,1.24-.34.92,0,1.54.17,1.54.34s-.62.39-1.54.39C24.68,36.43,24.06,36.26,24.06,36Z"/><path class="cls-1" d="M25.3,36.26c.61,0,1.23-.11,1.23-.22s-.62-.17-1.23-.17c-.31,0-.93.06-.93.17s.62.22.93.22"/><path class="cls-4" d="M25.3,36.26c.61,0,1.23-.11,1.23-.22s-.62-.17-1.23-.17c-.31,0-.93.05-.93.17S25,36.26,25.3,36.26Z"/><path class="cls-6" d="M39.49,23.9a.83.83,0,0,1,.92-.85c.31,0,.62.39.62.85s-.31.84-.62.84a.83.83,0,0,1-.92-.84"/><path class="cls-4" d="M39.49,23.9a.83.83,0,0,1,.92-.85c.31,0,.62.39.62.85s-.31.84-.62.84A.83.83,0,0,1,39.49,23.9Z"/><path class="cls-6" d="M40.11,21.48V22h-.62v.4h.62v1.29h-.62v.45H41v-.45h-.62V22.38H41V22h-.62v-.5h-.3"/><path class="cls-4" d="M40.11,21.48V22h-.62v.39h.62v1.3h-.62v.45H41v-.45h-.62v-1.3H41V22h-.62v-.5Z"/><path class="cls-1" d="M46.59,33.62c2.15-.9,3.39-2.75,2.15-4.84-1.23-1.63-3.39-.89-4-.44a8.22,8.22,0,0,0-4.63-1.19,8.59,8.59,0,0,0-4.62,1.19,3.07,3.07,0,0,0-4,.5c-1.24,2.08,0,3.88,2.15,4.78h13"/><path class="cls-4" d="M46.59,33.62c2.15-.9,3.39-2.75,2.15-4.83-1.23-1.64-3.39-.9-4-.46a8.3,8.3,0,0,0-4.63-1.18,8.77,8.77,0,0,0-4.62,1.18,3.09,3.09,0,0,0-4,.51c-1.24,2.08,0,3.88,2.15,4.78Z"/><path class="cls-6" d="M32.09,25.92c.3,0,.3-.11.3-.23s0-.28-.3-.28v.51"/><path class="cls-4" d="M32.09,25.92c.3,0,.3-.11.3-.23s0-.28-.3-.28v.51Z"/><path class="cls-6" d="M31.16,29.57a1.37,1.37,0,0,1,0-2.25c.62-.95,2.46-1.29,3.7-1.07l.32-.33c-.94-.17-4-.4-5.25,2a2.67,2.67,0,0,0,.92,2.75,1.59,1.59,0,0,1,.31-1.07"/><path class="cls-4" d="M31.16,29.57a1.37,1.37,0,0,1,0-2.25c.62-.95,2.46-1.29,3.7-1.07l.31-.33c-.93-.17-4-.4-5.24,2-.31,1,.3,2.53.92,2.75A1.57,1.57,0,0,1,31.16,29.57Z"/><path class="cls-6" d="M30.23,30.69s.31-.11.31-.22-.31-.28-.31-.28c-.3,0-.3.11-.3.28s0,.22.3.22"/><path class="cls-4" d="M30.23,30.7s.31-.12.31-.23-.31-.28-.31-.28c-.3,0-.3.11-.3.28S29.93,30.7,30.23,30.7Z"/><path class="cls-6" d="M29.93,30.19s.3-.11.3-.28-.3-.22-.3-.22c-.31,0-.31.11-.31.22s0,.28.31.28"/><path class="cls-4" d="M29.93,30.19s.3-.11.3-.28-.3-.23-.3-.23c-.31,0-.31.12-.31.23S29.62,30.19,29.93,30.19Z"/><path class="cls-6" d="M29.62,29.57c.31,0,.31-.11.31-.23s0-.28-.31-.28c0,0-.31.12-.31.28s.31.23.31.23"/><path class="cls-4" d="M29.62,29.57c.31,0,.31-.11.31-.22s0-.28-.31-.28c0,0-.31.11-.31.28S29.62,29.57,29.62,29.57Z"/><path class="cls-6" d="M29.62,28.84s.31-.11.31-.22-.31-.28-.31-.28c-.31,0-.31.1-.31.28s0,.22.31.22"/><path class="cls-4" d="M29.62,28.84s.31-.11.31-.23-.31-.28-.31-.28c-.31,0-.31.12-.31.28S29.31,28.84,29.62,28.84Z"/><path class="cls-6" d="M29.62,28.17c.31,0,.31-.11.31-.28s0-.23-.31-.23c0,0-.31.11-.31.23s.31.28.31.28"/><path class="cls-4" d="M29.62,28.17c.31,0,.31-.12.31-.28s0-.23-.31-.23c0,0-.31.11-.31.23S29.62,28.17,29.62,28.17Z"/><path class="cls-6" d="M29.93,27.55c.3,0,.3-.11.3-.28s0-.23-.3-.23v.51"/><path class="cls-4" d="M29.93,27.55c.3,0,.3-.11.3-.28s0-.23-.3-.23v.51Z"/><path class="cls-6" d="M30.54,26.93s.31-.12.31-.23-.31-.28-.31-.28c-.31,0-.31.11-.31.28s0,.23.31.23"/><path class="cls-4" d="M30.54,26.93s.31-.11.31-.23-.31-.28-.31-.28c-.31,0-.31.12-.31.28S30.23,26.93,30.54,26.93Z"/><path class="cls-6" d="M30.85,26.53c.31,0,.31-.11.31-.22s0-.28-.31-.28v.5"/><path class="cls-4" d="M30.85,26.54c.31,0,.31-.12.31-.23s0-.28-.31-.28v.51Z"/><path class="cls-6" d="M31.47,26.2c.31,0,.31-.11.31-.23s0-.28-.31-.28v.51"/><path class="cls-4" d="M31.47,26.2c.31,0,.31-.11.31-.23s0-.28-.31-.28v.51Z"/><path class="cls-6" d="M33,25.81V25.3c-.31,0-.31.11-.31.22s0,.29.31.29"/><path class="cls-4" d="M33,25.81V25.3c-.31,0-.31.11-.31.22S32.7,25.81,33,25.81Z"/><path class="cls-6" d="M33.62,25.75s.31-.11.31-.28-.31-.23-.31-.23c-.3,0-.3.11-.3.23s0,.28.3.28"/><path class="cls-4" d="M33.62,25.75s.31-.11.31-.28-.31-.23-.31-.23c-.3,0-.3.11-.3.23S33.32,25.75,33.62,25.75Z"/><path class="cls-6" d="M34.24,25.75c.31,0,.31-.11.31-.23s0-.28-.31-.28v.51"/><path class="cls-4" d="M34.24,25.75c.31,0,.31-.11.31-.23s0-.28-.31-.28v.51Z"/><path class="cls-6" d="M39.8,25.86c-.62-.22-2.47-.95-3.7-.22s-1.24,1.85,0,2.92c-.31.22-.31.62-.61.78a2.3,2.3,0,0,1-.31-3.42c.31-.68,2.15-1.74,4.62-.4v.34"/><path class="cls-4" d="M39.8,25.86c-.62-.22-2.47-.95-3.7-.22s-1.24,1.85,0,2.92c-.31.23-.31.62-.61.79a2.32,2.32,0,0,1-.32-3.43c.32-.68,2.16-1.74,4.63-.4Z"/><path class="cls-6" d="M34.86,29c.32,0,.32-.11.32-.28s0-.23-.32-.23V29"/><path class="cls-4" d="M34.86,29c.31,0,.31-.11.31-.28s0-.23-.31-.23V29Z"/><path class="cls-6" d="M34.86,28.39v-.45c-.31,0-.31.12-.31.23s0,.22.31.22"/><path class="cls-4" d="M34.86,28.39v-.45c-.31,0-.31.11-.31.23S34.55,28.39,34.86,28.39Z"/><path class="cls-6" d="M34.55,27.83c.31,0,.31-.11.31-.22s0-.29-.31-.29c0,0-.31.12-.31.29s.31.22.31.22"/><path class="cls-4" d="M34.55,27.83c.31,0,.31-.11.31-.22s0-.29-.31-.29c0,0-.31.12-.31.29S34.55,27.83,34.55,27.83Z"/><path class="cls-6" d="M34.55,27.15s.31-.11.31-.27-.31-.23-.31-.23-.31.11-.31.23.31.27.31.27"/><path class="cls-4" d="M34.55,27.15s.31-.11.31-.27-.31-.23-.31-.23-.31.11-.31.23S34.55,27.15,34.55,27.15Z"/><path class="cls-6" d="M34.55,26.25c0-.16,0-.28.31-.28,0,0,.32.12.32.28s-.32.23-.32.23c-.31,0-.31-.11-.31-.23"/><path class="cls-4" d="M34.55,26.25c0-.16,0-.28.31-.28,0,0,.31.12.31.28s-.31.23-.31.23C34.55,26.48,34.55,26.37,34.55,26.25Z"/><path class="cls-6" d="M35.18,26s.31-.11.31-.28-.31-.22-.31-.22-.32.11-.32.22.32.28.32.28"/><path class="cls-4" d="M35.17,26s.32-.11.32-.28-.32-.22-.32-.22-.31.11-.31.22S35.17,26,35.17,26Z"/><path class="cls-6" d="M35.79,25.58v-.51c-.3,0-.3.12-.3.28s0,.23.3.23"/><path class="cls-4" d="M35.79,25.58v-.51c-.3,0-.3.12-.3.28S35.49,25.58,35.79,25.58Z"/><path class="cls-6" d="M36.1,25.3c.31,0,.31-.11.31-.23s0-.28-.31-.28c0,0-.31.12-.31.28s.31.23.31.23"/><path class="cls-4" d="M36.1,25.3c.31,0,.31-.11.31-.23s0-.28-.31-.28c0,0-.31.12-.31.28S36.1,25.3,36.1,25.3Z"/><path class="cls-6" d="M36.72,25.07c.31,0,.31-.11.31-.22s0-.29-.31-.29c0,0-.31.12-.31.29s.31.22.31.22"/><path class="cls-4" d="M36.72,25.07c.31,0,.31-.11.31-.22s0-.28-.31-.28c0,0-.31.11-.31.28S36.72,25.07,36.72,25.07Z"/><path class="cls-6" d="M37.33,25.07c.31,0,.31-.11.31-.28s0-.23-.31-.23v.51"/><path class="cls-4" d="M37.33,25.07c.31,0,.31-.11.31-.28s0-.22-.31-.22v.5Z"/><path class="cls-6" d="M38.26,25.07v-.44c-.31,0-.31.05-.31.22s0,.22.31.22"/><path class="cls-4" d="M38.26,25.07v-.45c-.31,0-.31.06-.31.23S38,25.07,38.26,25.07Z"/><path class="cls-6" d="M38.87,25.24v-.45c-.3,0-.3.12-.3.23s0,.22.3.22"/><path class="cls-4" d="M38.87,25.24v-.45c-.3,0-.3.12-.3.23S38.57,25.24,38.87,25.24Z"/><path class="cls-6" d="M39.49,25.47V25c-.31,0-.31.11-.31.23s0,.28.31.28"/><path class="cls-4" d="M39.49,25.47V25c-.31,0-.31.11-.31.23S39.18,25.47,39.49,25.47Z"/><path class="cls-6" d="M49.05,29.57a1.59,1.59,0,0,0,.31-2.25,5,5,0,0,0-4-1.07v-.33c.62-.17,3.7-.4,4.93,2a2.65,2.65,0,0,1-.92,2.75,1.59,1.59,0,0,0-.31-1.07"/><path class="cls-4" d="M49.05,29.57a1.59,1.59,0,0,0,.31-2.25,5,5,0,0,0-4-1.07v-.33c.62-.17,3.7-.4,4.93,2,.31,1-.3,2.53-.92,2.75A1.57,1.57,0,0,0,49.05,29.57Z"/><path class="cls-6" d="M50,30.69v-.5c.3,0,.3.11.3.28s0,.22-.3.22"/><path class="cls-4" d="M50,30.7v-.51c.3,0,.3.11.3.28S50.28,30.7,50,30.7Z"/><path class="cls-6" d="M50.28,30.19v-.5c.32,0,.32.11.32.22s0,.28-.32.28"/><path class="cls-4" d="M50.28,30.19v-.51c.31,0,.31.12.31.23S50.59,30.19,50.28,30.19Z"/><path class="cls-6" d="M50.6,29.57s-.32-.11-.32-.23.32-.28.32-.28c.31,0,.31.12.31.28s0,.23-.31.23"/><path class="cls-4" d="M50.59,29.57s-.31-.11-.31-.22.31-.28.31-.28c.32,0,.32.11.32.28S50.91,29.57,50.59,29.57Z"/><path class="cls-6" d="M50.6,28.84s-.32-.11-.32-.22.32-.28.32-.28c.31,0,.31.1.31.28s0,.22-.31.22"/><path class="cls-4" d="M50.59,28.84s-.31-.11-.31-.23.31-.28.31-.28c.32,0,.32.12.32.28S50.91,28.84,50.59,28.84Z"/><path class="cls-6" d="M50.6,28.17c-.32,0-.32-.11-.32-.28s0-.23.32-.23c0,0,.31.11.31.23s-.31.28-.31.28"/><path class="cls-4" d="M50.59,28.17c-.31,0-.31-.12-.31-.28s0-.23.31-.23c0,0,.32.11.32.23S50.59,28.17,50.59,28.17Z"/><path class="cls-6" d="M50.28,27.55c-.3,0-.3-.11-.3-.28s0-.23.3-.23c0,0,.32.11.32.23s-.32.28-.32.28"/><path class="cls-4" d="M50.28,27.55c-.3,0-.3-.11-.3-.28s0-.23.3-.23c0,0,.31.11.31.23S50.28,27.55,50.28,27.55Z"/><path class="cls-6" d="M49.67,26.93v-.51c.31,0,.31.11.31.28s0,.23-.31.23"/><path class="cls-4" d="M49.67,26.93v-.51c.31,0,.31.12.31.28S50,26.93,49.67,26.93Z"/><path class="cls-6" d="M49.36,26.53c-.31,0-.31-.11-.31-.22s0-.28.31-.28c0,0,.31.11.31.28s-.31.22-.31.22"/><path class="cls-4" d="M49.36,26.54c-.31,0-.31-.12-.31-.23s0-.28.31-.28c0,0,.31.11.31.28S49.36,26.54,49.36,26.54Z"/><path class="cls-6" d="M48.74,26.2c-.31,0-.31-.11-.31-.23s0-.28.31-.28c0,0,.31.12.31.28s-.31.23-.31.23"/><path class="cls-4" d="M48.74,26.2c-.31,0-.31-.11-.31-.23s0-.28.31-.28c0,0,.31.12.31.28S48.74,26.2,48.74,26.2Z"/><path class="cls-6" d="M47.51,25.81c-.31,0-.31-.12-.31-.29s0-.22.31-.22v.51"/><path class="cls-4" d="M47.51,25.81c-.31,0-.31-.12-.31-.29s0-.22.31-.22v.51Z"/><path class="cls-6" d="M46.59,25.75s-.31-.11-.31-.28.31-.23.31-.23c.31,0,.31.11.31.23s0,.28-.31.28"/><path class="cls-4" d="M46.59,25.75s-.31-.11-.31-.28.31-.23.31-.23c.31,0,.31.11.31.23S46.9,25.75,46.59,25.75Z"/><path class="cls-6" d="M46,25.75c-.31,0-.31-.11-.31-.23s0-.28.31-.28c0,0,.31.11.31.28s-.31.23-.31.23"/><path class="cls-4" d="M46,25.75c-.31,0-.31-.11-.31-.23s0-.28.31-.28c0,0,.31.11.31.28S46,25.75,46,25.75Z"/><path class="cls-6" d="M40.41,25.86c.62-.22,2.48-.95,3.71-.22s1.23,1.85.31,2.92c0,.22,0,.62.31.78a2.61,2.61,0,0,0,.61-3.42c-.61-.68-2.46-1.74-4.94-.4v.34"/><path class="cls-4" d="M40.41,25.86c.62-.22,2.47-.95,3.71-.22s1.23,1.85.31,2.92c0,.23,0,.62.31.79a2.63,2.63,0,0,0,.61-3.43,4,4,0,0,0-4.94-.4Z"/><path class="cls-6" d="M45.35,29c-.3,0-.3-.11-.3-.28s0-.23.3-.23c0,0,.31.12.31.23s-.31.28-.31.28"/><path class="cls-4" d="M45.35,29c-.3,0-.3-.11-.3-.28s0-.23.3-.23c0,0,.31.11.31.23S45.35,29,45.35,29Z"/><path class="cls-6" d="M45.66,28.39c-.31,0-.31-.05-.31-.22s0-.23.31-.23v.45"/><path class="cls-4" d="M45.66,28.39c-.31,0-.31-.06-.31-.22s0-.23.31-.23v.45Z"/><path class="cls-6" d="M45.66,27.83s-.31-.11-.31-.22.31-.29.31-.29c.31,0,.31.12.31.29s0,.22-.31.22"/><path class="cls-4" d="M45.66,27.83s-.31-.11-.31-.22.31-.29.31-.29c.31,0,.31.12.31.29S46,27.83,45.66,27.83Z"/><path class="cls-6" d="M45.66,27.15s-.31-.11-.31-.27.31-.23.31-.23c.31,0,.31.11.31.23s0,.27-.31.27"/><path class="cls-4" d="M45.66,27.15s-.31-.11-.31-.27.31-.23.31-.23c.31,0,.31.11.31.23S46,27.15,45.66,27.15Z"/><path class="cls-6" d="M45.35,26.48V26c.31,0,.31.12.31.28s0,.23-.31.23"/><path class="cls-4" d="M45.35,26.48V26c.31,0,.31.12.31.28S45.66,26.48,45.35,26.48Z"/><path class="cls-6" d="M44.74,25.69c0-.11.31-.22.31-.22.3,0,.3.11.3.22s0,.28-.3.28c0,0-.31-.11-.31-.28"/><path class="cls-4" d="M44.74,25.69c0-.11.31-.22.31-.22.3,0,.3.11.3.22s0,.28-.3.28C45.05,26,44.74,25.86,44.74,25.69Z"/><path class="cls-6" d="M44.74,25.58c-.31,0-.31-.11-.31-.23s0-.28.31-.28v.51"/><path class="cls-4" d="M44.74,25.58c-.31,0-.31-.11-.31-.23s0-.28.31-.28v.51Z"/><path class="cls-6" d="M44.12,25.3c-.3,0-.3-.11-.3-.23s0-.28.3-.28c0,0,.31.12.31.28s-.31.23-.31.23"/><path class="cls-4" d="M44.12,25.3c-.3,0-.3-.11-.3-.23s0-.28.3-.28c0,0,.31.12.31.28S44.12,25.3,44.12,25.3Z"/><path class="cls-6" d="M43.51,25.07c-.31,0-.31-.11-.31-.22s0-.29.31-.29c0,0,.31.12.31.29s-.31.22-.31.22"/><path class="cls-4" d="M43.51,25.07c-.31,0-.31-.11-.31-.22s0-.28.31-.28c0,0,.31.11.31.28S43.51,25.07,43.51,25.07Z"/><path class="cls-6" d="M42.89,25.07c-.32,0-.32-.11-.32-.28s0-.23.32-.23c0,0,.31.12.31.23s-.31.28-.31.28"/><path class="cls-4" d="M42.88,25.07c-.31,0-.31-.11-.31-.28s0-.22.31-.22c0,0,.32.11.32.22S42.88,25.07,42.88,25.07Z"/><path class="cls-6" d="M42.26,25.07c-.31,0-.31-.11-.31-.22s0-.22.31-.22v.44"/><path class="cls-4" d="M42.26,25.07c-.31,0-.31-.11-.31-.22s0-.23.31-.23v.45Z"/><path class="cls-6" d="M41.65,25.24c-.31,0-.31,0-.31-.22s0-.23.31-.23v.45"/><path class="cls-4" d="M41.65,25.24c-.31,0-.31,0-.31-.22s0-.23.31-.23v.45Z"/><path class="cls-6" d="M41,25.47c-.31,0-.31-.12-.31-.28s0-.23.31-.23v.51"/><path class="cls-4" d="M41,25.47c-.31,0-.31-.12-.31-.28s0-.23.31-.23v.51Z"/><path class="cls-6" d="M46.59,33.62l-.31,1.63H33.93l-.31-1.63a33,33,0,0,1,6.49-.79,28.71,28.71,0,0,1,6.48.79"/><path class="cls-4" d="M46.59,33.62l-.31,1.63H33.93l-.31-1.63a33,33,0,0,1,6.49-.79A28.71,28.71,0,0,1,46.59,33.62Z"/><path class="cls-6" d="M33.62,35.31c0-.51,3.1-.91,6.49-.91,3.71,0,6.48.4,6.48.91s-2.77.9-6.48.9c-3.39,0-6.49-.4-6.49-.9"/><path class="cls-4" d="M33.62,35.31c0-.51,3.1-.9,6.49-.9,3.71,0,6.48.39,6.48.9s-2.77.89-6.48.89C36.72,36.2,33.62,35.81,33.62,35.31Z"/><path class="cls-1" d="M34.55,35.31c0-.34,2.48-.56,5.56-.56s5.55.22,5.55.56-2.46.56-5.55.56-5.56-.28-5.56-.56"/><path class="cls-4" d="M34.55,35.31c0-.34,2.48-.56,5.56-.56s5.55.22,5.55.56-2.46.56-5.55.56S34.55,35.59,34.55,35.31Z"/><path class="cls-6" d="M40.11,33.06a23.84,23.84,0,0,1,6.79.84l.3-.39a24.87,24.87,0,0,0-7.09-.9,21.28,21.28,0,0,0-6.79.9v.39a23.79,23.79,0,0,1,6.79-.84"/><path class="cls-4" d="M40.11,33.06a23.9,23.9,0,0,1,6.79.84l.3-.39a24.93,24.93,0,0,0-7.09-.9,21.28,21.28,0,0,0-6.79.9v.39A23.79,23.79,0,0,1,40.11,33.06Z"/><path class="cls-1" d="M33.93,34.75s.31-.12.31-.28-.31-.35-.31-.35c-.31,0-.31.17-.31.35s0,.28.31.28"/><path class="cls-4" d="M33.93,34.75s.31-.12.31-.29-.31-.33-.31-.33c-.31,0-.31.16-.31.33S33.62,34.75,33.93,34.75Z"/><path class="cls-6" d="M35.18,34.4s.31-.16.31-.33-.31-.34-.31-.34c-.32,0-.32.17-.32.34s0,.33.32.33"/><path class="cls-4" d="M35.17,34.41s.32-.17.32-.34-.32-.34-.32-.34c-.31,0-.31.17-.31.34S34.86,34.41,35.17,34.41Z"/><path class="cls-6" d="M38.57,34c.3,0,.3-.17.3-.33s0-.28-.3-.28-.31.11-.31.28,0,.33.31.33"/><path class="cls-4" d="M38.57,34c.3,0,.3-.17.3-.33s0-.28-.3-.28-.31.11-.31.28S38.26,34,38.57,34Z"/><path class="cls-12" d="M36.41,34.18s-.31-.11-.31-.28.31-.34.31-.34a4.72,4.72,0,0,0,.92-.11c.31,0,.31.17.31.34s0,.28-.31.28-.61,0-.92.11"/><path class="cls-4" d="M36.41,34.18s-.31-.11-.31-.28.31-.34.31-.34a4.72,4.72,0,0,0,.92-.11c.31,0,.31.17.31.34s0,.28-.31.28S36.72,34.13,36.41,34.18Z"/><path class="cls-1" d="M46.59,34.75c-.31,0-.31-.12-.31-.28s0-.35.31-.35c0,0,.31.17.31.35s-.31.28-.31.28"/><path class="cls-4" d="M46.59,34.75c-.31,0-.31-.12-.31-.29s0-.33.31-.33c0,0,.31.16.31.33S46.59,34.75,46.59,34.75Z"/><path class="cls-6" d="M45.05,34.4s-.31-.16-.31-.33.31-.34.31-.34c.3,0,.3.17.3.34s0,.33-.3.33"/><path class="cls-4" d="M45.05,34.41s-.31-.17-.31-.34.31-.34.31-.34c.3,0,.3.17.3.34S45.35,34.41,45.05,34.41Z"/><path class="cls-6" d="M41.65,34s-.31-.17-.31-.33.31-.28.31-.28c.3,0,.3.11.3.28s0,.33-.3.33"/><path class="cls-4" d="M41.65,34s-.31-.17-.31-.33.31-.28.31-.28c.3,0,.3.11.3.28S42,34,41.65,34Z"/><path class="cls-12" d="M43.82,34.18c.3,0,.3-.11.3-.28s0-.34-.3-.34a4.92,4.92,0,0,1-.93-.11c-.32,0-.32.17-.32.34s0,.28.32.28.62,0,.93.11"/><path class="cls-4" d="M43.82,34.18c.3,0,.3-.11.3-.28s0-.34-.3-.34a5.12,5.12,0,0,1-.94-.11c-.31,0-.31.17-.31.34s0,.28.31.28S43.51,34.13,43.82,34.18Z"/><path class="cls-1" d="M40.11,34h.61c.31,0,.31-.17.31-.34s0-.28-.31-.28H39.49s-.31.11-.31.28.31.34.31.34h.62"/><path class="cls-4" d="M40.11,34h.61c.31,0,.31-.17.31-.34s0-.28-.31-.28H39.49s-.31.11-.31.28.31.34.31.34Z"/><path class="cls-6" d="M40.72,29.06c0-.39.62-.72.62-.84A9.19,9.19,0,0,1,41,27c0-.5,0-2.35-.92-2.35-.62,0-.62,1.85-.62,2.35a9.19,9.19,0,0,1-.31,1.24c0,.12.62.45.62.84h.92"/><path class="cls-4" d="M40.72,29.07c0-.4.62-.74.62-.85A9.19,9.19,0,0,1,41,27c0-.5,0-2.36-.92-2.36-.62,0-.62,1.86-.62,2.36a9.19,9.19,0,0,1-.31,1.24c0,.11.62.45.62.85Z"/><path class="cls-6" d="M40.41,28.78c.31-.34.31-.5.62-.67a4.15,4.15,0,0,1-.31-1.8c0-.28-.31-1.18-.61-1.18s-.31.9-.31,1.18a4.15,4.15,0,0,1-.31,1.8c.31.17.31.33.62.67h.3"/><path class="cls-4" d="M40.41,28.79c.31-.34.31-.51.62-.68a4.15,4.15,0,0,1-.31-1.8c0-.28-.31-1.18-.61-1.18s-.31.9-.31,1.18a4.15,4.15,0,0,1-.31,1.8c.31.17.31.34.62.68Z"/><path class="cls-6" d="M40.41,25.81V25.3c-.3,0-.3.11-.3.28s0,.23.3.23"/><path class="cls-4" d="M40.41,25.81V25.3c-.3,0-.3.11-.3.28S40.11,25.81,40.41,25.81Z"/><path class="cls-6" d="M40.41,26.37v-.45c-.3,0-.3.11-.3.22s0,.23.3.23"/><path class="cls-4" d="M40.41,26.37v-.45c-.3,0-.3.11-.3.22S40.11,26.37,40.41,26.37Z"/><path class="cls-6" d="M40.41,27v-.5c-.3,0-.3.11-.3.22s0,.28.3.28"/><path class="cls-4" d="M40.41,27v-.5c-.3,0-.3.11-.3.22S40.11,27,40.41,27Z"/><path class="cls-6" d="M39.8,27.44c0-.23.31-.4.61-.4,0,0,.31.17.31.4s-.31.39-.31.39c-.3,0-.61-.17-.61-.39"/><path class="cls-4" d="M39.8,27.44c0-.23.31-.4.61-.4,0,0,.31.17.31.4s-.31.39-.31.39C40.11,27.83,39.8,27.66,39.8,27.44Z"/><path class="cls-6" d="M40.41,28.84a.48.48,0,0,0,0-.9c-.3,0-.61.17-.61.45s.31.45.61.45"/><path class="cls-4" d="M40.41,28.84a.48.48,0,0,0,0-.9c-.3,0-.61.17-.61.45S40.11,28.84,40.41,28.84Z"/><path class="cls-6" d="M40.11,32.05c.3.89,1.54.61,2.15.22.63.95,1.56.45,2.17.11.31,1,1.54.79,1.85.68.62.73,1.54.45,2.15-.45s.93-1.3,1.85-1.41a3.23,3.23,0,0,1-.61-.79c-.31.23-.31.23-.62.23,0-.06-.62-.06-.62.56a.76.76,0,0,0-.92-.22l.31.22a1.33,1.33,0,0,0-.92.06c0,.17.3.5.3.61v.07c0,.16.62.33.93.28-.31.33-.93.89-1.23.67-.62-.23-.31-.56-.31-.79a1.31,1.31,0,0,1-1.54.45c-.62-.28-.62-.79-.31-.9,0-.17.61-.17.92.17-.31-.17,0-.51.31-.44s.62-.23,0-.4c-.31-.23-.31-.34,0-.45-.31-.12-.31-.06-.62,0s-.3,0-.3-.23c.3-.22.3-.5.61-.73-.31.12-.31,0-.31-.28s-.3-.34-.61-.11a.37.37,0,0,1-.62.22v.79c-.3-.17-.61-.11-.61-.06v.34a.77.77,0,0,0-.94.17c.32.11.63.34.63.45l-.31.39a4.6,4.6,0,0,1,1.23.06,1.19,1.19,0,0,1-1.23.79,1.29,1.29,0,0,1-.63-1c-.31.4-.92.91-1.23.85A1.18,1.18,0,0,1,40.11,31a3.61,3.61,0,0,1,1.54.22c-.31-.17,0-.51.3-.56,0-.06.31-.34-.3-.39-.31-.06-.31-.34-.31-.51s-.31.11-.62.23-.31-.17,0-.4V29s-.31.17-.31-.28c0-.23-.3-.29-.3-.29s-.31.06-.31.29-.31.33-.31.28a.58.58,0,0,0,.31.56c0,.23,0,.45-.31.4,0-.12-.31-.28-.62-.23,0,.17,0,.45-.3.51-.62.05-.31.33-.31.39.31.05.61.39.31.56A3.56,3.56,0,0,1,40.11,31a1.19,1.19,0,0,1-.93,1.18c-.31.06-.92-.45-1.23-.85a1.31,1.31,0,0,1-.62,1,1.2,1.2,0,0,1-1.23-.79,4.64,4.64,0,0,1,1.23-.06l-.3-.39c0-.11.3-.34.61-.45a.74.74,0,0,0-.92-.17v-.34c0-.05-.31-.11-.62.06,0-.28.31-.56,0-.79a.36.36,0,0,1-.61-.22c-.31-.23-.31-.23-.31.11s-.32.4-.63.28c.31.23.31.51.63.73,0,.28,0,.28-.32.23,0-.06-.31-.12-.62,0,.31.11.31.22,0,.45-.62.17-.31.45,0,.4s.62.27.31.44a1.13,1.13,0,0,1,1.24-.17,1,1,0,0,1-.61.9c-.32.34-1.25-.12-1.56-.45,0,.23.31.56-.3.79-.31.22-.93-.34-1.23-.67.61.05.92-.12.92-.28v-.07c0-.11.31-.44.31-.61a1.36,1.36,0,0,0-.93-.06L32.7,31c-.31-.17-.61-.06-.92.22,0-.62-.62-.62-.62-.56-.31,0-.31,0-.62-.23a3.23,3.23,0,0,1-.61.79c.92.11,1.23.51,1.85,1.41s1.54,1.18,2.15.45c.31.11,1.56.34,1.86-.68.62.34,1.54.84,2.16-.11.62.39,1.85.67,2.16-.22"/><path class="cls-4" d="M40.11,32.05c.3.89,1.54.61,2.15.22.62.95,1.56.45,2.17.11.31,1,1.54.79,1.85.68.62.73,1.54.45,2.15-.45s.93-1.3,1.85-1.41a3.36,3.36,0,0,1-.61-.78c-.31.22-.31.22-.62.22,0-.06-.62-.06-.62.56a.76.76,0,0,0-.92-.22l.31.22a1.33,1.33,0,0,0-.92.06c0,.17.3.5.3.61v.06c0,.17.62.34.93.28-.31.34-.93.9-1.23.68-.62-.23-.31-.56-.31-.79a1.3,1.3,0,0,1-1.54.45c-.62-.28-.62-.79-.31-.9,0-.17.61-.17.92.17-.31-.17,0-.51.31-.45s.62-.22,0-.39c-.31-.23-.31-.34,0-.45-.31-.11-.31-.06-.62,0s-.3,0-.3-.23c.3-.22.3-.5.61-.73-.31.11-.31,0-.31-.28s-.3-.34-.61-.11a.37.37,0,0,1-.62.22v.79c-.3-.17-.61-.11-.61-.05v.33a.77.77,0,0,0-.94.17c.31.11.63.34.63.45l-.32.39a4.66,4.66,0,0,1,1.24.06,1.18,1.18,0,0,1-1.24.79,1.32,1.32,0,0,1-.62-1c-.31.4-.92.9-1.23.85A1.18,1.18,0,0,1,40.11,31a3.61,3.61,0,0,1,1.54.22c-.31-.17,0-.5.3-.56,0-.06.31-.34-.3-.39-.31-.06-.31-.34-.31-.51s-.31.11-.62.22-.31-.16,0-.39V29c0,.06-.31.17-.31-.28,0-.23-.3-.28-.3-.28s-.31.05-.31.28-.31.34-.31.28a.58.58,0,0,0,.31.56c0,.23,0,.45-.31.39,0-.11-.31-.28-.62-.22,0,.17,0,.45-.3.51-.62.05-.31.33-.31.39.31.06.61.39.31.56A3.56,3.56,0,0,1,40.11,31a1.19,1.19,0,0,1-.93,1.18c-.31.05-.92-.45-1.23-.85a1.32,1.32,0,0,1-.62,1,1.19,1.19,0,0,1-1.23-.79,4.64,4.64,0,0,1,1.23-.06l-.3-.39c0-.11.3-.34.61-.45a.74.74,0,0,0-.92-.17v-.33c0-.06-.31-.12-.62.05,0-.28.31-.56,0-.79a.36.36,0,0,1-.61-.22c-.32-.23-.32-.23-.32.11s-.31.39-.62.28c.31.23.31.51.62.73,0,.28,0,.28-.31.23,0-.06-.31-.11-.62,0,.31.11.31.22,0,.45-.62.17-.31.45,0,.39s.62.28.31.45a1.13,1.13,0,0,1,1.24-.17,1,1,0,0,1-.62.9c-.31.34-1.24-.11-1.55-.45,0,.23.31.56-.3.79-.31.22-.93-.34-1.23-.68.61.06.92-.11.92-.28v-.06c0-.11.31-.44.31-.61a1.36,1.36,0,0,0-.93-.06L32.7,31c-.31-.17-.61-.06-.92.22,0-.62-.62-.62-.62-.56-.31,0-.31,0-.62-.22a3.36,3.36,0,0,1-.61.78c.92.11,1.23.51,1.85,1.41s1.54,1.18,2.15.45c.31.11,1.56.34,1.86-.68.62.34,1.54.84,2.16-.11.62.39,1.85.67,2.16-.22"/><path class="cls-1" d="M31.47,32.43c.31,0,.31-.21.31-.38s0-.4-.31-.4-.31.17-.31.4,0,.38.31.38"/><path class="cls-4" d="M31.47,32.44c.31,0,.31-.23.31-.39s0-.4-.31-.4-.31.17-.31.4S31.16,32.44,31.47,32.44Z"/><path class="cls-1" d="M35.79,31.48c.31,0,.31-.22.31-.5s0-.51-.31-.51a.51.51,0,1,0,0,1"/><path class="cls-4" d="M35.79,31.48c.31,0,.31-.22.31-.5s0-.51-.31-.51a.6.6,0,0,0-.62.51C35.17,31.26,35.49,31.48,35.79,31.48Z"/><path class="cls-1" d="M39.8,30.41c0-.28,0-.5.31-.5a.59.59,0,0,1,.61.5.59.59,0,0,1-.61.51c-.31,0-.31-.23-.31-.51"/><path class="cls-4" d="M39.8,30.42c0-.28,0-.51.31-.51a.59.59,0,0,1,.61.51.59.59,0,0,1-.61.5C39.8,30.92,39.8,30.7,39.8,30.42Z"/><path class="cls-6" d="M33.32,32.1c0-.16.3-.34.3-.34.31,0,.31.18.31.34s0,.33-.31.33c0,0-.3-.16-.3-.33"/><path class="cls-4" d="M33.32,32.1c0-.17.3-.34.3-.34.31,0,.31.17.31.34s0,.34-.31.34C33.62,32.44,33.32,32.27,33.32,32.1Z"/><path class="cls-6" d="M37.64,31.31c0-.16.31-.33.31-.33.31,0,.31.17.31.33s0,.34-.31.34c0,0-.31-.17-.31-.34"/><path class="cls-4" d="M37.64,31.31c0-.16.31-.33.31-.33.31,0,.31.17.31.33s0,.34-.31.34C38,31.65,37.64,31.48,37.64,31.31Z"/><path class="cls-1" d="M48.74,32.43c-.31,0-.31-.21-.31-.38s0-.4.31-.4.31.17.31.4,0,.38-.31.38"/><path class="cls-4" d="M48.74,32.44c-.31,0-.31-.23-.31-.39s0-.4.31-.4.31.17.31.4S49.05,32.44,48.74,32.44Z"/><path class="cls-1" d="M44.43,31.48c-.31,0-.31-.22-.31-.5s0-.51.31-.51a.52.52,0,1,1,0,1"/><path class="cls-4" d="M44.43,31.48c-.31,0-.31-.22-.31-.5s0-.51.31-.51a.6.6,0,0,1,.62.51A.59.59,0,0,1,44.43,31.48Z"/><path class="cls-6" d="M46.59,32.43c-.31,0-.31-.16-.31-.33s0-.34.31-.34c0,0,.31.18.31.34s-.31.33-.31.33"/><path class="cls-4" d="M46.59,32.44c-.31,0-.31-.17-.31-.34s0-.34.31-.34c0,0,.31.17.31.34S46.59,32.44,46.59,32.44Z"/><path class="cls-6" d="M42,31.31c0-.16,0-.33.31-.33,0,0,.31.17.31.33s-.31.34-.31.34c-.31,0-.31-.17-.31-.34"/><path class="cls-4" d="M42,31.31c0-.16,0-.33.31-.33,0,0,.31.17.31.33s-.31.34-.31.34C42,31.65,42,31.48,42,31.31Z"/><polyline class="cls-6" points="54.92 33.79 54.92 33.56 55.22 33.79 54.92 33.96 54.92 33.79"/><polygon class="cls-4" points="54.92 33.79 54.92 33.56 55.22 33.79 54.92 33.96 54.92 33.79"/><polyline class="cls-6" points="54.92 33.22 54.92 33.34 54.92 33.45 54.92 33.73 54.92 33.84 55.22 33.84 55.22 33.73 55.22 33.45 55.22 33.34 55.22 33.22 54.92 33.22"/><polygon class="cls-4" points="54.92 33.22 54.92 33.34 54.92 33.45 54.92 33.73 54.92 33.84 55.22 33.84 55.22 33.73 55.22 33.45 55.22 33.34 55.22 33.22 54.92 33.22"/><path class="cls-1" d="M56.46,36c.61-.22.92-.62.61-1.12a.79.79,0,0,0-.92-.11,2.24,2.24,0,0,0-1.23-.23,1.78,1.78,0,0,0-.93.23.75.75,0,0,0-.92.16c-.31.45,0,.85.61,1.07h2.78"/><path class="cls-4" d="M56.46,36c.61-.22.92-.62.61-1.12a.81.81,0,0,0-.92-.11,2.24,2.24,0,0,0-1.23-.23,1.78,1.78,0,0,0-.93.23.76.76,0,0,0-.92.16c-.31.45,0,.85.61,1.07Z"/><polygon class="cls-6" points="53.07 34.24 53.07 34.24 53.07 34.12 53.07 34.24"/><polygon class="cls-4" points="53.07 34.24 53.07 34.24 53.07 34.13 53.07 34.24"/><path class="cls-6" d="M53.07,35c-.31-.12-.31-.28,0-.51,0-.17.61-.28.61-.23l.31,0a1.07,1.07,0,0,0-1.23.44c0,.23,0,.57.31.63V35"/><path class="cls-4" d="M53.07,35c-.31-.12-.31-.28,0-.51,0-.17.61-.28.61-.23l.31,0a1.08,1.08,0,0,0-1.23.45c0,.22,0,.56.31.62Z"/><polygon class="cls-6" points="52.76 35.31 52.76 35.31 52.76 35.19 52.76 35.31"/><polygon class="cls-4" points="52.76 35.31 52.76 35.31 52.76 35.19 52.76 35.31"/><polygon class="cls-6" points="52.76 35.19 52.76 35.19 52.76 35.08 52.76 35.19"/><polygon class="cls-4" points="52.76 35.19 52.76 35.19 52.76 35.08 52.76 35.19"/><polygon class="cls-6" points="52.76 35.03 52.76 35.03 52.76 34.91 52.76 35.03"/><polygon class="cls-4" points="52.76 35.02 52.76 35.02 52.76 34.91 52.76 35.02"/><polygon class="cls-6" points="52.45 34.91 52.45 34.91 52.45 34.8 52.45 34.91"/><polygon class="cls-4" points="52.45 34.91 52.45 34.91 52.45 34.8 52.45 34.91"/><polygon class="cls-6" points="52.76 34.75 52.76 34.75 52.76 34.63 52.76 34.75"/><polygon class="cls-4" points="52.76 34.75 52.76 34.75 52.76 34.63 52.76 34.75"/><polyline class="cls-6" points="52.76 34.57 52.76 34.52 52.76 34.47 52.76 34.52 52.76 34.57"/><polygon class="cls-4" points="52.76 34.57 52.76 34.52 52.76 34.46 52.76 34.52 52.76 34.57"/><polygon class="cls-6" points="52.76 34.47 52.76 34.47 52.76 34.35 52.76 34.47"/><polygon class="cls-4" points="52.76 34.46 52.76 34.46 52.76 34.35 52.76 34.46"/><polygon class="cls-6" points="52.76 34.35 52.76 34.35 52.76 34.24 52.76 34.35"/><polygon class="cls-4" points="52.76 34.35 52.76 34.35 52.76 34.24 52.76 34.35"/><polyline class="cls-6" points="53.07 34.29 53.07 34.24 53.07 34.19 53.07 34.24 53.07 34.29"/><polygon class="cls-4" points="53.07 34.29 53.07 34.24 53.07 34.18 53.07 34.24 53.07 34.29"/><polygon class="cls-6" points="53.38 34.19 53.38 34.19 53.38 34.07 53.38 34.19"/><polygon class="cls-4" points="53.38 34.18 53.38 34.18 53.38 34.07 53.38 34.18"/><polygon class="cls-6" points="53.38 34.19 53.38 34.19 53.38 34.07 53.38 34.19"/><polygon class="cls-4" points="53.38 34.18 53.38 34.18 53.38 34.07 53.38 34.18"/><polygon class="cls-6" points="53.68 34.19 53.68 34.19 53.68 34.07 53.68 34.19"/><polygon class="cls-4" points="53.68 34.18 53.68 34.18 53.68 34.07 53.68 34.18"/><path class="cls-6" d="M54.92,34.24a1.15,1.15,0,0,0-.93-.06c0,.17-.31.39,0,.62V35c0-.12-.31-.46,0-.79,0-.17.31-.4.93-.12v.12"/><path class="cls-4" d="M54.92,34.24a1.15,1.15,0,0,0-.93-.06c0,.17-.31.39,0,.62V35c0-.12-.31-.46,0-.79,0-.17.31-.4.93-.11Z"/><polyline class="cls-6" points="53.99 34.91 53.99 34.85 53.99 34.8 53.68 34.85 53.99 34.91"/><polygon class="cls-4" points="53.99 34.91 53.99 34.85 53.99 34.8 53.68 34.85 53.99 34.91"/><polygon class="cls-6" points="53.68 34.8 53.68 34.8 53.68 34.68 53.68 34.8"/><polygon class="cls-4" points="53.68 34.8 53.68 34.8 53.68 34.69 53.68 34.8"/><polyline class="cls-6" points="53.68 34.68 53.68 34.63 53.68 34.52 53.68 34.63 53.68 34.68"/><polygon class="cls-4" points="53.68 34.69 53.68 34.63 53.68 34.52 53.68 34.63 53.68 34.69"/><polygon class="cls-6" points="53.68 34.52 53.68 34.52 53.68 34.4 53.68 34.52"/><polygon class="cls-4" points="53.68 34.52 53.68 34.52 53.68 34.41 53.68 34.52"/><polygon class="cls-6" points="53.68 34.35 53.68 34.35 53.68 34.24 53.68 34.35"/><polygon class="cls-4" points="53.68 34.35 53.68 34.35 53.68 34.24 53.68 34.35"/><polyline class="cls-6" points="53.99 34.24 53.99 34.19 53.99 34.12 53.99 34.19 53.99 34.24"/><polygon class="cls-4" points="53.99 34.24 53.99 34.18 53.99 34.13 53.99 34.18 53.99 34.24"/><polygon class="cls-6" points="53.99 34.19 53.99 34.19 53.99 34.07 53.99 34.19"/><polygon class="cls-4" points="53.99 34.18 53.99 34.18 53.99 34.07 53.99 34.18"/><polygon class="cls-6" points="53.99 34.07 53.99 34.07 53.99 33.96 53.99 34.07"/><polygon class="cls-4" points="53.99 34.07 53.99 34.07 53.99 33.96 53.99 34.07"/><polygon class="cls-6" points="54.3 34.07 54.3 34.07 54.3 33.96 54.3 34.07"/><polygon class="cls-4" points="54.3 34.07 54.3 34.07 54.3 33.96 54.3 34.07"/><polygon class="cls-6" points="54.3 34.01 54.3 34.01 54.3 33.91 54.3 34.01"/><polygon class="cls-4" points="54.3 34.01 54.3 34.01 54.3 33.9 54.3 34.01"/><polygon class="cls-6" points="54.61 34.07 54.61 34.07 54.61 33.96 54.61 34.07"/><polygon class="cls-4" points="54.61 34.07 54.61 34.07 54.61 33.96 54.61 34.07"/><polyline class="cls-6" points="54.61 34.07 54.92 34.01 54.61 33.96 54.61 34.01 54.61 34.07"/><polygon class="cls-4" points="54.61 34.07 54.92 34.01 54.61 33.96 54.61 34.01 54.61 34.07"/><polygon class="cls-6" points="54.92 34.12 54.92 34.12 54.92 34.01 54.92 34.12"/><polygon class="cls-4" points="54.92 34.13 54.92 34.13 54.92 34.01 54.92 34.13"/><path class="cls-6" d="M57.07,35v-.51a1.44,1.44,0,0,0-.92-.23v0a1.07,1.07,0,0,1,1.23.44c0,.23,0,.57-.31.63V35"/><path class="cls-4" d="M57.07,35v-.51a1.44,1.44,0,0,0-.92-.23v0a1.08,1.08,0,0,1,1.23.45c0,.22,0,.56-.31.62Z"/><polygon class="cls-6" points="57.07 35.31 57.07 35.31 57.07 35.19 57.07 35.31"/><polygon class="cls-4" points="57.07 35.31 57.07 35.31 57.07 35.19 57.07 35.31"/><polygon class="cls-6" points="57.38 35.19 57.38 35.19 57.38 35.08 57.38 35.19"/><polygon class="cls-4" points="57.38 35.19 57.38 35.19 57.38 35.08 57.38 35.19"/><polygon class="cls-6" points="57.38 35.03 57.38 35.03 57.38 34.91 57.38 35.03"/><polygon class="cls-4" points="57.38 35.02 57.38 35.02 57.38 34.91 57.38 35.02"/><polygon class="cls-6" points="57.38 34.91 57.38 34.91 57.38 34.8 57.38 34.91"/><polygon class="cls-4" points="57.38 34.91 57.38 34.91 57.38 34.8 57.38 34.91"/><polygon class="cls-6" points="57.38 34.75 57.38 34.75 57.38 34.63 57.38 34.75"/><polygon class="cls-4" points="57.38 34.75 57.38 34.75 57.38 34.63 57.38 34.75"/><polyline class="cls-6" points="57.38 34.57 57.07 34.52 57.38 34.47 57.38 34.52 57.38 34.57"/><polygon class="cls-4" points="57.38 34.57 57.07 34.52 57.38 34.46 57.38 34.52 57.38 34.57"/><polyline class="cls-6" points="57.07 34.47 57.07 34.4 57.07 34.35 57.38 34.4 57.07 34.47"/><polygon class="cls-4" points="57.07 34.46 57.07 34.41 57.07 34.35 57.38 34.41 57.07 34.46"/><polygon class="cls-6" points="57.07 34.35 57.07 34.35 57.07 34.24 57.07 34.35"/><polygon class="cls-4" points="57.07 34.35 57.07 34.35 57.07 34.24 57.07 34.35"/><polygon class="cls-6" points="56.76 34.29 56.76 34.29 56.76 34.19 56.76 34.29"/><polygon class="cls-4" points="56.76 34.29 56.76 34.29 56.76 34.18 56.76 34.29"/><polygon class="cls-6" points="56.46 34.19 56.46 34.19 56.46 34.07 56.46 34.19"/><polygon class="cls-4" points="56.46 34.18 56.46 34.18 56.46 34.07 56.46 34.18"/><polygon class="cls-6" points="56.46 34.19 56.46 34.19 56.46 34.07 56.46 34.19"/><polygon class="cls-4" points="56.46 34.18 56.46 34.18 56.46 34.07 56.46 34.18"/><polyline class="cls-6" points="56.46 34.19 56.15 34.12 56.46 34.07 56.46 34.12 56.46 34.19"/><polygon class="cls-4" points="56.46 34.18 56.15 34.13 56.46 34.07 56.46 34.13 56.46 34.18"/><path class="cls-6" d="M55.22,34.24a.5.5,0,0,1,.62-.06c.31.17.31.39,0,.62l.31.23c0-.12.31-.46,0-.79,0-.17-.62-.4-1.23-.12l.3.12"/><path class="cls-4" d="M55.22,34.24a.5.5,0,0,1,.62-.06c.31.17.31.39,0,.62l.31.23c0-.12.31-.46,0-.79,0-.17-.62-.4-1.23-.11Z"/><polygon class="cls-6" points="56.15 34.91 56.15 34.91 56.15 34.8 56.15 34.91"/><polygon class="cls-4" points="56.15 34.91 56.15 34.91 56.15 34.8 56.15 34.91"/><polygon class="cls-6" points="56.15 34.8 56.15 34.8 56.15 34.68 56.15 34.8"/><polygon class="cls-4" points="56.15 34.8 56.15 34.8 56.15 34.69 56.15 34.8"/><polyline class="cls-6" points="56.15 34.68 56.15 34.63 56.15 34.52 56.46 34.63 56.15 34.68"/><polygon class="cls-4" points="56.15 34.69 56.15 34.63 56.15 34.52 56.46 34.63 56.15 34.69"/><polygon class="cls-6" points="56.15 34.52 56.15 34.52 56.15 34.4 56.15 34.52"/><polygon class="cls-4" points="56.15 34.52 56.15 34.52 56.15 34.41 56.15 34.52"/><polygon class="cls-6" points="56.15 34.35 56.15 34.35 56.15 34.24 56.15 34.35"/><polygon class="cls-4" points="56.15 34.35 56.15 34.35 56.15 34.24 56.15 34.35"/><polygon class="cls-6" points="56.15 34.24 56.15 34.24 56.15 34.12 56.15 34.24"/><polygon class="cls-4" points="56.15 34.24 56.15 34.24 56.15 34.13 56.15 34.24"/><polygon class="cls-6" points="55.84 34.19 55.84 34.19 55.84 34.07 55.84 34.19"/><polygon class="cls-4" points="55.84 34.18 55.84 34.18 55.84 34.07 55.84 34.18"/><polygon class="cls-6" points="55.84 34.07 55.84 34.07 55.84 33.96 55.84 34.07"/><polygon class="cls-4" points="55.84 34.07 55.84 34.07 55.84 33.96 55.84 34.07"/><polygon class="cls-6" points="55.84 34.07 55.84 34.07 55.84 33.96 55.84 34.07"/><polygon class="cls-4" points="55.84 34.07 55.84 34.07 55.84 33.96 55.84 34.07"/><polygon class="cls-6" points="55.53 34.01 55.53 34.01 55.53 33.91 55.53 34.01"/><polygon class="cls-4" points="55.53 34.01 55.53 34.01 55.53 33.9 55.53 34.01"/><polyline class="cls-6" points="55.53 34.07 55.53 34.01 55.53 33.96 55.53 34.01 55.53 34.07"/><polygon class="cls-4" points="55.53 34.07 55.53 34.01 55.53 33.96 55.53 34.01 55.53 34.07"/><polygon class="cls-6" points="55.22 34.07 55.22 34.07 55.22 33.96 55.22 34.07"/><polygon class="cls-4" points="55.22 34.07 55.22 34.07 55.22 33.96 55.22 34.07"/><polygon class="cls-6" points="55.22 34.12 55.22 34.12 55.22 34.01 55.22 34.12"/><polygon class="cls-4" points="55.22 34.13 55.22 34.13 55.22 34.01 55.22 34.13"/><path class="cls-6" d="M56.46,36v.34H53.68V36a3.32,3.32,0,0,1,1.24-.17,7.41,7.41,0,0,1,1.54.17"/><path class="cls-4" d="M56.46,36v.34H53.68V36a3.32,3.32,0,0,1,1.24-.17A7.41,7.41,0,0,1,56.46,36Z"/><path class="cls-6" d="M54.92,36.54c.92,0,1.54-.11,1.54-.22s-.62-.17-1.54-.17c-.62,0-1.24.06-1.24.17s.62.22,1.24.22"/><path class="cls-4" d="M54.92,36.54c.92,0,1.54-.11,1.54-.22s-.62-.17-1.54-.17c-.62,0-1.24.05-1.24.17S54.3,36.54,54.92,36.54Z"/><path class="cls-1" d="M53.68,36.32a3.92,3.92,0,0,1,1.24-.11c.92,0,1.23,0,1.23.11s-.31.17-1.23.17c-.62,0-1.24-.06-1.24-.17"/><path class="cls-6" d="M54.92,35.81a5.21,5.21,0,0,1,1.54.23v-.11a5.19,5.19,0,0,0-1.54-.17,6.67,6.67,0,0,0-1.54.17V36a7.35,7.35,0,0,1,1.54-.23"/><path class="cls-4" d="M54.92,35.81a4.9,4.9,0,0,1,1.54.23v-.12a5.61,5.61,0,0,0-1.54-.16,7.26,7.26,0,0,0-1.54.16V36A6.75,6.75,0,0,1,54.92,35.81Z"/><polyline class="cls-1" points="53.68 36.21 53.68 36.15 53.68 36.09 53.68 36.15 53.68 36.21"/><polyline class="cls-6" points="53.99 36.15 53.99 36.09 53.99 35.98 53.68 36.09 53.99 36.15"/><polyline class="cls-6" points="54.61 36.04 54.61 35.98 54.61 35.93 54.61 35.98 54.61 36.04"/><polyline class="cls-12" points="54.3 36.09 53.99 36.04 54.3 35.93 54.61 35.98 54.3 36.09"/><polyline class="cls-1" points="56.46 36.21 56.46 36.15 56.46 36.09 56.46 36.15 56.46 36.21"/><polygon class="cls-6" points="56.15 36.15 56.15 36.15 56.15 35.98 56.15 36.15"/><polygon class="cls-6" points="55.22 36.04 55.22 36.04 55.22 35.87 55.22 36.04"/><polyline class="cls-12" points="55.84 36.09 55.84 36.04 55.84 35.93 55.53 35.93 55.53 35.98 55.53 36.09 55.84 36.09"/><polyline class="cls-1" points="54.92 36.04 55.22 36.04 55.22 35.98 55.22 35.87 54.92 35.87 54.92 35.98 54.92 36.04"/><path class="cls-6" d="M55.22,35v-.5c0-.12,0-.51-.3-.51v1h.3"/><path class="cls-4" d="M55.22,35v-.51c0-.11,0-.5-.3-.5v1Z"/><path class="cls-6" d="M55.22,34.86v-.51l-.3-.28v.79h.3"/><path class="cls-4" d="M55.22,34.86v-.51l-.3-.28v.79Z"/><polygon class="cls-6" points="54.92 34.19 54.92 34.19 54.92 34.07 54.92 34.19"/><polygon class="cls-4" points="54.92 34.18 54.92 34.18 54.92 34.07 54.92 34.18"/><polygon class="cls-6" points="54.92 34.35 54.92 34.35 54.92 34.24 54.92 34.35"/><polygon class="cls-4" points="54.92 34.35 54.92 34.35 54.92 34.24 54.92 34.35"/><polygon class="cls-6" points="54.92 34.47 54.92 34.47 54.92 34.35 54.92 34.47"/><polygon class="cls-4" points="54.92 34.46 54.92 34.46 54.92 34.35 54.92 34.46"/><polyline class="cls-6" points="54.92 34.63 55.22 34.57 54.92 34.47 54.92 34.57 54.92 34.63"/><polygon class="cls-4" points="54.92 34.63 55.22 34.57 54.92 34.46 54.92 34.57 54.92 34.63"/><rect class="cls-6" x="54.92" y="34.69" width="0.31" height="0.22"/><rect class="cls-4" x="54.92" y="34.69" width="0.31" height="0.22"/><path class="cls-6" d="M54.92,35.59c.3.22.3.17.61.06,0,.22.31.11.31.05.31.23.62.17.62.11,0,.17.3.12.3-.05.31-.23.31-.34.62-.34l-.31-.17v.06s-.31,0-.31.11v0h-.3l.3.17h-.3l.3.06-.3.16v-.16l-.31.05v-.11l.31-.12v-.11l-.31-.11V35l-.31.06v.22l-.31.06.31.11-.31,0h.31l-.31.18v-.18l-.31.18s-.3-.12-.3-.29l.3.06.31-.11v-.12l-.31-.11v-.17l-.3,0v.27l-.31-.05v.34l.31-.06v.29l-.31-.18-.31.18L54,35.47h.31v0l.31-.11-.31-.06v-.06H54V35l-.31.06.31.16-.31.06v.34l.31-.06v.17l-.31-.05-.3.16v-.45l-.31.06v-.11l-.31-.06v.17s.31.11.31.34c.31.17.31.22.61.05,0,.06.31.12.31-.11.31.06.31.17.62-.05,0,.11.31.16.31-.06"/><path class="cls-4" d="M54.92,35.59c.3.22.3.17.61,0,0,.23.31.12.31.06.31.22.62.17.62.11,0,.17.3.11.3-.05.31-.23.31-.34.62-.34l-.31-.17v.06s-.31,0-.31.11v0h-.3l.3.17h-.3l.3,0-.3.17v-.17l-.31.06v-.11l.31-.12v-.11l-.31-.11V35l-.31.06v.22l-.31.06.31.11-.31,0h.31l-.31.17v-.17l-.31.17s-.3-.11-.3-.28l.3.06.31-.11v-.12l-.31-.11v-.17l-.3,0v.27l-.31-.05v.34l.31-.06v.28l-.31-.17-.31.17L54,35.47h.31v0l.31-.11-.31-.06v-.06H54V35l-.31.06.31.16-.31.06v.34l.31-.06v.17l-.31-.06-.3.17v-.45l-.31.06v-.11l-.31-.06v.17s.31.11.31.34c.31.16.31.22.61.05,0,.06.31.11.31-.11.31.06.31.17.62-.06,0,.12.31.17.31,0"/><polyline class="cls-1" points="53.07 35.7 53.07 35.59 53.07 35.53 53.07 35.59 53.07 35.7"/><polyline class="cls-1" points="53.99 35.47 53.99 35.37 53.99 35.24 53.99 35.37 53.99 35.47"/><rect class="cls-1" x="54.92" y="35.14" width="0.31" height="0.23"/><polygon class="cls-6" points="53.38 35.7 53.38 35.7 53.38 35.59 53.38 35.7"/><polygon class="cls-4" points="53.38 35.7 53.38 35.7 53.38 35.59 53.38 35.7"/><polyline class="cls-6" points="54.61 35.53 54.61 35.42 54.61 35.37 54.61 35.42 54.61 35.53"/><polygon class="cls-4" points="54.61 35.53 54.61 35.42 54.61 35.37 54.61 35.42 54.61 35.53"/><rect class="cls-1" x="56.76" y="35.53" width="0.31" height="0.17"/><rect class="cls-4" x="56.76" y="35.53" width="0.31" height="0.17"/><polyline class="cls-1" points="56.15 35.47 55.84 35.37 56.15 35.24 56.15 35.37 56.15 35.47"/><polygon class="cls-6" points="56.46 35.7 56.46 35.7 56.46 35.59 56.46 35.7"/><polygon class="cls-4" points="56.46 35.7 56.46 35.7 56.46 35.59 56.46 35.7"/><polyline class="cls-6" points="55.53 35.53 55.53 35.42 55.53 35.37 55.53 35.42 55.53 35.53"/><polygon class="cls-4" points="55.53 35.53 55.53 35.42 55.53 35.37 55.53 35.42 55.53 35.53"/><path class="cls-6" d="M40.11,55c0,2.74-2.16,5.45-4.93,5.45a3.55,3.55,0,0,1-1.56-.29,6,6,0,0,1-3.39-5.62V47.84h9.88V55"/><path class="cls-4" d="M40.11,55c0,2.76-2.16,5.46-4.94,5.46a3.68,3.68,0,0,1-1.55-.29,6,6,0,0,1-3.39-5.62V47.84h9.88Z"/><path class="cls-1" d="M31.16,58.19a7.42,7.42,0,0,0,1.23,1.23V47.84H31.16V58.19"/><path class="cls-4" d="M31.16,58.19a7.42,7.42,0,0,0,1.23,1.23V47.84H31.16Z"/><path class="cls-1" d="M33.62,60.1a2,2,0,0,0,.93.28V47.84h-.93V60.1"/><path class="cls-4" d="M33.62,60.1a2,2,0,0,0,.93.28V47.84h-.93Z"/><path class="cls-1" d="M35.79,60.38A5,5,0,0,0,37,60.1V47.84H35.79V60.38"/><path class="cls-4" d="M35.79,60.38A5,5,0,0,0,37,60.1V47.84H35.79Z"/><path class="cls-1" d="M38,59.36a2.8,2.8,0,0,0,1.23-1.23V47.84H38V59.36"/><path class="cls-4" d="M38,59.36a2.8,2.8,0,0,0,1.23-1.23V47.84H38Z"/><path class="cls-1" d="M37,47.84c0-2.24,1.23-4.1,3.08-4.1s3.09,1.86,3.09,4.1S42,52,40.11,52,37,50.09,37,47.84"/><path class="cls-4" d="M37,47.84c0-2.24,1.23-4.1,3.08-4.1s3.09,1.86,3.09,4.1S42,52,40.11,52,37,50.09,37,47.84Z"/><path class="cls-13" d="M38,47.84c0-1.69.92-3.09,2.16-3.09s2.15,1.4,2.15,3.09-.92,3.09-2.15,3.09S38,49.53,38,47.84"/><path class="cls-4" d="M38,47.84c0-1.68.92-3.09,2.16-3.09s2.15,1.41,2.15,3.09-.92,3.09-2.15,3.09S38,49.53,38,47.84Z"/><path class="cls-6" d="M39.18,48.57c0-.28.31-.28.31-.22,0-.23-.31-.73,0-.9s.31,0,.31.06c.31-.34,0-.68-.31-.46a1.28,1.28,0,0,0-.31-1,1.28,1.28,0,0,0-.31,1c-.3-.22-.61.12-.61.46a.43.43,0,0,1,.61-.06,1.16,1.16,0,0,1-.3.9c.3-.06.61-.06.61.22"/><path class="cls-4" d="M39.18,48.57c0-.28.31-.28.31-.22,0-.22-.31-.73,0-.9s.31,0,.31.06c.31-.34,0-.68-.31-.45a1.33,1.33,0,0,0-.31-1,1.33,1.33,0,0,0-.31,1c-.3-.23-.61.11-.61.45a.43.43,0,0,1,.61-.06c0,.17,0,.68-.3.9C38.87,48.29,39.18,48.29,39.18,48.57Z"/><rect class="cls-6" x="38.57" y="47.73" width="0.92" height="0.28"/><rect class="cls-4" x="38.57" y="47.73" width="0.92" height="0.28"/><path class="cls-6" d="M41,48.57c0-.28-.31-.28-.31-.22,0-.23.31-.73,0-.9,0-.22-.31,0-.31.06,0-.34,0-.68.62-.46a.65.65,0,0,1,0-1,1.28,1.28,0,0,1,.31,1c.31-.22.61.12.61.46,0-.06-.3-.28-.3-.06-.31.17,0,.67,0,.9-.31-.06-.62-.06-.62.22"/><path class="cls-4" d="M41,48.57c0-.28-.31-.28-.31-.22,0-.22.31-.73,0-.9,0-.22-.31,0-.31.06,0-.34,0-.68.62-.45a.68.68,0,0,1,0-1,1.33,1.33,0,0,1,.31,1c.31-.23.61.11.61.45,0-.06-.3-.28-.3-.06-.31.17,0,.68,0,.9C41.34,48.29,41,48.29,41,48.57Z"/><rect class="cls-6" x="40.72" y="47.73" width="0.92" height="0.28"/><rect class="cls-4" x="40.72" y="47.73" width="0.92" height="0.28"/><path class="cls-6" d="M40.11,50.6c0-.28.3-.28.61-.23-.31-.23-.31-.79-.31-.95a.49.49,0,0,1,.62.11c0-.34-.31-.67-.62-.51,0-.22,0-.73-.3-1-.31.22-.31.73-.31,1-.31-.16-.62.17-.31.51,0-.06,0-.28.31-.11,0,.16,0,.72-.31.95.31,0,.62,0,.62.23"/><path class="cls-4" d="M40.11,50.6c0-.28.3-.28.61-.23-.31-.22-.31-.79-.31-.95a.49.49,0,0,1,.62.11c0-.34-.31-.67-.62-.51,0-.22,0-.73-.3-1-.31.22-.31.73-.31,1-.31-.16-.62.17-.31.51,0-.06,0-.28.31-.11,0,.16,0,.73-.31.95C39.8,50.32,40.11,50.32,40.11,50.6Z"/><rect class="cls-6" x="39.49" y="49.76" width="0.92" height="0.28"/><rect class="cls-4" x="39.49" y="49.76" width="0.92" height="0.28"/><polyline class="cls-14" points="45.66 38.51 45.97 38.4 45.66 38.23 45.66 38.4 45.66 38.51"/></g></g></svg>