<svg xmlns="http://www.w3.org/2000/svg" viewBox="0 0 136.06 91.12"><defs><style>.cls-1{fill:#e60004;}.cls-2{fill:#ffed00;}</style></defs><g id="Layer_2" data-name="Layer 2"><g id="Layer_1-2" data-name="Layer 1"><rect class="cls-1" width="136.06" height="91.12"/><rect class="cls-1" width="136.06" height="91.12"/><polygon class="cls-2" points="21.97 27.3 30.36 33.39 27.16 23.52 35.55 17.41 25.18 17.41 21.97 7.55 18.75 17.41 8.38 17.41 16.77 23.52 13.57 33.39 21.97 27.3"/><polygon class="cls-2" points="46.6 9.09 50.44 8.13 46.78 6.64 47.06 2.69 44.51 5.72 40.84 4.23 42.93 7.6 40.38 10.62 44.22 9.68 46.32 13.04 46.6 9.09"/><polygon class="cls-2" points="46.6 42.02 50.44 41.07 46.78 39.58 47.06 35.63 44.51 38.66 40.84 37.17 42.93 40.54 40.38 43.56 44.22 42.62 46.32 45.97 46.6 42.02"/><polygon class="cls-2" points="55.8 19.33 59.7 20 56.94 17.16 58.78 13.65 55.23 15.41 52.46 12.57 53.03 16.49 49.48 18.25 53.38 18.92 53.95 22.83 55.8 19.33"/><polygon class="cls-2" points="54.57 33.51 57.85 35.72 56.51 32 59.63 29.56 55.67 29.7 54.32 25.98 53.22 29.78 49.27 29.91 52.55 32.14 51.45 35.94 54.57 33.51"/></g></g></svg>