<svg width="100" height="100" viewBox="0 0 100 100" xmlns="http://www.w3.org/2000/svg"><title>ecommerce-on</title><g id="Page-1" fill="none" fill-rule="evenodd"><g id="ecommerce-on" fill-rule="nonzero"><path d="M50 0C22.384 0 0 22.384 0 50s22.384 50 50 50 50-22.384 50-50S77.616 0 50 0z" id="Shape" fill="#0060A9"/><path d="M76.886 37.07l-25.75-14.952a2.04 2.04 0 0 0-2.265 0L22.857 37.25c-.328.216-.527.58-.532.974v33.84c0 .667.575 1.21 1.287 1.21h3.863V50.098a1.286 1.286 0 0 1 1.287-1.29h18.668c.71 0 1.287.578 1.287 1.29v23.173h2.576V50.1a1.286 1.286 0 0 1 1.288-1.29h18.668c.71 0 1.287.578 1.287 1.29v23.173H76.4c.71 0 1.286-.542 1.286-1.21V38.54a1.78 1.78 0 0 0-.8-1.47z" id="Shape" fill="#FFF"/><rect id="Rectangle-path" fill="#FFF" x="29.404" y="50.742" width="17.381" height="2.575" rx="1.288"/><rect id="Rectangle-path" fill="#FFF" x="29.404" y="54.734" width="17.381" height="2.575" rx="1.288"/><rect id="Rectangle-path" fill="#FFF" x="29.404" y="58.724" width="17.381" height="2.575" rx="1.288"/><rect id="Rectangle-path" fill="#FFF" x="29.404" y="62.715" width="17.381" height="2.575" rx="1.288"/><rect id="Rectangle-path" fill="#FFF" x="29.404" y="66.707" width="17.381" height="2.575" rx="1.288"/><rect id="Rectangle-path" fill="#FFF" x="29.404" y="70.697" width="17.381" height="2.575" rx="1.288"/></g></g></svg>