<svg width="100" height="100" viewBox="0 0 100 100" xmlns="http://www.w3.org/2000/svg"><title>exhibition-on</title><g id="Page-1" fill="none" fill-rule="evenodd"><g id="exhibition-on"><g id="Group"><path d="M49.9 0C22.3 0 0 22.3 0 49.9c0 27.6 22.3 49.9 49.9 49.9 27.6 0 49.9-22.3 49.9-49.9C99.8 22.3 77.4 0 49.9 0z" id="Shape" fill="#0060A9"/><path d="M32.2 77.7h35.4c.4 0 .7.3.7.7v1.4c0 .4-.3.7-.7.7H32.2c-.4 0-.7-.3-.7-.7v-1.4c0-.4.3-.7.7-.7zM50.4 74.7c1.4-.3 2.3-1.6 2.1-3-.3-1.4-1.6-2.3-3-2.1-1.4.3-2.3 1.6-2.1 3 .2 1 1 1.9 2.1 2.1V76H34.3V23.8h31.2V76H50.4v-1.3z" id="Shape" fill="#FFF"/><path d="M49.9 73.8c-.9 0-1.6-.7-1.6-1.6 0-.9.7-1.6 1.6-1.6.9 0 1.6.7 1.6 1.6 0 .9-.7 1.6-1.6 1.6zM32.2 19.3h35.4c.4 0 .7.3.7.7v1.4c0 .4-.3.7-.7.7H32.2c-.4 0-.7-.3-.7-.7V20c0-.4.3-.7.7-.7z" id="Shape" fill="#FFF"/></g></g></g></svg>