<svg width="187" height="140" viewBox="0 0 187 140" xmlns="http://www.w3.org/2000/svg"><title>BWS_logo-off</title><g id="Page-1" fill="none" fill-rule="evenodd"><g id="BWS_logo-off" fill="#FFF"><path d="M128.038 53.055c.63.29 1.308.53 2.13.58 3.44.24 6.93-2.366 6.93-6.035 0 3.67 3.05 6.034 6.878 6.034 3.972 0 6.443-2.413 6.443-6.034 0 3.283 2.373 5.262 5.522 5.793V39.78h-13.516v-8.11h11.094V19.116h-11.094v-6.662h12.353V.048h-26.79l.048 53.007zM118.882 68.89v40.165h26.79V96.503h-12.354v-8.11h11.094V75.84h-11.094v-6.66h12.354V58.17c-.533.145-1.212.29-1.84.29-2.617 0-4.99-.965-6.832-2.56-1.84 1.498-3.488 2.56-6.055 2.56-2.52 0-5.523-1.062-7.316-2.56-1.84 1.595-3.73 2.56-6.395 2.56-2.616 0-4.99-.965-6.83-2.56-1.842 1.498-4.167 2.753-6.686 2.753-2.52 0-4.845-1.255-6.686-2.752-1.84 1.594-3.73 2.56-6.395 2.56-2.617 0-4.99-.966-6.88-2.56-1.84 1.497-4.166 2.752-6.685 2.752-2.52 0-4.845-1.255-6.686-2.752-1.31 1.16-2.665 1.545-4.312 2.125L53.53 109.055h14.873l1.21-6.855h9.69l1.066 6.855h14.92L86.715 68.89h9.883v40.165h14.436V68.89h7.848zM71.116 90.952l3.246-15.4 2.76 15.4h-6.006zM36.963 58.56c-2.568-.098-4.845-1.015-6.685-2.56a10.755 10.755 0 0 1-6.347 2.366l-3.68 24.09c-.485-3.96-5.765-26.6-5.765-26.6H.29l11.87 53.15h14l4.31-28.144c.486 3.67 5.38 28.145 5.38 28.145h14.677L62.93 58.655c-2.18-.386-4.167-1.11-5.766-2.462-1.84 1.497-4.166 2.414-6.685 2.414-1.406 0-2.52-.53-3.586-1.255l-5.813 25.15c-.58-3.86-4.117-23.943-4.117-23.943zM162.724 55.903c-1.453 1.45-4.7 2.56-6.395 2.51-2.762-.047-4.167-1.158-6.008-2.654a3.71 3.71 0 0 1-2.034 1.688l-.05 51.56h14.34v-22.11l7.994 22.11h15.647l-10.707-22.11c5.717-2.27 8.284-7.484 8.284-13.326 0-14-8.574-17.67-21.073-17.67zm-.097 24.863V68.262c3.924-.193 6.685 1.69 6.685 6.13 0 3.284-2.034 6.47-5.765 6.47l-.92-.096zM40.354 19.793v-8.738h.29c2.907 0 5.087 1.255 5.087 4.297 0 3.282-2.712 4.44-5.667 4.44h.29zm0 22.255v-9.75c3.294 0 6.007 1.4 6.007 4.826 0 3.428-2.81 4.924-5.91 4.924h-.096zm23.835-2.993c-.34-7.096-6.202-11.876-13.275-12.407v-.145c6.104 0 9.98-4.634 9.98-10.62 0-11.49-9.883-15.786-18.41-15.786H25.53l-.048 53.972c2.277-1.063 4.505-3.525 4.505-6.18 0 3.67 2.955 5.89 6.637 5.89 3.682 0 6.637-2.22 6.637-5.89 0 3.67 2.956 5.89 6.637 5.89 3.682 0 6.637-2.22 6.637-5.89 0 3.67 3.004 5.89 6.637 5.89 3.683 0 6.638-2.22 6.638-5.89 0 3.67 3.004 5.89 6.637 5.89 3.682 0 6.637-2.22 6.637-5.89 0 3.67 3.003 5.89 6.637 5.89 3.68 0 6.635-2.22 6.635-5.89 0 3.67 3.004 5.89 6.637 5.89 3.634 0 6.637-2.22 6.637-5.89 0 3.67 3.003 5.89 6.636 5.89 3.682 0 6.637-2.22 6.637-5.89 0 1.64.63 2.8 1.598 3.958l.05-51.75h-14.436V33.55c0 1.35.048 3.186-.34 4.634-.34 1.4-1.26 2.56-3.342 2.56-1.986 0-2.907-1.112-3.343-2.608-.437-1.4-.34-3.235-.34-4.635V.097H88.314v34.758c0 1.642 0 3.67.387 5.842H78.238V.097H63.8c.34-.05.485 40.213.39 38.958z" id="Shape"/><g id="Group"><path d="M.388 25.055c1.695.676 3.584 1.014 5.377 1.014 4.99 0 8.478-3.718 8.478-8.4 0-1.884-.436-3.236-1.308-4.394-.824-1.16-2.035-2.076-3.537-3.09-.387-.29-.92-.627-1.308-1.014-.387-.386-.726-.87-.726-1.4 0-.965 1.017-1.544 1.89-1.544 1.646 0 3.39 1.448 4.213 2.703V1.304C11.967.53 10.077.048 8.332.048 2.18.048.242 5.408.242 8.352c0 1.834.582 3.234 1.454 4.393.92 1.207 2.13 2.172 3.584 3.186.436.29.872.58 1.212.967.34.386.58.82.58 1.4 0 1.11-1.113 1.69-2.13 1.69-1.842 0-3.586-1.4-4.554-2.8v7.868zM33.04 25.634V.484h-7.17V9.51h-3.44V.483h-7.17v25.15h7.17V15.45h3.44v10.186zM42.243 25.634V.484h-7.17v25.15zM51.448 25.634V17.38c6.25.144 10.464-1.835 10.464-8.4 0-6.614-4.845-8.546-11.094-8.546h-6.54v25.152h7.17v.048zM54.693 8.93c0 1.884-1.21 2.898-3.197 2.8V5.94l.533-.048c1.743 0 2.663 1.448 2.663 3.04zM70.196 25.634V17.38c6.25.144 10.464-1.835 10.464-8.4 0-6.614-4.845-8.546-11.094-8.546h-6.59v25.152h7.22v.048zM73.393 8.93c0 1.884-1.26 2.898-3.197 2.8V5.94l.532-.048c1.744 0 2.665 1.448 2.665 3.04zM88.943 25.634V.484h-7.218v25.15zM90.833 25.634h6.927v-7.386c0-2.365-.34-4.73-.484-7.096l.097-.05 5.377 14.532h6.928V.484h-6.976v6.42c0 2.896.532 5.793.823 8.69l-.048.047L97.663.484h-6.83v25.15zM120.674 11.103v5.31h2.665c.047 1.45-.583 3.62-2.472 3.62-2.81 0-2.664-4.392-2.76-6.226 0-1.883-.292-7.676 3.05-7.676 1.26 0 1.987 1.594 2.035 2.56l6.928-2.414c-1.55-3.62-4.747-6.228-9.058-6.228-7.8 0-10.32 6.904-10.32 13.13 0 6.374 2.52 12.89 10.368 12.89 8.333 0 9.592-7.723 9.592-13.902l-.048-1.063h-9.98z" id="Shape" transform="translate(25.19 113.448)"/></g></g></g></svg>