<svg width="1152" height="240" viewBox="0 0 1152 240" fill="none" xmlns="http://www.w3.org/2000/svg">
<g clip-path="url(#clip0)">
<rect width="1152" height="240" fill="white"/>
<rect x="384" y="120" width="768" height="60" fill="white"/>
<rect x="384" y="180" width="768" height="60" fill="white"/>
<rect width="287" height="240" fill="#F2F1E8"/>
<rect width="1152" height="60" fill="#0060A9"/>
<line x1="1" y1="179.5" x2="1152" y2="179.5" stroke="#004376"/>
<line x1="1" y1="59.5" x2="1150" y2="59.5" stroke="#004376"/>
<line x1="1" y1="119.5" x2="1151" y2="119.5" stroke="#004376"/>
<line x1="287.5" y1="2.18557e-08" x2="287.5" y2="240" stroke="#004376"/>
<line x1="574.5" y1="2.18557e-08" x2="574.5" y2="240" stroke="#004376"/>
<line x1="861.5" y1="2.18557e-08" x2="861.5" y2="240" stroke="#004376"/>
<rect x="0.5" y="0.5" width="1151" height="239" stroke="#004376"/>
<path d="M392.502 39H409.238V34.2H401.014C406.742 30.488 409.078 27.704 409.078 24.44C409.078 20.152 405.462 17.336 400.438 17.336C397.462 17.336 394.07 18.392 391.798 20.888L394.838 24.536C396.374 23.096 398.166 22.2 400.438 22.2C402.102 22.2 403.478 22.968 403.478 24.44C403.478 26.552 401.75 28.024 392.502 34.712V39ZM411.363 28.344C411.363 33.976 414.275 39.384 420.515 39.384C426.755 39.384 429.667 33.976 429.667 28.344C429.667 22.712 426.755 17.336 420.515 17.336C414.275 17.336 411.363 22.712 411.363 28.344ZM424.099 28.344C424.099 32.12 423.075 34.52 420.515 34.52C417.955 34.52 416.931 32.12 416.931 28.344C416.931 24.568 417.955 22.2 420.515 22.2C423.075 22.2 424.099 24.568 424.099 28.344ZM431.908 39H448.644V34.2H440.42C446.148 30.488 448.484 27.704 448.484 24.44C448.484 20.152 444.868 17.336 439.844 17.336C436.868 17.336 433.476 18.392 431.204 20.888L434.244 24.536C435.78 23.096 437.572 22.2 439.844 22.2C441.508 22.2 442.884 22.968 442.884 24.44C442.884 26.552 441.156 28.024 431.908 34.712V39ZM450.77 28.344C450.77 33.976 453.682 39.384 459.922 39.384C466.162 39.384 469.074 33.976 469.074 28.344C469.074 22.712 466.162 17.336 459.922 17.336C453.682 17.336 450.77 22.712 450.77 28.344ZM463.506 28.344C463.506 32.12 462.482 34.52 459.922 34.52C457.362 34.52 456.338 32.12 456.338 28.344C456.338 24.568 457.362 22.2 459.922 22.2C462.482 22.2 463.506 24.568 463.506 28.344Z" fill="white"/>
<path d="M682.674 39H699.41V34.2H691.186C696.914 30.488 699.25 27.704 699.25 24.44C699.25 20.152 695.634 17.336 690.61 17.336C687.634 17.336 684.242 18.392 681.97 20.888L685.01 24.536C686.546 23.096 688.338 22.2 690.61 22.2C692.274 22.2 693.65 22.968 693.65 24.44C693.65 26.552 691.922 28.024 682.674 34.712V39ZM701.535 28.344C701.535 33.976 704.447 39.384 710.687 39.384C716.927 39.384 719.839 33.976 719.839 28.344C719.839 22.712 716.927 17.336 710.687 17.336C704.447 17.336 701.535 22.712 701.535 28.344ZM714.271 28.344C714.271 32.12 713.247 34.52 710.687 34.52C708.127 34.52 707.103 32.12 707.103 28.344C707.103 24.568 708.127 22.2 710.687 22.2C713.247 22.2 714.271 24.568 714.271 28.344ZM727.552 39H733.056V17.656H728.288L720.832 25.016L723.968 28.312L727.552 24.696V39ZM736.84 37.304C738.44 38.584 740.808 39.352 743.304 39.352C749.768 39.352 753.864 35.096 753.864 28.312C753.864 22.168 750.92 17.304 744.168 17.304C739.208 17.304 735.656 20.408 735.656 24.792C735.656 29.336 739.24 31.736 743.08 31.736C745.224 31.736 747.24 30.68 748.296 29.272V29.528C748.296 32.44 746.248 34.68 743.304 34.68C741.576 34.68 740.392 34.232 739.208 33.272L736.84 37.304ZM748.296 25.784C747.368 26.712 746.056 27.224 744.712 27.224C742.984 27.224 741.256 26.456 741.256 24.536C741.256 23.288 742.376 21.976 744.424 21.976C747.112 21.976 748.168 24.024 748.296 25.784Z" fill="white"/>
<path d="M937.342 30.36C937.342 35.608 940.414 39.384 947.262 39.384C954.11 39.384 957.15 35.64 957.15 30.328V17.656H951.55V30.168C951.55 32.696 950.206 34.52 947.262 34.52C944.286 34.52 942.942 32.696 942.942 30.168V17.656H937.342V30.36ZM971.27 39H976.166V17.656H971.27V25.368C970.022 23.832 968.39 23.16 966.694 23.16C962.822 23.16 959.846 26.2 959.846 31.256C959.846 36.504 962.886 39.384 966.694 39.384C968.422 39.384 969.99 38.68 971.27 37.208V39ZM971.27 33.624C970.63 34.456 969.35 35.032 968.294 35.032C966.342 35.032 964.902 33.56 964.902 31.256C964.902 28.952 966.342 27.512 968.294 27.512C969.35 27.512 970.63 28.056 971.27 28.888V33.624ZM983.744 39H988.992L995.072 23.544H989.856L986.336 33.336L982.848 23.544H977.664L983.744 39ZM999.022 21.592C1000.59 21.592 1001.84 20.344 1001.84 18.776C1001.84 17.208 1000.59 15.96 999.022 15.96C997.454 15.96 996.206 17.208 996.206 18.776C996.206 20.344 997.454 21.592 999.022 21.592ZM996.558 39H1001.49V23.544H996.558V39ZM1014.85 39H1020.93L1014.95 30.584L1020.64 23.544H1014.69L1009.99 29.72V17.656H1005.06V39H1009.99V35.288L1011.46 33.528L1014.85 39ZM1022.53 39H1027.45V17.656H1022.53V39ZM1033.49 21.592C1035.06 21.592 1036.31 20.344 1036.31 18.776C1036.31 17.208 1035.06 15.96 1033.49 15.96C1031.92 15.96 1030.67 17.208 1030.67 18.776C1030.67 20.344 1031.92 21.592 1033.49 21.592ZM1031.03 39H1035.95V23.544H1031.03V39ZM1049.99 39H1054.92V28.056C1054.92 25.208 1053.32 23.16 1049.8 23.16C1047.21 23.16 1045.38 24.344 1044.45 25.432V23.544H1039.53V39H1044.45V29.016C1045.03 28.312 1045.99 27.512 1047.46 27.512C1049 27.512 1049.99 28.184 1049.99 30.072V39ZM1058.08 42.968C1060.06 44.6 1062.27 45.272 1064.93 45.272C1068.77 45.272 1073.76 43.928 1073.76 37.624V23.544H1068.86V25.368C1067.62 23.832 1066.02 23.16 1064.29 23.16C1060.42 23.16 1057.47 25.848 1057.47 30.936C1057.47 36.152 1060.51 38.744 1064.29 38.744C1066.05 38.744 1067.58 38.008 1068.86 36.504V37.688C1068.86 40.568 1066.56 41.24 1064.93 41.24C1063.14 41.24 1061.41 40.728 1060.22 39.448L1058.08 42.968ZM1068.86 33.016C1068.26 33.848 1066.94 34.392 1065.92 34.392C1063.97 34.392 1062.53 33.208 1062.53 30.936C1062.53 28.696 1063.97 27.512 1065.92 27.512C1066.94 27.512 1068.26 28.056 1068.86 28.888V33.016Z" fill="white"/>
<path d="M21.624 89.008C21.624 93.88 25.296 97.288 30.192 97.288C35.088 97.288 38.736 93.88 38.736 89.008C38.736 84.136 35.088 80.728 30.192 80.728C25.296 80.728 21.624 84.136 21.624 89.008ZM34.536 89.008C34.536 91.6 32.832 93.64 30.192 93.64C27.528 93.64 25.824 91.6 25.824 89.008C25.824 86.392 27.528 84.376 30.192 84.376C32.832 84.376 34.536 86.392 34.536 89.008ZM55.335 97H59.007V88.6C59.007 86.224 57.663 85.12 55.527 85.12C53.703 85.12 52.191 86.176 51.519 87.184C51.039 85.816 49.887 85.12 48.231 85.12C46.407 85.12 44.919 86.152 44.415 86.824V85.408H40.719V97H44.415V89.512C44.799 89.032 45.495 88.384 46.479 88.384C47.607 88.384 48.015 89.056 48.015 89.944V97H51.711V89.512C52.071 89.032 52.791 88.384 53.799 88.384C54.903 88.384 55.335 89.056 55.335 89.944V97ZM60.735 95.512C61.959 96.592 64.095 97.288 66.159 97.288C69.495 97.288 71.439 95.656 71.439 93.448C71.439 90.376 68.511 89.896 66.543 89.56C65.319 89.344 64.695 89.152 64.695 88.624C64.695 88.12 65.295 87.832 66.159 87.832C67.551 87.832 68.871 88.432 69.567 89.104L70.983 86.656C69.735 85.744 68.079 85.12 66.135 85.12C62.919 85.12 61.167 86.896 61.167 88.936C61.167 91.888 63.951 92.296 65.919 92.632C67.119 92.824 67.911 93.04 67.911 93.64C67.911 94.144 67.455 94.504 66.351 94.504C64.983 94.504 63.135 93.736 62.271 92.968L60.735 95.512ZM84.24 92.368H92.16V91.576C92.16 87.64 89.76 85.12 86.568 85.12C84.48 85.12 83.28 85.888 82.416 86.824C81.72 85.744 80.496 85.12 78.528 85.12C76.728 85.12 74.712 85.648 73.224 86.92L74.544 89.272C75.552 88.456 76.8 88.024 78.024 88.024C79.584 88.024 80.52 88.72 80.52 89.704V91.048C79.728 90.208 78.24 89.752 76.728 89.752C74.496 89.752 72.6 90.952 72.6 93.52C72.6 96.136 74.88 97.288 77.568 97.288C79.608 97.288 81.36 96.496 82.368 95.44C83.448 96.76 84.912 97.288 86.688 97.288C88.176 97.288 90.12 96.784 91.272 95.752L89.64 93.376C89.04 93.976 87.984 94.36 87.048 94.36C85.392 94.36 84.504 93.4 84.24 92.368ZM88.632 89.968H84.192C84.336 89.104 84.936 87.976 86.4 87.976C87.984 87.976 88.536 89.152 88.632 89.968ZM80.52 93.016V93.136C80.52 93.784 79.44 94.576 78.072 94.576C77.184 94.576 76.272 94.216 76.272 93.376C76.272 92.56 77.208 92.176 78.264 92.176C79.152 92.176 80.088 92.488 80.52 93.016ZM98.3844 97.288C99.7524 97.288 100.664 96.952 101.12 96.52L100.4 93.736C100.28 93.88 99.8724 94.024 99.4644 94.024C98.8164 94.024 98.4324 93.52 98.4324 92.848V88.624H100.784V85.408H98.4324V82.24H94.7604V85.408H92.8404V88.624H94.7604V93.88C94.7604 96.112 96.0324 97.288 98.3844 97.288ZM110.489 97H114.185V88.792C114.185 86.656 112.985 85.12 110.345 85.12C108.401 85.12 107.033 86.008 106.337 86.824V85.408H102.641V97H106.337V89.512C106.769 88.984 107.489 88.384 108.593 88.384C109.745 88.384 110.489 88.888 110.489 90.304V97ZM118.715 83.944C119.891 83.944 120.827 83.008 120.827 81.832C120.827 80.656 119.891 79.72 118.715 79.72C117.539 79.72 116.603 80.656 116.603 81.832C116.603 83.008 117.539 83.944 118.715 83.944ZM116.867 97H120.563V85.408H116.867V97ZM131.09 97H134.786V88.792C134.786 86.656 133.586 85.12 130.946 85.12C129.002 85.12 127.634 86.008 126.938 86.824V85.408H123.242V97H126.938V89.512C127.37 88.984 128.09 88.384 129.194 88.384C130.346 88.384 131.09 88.888 131.09 90.304V97ZM137.157 99.976C138.645 101.2 140.301 101.704 142.293 101.704C145.173 101.704 148.917 100.696 148.917 95.968V85.408H145.245V86.776C144.309 85.624 143.109 85.12 141.813 85.12C138.909 85.12 136.701 87.136 136.701 90.952C136.701 94.864 138.981 96.808 141.813 96.808C143.133 96.808 144.285 96.256 145.245 95.128V96.016C145.245 98.176 143.517 98.68 142.293 98.68C140.949 98.68 139.653 98.296 138.765 97.336L137.157 99.976ZM145.245 92.512C144.789 93.136 143.805 93.544 143.037 93.544C141.573 93.544 140.493 92.656 140.493 90.952C140.493 89.272 141.573 88.384 143.037 88.384C143.805 88.384 144.789 88.792 145.245 89.416V92.512Z" fill="#333333"/>
<path d="M416.482 94.72C417.682 96.304 419.41 97.288 422.122 97.288C425.338 97.288 427.81 95.272 427.81 92.008C427.81 88.72 425.386 86.896 422.722 86.896C421.114 86.896 419.746 87.568 418.978 88.336V82.768H426.778V80.992H416.986V89.632L418.45 90.136C419.53 89.08 420.73 88.624 422.146 88.624C424.306 88.624 425.818 89.968 425.818 92.08C425.818 94.024 424.306 95.512 422.122 95.512C420.154 95.512 418.762 94.744 417.706 93.4L416.482 94.72ZM431.311 100.048C432.415 99.256 433.279 97.888 433.279 96.424C433.279 95.272 432.559 94.6 431.767 94.6C431.047 94.6 430.495 95.2 430.495 95.896C430.495 96.616 430.975 97.12 431.647 97.12C431.767 97.12 431.935 97.096 431.983 97.072C431.887 97.864 431.191 98.8 430.423 99.304L431.311 100.048ZM435.896 97H438.104L444.656 82.36V80.992H433.736V82.768H442.352L435.896 97ZM448.248 97H450.456L457.008 82.36V80.992H446.088V82.768H454.704L448.248 97ZM459.711 95.344C460.719 96.496 462.111 97.264 464.151 97.264C468.639 97.264 470.655 93.328 470.655 89.008C470.655 84.64 468.951 80.728 464.463 80.728C460.983 80.728 458.871 83.2 458.871 85.96C458.871 89.368 461.247 91.072 464.127 91.072C466.167 91.072 467.943 89.68 468.639 88.576C468.663 88.792 468.663 89.008 468.663 89.224C468.663 92.248 467.391 95.488 464.151 95.488C462.495 95.488 461.535 94.816 460.719 93.856L459.711 95.344ZM468.567 86.968C467.727 88.384 466.167 89.344 464.583 89.344C462.519 89.344 460.887 88.24 460.887 85.888C460.887 84.376 462.111 82.504 464.559 82.504C467.343 82.504 468.399 84.976 468.567 86.968ZM493.855 97H495.655V88.624C495.655 86.296 494.527 85.12 492.415 85.12C490.734 85.12 489.175 86.224 488.527 87.28C488.191 86.08 487.183 85.12 485.407 85.12C483.703 85.12 482.143 86.344 481.663 87.088V85.408H479.863V97H481.663V88.528C482.287 87.592 483.535 86.728 484.711 86.728C486.223 86.728 486.847 87.664 486.847 89.128V97H488.647V88.504C489.247 87.592 490.519 86.728 491.719 86.728C493.207 86.728 493.855 87.664 493.855 89.128V97ZM500.133 83.536C500.805 83.536 501.357 83.008 501.357 82.336C501.357 81.664 500.805 81.112 500.133 81.112C499.485 81.112 498.933 81.664 498.933 82.336C498.933 83.008 499.485 83.536 500.133 83.536ZM499.245 97H501.045V85.408H499.245V97ZM511.884 97H513.684V89.032C513.684 86.224 511.644 85.12 509.196 85.12C507.3 85.12 505.812 85.744 504.564 87.04L505.404 88.288C506.436 87.184 507.564 86.68 508.956 86.68C510.636 86.68 511.884 87.568 511.884 89.128V91.216C510.948 90.136 509.628 89.632 508.044 89.632C506.076 89.632 503.988 90.856 503.988 93.448C503.988 95.968 506.076 97.288 508.044 97.288C509.604 97.288 510.924 96.736 511.884 95.68V97ZM511.884 94.552C511.188 95.512 509.964 95.992 508.692 95.992C507.012 95.992 505.836 94.936 505.836 93.472C505.836 91.984 507.012 90.928 508.692 90.928C509.964 90.928 511.188 91.408 511.884 92.368V94.552ZM516.932 95.92C516.932 96.64 517.532 97.24 518.252 97.24C518.972 97.24 519.572 96.64 519.572 95.92C519.572 95.2 518.972 94.6 518.252 94.6C517.532 94.6 516.932 95.2 516.932 95.92ZM536.907 97H539.211L534.051 90.664L539.187 85.408H536.907L530.811 91.576V80.992H529.011V97H530.811V93.688L532.731 91.792L536.907 97ZM541.339 97H543.139V88.792C543.667 87.856 545.179 86.944 546.283 86.944C546.571 86.944 546.787 86.968 547.003 87.016V85.168C545.419 85.168 544.075 86.056 543.139 87.28V85.408H541.339V97ZM546.909 95.92C546.909 96.64 547.509 97.24 548.229 97.24C548.949 97.24 549.549 96.64 549.549 95.92C549.549 95.2 548.949 94.6 548.229 94.6C547.509 94.6 546.909 95.2 546.909 95.92Z" fill="#333333"/>
<path d="M703.513 89.032C703.513 93.376 705.217 97.288 709.681 97.288C713.185 97.288 715.297 94.84 715.297 92.056C715.297 88.648 712.945 86.944 710.065 86.944C708.001 86.944 706.225 88.336 705.529 89.44C705.505 89.224 705.505 89.032 705.505 88.816C705.505 85.672 706.921 82.528 710.017 82.528C711.697 82.528 712.633 83.2 713.449 84.16L714.457 82.672C713.473 81.544 712.081 80.752 710.017 80.752C705.529 80.752 703.513 84.688 703.513 89.032ZM713.281 92.128C713.281 93.664 712.081 95.512 709.609 95.512C706.825 95.512 705.769 93.064 705.577 91.072C706.465 89.656 708.001 88.672 709.585 88.672C711.649 88.672 713.281 89.776 713.281 92.128ZM718.725 100.048C719.829 99.256 720.693 97.888 720.693 96.424C720.693 95.272 719.973 94.6 719.181 94.6C718.461 94.6 717.909 95.2 717.909 95.896C717.909 96.616 718.389 97.12 719.061 97.12C719.181 97.12 719.349 97.096 719.397 97.072C719.301 97.864 718.605 98.8 717.837 99.304L718.725 100.048ZM730.376 97H732.368V92.944H734.624V91.192H732.368V80.992H729.632L722.768 91.288V92.944H730.376V97ZM730.376 82.84V91.192H724.76L730.376 82.84ZM739.655 97H741.647V80.992H739.895L735.887 85.12L737.087 86.344L739.655 83.632V97ZM744.212 94.648C745.196 96.088 747.188 97.288 749.9 97.288C753.428 97.288 755.564 95.344 755.564 92.68C755.564 90.112 753.332 88.864 751.868 88.744C753.38 88.48 755.324 87.328 755.324 85.024C755.324 82.312 752.972 80.752 749.9 80.752C747.428 80.752 745.58 81.832 744.428 83.224L745.532 84.472C746.708 83.2 748.004 82.528 749.756 82.528C751.7 82.528 753.332 83.488 753.332 85.264C753.332 87.112 751.628 87.904 749.612 87.904C748.964 87.904 748.22 87.904 747.956 87.88V89.704C748.196 89.68 748.94 89.68 749.612 89.68C751.964 89.68 753.596 90.52 753.596 92.512C753.596 94.36 752.18 95.512 749.852 95.512C747.956 95.512 746.324 94.648 745.388 93.4L744.212 94.648ZM778.855 97H780.655V88.624C780.655 86.296 779.527 85.12 777.415 85.12C775.734 85.12 774.175 86.224 773.527 87.28C773.191 86.08 772.183 85.12 770.407 85.12C768.703 85.12 767.143 86.344 766.663 87.088V85.408H764.863V97H766.663V88.528C767.287 87.592 768.535 86.728 769.711 86.728C771.223 86.728 771.847 87.664 771.847 89.128V97H773.647V88.504C774.247 87.592 775.519 86.728 776.719 86.728C778.207 86.728 778.855 87.664 778.855 89.128V97ZM785.133 83.536C785.805 83.536 786.357 83.008 786.357 82.336C786.357 81.664 785.805 81.112 785.133 81.112C784.485 81.112 783.933 81.664 783.933 82.336C783.933 83.008 784.485 83.536 785.133 83.536ZM784.245 97H786.045V85.408H784.245V97ZM796.884 97H798.684V89.032C798.684 86.224 796.644 85.12 794.196 85.12C792.3 85.12 790.812 85.744 789.564 87.04L790.404 88.288C791.436 87.184 792.564 86.68 793.956 86.68C795.636 86.68 796.884 87.568 796.884 89.128V91.216C795.948 90.136 794.628 89.632 793.044 89.632C791.076 89.632 788.988 90.856 788.988 93.448C788.988 95.968 791.076 97.288 793.044 97.288C794.604 97.288 795.924 96.736 796.884 95.68V97ZM796.884 94.552C796.188 95.512 794.964 95.992 793.692 95.992C792.012 95.992 790.836 94.936 790.836 93.472C790.836 91.984 792.012 90.928 793.692 90.928C794.964 90.928 796.188 91.408 796.884 92.368V94.552ZM801.932 95.92C801.932 96.64 802.532 97.24 803.252 97.24C803.972 97.24 804.572 96.64 804.572 95.92C804.572 95.2 803.972 94.6 803.252 94.6C802.532 94.6 801.932 95.2 801.932 95.92ZM821.907 97H824.211L819.051 90.664L824.187 85.408H821.907L815.811 91.576V80.992H814.011V97H815.811V93.688L817.731 91.792L821.907 97ZM826.339 97H828.139V88.792C828.667 87.856 830.179 86.944 831.283 86.944C831.571 86.944 831.787 86.968 832.003 87.016V85.168C830.419 85.168 829.075 86.056 828.139 87.28V85.408H826.339V97ZM831.909 95.92C831.909 96.64 832.509 97.24 833.229 97.24C833.949 97.24 834.549 96.64 834.549 95.92C834.549 95.2 833.949 94.6 833.229 94.6C832.509 94.6 831.909 95.2 831.909 95.92Z" fill="#333333"/>
<path d="M989.376 91.984H995.136V90.4H989.376V91.984ZM1003.26 89.032C1003.26 93.376 1004.97 97.288 1009.43 97.288C1012.94 97.288 1015.05 94.84 1015.05 92.056C1015.05 88.648 1012.7 86.944 1009.82 86.944C1007.75 86.944 1005.98 88.336 1005.28 89.44C1005.26 89.224 1005.26 89.032 1005.26 88.816C1005.26 85.672 1006.67 82.528 1009.77 82.528C1011.45 82.528 1012.38 83.2 1013.2 84.16L1014.21 82.672C1013.22 81.544 1011.83 80.752 1009.77 80.752C1005.28 80.752 1003.26 84.688 1003.26 89.032ZM1013.03 92.128C1013.03 93.664 1011.83 95.512 1009.36 95.512C1006.58 95.512 1005.52 93.064 1005.33 91.072C1006.22 89.656 1007.75 88.672 1009.34 88.672C1011.4 88.672 1013.03 89.776 1013.03 92.128ZM1016.91 94.648C1017.9 96.088 1019.89 97.288 1022.6 97.288C1026.13 97.288 1028.27 95.344 1028.27 92.68C1028.27 90.112 1026.03 88.864 1024.57 88.744C1026.08 88.48 1028.03 87.328 1028.03 85.024C1028.03 82.312 1025.67 80.752 1022.6 80.752C1020.13 80.752 1018.28 81.832 1017.13 83.224L1018.23 84.472C1019.41 83.2 1020.71 82.528 1022.46 82.528C1024.4 82.528 1026.03 83.488 1026.03 85.264C1026.03 87.112 1024.33 87.904 1022.31 87.904C1021.67 87.904 1020.92 87.904 1020.66 87.88V89.704C1020.9 89.68 1021.64 89.68 1022.31 89.68C1024.67 89.68 1026.3 90.52 1026.3 92.512C1026.3 94.36 1024.88 95.512 1022.55 95.512C1020.66 95.512 1019.03 94.648 1018.09 93.4L1016.91 94.648ZM1037.95 97H1039.95V92.944H1042.2V91.192H1039.95V80.992H1037.21L1030.35 91.288V92.944H1037.95V97ZM1037.95 82.84V91.192H1032.34L1037.95 82.84ZM1064.94 97H1066.74V88.624C1066.74 86.296 1065.61 85.12 1063.5 85.12C1061.82 85.12 1060.26 86.224 1059.61 87.28C1059.28 86.08 1058.27 85.12 1056.49 85.12C1054.79 85.12 1053.23 86.344 1052.75 87.088V85.408H1050.95V97H1052.75V88.528C1053.37 87.592 1054.62 86.728 1055.8 86.728C1057.31 86.728 1057.93 87.664 1057.93 89.128V97H1059.73V88.504C1060.33 87.592 1061.6 86.728 1062.8 86.728C1064.29 86.728 1064.94 87.664 1064.94 89.128V97ZM1071.22 83.536C1071.89 83.536 1072.44 83.008 1072.44 82.336C1072.44 81.664 1071.89 81.112 1071.22 81.112C1070.57 81.112 1070.02 81.664 1070.02 82.336C1070.02 83.008 1070.57 83.536 1071.22 83.536ZM1070.33 97H1072.13V85.408H1070.33V97ZM1080.79 97.288C1084.31 97.288 1086.52 94.552 1086.52 91.192C1086.52 87.832 1084.31 85.12 1080.79 85.12C1077.26 85.12 1075.05 87.832 1075.05 91.192C1075.05 94.552 1077.26 97.288 1080.79 97.288ZM1080.79 95.68C1078.31 95.68 1076.92 93.568 1076.92 91.192C1076.92 88.84 1078.31 86.728 1080.79 86.728C1083.26 86.728 1084.63 88.84 1084.63 91.192C1084.63 93.568 1083.26 95.68 1080.79 95.68ZM1088.93 95.92C1088.93 96.64 1089.53 97.24 1090.25 97.24C1090.97 97.24 1091.57 96.64 1091.57 95.92C1091.57 95.2 1090.97 94.6 1090.25 94.6C1089.53 94.6 1088.93 95.2 1088.93 95.92ZM1108.91 97H1111.21L1106.05 90.664L1111.19 85.408H1108.91L1102.81 91.576V80.992H1101.01V97H1102.81V93.688L1104.73 91.792L1108.91 97ZM1113.34 97H1115.14V88.792C1115.67 87.856 1117.18 86.944 1118.28 86.944C1118.57 86.944 1118.79 86.968 1119 87.016V85.168C1117.42 85.168 1116.08 86.056 1115.14 87.28V85.408H1113.34V97ZM1118.91 95.92C1118.91 96.64 1119.51 97.24 1120.23 97.24C1120.95 97.24 1121.55 96.64 1121.55 95.92C1121.55 95.2 1120.95 94.6 1120.23 94.6C1119.51 94.6 1118.91 95.2 1118.91 95.92Z" fill="#333333"/>
<path d="M997.813 149.536H1002.42V148.288H997.813V143.32H996.445V148.288H991.837V149.536H996.445V154.648H997.813V149.536ZM1010.53 149.008C1010.53 152.896 1012.26 157.288 1016.65 157.288C1021.02 157.288 1022.77 152.896 1022.77 149.008C1022.77 145.096 1021.02 140.752 1016.65 140.752C1012.26 140.752 1010.53 145.096 1010.53 149.008ZM1020.73 149.008C1020.73 152.2 1019.7 155.512 1016.65 155.512C1013.6 155.512 1012.57 152.2 1012.57 149.008C1012.57 145.816 1013.6 142.528 1016.65 142.528C1019.7 142.528 1020.73 145.816 1020.73 149.008ZM1025.51 160.048C1026.61 159.256 1027.47 157.888 1027.47 156.424C1027.47 155.272 1026.75 154.6 1025.96 154.6C1025.24 154.6 1024.69 155.2 1024.69 155.896C1024.69 156.616 1025.17 157.12 1025.84 157.12C1025.96 157.12 1026.13 157.096 1026.18 157.072C1026.08 157.864 1025.39 158.8 1024.62 159.304L1025.51 160.048ZM1030.01 149.032C1030.01 153.376 1031.71 157.288 1036.17 157.288C1039.68 157.288 1041.79 154.84 1041.79 152.056C1041.79 148.648 1039.44 146.944 1036.56 146.944C1034.49 146.944 1032.72 148.336 1032.02 149.44C1032 149.224 1032 149.032 1032 148.816C1032 145.672 1033.41 142.528 1036.51 142.528C1038.19 142.528 1039.13 143.2 1039.94 144.16L1040.95 142.672C1039.97 141.544 1038.57 140.752 1036.51 140.752C1032.02 140.752 1030.01 144.688 1030.01 149.032ZM1039.77 152.128C1039.77 153.664 1038.57 155.512 1036.1 155.512C1033.32 155.512 1032.26 153.064 1032.07 151.072C1032.96 149.656 1034.49 148.672 1036.08 148.672C1038.14 148.672 1039.77 149.776 1039.77 152.128ZM1064.94 157H1066.74V148.624C1066.74 146.296 1065.61 145.12 1063.5 145.12C1061.82 145.12 1060.26 146.224 1059.61 147.28C1059.28 146.08 1058.27 145.12 1056.49 145.12C1054.79 145.12 1053.23 146.344 1052.75 147.088V145.408H1050.95V157H1052.75V148.528C1053.37 147.592 1054.62 146.728 1055.8 146.728C1057.31 146.728 1057.93 147.664 1057.93 149.128V157H1059.73V148.504C1060.33 147.592 1061.6 146.728 1062.8 146.728C1064.29 146.728 1064.94 147.664 1064.94 149.128V157ZM1071.22 143.536C1071.89 143.536 1072.44 143.008 1072.44 142.336C1072.44 141.664 1071.89 141.112 1071.22 141.112C1070.57 141.112 1070.02 141.664 1070.02 142.336C1070.02 143.008 1070.57 143.536 1071.22 143.536ZM1070.33 157H1072.13V145.408H1070.33V157ZM1080.79 157.288C1084.31 157.288 1086.52 154.552 1086.52 151.192C1086.52 147.832 1084.31 145.12 1080.79 145.12C1077.26 145.12 1075.05 147.832 1075.05 151.192C1075.05 154.552 1077.26 157.288 1080.79 157.288ZM1080.79 155.68C1078.31 155.68 1076.92 153.568 1076.92 151.192C1076.92 148.84 1078.31 146.728 1080.79 146.728C1083.26 146.728 1084.63 148.84 1084.63 151.192C1084.63 153.568 1083.26 155.68 1080.79 155.68ZM1088.93 155.92C1088.93 156.64 1089.53 157.24 1090.25 157.24C1090.97 157.24 1091.57 156.64 1091.57 155.92C1091.57 155.2 1090.97 154.6 1090.25 154.6C1089.53 154.6 1088.93 155.2 1088.93 155.92ZM1108.91 157H1111.21L1106.05 150.664L1111.19 145.408H1108.91L1102.81 151.576V140.992H1101.01V157H1102.81V153.688L1104.73 151.792L1108.91 157ZM1113.34 157H1115.14V148.792C1115.67 147.856 1117.18 146.944 1118.28 146.944C1118.57 146.944 1118.79 146.968 1119 147.016V145.168C1117.42 145.168 1116.08 146.056 1115.14 147.28V145.408H1113.34V157ZM1118.91 155.92C1118.91 156.64 1119.51 157.24 1120.23 157.24C1120.95 157.24 1121.55 156.64 1121.55 155.92C1121.55 155.2 1120.95 154.6 1120.23 154.6C1119.51 154.6 1118.91 155.2 1118.91 155.92Z" fill="#333333"/>
<path d="M976.883 209.536H981.491V208.288H976.883V203.32H975.515V208.288H970.907V209.536H975.515V214.648H976.883V209.536ZM992.647 217H994.639V200.992H992.887L988.879 205.12L990.079 206.344L992.647 203.632V217ZM997.204 214.648C998.188 216.088 1000.18 217.288 1002.89 217.288C1006.42 217.288 1008.56 215.344 1008.56 212.68C1008.56 210.112 1006.32 208.864 1004.86 208.744C1006.37 208.48 1008.32 207.328 1008.32 205.024C1008.32 202.312 1005.96 200.752 1002.89 200.752C1000.42 200.752 998.572 201.832 997.42 203.224L998.524 204.472C999.7 203.2 1001 202.528 1002.75 202.528C1004.69 202.528 1006.32 203.488 1006.32 205.264C1006.32 207.112 1004.62 207.904 1002.6 207.904C1001.96 207.904 1001.21 207.904 1000.95 207.88V209.704C1001.19 209.68 1001.93 209.68 1002.6 209.68C1004.96 209.68 1006.59 210.52 1006.59 212.512C1006.59 214.36 1005.17 215.512 1002.84 215.512C1000.95 215.512 999.316 214.648 998.38 213.4L997.204 214.648ZM1018.24 217H1020.24V212.944H1022.49V211.192H1020.24V200.992H1017.5L1010.64 211.288V212.944H1018.24V217ZM1018.24 202.84V211.192H1012.63L1018.24 202.84ZM1025.51 220.048C1026.61 219.256 1027.47 217.888 1027.47 216.424C1027.47 215.272 1026.75 214.6 1025.96 214.6C1025.24 214.6 1024.69 215.2 1024.69 215.896C1024.69 216.616 1025.17 217.12 1025.84 217.12C1025.96 217.12 1026.13 217.096 1026.18 217.072C1026.08 217.864 1025.39 218.8 1024.62 219.304L1025.51 220.048ZM1030.01 209.032C1030.01 213.376 1031.71 217.288 1036.17 217.288C1039.68 217.288 1041.79 214.84 1041.79 212.056C1041.79 208.648 1039.44 206.944 1036.56 206.944C1034.49 206.944 1032.72 208.336 1032.02 209.44C1032 209.224 1032 209.032 1032 208.816C1032 205.672 1033.41 202.528 1036.51 202.528C1038.19 202.528 1039.13 203.2 1039.94 204.16L1040.95 202.672C1039.97 201.544 1038.57 200.752 1036.51 200.752C1032.02 200.752 1030.01 204.688 1030.01 209.032ZM1039.77 212.128C1039.77 213.664 1038.57 215.512 1036.1 215.512C1033.32 215.512 1032.26 213.064 1032.07 211.072C1032.96 209.656 1034.49 208.672 1036.08 208.672C1038.14 208.672 1039.77 209.776 1039.77 212.128ZM1064.94 217H1066.74V208.624C1066.74 206.296 1065.61 205.12 1063.5 205.12C1061.82 205.12 1060.26 206.224 1059.61 207.28C1059.28 206.08 1058.27 205.12 1056.49 205.12C1054.79 205.12 1053.23 206.344 1052.75 207.088V205.408H1050.95V217H1052.75V208.528C1053.37 207.592 1054.62 206.728 1055.8 206.728C1057.31 206.728 1057.93 207.664 1057.93 209.128V217H1059.73V208.504C1060.33 207.592 1061.6 206.728 1062.8 206.728C1064.29 206.728 1064.94 207.664 1064.94 209.128V217ZM1071.22 203.536C1071.89 203.536 1072.44 203.008 1072.44 202.336C1072.44 201.664 1071.89 201.112 1071.22 201.112C1070.57 201.112 1070.02 201.664 1070.02 202.336C1070.02 203.008 1070.57 203.536 1071.22 203.536ZM1070.33 217H1072.13V205.408H1070.33V217ZM1080.79 217.288C1084.31 217.288 1086.52 214.552 1086.52 211.192C1086.52 207.832 1084.31 205.12 1080.79 205.12C1077.26 205.12 1075.05 207.832 1075.05 211.192C1075.05 214.552 1077.26 217.288 1080.79 217.288ZM1080.79 215.68C1078.31 215.68 1076.92 213.568 1076.92 211.192C1076.92 208.84 1078.31 206.728 1080.79 206.728C1083.26 206.728 1084.63 208.84 1084.63 211.192C1084.63 213.568 1083.26 215.68 1080.79 215.68ZM1088.93 215.92C1088.93 216.64 1089.53 217.24 1090.25 217.24C1090.97 217.24 1091.57 216.64 1091.57 215.92C1091.57 215.2 1090.97 214.6 1090.25 214.6C1089.53 214.6 1088.93 215.2 1088.93 215.92ZM1108.91 217H1111.21L1106.05 210.664L1111.19 205.408H1108.91L1102.81 211.576V200.992H1101.01V217H1102.81V213.688L1104.73 211.792L1108.91 217ZM1113.34 217H1115.14V208.792C1115.67 207.856 1117.18 206.944 1118.28 206.944C1118.57 206.944 1118.79 206.968 1119 207.016V205.168C1117.42 205.168 1116.08 206.056 1115.14 207.28V205.408H1113.34V217ZM1118.91 215.92C1118.91 216.64 1119.51 217.24 1120.23 217.24C1120.95 217.24 1121.55 216.64 1121.55 215.92C1121.55 215.2 1120.95 214.6 1120.23 214.6C1119.51 214.6 1118.91 215.2 1118.91 215.92Z" fill="#333333"/>
<path d="M31.368 157H36.096L32.832 151.12C34.32 150.592 36.024 149.104 36.024 146.32C36.024 143.344 34.008 140.992 30.456 140.992H22.44V157H26.568V151.576H28.68L31.368 157ZM31.824 146.272C31.824 147.376 30.912 148.072 29.832 148.072H26.568V144.472H29.832C30.912 144.472 31.824 145.168 31.824 146.272ZM36.7166 151.192C36.7166 154.96 39.4766 157.288 43.0526 157.288C44.8286 157.288 46.7486 156.784 47.9006 155.752L46.3406 153.448C45.6926 154.024 44.5406 154.432 43.5086 154.432C41.7806 154.432 40.7726 153.448 40.5566 152.368H48.8126V151.576C48.8126 147.64 46.3166 145.12 42.8846 145.12C39.2606 145.12 36.7166 147.832 36.7166 151.192ZM42.8846 147.976C44.5886 147.976 45.1886 149.152 45.2846 149.968H40.5086C40.6526 149.128 41.2766 147.976 42.8846 147.976ZM49.6491 155.512C50.8731 156.592 53.0091 157.288 55.0731 157.288C58.4091 157.288 60.3531 155.656 60.3531 153.448C60.3531 150.376 57.4251 149.896 55.4571 149.56C54.2331 149.344 53.6091 149.152 53.6091 148.624C53.6091 148.12 54.2091 147.832 55.0731 147.832C56.4651 147.832 57.7851 148.432 58.4811 149.104L59.8971 146.656C58.6491 145.744 56.9931 145.12 55.0491 145.12C51.8331 145.12 50.0811 146.896 50.0811 148.936C50.0811 151.888 52.8651 152.296 54.8331 152.632C56.0331 152.824 56.8251 153.04 56.8251 153.64C56.8251 154.144 56.3691 154.504 55.2651 154.504C53.8971 154.504 52.0491 153.736 51.1851 152.968L49.6491 155.512ZM70.0821 157H73.7781V145.408H70.0821V152.896C69.6501 153.448 68.9301 154.024 67.8741 154.024C66.6741 154.024 65.9541 153.544 65.9541 152.152V145.408H62.2581V153.664C62.2581 155.8 63.4341 157.288 66.0741 157.288C68.0181 157.288 69.3621 156.424 70.0821 155.608V157ZM76.4612 157H80.1572V140.992H76.4612V157ZM87.2282 157.288C88.5962 157.288 89.5082 156.952 89.9642 156.52L89.2442 153.736C89.1242 153.88 88.7162 154.024 88.3082 154.024C87.6602 154.024 87.2762 153.52 87.2762 152.848V148.624H89.6282V145.408H87.2762V142.24H83.6042V145.408H81.6842V148.624H83.6042V153.88C83.6042 156.112 84.8762 157.288 87.2282 157.288ZM98.3246 157H102.021V149.752C102.021 146.152 99.4046 145.12 96.6206 145.12C94.8446 145.12 92.8526 145.648 91.3646 146.92L92.6846 149.248C93.6206 148.456 94.8206 148.024 95.9726 148.024C97.4606 148.024 98.3246 148.696 98.3246 149.704V151.168C97.6286 150.304 96.2606 149.824 94.7246 149.824C92.9486 149.824 90.7406 150.664 90.7406 153.472C90.7406 156.088 92.9486 157.288 94.7246 157.288C96.2126 157.288 97.6046 156.712 98.3246 155.848V157ZM98.3246 154.024C97.9406 154.576 97.0766 154.864 96.2606 154.864C95.2766 154.864 94.4126 154.432 94.4126 153.52C94.4126 152.608 95.2766 152.176 96.2606 152.176C97.0766 152.176 97.9406 152.464 98.3246 152.992V154.024ZM109.095 157.288C110.463 157.288 111.375 156.952 111.831 156.52L111.111 153.736C110.991 153.88 110.583 154.024 110.175 154.024C109.527 154.024 109.143 153.52 109.143 152.848V148.624H111.495V145.408H109.143V142.24H105.471V145.408H103.551V148.624H105.471V153.88C105.471 156.112 106.743 157.288 109.095 157.288ZM120.284 157H123.98V148.624H126.332V145.408H123.98V144.928C123.98 144.04 124.484 143.56 125.252 143.56C125.588 143.56 125.924 143.632 126.212 143.8L126.884 141.28C126.308 140.968 125.444 140.752 124.436 140.752C122.036 140.752 120.284 142.36 120.284 144.832V145.408H118.364V148.624H120.284V157ZM138.156 147.04L139.596 145.408H137.388L136.86 146.008C135.924 145.432 134.748 145.12 133.404 145.12C129.468 145.12 127.092 147.928 127.092 151.192C127.092 152.776 127.644 154.24 128.652 155.344L127.212 157H129.372L129.924 156.376C130.884 156.952 132.036 157.288 133.404 157.288C137.388 157.288 139.74 154.456 139.74 151.192C139.74 149.608 139.188 148.144 138.156 147.04ZM130.908 151.192C130.908 149.656 131.796 148.384 133.404 148.384C133.836 148.384 134.22 148.48 134.556 148.648L131.148 152.512C130.98 152.128 130.908 151.672 130.908 151.192ZM133.404 154.024C132.948 154.024 132.564 153.928 132.228 153.76L135.684 149.848C135.852 150.256 135.948 150.712 135.948 151.192C135.948 152.752 135.036 154.024 133.404 154.024ZM141.688 157H145.384V149.656C145.864 148.984 147.136 148.576 148.096 148.576C148.48 148.576 148.792 148.624 149.008 148.696V145.12C147.616 145.12 146.152 145.936 145.384 146.872V145.408H141.688V157ZM155.844 155.512C157.068 156.592 159.204 157.288 161.268 157.288C164.604 157.288 166.548 155.656 166.548 153.448C166.548 150.376 163.62 149.896 161.652 149.56C160.428 149.344 159.804 149.152 159.804 148.624C159.804 148.12 160.404 147.832 161.268 147.832C162.66 147.832 163.98 148.432 164.676 149.104L166.092 146.656C164.844 145.744 163.188 145.12 161.244 145.12C158.028 145.12 156.276 146.896 156.276 148.936C156.276 151.888 159.06 152.296 161.028 152.632C162.228 152.824 163.02 153.04 163.02 153.64C163.02 154.144 162.564 154.504 161.46 154.504C160.092 154.504 158.244 153.736 157.38 152.968L155.844 155.512ZM175.797 157H180.357L175.869 150.688L180.141 145.408H175.677L172.149 150.04V140.992H168.453V157H172.149V154.216L173.253 152.896L175.797 157ZM188.395 157H192.091V149.752C192.091 146.152 189.475 145.12 186.691 145.12C184.915 145.12 182.923 145.648 181.435 146.92L182.755 149.248C183.691 148.456 184.891 148.024 186.043 148.024C187.531 148.024 188.395 148.696 188.395 149.704V151.168C187.699 150.304 186.331 149.824 184.795 149.824C183.019 149.824 180.811 150.664 180.811 153.472C180.811 156.088 183.019 157.288 184.795 157.288C186.283 157.288 187.675 156.712 188.395 155.848V157ZM188.395 154.024C188.011 154.576 187.147 154.864 186.331 154.864C185.347 154.864 184.483 154.432 184.483 153.52C184.483 152.608 185.347 152.176 186.331 152.176C187.147 152.176 188.011 152.464 188.395 152.992V154.024ZM199.166 157.288C200.534 157.288 201.446 156.952 201.902 156.52L201.182 153.736C201.062 153.88 200.654 154.024 200.246 154.024C199.598 154.024 199.214 153.52 199.214 152.848V148.624H201.566V145.408H199.214V142.24H195.542V145.408H193.622V148.624H195.542V153.88C195.542 156.112 196.814 157.288 199.166 157.288Z" fill="#333333"/>
<path d="M419.92 157H421.912V140.992H420.16L416.152 145.12L417.352 146.344L419.92 143.632V157ZM425.797 155.344C426.805 156.496 428.197 157.264 430.237 157.264C434.725 157.264 436.741 153.328 436.741 149.008C436.741 144.64 435.037 140.728 430.549 140.728C427.069 140.728 424.957 143.2 424.957 145.96C424.957 149.368 427.333 151.072 430.213 151.072C432.253 151.072 434.029 149.68 434.725 148.576C434.749 148.792 434.749 149.008 434.749 149.224C434.749 152.248 433.477 155.488 430.237 155.488C428.581 155.488 427.621 154.816 426.805 153.856L425.797 155.344ZM434.653 146.968C433.813 148.384 432.253 149.344 430.669 149.344C428.605 149.344 426.973 148.24 426.973 145.888C426.973 144.376 428.197 142.504 430.645 142.504C433.429 142.504 434.485 144.976 434.653 146.968ZM439.257 157H450.249V155.224H442.401C446.865 151.696 450.177 148.72 450.177 145.456C450.177 142.264 447.465 140.752 444.801 140.752C442.545 140.752 440.457 141.664 439.233 143.272L440.457 144.544C441.393 143.344 442.881 142.528 444.801 142.528C446.457 142.528 448.137 143.416 448.137 145.456C448.137 148.216 445.017 150.88 439.257 155.416V157ZM454.326 160.048C455.43 159.256 456.294 157.888 456.294 156.424C456.294 155.272 455.574 154.6 454.782 154.6C454.062 154.6 453.51 155.2 453.51 155.896C453.51 156.616 453.99 157.12 454.662 157.12C454.782 157.12 454.95 157.096 454.998 157.072C454.902 157.864 454.206 158.8 453.438 159.304L454.326 160.048ZM458.298 154.648C459.282 156.088 461.274 157.288 463.986 157.288C467.514 157.288 469.65 155.344 469.65 152.68C469.65 150.112 467.418 148.864 465.954 148.744C467.466 148.48 469.41 147.328 469.41 145.024C469.41 142.312 467.058 140.752 463.986 140.752C461.514 140.752 459.666 141.832 458.514 143.224L459.618 144.472C460.794 143.2 462.09 142.528 463.842 142.528C465.786 142.528 467.418 143.488 467.418 145.264C467.418 147.112 465.714 147.904 463.698 147.904C463.05 147.904 462.306 147.904 462.042 147.88V149.704C462.282 149.68 463.026 149.68 463.698 149.68C466.05 149.68 467.682 150.52 467.682 152.512C467.682 154.36 466.266 155.512 463.938 155.512C462.042 155.512 460.41 154.648 459.474 153.4L458.298 154.648ZM492.94 157H494.74V148.624C494.74 146.296 493.612 145.12 491.5 145.12C489.82 145.12 488.26 146.224 487.612 147.28C487.276 146.08 486.268 145.12 484.492 145.12C482.788 145.12 481.228 146.344 480.748 147.088V145.408H478.948V157H480.748V148.528C481.372 147.592 482.62 146.728 483.796 146.728C485.308 146.728 485.932 147.664 485.932 149.128V157H487.732V148.504C488.332 147.592 489.604 146.728 490.804 146.728C492.292 146.728 492.94 147.664 492.94 149.128V157ZM499.219 143.536C499.891 143.536 500.443 143.008 500.443 142.336C500.443 141.664 499.891 141.112 499.219 141.112C498.571 141.112 498.019 141.664 498.019 142.336C498.019 143.008 498.571 143.536 499.219 143.536ZM498.331 157H500.131V145.408H498.331V157ZM508.786 157.288C512.314 157.288 514.522 154.552 514.522 151.192C514.522 147.832 512.314 145.12 508.786 145.12C505.258 145.12 503.05 147.832 503.05 151.192C503.05 154.552 505.258 157.288 508.786 157.288ZM508.786 155.68C506.314 155.68 504.922 153.568 504.922 151.192C504.922 148.84 506.314 146.728 508.786 146.728C511.258 146.728 512.626 148.84 512.626 151.192C512.626 153.568 511.258 155.68 508.786 155.68ZM516.932 155.92C516.932 156.64 517.532 157.24 518.252 157.24C518.972 157.24 519.572 156.64 519.572 155.92C519.572 155.2 518.972 154.6 518.252 154.6C517.532 154.6 516.932 155.2 516.932 155.92ZM536.907 157H539.211L534.051 150.664L539.187 145.408H536.907L530.811 151.576V140.992H529.011V157H530.811V153.688L532.731 151.792L536.907 157ZM541.339 157H543.139V148.792C543.667 147.856 545.179 146.944 546.283 146.944C546.571 146.944 546.787 146.968 547.003 147.016V145.168C545.419 145.168 544.075 146.056 543.139 147.28V145.408H541.339V157ZM546.909 155.92C546.909 156.64 547.509 157.24 548.229 157.24C548.949 157.24 549.549 156.64 549.549 155.92C549.549 155.2 548.949 154.6 548.229 154.6C547.509 154.6 546.909 155.2 546.909 155.92Z" fill="#333333"/>
<path d="M713.499 157H715.491V140.992H713.739L709.731 145.12L710.931 146.344L713.499 143.632V157ZM719.375 155.344C720.383 156.496 721.775 157.264 723.815 157.264C728.303 157.264 730.319 153.328 730.319 149.008C730.319 144.64 728.615 140.728 724.127 140.728C720.647 140.728 718.535 143.2 718.535 145.96C718.535 149.368 720.911 151.072 723.791 151.072C725.831 151.072 727.607 149.68 728.303 148.576C728.327 148.792 728.327 149.008 728.327 149.224C728.327 152.248 727.055 155.488 723.815 155.488C722.159 155.488 721.199 154.816 720.383 153.856L719.375 155.344ZM728.231 146.968C727.391 148.384 725.831 149.344 724.247 149.344C722.183 149.344 720.551 148.24 720.551 145.888C720.551 144.376 721.775 142.504 724.223 142.504C727.007 142.504 728.063 144.976 728.231 146.968ZM735.811 157H737.803V140.992H736.051L732.043 145.12L733.243 146.344L735.811 143.632V157ZM741.928 160.048C743.032 159.256 743.896 157.888 743.896 156.424C743.896 155.272 743.176 154.6 742.384 154.6C741.664 154.6 741.112 155.2 741.112 155.896C741.112 156.616 741.592 157.12 742.264 157.12C742.384 157.12 742.552 157.096 742.6 157.072C742.504 157.864 741.808 158.8 741.04 159.304L741.928 160.048ZM746.513 157H748.721L755.273 142.36V140.992H744.353V142.768H752.969L746.513 157ZM777.94 157H779.74V148.624C779.74 146.296 778.612 145.12 776.5 145.12C774.82 145.12 773.26 146.224 772.612 147.28C772.276 146.08 771.268 145.12 769.492 145.12C767.788 145.12 766.228 146.344 765.748 147.088V145.408H763.948V157H765.748V148.528C766.372 147.592 767.62 146.728 768.796 146.728C770.308 146.728 770.932 147.664 770.932 149.128V157H772.732V148.504C773.332 147.592 774.604 146.728 775.804 146.728C777.292 146.728 777.94 147.664 777.94 149.128V157ZM784.219 143.536C784.891 143.536 785.443 143.008 785.443 142.336C785.443 141.664 784.891 141.112 784.219 141.112C783.571 141.112 783.019 141.664 783.019 142.336C783.019 143.008 783.571 143.536 784.219 143.536ZM783.331 157H785.131V145.408H783.331V157ZM793.786 157.288C797.314 157.288 799.522 154.552 799.522 151.192C799.522 147.832 797.314 145.12 793.786 145.12C790.258 145.12 788.05 147.832 788.05 151.192C788.05 154.552 790.258 157.288 793.786 157.288ZM793.786 155.68C791.314 155.68 789.922 153.568 789.922 151.192C789.922 148.84 791.314 146.728 793.786 146.728C796.258 146.728 797.626 148.84 797.626 151.192C797.626 153.568 796.258 155.68 793.786 155.68ZM801.932 155.92C801.932 156.64 802.532 157.24 803.252 157.24C803.972 157.24 804.572 156.64 804.572 155.92C804.572 155.2 803.972 154.6 803.252 154.6C802.532 154.6 801.932 155.2 801.932 155.92ZM821.907 157H824.211L819.051 150.664L824.187 145.408H821.907L815.811 151.576V140.992H814.011V157H815.811V153.688L817.731 151.792L821.907 157ZM826.339 157H828.139V148.792C828.667 147.856 830.179 146.944 831.283 146.944C831.571 146.944 831.787 146.968 832.003 147.016V145.168C830.419 145.168 829.075 146.056 828.139 147.28V145.408H826.339V157ZM831.909 155.92C831.909 156.64 832.509 157.24 833.229 157.24C833.949 157.24 834.549 156.64 834.549 155.92C834.549 155.2 833.949 154.6 833.229 154.6C832.509 154.6 831.909 155.2 831.909 155.92Z" fill="#333333"/>
<path d="M22.44 217H34.176V213.52H26.568V210.64H34.008V207.136H26.568V204.472H34.176V200.992H22.44V217ZM36.1648 219.976C37.6528 221.2 39.3088 221.704 41.3008 221.704C44.1808 221.704 47.9248 220.696 47.9248 215.968V205.408H44.2528V206.776C43.3168 205.624 42.1168 205.12 40.8208 205.12C37.9168 205.12 35.7088 207.136 35.7088 210.952C35.7088 214.864 37.9888 216.808 40.8208 216.808C42.1408 216.808 43.2928 216.256 44.2528 215.128V216.016C44.2528 218.176 42.5248 218.68 41.3008 218.68C39.9568 218.68 38.6608 218.296 37.7728 217.336L36.1648 219.976ZM44.2528 212.512C43.7968 213.136 42.8128 213.544 42.0448 213.544C40.5808 213.544 39.5008 212.656 39.5008 210.952C39.5008 209.272 40.5808 208.384 42.0448 208.384C42.8128 208.384 43.7968 208.792 44.2528 209.416V212.512ZM49.8651 211.192C49.8651 214.96 52.6251 217.288 56.2011 217.288C57.9771 217.288 59.8971 216.784 61.0491 215.752L59.4891 213.448C58.8411 214.024 57.6891 214.432 56.6571 214.432C54.9291 214.432 53.9211 213.448 53.7051 212.368H61.9611V211.576C61.9611 207.64 59.4651 205.12 56.0331 205.12C52.4091 205.12 49.8651 207.832 49.8651 211.192ZM56.0331 207.976C57.7371 207.976 58.3371 209.152 58.4331 209.968H53.6571C53.8011 209.128 54.4251 207.976 56.0331 207.976ZM71.6295 217H75.3255V208.792C75.3255 206.656 74.1255 205.12 71.4855 205.12C69.5415 205.12 68.1735 206.008 67.4775 206.824V205.408H63.7815V217H67.4775V209.512C67.9095 208.984 68.6295 208.384 69.7335 208.384C70.8855 208.384 71.6295 208.888 71.6295 210.304V217ZM85.3521 217H89.9121L85.4241 210.688L89.6961 205.408H85.2321L81.7041 210.04V200.992H78.0081V217H81.7041V214.216L82.8081 212.896L85.3521 217ZM97.9496 217H101.646V209.752C101.646 206.152 99.0296 205.12 96.2456 205.12C94.4696 205.12 92.4776 205.648 90.9896 206.92L92.3096 209.248C93.2456 208.456 94.4456 208.024 95.5976 208.024C97.0856 208.024 97.9496 208.696 97.9496 209.704V211.168C97.2536 210.304 95.8856 209.824 94.3496 209.824C92.5736 209.824 90.3656 210.664 90.3656 213.472C90.3656 216.088 92.5736 217.288 94.3496 217.288C95.8376 217.288 97.2296 216.712 97.9496 215.848V217ZM97.9496 214.024C97.5656 214.576 96.7016 214.864 95.8856 214.864C94.9016 214.864 94.0376 214.432 94.0376 213.52C94.0376 212.608 94.9016 212.176 95.8856 212.176C96.7016 212.176 97.5656 212.464 97.9496 212.992V214.024ZM108.024 221.416V215.632C108.984 216.784 110.16 217.288 111.456 217.288C114.36 217.288 116.544 215.128 116.544 211.192C116.544 207.28 114.36 205.12 111.456 205.12C110.136 205.12 108.936 205.648 108.024 206.752V205.408H104.328V221.416H108.024ZM112.776 211.192C112.776 212.944 111.672 214.024 110.232 214.024C109.44 214.024 108.48 213.568 108.024 212.968V209.44C108.48 208.816 109.44 208.384 110.232 208.384C111.672 208.384 112.776 209.464 112.776 211.192ZM120.333 203.944C121.509 203.944 122.445 203.008 122.445 201.832C122.445 200.656 121.509 199.72 120.333 199.72C119.157 199.72 118.221 200.656 118.221 201.832C118.221 203.008 119.157 203.944 120.333 203.944ZM118.485 217H122.181V205.408H118.485V217ZM129.252 217.288C130.62 217.288 131.532 216.952 131.988 216.52L131.268 213.736C131.148 213.88 130.74 214.024 130.332 214.024C129.684 214.024 129.3 213.52 129.3 212.848V208.624H131.652V205.408H129.3V202.24H125.628V205.408H123.708V208.624H125.628V213.88C125.628 216.112 126.9 217.288 129.252 217.288ZM140.348 217H144.044V209.752C144.044 206.152 141.428 205.12 138.644 205.12C136.868 205.12 134.876 205.648 133.388 206.92L134.708 209.248C135.644 208.456 136.844 208.024 137.996 208.024C139.484 208.024 140.348 208.696 140.348 209.704V211.168C139.652 210.304 138.284 209.824 136.748 209.824C134.972 209.824 132.764 210.664 132.764 213.472C132.764 216.088 134.972 217.288 136.748 217.288C138.236 217.288 139.628 216.712 140.348 215.848V217ZM140.348 214.024C139.964 214.576 139.1 214.864 138.284 214.864C137.3 214.864 136.436 214.432 136.436 213.52C136.436 212.608 137.3 212.176 138.284 212.176C139.1 212.176 139.964 212.464 140.348 212.992V214.024ZM146.727 217H150.423V200.992H146.727V217Z" fill="#333333"/>
<path d="M418.704 217H420.696V212.944H422.952V211.192H420.696V200.992H417.96L411.096 211.288V212.944H418.704V217ZM418.704 202.84V211.192H413.088L418.704 202.84ZM424.935 209.032C424.935 213.376 426.639 217.288 431.103 217.288C434.607 217.288 436.719 214.84 436.719 212.056C436.719 208.648 434.367 206.944 431.487 206.944C429.423 206.944 427.647 208.336 426.951 209.44C426.927 209.224 426.927 209.032 426.927 208.816C426.927 205.672 428.343 202.528 431.439 202.528C433.119 202.528 434.055 203.2 434.871 204.16L435.879 202.672C434.895 201.544 433.503 200.752 431.439 200.752C426.951 200.752 424.935 204.688 424.935 209.032ZM434.703 212.128C434.703 213.664 433.503 215.512 431.031 215.512C428.247 215.512 427.191 213.064 426.999 211.072C427.887 209.656 429.423 208.672 431.007 208.672C433.071 208.672 434.703 209.776 434.703 212.128ZM439.115 209.032C439.115 213.376 440.819 217.288 445.283 217.288C448.787 217.288 450.899 214.84 450.899 212.056C450.899 208.648 448.547 206.944 445.667 206.944C443.603 206.944 441.827 208.336 441.131 209.44C441.107 209.224 441.107 209.032 441.107 208.816C441.107 205.672 442.523 202.528 445.619 202.528C447.299 202.528 448.235 203.2 449.051 204.16L450.059 202.672C449.075 201.544 447.683 200.752 445.619 200.752C441.131 200.752 439.115 204.688 439.115 209.032ZM448.883 212.128C448.883 213.664 447.683 215.512 445.211 215.512C442.427 215.512 441.371 213.064 441.179 211.072C442.067 209.656 443.603 208.672 445.187 208.672C447.251 208.672 448.883 209.776 448.883 212.128ZM454.326 220.048C455.43 219.256 456.294 217.888 456.294 216.424C456.294 215.272 455.574 214.6 454.782 214.6C454.062 214.6 453.51 215.2 453.51 215.896C453.51 216.616 453.99 217.12 454.662 217.12C454.782 217.12 454.95 217.096 454.998 217.072C454.902 217.864 454.206 218.8 453.438 219.304L454.326 220.048ZM458.298 214.648C459.282 216.088 461.274 217.288 463.986 217.288C467.514 217.288 469.65 215.344 469.65 212.68C469.65 210.112 467.418 208.864 465.954 208.744C467.466 208.48 469.41 207.328 469.41 205.024C469.41 202.312 467.058 200.752 463.986 200.752C461.514 200.752 459.666 201.832 458.514 203.224L459.618 204.472C460.794 203.2 462.09 202.528 463.842 202.528C465.786 202.528 467.418 203.488 467.418 205.264C467.418 207.112 465.714 207.904 463.698 207.904C463.05 207.904 462.306 207.904 462.042 207.88V209.704C462.282 209.68 463.026 209.68 463.698 209.68C466.05 209.68 467.682 210.52 467.682 212.512C467.682 214.36 466.266 215.512 463.938 215.512C462.042 215.512 460.41 214.648 459.474 213.4L458.298 214.648ZM492.94 217H494.74V208.624C494.74 206.296 493.612 205.12 491.5 205.12C489.82 205.12 488.26 206.224 487.612 207.28C487.276 206.08 486.268 205.12 484.492 205.12C482.788 205.12 481.228 206.344 480.748 207.088V205.408H478.948V217H480.748V208.528C481.372 207.592 482.62 206.728 483.796 206.728C485.308 206.728 485.932 207.664 485.932 209.128V217H487.732V208.504C488.332 207.592 489.604 206.728 490.804 206.728C492.292 206.728 492.94 207.664 492.94 209.128V217ZM499.219 203.536C499.891 203.536 500.443 203.008 500.443 202.336C500.443 201.664 499.891 201.112 499.219 201.112C498.571 201.112 498.019 201.664 498.019 202.336C498.019 203.008 498.571 203.536 499.219 203.536ZM498.331 217H500.131V205.408H498.331V217ZM508.786 217.288C512.314 217.288 514.522 214.552 514.522 211.192C514.522 207.832 512.314 205.12 508.786 205.12C505.258 205.12 503.05 207.832 503.05 211.192C503.05 214.552 505.258 217.288 508.786 217.288ZM508.786 215.68C506.314 215.68 504.922 213.568 504.922 211.192C504.922 208.84 506.314 206.728 508.786 206.728C511.258 206.728 512.626 208.84 512.626 211.192C512.626 213.568 511.258 215.68 508.786 215.68ZM516.932 215.92C516.932 216.64 517.532 217.24 518.252 217.24C518.972 217.24 519.572 216.64 519.572 215.92C519.572 215.2 518.972 214.6 518.252 214.6C517.532 214.6 516.932 215.2 516.932 215.92ZM536.907 217H539.211L534.051 210.664L539.187 205.408H536.907L530.811 211.576V200.992H529.011V217H530.811V213.688L532.731 211.792L536.907 217ZM541.339 217H543.139V208.792C543.667 207.856 545.179 206.944 546.283 206.944C546.571 206.944 546.787 206.968 547.003 207.016V205.168C545.419 205.168 544.075 206.056 543.139 207.28V205.408H541.339V217ZM546.909 215.92C546.909 216.64 547.509 217.24 548.229 217.24C548.949 217.24 549.549 216.64 549.549 215.92C549.549 215.2 548.949 214.6 548.229 214.6C547.509 214.6 546.909 215.2 546.909 215.92Z" fill="#333333"/>
<path d="M705.516 214.648C706.5 216.088 708.492 217.288 711.204 217.288C714.732 217.288 716.868 215.344 716.868 212.68C716.868 210.112 714.636 208.864 713.172 208.744C714.684 208.48 716.628 207.328 716.628 205.024C716.628 202.312 714.276 200.752 711.204 200.752C708.732 200.752 706.884 201.832 705.732 203.224L706.836 204.472C708.012 203.2 709.308 202.528 711.06 202.528C713.004 202.528 714.636 203.488 714.636 205.264C714.636 207.112 712.932 207.904 710.916 207.904C710.268 207.904 709.524 207.904 709.26 207.88V209.704C709.5 209.68 710.244 209.68 710.916 209.68C713.268 209.68 714.9 210.52 714.9 212.512C714.9 214.36 713.484 215.512 711.156 215.512C709.26 215.512 707.628 214.648 706.692 213.4L705.516 214.648ZM718.876 214.648C719.86 216.088 721.852 217.288 724.564 217.288C728.092 217.288 730.228 215.344 730.228 212.68C730.228 210.112 727.996 208.864 726.532 208.744C728.044 208.48 729.988 207.328 729.988 205.024C729.988 202.312 727.636 200.752 724.564 200.752C722.092 200.752 720.244 201.832 719.092 203.224L720.196 204.472C721.372 203.2 722.668 202.528 724.42 202.528C726.364 202.528 727.996 203.488 727.996 205.264C727.996 207.112 726.292 207.904 724.276 207.904C723.628 207.904 722.884 207.904 722.62 207.88V209.704C722.86 209.68 723.604 209.68 724.276 209.68C726.628 209.68 728.26 210.52 728.26 212.512C728.26 214.36 726.844 215.512 724.516 215.512C722.62 215.512 720.988 214.648 720.052 213.4L718.876 214.648ZM735.811 217H737.803V200.992H736.051L732.043 205.12L733.243 206.344L735.811 203.632V217ZM741.928 220.048C743.032 219.256 743.896 217.888 743.896 216.424C743.896 215.272 743.176 214.6 742.384 214.6C741.664 214.6 741.112 215.2 741.112 215.896C741.112 216.616 741.592 217.12 742.264 217.12C742.384 217.12 742.552 217.096 742.6 217.072C742.504 217.864 741.808 218.8 741.04 219.304L741.928 220.048ZM746.513 217H748.721L755.273 202.36V200.992H744.353V202.768H752.969L746.513 217ZM777.94 217H779.74V208.624C779.74 206.296 778.612 205.12 776.5 205.12C774.82 205.12 773.26 206.224 772.612 207.28C772.276 206.08 771.268 205.12 769.492 205.12C767.788 205.12 766.228 206.344 765.748 207.088V205.408H763.948V217H765.748V208.528C766.372 207.592 767.62 206.728 768.796 206.728C770.308 206.728 770.932 207.664 770.932 209.128V217H772.732V208.504C773.332 207.592 774.604 206.728 775.804 206.728C777.292 206.728 777.94 207.664 777.94 209.128V217ZM784.219 203.536C784.891 203.536 785.443 203.008 785.443 202.336C785.443 201.664 784.891 201.112 784.219 201.112C783.571 201.112 783.019 201.664 783.019 202.336C783.019 203.008 783.571 203.536 784.219 203.536ZM783.331 217H785.131V205.408H783.331V217ZM793.786 217.288C797.314 217.288 799.522 214.552 799.522 211.192C799.522 207.832 797.314 205.12 793.786 205.12C790.258 205.12 788.05 207.832 788.05 211.192C788.05 214.552 790.258 217.288 793.786 217.288ZM793.786 215.68C791.314 215.68 789.922 213.568 789.922 211.192C789.922 208.84 791.314 206.728 793.786 206.728C796.258 206.728 797.626 208.84 797.626 211.192C797.626 213.568 796.258 215.68 793.786 215.68ZM801.932 215.92C801.932 216.64 802.532 217.24 803.252 217.24C803.972 217.24 804.572 216.64 804.572 215.92C804.572 215.2 803.972 214.6 803.252 214.6C802.532 214.6 801.932 215.2 801.932 215.92ZM821.907 217H824.211L819.051 210.664L824.187 205.408H821.907L815.811 211.576V200.992H814.011V217H815.811V213.688L817.731 211.792L821.907 217ZM826.339 217H828.139V208.792C828.667 207.856 830.179 206.944 831.283 206.944C831.571 206.944 831.787 206.968 832.003 207.016V205.168C830.419 205.168 829.075 206.056 828.139 207.28V205.408H826.339V217ZM831.909 215.92C831.909 216.64 832.509 217.24 833.229 217.24C833.949 217.24 834.549 216.64 834.549 215.92C834.549 215.2 833.949 214.6 833.229 214.6C832.509 214.6 831.909 215.2 831.909 215.92Z" fill="#333333"/>
<line x1="1150" y1="179.5" x2="1535" y2="179.5" stroke="#004376"/>
</g>
<defs>
<clipPath id="clip0">
<rect width="1152" height="240" fill="white"/>
</clipPath>
</defs>
</svg>
