<svg xmlns="http://www.w3.org/2000/svg" viewBox="0 0 136.06 91.12"><defs><style>.cls-1{fill:#fff;}.cls-2{fill:#e60004;}.cls-3{fill:#2f207d;}.cls-4{fill:none;}</style></defs><g id="Layer_2" data-name="Layer 2"><g id="Layer_1-2" data-name="Layer 1"><rect class="cls-1" width="136.06" height="91.12"/><rect class="cls-2" width="136.06" height="7.15"/><rect class="cls-2" y="13.99" width="136.06" height="7.15"/><rect class="cls-2" y="27.99" width="136.06" height="7.16"/><rect class="cls-2" y="41.98" width="136.06" height="7.16"/><rect class="cls-2" y="55.98" width="136.06" height="7.16"/><rect class="cls-2" y="69.97" width="136.06" height="7.16"/><rect class="cls-2" y="83.96" width="136.06" height="7.16"/><rect class="cls-3" width="61.23" height="49.13"/><polygon class="cls-1" points="5.03 5.92 6.58 7.04 5.99 5.23 7.54 4.1 5.63 4.1 5.03 2.28 4.44 4.1 2.53 4.1 4.08 5.23 3.49 7.04 5.03 5.92"/><polygon class="cls-1" points="15.27 5.92 16.81 7.04 16.22 5.23 17.77 4.1 15.86 4.1 15.27 2.28 14.67 4.1 12.77 4.1 14.31 5.23 13.72 7.04 15.27 5.92"/><polygon class="cls-1" points="25.5 5.92 27.05 7.04 26.46 5.23 28 4.1 26.1 4.1 25.5 2.28 24.91 4.1 23 4.1 24.54 5.23 23.95 7.04 25.5 5.92"/><polygon class="cls-1" points="35.73 5.92 37.28 7.04 36.69 5.23 38.23 4.1 36.33 4.1 35.73 2.28 35.14 4.1 33.23 4.1 34.77 5.23 34.18 7.04 35.73 5.92"/><polygon class="cls-1" points="45.96 5.92 47.51 7.04 46.92 5.23 48.47 4.1 46.56 4.1 45.96 2.28 45.37 4.1 43.46 4.1 45.01 5.23 44.42 7.04 45.96 5.92"/><polygon class="cls-1" points="56.19 5.92 57.74 7.04 57.15 5.23 58.7 4.1 56.78 4.1 56.19 2.28 55.6 4.1 53.69 4.1 55.24 5.23 54.65 7.04 56.19 5.92"/><polygon class="cls-1" points="10.15 10.87 11.7 11.99 11.11 10.17 12.65 9.05 10.74 9.05 10.15 7.23 9.56 9.05 7.65 9.05 9.2 10.17 8.61 11.99 10.15 10.87"/><polygon class="cls-1" points="20.38 10.87 21.93 11.99 21.34 10.17 22.89 9.05 20.98 9.05 20.38 7.23 19.79 9.05 17.88 9.05 19.43 10.17 18.84 11.99 20.38 10.87"/><polygon class="cls-1" points="30.62 10.87 32.16 11.99 31.58 10.17 33.12 9.05 31.21 9.05 30.62 7.23 30.03 9.05 28.11 9.05 29.66 10.17 29.07 11.99 30.62 10.87"/><polygon class="cls-1" points="40.85 10.87 42.39 11.99 41.8 10.17 43.35 9.05 41.44 9.05 40.85 7.23 40.26 9.05 38.35 9.05 39.89 10.17 39.3 11.99 40.85 10.87"/><polygon class="cls-1" points="51.08 10.87 52.63 11.99 52.04 10.17 53.58 9.05 51.67 9.05 51.08 7.23 50.49 9.05 48.58 9.05 50.12 10.17 49.53 11.99 51.08 10.87"/><polygon class="cls-1" points="5.03 15.81 6.58 16.93 5.99 15.11 7.54 13.99 5.63 13.99 5.03 12.17 4.44 13.99 2.53 13.99 4.08 15.11 3.49 16.93 5.03 15.81"/><polygon class="cls-1" points="15.27 15.81 16.81 16.93 16.22 15.11 17.77 13.99 15.86 13.99 15.27 12.17 14.67 13.99 12.77 13.99 14.31 15.11 13.72 16.93 15.27 15.81"/><polygon class="cls-1" points="25.5 15.81 27.05 16.93 26.46 15.11 28 13.99 26.1 13.99 25.5 12.17 24.91 13.99 23 13.99 24.54 15.11 23.95 16.93 25.5 15.81"/><polygon class="cls-1" points="35.73 15.81 37.28 16.93 36.69 15.11 38.23 13.99 36.33 13.99 35.73 12.17 35.14 13.99 33.23 13.99 34.77 15.11 34.18 16.93 35.73 15.81"/><polygon class="cls-1" points="45.96 15.81 47.51 16.93 46.92 15.11 48.47 13.99 46.56 13.99 45.96 12.17 45.37 13.99 43.46 13.99 45.01 15.11 44.42 16.93 45.96 15.81"/><polygon class="cls-1" points="56.19 15.81 57.74 16.93 57.15 15.11 58.7 13.99 56.78 13.99 56.19 12.17 55.6 13.99 53.69 13.99 55.24 15.11 54.65 16.93 56.19 15.81"/><polygon class="cls-1" points="10.15 20.75 11.7 21.87 11.11 20.05 12.65 18.93 10.74 18.93 10.15 17.11 9.56 18.93 7.65 18.93 9.2 20.05 8.61 21.87 10.15 20.75"/><polygon class="cls-1" points="20.38 20.75 21.93 21.87 21.34 20.05 22.89 18.93 20.98 18.93 20.38 17.11 19.79 18.93 17.88 18.93 19.43 20.05 18.84 21.87 20.38 20.75"/><polygon class="cls-1" points="30.62 20.75 32.16 21.87 31.58 20.05 33.12 18.93 31.21 18.93 30.62 17.11 30.03 18.93 28.11 18.93 29.66 20.05 29.07 21.87 30.62 20.75"/><polygon class="cls-1" points="40.85 20.75 42.39 21.87 41.8 20.05 43.35 18.93 41.44 18.93 40.85 17.11 40.26 18.93 38.35 18.93 39.89 20.05 39.3 21.87 40.85 20.75"/><polygon class="cls-1" points="51.08 20.75 52.63 21.87 52.04 20.05 53.58 18.93 51.67 18.93 51.08 17.11 50.49 18.93 48.58 18.93 50.12 20.05 49.53 21.87 51.08 20.75"/><polygon class="cls-1" points="5.03 25.69 6.58 26.82 5.99 25 7.54 23.87 5.63 23.87 5.03 22.06 4.44 23.87 2.53 23.87 4.08 25 3.49 26.82 5.03 25.69"/><polygon class="cls-1" points="15.27 25.69 16.81 26.82 16.22 25 17.77 23.87 15.86 23.87 15.27 22.06 14.67 23.87 12.77 23.87 14.31 25 13.72 26.82 15.27 25.69"/><polygon class="cls-1" points="25.5 25.69 27.05 26.82 26.46 25 28 23.87 26.1 23.87 25.5 22.06 24.91 23.87 23 23.87 24.54 25 23.95 26.82 25.5 25.69"/><polygon class="cls-1" points="35.73 25.69 37.28 26.82 36.69 25 38.23 23.87 36.33 23.87 35.73 22.06 35.14 23.87 33.23 23.87 34.77 25 34.18 26.82 35.73 25.69"/><polygon class="cls-1" points="45.96 25.69 47.51 26.82 46.92 25 48.47 23.87 46.56 23.87 45.96 22.06 45.37 23.87 43.46 23.87 45.01 25 44.42 26.82 45.96 25.69"/><polygon class="cls-1" points="56.19 25.69 57.74 26.82 57.15 25 58.7 23.87 56.78 23.87 56.19 22.06 55.6 23.87 53.69 23.87 55.24 25 54.65 26.82 56.19 25.69"/><polygon class="cls-1" points="10.15 30.64 11.7 31.76 11.11 29.94 12.65 28.82 10.74 28.82 10.15 27 9.56 28.82 7.65 28.82 9.2 29.94 8.61 31.76 10.15 30.64"/><polygon class="cls-1" points="20.38 30.64 21.93 31.76 21.34 29.94 22.89 28.82 20.98 28.82 20.38 27 19.79 28.82 17.88 28.82 19.43 29.94 18.84 31.76 20.38 30.64"/><polygon class="cls-1" points="30.62 30.64 32.16 31.76 31.58 29.94 33.12 28.82 31.21 28.82 30.62 27 30.03 28.82 28.11 28.82 29.66 29.94 29.07 31.76 30.62 30.64"/><polygon class="cls-1" points="40.85 30.64 42.39 31.76 41.8 29.94 43.35 28.82 41.44 28.82 40.85 27 40.26 28.82 38.35 28.82 39.89 29.94 39.3 31.76 40.85 30.64"/><polygon class="cls-1" points="51.08 30.64 52.63 31.76 52.04 29.94 53.58 28.82 51.67 28.82 51.08 27 50.49 28.82 48.58 28.82 50.12 29.94 49.53 31.76 51.08 30.64"/><polygon class="cls-1" points="5.03 35.58 6.58 36.7 5.99 34.88 7.54 33.76 5.63 33.76 5.03 31.94 4.44 33.76 2.53 33.76 4.08 34.88 3.49 36.7 5.03 35.58"/><polygon class="cls-1" points="15.27 35.58 16.81 36.7 16.22 34.88 17.77 33.76 15.86 33.76 15.27 31.94 14.67 33.76 12.77 33.76 14.31 34.88 13.72 36.7 15.27 35.58"/><polygon class="cls-1" points="25.5 35.58 27.05 36.7 26.46 34.88 28 33.76 26.1 33.76 25.5 31.94 24.91 33.76 23 33.76 24.54 34.88 23.95 36.7 25.5 35.58"/><polygon class="cls-1" points="35.73 35.58 37.28 36.7 36.69 34.88 38.23 33.76 36.33 33.76 35.73 31.94 35.14 33.76 33.23 33.76 34.77 34.88 34.18 36.7 35.73 35.58"/><polygon class="cls-1" points="45.96 35.58 47.51 36.7 46.92 34.88 48.47 33.76 46.56 33.76 45.96 31.94 45.37 33.76 43.46 33.76 45.01 34.88 44.42 36.7 45.96 35.58"/><polygon class="cls-1" points="56.19 35.58 57.74 36.7 57.15 34.88 58.7 33.76 56.78 33.76 56.19 31.94 55.6 33.76 53.69 33.76 55.24 34.88 54.65 36.7 56.19 35.58"/><polygon class="cls-1" points="10.15 40.52 11.7 41.65 11.11 39.83 12.65 38.7 10.74 38.7 10.15 36.88 9.56 38.7 7.65 38.7 9.2 39.83 8.61 41.65 10.15 40.52"/><polygon class="cls-1" points="20.38 40.52 21.93 41.65 21.34 39.83 22.89 38.7 20.98 38.7 20.38 36.88 19.79 38.7 17.88 38.7 19.43 39.83 18.84 41.65 20.38 40.52"/><polygon class="cls-1" points="30.62 40.52 32.16 41.65 31.58 39.83 33.12 38.7 31.21 38.7 30.62 36.88 30.03 38.7 28.11 38.7 29.66 39.83 29.07 41.65 30.62 40.52"/><polygon class="cls-1" points="40.85 40.52 42.39 41.65 41.8 39.83 43.35 38.7 41.44 38.7 40.85 36.88 40.26 38.7 38.35 38.7 39.89 39.83 39.3 41.65 40.85 40.52"/><polygon class="cls-1" points="51.08 40.52 52.63 41.65 52.04 39.83 53.58 38.7 51.67 38.7 51.08 36.88 50.49 38.7 48.58 38.7 50.12 39.83 49.53 41.65 51.08 40.52"/><polygon class="cls-1" points="5.03 45.46 6.58 46.59 5.99 44.77 7.54 43.65 5.63 43.65 5.03 41.83 4.44 43.65 2.53 43.65 4.08 44.77 3.49 46.59 5.03 45.46"/><polygon class="cls-1" points="15.27 45.46 16.81 46.59 16.22 44.77 17.77 43.65 15.86 43.65 15.27 41.83 14.67 43.65 12.77 43.65 14.31 44.77 13.72 46.59 15.27 45.46"/><polygon class="cls-1" points="25.5 45.46 27.05 46.59 26.46 44.77 28 43.65 26.1 43.65 25.5 41.83 24.91 43.65 23 43.65 24.54 44.77 23.95 46.59 25.5 45.46"/><polygon class="cls-1" points="35.73 45.46 37.28 46.59 36.69 44.77 38.23 43.65 36.33 43.65 35.73 41.83 35.14 43.65 33.23 43.65 34.77 44.77 34.18 46.59 35.73 45.46"/><polygon class="cls-1" points="45.96 45.46 47.51 46.59 46.92 44.77 48.47 43.65 46.56 43.65 45.96 41.83 45.37 43.65 43.46 43.65 45.01 44.77 44.42 46.59 45.96 45.46"/><polygon class="cls-1" points="56.19 45.46 57.74 46.59 57.15 44.77 58.7 43.65 56.78 43.65 56.19 41.83 55.6 43.65 53.69 43.65 55.24 44.77 54.65 46.59 56.19 45.46"/><rect class="cls-4" width="136.06" height="91.12"/></g></g></svg>