<svg width="1152" height="240" viewBox="0 0 1152 240" fill="none" xmlns="http://www.w3.org/2000/svg">
<g clip-path="url(#clip0)">
<rect width="1152" height="240" fill="white"/>
<rect x="384" y="120" width="768" height="60" fill="white"/>
<rect x="384" y="180" width="768" height="60" fill="white"/>
<rect width="287" height="240" fill="#F2F1E8"/>
<rect width="1152" height="60" fill="#0060A9"/>
<line x1="1" y1="179.5" x2="1152" y2="179.5" stroke="#004376"/>
<line x1="1" y1="59.5" x2="1150" y2="59.5" stroke="#004376"/>
<line x1="1" y1="119.5" x2="1151" y2="119.5" stroke="#004376"/>
<line x1="287.5" y1="2.18557e-08" x2="287.5" y2="240" stroke="#004376"/>
<line x1="574.5" y1="2.18557e-08" x2="574.5" y2="240" stroke="#004376"/>
<line x1="861.5" y1="2.18557e-08" x2="861.5" y2="240" stroke="#004376"/>
<rect x="0.5" y="0.5" width="1151" height="239" stroke="#004376"/>
<path d="M392.502 39H409.238V34.2H401.014C406.742 30.488 409.078 27.704 409.078 24.44C409.078 20.152 405.462 17.336 400.438 17.336C397.462 17.336 394.07 18.392 391.798 20.888L394.838 24.536C396.374 23.096 398.166 22.2 400.438 22.2C402.102 22.2 403.478 22.968 403.478 24.44C403.478 26.552 401.75 28.024 392.502 34.712V39ZM411.363 28.344C411.363 33.976 414.275 39.384 420.515 39.384C426.755 39.384 429.667 33.976 429.667 28.344C429.667 22.712 426.755 17.336 420.515 17.336C414.275 17.336 411.363 22.712 411.363 28.344ZM424.099 28.344C424.099 32.12 423.075 34.52 420.515 34.52C417.955 34.52 416.931 32.12 416.931 28.344C416.931 24.568 417.955 22.2 420.515 22.2C423.075 22.2 424.099 24.568 424.099 28.344ZM431.908 39H448.644V34.2H440.42C446.148 30.488 448.484 27.704 448.484 24.44C448.484 20.152 444.868 17.336 439.844 17.336C436.868 17.336 433.476 18.392 431.204 20.888L434.244 24.536C435.78 23.096 437.572 22.2 439.844 22.2C441.508 22.2 442.884 22.968 442.884 24.44C442.884 26.552 441.156 28.024 431.908 34.712V39ZM450.77 28.344C450.77 33.976 453.682 39.384 459.922 39.384C466.162 39.384 469.074 33.976 469.074 28.344C469.074 22.712 466.162 17.336 459.922 17.336C453.682 17.336 450.77 22.712 450.77 28.344ZM463.506 28.344C463.506 32.12 462.482 34.52 459.922 34.52C457.362 34.52 456.338 32.12 456.338 28.344C456.338 24.568 457.362 22.2 459.922 22.2C462.482 22.2 463.506 24.568 463.506 28.344Z" fill="white"/>
<path d="M682.674 40H699.41V35.2H691.186C696.914 31.488 699.25 28.704 699.25 25.44C699.25 21.152 695.634 18.336 690.61 18.336C687.634 18.336 684.242 19.392 681.97 21.888L685.01 25.536C686.546 24.096 688.338 23.2 690.61 23.2C692.274 23.2 693.65 23.968 693.65 25.44C693.65 27.552 691.922 29.024 682.674 35.712V40ZM701.535 29.344C701.535 34.976 704.447 40.384 710.687 40.384C716.927 40.384 719.839 34.976 719.839 29.344C719.839 23.712 716.927 18.336 710.687 18.336C704.447 18.336 701.535 23.712 701.535 29.344ZM714.271 29.344C714.271 33.12 713.247 35.52 710.687 35.52C708.127 35.52 707.103 33.12 707.103 29.344C707.103 25.568 708.127 23.2 710.687 23.2C713.247 23.2 714.271 25.568 714.271 29.344ZM727.552 40H733.056V18.656H728.288L720.832 26.016L723.968 29.312L727.552 25.696V40ZM736.84 38.304C738.44 39.584 740.808 40.352 743.304 40.352C749.768 40.352 753.864 36.096 753.864 29.312C753.864 23.168 750.92 18.304 744.168 18.304C739.208 18.304 735.656 21.408 735.656 25.792C735.656 30.336 739.24 32.736 743.08 32.736C745.224 32.736 747.24 31.68 748.296 30.272V30.528C748.296 33.44 746.248 35.68 743.304 35.68C741.576 35.68 740.392 35.232 739.208 34.272L736.84 38.304ZM748.296 26.784C747.368 27.712 746.056 28.224 744.712 28.224C742.984 28.224 741.256 27.456 741.256 25.568C741.256 24.288 742.376 22.976 744.424 22.976C747.112 22.976 748.168 25.024 748.296 26.784Z" fill="white"/>
<path d="M908.951 40H917.943C924.631 40 929.463 35.936 929.463 29.312C929.463 22.688 924.631 18.656 917.911 18.656H908.951V40ZM914.455 35.2V23.456H917.943C921.847 23.456 923.831 26.016 923.831 29.312C923.831 32.48 921.655 35.2 917.911 35.2H914.455ZM931.049 32.256C931.049 37.28 934.729 40.384 939.497 40.384C941.865 40.384 944.425 39.712 945.961 38.336L943.881 35.264C943.017 36.032 941.481 36.576 940.105 36.576C937.801 36.576 936.457 35.264 936.169 33.824H947.177V32.768C947.177 27.52 943.849 24.16 939.273 24.16C934.441 24.16 931.049 27.776 931.049 32.256ZM939.273 27.968C941.545 27.968 942.345 29.536 942.473 30.624H936.105C936.297 29.504 937.129 27.968 939.273 27.968ZM953.573 40H958.821L964.901 24.544H959.685L956.165 34.336L952.677 24.544H947.492L953.573 40ZM965.362 32.256C965.362 37.28 969.042 40.384 973.81 40.384C976.178 40.384 978.738 39.712 980.274 38.336L978.194 35.264C977.33 36.032 975.794 36.576 974.418 36.576C972.114 36.576 970.77 35.264 970.482 33.824H981.49V32.768C981.49 27.52 978.162 24.16 973.586 24.16C968.754 24.16 965.362 27.776 965.362 32.256ZM973.586 27.968C975.858 27.968 976.658 29.536 976.786 30.624H970.418C970.61 29.504 971.442 27.968 973.586 27.968ZM983.917 40H988.845V18.656H983.917V40ZM999.809 40.384C1005.12 40.384 1008.26 36.608 1008.26 32.256C1008.26 27.904 1005.12 24.16 999.809 24.16C994.561 24.16 991.393 27.904 991.393 32.256C991.393 36.608 994.561 40.384 999.809 40.384ZM999.809 36.032C997.665 36.032 996.481 34.336 996.481 32.256C996.481 30.208 997.665 28.512 999.809 28.512C1001.99 28.512 1003.2 30.208 1003.2 32.256C1003.2 34.336 1001.99 36.032 999.809 36.032ZM1015.78 45.888V38.176C1017.06 39.712 1018.63 40.384 1020.36 40.384C1024.23 40.384 1027.14 37.504 1027.14 32.256C1027.14 27.04 1024.23 24.16 1020.36 24.16C1018.6 24.16 1017 24.864 1015.78 26.336V24.544H1010.85V45.888H1015.78ZM1022.12 32.256C1022.12 34.592 1020.65 36.032 1018.73 36.032C1017.67 36.032 1016.39 35.424 1015.78 34.624V29.92C1016.39 29.088 1017.67 28.512 1018.73 28.512C1020.65 28.512 1022.12 29.952 1022.12 32.256ZM1049.22 40H1054.11V28.8C1054.11 25.632 1052.32 24.16 1049.47 24.16C1047.04 24.16 1045.03 25.568 1044.13 26.912C1043.49 25.088 1041.95 24.16 1039.75 24.16C1037.31 24.16 1035.33 25.536 1034.66 26.432V24.544H1029.73V40H1034.66V30.016C1035.17 29.376 1036.1 28.512 1037.41 28.512C1038.91 28.512 1039.46 29.408 1039.46 30.592V40H1044.39V30.016C1044.87 29.376 1045.83 28.512 1047.17 28.512C1048.64 28.512 1049.22 29.408 1049.22 30.592V40ZM1056.71 32.256C1056.71 37.28 1060.39 40.384 1065.15 40.384C1067.52 40.384 1070.08 39.712 1071.62 38.336L1069.54 35.264C1068.67 36.032 1067.14 36.576 1065.76 36.576C1063.46 36.576 1062.11 35.264 1061.83 33.824H1072.83V32.768C1072.83 27.52 1069.51 24.16 1064.93 24.16C1060.1 24.16 1056.71 27.776 1056.71 32.256ZM1064.93 27.968C1067.2 27.968 1068 29.536 1068.13 30.624H1061.76C1061.95 29.504 1062.79 27.968 1064.93 27.968ZM1085.72 40H1090.65V29.056C1090.65 26.208 1089.05 24.16 1085.53 24.16C1082.94 24.16 1081.12 25.344 1080.19 26.432V24.544H1075.26V40H1080.19V30.016C1080.76 29.312 1081.72 28.512 1083.2 28.512C1084.73 28.512 1085.72 29.184 1085.72 31.072V40ZM1100.09 40.384C1101.91 40.384 1103.13 39.936 1103.73 39.36L1102.77 35.648C1102.61 35.84 1102.07 36.032 1101.53 36.032C1100.66 36.032 1100.15 35.36 1100.15 34.464V28.832H1103.29V24.544H1100.15V20.32H1095.25V24.544H1092.69V28.832H1095.25V35.84C1095.25 38.816 1096.95 40.384 1100.09 40.384Z" fill="white"/>
<path d="M26.016 97H30.144V84.592H34.608V80.992H21.528V84.592H26.016V97ZM42.8946 97H46.5906V85.408H42.8946V92.896C42.4626 93.448 41.7426 94.024 40.6866 94.024C39.4866 94.024 38.7666 93.544 38.7666 92.152V85.408H35.0706V93.664C35.0706 95.8 36.2466 97.288 38.8866 97.288C40.8306 97.288 42.1746 96.424 42.8946 95.608V97ZM49.2737 97H52.9697V89.656C53.4497 88.984 54.7217 88.576 55.6817 88.576C56.0657 88.576 56.3777 88.624 56.5937 88.696V85.12C55.2017 85.12 53.7377 85.936 52.9697 86.872V85.408H49.2737V97ZM66.1217 97H69.8177V88.792C69.8177 86.656 68.6177 85.12 65.9777 85.12C64.0337 85.12 62.6657 86.008 61.9697 86.824V85.408H58.2737V97H61.9697V89.512C62.4017 88.984 63.1217 88.384 64.2257 88.384C65.3777 88.384 66.1217 88.888 66.1217 90.304V97ZM78.0443 97.288C82.0283 97.288 84.3802 94.456 84.3802 91.192C84.3802 87.928 82.0283 85.12 78.0443 85.12C74.1083 85.12 71.7323 87.928 71.7323 91.192C71.7323 94.456 74.1083 97.288 78.0443 97.288ZM78.0443 94.024C76.4363 94.024 75.5483 92.752 75.5483 91.192C75.5483 89.656 76.4363 88.384 78.0443 88.384C79.6763 88.384 80.5883 89.656 80.5883 91.192C80.5883 92.752 79.6763 94.024 78.0443 94.024ZM89.3044 97H93.2404L97.8004 85.408H93.8884L91.2484 92.752L88.6324 85.408H84.7444L89.3044 97ZM98.1463 91.192C98.1463 94.96 100.906 97.288 104.482 97.288C106.258 97.288 108.178 96.784 109.33 95.752L107.77 93.448C107.122 94.024 105.97 94.432 104.938 94.432C103.21 94.432 102.202 93.448 101.986 92.368H110.242V91.576C110.242 87.64 107.746 85.12 104.314 85.12C100.69 85.12 98.1463 87.832 98.1463 91.192ZM104.314 87.976C106.018 87.976 106.618 89.152 106.714 89.968H101.938C102.082 89.128 102.706 87.976 104.314 87.976ZM112.063 97H115.759V89.656C116.239 88.984 117.511 88.576 118.471 88.576C118.855 88.576 119.167 88.624 119.383 88.696V85.12C117.991 85.12 116.527 85.936 115.759 86.872V85.408H112.063V97Z" fill="#333333"/>
<path d="M418.717 97H420.925L427.477 82.36V80.992H416.557V82.768H425.173L418.717 97ZM431.068 97H433.276L439.828 82.36V80.992H428.908V82.768H437.524L431.068 97ZM442.1 94.72C443.3 96.304 445.028 97.288 447.74 97.288C450.956 97.288 453.428 95.272 453.428 92.008C453.428 88.72 451.004 86.896 448.34 86.896C446.732 86.896 445.364 87.568 444.596 88.336V82.768H452.396V80.992H442.604V89.632L444.068 90.136C445.148 89.08 446.348 88.624 447.764 88.624C449.924 88.624 451.436 89.968 451.436 92.08C451.436 94.024 449.924 95.512 447.74 95.512C445.772 95.512 444.38 94.744 443.324 93.4L442.1 94.72ZM456.112 95.92C456.112 96.64 456.712 97.24 457.432 97.24C458.152 97.24 458.752 96.64 458.752 95.92C458.752 95.2 458.152 94.6 457.432 94.6C456.712 94.6 456.112 95.2 456.112 95.92ZM461.451 92.944C461.451 95.68 464.019 97.288 467.187 97.288C470.331 97.288 472.923 95.656 472.923 92.944C472.923 90.808 471.099 89.344 469.107 88.744C470.955 88.216 472.683 87.016 472.683 84.904C472.683 82.024 469.827 80.752 467.187 80.752C464.523 80.752 461.715 82.024 461.715 84.904C461.715 87.016 463.419 88.216 465.267 88.744C463.275 89.344 461.451 90.808 461.451 92.944ZM470.667 85.168C470.667 87.112 468.171 87.76 467.187 87.928C466.227 87.76 463.707 87.112 463.707 85.168C463.707 83.512 465.243 82.528 467.187 82.528C469.107 82.528 470.667 83.512 470.667 85.168ZM470.907 92.728C470.907 94.456 469.155 95.512 467.187 95.512C465.195 95.512 463.443 94.456 463.443 92.728C463.443 90.64 466.203 89.752 467.187 89.632C468.171 89.752 470.907 90.64 470.907 92.728ZM495.888 97H497.88V80.992H495.024L490.032 93.184L485.064 80.992H482.208V97H484.2V83.68L489.624 97H490.44L495.888 83.68V97ZM507.802 97H518.29V95.224H509.794V89.704H518.122V87.928H509.794V82.768H518.29V80.992H507.802V97ZM521.466 90.784C521.466 94.72 523.65 97.288 527.994 97.288C532.338 97.288 534.522 94.744 534.522 90.76V80.992H532.53V90.736C532.53 93.664 530.946 95.512 527.994 95.512C525.042 95.512 523.458 93.664 523.458 90.736V80.992H521.466V90.784ZM547.534 97H549.886L545.566 90.472C547.75 90.28 549.718 88.696 549.718 85.816C549.718 82.864 547.63 80.992 544.702 80.992H538.27V97H540.262V90.64H543.454L547.534 97ZM547.654 85.816C547.654 87.616 546.358 88.888 544.462 88.888H540.262V82.768H544.462C546.358 82.768 547.654 84.016 547.654 85.816Z" fill="#333333"/>
<path d="M698.615 92.944C698.615 95.68 701.183 97.288 704.351 97.288C707.495 97.288 710.087 95.656 710.087 92.944C710.087 90.808 708.263 89.344 706.271 88.744C708.119 88.216 709.847 87.016 709.847 84.904C709.847 82.024 706.991 80.752 704.351 80.752C701.687 80.752 698.879 82.024 698.879 84.904C698.879 87.016 700.583 88.216 702.431 88.744C700.439 89.344 698.615 90.808 698.615 92.944ZM707.831 85.168C707.831 87.112 705.335 87.76 704.351 87.928C703.391 87.76 700.871 87.112 700.871 85.168C700.871 83.512 702.407 82.528 704.351 82.528C706.271 82.528 707.831 83.512 707.831 85.168ZM708.071 92.728C708.071 94.456 706.319 95.512 704.351 95.512C702.359 95.512 700.607 94.456 700.607 92.728C700.607 90.64 703.367 89.752 704.351 89.632C705.335 89.752 708.071 90.64 708.071 92.728ZM712.537 89.032C712.537 93.376 714.241 97.288 718.705 97.288C722.209 97.288 724.321 94.84 724.321 92.056C724.321 88.648 721.969 86.944 719.089 86.944C717.025 86.944 715.249 88.336 714.553 89.44C714.529 89.224 714.529 89.032 714.529 88.816C714.529 85.672 715.945 82.528 719.041 82.528C720.721 82.528 721.657 83.2 722.473 84.16L723.481 82.672C722.497 81.544 721.105 80.752 719.041 80.752C714.553 80.752 712.537 84.688 712.537 89.032ZM722.305 92.128C722.305 93.664 721.105 95.512 718.633 95.512C715.849 95.512 714.793 93.064 714.601 91.072C715.489 89.656 717.025 88.672 718.609 88.672C720.673 88.672 722.305 89.776 722.305 92.128ZM726.716 89.008C726.716 92.896 728.444 97.288 732.836 97.288C737.204 97.288 738.956 92.896 738.956 89.008C738.956 85.096 737.204 80.752 732.836 80.752C728.444 80.752 726.716 85.096 726.716 89.008ZM736.916 89.008C736.916 92.2 735.884 95.512 732.836 95.512C729.788 95.512 728.756 92.2 728.756 89.008C728.756 85.816 729.788 82.528 732.836 82.528C735.884 82.528 736.916 85.816 736.916 89.008ZM740.878 95.92C740.878 96.64 741.478 97.24 742.198 97.24C742.918 97.24 743.518 96.64 743.518 95.92C743.518 95.2 742.918 94.6 742.198 94.6C741.478 94.6 740.878 95.2 740.878 95.92ZM746.985 95.344C747.993 96.496 749.385 97.264 751.425 97.264C755.913 97.264 757.929 93.328 757.929 89.008C757.929 84.64 756.225 80.728 751.737 80.728C748.257 80.728 746.145 83.2 746.145 85.96C746.145 89.368 748.521 91.072 751.401 91.072C753.441 91.072 755.217 89.68 755.913 88.576C755.937 88.792 755.937 89.008 755.937 89.224C755.937 92.248 754.665 95.488 751.425 95.488C749.769 95.488 748.809 94.816 747.993 93.856L746.985 95.344ZM755.841 86.968C755.001 88.384 753.441 89.344 751.857 89.344C749.793 89.344 748.161 88.24 748.161 85.888C748.161 84.376 749.385 82.504 751.833 82.504C754.617 82.504 755.673 84.976 755.841 86.968ZM780.888 97H782.88V80.992H780.024L775.032 93.184L770.064 80.992H767.208V97H769.2V83.68L774.624 97H775.44L780.888 83.68V97ZM792.802 97H803.29V95.224H794.794V89.704H803.122V87.928H794.794V82.768H803.29V80.992H792.802V97ZM806.466 90.784C806.466 94.72 808.65 97.288 812.994 97.288C817.338 97.288 819.522 94.744 819.522 90.76V80.992H817.53V90.736C817.53 93.664 815.946 95.512 812.994 95.512C810.042 95.512 808.458 93.664 808.458 90.736V80.992H806.466V90.784ZM832.534 97H834.886L830.566 90.472C832.75 90.28 834.718 88.696 834.718 85.816C834.718 82.864 832.63 80.992 829.702 80.992H823.27V97H825.262V90.64H828.454L832.534 97ZM832.654 85.816C832.654 87.616 831.358 88.888 829.462 88.888H825.262V82.768H829.462C831.358 82.768 832.654 84.016 832.654 85.816Z" fill="#333333"/>
<path d="M993.595 91.984H999.355V90.4H993.595V91.984ZM1007.51 92.944C1007.51 95.68 1010.07 97.288 1013.24 97.288C1016.39 97.288 1018.98 95.656 1018.98 92.944C1018.98 90.808 1017.15 89.344 1015.16 88.744C1017.01 88.216 1018.74 87.016 1018.74 84.904C1018.74 82.024 1015.88 80.752 1013.24 80.752C1010.58 80.752 1007.77 82.024 1007.77 84.904C1007.77 87.016 1009.47 88.216 1011.32 88.744C1009.33 89.344 1007.51 90.808 1007.51 92.944ZM1016.72 85.168C1016.72 87.112 1014.23 87.76 1013.24 87.928C1012.28 87.76 1009.76 87.112 1009.76 85.168C1009.76 83.512 1011.3 82.528 1013.24 82.528C1015.16 82.528 1016.72 83.512 1016.72 85.168ZM1016.96 92.728C1016.96 94.456 1015.21 95.512 1013.24 95.512C1011.25 95.512 1009.5 94.456 1009.5 92.728C1009.5 90.64 1012.26 89.752 1013.24 89.632C1014.23 89.752 1016.96 90.64 1016.96 92.728ZM1021.79 94.72C1022.99 96.304 1024.72 97.288 1027.43 97.288C1030.64 97.288 1033.12 95.272 1033.12 92.008C1033.12 88.72 1030.69 86.896 1028.03 86.896C1026.42 86.896 1025.05 87.568 1024.28 88.336V82.768H1032.08V80.992H1022.29V89.632L1023.76 90.136C1024.84 89.08 1026.04 88.624 1027.45 88.624C1029.61 88.624 1031.12 89.968 1031.12 92.08C1031.12 94.024 1029.61 95.512 1027.43 95.512C1025.46 95.512 1024.07 94.744 1023.01 93.4L1021.79 94.72ZM1035.8 95.92C1035.8 96.64 1036.4 97.24 1037.12 97.24C1037.84 97.24 1038.44 96.64 1038.44 95.92C1038.44 95.2 1037.84 94.6 1037.12 94.6C1036.4 94.6 1035.8 95.2 1035.8 95.92ZM1042.29 97H1044.28V80.992H1042.53L1038.52 85.12L1039.72 86.344L1042.29 83.632V97ZM1067.89 97H1069.88V80.992H1067.02L1062.03 93.184L1057.06 80.992H1054.21V97H1056.2V83.68L1061.62 97H1062.44L1067.89 83.68V97ZM1079.8 97H1090.29V95.224H1081.79V89.704H1090.12V87.928H1081.79V82.768H1090.29V80.992H1079.8V97ZM1093.47 90.784C1093.47 94.72 1095.65 97.288 1099.99 97.288C1104.34 97.288 1106.52 94.744 1106.52 90.76V80.992H1104.53V90.736C1104.53 93.664 1102.95 95.512 1099.99 95.512C1097.04 95.512 1095.46 93.664 1095.46 90.736V80.992H1093.47V90.784ZM1119.53 97H1121.89L1117.57 90.472C1119.75 90.28 1121.72 88.696 1121.72 85.816C1121.72 82.864 1119.63 80.992 1116.7 80.992H1110.27V97H1112.26V90.64H1115.45L1119.53 97ZM1119.65 85.816C1119.65 87.616 1118.36 88.888 1116.46 88.888H1112.26V82.768H1116.46C1118.36 82.768 1119.65 84.016 1119.65 85.816Z" fill="#333333"/>
<path d="M1008.92 149.536H1013.53V148.288H1008.92V143.32H1007.55V148.288H1002.95V149.536H1007.55V154.648H1008.92V149.536ZM1021.64 149.008C1021.64 152.896 1023.37 157.288 1027.76 157.288C1032.13 157.288 1033.88 152.896 1033.88 149.008C1033.88 145.096 1032.13 140.752 1027.76 140.752C1023.37 140.752 1021.64 145.096 1021.64 149.008ZM1031.84 149.008C1031.84 152.2 1030.81 155.512 1027.76 155.512C1024.71 155.512 1023.68 152.2 1023.68 149.008C1023.68 145.816 1024.71 142.528 1027.76 142.528C1030.81 142.528 1031.84 145.816 1031.84 149.008ZM1035.8 155.92C1035.8 156.64 1036.4 157.24 1037.12 157.24C1037.84 157.24 1038.44 156.64 1038.44 155.92C1038.44 155.2 1037.84 154.6 1037.12 154.6C1036.4 154.6 1035.8 155.2 1035.8 155.92ZM1042.29 157H1044.28V140.992H1042.53L1038.52 145.12L1039.72 146.344L1042.29 143.632V157ZM1067.89 157H1069.88V140.992H1067.02L1062.03 153.184L1057.06 140.992H1054.21V157H1056.2V143.68L1061.62 157H1062.44L1067.89 143.68V157ZM1079.8 157H1090.29V155.224H1081.79V149.704H1090.12V147.928H1081.79V142.768H1090.29V140.992H1079.8V157ZM1093.47 150.784C1093.47 154.72 1095.65 157.288 1099.99 157.288C1104.34 157.288 1106.52 154.744 1106.52 150.76V140.992H1104.53V150.736C1104.53 153.664 1102.95 155.512 1099.99 155.512C1097.04 155.512 1095.46 153.664 1095.46 150.736V140.992H1093.47V150.784ZM1119.53 157H1121.89L1117.57 150.472C1119.75 150.28 1121.72 148.696 1121.72 145.816C1121.72 142.864 1119.63 140.992 1116.7 140.992H1110.27V157H1112.26V150.64H1115.45L1119.53 157ZM1119.65 145.816C1119.65 147.616 1118.36 148.888 1116.46 148.888H1112.26V142.768H1116.46C1118.36 142.768 1119.65 144.016 1119.65 145.816Z" fill="#333333"/>
<path d="M1000.79 209.536H1005.4V208.288H1000.79V203.32H999.421V208.288H994.813V209.536H999.421V214.648H1000.79V209.536ZM1016.55 217H1018.55V200.992H1016.79L1012.79 205.12L1013.99 206.344L1016.55 203.632V217ZM1021.66 212.944C1021.66 215.68 1024.23 217.288 1027.4 217.288C1030.54 217.288 1033.13 215.656 1033.13 212.944C1033.13 210.808 1031.31 209.344 1029.32 208.744C1031.17 208.216 1032.89 207.016 1032.89 204.904C1032.89 202.024 1030.04 200.752 1027.4 200.752C1024.73 200.752 1021.93 202.024 1021.93 204.904C1021.93 207.016 1023.63 208.216 1025.48 208.744C1023.49 209.344 1021.66 210.808 1021.66 212.944ZM1030.88 205.168C1030.88 207.112 1028.38 207.76 1027.4 207.928C1026.44 207.76 1023.92 207.112 1023.92 205.168C1023.92 203.512 1025.45 202.528 1027.4 202.528C1029.32 202.528 1030.88 203.512 1030.88 205.168ZM1031.12 212.728C1031.12 214.456 1029.37 215.512 1027.4 215.512C1025.41 215.512 1023.65 214.456 1023.65 212.728C1023.65 210.64 1026.41 209.752 1027.4 209.632C1028.38 209.752 1031.12 210.64 1031.12 212.728ZM1035.8 215.92C1035.8 216.64 1036.4 217.24 1037.12 217.24C1037.84 217.24 1038.44 216.64 1038.44 215.92C1038.44 215.2 1037.84 214.6 1037.12 214.6C1036.4 214.6 1035.8 215.2 1035.8 215.92ZM1042.29 217H1044.28V200.992H1042.53L1038.52 205.12L1039.72 206.344L1042.29 203.632V217ZM1067.89 217H1069.88V200.992H1067.02L1062.03 213.184L1057.06 200.992H1054.21V217H1056.2V203.68L1061.62 217H1062.44L1067.89 203.68V217ZM1079.8 217H1090.29V215.224H1081.79V209.704H1090.12V207.928H1081.79V202.768H1090.29V200.992H1079.8V217ZM1093.47 210.784C1093.47 214.72 1095.65 217.288 1099.99 217.288C1104.34 217.288 1106.52 214.744 1106.52 210.76V200.992H1104.53V210.736C1104.53 213.664 1102.95 215.512 1099.99 215.512C1097.04 215.512 1095.46 213.664 1095.46 210.736V200.992H1093.47V210.784ZM1119.53 217H1121.89L1117.57 210.472C1119.75 210.28 1121.72 208.696 1121.72 205.816C1121.72 202.864 1119.63 200.992 1116.7 200.992H1110.27V217H1112.26V210.64H1115.45L1119.53 217ZM1119.65 205.816C1119.65 207.616 1118.36 208.888 1116.46 208.888H1112.26V202.768H1116.46C1118.36 202.768 1119.65 204.016 1119.65 205.816Z" fill="#333333"/>
<path d="M31.368 157H36.096L32.832 151.12C34.32 150.592 36.024 149.104 36.024 146.32C36.024 143.344 34.008 140.992 30.456 140.992H22.44V157H26.568V151.576H28.68L31.368 157ZM31.824 146.272C31.824 147.376 30.912 148.072 29.832 148.072H26.568V144.472H29.832C30.912 144.472 31.824 145.168 31.824 146.272ZM36.7166 151.192C36.7166 154.96 39.4766 157.288 43.0526 157.288C44.8286 157.288 46.7486 156.784 47.9006 155.752L46.3406 153.448C45.6926 154.024 44.5406 154.432 43.5086 154.432C41.7806 154.432 40.7726 153.448 40.5566 152.368H48.8126V151.576C48.8126 147.64 46.3166 145.12 42.8846 145.12C39.2606 145.12 36.7166 147.832 36.7166 151.192ZM42.8846 147.976C44.5886 147.976 45.1886 149.152 45.2846 149.968H40.5086C40.6526 149.128 41.2766 147.976 42.8846 147.976ZM49.6491 155.512C50.8731 156.592 53.0091 157.288 55.0731 157.288C58.4091 157.288 60.3531 155.656 60.3531 153.448C60.3531 150.376 57.4251 149.896 55.4571 149.56C54.2331 149.344 53.6091 149.152 53.6091 148.624C53.6091 148.12 54.2091 147.832 55.0731 147.832C56.4651 147.832 57.7851 148.432 58.4811 149.104L59.8971 146.656C58.6491 145.744 56.9931 145.12 55.0491 145.12C51.8331 145.12 50.0811 146.896 50.0811 148.936C50.0811 151.888 52.8651 152.296 54.8331 152.632C56.0331 152.824 56.8251 153.04 56.8251 153.64C56.8251 154.144 56.3691 154.504 55.2651 154.504C53.8971 154.504 52.0491 153.736 51.1851 152.968L49.6491 155.512ZM70.0821 157H73.7781V145.408H70.0821V152.896C69.6501 153.448 68.9301 154.024 67.8741 154.024C66.6741 154.024 65.9541 153.544 65.9541 152.152V145.408H62.2581V153.664C62.2581 155.8 63.4341 157.288 66.0741 157.288C68.0181 157.288 69.3621 156.424 70.0821 155.608V157ZM76.4612 157H80.1572V140.992H76.4612V157ZM87.2282 157.288C88.5962 157.288 89.5082 156.952 89.9642 156.52L89.2442 153.736C89.1242 153.88 88.7162 154.024 88.3082 154.024C87.6602 154.024 87.2762 153.52 87.2762 152.848V148.624H89.6282V145.408H87.2762V142.24H83.6042V145.408H81.6842V148.624H83.6042V153.88C83.6042 156.112 84.8762 157.288 87.2282 157.288ZM97.6253 157H101.321V155.656C102.281 156.76 103.457 157.288 104.753 157.288C107.609 157.288 109.865 155.128 109.865 151.192C109.865 147.4 107.633 145.12 104.753 145.12C103.481 145.12 102.233 145.624 101.321 146.776V140.992H97.6253V157ZM101.321 152.992V149.44C101.777 148.816 102.737 148.384 103.529 148.384C104.993 148.384 106.097 149.464 106.097 151.192C106.097 152.944 104.993 154.024 103.529 154.024C102.737 154.024 101.777 153.616 101.321 152.992ZM111.037 151.192C111.037 154.96 113.797 157.288 117.373 157.288C119.149 157.288 121.069 156.784 122.221 155.752L120.661 153.448C120.013 154.024 118.861 154.432 117.829 154.432C116.101 154.432 115.093 153.448 114.877 152.368H123.133V151.576C123.133 147.64 120.637 145.12 117.205 145.12C113.581 145.12 111.037 147.832 111.037 151.192ZM117.205 147.976C118.909 147.976 119.509 149.152 119.605 149.968H114.829C114.973 149.128 115.597 147.976 117.205 147.976ZM125.745 157H129.441V148.624H131.793V145.408H129.441V144.928C129.441 144.04 129.945 143.56 130.713 143.56C131.049 143.56 131.385 143.632 131.673 143.8L132.345 141.28C131.769 140.968 130.905 140.752 129.897 140.752C127.497 140.752 125.745 142.36 125.745 144.832V145.408H123.825V148.624H125.745V157ZM138.865 157.288C142.849 157.288 145.201 154.456 145.201 151.192C145.201 147.928 142.849 145.12 138.865 145.12C134.929 145.12 132.553 147.928 132.553 151.192C132.553 154.456 134.929 157.288 138.865 157.288ZM138.865 154.024C137.257 154.024 136.369 152.752 136.369 151.192C136.369 149.656 137.257 148.384 138.865 148.384C140.497 148.384 141.409 149.656 141.409 151.192C141.409 152.752 140.497 154.024 138.865 154.024ZM147.149 157H150.845V149.656C151.325 148.984 152.597 148.576 153.557 148.576C153.941 148.576 154.253 148.624 154.469 148.696V145.12C153.077 145.12 151.613 145.936 150.845 146.872V145.408H147.149V157ZM155.381 151.192C155.381 154.96 158.141 157.288 161.717 157.288C163.493 157.288 165.413 156.784 166.565 155.752L165.005 153.448C164.357 154.024 163.205 154.432 162.173 154.432C160.445 154.432 159.437 153.448 159.221 152.368H167.477V151.576C167.477 147.64 164.981 145.12 161.549 145.12C157.925 145.12 155.381 147.832 155.381 151.192ZM161.549 147.976C163.253 147.976 163.853 149.152 163.949 149.968H159.173C159.317 149.128 159.941 147.976 161.549 147.976ZM179.83 157.288C181.198 157.288 182.11 156.952 182.566 156.52L181.846 153.736C181.726 153.88 181.318 154.024 180.91 154.024C180.262 154.024 179.878 153.52 179.878 152.848V148.624H182.23V145.408H179.878V142.24H176.206V145.408H174.286V148.624H176.206V153.88C176.206 156.112 177.478 157.288 179.83 157.288ZM190.926 157H194.622V149.752C194.622 146.152 192.006 145.12 189.222 145.12C187.446 145.12 185.454 145.648 183.966 146.92L185.286 149.248C186.222 148.456 187.422 148.024 188.574 148.024C190.062 148.024 190.926 148.696 190.926 149.704V151.168C190.23 150.304 188.862 149.824 187.326 149.824C185.55 149.824 183.342 150.664 183.342 153.472C183.342 156.088 185.55 157.288 187.326 157.288C188.814 157.288 190.206 156.712 190.926 155.848V157ZM190.926 154.024C190.542 154.576 189.678 154.864 188.862 154.864C187.878 154.864 187.014 154.432 187.014 153.52C187.014 152.608 187.878 152.176 188.862 152.176C189.678 152.176 190.542 152.464 190.926 152.992V154.024ZM204.337 157H208.393L204.433 151.048L208.129 145.408H204.073L202.105 148.552L200.113 145.408H196.057L199.777 151.048L195.817 157H199.849L202.105 153.496L204.337 157Z" fill="#333333"/>
<path d="M427.702 157H438.694V155.224H430.846C435.31 151.696 438.622 148.72 438.622 145.456C438.622 142.264 435.91 140.752 433.246 140.752C430.99 140.752 428.902 141.664 427.678 143.272L428.902 144.544C429.838 143.344 431.326 142.528 433.246 142.528C434.902 142.528 436.582 143.416 436.582 145.456C436.582 148.216 433.462 150.88 427.702 155.416V157ZM442.1 154.72C443.3 156.304 445.028 157.288 447.74 157.288C450.956 157.288 453.428 155.272 453.428 152.008C453.428 148.72 451.004 146.896 448.34 146.896C446.732 146.896 445.364 147.568 444.596 148.336V142.768H452.396V140.992H442.604V149.632L444.068 150.136C445.148 149.08 446.348 148.624 447.764 148.624C449.924 148.624 451.436 149.968 451.436 152.08C451.436 154.024 449.924 155.512 447.74 155.512C445.772 155.512 444.38 154.744 443.324 153.4L442.1 154.72ZM456.112 155.92C456.112 156.64 456.712 157.24 457.432 157.24C458.152 157.24 458.752 156.64 458.752 155.92C458.752 155.2 458.152 154.6 457.432 154.6C456.712 154.6 456.112 155.2 456.112 155.92ZM461.451 152.944C461.451 155.68 464.019 157.288 467.187 157.288C470.331 157.288 472.923 155.656 472.923 152.944C472.923 150.808 471.099 149.344 469.107 148.744C470.955 148.216 472.683 147.016 472.683 144.904C472.683 142.024 469.827 140.752 467.187 140.752C464.523 140.752 461.715 142.024 461.715 144.904C461.715 147.016 463.419 148.216 465.267 148.744C463.275 149.344 461.451 150.808 461.451 152.944ZM470.667 145.168C470.667 147.112 468.171 147.76 467.187 147.928C466.227 147.76 463.707 147.112 463.707 145.168C463.707 143.512 465.243 142.528 467.187 142.528C469.107 142.528 470.667 143.512 470.667 145.168ZM470.907 152.728C470.907 154.456 469.155 155.512 467.187 155.512C465.195 155.512 463.443 154.456 463.443 152.728C463.443 150.64 466.203 149.752 467.187 149.632C468.171 149.752 470.907 150.64 470.907 152.728ZM495.888 157H497.88V140.992H495.024L490.032 153.184L485.064 140.992H482.208V157H484.2V143.68L489.624 157H490.44L495.888 143.68V157ZM507.802 157H518.29V155.224H509.794V149.704H518.122V147.928H509.794V142.768H518.29V140.992H507.802V157ZM521.466 150.784C521.466 154.72 523.65 157.288 527.994 157.288C532.338 157.288 534.522 154.744 534.522 150.76V140.992H532.53V150.736C532.53 153.664 530.946 155.512 527.994 155.512C525.042 155.512 523.458 153.664 523.458 150.736V140.992H521.466V150.784ZM547.534 157H549.886L545.566 150.472C547.75 150.28 549.718 148.696 549.718 145.816C549.718 142.864 547.63 140.992 544.702 140.992H538.27V157H540.262V150.64H543.454L547.534 157ZM547.654 145.816C547.654 147.616 546.358 148.888 544.462 148.888H540.262V142.768H544.462C546.358 142.768 547.654 144.016 547.654 145.816Z" fill="#333333"/>
<path d="M715.89 157H726.882V155.224H719.034C723.498 151.696 726.81 148.72 726.81 145.456C726.81 142.264 724.098 140.752 721.434 140.752C719.178 140.752 717.09 141.664 715.866 143.272L717.09 144.544C718.026 143.344 719.514 142.528 721.434 142.528C723.09 142.528 724.77 143.416 724.77 145.456C724.77 148.216 721.65 150.88 715.89 155.416V157ZM730.287 154.72C731.487 156.304 733.215 157.288 735.927 157.288C739.143 157.288 741.615 155.272 741.615 152.008C741.615 148.72 739.191 146.896 736.527 146.896C734.919 146.896 733.551 147.568 732.783 148.336V142.768H740.583V140.992H730.791V149.632L732.255 150.136C733.335 149.08 734.535 148.624 735.951 148.624C738.111 148.624 739.623 149.968 739.623 152.08C739.623 154.024 738.111 155.512 735.927 155.512C733.959 155.512 732.567 154.744 731.511 153.4L730.287 154.72ZM744.299 155.92C744.299 156.64 744.899 157.24 745.619 157.24C746.339 157.24 746.939 156.64 746.939 155.92C746.939 155.2 746.339 154.6 745.619 154.6C744.899 154.6 744.299 155.2 744.299 155.92ZM749.701 157H751.909L758.461 142.36V140.992H747.541V142.768H756.157L749.701 157ZM780.888 157H782.88V140.992H780.024L775.032 153.184L770.064 140.992H767.208V157H769.2V143.68L774.624 157H775.44L780.888 143.68V157ZM792.802 157H803.29V155.224H794.794V149.704H803.122V147.928H794.794V142.768H803.29V140.992H792.802V157ZM806.466 150.784C806.466 154.72 808.65 157.288 812.994 157.288C817.338 157.288 819.522 154.744 819.522 150.76V140.992H817.53V150.736C817.53 153.664 815.946 155.512 812.994 155.512C810.042 155.512 808.458 153.664 808.458 150.736V140.992H806.466V150.784ZM832.534 157H834.886L830.566 150.472C832.75 150.28 834.718 148.696 834.718 145.816C834.718 142.864 832.63 140.992 829.702 140.992H823.27V157H825.262V150.64H828.454L832.534 157ZM832.654 145.816C832.654 147.616 831.358 148.888 829.462 148.888H825.262V142.768H829.462C831.358 142.768 832.654 144.016 832.654 145.816Z" fill="#333333"/>
<path d="M22.44 217H34.176V213.52H26.568V210.64H34.008V207.136H26.568V204.472H34.176V200.992H22.44V217ZM47.9248 221.416V205.408H44.2528V206.752C43.3408 205.648 42.1408 205.12 40.8208 205.12C37.8928 205.12 35.7088 207.28 35.7088 211.192C35.7088 215.128 37.8928 217.288 40.8208 217.288C42.1168 217.288 43.2928 216.784 44.2528 215.632V221.416H47.9248ZM44.2528 212.968C43.7968 213.568 42.8128 214.024 42.0448 214.024C40.6048 214.024 39.5008 212.944 39.5008 211.192C39.5008 209.464 40.6048 208.384 42.0448 208.384C42.8128 208.384 43.7968 208.816 44.2528 209.44V212.968ZM58.4571 217H62.1531V205.408H58.4571V212.896C58.0251 213.448 57.3051 214.024 56.2491 214.024C55.0491 214.024 54.3291 213.544 54.3291 212.152V205.408H50.6331V213.664C50.6331 215.8 51.8091 217.288 54.4491 217.288C56.3931 217.288 57.7371 216.424 58.4571 215.608V217ZM66.6842 203.944C67.8602 203.944 68.7962 203.008 68.7962 201.832C68.7962 200.656 67.8602 199.72 66.6842 199.72C65.5082 199.72 64.5722 200.656 64.5722 201.832C64.5722 203.008 65.5082 203.944 66.6842 203.944ZM64.8362 217H68.5322V205.408H64.8362V217ZM75.6032 217.288C76.9712 217.288 77.8832 216.952 78.3392 216.52L77.6192 213.736C77.4992 213.88 77.0912 214.024 76.6832 214.024C76.0352 214.024 75.6512 213.52 75.6512 212.848V208.624H78.0032V205.408H75.6512V202.24H71.9792V205.408H70.0592V208.624H71.9792V213.88C71.9792 216.112 73.2512 217.288 75.6032 217.288ZM80.1476 218.224L79.6196 221.512C80.0036 221.632 80.8676 221.704 81.2036 221.704C83.4116 221.656 85.1636 221.104 86.0996 218.656L91.3316 205.408H87.4196L84.7796 212.752L82.1636 205.408H78.2756L82.8836 217.168L82.6196 217.792C82.4276 218.272 81.8996 218.44 81.0596 218.44C80.7716 218.44 80.4116 218.368 80.1476 218.224Z" fill="#333333"/>
<path d="M427.372 209.032C427.372 213.376 429.076 217.288 433.54 217.288C437.044 217.288 439.156 214.84 439.156 212.056C439.156 208.648 436.804 206.944 433.924 206.944C431.86 206.944 430.084 208.336 429.388 209.44C429.364 209.224 429.364 209.032 429.364 208.816C429.364 205.672 430.78 202.528 433.876 202.528C435.556 202.528 436.492 203.2 437.308 204.16L438.316 202.672C437.332 201.544 435.94 200.752 433.876 200.752C429.388 200.752 427.372 204.688 427.372 209.032ZM437.14 212.128C437.14 213.664 435.94 215.512 433.468 215.512C430.684 215.512 429.628 213.064 429.436 211.072C430.324 209.656 431.86 208.672 433.444 208.672C435.508 208.672 437.14 209.776 437.14 212.128ZM441.624 217H452.616V215.224H444.768C449.232 211.696 452.544 208.72 452.544 205.456C452.544 202.264 449.832 200.752 447.168 200.752C444.912 200.752 442.824 201.664 441.6 203.272L442.824 204.544C443.76 203.344 445.248 202.528 447.168 202.528C448.824 202.528 450.504 203.416 450.504 205.456C450.504 208.216 447.384 210.88 441.624 215.416V217ZM455.878 215.92C455.878 216.64 456.478 217.24 457.198 217.24C457.918 217.24 458.518 216.64 458.518 215.92C458.518 215.2 457.918 214.6 457.198 214.6C456.478 214.6 455.878 215.2 455.878 215.92ZM461.193 209.032C461.193 213.376 462.897 217.288 467.361 217.288C470.865 217.288 472.977 214.84 472.977 212.056C472.977 208.648 470.625 206.944 467.745 206.944C465.681 206.944 463.905 208.336 463.209 209.44C463.185 209.224 463.185 209.032 463.185 208.816C463.185 205.672 464.601 202.528 467.697 202.528C469.377 202.528 470.313 203.2 471.129 204.16L472.137 202.672C471.153 201.544 469.761 200.752 467.697 200.752C463.209 200.752 461.193 204.688 461.193 209.032ZM470.961 212.128C470.961 213.664 469.761 215.512 467.289 215.512C464.505 215.512 463.449 213.064 463.257 211.072C464.145 209.656 465.681 208.672 467.265 208.672C469.329 208.672 470.961 209.776 470.961 212.128ZM495.888 217H497.88V200.992H495.024L490.032 213.184L485.064 200.992H482.208V217H484.2V203.68L489.624 217H490.44L495.888 203.68V217ZM507.802 217H518.29V215.224H509.794V209.704H518.122V207.928H509.794V202.768H518.29V200.992H507.802V217ZM521.466 210.784C521.466 214.72 523.65 217.288 527.994 217.288C532.338 217.288 534.522 214.744 534.522 210.76V200.992H532.53V210.736C532.53 213.664 530.946 215.512 527.994 215.512C525.042 215.512 523.458 213.664 523.458 210.736V200.992H521.466V210.784ZM547.534 217H549.886L545.566 210.472C547.75 210.28 549.718 208.696 549.718 205.816C549.718 202.864 547.63 200.992 544.702 200.992H538.27V217H540.262V210.64H543.454L547.534 217ZM547.654 205.816C547.654 207.616 546.358 208.888 544.462 208.888H540.262V202.768H544.462C546.358 202.768 547.654 204.016 547.654 205.816Z" fill="#333333"/>
<path d="M721.071 217H723.063V212.944H725.319V211.192H723.063V200.992H720.327L713.463 211.288V212.944H721.071V217ZM721.071 202.84V211.192H715.455L721.071 202.84ZM734.454 217H736.446V212.944H738.702V211.192H736.446V200.992H733.71L726.846 211.288V212.944H734.454V217ZM734.454 202.84V211.192H728.838L734.454 202.84ZM740.901 215.92C740.901 216.64 741.501 217.24 742.221 217.24C742.941 217.24 743.541 216.64 743.541 215.92C743.541 215.2 742.941 214.6 742.221 214.6C741.501 214.6 740.901 215.2 740.901 215.92ZM746.576 214.72C747.776 216.304 749.504 217.288 752.216 217.288C755.432 217.288 757.904 215.272 757.904 212.008C757.904 208.72 755.48 206.896 752.816 206.896C751.208 206.896 749.84 207.568 749.072 208.336V202.768H756.872V200.992H747.08V209.632L748.544 210.136C749.624 209.08 750.824 208.624 752.24 208.624C754.4 208.624 755.912 209.968 755.912 212.08C755.912 214.024 754.4 215.512 752.216 215.512C750.248 215.512 748.856 214.744 747.8 213.4L746.576 214.72ZM780.888 217H782.88V200.992H780.024L775.032 213.184L770.064 200.992H767.208V217H769.2V203.68L774.624 217H775.44L780.888 203.68V217ZM792.802 217H803.29V215.224H794.794V209.704H803.122V207.928H794.794V202.768H803.29V200.992H792.802V217ZM806.466 210.784C806.466 214.72 808.65 217.288 812.994 217.288C817.338 217.288 819.522 214.744 819.522 210.76V200.992H817.53V210.736C817.53 213.664 815.946 215.512 812.994 215.512C810.042 215.512 808.458 213.664 808.458 210.736V200.992H806.466V210.784ZM832.534 217H834.886L830.566 210.472C832.75 210.28 834.718 208.696 834.718 205.816C834.718 202.864 832.63 200.992 829.702 200.992H823.27V217H825.262V210.64H828.454L832.534 217ZM832.654 205.816C832.654 207.616 831.358 208.888 829.462 208.888H825.262V202.768H829.462C831.358 202.768 832.654 204.016 832.654 205.816Z" fill="#333333"/>
<line x1="1150" y1="179.5" x2="1535" y2="179.5" stroke="#004376"/>
</g>
<defs>
<clipPath id="clip0">
<rect width="1152" height="240" fill="white"/>
</clipPath>
</defs>
</svg>
