<svg width="140" height="140" viewBox="0 0 140 140" fill="none" xmlns="http://www.w3.org/2000/svg">
<circle cx="70" cy="70" r="70" fill="#3D3224"/>
<g clip-path="url(#clip0)">
<path d="M71.453 96.2801L67.9881 95.8059C67.9881 95.8059 65.6886 95.3318 64.5232 94.7627C63.8932 94.6047 63.0112 94.7627 62.5702 95.2369L61.7827 96.0272C56.9633 100.864 49.246 101.338 44.3007 97.0705C38.6938 92.2653 38.5678 83.7299 43.6707 78.5771L56.2074 65.9952C57.8453 64.3514 59.8298 63.403 61.7827 62.6759C64.3657 62.0436 67.2321 62.2017 69.6575 63.1501C71.1695 63.7823 72.6499 64.6675 73.9099 65.9952C74.5399 66.6275 75.1069 67.323 75.5479 68.1449C76.1779 69.3462 77.6583 69.4726 78.5403 68.461L83.2022 63.7823C83.8322 63.1501 83.8322 62.1385 83.3597 61.3165C82.7297 60.3049 81.8477 59.5146 81.0917 58.7243C79.8948 57.523 78.6348 56.4166 77.1543 55.563C74.8549 54.0456 72.1775 53.0973 69.437 52.5598C64.3342 51.5482 58.7273 52.4018 54.1599 54.836C52.333 55.8476 50.5375 57.1437 49.057 58.6295L36.8984 70.832C28.2361 79.6203 27.5116 93.846 35.9534 102.698C44.7102 112.245 59.5148 112.434 68.5551 103.33L72.6499 99.2201C73.7524 98.3982 72.9649 96.4382 71.453 96.2801Z" fill="white"/>
<path d="M101.787 37.0064C92.7148 28.5342 78.5402 29.1665 69.9724 37.9548L66.1925 41.5902C64.9955 42.7915 65.8775 44.7515 67.3895 44.9096C69.6574 45.0676 72.0514 45.5418 74.3193 46.2689C74.9493 46.427 75.8313 46.2689 76.2723 45.7947L77.0597 45.0044C81.8476 40.1677 89.5964 39.7251 94.5418 43.9928C100.117 48.7979 100.275 57.3333 95.1718 62.4862L82.6351 74.9416C80.9971 76.5854 79.0127 77.5654 77.0282 78.2609C74.4138 78.8932 71.6104 78.7351 69.1534 77.7867C67.6415 77.1545 66.161 76.2693 64.9011 74.9416C64.2711 74.3093 63.7041 73.6139 63.2631 72.7919C62.6331 71.5906 61.1211 71.4642 60.2707 72.4758L55.6403 77.1545C55.0103 77.7867 55.0103 78.7983 55.4828 79.5886C56.1128 80.6319 56.9948 81.4222 57.7822 82.2125C58.9792 83.4138 60.3652 84.4886 61.7196 85.3738C63.9876 86.8912 66.665 87.8395 69.2794 88.377C74.4138 89.4202 79.9892 88.535 84.5566 86.1009C86.3835 85.0892 88.179 83.8247 89.6594 82.3073L102.259 69.6623C111.457 60.5578 111.142 45.6999 101.787 37.0064Z" fill="white"/>
</g>
<defs>
<clipPath id="clip0">
<rect width="79" height="79" fill="white" transform="translate(30 31)"/>
</clipPath>
</defs>
</svg>
