<svg xmlns="http://www.w3.org/2000/svg" viewBox="0 0 841.39 286.55"><defs><style>.cls-1{fill:#274574;}.cls-2{fill:#fff;}.cls-3{fill:#de5614;}</style></defs><g id="Layer_2" data-name="Layer 2"><g id="Layer_1-2" data-name="Layer 1"><polygon class="cls-1" points="841.39 0 0 0 0 216.57 72.98 216.57 72.98 286.55 139.44 216.57 841.39 216.57 841.39 0"/><path class="cls-2" d="M73,73.13h29.57c22.18,0,38.12,13.3,38.12,35.16s-15.94,35.28-38,35.28H73Zm29.57,54.6c12.36,0,19.54-9,19.54-19.44,0-10.87-6.55-19.32-19.43-19.32H91.15v38.76Z"/><path class="cls-2" d="M191.48,132.9H162.23l-3.59,10.67H138.89L165.4,73.13h22.81l26.61,70.44H195.07ZM167,117.59h19.75L176.8,89Z"/><path class="cls-2" d="M247.47,119.7h-9.3v23.87H220V73.13h35.27c15.63,0,24.5,10.35,24.5,23.44,0,12.25-7.5,18.8-14,21.12l14.36,25.88H259.29Zm5.06-31.26H238.17v15.84h14.36c4.76,0,8.77-3.06,8.77-7.92S257.29,88.44,252.53,88.44Z"/><path class="cls-2" d="M289.82,73.13h51.65V88.44H308v11.72h32.74v15.42H308v12.67h33.48v15.32H289.82Z"/><path class="cls-3" d="M367.77,89H348V73.13h57.56V89H385.94v54.6H367.77Z"/><path class="cls-2" d="M497.86,108.4c0-21.75,16.48-36.43,37.6-36.43,17.53,0,26.61,9.61,31.26,18.9l-15.63,7.39A17.07,17.07,0,0,0,535.46,88c-11,0-19.11,8.87-19.11,20.38s8.13,20.38,19.11,20.38a17.09,17.09,0,0,0,15.63-10.24l15.63,7.39c-4.54,9.08-13.73,18.9-31.26,18.9C514.34,144.83,497.86,130.05,497.86,108.4Z"/><path class="cls-2" d="M618.8,132.9H589.54L586,143.57H566.21l26.5-70.44h22.81l26.62,70.44H622.39Zm-24.5-15.31H614L604.12,89Z"/><path class="cls-2" d="M674.78,119.7h-9.3v23.87H647.32V73.13h35.27c15.63,0,24.5,10.35,24.5,23.44,0,12.25-7.49,18.8-14,21.12l14.36,25.88h-20.8Zm5.07-31.26H665.48v15.84h14.37c4.75,0,8.76-3.06,8.76-7.92S684.6,88.44,679.85,88.44Z"/><path class="cls-2" d="M717.14,73.13h51.64V88.44H735.3v11.72H768v15.42H735.3v12.67h33.48v15.32H717.14Z"/><path class="cls-3" d="M449.12,147.77l-4.35-2.46c-26.43-14.93-39-30-38.54-46.22.33-10.7,7.51-20.56,17.88-24.54a27.37,27.37,0,0,1,25,2.76,27.37,27.37,0,0,1,25-2.76c10.37,4,17.55,13.84,17.88,24.54.5,16.17-12.11,31.29-38.54,46.22ZM433.91,90.41a9.61,9.61,0,0,0-3.46.65,10,10,0,0,0-6.54,8.57c-.14,4.69,3.08,14.33,25.21,27.74,22.14-13.41,25.35-23.05,25.21-27.74a10,10,0,0,0-6.54-8.57c-2.89-1.11-7.37-1.35-12.28,3.78l-6.39,6.66-6.38-6.66C439.49,91.45,436.44,90.41,433.91,90.41Z"/></g></g></svg>