<svg width="1240" height="120" viewBox="0 0 1240 120" fill="none" xmlns="http://www.w3.org/2000/svg">
<rect x="160" width="340" height="120" fill="#F2F1E8"/>
<rect x="530" width="340" height="120" fill="#F2F1E8"/>
<rect x="900" width="340" height="120" fill="#F2F1E8"/>
<path d="M276.512 36.006C276.512 39.822 279.428 42.216 283.01 42.216C285.278 42.216 287.024 41.298 288.32 39.876V35.178H282.524V37.752H285.278V38.76C284.792 39.156 283.946 39.48 283.01 39.48C281.048 39.48 279.662 37.968 279.662 36.006C279.662 34.044 281.048 32.532 283.01 32.532C284.144 32.532 285.062 33.162 285.548 33.954L288.14 32.586C287.258 31.092 285.638 29.796 283.01 29.796C279.428 29.796 276.512 32.19 276.512 36.006ZM296.828 42H300.374L297.926 37.59C299.042 37.194 300.32 36.078 300.32 33.99C300.32 31.758 298.808 29.994 296.144 29.994H290.132V42H293.228V37.932H294.812L296.828 42ZM297.17 33.954C297.17 34.782 296.486 35.304 295.676 35.304H293.228V32.604H295.676C296.486 32.604 297.17 33.126 297.17 33.954ZM302.032 42H310.834V39.39H305.128V37.23H310.708V34.602H305.128V32.604H310.834V29.994H302.032V42ZM312.632 42H321.434V39.39H315.728V37.23H321.308V34.602H315.728V32.604H321.434V29.994H312.632V42ZM331.403 42H334.391V29.994H331.277V36.906L326.417 29.994H323.231V42H326.327V34.746L331.403 42ZM336.556 42H344.476V39.3H339.652V29.994H336.556V42ZM354.381 42H357.747L353.211 29.994H349.323L344.805 42H348.171L348.783 40.182H353.769L354.381 42ZM351.267 32.694L352.959 37.572H349.593L351.267 32.694ZM366.806 42H369.794V29.994H366.68V36.906L361.82 29.994H358.634V42H361.73V34.746L366.806 42ZM371.958 42H377.016C380.778 42 383.496 39.714 383.496 35.988C383.496 32.262 380.778 29.994 376.998 29.994H371.958V42ZM375.054 39.3V32.694H377.016C379.212 32.694 380.328 34.134 380.328 35.988C380.328 37.77 379.104 39.3 376.998 39.3H375.054Z" fill="#333333"/>
<path d="M231.97 93H235.974L240.154 78.326H235.908L233.708 88.116L231.2 78.326H228.296L225.788 88.116L223.566 78.326H219.32L223.522 93H227.526L229.748 83.804L231.97 93ZM241.354 93H252.112V89.81H245.138V87.17H251.958V83.958H245.138V81.516H252.112V78.326H241.354V93ZM254.309 93H265.067V89.81H258.093V87.17H264.913V83.958H258.093V81.516H265.067V78.326H254.309V93ZM275.888 93H280.53L274.524 85.19L280.222 78.326H275.558L271.048 84.354V78.326H267.264V93H271.048V88.71L272.038 87.478L275.888 93ZM281.659 93H291.339V89.7H285.443V78.326H281.659V93ZM294.493 93H298.277V87.082L303.821 78.326H299.531L296.385 83.738L293.195 78.326H288.927L294.493 87.082V93ZM311.04 93H315.726C320.28 93 323.14 89.744 323.14 85.674C323.14 81.648 320.28 78.326 315.726 78.326H311.04V93ZM312.294 91.856V79.47H315.726C319.62 79.47 321.82 82.242 321.82 85.674C321.82 89.106 319.598 91.856 315.726 91.856H312.294ZM326.272 93H335.578V91.856H327.526V86.048H335.424V84.904H327.526V79.47H335.578V78.326H326.272V93ZM338.69 93H339.944V86.906H344.19C346.984 86.906 348.612 84.926 348.612 82.616C348.612 80.306 347.006 78.326 344.19 78.326H338.69V93ZM347.292 82.616C347.292 84.464 345.994 85.762 344.058 85.762H339.944V79.47H344.058C345.994 79.47 347.292 80.768 347.292 82.616ZM360.188 93H361.596L355.59 78.326H354.028L348.022 93H349.43L350.904 89.392H358.714L360.188 93ZM354.798 79.558L358.318 88.248H351.3L354.798 79.558ZM372.365 93H373.883L369.637 86.84C371.815 86.752 373.707 85.278 373.707 82.616C373.707 79.932 371.771 78.326 369.241 78.326H363.763V93H365.017V86.928H368.251L372.365 93ZM372.387 82.616C372.387 84.464 371.067 85.784 369.131 85.784H365.017V79.47H369.131C371.067 79.47 372.387 80.768 372.387 82.616ZM380.35 93H381.626V79.47H386.422V78.326H375.554V79.47H380.35V93ZM389.028 87.368C389.028 90.976 390.986 93.264 394.748 93.264C398.532 93.264 400.468 90.998 400.468 87.368V78.326H399.192V87.346C399.192 90.316 397.63 92.12 394.748 92.12C391.866 92.12 390.304 90.316 390.304 87.346V78.326H389.028V87.368ZM412.712 93H414.23L409.984 86.84C412.162 86.752 414.054 85.278 414.054 82.616C414.054 79.932 412.118 78.326 409.588 78.326H404.11V93H405.364V86.928H408.598L412.712 93ZM412.734 82.616C412.734 84.464 411.414 85.784 409.478 85.784H405.364V79.47H409.478C411.414 79.47 412.734 80.768 412.734 82.616ZM417.173 93H426.479V91.856H418.427V86.048H426.325V84.904H418.427V79.47H426.479V78.326H417.173V93ZM428.777 90.932C429.899 92.296 431.725 93.264 434.145 93.264C438.105 93.264 439.359 90.998 439.359 89.128C439.359 86.136 436.741 85.388 434.387 84.728C432.385 84.178 430.559 83.672 430.559 81.934C430.559 80.35 432.033 79.228 433.991 79.228C435.641 79.228 437.137 79.8 438.193 81.076L439.029 80.152C437.885 78.854 436.235 78.084 434.057 78.084C431.395 78.084 429.239 79.602 429.239 82C429.239 84.706 431.703 85.366 434.013 86.004C436.059 86.554 438.039 87.126 438.039 89.194C438.039 90.448 437.181 92.12 434.167 92.12C432.077 92.12 430.537 91.086 429.591 89.986L428.777 90.932Z" fill="#333333"/>
<path d="M601.97 93H605.974L610.154 78.326H605.908L603.708 88.116L601.2 78.326H598.296L595.788 88.116L593.566 78.326H589.32L593.522 93H597.526L599.748 83.804L601.97 93ZM611.354 93H622.112V89.81H615.138V87.17H621.958V83.958H615.138V81.516H622.112V78.326H611.354V93ZM624.309 93H635.067V89.81H628.093V87.17H634.913V83.958H628.093V81.516H635.067V78.326H624.309V93ZM645.888 93H650.53L644.524 85.19L650.222 78.326H645.558L641.048 84.354V78.326H637.264V93H641.048V88.71L642.038 87.478L645.888 93ZM651.659 93H661.339V89.7H655.443V78.326H651.659V93ZM664.493 93H668.277V87.082L673.821 78.326H669.531L666.385 83.738L663.195 78.326H658.927L664.493 87.082V93ZM681.04 93H685.726C690.28 93 693.14 89.744 693.14 85.674C693.14 81.648 690.28 78.326 685.726 78.326H681.04V93ZM682.294 91.856V79.47H685.726C689.62 79.47 691.82 82.242 691.82 85.674C691.82 89.106 689.598 91.856 685.726 91.856H682.294ZM696.272 93H705.578V91.856H697.526V86.048H705.424V84.904H697.526V79.47H705.578V78.326H696.272V93ZM708.69 93H709.944V86.906H714.19C716.984 86.906 718.612 84.926 718.612 82.616C718.612 80.306 717.006 78.326 714.19 78.326H708.69V93ZM717.292 82.616C717.292 84.464 715.994 85.762 714.058 85.762H709.944V79.47H714.058C715.994 79.47 717.292 80.768 717.292 82.616ZM730.188 93H731.596L725.59 78.326H724.028L718.022 93H719.43L720.904 89.392H728.714L730.188 93ZM724.798 79.558L728.318 88.248H721.3L724.798 79.558ZM742.365 93H743.883L739.637 86.84C741.815 86.752 743.707 85.278 743.707 82.616C743.707 79.932 741.771 78.326 739.241 78.326H733.763V93H735.017V86.928H738.251L742.365 93ZM742.387 82.616C742.387 84.464 741.067 85.784 739.131 85.784H735.017V79.47H739.131C741.067 79.47 742.387 80.768 742.387 82.616ZM750.35 93H751.626V79.47H756.422V78.326H745.554V79.47H750.35V93ZM759.028 87.368C759.028 90.976 760.986 93.264 764.748 93.264C768.532 93.264 770.468 90.998 770.468 87.368V78.326H769.192V87.346C769.192 90.316 767.63 92.12 764.748 92.12C761.866 92.12 760.304 90.316 760.304 87.346V78.326H759.028V87.368ZM782.712 93H784.23L779.984 86.84C782.162 86.752 784.054 85.278 784.054 82.616C784.054 79.932 782.118 78.326 779.588 78.326H774.11V93H775.364V86.928H778.598L782.712 93ZM782.734 82.616C782.734 84.464 781.414 85.784 779.478 85.784H775.364V79.47H779.478C781.414 79.47 782.734 80.768 782.734 82.616ZM787.173 93H796.479V91.856H788.427V86.048H796.325V84.904H788.427V79.47H796.479V78.326H787.173V93ZM798.777 90.932C799.899 92.296 801.725 93.264 804.145 93.264C808.105 93.264 809.359 90.998 809.359 89.128C809.359 86.136 806.741 85.388 804.387 84.728C802.385 84.178 800.559 83.672 800.559 81.934C800.559 80.35 802.033 79.228 803.991 79.228C805.641 79.228 807.137 79.8 808.193 81.076L809.029 80.152C807.885 78.854 806.235 78.084 804.057 78.084C801.395 78.084 799.239 79.602 799.239 82C799.239 84.706 801.703 85.366 804.013 86.004C806.059 86.554 808.039 87.126 808.039 89.194C808.039 90.448 807.181 92.12 804.167 92.12C802.077 92.12 800.537 91.086 799.591 89.986L798.777 90.932Z" fill="#333333"/>
<path d="M971.97 93H975.974L980.154 78.326H975.908L973.708 88.116L971.2 78.326H968.296L965.788 88.116L963.566 78.326H959.32L963.522 93H967.526L969.748 83.804L971.97 93ZM981.354 93H992.112V89.81H985.138V87.17H991.958V83.958H985.138V81.516H992.112V78.326H981.354V93ZM994.309 93H1005.07V89.81H998.093V87.17H1004.91V83.958H998.093V81.516H1005.07V78.326H994.309V93ZM1015.89 93H1020.53L1014.52 85.19L1020.22 78.326H1015.56L1011.05 84.354V78.326H1007.26V93H1011.05V88.71L1012.04 87.478L1015.89 93ZM1021.66 93H1031.34V89.7H1025.44V78.326H1021.66V93ZM1034.49 93H1038.28V87.082L1043.82 78.326H1039.53L1036.38 83.738L1033.19 78.326H1028.93L1034.49 87.082V93ZM1051.04 93H1055.73C1060.28 93 1063.14 89.744 1063.14 85.674C1063.14 81.648 1060.28 78.326 1055.73 78.326H1051.04V93ZM1052.29 91.856V79.47H1055.73C1059.62 79.47 1061.82 82.242 1061.82 85.674C1061.82 89.106 1059.6 91.856 1055.73 91.856H1052.29ZM1066.27 93H1075.58V91.856H1067.53V86.048H1075.42V84.904H1067.53V79.47H1075.58V78.326H1066.27V93ZM1078.69 93H1079.94V86.906H1084.19C1086.98 86.906 1088.61 84.926 1088.61 82.616C1088.61 80.306 1087.01 78.326 1084.19 78.326H1078.69V93ZM1087.29 82.616C1087.29 84.464 1085.99 85.762 1084.06 85.762H1079.94V79.47H1084.06C1085.99 79.47 1087.29 80.768 1087.29 82.616ZM1100.19 93H1101.6L1095.59 78.326H1094.03L1088.02 93H1089.43L1090.9 89.392H1098.71L1100.19 93ZM1094.8 79.558L1098.32 88.248H1091.3L1094.8 79.558ZM1112.36 93H1113.88L1109.64 86.84C1111.81 86.752 1113.71 85.278 1113.71 82.616C1113.71 79.932 1111.77 78.326 1109.24 78.326H1103.76V93H1105.02V86.928H1108.25L1112.36 93ZM1112.39 82.616C1112.39 84.464 1111.07 85.784 1109.13 85.784H1105.02V79.47H1109.13C1111.07 79.47 1112.39 80.768 1112.39 82.616ZM1120.35 93H1121.63V79.47H1126.42V78.326H1115.55V79.47H1120.35V93ZM1129.03 87.368C1129.03 90.976 1130.99 93.264 1134.75 93.264C1138.53 93.264 1140.47 90.998 1140.47 87.368V78.326H1139.19V87.346C1139.19 90.316 1137.63 92.12 1134.75 92.12C1131.87 92.12 1130.3 90.316 1130.3 87.346V78.326H1129.03V87.368ZM1152.71 93H1154.23L1149.98 86.84C1152.16 86.752 1154.05 85.278 1154.05 82.616C1154.05 79.932 1152.12 78.326 1149.59 78.326H1144.11V93H1145.36V86.928H1148.6L1152.71 93ZM1152.73 82.616C1152.73 84.464 1151.41 85.784 1149.48 85.784H1145.36V79.47H1149.48C1151.41 79.47 1152.73 80.768 1152.73 82.616ZM1157.17 93H1166.48V91.856H1158.43V86.048H1166.32V84.904H1158.43V79.47H1166.48V78.326H1157.17V93ZM1168.78 90.932C1169.9 92.296 1171.72 93.264 1174.14 93.264C1178.1 93.264 1179.36 90.998 1179.36 89.128C1179.36 86.136 1176.74 85.388 1174.39 84.728C1172.38 84.178 1170.56 83.672 1170.56 81.934C1170.56 80.35 1172.03 79.228 1173.99 79.228C1175.64 79.228 1177.14 79.8 1178.19 81.076L1179.03 80.152C1177.88 78.854 1176.23 78.084 1174.06 78.084C1171.39 78.084 1169.24 79.602 1169.24 82C1169.24 84.706 1171.7 85.366 1174.01 86.004C1176.06 86.554 1178.04 87.126 1178.04 89.194C1178.04 90.448 1177.18 92.12 1174.17 92.12C1172.08 92.12 1170.54 91.086 1169.59 89.986L1168.78 90.932Z" fill="#333333"/>
<path d="M662.681 42H665.777V29.994H662.681V42ZM673.732 42.216C676.72 42.216 678.286 40.542 679.06 38.994L676.396 37.734C676 38.688 674.974 39.48 673.732 39.48C671.86 39.48 670.474 37.968 670.474 36.006C670.474 34.044 671.86 32.532 673.732 32.532C674.974 32.532 676 33.324 676.396 34.278L679.06 33.018C678.268 31.434 676.72 29.796 673.732 29.796C670.132 29.796 667.324 32.298 667.324 36.006C667.324 39.696 670.132 42.216 673.732 42.216ZM680.399 42H689.201V39.39H683.495V37.23H689.075V34.602H683.495V32.604H689.201V29.994H680.399V42ZM690.999 42H698.919V39.3H694.095V29.994H690.999V42ZM708.824 42H712.19L707.654 29.994H703.766L699.248 42H702.614L703.226 40.182H708.212L708.824 42ZM705.71 32.694L707.402 37.572H704.036L705.71 32.694ZM721.249 42H724.237V29.994H721.123V36.906L716.263 29.994H713.077V42H716.173V34.746L721.249 42ZM726.401 42H731.459C735.221 42 737.939 39.714 737.939 35.988C737.939 32.262 735.221 29.994 731.441 29.994H726.401V42ZM729.497 39.3V32.694H731.459C733.655 32.694 734.771 34.134 734.771 35.988C734.771 37.77 733.547 39.3 731.441 39.3H729.497Z" fill="#333333"/>
<path d="M1001.76 42H1004.86V37.23H1010.44V34.602H1004.86V32.604H1010.56V29.994H1001.76V42ZM1019.69 42H1023.06L1018.52 29.994H1014.63L1010.12 42H1013.48L1014.09 40.182H1019.08L1019.69 42ZM1016.58 32.694L1018.27 37.572H1014.9L1016.58 32.694ZM1030.64 42H1034.19L1031.74 37.59C1032.85 37.194 1034.13 36.078 1034.13 33.99C1034.13 31.758 1032.62 29.994 1029.96 29.994H1023.94V42H1027.04V37.932H1028.62L1030.64 42ZM1030.98 33.954C1030.98 34.782 1030.3 35.304 1029.49 35.304H1027.04V32.604H1029.49C1030.3 32.604 1030.98 33.126 1030.98 33.954ZM1035.23 36.006C1035.23 39.66 1037.99 42.216 1041.66 42.216C1045.33 42.216 1048.07 39.66 1048.07 36.006C1048.07 32.352 1045.33 29.796 1041.66 29.796C1037.99 29.796 1035.23 32.352 1035.23 36.006ZM1044.92 36.006C1044.92 37.95 1043.64 39.48 1041.66 39.48C1039.66 39.48 1038.38 37.95 1038.38 36.006C1038.38 34.044 1039.66 32.532 1041.66 32.532C1043.64 32.532 1044.92 34.044 1044.92 36.006ZM1049.63 42H1058.43V39.39H1052.72V37.23H1058.3V34.602H1052.72V32.604H1058.43V29.994H1049.63V42ZM1064.83 42H1067.93V29.994H1064.83V42ZM1069.22 40.308C1070.43 41.46 1072.12 42.216 1074.55 42.216C1077.77 42.216 1079.55 40.614 1079.55 38.202C1079.55 35.484 1076.82 34.908 1074.84 34.494C1073.51 34.242 1072.77 34.026 1072.77 33.396C1072.77 32.874 1073.16 32.46 1074.19 32.46C1075.25 32.46 1076.57 32.874 1077.57 33.702L1079.27 31.488C1077.99 30.39 1076.31 29.814 1074.39 29.814C1071.31 29.814 1069.6 31.56 1069.6 33.576C1069.6 36.42 1072.37 36.924 1074.35 37.32C1075.63 37.59 1076.4 37.86 1076.4 38.544C1076.4 39.12 1075.76 39.57 1074.69 39.57C1073.06 39.57 1071.72 38.85 1070.86 37.986L1069.22 40.308ZM1081 42H1088.92V39.3H1084.1V29.994H1081V42ZM1098.83 42H1102.19L1097.66 29.994H1093.77L1089.25 42H1092.62L1093.23 40.182H1098.22L1098.83 42ZM1095.71 32.694L1097.41 37.572H1094.04L1095.71 32.694ZM1111.25 42H1114.24V29.994H1111.13V36.906L1106.27 29.994H1103.08V42H1106.18V34.746L1111.25 42ZM1116.41 42H1121.46C1125.23 42 1127.94 39.714 1127.94 35.988C1127.94 32.262 1125.23 29.994 1121.45 29.994H1116.41V42ZM1119.5 39.3V32.694H1121.46C1123.66 32.694 1124.78 34.134 1124.78 35.988C1124.78 37.77 1123.55 39.3 1121.45 39.3H1119.5ZM1128.62 40.308C1129.83 41.46 1131.52 42.216 1133.95 42.216C1137.17 42.216 1138.95 40.614 1138.95 38.202C1138.95 35.484 1136.22 34.908 1134.24 34.494C1132.9 34.242 1132.17 34.026 1132.17 33.396C1132.17 32.874 1132.56 32.46 1133.59 32.46C1134.65 32.46 1135.96 32.874 1136.97 33.702L1138.66 31.488C1137.39 30.39 1135.71 29.814 1133.79 29.814C1130.71 29.814 1129 31.56 1129 33.576C1129 36.42 1131.77 36.924 1133.75 37.32C1135.03 37.59 1135.8 37.86 1135.8 38.544C1135.8 39.12 1135.15 39.57 1134.09 39.57C1132.45 39.57 1131.12 38.85 1130.26 37.986L1128.62 40.308Z" fill="#333333"/>
<rect width="130" height="120" fill="#004376"/>
<path fill-rule="evenodd" clip-rule="evenodd" d="M98.347 47.0878C98.1009 46.5956 97.6087 46.2674 97.1165 46.2674H54.5406V36.7514C54.5406 36.0131 53.9663 35.3568 53.146 35.3568H51.7514V29.2863C51.7514 28.8761 51.4233 28.63 51.0951 28.63H49.7005C49.2904 28.63 49.0443 28.9582 49.0443 29.2863V32.6497H46.9934C46.5832 32.6497 46.3371 32.9778 46.3371 33.306V35.3568H43.3019C42.6456 35.3568 42.1534 35.767 41.9893 36.4233L40.9229 40.8532H38.2157C37.4774 40.8532 36.8211 41.4274 36.8211 42.2477V46.3495H32.7194C31.9811 46.3495 31.3248 46.9237 31.3248 47.7441C31.3248 52.0919 32.8835 56.3577 34.4421 59.639L32.7194 63.5767C32.5553 63.9869 32.6374 64.4791 32.8835 64.8072C33.1296 65.1354 33.5398 65.3815 33.9499 65.3815H43.712C43.7941 65.3815 43.8761 65.3815 43.9581 65.2994C44.113 65.2994 44.2679 65.3177 44.4314 65.337L44.4315 65.337C44.6144 65.3586 44.8081 65.3815 45.0246 65.3815H81.694C91.5953 65.3815 93.0893 60.4841 94.5623 55.6558L94.5734 55.6194C95.3117 53.1583 96.05 50.6973 98.0188 48.7285C98.429 48.1542 98.5931 47.58 98.347 47.0878ZM43.712 53.5685C42.6456 53.5685 41.8252 52.7482 41.8252 51.6817C41.8252 50.6153 42.6456 49.7949 43.712 49.7949C44.7785 49.7949 45.5988 50.6153 45.5988 51.6817C45.5988 52.7482 44.7785 53.5685 43.712 53.5685ZM47.8138 39.4586H51.9155V40.8532H47.8138V39.4586ZM50.5209 53.5685C49.4544 53.5685 48.6341 52.7482 48.6341 51.6817C48.6341 50.6153 49.4544 49.7949 50.5209 49.7949C51.5873 49.7949 52.4077 50.6153 52.4077 51.6817C52.4077 52.7482 51.5053 53.5685 50.5209 53.5685ZM57.2477 53.5685C56.1813 53.5685 55.3609 52.7482 55.3609 51.6817C55.3609 50.6153 56.1813 49.7949 57.2477 49.7949C58.3142 49.7949 59.1345 50.6153 59.1345 51.6817C59.1345 52.7482 58.3142 53.5685 57.2477 53.5685ZM68.8146 44.8728H64.7129C64.3847 44.8728 64.0566 44.6267 64.0566 44.2166V41.5094C64.0566 41.1813 64.3027 40.8532 64.7129 40.8532H68.8146C69.1427 40.8532 69.4709 41.0993 69.4709 41.5094V44.2166C69.4709 44.5447 69.2248 44.8728 68.8146 44.8728ZM75.6234 44.8728H71.5217C71.1115 44.8728 70.7834 44.6267 70.8654 44.2166V41.5094C70.8654 41.1813 71.1115 40.8532 71.5217 40.8532H75.6234C75.9516 40.8532 76.2797 41.0993 76.2797 41.5094V44.2166C76.2797 44.5447 76.0336 44.8728 75.6234 44.8728ZM62.0877 44.8728H57.986C57.5758 44.8728 57.2477 44.6267 57.3297 44.2166V41.5094C57.3297 41.1813 57.5758 40.8532 57.986 40.8532H62.0877C62.4159 40.8532 62.744 41.0993 62.744 41.5094V44.2166C62.744 44.5447 62.4979 44.8728 62.0877 44.8728ZM78.3306 44.8728H82.4323C82.8425 44.8728 83.0886 44.5447 83.0886 44.2166V41.5094C83.0886 41.0993 82.7605 40.8532 82.4323 40.8532H78.3306C77.9204 40.8532 77.6743 41.1813 77.6743 41.5094V44.2166C77.5923 44.6267 77.9204 44.8728 78.3306 44.8728ZM89.1591 44.8728H85.0574C84.7292 44.8728 84.4011 44.6267 84.4011 44.2166V41.5094C84.4011 41.1813 84.6472 40.8532 85.0574 40.8532H89.1591C89.4872 40.8532 89.8154 41.0993 89.8154 41.5094V44.2166C89.8154 44.5447 89.5693 44.8728 89.1591 44.8728Z" fill="white"/>
<path d="M15.5904 99.496C16.6624 100.52 18.1664 101.192 20.3264 101.192C23.1904 101.192 24.7744 99.768 24.7744 97.624C24.7744 95.208 22.3424 94.696 20.5824 94.328C19.3984 94.104 18.7424 93.912 18.7424 93.352C18.7424 92.888 19.0944 92.52 20.0064 92.52C20.9504 92.52 22.1184 92.888 23.0144 93.624L24.5184 91.656C23.3824 90.68 21.8944 90.168 20.1824 90.168C17.4464 90.168 15.9264 91.72 15.9264 93.512C15.9264 96.04 18.3904 96.488 20.1504 96.84C21.2864 97.08 21.9744 97.32 21.9744 97.928C21.9744 98.44 21.3984 98.84 20.4544 98.84C18.9984 98.84 17.8144 98.2 17.0464 97.432L15.5904 99.496ZM26.0616 101H33.8856V98.68H28.8136V96.76H33.7736V94.424H28.8136V92.648H33.8856V90.328H26.0616V101ZM42.8594 101H45.8514L41.8194 90.328H38.3634L34.3474 101H37.3394L37.8834 99.384H42.3154L42.8594 101ZM40.0914 92.728L41.5954 97.064H38.6034L40.0914 92.728ZM50.7334 101H53.4854V96.76H58.4454V94.424H53.4854V92.648H58.5574V90.328H50.7334V101ZM65.9979 101H69.1499L66.9739 97.08C67.9659 96.728 69.1019 95.736 69.1019 93.88C69.1019 91.896 67.7579 90.328 65.3899 90.328H60.0459V101H62.7979V97.384H64.2059L65.9979 101ZM66.3019 93.848C66.3019 94.584 65.6939 95.048 64.9739 95.048H62.7979V92.648H64.9739C65.6939 92.648 66.3019 93.112 66.3019 93.848ZM70.6241 101H78.4481V98.68H73.3761V96.76H78.3361V94.424H73.3761V92.648H78.4481V90.328H70.6241V101ZM80.0459 101H82.7979V90.328H80.0459V101ZM84.1738 95.672C84.1738 99.064 86.7658 101.192 89.9498 101.192C91.9658 101.192 93.5178 100.376 94.6698 99.112V94.936H89.5178V97.224H91.9658V98.12C91.5338 98.472 90.7818 98.76 89.9498 98.76C88.2058 98.76 86.9738 97.416 86.9738 95.672C86.9738 93.928 88.2058 92.584 89.9498 92.584C90.9578 92.584 91.7738 93.144 92.2058 93.848L94.5098 92.632C93.7258 91.304 92.2858 90.152 89.9498 90.152C86.7658 90.152 84.1738 92.28 84.1738 95.672ZM103.464 101H106.216V90.328H103.464V94.312H99.0323V90.328H96.2803V101H99.0323V96.712H103.464V101ZM110.524 101H113.276V92.728H116.252V90.328H107.532V92.728H110.524V101Z" fill="white"/>
<g clip-path="url(#clip0)">
<path d="M991.855 24H956V48H991.855V24Z" fill="white"/>
<path d="M956 39.2536H965.774V48H972.281V39.2536H991.829V32.7464H972.281V24H965.774V32.7464H956V39.2536Z" fill="#0066B2"/>
<path d="M956 37.6202H967.407V48H970.674V37.6202H991.855V34.3535H970.674V24H967.407V34.3535H956V37.6202Z" fill="#E63542"/>
</g>
<g clip-path="url(#clip1)">
<path d="M1185.86 24H1150V48H1185.86V24Z" fill="white"/>
<path d="M1150 39.2536H1159.77V48H1166.28V39.2536H1185.83V32.7464H1166.28V24H1159.77V32.7464H1150V39.2536Z" fill="#0066B2"/>
<path d="M1150 37.6202H1161.41V48H1164.67V37.6202H1185.86V34.3535H1164.67V24H1161.41V34.3535H1150V37.6202Z" fill="#E63542"/>
</g>
<g clip-path="url(#clip2)">
<path d="M265.855 24H230V48H265.855V24Z" fill="white"/>
<path d="M230 36.0395H265.855V48H230V36.0395ZM235.98 36.0395C235.98 40.4391 239.537 43.9956 243.936 43.9956C248.336 43.9956 251.892 40.4391 251.892 36.0395C251.892 31.6399 248.336 28.0834 243.936 28.0834C239.537 28.0834 235.98 31.6399 235.98 36.0395Z" fill="#E41A35"/>
</g>
<g clip-path="url(#clip3)">
<path d="M429.855 24H394V48H429.855V24Z" fill="white"/>
<path d="M394 36.0395H429.855V48H394V36.0395ZM399.98 36.0395C399.98 40.4391 403.537 43.9956 407.936 43.9956C412.336 43.9956 415.892 40.4391 415.892 36.0395C415.892 31.6399 412.336 28.0834 407.936 28.0834C403.537 28.0834 399.98 31.6399 399.98 36.0395Z" fill="#E41A35"/>
</g>
<path d="M652.833 24H617V48H652.833V24Z" fill="#2F207E"/>
<path d="M652.833 32.9308H632.086V24H625.952V32.9308H617V39.0692H625.952V48H632.086V39.0692H652.833V32.9308Z" fill="white"/>
<path d="M627.61 24V34.5906H617V37.4094H627.61V48H630.428V37.4094H652.833V34.5906H630.428V24H627.61Z" fill="#E50004"/>
<path d="M783.833 24H748V48H783.833V24Z" fill="#2F207E"/>
<path d="M783.833 32.9308H763.086V24H756.952V32.9308H748V39.0692H756.952V48H763.086V39.0692H783.833V32.9308Z" fill="white"/>
<path d="M758.61 24V34.5906H748V37.4094H758.61V48H761.428V37.4094H783.833V34.5906H761.428V24H758.61Z" fill="#E50004"/>
<defs>
<clipPath id="clip0">
<rect width="35.8551" height="24" fill="white" transform="translate(956 24)"/>
</clipPath>
<clipPath id="clip1">
<rect width="35.8551" height="24" fill="white" transform="translate(1150 24)"/>
</clipPath>
<clipPath id="clip2">
<rect width="35.8551" height="24" fill="white" transform="translate(230 24)"/>
</clipPath>
<clipPath id="clip3">
<rect width="35.8551" height="24" fill="white" transform="translate(394 24)"/>
</clipPath>
</defs>
</svg>
