<svg id="Layer_1" data-name="Layer 1" xmlns="http://www.w3.org/2000/svg" viewBox="0 0 75 50"><defs><style>.cls-1{fill:#2f257a}.cls-2{fill:#fff}.cls-3{fill:#c40009}</style></defs><title>Flag EN (color)</title><path class="cls-1" d="M0 0h75v50H0z"/><path class="cls-2" d="M65.43 0L45.94 13.06V0H29.08v13.06L9.57 0H0v6.17l15.52 10.4H0v16.86h15.52L0 43.83V50h9.57l19.51-13.07V50h16.86V36.94L65.44 50H75v-6.18L59.48 33.43H75V16.57H59.48L75 6.18V0h-9.57z"/><path class="cls-3" d="M24.91 33.43L.17 50h5.96l22.95-15.36v-1.21h-4.17zM68.87 0L45.94 15.36v1.21h4.15L74.83 0h-5.96zM0 0v3.87l18.96 12.7h5.95L.17 0H0zM50.09 33.43L74.83 50H75v-3.88L56.05 33.43h-5.96z"/><path class="cls-3" d="M32.45 0v19.94H0v10.12h32.45V50h10.11V30.06H75V19.94H42.56V0H32.45z"/></svg>