<svg width="100" height="100" viewBox="0 0 100 100" xmlns="http://www.w3.org/2000/svg"><title>Service - Defense (blue)</title><g id="Page-1" fill="none" fill-rule="evenodd"><g id="Service---Defense-(blue)"><circle id="Oval" fill="#0060A9" cx="49.882" cy="49.882" r="49.882"/><path d="M81.42 32.653h-7.977a1.53 1.53 0 0 0-1.506 1.335H50.67l-2.512-3.314a.828.828 0 0 0-.66-.328h-3c-.824-.997-2.28-1.656-3.55-1.656H35.45c-1.27 0-2.724.66-3.548 1.656h-6.017a1.24 1.24 0 0 0-1.24 1.24v8.355c0 .686.555 1.24 1.24 1.24h1.7v2.805H25.4c-1.436 0-2.73.86-3.287 2.184L17.08 58.086a3.552 3.552 0 0 0 2.654 4.875c.286 4.517 4.014 8.114 8.6 8.114h34.56c4.587 0 8.316-3.598 8.6-8.114a3.552 3.552 0 0 0 2.656-4.875l-5.034-11.923a3.568 3.568 0 0 0-3.286-2.184H47.906v-2.794h8.21l-2.76-3.64h18.58c.097.76.74 1.33 1.506 1.334h7.977a1.55 1.55 0 0 0 1.547-1.548v-3.13a1.55 1.55 0 0 0-1.547-1.55zM28.55 67.755a5.327 5.327 0 0 1-5.274-4.718h2.03a3.3 3.3 0 0 0 6.48 0h2.035a5.327 5.327 0 0 1-5.27 4.718zm11.38 0a5.328 5.328 0 0 1-5.28-4.718h2.035a3.3 3.3 0 0 0 6.482 0h2.04a5.327 5.327 0 0 1-5.278 4.718zm11.375 0a5.327 5.327 0 0 1-5.275-4.718h2.035a3.3 3.3 0 0 0 6.482 0h2.035a5.327 5.327 0 0 1-5.277 4.718zm11.378 0a5.328 5.328 0 0 1-5.277-4.718h2.035a3.3 3.3 0 0 0 6.483 0h2.035a5.327 5.327 0 0 1-5.274 4.718z" id="Shape" fill="#FFF"/></g></g></svg>