<?xml version="1.0" encoding="utf-8"?>
<!-- Generator: Adobe Illustrator 25.2.3, SVG Export Plug-In . SVG Version: 6.00 Build 0)  -->
<svg version="1.1" id="Layer_1" xmlns="http://www.w3.org/2000/svg" xmlns:xlink="http://www.w3.org/1999/xlink" x="0px" y="0px"
	 viewBox="0 0 100 100" style="enable-background:new 0 0 100 100;" xml:space="preserve">
<style type="text/css">
	.st0{fill:#0060A9;}
</style>
<g>
	<path class="st0" d="M50,0C22.4,0,0,22.4,0,50c0,27.6,22.4,50,50,50s50-22.4,50-50C100,22.4,77.6,0,50,0z M47.1,24.8
		c0-0.1-0.1-0.2-0.1-0.3v-0.8v-4.2c0-1.3,1.1-2.4,2.4-2.4h1c1.3,0,2.4,1.1,2.4,2.4v4.1v0.9c0,0.1,0,0.2,0,0.2c2.2,1,3.7,3.2,3.7,5.8
		c0,0.6-0.1,1.2-0.2,1.7c-0.1,0.3-0.2,0.5-0.3,0.8c-0.6,1.4-1.7,2.6-3.1,3.3c0,0,0,0,0,0c-0.4,0.2-0.9,0.4-1.4,0.5
		c-0.5,0.1-0.9,0.2-1.4,0.2c-0.5,0-0.9-0.1-1.4-0.1c-2.2-0.5-4-2.1-4.7-4.2c-0.2-0.6-0.3-1.3-0.3-2C43.6,28,45,25.8,47.1,24.8z
		 M68.6,72.5c-0.5,1-1.3,1.8-2.3,2.4v5c0,0.6-0.5,1.1-1.1,1.1s-1.1-0.5-1.1-1.1v-5.4c0-0.2,0-0.3,0.1-0.4l-7.1-20.6h-4.7v2.1
		c0,1.4-1.1,2.5-2.5,2.5s-2.5-1.1-2.5-2.5v-2.1h-4.6l-7.1,20.6c0.1,0.1,0.1,0.3,0.1,0.4v5.4c0,0.6-0.5,1.1-1.1,1.1s-1.1-0.5-1.1-1.1
		v-5c0,0,0,0,0,0c-2.3-1.2-3.4-4-2.5-6.5l5.1-14.9h-4.2c-0.6,0-1.1-0.5-1.1-1.1c0-0.6,0.5-1.1,1.1-1.1H37l5.6-16.4
		c0.2,0.3,0.3,0.5,0.5,0.8c0.2,0.2,0.4,0.5,0.6,0.7c0.8,0.8,1.7,1.5,2.7,1.9c0.2,0.1,0.5,0.2,0.7,0.3c0.2,0.1,0.5,0.2,0.7,0.2
		l-4.3,12.5h3.9v-2.1c0-1.4,1.1-2.5,2.5-2.5s2.5,1.1,2.5,2.5v2.1h3.9l-4.3-12.6c0.2-0.1,0.5-0.1,0.7-0.2c0.2-0.1,0.5-0.2,0.7-0.3
		c1-0.5,1.9-1.1,2.7-1.9c0.2-0.2,0.4-0.4,0.6-0.7c0.2-0.2,0.4-0.5,0.5-0.8L63,51.3h4.6c0.6,0,1.1,0.5,1.1,1.1c0,0.6-0.5,1.1-1.1,1.1
		h-3.9l5.1,14.9C69.3,69.7,69.2,71.2,68.6,72.5z"/>
	<path class="st0" d="M50,31.9c0.8,0,1.4-0.6,1.4-1.4c0-0.8-0.6-1.4-1.4-1.4c-0.8,0-1.4,0.6-1.4,1.4C48.5,31.3,49.2,31.9,50,31.9z"
		/>
</g>
</svg>
