<svg xmlns="http://www.w3.org/2000/svg" viewBox="0 0 196.3 198.81"><defs><style>.cls-1{fill:#fff;stroke:#fff;stroke-miterlimit:10;}</style></defs><g id="Layer_2" data-name="Layer 2"><g id="Layer_1-2" data-name="Layer 1"><path class="cls-1" d="M187.7,101V83.66C187.7,35.51,148.91.5,101.1.5H95.2C47.39.5,8.6,35.42,8.6,83.66v17.18c-2.5,4.41-10.46,5.94-7.42,29.61s17,30.15,33.52,30.15H36a9,9,0,0,0,8.93-9V94.36a9,9,0,0,0-8.93-9H34.7a31.28,31.28,0,0,0-11.26,2.16l-.09-2.25C26.47,40.37,55,15.89,95.2,15.89h6c40.22,0,68.72,24.39,71.76,69.48l-.09,2.43a29.14,29.14,0,0,0-11.26-2.16h-1.25a9,9,0,0,0-8.94,9v57.24a9,9,0,0,0,3.76,7.29.31.31,0,0,0,.09.18c-11.17,14.85-30.92,20.79-45.22,23.22-2.77-4.14-9.48-7.11-17.25-7.11-10.28,0-18.68,5.13-18.68,11.43s8.31,11.43,18.68,11.43c9.74,0,17.69-4.59,18.59-10.35,15.73-2.61,37.62-9.45,49.51-27.09h.71c16.54,0,30.48-6.48,33.52-30.15C198.16,106.87,190.2,105.34,187.7,101Z"/></g></g></svg>