<svg width="140" height="140" viewBox="0 0 140 140" fill="none" xmlns="http://www.w3.org/2000/svg">
<circle cx="70" cy="70" r="70" fill="#3D3224"/>
<path fill-rule="evenodd" clip-rule="evenodd" d="M102.706 61.6634L112.745 63.2493C112.745 63.2493 115 63.2493 115 70C115 76.7507 112.745 76.7507 112.745 76.7507L102.706 78.3366C101.891 81.5082 100.64 84.4908 99.0106 87.226L104.99 95.4462C104.99 95.4462 106.576 97.032 101.804 101.804C97.032 106.576 95.4461 104.99 95.4461 104.99L87.226 99.0107C84.4908 100.64 81.5082 101.906 78.3365 102.706L76.7507 112.745C76.7507 112.745 76.7507 115 70 115C63.2493 115 63.2493 112.745 63.2493 112.745L61.6634 102.706C58.4917 101.891 55.5092 100.64 52.774 99.0107L44.5538 104.99C44.5538 104.99 42.968 106.576 38.1959 101.804C33.4239 97.032 35.0097 95.4462 35.0097 95.4462L40.9893 87.226C39.3598 84.4908 38.0941 81.5082 37.2939 78.3366L27.2551 76.7507C27.2551 76.7507 25 76.7507 25 70C25 63.2493 27.2551 63.2493 27.2551 63.2493L37.2939 61.6634C38.1086 58.4918 39.3598 55.5092 40.9893 52.774L35.0097 44.5538C35.0097 44.5538 33.4239 42.968 38.1959 38.1959C42.968 33.4239 44.5538 35.0097 44.5538 35.0097L52.774 40.9893C55.5092 39.3598 58.4917 38.0941 61.6634 37.2939L63.2493 27.2551C63.2493 27.2551 63.2493 25 70 25C76.7507 25 76.7507 27.2551 76.7507 27.2551L78.3365 37.2939C81.5082 38.1086 84.4908 39.3598 87.226 40.9893L95.4461 35.0097C95.4461 35.0097 97.032 33.4239 101.804 38.1959C106.576 42.968 104.99 44.5538 104.99 44.5538L99.0106 52.774C100.64 55.5092 101.906 58.4918 102.706 61.6634ZM52.8613 70C52.8613 79.4859 60.5432 87.1678 70.0291 87.1678C79.515 87.1678 87.1969 79.4859 87.1969 70C87.1969 60.5141 79.515 52.8322 70.0291 52.8322C60.5432 52.8322 52.8613 60.5141 52.8613 70ZM76.7454 69.3332C77.1128 73.0432 74.403 76.3486 70.693 76.716C66.9829 77.0834 63.6775 74.3736 63.3101 70.6636C62.9427 66.9535 65.6525 63.6481 69.3626 63.2807C73.0726 62.9133 76.378 65.6231 76.7454 69.3332Z" fill="white"/>
</svg>
