<svg width="140" height="140" viewBox="0 0 140 140" fill="none" xmlns="http://www.w3.org/2000/svg">
<circle cx="70" cy="70" r="70" fill="#3D3224"/>
<path d="M105.423 67.016C112.31 51.7649 91.9828 53.4967 83.6518 53.6084C90.261 29.4748 83.5962 24 80.1528 24C76.7648 24 74.0434 25.5084 73.8768 30.8155C73.7657 36.1227 72.9326 38.6925 67.212 48.2454C62.8799 55.452 58.2145 57.2397 56.2151 59.586V58.0776C56.2151 57.2955 55.5486 56.6252 54.7711 56.6252H32.444C31.6665 56.6252 31 57.2955 31 58.0776V97.2949C31 98.077 31.6665 98.7474 32.444 98.7474H54.8821C55.6597 98.7474 56.3262 98.077 56.3262 97.2949V95.5072C61.0471 102.826 80.8748 105.284 94.2044 103.384C109.478 101.205 104.812 91.7084 104.812 91.7084C111.366 86.6247 108.311 82.8258 106.867 79.3622C110.755 73.4405 108.756 70.9266 105.423 67.016Z" fill="white"/>
<g clip-path="url(#clip0)">
<path d="M105.423 73.016C112.31 57.7649 91.9828 59.4967 83.6518 59.6084C90.261 35.4748 83.5962 30 80.1528 30C76.7648 30 74.0434 31.5083 73.8768 36.8155C73.7657 42.1227 72.9326 44.6925 67.212 54.2454C62.8799 61.452 58.2145 63.2397 56.2151 65.586V64.0776C56.2151 63.2955 55.5486 62.6252 54.7711 62.6252H32.444C31.6665 62.6252 31 63.2955 31 64.0776V103.295C31 104.077 31.6665 104.747 32.444 104.747H54.8821C55.6597 104.747 56.3262 104.077 56.3262 103.295V101.507C61.0471 108.826 80.8748 111.284 94.2044 109.384C109.478 107.205 104.812 97.7084 104.812 97.7084C111.366 92.6247 108.312 88.8258 106.867 85.3622C110.755 79.4405 108.756 76.9266 105.423 73.016Z" fill="white"/>
</g>
<defs>
<clipPath id="clip0">
<rect width="78" height="80" fill="white" transform="translate(31 30)"/>
</clipPath>
</defs>
</svg>
