<svg width="140" height="140" viewBox="0 0 140 140" fill="none" xmlns="http://www.w3.org/2000/svg">
<circle cx="70" cy="70" r="70" fill="#3D3224"/>
<mask id="mask0" mask-type="alpha" maskUnits="userSpaceOnUse" x="10" y="25" width="120" height="112">
<g clip-path="url(#clip0)">
<path fill-rule="evenodd" clip-rule="evenodd" d="M81.3459 72.8155C81.2308 70.9276 80.0233 69.669 77.6081 69.0397C77.7231 68.0671 77.7806 66.9229 77.7231 65.5499C79.1032 64.3485 79.8507 62.5178 80.0233 60.115C83.531 56.8541 84.3361 54.1652 82.4384 51.934C83.646 40.6065 79.4482 35 69.7874 35C69.6724 35 69.5574 35 69.4999 35C69.3849 35 69.2699 35 69.2124 35C59.5516 35 55.3538 40.6065 56.5614 51.8768C54.6638 54.108 55.4688 56.8541 58.9766 60.115C59.1491 62.5178 59.8967 64.3485 61.2768 65.5499C61.2193 66.9229 61.2768 68.0671 61.3918 69.0397C58.9766 69.669 57.7115 70.9276 57.654 72.8155C43.6804 74.2458 41.4377 80.2528 40.5177 91.9235C40.4026 93.6398 41.4952 129.51 43.1629 129.911C50.8685 131.856 59.6667 132.886 69.4999 133C79.3332 132.886 88.1314 131.856 95.837 129.911C97.5046 129.51 98.5972 93.5826 98.4822 91.9235C97.5621 80.2528 95.3195 74.2458 81.3459 72.8155Z" fill="#FFF200"/>
<path fill-rule="evenodd" clip-rule="evenodd" d="M116.999 81.9691C116.424 74.3602 114.928 70.4699 105.843 69.4974C105.785 68.2388 104.98 67.4378 103.428 67.0374C103.543 66.4081 103.543 65.6643 103.485 64.749C104.405 63.948 104.865 62.8039 104.98 61.202C107.28 59.0852 107.798 57.3117 106.59 55.8815C107.395 48.5015 104.578 44.84 98.1947 44.8973C91.7542 44.84 88.994 48.5015 89.799 55.8815C88.5914 57.3117 89.109 59.1424 91.3516 61.2592C91.4666 62.8611 91.9267 64.0053 92.8468 64.8062C92.7893 65.7215 92.8468 66.4653 92.9043 67.0946C91.3516 67.495 90.5466 68.296 90.4891 69.4974C94.1694 70.8132 96.9871 72.7583 98.9997 75.4472C102.22 79.6235 103.198 84.8867 103.715 91.5803C103.83 93.0105 103.485 103.537 103.083 111.718C102.91 115.494 102.68 118.698 102.45 121.444C106.763 121.158 110.673 120.528 114.296 119.67C115.274 119.327 117.056 83.056 116.999 81.9691Z" fill="#FFF200"/>
<path fill-rule="evenodd" clip-rule="evenodd" d="M40.0576 75.39C42.1278 72.7011 44.888 70.756 48.5683 69.4974C48.5108 68.296 47.7057 67.4378 46.1531 67.0374C46.2681 66.4081 46.2681 65.6643 46.2106 64.749C47.1307 63.948 47.5907 62.8039 47.7057 61.202C50.0059 59.0852 50.5234 57.3117 49.3158 55.8815C50.1209 48.5015 47.3032 44.84 40.9202 44.8973C34.5372 44.84 31.7195 48.5015 32.5245 55.8815C31.2019 57.3117 31.777 59.0852 34.0196 61.202C34.1347 62.8039 34.5947 63.948 35.5148 64.749C35.4573 65.6643 35.5148 66.4081 35.5723 67.0374C34.0196 67.4378 33.2146 68.296 33.1571 69.4974C24.0714 70.4699 22.5763 74.3602 22.0012 81.9691C21.9437 83.056 23.9564 119.327 25.0489 119.613C28.5567 120.471 32.4095 121.1 36.6074 121.386C36.3773 118.698 36.2048 115.437 36.0323 111.718C35.6298 103.594 35.2847 93.0677 35.3998 91.5803C35.8598 84.8295 36.8374 79.5663 40.0576 75.39Z" fill="#FFF200"/>
</g>
</mask>
<g mask="url(#mask0)">
<circle cx="70" cy="70" r="50" fill="white"/>
</g>
<defs>
<clipPath id="clip0">
<rect width="120" height="111.138" fill="white" transform="translate(10 25)"/>
</clipPath>
</defs>
</svg>
