<?xml version="1.0" encoding="utf-8"?>
<!-- Generator: Adobe Illustrator 25.0.1, SVG Export Plug-In . SVG Version: 6.00 Build 0)  -->
<svg version="1.1" id="Layer_1" xmlns="http://www.w3.org/2000/svg" xmlns:xlink="http://www.w3.org/1999/xlink" x="0px" y="0px"
	 viewBox="0 0 1037 300" style="enable-background:new 0 0 1037 300;" xml:space="preserve">
<style type="text/css">
	.st0{fill:#FFFFFF;}
	.st1{fill:#2360A5;}
	.st2{fill-rule:evenodd;clip-rule:evenodd;fill:#FF5500;}
	.st3{fill:#FF5500;}
	.st4{fill:#333333;}
</style>
<circle class="st0" cx="150" cy="150" r="150"/>
<circle class="st0" cx="518.5" cy="150" r="150"/>
<circle class="st0" cx="887" cy="150" r="150"/>
<path class="st1" d="M356.8,149.3l-16.2-12.1c-0.4-0.3-1-0.2-1.3,0.2c-0.1,0.2-0.2,0.4-0.2,0.6v6c0,0.5-0.4,0.9-0.9,0.9
	c-0.1,0-0.1,0-0.2,0l-25.8-4c-0.5-0.1-1,0.2-1.1,0.8c0,0.1,0,0.1,0,0.2v16.4c0,0.5,0.4,0.9,0.9,0.9c0.1,0,0.1,0,0.2,0l25.8-3.9
	c0.5-0.1,1,0.3,1.1,0.8c0,0.1,0,0.1,0,0.2v5.9c0,0.5,0.4,0.9,0.9,0.9c0.2,0,0.4-0.1,0.6-0.2l16.2-12.1c0.4-0.3,0.5-0.9,0.2-1.3
	C356.9,149.4,356.8,149.3,356.8,149.3z"/>
<path class="st1" d="M725.8,149.3l-16.2-12.1c-0.4-0.3-1-0.2-1.3,0.2c-0.1,0.2-0.2,0.4-0.2,0.6v6c0,0.5-0.4,0.9-0.9,0.9
	c-0.1,0-0.1,0-0.2,0l-25.8-4c-0.5-0.1-1,0.2-1.1,0.8c0,0.1,0,0.1,0,0.2v16.4c0,0.5,0.4,0.9,0.9,0.9c0.1,0,0.1,0,0.2,0l25.8-3.9
	c0.5-0.1,1,0.3,1.1,0.8c0,0.1,0,0.1,0,0.2v5.9c0,0.5,0.4,0.9,0.9,0.9c0.2,0,0.4-0.1,0.6-0.2l16.2-12.1c0.4-0.3,0.5-0.9,0.2-1.3
	C725.9,149.4,725.8,149.3,725.8,149.3z"/>
<path class="st2" d="M518.5,95.1l-30.4-24.8H549L518.5,95.1z M518.5,102.5c0.7,0,1.4-0.3,2-0.7L554,74.5v43.1c0,1.4-1.1,2.5-2.5,2.5
	h-66.1c-1.4,0-2.5-1.1-2.5-2.5V74.5l33.5,27.3C517.1,102.3,517.8,102.5,518.5,102.5z"/>
<path class="st2" d="M142,37.5h35.9c1.8,0,3.2,1.4,3.3,3.3v75.5c0,1.8-1.5,3.3-3.3,3.3h-56.5c-1.8,0-3.3-1.5-3.3-3.3v-55
	c0-1.3,0.5-2.5,1.4-3.4l19-19C139.5,38,140.7,37.5,142,37.5z M124.6,67.5v43.9c0,0.9,0.7,1.6,1.7,1.7h46.6c0.9,0,1.6-0.7,1.6-1.6
	V45.7c0-0.9-0.7-1.6-1.6-1.6h-24.8c-0.9,0-1.6,0.7-1.6,1.6v16.9c0,1.8-1.5,3.3-3.3,3.3h-17C125.4,65.9,124.6,66.5,124.6,67.5z
	 M131.7,80.2h35.8c0.4,0,0.8,0.3,0.8,0.8v3.3c0,0.5-0.3,0.8-0.8,0.8h-35.8c-0.5,0-0.8-0.3-0.8-0.8V81
	C130.9,80.5,131.3,80.2,131.7,80.2z M167.5,90.7h-35.8c-0.5,0-0.8,0.3-0.8,0.8v3.3c0,0.5,0.3,0.8,0.8,0.8h35.8
	c0.5,0,0.8-0.3,0.8-0.8v-3.3C168.3,91.1,167.9,90.7,167.5,90.7z M131.7,101.2h35.8c0.4,0,0.8,0.3,0.8,0.8v3.3c0,0.5-0.3,0.8-0.8,0.8
	h-35.8c-0.5,0-0.8-0.3-0.8-0.8V102C130.9,101.5,131.3,101.2,131.7,101.2z"/>
<path class="st3" d="M912.8,117v-3.9c0-9.6-5.3-18-13-22.4c5-3.9,8.2-9.9,8.2-16.6c0-12.1-10.3-21.9-22.6-20.9
	c-10.2,0.8-18.5,9-19.3,19.3c-0.6,7.4,2.7,14,8.1,18.2c-7.8,4.5-13,12.9-13,22.4v4c0,1.9-0.1,2.4,2.4,2.4h46.9
	C912.9,119.4,912.8,118.9,912.8,117z M877.4,70.9c0-1.7,1.3-3,3-3s3,1.3,3,3s-1.3,3-3,3S877.4,72.6,877.4,70.9z M893.3,82.8
	c-2,1-4.2,1.5-6.4,1.5s-4.4-0.5-6.4-1.5c-0.5-0.3-0.7-0.9-0.4-1.3c0.2-0.5,0.9-0.7,1.3-0.4c3.5,1.8,7.6,1.8,11.1,0
	c0.5-0.3,1.1-0.1,1.3,0.4C894,82,893.8,82.6,893.3,82.8z M893.4,73.9c-1.7,0-3-1.3-3-3s1.3-3,3-3s3,1.3,3,3S895.1,73.9,893.4,73.9z"
	/>
<path class="st4" d="M209.5,225.3c0.5,0,0.9,0.4,0.9,0.9s-0.4,0.9-0.9,0.9s-0.9-0.4-0.9-0.9S209,225.3,209.5,225.3z"/>
<g>
	<path class="st4" d="M427,168.3l-1.9,7.2h-1.5l-2.7-9.3h1.6l1.9,7.5l2-7.5h1.1l2,7.5l1.9-7.5h1.6l-2.7,9.3h-1.5L427,168.3z"/>
	<path class="st4" d="M434.1,166.8c0-0.4,0.4-0.8,0.8-0.8c0.4,0,0.8,0.4,0.8,0.8s-0.4,0.8-0.8,0.8
		C434.4,167.6,434.1,167.3,434.1,166.8z M434.3,168.7h1.3v6.8h-1.3V168.7z"/>
	<path class="st4" d="M437.8,174v-4.2h-1.1v-1.1h1.1v-1.8h1.3v1.8h1.4v1.1H439v3.9c0,0.5,0.2,0.8,0.7,0.8c0.3,0,0.6-0.1,0.7-0.3
		l0.3,1c-0.3,0.3-0.7,0.4-1.3,0.4C438.3,175.7,437.8,175.1,437.8,174z"/>
	<path class="st4" d="M446.4,171.2c0-1.1-0.6-1.5-1.4-1.5c-0.8,0-1.5,0.5-1.9,1v4.8h-1.3v-9.3h1.3v3.5c0.4-0.5,1.4-1.1,2.4-1.1
		c1.4,0,2.2,0.7,2.2,2.2v4.8h-1.3V171.2z"/>
	<path class="st4" d="M449.4,166.8c0-0.4,0.4-0.8,0.8-0.8c0.4,0,0.8,0.4,0.8,0.8s-0.4,0.8-0.8,0.8
		C449.8,167.6,449.4,167.3,449.4,166.8z M449.6,168.7h1.3v6.8h-1.3V168.7z"/>
	<path class="st4" d="M457.5,171.2c0-1.1-0.6-1.5-1.4-1.5c-0.8,0-1.5,0.5-1.9,1v4.8h-1.3v-6.8h1.3v1c0.4-0.5,1.3-1.1,2.4-1.1
		c1.4,0,2.2,0.8,2.2,2.2v4.7h-1.3V171.2z"/>
	<path class="st4" d="M468.5,174.8c-0.5,0.6-1.3,0.9-2.2,0.9c-1.1,0-2.4-0.8-2.4-2.2c0-1.5,1.2-2.2,2.4-2.2c0.9,0,1.7,0.3,2.2,0.9
		V171c0-0.8-0.7-1.3-1.7-1.3c-0.8,0-1.4,0.3-2,0.9l-0.5-0.9c0.8-0.7,1.7-1.1,2.8-1.1c1.5,0,2.7,0.6,2.7,2.4v4.6h-1.3V174.8z
		 M468.5,172.9c-0.4-0.5-1-0.8-1.7-0.8c-0.9,0-1.6,0.5-1.6,1.3s0.6,1.3,1.6,1.3c0.7,0,1.4-0.3,1.7-0.8V172.9z"/>
	<path class="st4" d="M479.6,170.3l-1.7,5.2h-1.3l-2.1-6.8h1.3l1.5,5.2l1.7-5.2h1.1l1.7,5.2l1.5-5.2h1.3l-2.1,6.8h-1.3L479.6,170.3z
		"/>
	<path class="st4" d="M488.8,168.6c2,0,3.3,1.6,3.3,3.7v0.3h-5.4c0.1,1.1,0.9,2.1,2.3,2.1c0.7,0,1.5-0.3,2-0.8l0.6,0.8
		c-0.7,0.7-1.6,1-2.7,1c-2,0-3.5-1.4-3.5-3.6C485.4,170.2,486.8,168.6,488.8,168.6z M486.7,171.6h4.1c0-0.9-0.6-2-2.1-2
		C487.4,169.6,486.8,170.7,486.7,171.6z"/>
	<path class="st4" d="M496.6,168.6c2,0,3.3,1.6,3.3,3.7v0.3h-5.4c0.1,1.1,0.9,2.1,2.3,2.1c0.7,0,1.5-0.3,2-0.8l0.6,0.8
		c-0.7,0.7-1.6,1-2.7,1c-2,0-3.5-1.4-3.5-3.6C493.2,170.2,494.7,168.6,496.6,168.6z M494.6,171.6h4.1c0-0.9-0.6-2-2.1-2
		C495.3,169.6,494.6,170.7,494.6,171.6z"/>
	<path class="st4" d="M503.8,172.6l-1,1v1.9h-1.3v-9.3h1.3v6l3.3-3.4h1.6l-2.9,3.1l2.9,3.7H506L503.8,172.6z"/>
	<path class="st4" d="M508.6,176.8c0.4-0.3,0.9-0.8,1-1.3c0,0-0.1,0-0.2,0c-0.4,0-0.8-0.3-0.8-0.8c0-0.5,0.4-0.9,0.9-0.9
		c0.5,0,1,0.4,1,1.2c0,0.9-0.5,1.8-1.2,2.3L508.6,176.8z"/>
	<path class="st4" d="M519.9,170.3l-1.7,5.2H517l-2.1-6.8h1.3l1.5,5.2l1.7-5.2h1.1l1.7,5.2l1.5-5.2h1.3l-2.1,6.8h-1.3L519.9,170.3z"
		/>
	<path class="st4" d="M529.1,168.6c2,0,3.3,1.6,3.3,3.7v0.3H527c0.1,1.1,0.9,2.1,2.3,2.1c0.7,0,1.5-0.3,2-0.8l0.6,0.8
		c-0.7,0.7-1.6,1-2.7,1c-2,0-3.5-1.4-3.5-3.6C525.7,170.2,527.1,168.6,529.1,168.6z M527,171.6h4.1c0-0.9-0.6-2-2.1-2
		C527.7,169.6,527.1,170.7,527,171.6z"/>
	<path class="st4" d="M541.8,170.3l-1.7,5.2h-1.3l-2.1-6.8h1.3l1.5,5.2l1.7-5.2h1.1l1.7,5.2l1.5-5.2h1.3l-2.1,6.8h-1.3L541.8,170.3z
		"/>
	<path class="st4" d="M547.8,166.8c0-0.4,0.4-0.8,0.8-0.8c0.4,0,0.8,0.4,0.8,0.8s-0.4,0.8-0.8,0.8
		C548.2,167.6,547.8,167.3,547.8,166.8z M548,168.7h1.3v6.8H548V168.7z"/>
	<path class="st4" d="M551.3,166.2h1.3v9.3h-1.3V166.2z"/>
	<path class="st4" d="M554.5,166.2h1.3v9.3h-1.3V166.2z"/>
	<path class="st4" d="M561.4,173.7c0.5,0.5,1.4,1,2.3,1c1,0,1.5-0.4,1.5-1c0-0.7-0.8-0.9-1.6-1.1c-1.1-0.3-2.5-0.6-2.5-2
		c0-1.1,0.9-2,2.6-2c1.2,0,2,0.4,2.6,1l-0.6,0.9c-0.4-0.5-1.1-0.8-2-0.8s-1.4,0.3-1.4,0.9c0,0.6,0.7,0.8,1.6,1
		c1.2,0.3,2.6,0.6,2.6,2.1c0,1.2-1,2.1-2.7,2.1c-1.1,0-2.1-0.4-2.8-1.1L561.4,173.7z"/>
	<path class="st4" d="M570.9,168.6c2,0,3.3,1.6,3.3,3.7v0.3h-5.4c0.1,1.1,0.9,2.1,2.3,2.1c0.7,0,1.5-0.3,2-0.8l0.6,0.8
		c-0.7,0.7-1.6,1-2.7,1c-2,0-3.5-1.4-3.5-3.6C567.5,170.2,568.9,168.6,570.9,168.6z M568.8,171.6h4.1c0-0.9-0.6-2-2.1-2
		C569.6,169.6,568.9,170.7,568.8,171.6z"/>
	<path class="st4" d="M580.4,171.2c0-1.1-0.6-1.5-1.4-1.5c-0.8,0-1.5,0.5-1.9,1v4.8h-1.3v-6.8h1.3v1c0.4-0.5,1.3-1.1,2.4-1.1
		c1.4,0,2.2,0.8,2.2,2.2v4.7h-1.3V171.2z"/>
	<path class="st4" d="M588.4,174.5c-0.5,0.7-1.3,1.1-2.2,1.1c-1.8,0-3-1.3-3-3.5c0-2.2,1.3-3.6,3-3.6c0.9,0,1.7,0.4,2.2,1.1v-3.6
		h1.3v9.3h-1.3V174.5z M588.4,170.7c-0.4-0.5-1.1-1-1.9-1c-1.3,0-2,1-2,2.4c0,1.4,0.8,2.4,2,2.4c0.8,0,1.5-0.4,1.9-1V170.7z"/>
	<path class="st4" d="M595.7,177.1c0.5,0,0.8-0.2,1-0.7l0.4-0.9l-2.8-6.8h1.3l2.1,5.3l2.1-5.3h1.4l-3.3,8.1
		c-0.4,1.1-1.2,1.4-2.2,1.5c-0.2,0-0.6,0-0.8-0.1l0.2-1.1C595.3,177.1,595.6,177.1,595.7,177.1z"/>
	<path class="st4" d="M601.9,172.1c0-1.9,1.3-3.5,3.4-3.5c2.1,0,3.4,1.6,3.4,3.5c0,2-1.3,3.6-3.4,3.6
		C603.2,175.7,601.9,174.1,601.9,172.1z M607.4,172.1c0-1.3-0.7-2.4-2.1-2.4c-1.3,0-2.1,1.1-2.1,2.4c0,1.3,0.8,2.4,2.1,2.4
		C606.6,174.6,607.4,173.4,607.4,172.1z"/>
	<path class="st4" d="M614.9,174.6c-0.5,0.6-1.4,1.1-2.4,1.1c-1.4,0-2.2-0.7-2.2-2.2v-4.8h1.3v4.4c0,1.1,0.6,1.5,1.4,1.5
		c0.8,0,1.5-0.4,1.9-1v-4.9h1.3v6.8h-1.3V174.6z"/>
	<path class="st4" d="M430.2,191.6c-0.5,0.6-1.3,0.9-2.2,0.9c-1.1,0-2.4-0.8-2.4-2.2c0-1.5,1.2-2.2,2.4-2.2c0.9,0,1.7,0.3,2.2,0.9
		v-1.1c0-0.8-0.7-1.3-1.7-1.3c-0.8,0-1.4,0.3-2,0.9l-0.5-0.9c0.8-0.7,1.7-1.1,2.8-1.1c1.5,0,2.7,0.6,2.7,2.4v4.6h-1.3V191.6z
		 M430.2,189.7c-0.4-0.5-1-0.8-1.7-0.8c-0.9,0-1.6,0.5-1.6,1.3s0.6,1.3,1.6,1.3c0.7,0,1.4-0.3,1.7-0.8V189.7z"/>
	<path class="st4" d="M438,188c0-1.1-0.6-1.5-1.4-1.5c-0.8,0-1.5,0.5-1.9,1v4.8h-1.3v-6.8h1.3v1c0.4-0.5,1.3-1.1,2.4-1.1
		c1.4,0,2.2,0.8,2.2,2.2v4.7H438V188z"/>
	<path class="st4" d="M449.4,191.4c-0.5,0.6-1.4,1.1-2.4,1.1c-1.4,0-2.2-0.7-2.2-2.2v-4.8h1.3v4.4c0,1.1,0.6,1.5,1.4,1.5
		c0.8,0,1.5-0.4,1.9-1v-4.9h1.3v6.8h-1.3V191.4z"/>
	<path class="st4" d="M452.7,194.9v-9.3h1.3v1c0.5-0.7,1.3-1.1,2.2-1.1c1.8,0,3,1.3,3,3.5c0,2.2-1.2,3.6-3,3.6
		c-0.9,0-1.7-0.4-2.2-1.1v3.6H452.7z M455.8,186.5c-0.8,0-1.5,0.4-1.9,1v2.9c0.3,0.5,1.1,1,1.9,1c1.3,0,2-1,2-2.4
		C457.9,187.5,457.1,186.5,455.8,186.5z"/>
	<path class="st4" d="M465.6,191.3c-0.5,0.7-1.3,1.1-2.2,1.1c-1.8,0-3-1.3-3-3.5c0-2.2,1.3-3.6,3-3.6c0.9,0,1.7,0.4,2.2,1.1V183h1.3
		v9.3h-1.3V191.3z M465.6,187.5c-0.4-0.5-1.1-1-1.9-1c-1.3,0-2,1-2,2.4c0,1.4,0.8,2.4,2,2.4c0.8,0,1.5-0.4,1.9-1V187.5z"/>
	<path class="st4" d="M473.1,191.6c-0.5,0.6-1.3,0.9-2.2,0.9c-1.1,0-2.4-0.8-2.4-2.2c0-1.5,1.2-2.2,2.4-2.2c0.9,0,1.7,0.3,2.2,0.9
		v-1.1c0-0.8-0.7-1.3-1.7-1.3c-0.8,0-1.4,0.3-2,0.9l-0.5-0.9c0.8-0.7,1.7-1.1,2.8-1.1c1.5,0,2.7,0.6,2.7,2.4v4.6h-1.3V191.6z
		 M473.1,189.7c-0.4-0.5-1-0.8-1.7-0.8c-0.9,0-1.6,0.5-1.6,1.3s0.6,1.3,1.6,1.3c0.7,0,1.4-0.3,1.7-0.8V189.7z"/>
	<path class="st4" d="M476.6,190.8v-4.2h-1.1v-1.1h1.1v-1.8h1.3v1.8h1.4v1.1h-1.4v3.9c0,0.5,0.2,0.8,0.7,0.8c0.3,0,0.6-0.1,0.7-0.3
		l0.3,1c-0.3,0.3-0.7,0.4-1.3,0.4C477.1,192.5,476.6,191.9,476.6,190.8z"/>
	<path class="st4" d="M483.6,185.4c2,0,3.3,1.6,3.3,3.7v0.3h-5.4c0.1,1.1,0.9,2.1,2.3,2.1c0.7,0,1.5-0.3,2-0.8l0.6,0.8
		c-0.7,0.7-1.6,1-2.7,1c-2,0-3.5-1.4-3.5-3.6C480.2,187,481.6,185.4,483.6,185.4z M481.5,188.4h4.1c0-0.9-0.6-2-2.1-2
		C482.2,186.4,481.6,187.5,481.5,188.4z"/>
	<path class="st4" d="M491.6,188.9c0-1.9,1.3-3.5,3.4-3.5c2.1,0,3.4,1.6,3.4,3.5c0,2-1.3,3.6-3.4,3.6
		C493,192.5,491.6,190.9,491.6,188.9z M497.2,188.9c0-1.3-0.7-2.4-2.1-2.4c-1.3,0-2.1,1.1-2.1,2.4c0,1.3,0.8,2.4,2.1,2.4
		C496.4,191.4,497.2,190.2,497.2,188.9z"/>
	<path class="st4" d="M504.6,188c0-1.1-0.6-1.5-1.4-1.5c-0.8,0-1.5,0.5-1.9,1v4.8h-1.3v-6.8h1.3v1c0.4-0.5,1.3-1.1,2.4-1.1
		c1.4,0,2.2,0.8,2.2,2.2v4.7h-1.3V188z"/>
	<path class="st4" d="M511.9,193.9c0.5,0,0.8-0.2,1-0.7l0.4-0.9l-2.8-6.8h1.3l2.1,5.3l2.1-5.3h1.4l-3.3,8.1
		c-0.4,1.1-1.2,1.4-2.2,1.5c-0.2,0-0.6,0-0.8-0.1l0.2-1.1C511.5,193.9,511.8,193.9,511.9,193.9z"/>
	<path class="st4" d="M518,188.9c0-1.9,1.3-3.5,3.4-3.5c2.1,0,3.4,1.6,3.4,3.5c0,2-1.3,3.6-3.4,3.6C519.4,192.5,518,190.9,518,188.9
		z M523.6,188.9c0-1.3-0.7-2.4-2.1-2.4c-1.3,0-2.1,1.1-2.1,2.4c0,1.3,0.8,2.4,2.1,2.4C522.8,191.4,523.6,190.2,523.6,188.9z"/>
	<path class="st4" d="M531,191.4c-0.5,0.6-1.4,1.1-2.4,1.1c-1.4,0-2.2-0.7-2.2-2.2v-4.8h1.3v4.4c0,1.1,0.6,1.5,1.4,1.5
		c0.8,0,1.5-0.4,1.9-1v-4.9h1.3v6.8H531V191.4z"/>
	<path class="st4" d="M534.3,185.5h1.3v1c0.5-0.7,1.3-1.2,2.2-1.2v1.3c-0.1,0-0.3,0-0.4,0c-0.6,0-1.5,0.5-1.8,1v4.7h-1.3V185.5z"/>
	<path class="st4" d="M546.8,191.6c-0.5,0.6-1.3,0.9-2.2,0.9c-1.1,0-2.4-0.8-2.4-2.2c0-1.5,1.2-2.2,2.4-2.2c0.9,0,1.7,0.3,2.2,0.9
		v-1.1c0-0.8-0.7-1.3-1.7-1.3c-0.8,0-1.4,0.3-2,0.9l-0.5-0.9c0.8-0.7,1.7-1.1,2.8-1.1c1.5,0,2.7,0.6,2.7,2.4v4.6h-1.3V191.6z
		 M546.8,189.7c-0.4-0.5-1-0.8-1.7-0.8c-0.9,0-1.6,0.5-1.6,1.3s0.6,1.3,1.6,1.3c0.7,0,1.4-0.3,1.7-0.8V189.7z"/>
	<path class="st4" d="M550.1,194.9v-9.3h1.3v1c0.5-0.7,1.3-1.1,2.2-1.1c1.8,0,3,1.3,3,3.5c0,2.2-1.2,3.6-3,3.6
		c-0.9,0-1.7-0.4-2.2-1.1v3.6H550.1z M553.2,186.5c-0.8,0-1.5,0.4-1.9,1v2.9c0.3,0.5,1.1,1,1.9,1c1.3,0,2-1,2-2.4
		C555.3,187.5,554.5,186.5,553.2,186.5z"/>
	<path class="st4" d="M558.2,194.9v-9.3h1.3v1c0.5-0.7,1.3-1.1,2.2-1.1c1.8,0,3,1.3,3,3.5c0,2.2-1.2,3.6-3,3.6
		c-0.9,0-1.7-0.4-2.2-1.1v3.6H558.2z M561.3,186.5c-0.8,0-1.5,0.4-1.9,1v2.9c0.3,0.5,1.1,1,1.9,1c1.3,0,2-1,2-2.4
		C563.3,187.5,562.6,186.5,561.3,186.5z"/>
	<path class="st4" d="M566.2,183h1.3v9.3h-1.3V183z"/>
	<path class="st4" d="M569.3,183.6c0-0.4,0.4-0.8,0.8-0.8c0.4,0,0.8,0.4,0.8,0.8s-0.4,0.8-0.8,0.8
		C569.7,184.4,569.3,184.1,569.3,183.6z M569.5,185.5h1.3v6.8h-1.3V185.5z"/>
	<path class="st4" d="M575.8,185.4c1.3,0,2,0.5,2.5,1.2l-0.8,0.8c-0.4-0.6-1-0.8-1.6-0.8c-1.3,0-2.2,1-2.2,2.4
		c0,1.4,0.9,2.4,2.2,2.4c0.7,0,1.2-0.3,1.6-0.8l0.8,0.8c-0.5,0.7-1.3,1.2-2.5,1.2c-2,0-3.4-1.5-3.4-3.6
		C572.3,186.9,573.7,185.4,575.8,185.4z"/>
	<path class="st4" d="M583.9,191.6c-0.5,0.6-1.3,0.9-2.2,0.9c-1.1,0-2.4-0.8-2.4-2.2c0-1.5,1.2-2.2,2.4-2.2c0.9,0,1.7,0.3,2.2,0.9
		v-1.1c0-0.8-0.7-1.3-1.7-1.3c-0.8,0-1.4,0.3-2,0.9l-0.5-0.9c0.8-0.7,1.7-1.1,2.8-1.1c1.5,0,2.7,0.6,2.7,2.4v4.6h-1.3V191.6z
		 M583.9,189.7c-0.4-0.5-1-0.8-1.7-0.8c-0.9,0-1.6,0.5-1.6,1.3s0.6,1.3,1.6,1.3c0.7,0,1.4-0.3,1.7-0.8V189.7z"/>
	<path class="st4" d="M587.4,190.8v-4.2h-1.1v-1.1h1.1v-1.8h1.3v1.8h1.4v1.1h-1.4v3.9c0,0.5,0.2,0.8,0.7,0.8c0.3,0,0.6-0.1,0.7-0.3
		l0.3,1c-0.3,0.3-0.7,0.4-1.3,0.4C588,192.5,587.4,191.9,587.4,190.8z"/>
	<path class="st4" d="M591.2,183.6c0-0.4,0.4-0.8,0.8-0.8c0.4,0,0.8,0.4,0.8,0.8s-0.4,0.8-0.8,0.8
		C591.6,184.4,591.2,184.1,591.2,183.6z M591.4,185.5h1.3v6.8h-1.3V185.5z"/>
	<path class="st4" d="M594.3,188.9c0-1.9,1.3-3.5,3.4-3.5c2.1,0,3.4,1.6,3.4,3.5c0,2-1.3,3.6-3.4,3.6
		C595.6,192.5,594.3,190.9,594.3,188.9z M599.8,188.9c0-1.3-0.7-2.4-2.1-2.4c-1.3,0-2.1,1.1-2.1,2.4c0,1.3,0.8,2.4,2.1,2.4
		C599.1,191.4,599.8,190.2,599.8,188.9z"/>
	<path class="st4" d="M607.3,188c0-1.1-0.6-1.5-1.4-1.5c-0.8,0-1.5,0.5-1.9,1v4.8h-1.3v-6.8h1.3v1c0.4-0.5,1.3-1.1,2.4-1.1
		c1.4,0,2.2,0.8,2.2,2.2v4.7h-1.3V188z"/>
	<path class="st4" d="M611.2,190.7c0.5,0,0.9,0.4,0.9,0.9c0,0.5-0.4,0.9-0.9,0.9s-0.9-0.4-0.9-0.9
		C610.3,191.1,610.7,190.7,611.2,190.7z"/>
	<path class="st4" d="M423,199.8h1.4v9.3H423V199.8z"/>
	<path class="st4" d="M431,204.8c0-1.1-0.6-1.5-1.4-1.5c-0.8,0-1.5,0.5-1.9,1v4.8h-1.3v-6.8h1.3v1c0.4-0.5,1.3-1.1,2.4-1.1
		c1.4,0,2.2,0.8,2.2,2.2v4.7H431V204.8z"/>
	<path class="st4" d="M440.9,202.2c1.3,0,2,0.5,2.5,1.2l-0.8,0.8c-0.4-0.6-1-0.8-1.6-0.8c-1.3,0-2.2,1-2.2,2.4
		c0,1.4,0.9,2.4,2.2,2.4c0.7,0,1.2-0.3,1.6-0.8l0.8,0.8c-0.5,0.7-1.3,1.2-2.5,1.2c-2,0-3.4-1.5-3.4-3.6
		C437.5,203.7,438.9,202.2,440.9,202.2z"/>
	<path class="st4" d="M449,208.4c-0.5,0.6-1.3,0.9-2.2,0.9c-1.1,0-2.4-0.8-2.4-2.2c0-1.5,1.2-2.2,2.4-2.2c0.9,0,1.7,0.3,2.2,0.9
		v-1.1c0-0.8-0.7-1.3-1.7-1.3c-0.8,0-1.4,0.3-2,0.9l-0.5-0.9c0.8-0.7,1.7-1.1,2.8-1.1c1.5,0,2.7,0.6,2.7,2.4v4.6H449V208.4z
		 M449,206.5c-0.4-0.5-1-0.8-1.7-0.8c-0.9,0-1.6,0.5-1.6,1.3c0,0.8,0.6,1.3,1.6,1.3c0.7,0,1.4-0.3,1.7-0.8V206.5z"/>
	<path class="st4" d="M452.3,207.3c0.5,0.5,1.4,1,2.3,1c1,0,1.5-0.4,1.5-1c0-0.7-0.8-0.9-1.6-1.1c-1.1-0.3-2.5-0.6-2.5-2
		c0-1.1,0.9-2,2.6-2c1.2,0,2,0.4,2.6,1l-0.6,0.9c-0.4-0.5-1.1-0.8-2-0.8c-0.9,0-1.4,0.3-1.4,0.9c0,0.6,0.7,0.8,1.6,1
		c1.2,0.3,2.6,0.6,2.6,2.1c0,1.2-1,2.1-2.7,2.1c-1.1,0-2.1-0.3-2.8-1.1L452.3,207.3z"/>
	<path class="st4" d="M461.8,202.2c2,0,3.3,1.6,3.3,3.7v0.3h-5.4c0.1,1.1,0.9,2.1,2.3,2.1c0.7,0,1.5-0.3,2-0.8l0.6,0.8
		c-0.7,0.7-1.6,1-2.7,1c-2,0-3.5-1.4-3.5-3.6C458.4,203.8,459.8,202.2,461.8,202.2z M459.7,205.2h4.1c0-0.9-0.6-2-2.1-2
		C460.5,203.2,459.8,204.3,459.7,205.2z"/>
	<path class="st4" d="M470.7,210.7c0.5,0,0.8-0.2,1-0.7l0.4-0.9l-2.8-6.8h1.3l2.1,5.3l2.1-5.3h1.4l-3.3,8.1
		c-0.4,1.1-1.2,1.4-2.2,1.5c-0.2,0-0.6,0-0.8-0.1l0.2-1.1C470.3,210.7,470.6,210.7,470.7,210.7z"/>
	<path class="st4" d="M476.8,205.7c0-1.9,1.3-3.5,3.4-3.5c2.1,0,3.4,1.6,3.4,3.5c0,2-1.3,3.6-3.4,3.6
		C478.2,209.3,476.8,207.7,476.8,205.7z M482.4,205.7c0-1.3-0.7-2.4-2.1-2.4c-1.3,0-2.1,1.1-2.1,2.4c0,1.3,0.8,2.4,2.1,2.4
		C481.6,208.2,482.4,207,482.4,205.7z"/>
	<path class="st4" d="M489.8,208.2c-0.5,0.6-1.4,1.1-2.4,1.1c-1.4,0-2.2-0.7-2.2-2.2v-4.8h1.3v4.4c0,1.1,0.6,1.5,1.4,1.5
		c0.8,0,1.5-0.4,1.9-1v-4.9h1.3v6.8h-1.3V208.2z"/>
	<path class="st4" d="M501.5,208.1c-0.5,0.7-1.3,1.1-2.2,1.1c-1.8,0-3-1.3-3-3.5c0-2.2,1.3-3.6,3-3.6c0.9,0,1.7,0.4,2.2,1.1v-3.6
		h1.3v9.3h-1.3V208.1z M501.5,204.3c-0.4-0.5-1.1-1-1.9-1c-1.3,0-2,1-2,2.4c0,1.4,0.8,2.4,2,2.4c0.8,0,1.5-0.4,1.9-1V204.3z"/>
	<path class="st4" d="M504.4,205.7c0-1.9,1.3-3.5,3.4-3.5c2.1,0,3.4,1.6,3.4,3.5c0,2-1.3,3.6-3.4,3.6
		C505.7,209.3,504.4,207.7,504.4,205.7z M509.9,205.7c0-1.3-0.7-2.4-2.1-2.4c-1.3,0-2.1,1.1-2.1,2.4c0,1.3,0.8,2.4,2.1,2.4
		C509.2,208.2,509.9,207,509.9,205.7z"/>
	<path class="st4" d="M521,204.8c0-1.1-0.6-1.5-1.4-1.5c-0.8,0-1.5,0.5-1.9,1v4.8h-1.3v-6.8h1.3v1c0.4-0.5,1.3-1.1,2.4-1.1
		c1.4,0,2.2,0.8,2.2,2.2v4.7H521V204.8z"/>
	<path class="st4" d="M523.8,205.7c0-1.9,1.3-3.5,3.4-3.5c2.1,0,3.4,1.6,3.4,3.5c0,2-1.3,3.6-3.4,3.6
		C525.1,209.3,523.8,207.7,523.8,205.7z M529.3,205.7c0-1.3-0.7-2.4-2.1-2.4c-1.3,0-2.1,1.1-2.1,2.4c0,1.3,0.8,2.4,2.1,2.4
		C528.6,208.2,529.3,207,529.3,205.7z"/>
	<path class="st4" d="M532.5,207.6v-4.2h-1.1v-1.1h1.1v-1.8h1.3v1.8h1.4v1.1h-1.4v3.9c0,0.5,0.2,0.8,0.7,0.8c0.3,0,0.6-0.1,0.7-0.3
		l0.3,1c-0.3,0.3-0.7,0.4-1.3,0.4C533.1,209.3,532.5,208.7,532.5,207.6z"/>
	<path class="st4" d="M540.1,211.7v-9.3h1.3v1c0.5-0.7,1.3-1.1,2.2-1.1c1.8,0,3,1.3,3,3.5c0,2.2-1.2,3.6-3,3.6
		c-0.9,0-1.7-0.4-2.2-1.1v3.6H540.1z M543.3,203.3c-0.8,0-1.5,0.4-1.9,1v2.9c0.3,0.5,1.1,1,1.9,1c1.3,0,2-1,2-2.4
		C545.3,204.3,544.5,203.3,543.3,203.3z"/>
	<path class="st4" d="M548.2,202.3h1.3v1c0.5-0.7,1.3-1.2,2.2-1.2v1.3c-0.1,0-0.3,0-0.4,0c-0.6,0-1.5,0.5-1.8,1v4.7h-1.3V202.3z"/>
	<path class="st4" d="M552.5,205.7c0-1.9,1.3-3.5,3.4-3.5c2.1,0,3.4,1.6,3.4,3.5c0,2-1.3,3.6-3.4,3.6
		C553.9,209.3,552.5,207.7,552.5,205.7z M558.1,205.7c0-1.3-0.7-2.4-2.1-2.4c-1.3,0-2.1,1.1-2.1,2.4c0,1.3,0.8,2.4,2.1,2.4
		C557.3,208.2,558.1,207,558.1,205.7z"/>
	<path class="st4" d="M564,202.2c1.3,0,2,0.5,2.5,1.2l-0.8,0.8c-0.4-0.6-1-0.8-1.6-0.8c-1.3,0-2.2,1-2.2,2.4c0,1.4,0.9,2.4,2.2,2.4
		c0.7,0,1.2-0.3,1.6-0.8l0.8,0.8c-0.5,0.7-1.3,1.2-2.5,1.2c-2,0-3.4-1.5-3.4-3.6C560.5,203.7,561.9,202.2,564,202.2z"/>
	<path class="st4" d="M570.9,202.2c2,0,3.3,1.6,3.3,3.7v0.3h-5.4c0.1,1.1,0.9,2.1,2.3,2.1c0.7,0,1.5-0.3,2-0.8l0.6,0.8
		c-0.7,0.7-1.6,1-2.7,1c-2,0-3.5-1.4-3.5-3.6C567.5,203.8,568.9,202.2,570.9,202.2z M568.8,205.2h4.1c0-0.9-0.6-2-2.1-2
		C569.5,203.2,568.9,204.3,568.8,205.2z"/>
	<path class="st4" d="M578.7,202.2c2,0,3.3,1.6,3.3,3.7v0.3h-5.4c0.1,1.1,0.9,2.1,2.3,2.1c0.7,0,1.5-0.3,2-0.8l0.6,0.8
		c-0.7,0.7-1.6,1-2.7,1c-2,0-3.5-1.4-3.5-3.6C575.3,203.8,576.7,202.2,578.7,202.2z M576.6,205.2h4.1c0-0.9-0.6-2-2.1-2
		C577.4,203.2,576.7,204.3,576.6,205.2z"/>
	<path class="st4" d="M588.4,208.1c-0.5,0.7-1.3,1.1-2.2,1.1c-1.8,0-3-1.3-3-3.5c0-2.2,1.3-3.6,3-3.6c0.9,0,1.7,0.4,2.2,1.1v-3.6
		h1.3v9.3h-1.3V208.1z M588.4,204.3c-0.4-0.5-1.1-1-1.9-1c-1.3,0-2,1-2,2.4c0,1.4,0.8,2.4,2,2.4c0.8,0,1.5-0.4,1.9-1V204.3z"/>
	<path class="st4" d="M591.5,210.4c0.4-0.3,0.9-0.8,1-1.3c0,0-0.1,0-0.2,0c-0.4,0-0.8-0.3-0.8-0.8c0-0.5,0.4-0.9,0.9-0.9
		c0.5,0,1,0.4,1,1.2c0,0.9-0.5,1.8-1.2,2.3L591.5,210.4z"/>
	<path class="st4" d="M602.8,203.9l-1.7,5.2h-1.3l-2.1-6.8h1.3l1.5,5.2l1.7-5.2h1.1l1.7,5.2l1.5-5.2h1.3l-2.1,6.8h-1.3L602.8,203.9z
		"/>
	<path class="st4" d="M612,202.2c2,0,3.3,1.6,3.3,3.7v0.3H610c0.1,1.1,0.9,2.1,2.3,2.1c0.7,0,1.5-0.3,2-0.8l0.6,0.8
		c-0.7,0.7-1.6,1-2.7,1c-2,0-3.5-1.4-3.5-3.6C608.6,203.8,610,202.2,612,202.2z M609.9,205.2h4.1c0-0.9-0.6-2-2.1-2
		C610.7,203.2,610,204.3,609.9,205.2z"/>
	<path class="st4" d="M432.9,220.7l-1.7,5.2H430l-2.1-6.8h1.3l1.5,5.2l1.7-5.2h1.1l1.7,5.2l1.5-5.2h1.3l-2.1,6.8h-1.3L432.9,220.7z"
		/>
	<path class="st4" d="M438.9,217.2c0-0.4,0.4-0.8,0.8-0.8c0.4,0,0.8,0.4,0.8,0.8c0,0.4-0.4,0.8-0.8,0.8
		C439.3,218,438.9,217.7,438.9,217.2z M439.1,219.1h1.3v6.8h-1.3V219.1z"/>
	<path class="st4" d="M442.4,216.6h1.3v9.3h-1.3V216.6z"/>
	<path class="st4" d="M445.7,216.6h1.3v9.3h-1.3V216.6z"/>
	<path class="st4" d="M452.6,224.1c0.5,0.5,1.4,1,2.3,1c1,0,1.5-0.4,1.5-1c0-0.7-0.8-0.9-1.6-1.1c-1.1-0.3-2.5-0.6-2.5-2
		c0-1.1,0.9-2,2.6-2c1.2,0,2,0.4,2.6,1l-0.6,0.9c-0.4-0.5-1.1-0.8-2-0.8s-1.4,0.3-1.4,0.9c0,0.6,0.7,0.8,1.6,1
		c1.2,0.3,2.6,0.6,2.6,2.1c0,1.2-1,2.1-2.7,2.1c-1.1,0-2.1-0.4-2.8-1L452.6,224.1z"/>
	<path class="st4" d="M463.7,225c-0.5,0.6-1.4,1.1-2.4,1.1c-1.4,0-2.2-0.7-2.2-2.2v-4.8h1.3v4.4c0,1.1,0.6,1.5,1.4,1.5
		c0.8,0,1.5-0.4,1.9-1v-4.9h1.3v6.8h-1.3V225z"/>
	<path class="st4" d="M466.9,216.6h1.3v3.6c0.5-0.7,1.3-1.1,2.2-1.1c1.8,0,3,1.4,3,3.6c0,2.2-1.3,3.5-3,3.5c-0.9,0-1.7-0.5-2.2-1.1
		v1h-1.3V216.6z M470.1,225c1.3,0,2-1,2-2.4c0-1.4-0.8-2.4-2-2.4c-0.8,0-1.5,0.5-1.9,1v2.9C468.5,224.5,469.3,225,470.1,225z"/>
	<path class="st4" d="M475,224.1c0.5,0.5,1.4,1,2.3,1c1,0,1.5-0.4,1.5-1c0-0.7-0.8-0.9-1.6-1.1c-1.1-0.3-2.5-0.6-2.5-2
		c0-1.1,0.9-2,2.6-2c1.2,0,2,0.4,2.6,1l-0.6,0.9c-0.4-0.5-1.1-0.8-2-0.8c-0.9,0-1.4,0.3-1.4,0.9c0,0.6,0.7,0.8,1.6,1
		c1.2,0.3,2.6,0.6,2.6,2.1c0,1.2-1,2.1-2.7,2.1c-1.1,0-2.1-0.4-2.8-1L475,224.1z"/>
	<path class="st4" d="M481.8,224.4v-4.2h-1.1v-1.1h1.1v-1.8h1.3v1.8h1.4v1.1h-1.4v3.9c0,0.5,0.2,0.8,0.7,0.8c0.3,0,0.6-0.1,0.7-0.3
		l0.3,1c-0.3,0.3-0.7,0.4-1.3,0.4C482.4,226.1,481.8,225.5,481.8,224.4z"/>
	<path class="st4" d="M490,225.2c-0.5,0.6-1.3,0.9-2.2,0.9c-1.1,0-2.4-0.8-2.4-2.2c0-1.5,1.2-2.2,2.4-2.2c0.9,0,1.7,0.3,2.2,0.9
		v-1.1c0-0.8-0.7-1.3-1.7-1.3c-0.8,0-1.4,0.3-2,0.9l-0.5-0.9c0.8-0.7,1.7-1.1,2.8-1.1c1.5,0,2.7,0.6,2.7,2.4v4.6H490V225.2z
		 M490,223.3c-0.4-0.5-1-0.8-1.7-0.8c-0.9,0-1.6,0.5-1.6,1.3c0,0.8,0.6,1.3,1.6,1.3c0.7,0,1.4-0.3,1.7-0.8V223.3z"/>
	<path class="st4" d="M497.9,221.6c0-1.1-0.6-1.5-1.4-1.5c-0.8,0-1.5,0.5-1.9,1v4.8h-1.3v-6.8h1.3v1c0.4-0.5,1.3-1.1,2.4-1.1
		c1.4,0,2.2,0.8,2.2,2.2v4.7h-1.3V221.6z"/>
	<path class="st4" d="M501.4,224.4v-4.2h-1.1v-1.1h1.1v-1.8h1.3v1.8h1.4v1.1h-1.4v3.9c0,0.5,0.2,0.8,0.7,0.8c0.3,0,0.6-0.1,0.7-0.3
		l0.3,1c-0.3,0.3-0.7,0.4-1.3,0.4C501.9,226.1,501.4,225.5,501.4,224.4z"/>
	<path class="st4" d="M505.2,217.2c0-0.4,0.4-0.8,0.8-0.8c0.4,0,0.8,0.4,0.8,0.8c0,0.4-0.4,0.8-0.8,0.8
		C505.6,218,505.2,217.7,505.2,217.2z M505.4,219.1h1.3v6.8h-1.3V219.1z"/>
	<path class="st4" d="M512.8,225.2c-0.5,0.6-1.3,0.9-2.2,0.9c-1.1,0-2.4-0.8-2.4-2.2c0-1.5,1.2-2.2,2.4-2.2c0.9,0,1.7,0.3,2.2,0.9
		v-1.1c0-0.8-0.7-1.3-1.7-1.3c-0.8,0-1.4,0.3-2,0.9l-0.5-0.9c0.8-0.7,1.7-1.1,2.8-1.1c1.5,0,2.7,0.6,2.7,2.4v4.6h-1.3V225.2z
		 M512.8,223.3c-0.4-0.5-1-0.8-1.7-0.8c-0.9,0-1.6,0.5-1.6,1.3c0,0.8,0.6,1.3,1.6,1.3c0.7,0,1.4-0.3,1.7-0.8V223.3z"/>
	<path class="st4" d="M516.4,224.4v-4.2h-1.1v-1.1h1.1v-1.8h1.3v1.8h1.4v1.1h-1.4v3.9c0,0.5,0.2,0.8,0.7,0.8c0.3,0,0.6-0.1,0.7-0.3
		l0.3,1c-0.3,0.3-0.7,0.4-1.3,0.4C516.9,226.1,516.4,225.5,516.4,224.4z"/>
	<path class="st4" d="M523.4,219c2,0,3.3,1.6,3.3,3.7v0.3h-5.4c0.1,1.1,0.9,2.1,2.3,2.1c0.7,0,1.5-0.3,2-0.8l0.6,0.8
		c-0.7,0.7-1.6,1-2.7,1c-2,0-3.5-1.4-3.5-3.6C520,220.6,521.4,219,523.4,219z M521.3,222h4.1c0-0.9-0.6-2-2.1-2
		C522,220,521.4,221.1,521.3,222z"/>
	<path class="st4" d="M531.4,222.5c0-1.9,1.3-3.5,3.4-3.5c2.1,0,3.4,1.6,3.4,3.5c0,2-1.3,3.6-3.4,3.6
		C532.7,226.1,531.4,224.5,531.4,222.5z M536.9,222.5c0-1.3-0.7-2.4-2.1-2.4c-1.3,0-2.1,1.1-2.1,2.4c0,1.3,0.8,2.4,2.1,2.4
		C536.2,225,536.9,223.8,536.9,222.5z"/>
	<path class="st4" d="M544.4,225c-0.5,0.6-1.4,1.1-2.4,1.1c-1.4,0-2.2-0.7-2.2-2.2v-4.8h1.3v4.4c0,1.1,0.6,1.5,1.4,1.5
		c0.8,0,1.5-0.4,1.9-1v-4.9h1.3v6.8h-1.3V225z"/>
	<path class="st4" d="M547.7,219.1h1.3v1c0.5-0.7,1.3-1.2,2.2-1.2v1.3c-0.1,0-0.3,0-0.4,0c-0.6,0-1.5,0.5-1.8,1v4.7h-1.3V219.1z"/>
	<path class="st4" d="M560.8,224.9c-0.5,0.7-1.3,1.1-2.2,1.1c-1.8,0-3-1.3-3-3.5c0-2.2,1.3-3.6,3-3.6c0.9,0,1.7,0.4,2.2,1.1v-3.6
		h1.3v9.3h-1.3V224.9z M560.8,221.1c-0.3-0.5-1.1-1-1.9-1c-1.3,0-2,1-2,2.4c0,1.4,0.8,2.4,2,2.4c0.8,0,1.5-0.4,1.9-1V221.1z"/>
	<path class="st4" d="M567.1,219c2,0,3.3,1.6,3.3,3.7v0.3H565c0.1,1.1,0.9,2.1,2.3,2.1c0.7,0,1.5-0.3,2-0.8l0.6,0.8
		c-0.7,0.7-1.6,1-2.7,1c-2,0-3.5-1.4-3.5-3.6C563.7,220.6,565.1,219,567.1,219z M565,222h4.1c0-0.9-0.6-2-2.1-2
		C565.7,220,565.1,221.1,565,222z"/>
	<path class="st4" d="M575,219c1.3,0,2,0.5,2.5,1.2l-0.8,0.8c-0.4-0.6-1-0.8-1.6-0.8c-1.3,0-2.2,1-2.2,2.4s0.9,2.4,2.2,2.4
		c0.7,0,1.2-0.3,1.6-0.8l0.8,0.8c-0.5,0.7-1.3,1.2-2.5,1.2c-2,0-3.4-1.5-3.4-3.6S572.9,219,575,219z"/>
	<path class="st4" d="M578.7,217.2c0-0.4,0.4-0.8,0.8-0.8c0.4,0,0.8,0.4,0.8,0.8c0,0.4-0.4,0.8-0.8,0.8
		C579.1,218,578.7,217.7,578.7,217.2z M578.9,219.1h1.3v6.8h-1.3V219.1z"/>
	<path class="st4" d="M582.2,224.1c0.5,0.5,1.4,1,2.3,1c1,0,1.5-0.4,1.5-1c0-0.7-0.8-0.9-1.6-1.1c-1.1-0.3-2.5-0.6-2.5-2
		c0-1.1,0.9-2,2.6-2c1.2,0,2,0.4,2.6,1l-0.6,0.9c-0.4-0.5-1.1-0.8-2-0.8c-0.9,0-1.4,0.3-1.4,0.9c0,0.6,0.7,0.8,1.6,1
		c1.2,0.3,2.6,0.6,2.6,2.1c0,1.2-1,2.1-2.7,2.1c-1.1,0-2.1-0.4-2.8-1L582.2,224.1z"/>
	<path class="st4" d="M588.5,217.2c0-0.4,0.4-0.8,0.8-0.8c0.4,0,0.8,0.4,0.8,0.8c0,0.4-0.4,0.8-0.8,0.8
		C588.9,218,588.5,217.7,588.5,217.2z M588.7,219.1h1.3v6.8h-1.3V219.1z"/>
	<path class="st4" d="M591.6,222.5c0-1.9,1.3-3.5,3.4-3.5c2.1,0,3.4,1.6,3.4,3.5c0,2-1.3,3.6-3.4,3.6
		C592.9,226.1,591.6,224.5,591.6,222.5z M597.1,222.5c0-1.3-0.7-2.4-2.1-2.4c-1.3,0-2.1,1.1-2.1,2.4c0,1.3,0.8,2.4,2.1,2.4
		C596.3,225,597.1,223.8,597.1,222.5z"/>
	<path class="st4" d="M604.6,221.6c0-1.1-0.6-1.5-1.4-1.5c-0.8,0-1.5,0.5-1.9,1v4.8H600v-6.8h1.3v1c0.4-0.5,1.3-1.1,2.4-1.1
		c1.4,0,2.2,0.8,2.2,2.2v4.7h-1.3V221.6z"/>
	<path class="st4" d="M608.5,224.3c0.5,0,0.9,0.4,0.9,0.9c0,0.5-0.4,0.9-0.9,0.9s-0.9-0.4-0.9-0.9
		C607.6,224.7,608,224.3,608.5,224.3z"/>
</g>
<g>
	<path class="st4" d="M794.9,166.2h1.4v9.3h-1.4V166.2z"/>
	<path class="st4" d="M798.6,169.9h-1.1v-1.1h1.1v-0.4c0-1.5,0.9-2.3,2.1-2.3c0.4,0,0.8,0.1,1.1,0.3l-0.3,0.9
		c-0.2-0.1-0.4-0.2-0.6-0.2c-0.6,0-1,0.4-1,1.2v0.4h1.4v1.1h-1.4v5.7h-1.3V169.9z"/>
	<path class="st4" d="M806.5,177.1c0.5,0,0.8-0.2,1-0.7l0.4-0.9l-2.8-6.8h1.3l2.1,5.3l2.1-5.3h1.4l-3.3,8.1
		c-0.4,1.1-1.2,1.4-2.2,1.5c-0.2,0-0.6,0-0.8-0.1l0.2-1.1C806.1,177.1,806.3,177.1,806.5,177.1z"/>
	<path class="st4" d="M812.6,172.1c0-1.9,1.3-3.5,3.4-3.5c2.1,0,3.4,1.6,3.4,3.5c0,2-1.3,3.6-3.4,3.6
		C813.9,175.7,812.6,174.1,812.6,172.1z M818.1,172.1c0-1.3-0.7-2.4-2.1-2.4c-1.3,0-2.1,1.1-2.1,2.4c0,1.3,0.8,2.4,2.1,2.4
		C817.4,174.6,818.1,173.4,818.1,172.1z"/>
	<path class="st4" d="M825.6,174.6c-0.5,0.6-1.4,1.1-2.4,1.1c-1.4,0-2.2-0.7-2.2-2.2v-4.8h1.3v4.4c0,1.1,0.6,1.5,1.4,1.5
		c0.8,0,1.5-0.4,1.9-1v-4.9h1.3v6.8h-1.3V174.6z"/>
	<path class="st4" d="M832.5,178.1v-9.3h1.3v1c0.5-0.7,1.3-1.1,2.2-1.1c1.8,0,3,1.3,3,3.5s-1.2,3.6-3,3.6c-0.9,0-1.7-0.4-2.2-1.1
		v3.6H832.5z M835.6,169.7c-0.8,0-1.5,0.4-1.9,1v2.9c0.3,0.5,1.1,1,1.9,1c1.3,0,2-1,2-2.4C837.7,170.7,836.9,169.7,835.6,169.7z"/>
	<path class="st4" d="M840.6,168.7h1.3v1c0.5-0.7,1.3-1.2,2.2-1.2v1.3c-0.1,0-0.3,0-0.4,0c-0.6,0-1.5,0.5-1.8,1v4.7h-1.3V168.7z"/>
	<path class="st4" d="M844.9,172.1c0-1.9,1.3-3.5,3.4-3.5c2.1,0,3.4,1.6,3.4,3.5c0,2-1.3,3.6-3.4,3.6
		C846.2,175.7,844.9,174.1,844.9,172.1z M850.4,172.1c0-1.3-0.7-2.4-2.1-2.4c-1.3,0-2.1,1.1-2.1,2.4c0,1.3,0.8,2.4,2.1,2.4
		C849.7,174.6,850.4,173.4,850.4,172.1z"/>
	<path class="st4" d="M856.3,168.6c1.3,0,2,0.5,2.5,1.2l-0.8,0.8c-0.4-0.6-1-0.8-1.6-0.8c-1.3,0-2.2,1-2.2,2.4s0.9,2.4,2.2,2.4
		c0.7,0,1.2-0.3,1.6-0.8l0.8,0.8c-0.5,0.7-1.3,1.2-2.5,1.2c-2,0-3.4-1.5-3.4-3.6S854.3,168.6,856.3,168.6z"/>
	<path class="st4" d="M863.2,168.6c2,0,3.3,1.6,3.3,3.7v0.3h-5.4c0.1,1.1,0.9,2.1,2.3,2.1c0.7,0,1.5-0.3,2-0.8l0.6,0.8
		c-0.7,0.7-1.6,1-2.7,1c-2,0-3.5-1.4-3.5-3.6C859.8,170.2,861.2,168.6,863.2,168.6z M861.1,171.6h4.1c0-0.9-0.6-2-2.1-2
		C861.9,169.6,861.2,170.7,861.1,171.6z"/>
	<path class="st4" d="M871.1,168.6c2,0,3.3,1.6,3.3,3.7v0.3H869c0.1,1.1,0.9,2.1,2.3,2.1c0.7,0,1.5-0.3,2-0.8l0.6,0.8
		c-0.7,0.7-1.6,1-2.7,1c-2,0-3.5-1.4-3.5-3.6C867.7,170.2,869.1,168.6,871.1,168.6z M869,171.6h4.1c0-0.9-0.6-2-2.1-2
		C869.7,169.6,869.1,170.7,869,171.6z"/>
	<path class="st4" d="M880.7,174.5c-0.5,0.7-1.3,1.1-2.2,1.1c-1.8,0-3-1.3-3-3.5c0-2.2,1.3-3.6,3-3.6c0.9,0,1.7,0.4,2.2,1.1v-3.6
		h1.3v9.3h-1.3V174.5z M880.7,170.7c-0.4-0.5-1.1-1-1.9-1c-1.3,0-2,1-2,2.4c0,1.4,0.8,2.4,2,2.4c0.8,0,1.5-0.4,1.9-1V170.7z"/>
	<path class="st4" d="M887.9,174v-4.2h-1.1v-1.1h1.1v-1.8h1.3v1.8h1.4v1.1h-1.4v3.9c0,0.5,0.2,0.8,0.7,0.8c0.3,0,0.6-0.1,0.7-0.3
		l0.3,1c-0.3,0.3-0.7,0.4-1.3,0.4C888.4,175.7,887.9,175.1,887.9,174z"/>
	<path class="st4" d="M891.5,172.1c0-1.9,1.3-3.5,3.4-3.5c2.1,0,3.4,1.6,3.4,3.5c0,2-1.3,3.6-3.4,3.6
		C892.8,175.7,891.5,174.1,891.5,172.1z M897,172.1c0-1.3-0.7-2.4-2.1-2.4c-1.3,0-2.1,1.1-2.1,2.4c0,1.3,0.8,2.4,2.1,2.4
		C896.3,174.6,897,173.4,897,172.1z"/>
	<path class="st4" d="M907.7,174.8c-0.5,0.6-1.3,0.9-2.2,0.9c-1.1,0-2.4-0.8-2.4-2.2c0-1.5,1.2-2.2,2.4-2.2c0.9,0,1.7,0.3,2.2,0.9
		V171c0-0.8-0.7-1.3-1.7-1.3c-0.8,0-1.4,0.3-2,0.9l-0.5-0.9c0.8-0.7,1.7-1.1,2.8-1.1c1.5,0,2.7,0.6,2.7,2.4v4.6h-1.3V174.8z
		 M907.7,172.9c-0.4-0.5-1-0.8-1.7-0.8c-0.9,0-1.6,0.5-1.6,1.3s0.6,1.3,1.6,1.3c0.7,0,1.4-0.3,1.7-0.8V172.9z"/>
	<path class="st4" d="M915.5,171.2c0-1.1-0.6-1.5-1.4-1.5c-0.8,0-1.5,0.5-1.9,1v4.8H911v-6.8h1.3v1c0.4-0.5,1.3-1.1,2.4-1.1
		c1.4,0,2.2,0.8,2.2,2.2v4.7h-1.3V171.2z"/>
	<path class="st4" d="M922.2,166.8c0-0.4,0.4-0.8,0.8-0.8c0.4,0,0.8,0.4,0.8,0.8s-0.4,0.8-0.8,0.8
		C922.6,167.6,922.2,167.3,922.2,166.8z M922.4,168.7h1.3v6.8h-1.3V168.7z"/>
	<path class="st4" d="M930.2,171.2c0-1.1-0.6-1.5-1.4-1.5c-0.8,0-1.5,0.5-1.9,1v4.8h-1.3v-6.8h1.3v1c0.4-0.5,1.3-1.1,2.4-1.1
		c1.4,0,2.2,0.8,2.2,2.2v4.7h-1.3V171.2z"/>
	<path class="st4" d="M933.8,174v-4.2h-1.1v-1.1h1.1v-1.8h1.3v1.8h1.4v1.1H935v3.9c0,0.5,0.2,0.8,0.7,0.8c0.3,0,0.6-0.1,0.7-0.3
		l0.3,1c-0.3,0.3-0.7,0.4-1.3,0.4C934.3,175.7,933.8,175.1,933.8,174z"/>
	<path class="st4" d="M940.8,168.6c2,0,3.3,1.6,3.3,3.7v0.3h-5.4c0.1,1.1,0.9,2.1,2.3,2.1c0.7,0,1.5-0.3,2-0.8l0.6,0.8
		c-0.7,0.7-1.6,1-2.7,1c-2,0-3.5-1.4-3.5-3.6C937.4,170.2,938.8,168.6,940.8,168.6z M938.7,171.6h4.1c0-0.9-0.6-2-2.1-2
		C939.4,169.6,938.8,170.7,938.7,171.6z"/>
	<path class="st4" d="M945.6,168.7h1.3v1c0.5-0.7,1.3-1.2,2.2-1.2v1.3c-0.1,0-0.3,0-0.4,0c-0.6,0-1.5,0.5-1.8,1v4.7h-1.3V168.7z"/>
	<path class="st4" d="M949.4,168.7h1.3l2.1,5.3l2.1-5.3h1.4l-2.8,6.8h-1.4L949.4,168.7z"/>
	<path class="st4" d="M957.1,166.8c0-0.4,0.4-0.8,0.8-0.8c0.4,0,0.8,0.4,0.8,0.8s-0.4,0.8-0.8,0.8
		C957.5,167.6,957.1,167.3,957.1,166.8z M957.3,168.7h1.3v6.8h-1.3V168.7z"/>
	<path class="st4" d="M963.6,168.6c2,0,3.3,1.6,3.3,3.7v0.3h-5.4c0.1,1.1,0.9,2.1,2.3,2.1c0.7,0,1.5-0.3,2-0.8l0.6,0.8
		c-0.7,0.7-1.6,1-2.7,1c-2,0-3.5-1.4-3.5-3.6C960.2,170.2,961.6,168.6,963.6,168.6z M961.5,171.6h4.1c0-0.9-0.6-2-2.1-2
		C962.2,169.6,961.6,170.7,961.5,171.6z"/>
	<path class="st4" d="M972.6,170.3l-1.7,5.2h-1.3l-2.1-6.8h1.3l1.5,5.2l1.7-5.2h1.1l1.7,5.2l1.5-5.2h1.3l-2.1,6.8h-1.3L972.6,170.3z
		"/>
	<path class="st4" d="M978,176.8c0.4-0.3,0.9-0.8,1-1.3c0,0-0.1,0-0.2,0c-0.4,0-0.8-0.3-0.8-0.8c0-0.5,0.4-0.9,0.9-0.9
		c0.5,0,1,0.4,1,1.2c0,0.9-0.5,1.8-1.2,2.3L978,176.8z"/>
	<path class="st4" d="M785.5,193.9c0.5,0,0.8-0.2,1-0.7l0.4-0.9l-2.8-6.8h1.3l2.1,5.3l2.1-5.3h1.4l-3.3,8.1
		c-0.4,1.1-1.2,1.4-2.2,1.5c-0.2,0-0.6,0-0.8-0.1l0.2-1.1C785,193.9,785.3,193.9,785.5,193.9z"/>
	<path class="st4" d="M791.6,188.9c0-1.9,1.3-3.5,3.4-3.5c2.1,0,3.4,1.6,3.4,3.5c0,2-1.3,3.6-3.4,3.6
		C792.9,192.5,791.6,190.9,791.6,188.9z M797.1,188.9c0-1.3-0.7-2.4-2.1-2.4c-1.3,0-2.1,1.1-2.1,2.4c0,1.3,0.8,2.4,2.1,2.4
		C796.3,191.4,797.1,190.2,797.1,188.9z"/>
	<path class="st4" d="M804.6,191.4c-0.5,0.6-1.4,1.1-2.4,1.1c-1.4,0-2.2-0.7-2.2-2.2v-4.8h1.3v4.4c0,1.1,0.6,1.5,1.4,1.5
		c0.8,0,1.5-0.4,1.9-1v-4.9h1.3v6.8h-1.3V191.4z"/>
	<path class="st4" d="M815.6,187.1l-1.7,5.2h-1.3l-2.1-6.8h1.3l1.5,5.2l1.7-5.2h1.1l1.7,5.2l1.5-5.2h1.3l-2.1,6.8h-1.3L815.6,187.1z
		"/>
	<path class="st4" d="M821.7,183.6c0-0.4,0.4-0.8,0.8-0.8c0.4,0,0.8,0.4,0.8,0.8c0,0.4-0.4,0.8-0.8,0.8
		C822,184.4,821.7,184.1,821.7,183.6z M821.9,185.5h1.3v6.8h-1.3V185.5z"/>
	<path class="st4" d="M825.1,183h1.3v9.3h-1.3V183z"/>
	<path class="st4" d="M828.4,183h1.3v9.3h-1.3V183z"/>
	<path class="st4" d="M835.2,185.5h1.3v1c0.5-0.7,1.3-1.2,2.2-1.2v1.3c-0.1,0-0.3,0-0.4,0c-0.6,0-1.5,0.5-1.8,1v4.7h-1.3V185.5z"/>
	<path class="st4" d="M843,185.4c2,0,3.3,1.6,3.3,3.7v0.3h-5.4c0.1,1.1,0.9,2.1,2.3,2.1c0.7,0,1.5-0.3,2-0.8l0.6,0.8
		c-0.7,0.7-1.6,1-2.7,1c-2,0-3.5-1.4-3.5-3.6C839.6,187,841,185.4,843,185.4z M840.9,188.4h4.1c0-0.9-0.6-2-2.1-2
		C841.6,186.4,840.9,187.5,840.9,188.4z"/>
	<path class="st4" d="M850.8,185.4c1.3,0,2,0.5,2.5,1.2l-0.8,0.8c-0.4-0.6-1-0.8-1.6-0.8c-1.3,0-2.2,1-2.2,2.4
		c0,1.4,0.9,2.4,2.2,2.4c0.7,0,1.2-0.3,1.6-0.8l0.8,0.8c-0.5,0.7-1.3,1.2-2.5,1.2c-2,0-3.4-1.5-3.4-3.6S848.8,185.4,850.8,185.4z"/>
	<path class="st4" d="M857.7,185.4c2,0,3.3,1.6,3.3,3.7v0.3h-5.4c0.1,1.1,0.9,2.1,2.3,2.1c0.7,0,1.5-0.3,2-0.8l0.6,0.8
		c-0.7,0.7-1.6,1-2.7,1c-2,0-3.5-1.4-3.5-3.6C854.3,187,855.8,185.4,857.7,185.4z M855.7,188.4h4.1c0-0.9-0.6-2-2.1-2
		C856.4,186.4,855.7,187.5,855.7,188.4z"/>
	<path class="st4" d="M862.4,183.6c0-0.4,0.4-0.8,0.8-0.8c0.4,0,0.8,0.4,0.8,0.8c0,0.4-0.4,0.8-0.8,0.8
		C862.8,184.4,862.4,184.1,862.4,183.6z M862.6,185.5h1.3v6.8h-1.3V185.5z"/>
	<path class="st4" d="M864.9,185.5h1.3l2.1,5.3l2.1-5.3h1.4l-2.8,6.8h-1.4L864.9,185.5z"/>
	<path class="st4" d="M875.8,185.4c2,0,3.3,1.6,3.3,3.7v0.3h-5.4c0.1,1.1,0.9,2.1,2.3,2.1c0.7,0,1.5-0.3,2-0.8l0.6,0.8
		c-0.7,0.7-1.6,1-2.7,1c-2,0-3.5-1.4-3.5-3.6C872.4,187,873.8,185.4,875.8,185.4z M873.7,188.4h4.1c0-0.9-0.6-2-2.1-2
		C874.4,186.4,873.8,187.5,873.7,188.4z"/>
	<path class="st4" d="M884.3,194.9v-9.3h1.3v1c0.5-0.7,1.3-1.1,2.2-1.1c1.8,0,3,1.3,3,3.5s-1.2,3.6-3,3.6c-0.9,0-1.7-0.4-2.2-1.1
		v3.6H884.3z M887.4,186.5c-0.8,0-1.5,0.4-1.9,1v2.9c0.3,0.5,1.1,1,1.9,1c1.3,0,2-1,2-2.4C889.4,187.5,888.7,186.5,887.4,186.5z"/>
	<path class="st4" d="M892.4,185.5h1.3v1c0.5-0.7,1.3-1.2,2.2-1.2v1.3c-0.1,0-0.3,0-0.4,0c-0.6,0-1.5,0.5-1.8,1v4.7h-1.3V185.5z"/>
	<path class="st4" d="M901.3,191.6c-0.5,0.6-1.3,0.9-2.2,0.9c-1.1,0-2.4-0.8-2.4-2.2c0-1.5,1.2-2.2,2.4-2.2c0.9,0,1.7,0.3,2.2,0.9
		v-1.1c0-0.8-0.7-1.3-1.7-1.3c-0.8,0-1.4,0.3-2,0.9l-0.5-0.9c0.8-0.7,1.7-1.1,2.8-1.1c1.5,0,2.7,0.6,2.7,2.4v4.6h-1.3V191.6z
		 M901.3,189.7c-0.4-0.5-1-0.8-1.7-0.8c-0.9,0-1.6,0.5-1.6,1.3s0.6,1.3,1.6,1.3c0.7,0,1.4-0.3,1.7-0.8V189.7z"/>
	<path class="st4" d="M907.6,185.4c1.3,0,2,0.5,2.5,1.2l-0.8,0.8c-0.4-0.6-1-0.8-1.6-0.8c-1.3,0-2.2,1-2.2,2.4
		c0,1.4,0.9,2.4,2.2,2.4c0.7,0,1.2-0.3,1.6-0.8l0.8,0.8c-0.5,0.7-1.3,1.2-2.5,1.2c-2,0-3.4-1.5-3.4-3.6S905.5,185.4,907.6,185.4z"/>
	<path class="st4" d="M911.7,190.8v-4.2h-1.1v-1.1h1.1v-1.8h1.3v1.8h1.4v1.1H913v3.9c0,0.5,0.2,0.8,0.7,0.8c0.3,0,0.6-0.1,0.7-0.3
		l0.3,1c-0.3,0.3-0.7,0.4-1.3,0.4C912.3,192.5,911.7,191.9,911.7,190.8z"/>
	<path class="st4" d="M915.6,183.6c0-0.4,0.4-0.8,0.8-0.8c0.4,0,0.8,0.4,0.8,0.8c0,0.4-0.4,0.8-0.8,0.8
		C915.9,184.4,915.6,184.1,915.6,183.6z M915.8,185.5h1.3v6.8h-1.3V185.5z"/>
	<path class="st4" d="M922.1,185.4c1.3,0,2,0.5,2.5,1.2l-0.8,0.8c-0.4-0.6-1-0.8-1.6-0.8c-1.3,0-2.2,1-2.2,2.4
		c0,1.4,0.9,2.4,2.2,2.4c0.7,0,1.2-0.3,1.6-0.8l0.8,0.8c-0.5,0.7-1.3,1.2-2.5,1.2c-2,0-3.4-1.5-3.4-3.6S920,185.4,922.1,185.4z"/>
	<path class="st4" d="M930.1,191.6c-0.5,0.6-1.3,0.9-2.2,0.9c-1.1,0-2.4-0.8-2.4-2.2c0-1.5,1.2-2.2,2.4-2.2c0.9,0,1.7,0.3,2.2,0.9
		v-1.1c0-0.8-0.7-1.3-1.7-1.3c-0.8,0-1.4,0.3-2,0.9l-0.5-0.9c0.8-0.7,1.7-1.1,2.8-1.1c1.5,0,2.7,0.6,2.7,2.4v4.6h-1.3V191.6z
		 M930.1,189.7c-0.4-0.5-1-0.8-1.7-0.8c-0.9,0-1.6,0.5-1.6,1.3s0.6,1.3,1.6,1.3c0.7,0,1.4-0.3,1.7-0.8V189.7z"/>
	<path class="st4" d="M933.4,183h1.3v9.3h-1.3V183z"/>
	<path class="st4" d="M940.1,183.6c0-0.4,0.4-0.8,0.8-0.8c0.4,0,0.8,0.4,0.8,0.8c0,0.4-0.4,0.8-0.8,0.8
		C940.5,184.4,940.1,184.1,940.1,183.6z M940.3,185.5h1.3v6.8h-1.3V185.5z"/>
	<path class="st4" d="M948.1,188c0-1.1-0.6-1.5-1.4-1.5c-0.8,0-1.5,0.5-1.9,1v4.8h-1.3v-6.8h1.3v1c0.4-0.5,1.3-1.1,2.4-1.1
		c1.4,0,2.2,0.8,2.2,2.2v4.7h-1.3V188z"/>
	<path class="st4" d="M951.7,186.7h-1.1v-1.1h1.1v-0.4c0-1.5,0.9-2.3,2.1-2.3c0.4,0,0.8,0.1,1.1,0.3l-0.3,0.9
		c-0.2-0.1-0.4-0.2-0.6-0.2c-0.6,0-1,0.4-1,1.2v0.4h1.4v1.1h-1.4v5.7h-1.3V186.7z"/>
	<path class="st4" d="M955.1,188.9c0-1.9,1.3-3.5,3.4-3.5c2.1,0,3.4,1.6,3.4,3.5c0,2-1.3,3.6-3.4,3.6
		C956.4,192.5,955.1,190.9,955.1,188.9z M960.6,188.9c0-1.3-0.7-2.4-2.1-2.4c-1.3,0-2.1,1.1-2.1,2.4c0,1.3,0.8,2.4,2.1,2.4
		C959.9,191.4,960.6,190.2,960.6,188.9z"/>
	<path class="st4" d="M963.5,185.5h1.3v1c0.5-0.7,1.3-1.2,2.2-1.2v1.3c-0.1,0-0.3,0-0.4,0c-0.6,0-1.5,0.5-1.8,1v4.7h-1.3V185.5z"/>
	<path class="st4" d="M976.5,187.8c0-0.8-0.4-1.3-1.2-1.3c-0.7,0-1.4,0.5-1.7,1v4.8h-1.3v-4.5c0-0.8-0.3-1.3-1.2-1.3
		c-0.7,0-1.3,0.5-1.7,1v4.8h-1.3v-6.8h1.3v1c0.3-0.4,1.2-1.1,2.2-1.1c1,0,1.6,0.5,1.8,1.3c0.4-0.6,1.3-1.3,2.3-1.3
		c1.2,0,1.9,0.7,1.9,2v4.9h-1.3V187.8z"/>
	<path class="st4" d="M983.9,191.6c-0.5,0.6-1.3,0.9-2.2,0.9c-1.1,0-2.4-0.8-2.4-2.2c0-1.5,1.2-2.2,2.4-2.2c0.9,0,1.7,0.3,2.2,0.9
		v-1.1c0-0.8-0.7-1.3-1.7-1.3c-0.8,0-1.4,0.3-2,0.9l-0.5-0.9c0.8-0.7,1.7-1.1,2.8-1.1c1.5,0,2.7,0.6,2.7,2.4v4.6h-1.3V191.6z
		 M983.9,189.7c-0.4-0.5-1-0.8-1.7-0.8c-0.9,0-1.6,0.5-1.6,1.3s0.6,1.3,1.6,1.3c0.7,0,1.4-0.3,1.7-0.8V189.7z"/>
	<path class="st4" d="M986.6,188.4h3.4v1.1h-3.4V188.4z"/>
	<path class="st4" d="M785.2,207.6v-4.2h-1.1v-1.1h1.1v-1.8h1.3v1.8h1.4v1.1h-1.4v3.9c0,0.5,0.2,0.8,0.7,0.8c0.3,0,0.6-0.1,0.7-0.3
		l0.3,1c-0.3,0.3-0.7,0.4-1.3,0.4C785.7,209.3,785.2,208.7,785.2,207.6z"/>
	<path class="st4" d="M789,200.4c0-0.4,0.4-0.8,0.8-0.8c0.4,0,0.8,0.4,0.8,0.8c0,0.4-0.4,0.8-0.8,0.8
		C789.4,201.2,789,200.9,789,200.4z M789.2,202.3h1.3v6.8h-1.3V202.3z"/>
	<path class="st4" d="M792.1,205.7c0-1.9,1.3-3.5,3.4-3.5c2.1,0,3.4,1.6,3.4,3.5c0,2-1.3,3.6-3.4,3.6
		C793.4,209.3,792.1,207.7,792.1,205.7z M797.6,205.7c0-1.3-0.7-2.4-2.1-2.4c-1.3,0-2.1,1.2-2.1,2.4c0,1.3,0.8,2.4,2.1,2.4
		C796.8,208.2,797.6,207,797.6,205.7z"/>
	<path class="st4" d="M805.1,204.8c0-1.1-0.6-1.5-1.4-1.5c-0.8,0-1.5,0.5-1.9,1v4.8h-1.3v-6.8h1.3v1c0.4-0.5,1.3-1.1,2.4-1.1
		c1.4,0,2.2,0.8,2.2,2.2v4.8h-1.3V204.8z"/>
	<path class="st4" d="M816.1,208.4c-0.5,0.6-1.3,0.9-2.2,0.9c-1.1,0-2.4-0.8-2.4-2.2c0-1.5,1.2-2.2,2.4-2.2c0.9,0,1.7,0.3,2.2,0.9
		v-1.1c0-0.8-0.7-1.3-1.7-1.3c-0.8,0-1.4,0.3-2,0.9l-0.5-0.9c0.8-0.7,1.7-1.1,2.8-1.1c1.5,0,2.7,0.6,2.7,2.4v4.6h-1.3V208.4z
		 M816.1,206.5c-0.4-0.5-1-0.8-1.7-0.8c-0.9,0-1.6,0.5-1.6,1.3c0,0.8,0.6,1.3,1.6,1.3c0.7,0,1.4-0.3,1.7-0.8V206.5z"/>
	<path class="st4" d="M819.4,199.8h1.3v3.6c0.5-0.7,1.3-1.1,2.2-1.1c1.8,0,3,1.4,3,3.6c0,2.2-1.3,3.5-3,3.5c-0.9,0-1.7-0.5-2.2-1.1
		v1h-1.3V199.8z M822.5,208.2c1.3,0,2-1,2-2.4c0-1.4-0.8-2.4-2-2.4c-0.8,0-1.5,0.5-1.9,1v2.9C821,207.7,821.7,208.2,822.5,208.2z"/>
	<path class="st4" d="M827.1,205.7c0-1.9,1.3-3.5,3.4-3.5c2.1,0,3.4,1.6,3.4,3.5c0,2-1.3,3.6-3.4,3.6
		C828.4,209.3,827.1,207.7,827.1,205.7z M832.6,205.7c0-1.3-0.7-2.4-2.1-2.4c-1.3,0-2.1,1.2-2.1,2.4c0,1.3,0.8,2.4,2.1,2.4
		C831.8,208.2,832.6,207,832.6,205.7z"/>
	<path class="st4" d="M840,208.2c-0.5,0.6-1.4,1.1-2.4,1.1c-1.4,0-2.2-0.7-2.2-2.2v-4.8h1.3v4.4c0,1.1,0.6,1.5,1.4,1.5
		c0.8,0,1.5-0.4,1.9-1v-4.9h1.3v6.8H840V208.2z"/>
	<path class="st4" d="M843.6,207.6v-4.2h-1.1v-1.1h1.1v-1.8h1.3v1.8h1.4v1.1h-1.4v3.9c0,0.5,0.2,0.8,0.7,0.8c0.3,0,0.6-0.1,0.7-0.3
		l0.3,1c-0.3,0.3-0.7,0.4-1.3,0.4C844.1,209.3,843.6,208.7,843.6,207.6z"/>
	<path class="st4" d="M851.5,207.6v-4.2h-1.1v-1.1h1.1v-1.8h1.3v1.8h1.4v1.1h-1.4v3.9c0,0.5,0.2,0.8,0.7,0.8c0.3,0,0.6-0.1,0.7-0.3
		l0.3,1c-0.3,0.3-0.7,0.4-1.3,0.4C852,209.3,851.5,208.7,851.5,207.6z"/>
	<path class="st4" d="M855.3,200.4c0-0.4,0.4-0.8,0.8-0.8c0.4,0,0.8,0.4,0.8,0.8c0,0.4-0.4,0.8-0.8,0.8
		C855.7,201.2,855.3,200.9,855.3,200.4z M855.5,202.3h1.3v6.8h-1.3V202.3z"/>
	<path class="st4" d="M867,204.6c0-0.8-0.4-1.3-1.2-1.3c-0.7,0-1.4,0.5-1.7,1v4.8h-1.3v-4.5c0-0.8-0.3-1.3-1.2-1.3
		c-0.7,0-1.3,0.5-1.7,1v4.8h-1.3v-6.8h1.3v1c0.3-0.4,1.2-1.1,2.2-1.1c1,0,1.6,0.5,1.8,1.3c0.4-0.6,1.3-1.3,2.3-1.3
		c1.2,0,1.9,0.7,1.9,2v4.9H867V204.6z"/>
	<path class="st4" d="M873.2,202.2c2,0,3.3,1.6,3.3,3.7v0.3h-5.4c0.1,1.1,0.9,2.1,2.3,2.1c0.7,0,1.5-0.3,2-0.8l0.6,0.8
		c-0.7,0.7-1.6,1-2.7,1c-2,0-3.5-1.4-3.5-3.6C869.8,203.8,871.2,202.2,873.2,202.2z M871.1,205.2h4.1c0-0.9-0.6-2-2.1-2
		C871.8,203.2,871.2,204.3,871.1,205.2z"/>
	<path class="st4" d="M885.9,208.4c-0.5,0.6-1.3,0.9-2.2,0.9c-1.1,0-2.4-0.8-2.4-2.2c0-1.5,1.2-2.2,2.4-2.2c0.9,0,1.7,0.3,2.2,0.9
		v-1.1c0-0.8-0.7-1.3-1.7-1.3c-0.8,0-1.4,0.3-2,0.9l-0.5-0.9c0.8-0.7,1.7-1.1,2.8-1.1c1.5,0,2.7,0.6,2.7,2.4v4.6h-1.3V208.4z
		 M885.9,206.5c-0.4-0.5-1-0.8-1.7-0.8c-0.9,0-1.6,0.5-1.6,1.3c0,0.8,0.6,1.3,1.6,1.3c0.7,0,1.4-0.3,1.7-0.8V206.5z"/>
	<path class="st4" d="M893.7,204.8c0-1.1-0.6-1.5-1.4-1.5c-0.8,0-1.5,0.5-1.9,1v4.8h-1.3v-6.8h1.3v1c0.4-0.5,1.3-1.1,2.4-1.1
		c1.4,0,2.2,0.8,2.2,2.2v4.8h-1.3V204.8z"/>
	<path class="st4" d="M901.8,208.1c-0.5,0.7-1.3,1.1-2.2,1.1c-1.8,0-3-1.3-3-3.5c0-2.2,1.3-3.6,3-3.6c0.9,0,1.7,0.4,2.2,1.1v-3.6
		h1.3v9.3h-1.3V208.1z M901.8,204.3c-0.4-0.5-1.1-1-1.9-1c-1.3,0-2,1-2,2.4c0,1.4,0.8,2.4,2,2.4c0.8,0,1.5-0.4,1.9-1V204.3z"/>
	<path class="st4" d="M908.7,211.7v-9.3h1.3v1c0.5-0.7,1.3-1.1,2.2-1.1c1.8,0,3,1.3,3,3.5s-1.2,3.6-3,3.6c-0.9,0-1.7-0.4-2.2-1.1
		v3.6H908.7z M911.8,203.3c-0.8,0-1.5,0.4-1.9,1v2.9c0.3,0.5,1.1,1,1.9,1c1.3,0,2-1,2-2.4C913.8,204.3,913.1,203.3,911.8,203.3z"/>
	<path class="st4" d="M916.7,199.8h1.3v9.3h-1.3V199.8z"/>
	<path class="st4" d="M924.2,208.4c-0.5,0.6-1.3,0.9-2.2,0.9c-1.1,0-2.4-0.8-2.4-2.2c0-1.5,1.2-2.2,2.4-2.2c0.9,0,1.7,0.3,2.2,0.9
		v-1.1c0-0.8-0.7-1.3-1.7-1.3c-0.8,0-1.4,0.3-2,0.9l-0.5-0.9c0.8-0.7,1.7-1.1,2.8-1.1c1.5,0,2.7,0.6,2.7,2.4v4.6h-1.3V208.4z
		 M924.2,206.5c-0.4-0.5-1-0.8-1.7-0.8c-0.9,0-1.6,0.5-1.6,1.3c0,0.8,0.6,1.3,1.6,1.3c0.7,0,1.4-0.3,1.7-0.8V206.5z"/>
	<path class="st4" d="M930.5,202.2c1.3,0,2,0.5,2.5,1.2l-0.8,0.8c-0.4-0.6-1-0.8-1.6-0.8c-1.3,0-2.2,1-2.2,2.4s0.9,2.4,2.2,2.4
		c0.7,0,1.2-0.3,1.6-0.8l0.8,0.8c-0.5,0.7-1.3,1.2-2.5,1.2c-2,0-3.4-1.5-3.4-3.6S928.4,202.2,930.5,202.2z"/>
	<path class="st4" d="M937.4,202.2c2,0,3.3,1.6,3.3,3.7v0.3h-5.4c0.1,1.1,0.9,2.1,2.3,2.1c0.7,0,1.5-0.3,2-0.8l0.6,0.8
		c-0.7,0.7-1.6,1-2.7,1c-2,0-3.5-1.4-3.5-3.6C934,203.8,935.4,202.2,937.4,202.2z M935.3,205.2h4.1c0-0.9-0.6-2-2.1-2
		C936,203.2,935.4,204.3,935.3,205.2z"/>
	<path class="st4" d="M941.9,210.4c0.4-0.3,0.9-0.8,1-1.3c0,0-0.1,0-0.2,0c-0.4,0-0.8-0.3-0.8-0.8c0-0.5,0.4-0.9,0.9-0.9
		c0.5,0,1,0.4,1,1.2c0,0.9-0.5,1.8-1.2,2.3L941.9,210.4z"/>
	<path class="st4" d="M953.3,208.4c-0.5,0.6-1.3,0.9-2.2,0.9c-1.1,0-2.4-0.8-2.4-2.2c0-1.5,1.2-2.2,2.4-2.2c0.9,0,1.7,0.3,2.2,0.9
		v-1.1c0-0.8-0.7-1.3-1.7-1.3c-0.8,0-1.4,0.3-2,0.9l-0.5-0.9c0.8-0.7,1.7-1.1,2.8-1.1c1.5,0,2.7,0.6,2.7,2.4v4.6h-1.3V208.4z
		 M953.3,206.5c-0.4-0.5-1-0.8-1.7-0.8c-0.9,0-1.6,0.5-1.6,1.3c0,0.8,0.6,1.3,1.6,1.3c0.7,0,1.4-0.3,1.7-0.8V206.5z"/>
	<path class="st4" d="M956.6,207.3c0.5,0.5,1.4,1,2.3,1c1,0,1.5-0.4,1.5-1c0-0.7-0.8-0.9-1.6-1.1c-1.1-0.3-2.5-0.6-2.5-2
		c0-1.1,0.9-2,2.6-2c1.2,0,2,0.4,2.6,1l-0.6,0.9c-0.4-0.5-1.1-0.8-2-0.8s-1.4,0.3-1.4,0.9c0,0.6,0.7,0.8,1.6,1
		c1.2,0.3,2.6,0.6,2.6,2.1c0,1.2-1,2.1-2.7,2.1c-1.1,0-2.1-0.3-2.8-1.1L956.6,207.3z"/>
	<path class="st4" d="M970.9,203.9l-1.7,5.2h-1.3l-2.1-6.8h1.3l1.5,5.2l1.7-5.2h1.1l1.7,5.2l1.5-5.2h1.3l-2.1,6.8h-1.3L970.9,203.9z
		"/>
	<path class="st4" d="M980.1,202.2c2,0,3.3,1.6,3.3,3.7v0.3H978c0.1,1.1,0.9,2.1,2.3,2.1c0.7,0,1.5-0.3,2-0.8l0.6,0.8
		c-0.7,0.7-1.6,1-2.7,1c-2,0-3.5-1.4-3.5-3.6C976.7,203.8,978.1,202.2,980.1,202.2z M978,205.2h4.1c0-0.9-0.6-2-2.1-2
		C978.7,203.2,978.1,204.3,978,205.2z"/>
	<path class="st4" d="M985,199.8h1.3v9.3H985V199.8z"/>
	<path class="st4" d="M988.2,199.8h1.3v9.3h-1.3V199.8z"/>
	<path class="st4" d="M790.2,225.2c-0.5,0.6-1.3,0.9-2.2,0.9c-1.1,0-2.4-0.8-2.4-2.2c0-1.5,1.2-2.2,2.4-2.2c0.9,0,1.7,0.3,2.2,0.9
		v-1.1c0-0.8-0.7-1.3-1.7-1.3c-0.8,0-1.4,0.3-2,0.9l-0.5-0.9c0.8-0.7,1.7-1.1,2.8-1.1c1.5,0,2.7,0.6,2.7,2.4v4.6h-1.3V225.2z
		 M790.2,223.3c-0.4-0.5-1-0.8-1.7-0.8c-0.9,0-1.6,0.5-1.6,1.3c0,0.8,0.6,1.3,1.6,1.3c0.7,0,1.4-0.3,1.7-0.8V223.3z"/>
	<path class="st4" d="M793.5,224.1c0.5,0.5,1.4,1,2.3,1c1,0,1.5-0.4,1.5-1c0-0.7-0.8-0.9-1.6-1.1c-1.1-0.3-2.5-0.6-2.5-2
		c0-1.1,0.9-2,2.6-2c1.2,0,2,0.4,2.6,1l-0.6,0.9c-0.4-0.5-1.1-0.8-2-0.8s-1.4,0.3-1.4,0.9c0,0.6,0.7,0.8,1.6,1
		c1.2,0.3,2.6,0.6,2.6,2.1c0,1.2-1,2.1-2.7,2.1c-1.1,0-2.1-0.3-2.8-1.1L793.5,224.1z"/>
	<path class="st4" d="M807.8,220.7l-1.7,5.2h-1.3l-2.1-6.8h1.3l1.5,5.2l1.7-5.2h1.1l1.7,5.2l1.5-5.2h1.3l-2.1,6.8h-1.3L807.8,220.7z
		"/>
	<path class="st4" d="M818.6,221.6c0-1.1-0.6-1.5-1.4-1.5c-0.8,0-1.5,0.5-1.9,1v4.8H814v-9.3h1.3v3.5c0.4-0.5,1.4-1.1,2.4-1.1
		c1.4,0,2.2,0.7,2.2,2.2v4.8h-1.3V221.6z"/>
	<path class="st4" d="M826.1,225.2c-0.5,0.6-1.3,0.9-2.2,0.9c-1.1,0-2.4-0.8-2.4-2.2c0-1.5,1.2-2.2,2.4-2.2c0.9,0,1.7,0.3,2.2,0.9
		v-1.1c0-0.8-0.7-1.3-1.7-1.3c-0.8,0-1.4,0.3-2,0.9l-0.5-0.9c0.8-0.7,1.7-1.1,2.8-1.1c1.5,0,2.7,0.6,2.7,2.4v4.6h-1.3V225.2z
		 M826.1,223.3c-0.4-0.5-1-0.8-1.7-0.8c-0.9,0-1.6,0.5-1.6,1.3c0,0.8,0.6,1.3,1.6,1.3c0.7,0,1.4-0.3,1.7-0.8V223.3z"/>
	<path class="st4" d="M829.6,224.4v-4.2h-1.1v-1.1h1.1v-1.8h1.3v1.8h1.4v1.1h-1.4v3.9c0,0.5,0.2,0.8,0.7,0.8c0.3,0,0.6-0.1,0.7-0.3
		l0.3,1c-0.3,0.3-0.7,0.4-1.3,0.4C830.1,226.1,829.6,225.5,829.6,224.4z"/>
	<path class="st4" d="M841.4,220.7l-1.7,5.2h-1.3l-2.1-6.8h1.3l1.5,5.2l1.7-5.2h1.1l1.7,5.2l1.5-5.2h1.3l-2.1,6.8h-1.3L841.4,220.7z
		"/>
	<path class="st4" d="M850.6,219c2,0,3.3,1.6,3.3,3.7v0.3h-5.4c0.1,1.1,0.9,2.1,2.3,2.1c0.7,0,1.5-0.3,2-0.8l0.6,0.8
		c-0.7,0.7-1.6,1-2.7,1c-2,0-3.5-1.4-3.5-3.6C847.2,220.6,848.6,219,850.6,219z M848.5,222h4.1c0-0.9-0.6-2-2.1-2
		C849.3,220,848.6,221.1,848.5,222z"/>
	<path class="st4" d="M863.3,225.2c-0.5,0.6-1.3,0.9-2.2,0.9c-1.1,0-2.4-0.8-2.4-2.2c0-1.5,1.2-2.2,2.4-2.2c0.9,0,1.7,0.3,2.2,0.9
		v-1.1c0-0.8-0.7-1.3-1.7-1.3c-0.8,0-1.4,0.3-2,0.9l-0.5-0.9c0.8-0.7,1.7-1.1,2.8-1.1c1.5,0,2.7,0.6,2.7,2.4v4.6h-1.3V225.2z
		 M863.3,223.3c-0.4-0.5-1-0.8-1.7-0.8c-0.9,0-1.6,0.5-1.6,1.3c0,0.8,0.6,1.3,1.6,1.3c0.7,0,1.4-0.3,1.7-0.8V223.3z"/>
	<path class="st4" d="M866.5,219.1h1.3v1c0.5-0.7,1.3-1.2,2.2-1.2v1.3c-0.1,0-0.3,0-0.4,0c-0.6,0-1.5,0.5-1.8,1v4.7h-1.3V219.1z"/>
	<path class="st4" d="M874.2,219c2,0,3.3,1.6,3.3,3.7v0.3h-5.4c0.1,1.1,0.9,2.1,2.3,2.1c0.7,0,1.5-0.3,2-0.8l0.6,0.8
		c-0.7,0.7-1.6,1-2.7,1c-2,0-3.5-1.4-3.5-3.6C870.9,220.6,872.3,219,874.2,219z M872.2,222h4.1c0-0.9-0.6-2-2.1-2
		C872.9,220,872.2,221.1,872.2,222z"/>
	<path class="st4" d="M883.3,226.7c0.6,0.6,1.2,0.9,2.2,0.9c1.1,0,2.1-0.5,2.1-1.9v-0.9c-0.5,0.7-1.3,1.2-2.2,1.2
		c-1.8,0-3-1.3-3-3.5c0-2.2,1.3-3.5,3-3.5c0.9,0,1.7,0.4,2.2,1.1v-1h1.3v6.5c0,2.3-1.7,3-3.4,3c-1.1,0-2-0.2-2.8-1L883.3,226.7z
		 M887.5,221.1c-0.4-0.5-1.1-1-1.9-1c-1.3,0-2,1-2,2.4c0,1.4,0.8,2.4,2,2.4c0.8,0,1.5-0.5,1.9-1V221.1z"/>
	<path class="st4" d="M890.4,222.5c0-1.9,1.3-3.5,3.4-3.5c2.1,0,3.4,1.6,3.4,3.5c0,2-1.3,3.6-3.4,3.6
		C891.7,226.1,890.4,224.5,890.4,222.5z M895.9,222.5c0-1.3-0.7-2.4-2.1-2.4c-1.3,0-2.1,1.2-2.1,2.4c0,1.3,0.8,2.4,2.1,2.4
		C895.2,225,895.9,223.8,895.9,222.5z"/>
	<path class="st4" d="M898.6,217.2c0-0.4,0.4-0.8,0.8-0.8c0.4,0,0.8,0.4,0.8,0.8c0,0.4-0.4,0.8-0.8,0.8
		C899,218,898.6,217.7,898.6,217.2z M898.8,219.1h1.3v6.8h-1.3V219.1z"/>
	<path class="st4" d="M906.6,221.6c0-1.1-0.6-1.5-1.4-1.5c-0.8,0-1.5,0.5-1.9,1v4.8h-1.3v-6.8h1.3v1c0.4-0.5,1.3-1.1,2.4-1.1
		c1.4,0,2.2,0.8,2.2,2.2v4.8h-1.3V221.6z"/>
	<path class="st4" d="M910.4,226.7c0.6,0.6,1.2,0.9,2.2,0.9c1.1,0,2.1-0.5,2.1-1.9v-0.9c-0.5,0.7-1.3,1.2-2.2,1.2
		c-1.8,0-3-1.3-3-3.5c0-2.2,1.3-3.5,3-3.5c0.9,0,1.7,0.4,2.2,1.1v-1h1.3v6.5c0,2.3-1.7,3-3.4,3c-1.1,0-2-0.2-2.8-1L910.4,226.7z
		 M914.7,221.1c-0.4-0.5-1.1-1-1.9-1c-1.3,0-2,1-2,2.4c0,1.4,0.8,2.4,2,2.4c0.8,0,1.5-0.5,1.9-1V221.1z"/>
	<path class="st4" d="M921.8,224.4v-4.2h-1.1v-1.1h1.1v-1.8h1.3v1.8h1.4v1.1h-1.4v3.9c0,0.5,0.2,0.8,0.7,0.8c0.3,0,0.6-0.1,0.7-0.3
		l0.3,1c-0.3,0.3-0.7,0.4-1.3,0.4C922.4,226.1,921.8,225.5,921.8,224.4z"/>
	<path class="st4" d="M925.5,222.5c0-1.9,1.3-3.5,3.4-3.5c2.1,0,3.4,1.6,3.4,3.5c0,2-1.3,3.6-3.4,3.6
		C926.8,226.1,925.5,224.5,925.5,222.5z M931,222.5c0-1.3-0.7-2.4-2.1-2.4c-1.3,0-2.1,1.2-2.1,2.4c0,1.3,0.8,2.4,2.1,2.4
		C930.2,225,931,223.8,931,222.5z"/>
	<path class="st4" d="M937.8,220.3h-1.1v-1.1h1.1v-0.4c0-1.5,0.9-2.3,2.1-2.3c0.4,0,0.8,0.1,1.1,0.3l-0.3,0.9
		c-0.2-0.1-0.4-0.2-0.6-0.2c-0.6,0-1,0.4-1,1.2v0.4h1.4v1.1h-1.4v5.7h-1.3V220.3z"/>
	<path class="st4" d="M941.2,222.5c0-1.9,1.3-3.5,3.4-3.5c2.1,0,3.4,1.6,3.4,3.5c0,2-1.3,3.6-3.4,3.6
		C942.5,226.1,941.2,224.5,941.2,222.5z M946.7,222.5c0-1.3-0.7-2.4-2.1-2.4c-1.3,0-2.1,1.2-2.1,2.4c0,1.3,0.8,2.4,2.1,2.4
		C946,225,946.7,223.8,946.7,222.5z"/>
	<path class="st4" d="M952.7,219c1.3,0,2,0.5,2.5,1.2l-0.8,0.8c-0.4-0.6-1-0.8-1.6-0.8c-1.3,0-2.2,1-2.2,2.4s0.9,2.4,2.2,2.4
		c0.7,0,1.2-0.3,1.6-0.8l0.8,0.8c-0.5,0.7-1.3,1.2-2.5,1.2c-2,0-3.4-1.5-3.4-3.6S950.6,219,952.7,219z"/>
	<path class="st4" d="M961.2,225c-0.5,0.6-1.4,1.1-2.4,1.1c-1.4,0-2.2-0.7-2.2-2.2v-4.8h1.3v4.4c0,1.1,0.6,1.5,1.4,1.5
		c0.8,0,1.5-0.4,1.9-1v-4.9h1.3v6.8h-1.3V225z"/>
	<path class="st4" d="M964.4,224.1c0.5,0.5,1.4,1,2.3,1c1,0,1.5-0.4,1.5-1c0-0.7-0.8-0.9-1.6-1.1c-1.1-0.3-2.5-0.6-2.5-2
		c0-1.1,0.9-2,2.6-2c1.2,0,2,0.4,2.6,1l-0.6,0.9c-0.4-0.5-1.1-0.8-2-0.8s-1.4,0.3-1.4,0.9c0,0.6,0.7,0.8,1.6,1
		c1.2,0.3,2.6,0.6,2.6,2.1c0,1.2-1,2.1-2.7,2.1c-1.1,0-2.1-0.3-2.8-1.1L964.4,224.1z"/>
	<path class="st4" d="M974.2,222.5c0-1.9,1.3-3.5,3.4-3.5c2.1,0,3.4,1.6,3.4,3.5c0,2-1.3,3.6-3.4,3.6
		C975.5,226.1,974.2,224.5,974.2,222.5z M979.7,222.5c0-1.3-0.7-2.4-2.1-2.4c-1.3,0-2.1,1.2-2.1,2.4c0,1.3,0.8,2.4,2.1,2.4
		C978.9,225,979.7,223.8,979.7,222.5z"/>
	<path class="st4" d="M987.2,221.6c0-1.1-0.6-1.5-1.4-1.5c-0.8,0-1.5,0.5-1.9,1v4.8h-1.3v-6.8h1.3v1c0.4-0.5,1.3-1.1,2.4-1.1
		c1.4,0,2.2,0.8,2.2,2.2v4.8h-1.3V221.6z"/>
	<path class="st4" d="M829.9,241.7c-0.5,0.7-1.3,1.1-2.2,1.1c-1.8,0-3-1.3-3-3.5c0-2.2,1.3-3.6,3-3.6c0.9,0,1.7,0.4,2.2,1.1v-3.6
		h1.3v9.3h-1.3V241.7z M829.9,237.9c-0.4-0.5-1.1-1-1.9-1c-1.3,0-2,1-2,2.4c0,1.4,0.8,2.4,2,2.4c0.8,0,1.5-0.4,1.9-1V237.9z"/>
	<path class="st4" d="M837.8,241.8c-0.5,0.6-1.4,1.1-2.4,1.1c-1.4,0-2.2-0.7-2.2-2.2v-4.8h1.3v4.4c0,1.1,0.6,1.5,1.4,1.5
		c0.8,0,1.5-0.4,1.9-1v-4.9h1.3v6.8h-1.3V241.8z"/>
	<path class="st4" d="M841,235.9h1.3v1c0.5-0.7,1.3-1.2,2.2-1.2v1.3c-0.1,0-0.3,0-0.4,0c-0.6,0-1.5,0.5-1.8,1v4.7H841V235.9z"/>
	<path class="st4" d="M845.6,234c0-0.4,0.4-0.8,0.8-0.8c0.4,0,0.8,0.4,0.8,0.8c0,0.4-0.4,0.8-0.8,0.8
		C846,234.8,845.6,234.5,845.6,234z M845.8,235.9h1.3v6.8h-1.3V235.9z"/>
	<path class="st4" d="M853.6,238.4c0-1.1-0.6-1.5-1.4-1.5c-0.8,0-1.5,0.5-1.9,1v4.8H849v-6.8h1.3v1c0.4-0.5,1.3-1.1,2.4-1.1
		c1.4,0,2.2,0.8,2.2,2.2v4.7h-1.3V238.4z"/>
	<path class="st4" d="M857.4,243.5c0.6,0.6,1.2,0.9,2.2,0.9c1.1,0,2.1-0.5,2.1-1.9v-0.9c-0.5,0.7-1.3,1.2-2.2,1.2
		c-1.8,0-3-1.3-3-3.5c0-2.2,1.3-3.5,3-3.5c0.9,0,1.7,0.4,2.2,1.1v-1h1.3v6.5c0,2.3-1.7,3-3.4,3c-1.1,0-2-0.2-2.8-1L857.4,243.5z
		 M861.7,237.9c-0.4-0.5-1.1-1-1.9-1c-1.3,0-2,1-2,2.4c0,1.4,0.8,2.4,2,2.4c0.8,0,1.5-0.5,1.9-1V237.9z"/>
	<path class="st4" d="M868.8,241.2v-4.2h-1.1v-1.1h1.1v-1.8h1.3v1.8h1.4v1.1h-1.4v3.9c0,0.5,0.2,0.8,0.7,0.8c0.3,0,0.6-0.1,0.7-0.3
		l0.3,1c-0.3,0.3-0.7,0.4-1.3,0.4C869.4,242.9,868.8,242.3,868.8,241.2z"/>
	<path class="st4" d="M877.4,238.4c0-1.1-0.6-1.5-1.4-1.5c-0.8,0-1.5,0.5-1.9,1v4.8h-1.3v-9.3h1.3v3.5c0.4-0.5,1.4-1.1,2.4-1.1
		c1.4,0,2.2,0.7,2.2,2.2v4.8h-1.3V238.4z"/>
	<path class="st4" d="M883.6,235.8c2,0,3.3,1.6,3.3,3.7v0.3h-5.4c0.1,1.1,0.9,2.1,2.3,2.1c0.7,0,1.5-0.3,2-0.8l0.6,0.8
		c-0.7,0.7-1.6,1-2.7,1c-2,0-3.5-1.4-3.5-3.6C880.3,237.4,881.7,235.8,883.6,235.8z M881.6,238.8h4.1c0-0.9-0.6-2-2.1-2
		C882.3,236.8,881.6,237.9,881.6,238.8z"/>
	<path class="st4" d="M891.9,234c0-0.4,0.4-0.8,0.8-0.8c0.4,0,0.8,0.4,0.8,0.8c0,0.4-0.4,0.8-0.8,0.8
		C892.3,234.8,891.9,234.5,891.9,234z M892.1,235.9h1.3v6.8h-1.3V235.9z"/>
	<path class="st4" d="M900,238.4c0-1.1-0.6-1.5-1.4-1.5c-0.8,0-1.5,0.5-1.9,1v4.8h-1.3v-6.8h1.3v1c0.4-0.5,1.3-1.1,2.4-1.1
		c1.4,0,2.2,0.8,2.2,2.2v4.7H900V238.4z"/>
	<path class="st4" d="M903.5,241.2v-4.2h-1.1v-1.1h1.1v-1.8h1.3v1.8h1.4v1.1h-1.4v3.9c0,0.5,0.2,0.8,0.7,0.8c0.3,0,0.6-0.1,0.7-0.3
		l0.3,1c-0.3,0.3-0.7,0.4-1.3,0.4C904,242.9,903.5,242.3,903.5,241.2z"/>
	<path class="st4" d="M910.5,235.8c2,0,3.3,1.6,3.3,3.7v0.3h-5.4c0.1,1.1,0.9,2.1,2.3,2.1c0.7,0,1.5-0.3,2-0.8l0.6,0.8
		c-0.7,0.7-1.6,1-2.7,1c-2,0-3.5-1.4-3.5-3.6C907.1,237.4,908.5,235.8,910.5,235.8z M908.4,238.8h4.1c0-0.9-0.6-2-2.1-2
		C909.1,236.8,908.5,237.9,908.4,238.8z"/>
	<path class="st4" d="M915.3,235.9h1.3v1c0.5-0.7,1.3-1.2,2.2-1.2v1.3c-0.1,0-0.3,0-0.4,0c-0.6,0-1.5,0.5-1.8,1v4.7h-1.3V235.9z"/>
	<path class="st4" d="M919.1,235.9h1.3l2.1,5.3l2.1-5.3h1.4l-2.8,6.8h-1.4L919.1,235.9z"/>
	<path class="st4" d="M926.8,234c0-0.4,0.4-0.8,0.8-0.8c0.4,0,0.8,0.4,0.8,0.8c0,0.4-0.4,0.8-0.8,0.8
		C927.2,234.8,926.8,234.5,926.8,234z M927,235.9h1.3v6.8H927V235.9z"/>
	<path class="st4" d="M933.3,235.8c2,0,3.3,1.6,3.3,3.7v0.3h-5.4c0.1,1.1,0.9,2.1,2.3,2.1c0.7,0,1.5-0.3,2-0.8l0.6,0.8
		c-0.7,0.7-1.6,1-2.7,1c-2,0-3.5-1.4-3.5-3.6C929.9,237.4,931.3,235.8,933.3,235.8z M931.2,238.8h4.1c0-0.9-0.6-2-2.1-2
		C931.9,236.8,931.3,237.9,931.2,238.8z"/>
	<path class="st4" d="M942.3,237.5l-1.7,5.2h-1.3l-2.1-6.8h1.3l1.5,5.2l1.7-5.2h1.1l1.7,5.2l1.5-5.2h1.3l-2.1,6.8H944L942.3,237.5z"
		/>
	<path class="st4" d="M948.6,241.1c0.5,0,0.9,0.4,0.9,0.9s-0.4,0.9-0.9,0.9c-0.5,0-0.9-0.4-0.9-0.9S948.1,241.1,948.6,241.1z"/>
</g>
<g>
	<path class="st4" d="M69.1,168.3l-1.9,7.2h-1.5l-2.7-9.3h1.6l1.9,7.5l2-7.5h1.1l2,7.5l1.9-7.5h1.6l-2.7,9.3h-1.5L69.1,168.3z"/>
	<path class="st4" d="M78.8,168.6c2,0,3.3,1.6,3.3,3.7v0.3h-5.4c0.1,1.1,0.9,2.1,2.3,2.1c0.7,0,1.5-0.3,2-0.8l0.6,0.8
		c-0.7,0.7-1.6,1-2.7,1c-2,0-3.5-1.4-3.5-3.6C75.4,170.2,76.8,168.6,78.8,168.6z M76.7,171.6h4.1c0-0.9-0.6-2-2.1-2
		C77.5,169.6,76.8,170.7,76.7,171.6z"/>
	<path class="st4" d="M87.3,168.7h1.3v1c0.5-0.7,1.3-1.2,2.2-1.2v1.3c-0.1,0-0.3,0-0.4,0c-0.6,0-1.5,0.5-1.8,1v4.7h-1.3V168.7z"/>
	<path class="st4" d="M95,168.6c2,0,3.3,1.6,3.3,3.7v0.3h-5.4c0.1,1.1,0.9,2.1,2.3,2.1c0.7,0,1.5-0.3,2-0.8l0.6,0.8
		c-0.7,0.7-1.6,1-2.7,1c-2,0-3.5-1.4-3.5-3.6C91.6,170.2,93,168.6,95,168.6z M92.9,171.6h4.1c0-0.9-0.6-2-2.1-2
		C93.6,169.6,93,170.7,92.9,171.6z"/>
	<path class="st4" d="M102.9,168.6c1.3,0,2,0.5,2.5,1.2l-0.8,0.8c-0.4-0.6-1-0.8-1.6-0.8c-1.3,0-2.2,1-2.2,2.4s0.9,2.4,2.2,2.4
		c0.7,0,1.2-0.3,1.6-0.8l0.8,0.8c-0.5,0.7-1.3,1.2-2.5,1.2c-2,0-3.4-1.5-3.4-3.6S100.8,168.6,102.9,168.6z"/>
	<path class="st4" d="M109.8,168.6c2,0,3.3,1.6,3.3,3.7v0.3h-5.4c0.1,1.1,0.9,2.1,2.3,2.1c0.7,0,1.5-0.3,2-0.8l0.6,0.8
		c-0.7,0.7-1.6,1-2.7,1c-2,0-3.5-1.4-3.5-3.6C106.4,170.2,107.8,168.6,109.8,168.6z M107.7,171.6h4.1c0-0.9-0.6-2-2.1-2
		C108.4,169.6,107.8,170.7,107.7,171.6z"/>
	<path class="st4" d="M114.5,166.8c0-0.4,0.4-0.8,0.8-0.8c0.4,0,0.8,0.4,0.8,0.8s-0.4,0.8-0.8,0.8
		C114.8,167.6,114.5,167.3,114.5,166.8z M114.7,168.7h1.3v6.8h-1.3V168.7z"/>
	<path class="st4" d="M116.9,168.7h1.3l2.1,5.3l2.1-5.3h1.4l-2.8,6.8h-1.4L116.9,168.7z"/>
	<path class="st4" d="M127.8,168.6c2,0,3.3,1.6,3.3,3.7v0.3h-5.4c0.1,1.1,0.9,2.1,2.3,2.1c0.7,0,1.5-0.3,2-0.8l0.6,0.8
		c-0.7,0.7-1.6,1-2.7,1c-2,0-3.5-1.4-3.5-3.6C124.5,170.2,125.9,168.6,127.8,168.6z M125.8,171.6h4.1c0-0.9-0.6-2-2.1-2
		C126.5,169.6,125.8,170.7,125.8,171.6z"/>
	<path class="st4" d="M136.7,177.1c0.5,0,0.8-0.2,1-0.7l0.4-0.9l-2.8-6.8h1.3l2.1,5.3l2.1-5.3h1.4l-3.3,8.1
		c-0.4,1.1-1.2,1.4-2.2,1.5c-0.2,0-0.6,0-0.8-0.1l0.2-1.1C136.3,177.1,136.6,177.1,136.7,177.1z"/>
	<path class="st4" d="M142.9,172.1c0-1.9,1.3-3.5,3.4-3.5c2.1,0,3.4,1.6,3.4,3.5c0,2-1.3,3.6-3.4,3.6
		C144.2,175.7,142.9,174.1,142.9,172.1z M148.4,172.1c0-1.3-0.7-2.4-2.1-2.4c-1.3,0-2.1,1.1-2.1,2.4c0,1.3,0.8,2.4,2.1,2.4
		C147.6,174.6,148.4,173.4,148.4,172.1z"/>
	<path class="st4" d="M155.9,174.6c-0.5,0.6-1.4,1.1-2.4,1.1c-1.4,0-2.2-0.7-2.2-2.2v-4.8h1.3v4.4c0,1.1,0.6,1.5,1.4,1.5
		c0.8,0,1.5-0.4,1.9-1v-4.9h1.3v6.8h-1.3V174.6z"/>
	<path class="st4" d="M159.1,168.7h1.3v1c0.5-0.7,1.3-1.2,2.2-1.2v1.3c-0.1,0-0.3,0-0.4,0c-0.6,0-1.5,0.5-1.8,1v4.7h-1.3V168.7z"/>
	<path class="st4" d="M171.6,174.8c-0.5,0.6-1.3,0.9-2.2,0.9c-1.1,0-2.4-0.8-2.4-2.2c0-1.5,1.2-2.2,2.4-2.2c0.9,0,1.7,0.3,2.2,0.9
		V171c0-0.8-0.7-1.3-1.7-1.3c-0.8,0-1.4,0.3-2,0.9l-0.5-0.9c0.8-0.7,1.7-1.1,2.8-1.1c1.5,0,2.7,0.6,2.7,2.4v4.6h-1.3V174.8z
		 M171.6,172.9c-0.4-0.5-1-0.8-1.7-0.8c-0.9,0-1.6,0.5-1.6,1.3s0.6,1.3,1.6,1.3c0.7,0,1.4-0.3,1.7-0.8V172.9z"/>
	<path class="st4" d="M174.9,178.1v-9.3h1.3v1c0.5-0.7,1.3-1.1,2.2-1.1c1.8,0,3,1.3,3,3.5s-1.2,3.6-3,3.6c-0.9,0-1.7-0.4-2.2-1.1
		v3.6H174.9z M178,169.7c-0.8,0-1.5,0.4-1.9,1v2.9c0.3,0.5,1.1,1,1.9,1c1.3,0,2-1,2-2.4C180.1,170.7,179.3,169.7,178,169.7z"/>
	<path class="st4" d="M183,178.1v-9.3h1.3v1c0.5-0.7,1.3-1.1,2.2-1.1c1.8,0,3,1.3,3,3.5s-1.2,3.6-3,3.6c-0.9,0-1.7-0.4-2.2-1.1v3.6
		H183z M186.1,169.7c-0.8,0-1.5,0.4-1.9,1v2.9c0.3,0.5,1.1,1,1.9,1c1.3,0,2-1,2-2.4C188.2,170.7,187.4,169.7,186.1,169.7z"/>
	<path class="st4" d="M191.1,166.2h1.3v9.3h-1.3V166.2z"/>
	<path class="st4" d="M194.1,166.8c0-0.4,0.4-0.8,0.8-0.8c0.4,0,0.8,0.4,0.8,0.8s-0.4,0.8-0.8,0.8
		C194.5,167.6,194.1,167.3,194.1,166.8z M194.3,168.7h1.3v6.8h-1.3V168.7z"/>
	<path class="st4" d="M200.6,168.6c1.3,0,2,0.5,2.5,1.2l-0.8,0.8c-0.4-0.6-1-0.8-1.6-0.8c-1.3,0-2.2,1-2.2,2.4s0.9,2.4,2.2,2.4
		c0.7,0,1.2-0.3,1.6-0.8l0.8,0.8c-0.5,0.7-1.3,1.2-2.5,1.2c-2,0-3.4-1.5-3.4-3.6S198.6,168.6,200.6,168.6z"/>
	<path class="st4" d="M208.7,174.8c-0.5,0.6-1.3,0.9-2.2,0.9c-1.1,0-2.4-0.8-2.4-2.2c0-1.5,1.2-2.2,2.4-2.2c0.9,0,1.7,0.3,2.2,0.9
		V171c0-0.8-0.7-1.3-1.7-1.3c-0.8,0-1.4,0.3-2,0.9l-0.5-0.9c0.8-0.7,1.7-1.1,2.8-1.1c1.5,0,2.7,0.6,2.7,2.4v4.6h-1.3V174.8z
		 M208.7,172.9c-0.4-0.5-1-0.8-1.7-0.8c-0.9,0-1.6,0.5-1.6,1.3s0.6,1.3,1.6,1.3c0.7,0,1.4-0.3,1.7-0.8V172.9z"/>
	<path class="st4" d="M212.2,174v-4.2h-1.1v-1.1h1.1v-1.8h1.3v1.8h1.4v1.1h-1.4v3.9c0,0.5,0.2,0.8,0.7,0.8c0.3,0,0.6-0.1,0.7-0.3
		l0.3,1c-0.3,0.3-0.7,0.4-1.3,0.4C212.8,175.7,212.2,175.1,212.2,174z"/>
	<path class="st4" d="M216.1,166.8c0-0.4,0.4-0.8,0.8-0.8c0.4,0,0.8,0.4,0.8,0.8s-0.4,0.8-0.8,0.8
		C216.4,167.6,216.1,167.3,216.1,166.8z M216.3,168.7h1.3v6.8h-1.3V168.7z"/>
	<path class="st4" d="M219.1,172.1c0-1.9,1.3-3.5,3.4-3.5c2.1,0,3.4,1.6,3.4,3.5c0,2-1.3,3.6-3.4,3.6
		C220.4,175.7,219.1,174.1,219.1,172.1z M224.6,172.1c0-1.3-0.7-2.4-2.1-2.4c-1.3,0-2.1,1.1-2.1,2.4c0,1.3,0.8,2.4,2.1,2.4
		C223.9,174.6,224.6,173.4,224.6,172.1z"/>
	<path class="st4" d="M232.1,171.2c0-1.1-0.6-1.5-1.4-1.5c-0.8,0-1.5,0.5-1.9,1v4.8h-1.3v-6.8h1.3v1c0.4-0.5,1.3-1.1,2.4-1.1
		c1.4,0,2.2,0.8,2.2,2.2v4.7h-1.3V171.2z"/>
	<path class="st4" d="M235.1,176.8c0.4-0.3,0.9-0.8,1-1.3c0,0-0.1,0-0.2,0c-0.4,0-0.8-0.3-0.8-0.8c0-0.5,0.4-0.9,0.9-0.9
		c0.5,0,1,0.4,1,1.2c0,0.9-0.5,1.8-1.2,2.3L235.1,176.8z"/>
	<path class="st4" d="M80.4,187.1l-1.7,5.2h-1.3l-2.1-6.8h1.3l1.5,5.2l1.7-5.2H81l1.7,5.2l1.5-5.2h1.3l-2.1,6.8h-1.3L80.4,187.1z"/>
	<path class="st4" d="M91.2,188c0-1.1-0.6-1.5-1.4-1.5c-0.8,0-1.5,0.5-1.9,1v4.8h-1.3V183h1.3v3.5c0.4-0.5,1.4-1.1,2.4-1.1
		c1.4,0,2.2,0.7,2.2,2.2v4.8h-1.3V188z"/>
	<path class="st4" d="M94.3,183.6c0-0.4,0.4-0.8,0.8-0.8c0.4,0,0.8,0.4,0.8,0.8s-0.4,0.8-0.8,0.8C94.7,184.4,94.3,184.1,94.3,183.6z
		 M94.5,185.5h1.3v6.8h-1.3V185.5z"/>
	<path class="st4" d="M100.8,185.4c1.3,0,2,0.5,2.5,1.2l-0.8,0.8c-0.4-0.6-1-0.8-1.6-0.8c-1.3,0-2.2,1-2.2,2.4
		c0,1.4,0.9,2.4,2.2,2.4c0.7,0,1.2-0.3,1.6-0.8l0.8,0.8c-0.5,0.7-1.3,1.2-2.5,1.2c-2,0-3.4-1.5-3.4-3.6
		C97.3,186.9,98.7,185.4,100.8,185.4z"/>
	<path class="st4" d="M109.3,188c0-1.1-0.6-1.5-1.4-1.5c-0.8,0-1.5,0.5-1.9,1v4.8h-1.3V183h1.3v3.5c0.4-0.5,1.4-1.1,2.4-1.1
		c1.4,0,2.2,0.7,2.2,2.2v4.8h-1.3V188z"/>
	<path class="st4" d="M120.4,187.1l-1.7,5.2h-1.3l-2.1-6.8h1.3l1.5,5.2l1.7-5.2h1.1l1.7,5.2l1.5-5.2h1.3l-2.1,6.8H122L120.4,187.1z"
		/>
	<path class="st4" d="M126.4,183.6c0-0.4,0.4-0.8,0.8-0.8c0.4,0,0.8,0.4,0.8,0.8s-0.4,0.8-0.8,0.8
		C126.8,184.4,126.4,184.1,126.4,183.6z M126.6,185.5h1.3v6.8h-1.3V185.5z"/>
	<path class="st4" d="M129.8,183h1.3v9.3h-1.3V183z"/>
	<path class="st4" d="M133.1,183h1.3v9.3h-1.3V183z"/>
	<path class="st4" d="M140,183h1.3v3.6c0.5-0.7,1.3-1.1,2.2-1.1c1.8,0,3,1.4,3,3.6c0,2.2-1.3,3.5-3,3.5c-0.9,0-1.7-0.5-2.2-1.1v1
		H140V183z M143.1,191.4c1.3,0,2-1,2-2.4c0-1.4-0.8-2.4-2-2.4c-0.8,0-1.5,0.5-1.9,1v2.9C141.6,190.9,142.3,191.4,143.1,191.4z"/>
	<path class="st4" d="M151,185.4c2,0,3.3,1.6,3.3,3.7v0.3H149c0.1,1.1,0.9,2.1,2.3,2.1c0.7,0,1.5-0.3,2-0.8l0.6,0.8
		c-0.7,0.7-1.6,1-2.7,1c-2,0-3.5-1.4-3.5-3.6C147.6,187,149.1,185.4,151,185.4z M149,188.4h4.1c0-0.9-0.6-2-2.1-2
		C149.7,186.4,149,187.5,149,188.4z"/>
	<path class="st4" d="M159.8,190.8v-4.2h-1.1v-1.1h1.1v-1.8h1.3v1.8h1.4v1.1H161v3.9c0,0.5,0.2,0.8,0.7,0.8c0.3,0,0.6-0.1,0.7-0.3
		l0.3,1c-0.3,0.3-0.7,0.4-1.3,0.4C160.3,192.5,159.8,191.9,159.8,190.8z"/>
	<path class="st4" d="M168.4,188c0-1.1-0.6-1.5-1.4-1.5c-0.8,0-1.5,0.5-1.9,1v4.8h-1.3V183h1.3v3.5c0.4-0.5,1.4-1.1,2.4-1.1
		c1.4,0,2.2,0.7,2.2,2.2v4.8h-1.3V188z"/>
	<path class="st4" d="M171.2,188.9c0-1.9,1.3-3.5,3.4-3.5c2.1,0,3.4,1.6,3.4,3.5c0,2-1.3,3.6-3.4,3.6
		C172.5,192.5,171.2,190.9,171.2,188.9z M176.7,188.9c0-1.3-0.7-2.4-2.1-2.4c-1.3,0-2.1,1.1-2.1,2.4c0,1.3,0.8,2.4,2.1,2.4
		C176,191.4,176.7,190.2,176.7,188.9z"/>
	<path class="st4" d="M179.6,185.5h1.3v1c0.5-0.7,1.3-1.2,2.2-1.2v1.3c-0.1,0-0.3,0-0.4,0c-0.6,0-1.5,0.5-1.8,1v4.7h-1.3V185.5z"/>
	<path class="st4" d="M184,188.9c0-1.9,1.3-3.5,3.4-3.5c2.1,0,3.4,1.6,3.4,3.5c0,2-1.3,3.6-3.4,3.6C185.3,192.5,184,190.9,184,188.9
		z M189.5,188.9c0-1.3-0.7-2.4-2.1-2.4c-1.3,0-2.1,1.1-2.1,2.4c0,1.3,0.8,2.4,2.1,2.4C188.7,191.4,189.5,190.2,189.5,188.9z"/>
	<path class="st4" d="M197,191.4c-0.5,0.6-1.4,1.1-2.4,1.1c-1.4,0-2.2-0.7-2.2-2.2v-4.8h1.3v4.4c0,1.1,0.6,1.5,1.4,1.5
		c0.8,0,1.5-0.4,1.9-1v-4.9h1.3v6.8H197V191.4z"/>
	<path class="st4" d="M200.8,193.1c0.6,0.6,1.2,0.9,2.2,0.9c1.1,0,2.1-0.5,2.1-1.9v-0.9c-0.5,0.7-1.3,1.2-2.2,1.2
		c-1.8,0-3-1.3-3-3.5c0-2.2,1.3-3.5,3-3.5c0.9,0,1.7,0.4,2.2,1.1v-1h1.3v6.5c0,2.3-1.7,3-3.4,3c-1.1,0-2-0.2-2.8-1L200.8,193.1z
		 M205,187.5c-0.4-0.5-1.1-1-1.9-1c-1.3,0-2,1-2,2.4c0,1.4,0.8,2.4,2,2.4c0.8,0,1.5-0.5,1.9-1V187.5z"/>
	<path class="st4" d="M212.9,188c0-1.1-0.6-1.5-1.4-1.5c-0.8,0-1.5,0.5-1.9,1v4.8h-1.3V183h1.3v3.5c0.4-0.5,1.4-1.1,2.4-1.1
		c1.4,0,2.2,0.7,2.2,2.2v4.8h-1.3V188z"/>
	<path class="st4" d="M216.1,183h1.3v9.3h-1.3V183z"/>
	<path class="st4" d="M219.8,193.9c0.5,0,0.8-0.2,1-0.7l0.4-0.9l-2.8-6.8h1.3l2.1,5.3l2.1-5.3h1.4l-3.3,8.1
		c-0.4,1.1-1.2,1.4-2.2,1.5c-0.2,0-0.6,0-0.8-0.1l0.2-1.1C219.4,193.9,219.6,193.9,219.8,193.9z"/>
	<path class="st4" d="M72.6,202.2c2,0,3.3,1.6,3.3,3.7v0.3h-5.4c0.1,1.1,0.9,2.1,2.3,2.1c0.7,0,1.5-0.3,2-0.8l0.6,0.8
		c-0.7,0.7-1.6,1-2.7,1c-2,0-3.5-1.4-3.5-3.6C69.3,203.8,70.7,202.2,72.6,202.2z M70.6,205.2h4.1c0-0.9-0.6-2-2.1-2
		C71.3,203.2,70.6,204.3,70.6,205.2z"/>
	<path class="st4" d="M76.5,202.3h1.3l2.1,5.3l2.1-5.3h1.4l-2.8,6.8h-1.4L76.5,202.3z"/>
	<path class="st4" d="M88.6,208.4c-0.5,0.6-1.3,0.9-2.2,0.9c-1.1,0-2.4-0.8-2.4-2.2c0-1.5,1.2-2.2,2.4-2.2c0.9,0,1.7,0.3,2.2,0.9
		v-1.1c0-0.8-0.7-1.3-1.7-1.3c-0.8,0-1.4,0.3-2,0.9l-0.5-0.9c0.8-0.7,1.7-1.1,2.8-1.1c1.5,0,2.7,0.6,2.7,2.4v4.6h-1.3V208.4z
		 M88.6,206.5c-0.4-0.5-1-0.8-1.7-0.8c-0.9,0-1.6,0.5-1.6,1.3c0,0.8,0.6,1.3,1.6,1.3c0.7,0,1.4-0.3,1.7-0.8V206.5z"/>
	<path class="st4" d="M91.9,199.8h1.3v9.3h-1.3V199.8z"/>
	<path class="st4" d="M99.8,208.2c-0.5,0.6-1.4,1.1-2.4,1.1c-1.4,0-2.2-0.7-2.2-2.2v-4.8h1.3v4.4c0,1.1,0.6,1.5,1.4,1.5
		c0.8,0,1.5-0.4,1.9-1v-4.9h1.3v6.8h-1.3V208.2z"/>
	<path class="st4" d="M107.2,208.4c-0.5,0.6-1.3,0.9-2.2,0.9c-1.1,0-2.4-0.8-2.4-2.2c0-1.5,1.2-2.2,2.4-2.2c0.9,0,1.7,0.3,2.2,0.9
		v-1.1c0-0.8-0.7-1.3-1.7-1.3c-0.8,0-1.4,0.3-2,0.9l-0.5-0.9c0.8-0.7,1.7-1.1,2.8-1.1c1.5,0,2.7,0.6,2.7,2.4v4.6h-1.3V208.4z
		 M107.2,206.5c-0.4-0.5-1-0.8-1.7-0.8c-0.9,0-1.6,0.5-1.6,1.3c0,0.8,0.6,1.3,1.6,1.3c0.7,0,1.4-0.3,1.7-0.8V206.5z"/>
	<path class="st4" d="M110.7,207.6v-4.2h-1.1v-1.1h1.1v-1.8h1.3v1.8h1.4v1.1H112v3.9c0,0.5,0.2,0.8,0.7,0.8c0.3,0,0.6-0.1,0.7-0.3
		l0.3,1c-0.3,0.3-0.7,0.4-1.3,0.4C111.3,209.3,110.7,208.7,110.7,207.6z"/>
	<path class="st4" d="M117.7,202.2c2,0,3.3,1.6,3.3,3.7v0.3h-5.4c0.1,1.1,0.9,2.1,2.3,2.1c0.7,0,1.5-0.3,2-0.8l0.6,0.8
		c-0.7,0.7-1.6,1-2.7,1c-2,0-3.5-1.4-3.5-3.6C114.3,203.8,115.7,202.2,117.7,202.2z M115.6,205.2h4.1c0-0.9-0.6-2-2.1-2
		C116.4,203.2,115.7,204.3,115.6,205.2z"/>
	<path class="st4" d="M127.4,208.1c-0.5,0.7-1.3,1.1-2.2,1.1c-1.8,0-3-1.3-3-3.5c0-2.2,1.3-3.6,3-3.6c0.9,0,1.7,0.4,2.2,1.1v-3.6
		h1.3v9.3h-1.3V208.1z M127.4,204.3c-0.4-0.5-1.1-1-1.9-1c-1.3,0-2,1-2,2.4c0,1.4,0.8,2.4,2,2.4c0.8,0,1.5-0.4,1.9-1V204.3z"/>
	<path class="st4" d="M134.3,199.8h1.3v3.6c0.5-0.7,1.3-1.1,2.2-1.1c1.8,0,3,1.4,3,3.6c0,2.2-1.3,3.5-3,3.5c-0.9,0-1.7-0.5-2.2-1.1
		v1h-1.3V199.8z M137.4,208.2c1.3,0,2-1,2-2.4s-0.8-2.4-2-2.4c-0.8,0-1.5,0.5-1.9,1v2.9C135.9,207.7,136.7,208.2,137.4,208.2z"/>
	<path class="st4" d="M142.8,210.7c0.5,0,0.8-0.2,1-0.7l0.4-0.9l-2.8-6.8h1.3l2.1,5.3l2.1-5.3h1.4l-3.3,8.1
		c-0.4,1.1-1.2,1.4-2.2,1.5c-0.2,0-0.6,0-0.8-0.1l0.2-1.1C142.4,210.7,142.6,210.7,142.8,210.7z"/>
	<path class="st4" d="M152.5,205.7c0-1.9,1.3-3.5,3.4-3.5c2.1,0,3.4,1.6,3.4,3.5c0,2-1.3,3.6-3.4,3.6
		C153.8,209.3,152.5,207.7,152.5,205.7z M158,205.7c0-1.3-0.7-2.4-2.1-2.4c-1.3,0-2.1,1.1-2.1,2.4c0,1.3,0.8,2.4,2.1,2.4
		C157.3,208.2,158,207,158,205.7z"/>
	<path class="st4" d="M165.5,208.2c-0.5,0.6-1.4,1.1-2.4,1.1c-1.4,0-2.2-0.7-2.2-2.2v-4.8h1.3v4.4c0,1.1,0.6,1.5,1.4,1.5
		c0.8,0,1.5-0.4,1.9-1v-4.9h1.3v6.8h-1.3V208.2z"/>
	<path class="st4" d="M168.8,202.3h1.3v1c0.5-0.7,1.3-1.2,2.2-1.2v1.3c-0.1,0-0.3,0-0.4,0c-0.6,0-1.5,0.5-1.8,1v4.7h-1.3V202.3z"/>
	<path class="st4" d="M177.2,199.8h3.9c1.9,0,3,1.3,3,2.9c0,1.6-1.1,2.9-3,2.9h-2.5v3.6h-1.4V199.8z M180.9,201h-2.4v3.3h2.4
		c1,0,1.7-0.7,1.7-1.6C182.6,201.7,181.9,201,180.9,201z"/>
	<path class="st4" d="M188.3,202.2c2,0,3.3,1.6,3.3,3.7v0.3h-5.4c0.1,1.1,0.9,2.1,2.3,2.1c0.7,0,1.5-0.3,2-0.8l0.6,0.8
		c-0.7,0.7-1.6,1-2.7,1c-2,0-3.5-1.4-3.5-3.6C184.9,203.8,186.3,202.2,188.3,202.2z M186.2,205.2h4.1c0-0.9-0.6-2-2.1-2
		C186.9,203.2,186.3,204.3,186.2,205.2z"/>
	<path class="st4" d="M192.7,205.7c0-1.9,1.3-3.5,3.4-3.5c2.1,0,3.4,1.6,3.4,3.5c0,2-1.3,3.6-3.4,3.6
		C194,209.3,192.7,207.7,192.7,205.7z M198.2,205.7c0-1.3-0.7-2.4-2.1-2.4c-1.3,0-2.1,1.1-2.1,2.4c0,1.3,0.8,2.4,2.1,2.4
		C197.5,208.2,198.2,207,198.2,205.7z"/>
	<path class="st4" d="M201.1,211.7v-9.3h1.3v1c0.5-0.7,1.3-1.1,2.2-1.1c1.8,0,3,1.3,3,3.5c0,2.2-1.2,3.6-3,3.6
		c-0.9,0-1.7-0.4-2.2-1.1v3.6H201.1z M204.3,203.3c-0.8,0-1.5,0.4-1.9,1v2.9c0.3,0.5,1.1,1,1.9,1c1.3,0,2-1,2-2.4
		C206.3,204.3,205.5,203.3,204.3,203.3z"/>
	<path class="st4" d="M209.2,199.8h1.3v9.3h-1.3V199.8z"/>
	<path class="st4" d="M215.4,202.2c2,0,3.3,1.6,3.3,3.7v0.3h-5.4c0.1,1.1,0.9,2.1,2.3,2.1c0.7,0,1.5-0.3,2-0.8l0.6,0.8
		c-0.7,0.7-1.6,1-2.7,1c-2,0-3.5-1.4-3.5-3.6C212.1,203.8,213.5,202.2,215.4,202.2z M213.4,205.2h4.1c0-0.9-0.6-2-2.1-2
		C214.1,203.2,213.4,204.3,213.4,205.2z"/>
	<path class="st4" d="M231.6,209.1h-1.7c-0.3-0.2-0.6-0.5-0.9-0.9c-0.7,0.6-1.6,1.1-2.7,1.1c-1.6,0-3-0.9-3-2.6c0-1.5,1-2.2,2-2.8
		c-0.4-0.7-0.7-1.4-0.7-2.1c0-1.2,1.1-2.2,2.4-2.2c1.2,0,2.2,0.7,2.2,1.9c0,1.4-1.2,2-2.4,2.6c0.4,0.5,0.7,0.9,1,1.2
		c0.4,0.4,0.7,0.8,1,1.2c0.5-0.7,0.8-1.5,1-2l1.1,0.5c-0.3,0.7-0.7,1.6-1.3,2.4C230.3,207.9,230.9,208.5,231.6,209.1z M228.3,207.5
		c-0.5-0.5-1-1-1.2-1.3c-0.4-0.4-0.7-0.9-1.1-1.4c-0.7,0.4-1.2,1-1.2,1.8c0,1.1,0.8,1.7,1.8,1.7
		C227.2,208.3,227.8,207.9,228.3,207.5z M226.5,203.3c0.9-0.5,1.7-0.9,1.7-1.8c0-0.6-0.4-1-1-1c-0.7,0-1.2,0.5-1.2,1.3
		C226,202.3,226.2,202.8,226.5,203.3z"/>
	<path class="st4" d="M88.9,221.2c0-2.9,2.1-4.8,4.8-4.8c1.8,0,3,0.9,3.7,2l-1.2,0.6c-0.5-0.8-1.4-1.4-2.5-1.4
		c-1.9,0-3.3,1.5-3.3,3.6c0,2.1,1.5,3.6,3.3,3.6c1.1,0,2-0.6,2.5-1.4l1.2,0.6c-0.7,1.1-1.9,2-3.7,2C91,226.1,88.9,224.1,88.9,221.2z
		"/>
	<path class="st4" d="M103.3,225c-0.5,0.6-1.4,1.1-2.4,1.1c-1.4,0-2.2-0.7-2.2-2.2v-4.8h1.3v4.4c0,1.1,0.6,1.5,1.4,1.5
		c0.8,0,1.5-0.4,1.9-1v-4.9h1.3v6.8h-1.3V225z"/>
	<path class="st4" d="M106.6,216.6h1.3v9.3h-1.3V216.6z"/>
	<path class="st4" d="M110.1,224.4v-4.2H109v-1.1h1.1v-1.8h1.3v1.8h1.4v1.1h-1.4v3.9c0,0.5,0.2,0.8,0.7,0.8c0.3,0,0.6-0.1,0.7-0.3
		l0.3,1c-0.3,0.3-0.7,0.4-1.3,0.4C110.6,226.1,110.1,225.5,110.1,224.4z"/>
	<path class="st4" d="M118.7,225c-0.5,0.6-1.4,1.1-2.4,1.1c-1.4,0-2.2-0.7-2.2-2.2v-4.8h1.3v4.4c0,1.1,0.6,1.5,1.4,1.5
		c0.8,0,1.5-0.4,1.9-1v-4.9h1.3v6.8h-1.3V225z"/>
	<path class="st4" d="M121.9,219.1h1.3v1c0.5-0.7,1.3-1.2,2.2-1.2v1.3c-0.1,0-0.3,0-0.4,0c-0.6,0-1.5,0.5-1.8,1v4.7h-1.3V219.1z"/>
	<path class="st4" d="M129.6,219c2,0,3.3,1.6,3.3,3.7v0.3h-5.4c0.1,1.1,0.9,2.1,2.3,2.1c0.7,0,1.5-0.3,2-0.8l0.6,0.8
		c-0.7,0.7-1.6,1-2.7,1c-2,0-3.5-1.4-3.5-3.6C126.2,220.6,127.7,219,129.6,219z M127.6,222h4.1c0-0.9-0.6-2-2.1-2
		C128.3,220,127.6,221.1,127.6,222z"/>
	<path class="st4" d="M142.9,224.9c-0.5,0.7-1.3,1.1-2.2,1.1c-1.8,0-3-1.3-3-3.5c0-2.2,1.3-3.6,3-3.6c0.9,0,1.7,0.4,2.2,1.1v-3.6
		h1.3v9.3h-1.3V224.9z M142.9,221.1c-0.4-0.5-1.1-1-1.9-1c-1.3,0-2,1-2,2.4c0,1.4,0.8,2.4,2,2.4c0.8,0,1.5-0.4,1.9-1V221.1z"/>
	<path class="st4" d="M149.2,219c2,0,3.3,1.6,3.3,3.7v0.3h-5.4c0.1,1.1,0.9,2.1,2.3,2.1c0.7,0,1.5-0.3,2-0.8l0.6,0.8
		c-0.7,0.7-1.6,1-2.7,1c-2,0-3.5-1.4-3.5-3.6C145.8,220.6,147.2,219,149.2,219z M147.1,222h4.1c0-0.9-0.6-2-2.1-2
		C147.8,220,147.2,221.1,147.1,222z"/>
	<path class="st4" d="M154.1,228.5v-9.3h1.3v1c0.5-0.7,1.3-1.1,2.2-1.1c1.8,0,3,1.3,3,3.5s-1.2,3.6-3,3.6c-0.9,0-1.7-0.4-2.2-1.1
		v3.6H154.1z M157.2,220.1c-0.8,0-1.5,0.4-1.9,1v2.9c0.3,0.5,1.1,1,1.9,1c1.3,0,2-1,2-2.4C159.2,221.1,158.5,220.1,157.2,220.1z"/>
	<path class="st4" d="M166.3,225.2c-0.5,0.6-1.3,0.9-2.2,0.9c-1.1,0-2.4-0.8-2.4-2.2c0-1.5,1.2-2.2,2.4-2.2c0.9,0,1.7,0.3,2.2,0.9
		v-1.1c0-0.8-0.7-1.3-1.7-1.3c-0.8,0-1.4,0.3-2,0.9l-0.5-0.9c0.8-0.7,1.7-1.1,2.8-1.1c1.5,0,2.7,0.6,2.7,2.4v4.6h-1.3V225.2z
		 M166.3,223.3c-0.4-0.5-1-0.8-1.7-0.8c-0.9,0-1.6,0.5-1.6,1.3c0,0.8,0.6,1.3,1.6,1.3c0.7,0,1.4-0.3,1.7-0.8V223.3z"/>
	<path class="st4" d="M169.6,219.1h1.3v1c0.5-0.7,1.3-1.2,2.2-1.2v1.3c-0.1,0-0.3,0-0.4,0c-0.6,0-1.5,0.5-1.8,1v4.7h-1.3V219.1z"/>
	<path class="st4" d="M174.6,224.4v-4.2h-1.1v-1.1h1.1v-1.8h1.3v1.8h1.4v1.1h-1.4v3.9c0,0.5,0.2,0.8,0.7,0.8c0.3,0,0.6-0.1,0.7-0.3
		l0.3,1c-0.3,0.3-0.7,0.4-1.3,0.4C175.1,226.1,174.6,225.5,174.6,224.4z"/>
	<path class="st4" d="M186.8,221.4c0-0.8-0.4-1.3-1.2-1.3c-0.7,0-1.4,0.5-1.7,1v4.8h-1.3v-4.5c0-0.8-0.3-1.3-1.2-1.3
		c-0.7,0-1.3,0.5-1.7,1v4.8h-1.3v-6.8h1.3v1c0.3-0.4,1.2-1.1,2.2-1.1c1,0,1.6,0.5,1.8,1.3c0.4-0.6,1.3-1.3,2.3-1.3
		c1.2,0,1.9,0.7,1.9,2v4.9h-1.3V221.4z"/>
	<path class="st4" d="M193,219c2,0,3.3,1.6,3.3,3.7v0.3H191c0.1,1.1,0.9,2.1,2.3,2.1c0.7,0,1.5-0.3,2-0.8l0.6,0.8
		c-0.7,0.7-1.6,1-2.7,1c-2,0-3.5-1.4-3.5-3.6C189.7,220.6,191.1,219,193,219z M191,222h4.1c0-0.9-0.6-2-2.1-2
		C191.7,220,191,221.1,191,222z"/>
	<path class="st4" d="M202.5,221.6c0-1.1-0.6-1.5-1.4-1.5c-0.8,0-1.5,0.5-1.9,1v4.8h-1.3v-6.8h1.3v1c0.4-0.5,1.3-1.1,2.4-1.1
		c1.4,0,2.2,0.8,2.2,2.2v4.7h-1.3V221.6z"/>
	<path class="st4" d="M206,224.4v-4.2h-1.1v-1.1h1.1v-1.8h1.3v1.8h1.4v1.1h-1.4v3.9c0,0.5,0.2,0.8,0.7,0.8c0.3,0,0.6-0.1,0.7-0.3
		l0.3,1c-0.3,0.3-0.7,0.4-1.3,0.4C206.5,226.1,206,225.5,206,224.4z"/>
	<path class="st4" d="M210.7,224.3c0.5,0,0.9,0.4,0.9,0.9c0,0.5-0.4,0.9-0.9,0.9c-0.5,0-0.9-0.4-0.9-0.9
		C209.8,224.7,210.2,224.3,210.7,224.3z"/>
</g>
<g>
	<path class="st4" d="M446.8,138.9h2.8v10.7h-2.8V138.9z"/>
	<path class="st4" d="M456.7,145.2c0-0.9-0.5-1.3-1.3-1.3c-0.7,0-1.2,0.4-1.5,0.8v5h-2.5v-7.7h2.5v0.9c0.5-0.5,1.4-1.1,2.7-1.1
		c1.8,0,2.6,1,2.6,2.4v5.5h-2.5V145.2z"/>
	<path class="st4" d="M466.1,148.7c-0.6,0.7-1.4,1.1-2.3,1.1c-1.9,0-3.4-1.4-3.4-4.1c0-2.5,1.5-4,3.4-4c0.8,0,1.7,0.3,2.3,1.1v-3.9
		h2.4v10.7h-2.4V148.7z M466.1,144.6c-0.3-0.4-1-0.7-1.5-0.7c-1,0-1.7,0.7-1.7,1.9s0.7,1.9,1.7,1.9c0.5,0,1.2-0.3,1.5-0.7V144.6z"/>
	<path class="st4" d="M470.2,139.5c0-0.8,0.6-1.4,1.4-1.4s1.4,0.6,1.4,1.4c0,0.8-0.6,1.4-1.4,1.4S470.2,140.3,470.2,139.5z
		 M470.4,141.9h2.5v7.7h-2.5V141.9z"/>
	<path class="st4" d="M473.6,141.9h2.6l1.7,4.9l1.8-4.9h2.6l-3,7.7h-2.6L473.6,141.9z"/>
	<path class="st4" d="M482.9,139.5c0-0.8,0.6-1.4,1.4-1.4s1.4,0.6,1.4,1.4c0,0.8-0.6,1.4-1.4,1.4S482.9,140.3,482.9,139.5z
		 M483,141.9h2.5v7.7H483V141.9z"/>
	<path class="st4" d="M492.5,148.7c-0.6,0.7-1.4,1.1-2.3,1.1c-1.9,0-3.4-1.4-3.4-4.1c0-2.5,1.5-4,3.4-4c0.8,0,1.7,0.3,2.3,1.1v-3.9
		h2.4v10.7h-2.4V148.7z M492.5,144.6c-0.3-0.4-1-0.7-1.5-0.7c-1,0-1.7,0.7-1.7,1.9s0.7,1.9,1.7,1.9c0.5,0,1.2-0.3,1.5-0.7V144.6z"/>
	<path class="st4" d="M502,148.7c-0.5,0.5-1.4,1.1-2.7,1.1c-1.8,0-2.5-1-2.5-2.4v-5.5h2.5v4.5c0,0.9,0.5,1.2,1.3,1.2
		c0.7,0,1.2-0.4,1.5-0.8v-5h2.5v7.7H502V148.7z"/>
	<path class="st4" d="M510.8,148.9c-0.5,0.6-1.4,1-2.4,1c-1.2,0-2.7-0.8-2.7-2.5c0-1.9,1.5-2.4,2.7-2.4c1,0,1.9,0.3,2.4,0.9v-1
		c0-0.7-0.6-1.1-1.6-1.1c-0.8,0-1.6,0.3-2.2,0.8l-0.9-1.6c1-0.8,2.3-1.2,3.5-1.2c1.9,0,3.6,0.7,3.6,3.1v4.8h-2.5V148.9z M510.8,147
		c-0.3-0.4-0.8-0.5-1.4-0.5c-0.7,0-1.2,0.3-1.2,0.9c0,0.6,0.6,0.9,1.2,0.9c0.5,0,1.1-0.2,1.4-0.6V147z"/>
	<path class="st4" d="M515,138.9h2.5v10.7H515V138.9z"/>
	<path class="st4" d="M523.9,144h-1.3v-2.1h1.3v-0.4c0-1.6,1.2-2.7,2.8-2.7c0.7,0,1.2,0.1,1.6,0.4l-0.4,1.7
		c-0.2-0.1-0.4-0.2-0.6-0.2c-0.5,0-0.8,0.3-0.8,0.9v0.3h1.6v2.1h-1.6v5.6h-2.5V144z"/>
	<path class="st4" d="M532.6,141.7c2.3,0,4,1.7,4,4.3v0.5H531c0.1,0.7,0.8,1.4,2,1.4c0.7,0,1.5-0.3,1.9-0.7l1,1.5
		c-0.8,0.7-2,1-3.2,1c-2.4,0-4.2-1.6-4.2-4.1C528.4,143.5,530.1,141.7,532.6,141.7z M531,144.9h3.2c-0.1-0.5-0.5-1.3-1.6-1.3
		C531.5,143.6,531.1,144.4,531,144.9z"/>
	<path class="st4" d="M541.3,141.7c2.3,0,4,1.7,4,4.3v0.5h-5.5c0.1,0.7,0.8,1.4,2,1.4c0.7,0,1.5-0.3,1.9-0.7l1,1.5
		c-0.8,0.7-2,1-3.2,1c-2.4,0-4.2-1.6-4.2-4.1C537.2,143.5,538.9,141.7,541.3,141.7z M539.7,144.9h3.2c-0.1-0.5-0.5-1.3-1.6-1.3
		C540.3,143.6,539.8,144.4,539.7,144.9z"/>
	<path class="st4" d="M551.7,148.7c-0.6,0.7-1.4,1.1-2.3,1.1c-1.9,0-3.4-1.4-3.4-4.1c0-2.5,1.5-4,3.4-4c0.8,0,1.7,0.3,2.3,1.1v-3.9
		h2.4v10.7h-2.4V148.7z M551.7,144.6c-0.3-0.4-1-0.7-1.5-0.7c-1,0-1.7,0.7-1.7,1.9s0.7,1.9,1.7,1.9c0.5,0,1.2-0.3,1.5-0.7V144.6z"/>
	<path class="st4" d="M556,138.9h2.5v3.9c0.6-0.8,1.4-1.1,2.3-1.1c1.9,0,3.4,1.5,3.4,4c0,2.6-1.5,4.1-3.4,4.1
		c-0.9,0-1.6-0.4-2.3-1.1v0.9H556V138.9z M559.9,147.6c1,0,1.7-0.7,1.7-1.9c0-1.2-0.7-1.9-1.7-1.9c-0.5,0-1.2,0.3-1.5,0.7v2.4
		C558.7,147.4,559.4,147.6,559.9,147.6z"/>
	<path class="st4" d="M570,148.9c-0.5,0.6-1.4,1-2.4,1c-1.2,0-2.7-0.8-2.7-2.5c0-1.9,1.5-2.4,2.7-2.4c1,0,1.9,0.3,2.4,0.9v-1
		c0-0.7-0.6-1.1-1.6-1.1c-0.8,0-1.6,0.3-2.2,0.8l-0.9-1.6c1-0.8,2.3-1.2,3.5-1.2c1.9,0,3.6,0.7,3.6,3.1v4.8H570V148.9z M570,147
		c-0.3-0.4-0.8-0.5-1.4-0.5c-0.7,0-1.2,0.3-1.2,0.9c0,0.6,0.6,0.9,1.2,0.9c0.5,0,1.1-0.2,1.4-0.6V147z"/>
	<path class="st4" d="M577.9,141.7c1.7,0,2.7,0.7,3.2,1.4l-1.6,1.5c-0.3-0.4-0.8-0.7-1.5-0.7c-1,0-1.8,0.7-1.8,1.9
		c0,1.2,0.8,1.9,1.8,1.9c0.7,0,1.2-0.3,1.5-0.8l1.6,1.5c-0.5,0.7-1.5,1.4-3.2,1.4c-2.4,0-4.2-1.6-4.2-4.1
		C573.7,143.3,575.5,141.7,577.9,141.7z"/>
	<path class="st4" d="M585.4,146.9l-0.7,0.9v1.9h-2.5v-10.7h2.5v6l2.4-3.1h3l-2.8,3.5l3,4.2h-3L585.4,146.9z"/>
</g>
<g>
	<path class="st4" d="M838.7,146.8c0.4,0.3,0.9,0.6,1.5,0.6c0.9,0,1.4-0.6,1.4-1.5v-7h2.8v7c0,2.6-1.6,3.9-3.9,3.9
		c-1.1,0-2.1-0.3-2.9-1L838.7,146.8z"/>
	<path class="st4" d="M845.7,145.8c0-2.2,1.6-4,4.2-4c2.7,0,4.2,1.9,4.2,4s-1.6,4.1-4.2,4.1C847.3,149.8,845.7,147.9,845.7,145.8z
		 M851.6,145.8c0-1-0.6-1.9-1.7-1.9c-1.1,0-1.7,0.8-1.7,1.9c0,1,0.6,1.9,1.7,1.9C851,147.6,851.6,146.8,851.6,145.8z"/>
	<path class="st4" d="M855.5,138.9h2.5v3.9c0.6-0.8,1.4-1.1,2.3-1.1c1.9,0,3.4,1.5,3.4,4c0,2.6-1.5,4.1-3.4,4.1
		c-0.9,0-1.6-0.4-2.3-1.1v0.9h-2.5V138.9z M859.4,147.6c1,0,1.7-0.7,1.7-1.9c0-1.2-0.7-1.9-1.7-1.9c-0.5,0-1.2,0.3-1.5,0.7v2.4
		C858.2,147.4,858.9,147.6,859.4,147.6z"/>
	<path class="st4" d="M868.8,139.5c0-0.8,0.6-1.4,1.4-1.4s1.4,0.6,1.4,1.4c0,0.8-0.6,1.4-1.4,1.4S868.8,140.3,868.8,139.5z
		 M869,141.9h2.5v7.7H869V141.9z"/>
	<path class="st4" d="M878.5,145.2c0-0.9-0.5-1.3-1.3-1.3c-0.7,0-1.2,0.4-1.5,0.8v5h-2.5v-7.7h2.5v0.9c0.5-0.5,1.4-1.1,2.7-1.1
		c1.8,0,2.6,1,2.6,2.4v5.5h-2.5V145.2z"/>
	<path class="st4" d="M883.3,147.5V144H882v-2.1h1.3v-2.1h2.4v2.1h1.6v2.1h-1.6v2.8c0,0.4,0.3,0.8,0.7,0.8c0.3,0,0.5-0.1,0.6-0.2
		l0.5,1.9c-0.3,0.3-0.9,0.5-1.8,0.5C884.1,149.8,883.3,149,883.3,147.5z"/>
	<path class="st4" d="M892.1,141.7c2.3,0,4,1.7,4,4.3v0.5h-5.5c0.1,0.7,0.8,1.4,2,1.4c0.7,0,1.5-0.3,1.9-0.7l1,1.5
		c-0.8,0.7-2,1-3.2,1c-2.4,0-4.2-1.6-4.2-4.1C888,143.5,889.7,141.7,892.1,141.7z M890.5,144.9h3.2c-0.1-0.5-0.5-1.3-1.6-1.3
		C891,143.6,890.6,144.4,890.5,144.9z"/>
	<path class="st4" d="M897.3,141.9h2.5v1c0.5-0.6,1.5-1.2,2.4-1.2v2.4c-0.1,0-0.4-0.1-0.6-0.1c-0.6,0-1.5,0.3-1.8,0.7v4.9h-2.5
		V141.9z"/>
	<path class="st4" d="M902.2,141.9h2.6l1.7,4.9l1.8-4.9h2.6l-3,7.7h-2.6L902.2,141.9z"/>
	<path class="st4" d="M911.5,139.5c0-0.8,0.6-1.4,1.4-1.4s1.4,0.6,1.4,1.4c0,0.8-0.6,1.4-1.4,1.4S911.5,140.3,911.5,139.5z
		 M911.7,141.9h2.5v7.7h-2.5V141.9z"/>
	<path class="st4" d="M919.5,141.7c2.3,0,4,1.7,4,4.3v0.5H918c0.1,0.7,0.8,1.4,2,1.4c0.7,0,1.5-0.3,1.9-0.7l1,1.5
		c-0.8,0.7-2,1-3.2,1c-2.4,0-4.2-1.6-4.2-4.1C915.4,143.5,917.1,141.7,919.5,141.7z M917.9,144.9h3.2c-0.1-0.5-0.5-1.3-1.6-1.3
		C918.4,143.6,918,144.4,917.9,144.9z"/>
	<path class="st4" d="M930.1,144.8l-1.4,4.8H926l-2.3-7.7h2.5l1.2,4.7l1.5-4.7h2.2l1.5,4.7l1.2-4.7h2.5l-2.3,7.7h-2.7L930.1,144.8z"
		/>
</g>
<g>
	<path class="st4" d="M76.3,146h-1.4v3.6h-2.8v-10.7h5.3c2.4,0,3.7,1.6,3.7,3.6c0,1.9-1.1,2.8-2.1,3.2l2.2,3.9h-3.2L76.3,146z
		 M77.1,141.3h-2.2v2.4h2.2c0.7,0,1.3-0.5,1.3-1.2S77.8,141.3,77.1,141.3z"/>
	<path class="st4" d="M85.8,141.7c2.3,0,4,1.7,4,4.3v0.5h-5.5c0.1,0.7,0.8,1.4,2,1.4c0.7,0,1.5-0.3,1.9-0.7l1,1.5
		c-0.8,0.7-2,1-3.2,1c-2.4,0-4.2-1.6-4.2-4.1C81.6,143.5,83.3,141.7,85.8,141.7z M84.2,144.9h3.2c-0.1-0.5-0.5-1.3-1.6-1.3
		C84.7,143.6,84.3,144.4,84.2,144.9z"/>
	<path class="st4" d="M89.9,141.9h2.6l1.7,4.9l1.8-4.9h2.6l-3,7.7h-2.6L89.9,141.9z"/>
	<path class="st4" d="M99.1,139.5c0-0.8,0.6-1.4,1.4-1.4s1.4,0.6,1.4,1.4c0,0.8-0.6,1.4-1.4,1.4S99.1,140.3,99.1,139.5z M99.3,141.9
		h2.5v7.7h-2.5V141.9z"/>
	<path class="st4" d="M107.2,141.7c2.3,0,4,1.7,4,4.3v0.5h-5.5c0.1,0.7,0.8,1.4,2,1.4c0.7,0,1.5-0.3,1.9-0.7l1,1.5
		c-0.8,0.7-2,1-3.2,1c-2.4,0-4.2-1.6-4.2-4.1C103.1,143.5,104.8,141.7,107.2,141.7z M105.6,144.9h3.2c-0.1-0.5-0.5-1.3-1.6-1.3
		C106.1,143.6,105.7,144.4,105.6,144.9z"/>
	<path class="st4" d="M117.7,144.8l-1.4,4.8h-2.7l-2.3-7.7h2.5l1.2,4.7l1.5-4.7h2.2l1.5,4.7l1.2-4.7h2.5l-2.3,7.7h-2.7L117.7,144.8z
		"/>
	<path class="st4" d="M128.5,145.8c0-2.2,1.6-4,4.2-4c2.7,0,4.2,1.9,4.2,4c0,2.2-1.6,4.1-4.2,4.1
		C130.1,149.8,128.5,147.9,128.5,145.8z M134.4,145.8c0-1-0.6-1.9-1.7-1.9c-1.1,0-1.7,0.8-1.7,1.9c0,1,0.6,1.9,1.7,1.9
		C133.8,147.6,134.4,146.8,134.4,145.8z"/>
	<path class="st4" d="M138.8,144h-1.3v-2.1h1.3v-0.4c0-1.6,1.2-2.7,2.8-2.7c0.7,0,1.2,0.1,1.6,0.4l-0.4,1.7
		c-0.2-0.1-0.4-0.2-0.6-0.2c-0.5,0-0.8,0.3-0.8,0.9v0.3h1.6v2.1h-1.6v5.6h-2.5V144z"/>
	<path class="st4" d="M152.5,148.9c-0.5,0.6-1.4,1-2.4,1c-1.2,0-2.7-0.8-2.7-2.5c0-1.9,1.5-2.4,2.7-2.4c1,0,1.9,0.3,2.4,0.9v-1
		c0-0.7-0.6-1.1-1.6-1.1c-0.8,0-1.6,0.3-2.2,0.8l-0.9-1.6c1-0.8,2.3-1.2,3.5-1.2c1.9,0,3.6,0.7,3.6,3.1v4.8h-2.5V148.9z M152.5,147
		c-0.3-0.4-0.8-0.5-1.4-0.5c-0.7,0-1.2,0.3-1.2,0.9c0,0.6,0.6,0.9,1.2,0.9c0.5,0,1.1-0.2,1.4-0.6V147z"/>
	<path class="st4" d="M156.7,152.6v-10.7h2.5v0.9c0.6-0.7,1.4-1.1,2.3-1.1c1.9,0,3.4,1.4,3.4,4c0,2.6-1.5,4.1-3.4,4.1
		c-0.9,0-1.6-0.3-2.3-1.1v3.9H156.7z M160.7,143.9c-0.5,0-1.2,0.3-1.5,0.7v2.4c0.3,0.4,0.9,0.7,1.5,0.7c1,0,1.7-0.7,1.7-1.9
		C162.4,144.6,161.6,143.9,160.7,143.9z"/>
	<path class="st4" d="M166.2,152.6v-10.7h2.5v0.9c0.6-0.7,1.4-1.1,2.3-1.1c1.9,0,3.4,1.4,3.4,4c0,2.6-1.5,4.1-3.4,4.1
		c-0.9,0-1.6-0.3-2.3-1.1v3.9H166.2z M170.1,143.9c-0.5,0-1.2,0.3-1.5,0.7v2.4c0.3,0.4,0.9,0.7,1.5,0.7c1,0,1.7-0.7,1.7-1.9
		C171.8,144.6,171.1,143.9,170.1,143.9z"/>
	<path class="st4" d="M175.6,138.9h2.5v10.7h-2.5V138.9z"/>
	<path class="st4" d="M179.7,139.5c0-0.8,0.6-1.4,1.4-1.4s1.4,0.6,1.4,1.4c0,0.8-0.6,1.4-1.4,1.4S179.7,140.3,179.7,139.5z
		 M179.9,141.9h2.5v7.7h-2.5V141.9z"/>
	<path class="st4" d="M187.8,141.7c1.7,0,2.7,0.7,3.2,1.4l-1.6,1.5c-0.3-0.4-0.8-0.7-1.5-0.7c-1,0-1.8,0.7-1.8,1.9
		c0,1.2,0.8,1.9,1.8,1.9c0.7,0,1.2-0.3,1.5-0.8l1.6,1.5c-0.5,0.7-1.5,1.4-3.2,1.4c-2.4,0-4.2-1.6-4.2-4.1
		C183.6,143.3,185.4,141.7,187.8,141.7z"/>
	<path class="st4" d="M196.7,148.9c-0.5,0.6-1.4,1-2.4,1c-1.2,0-2.7-0.8-2.7-2.5c0-1.9,1.5-2.4,2.7-2.4c1,0,1.9,0.3,2.4,0.9v-1
		c0-0.7-0.6-1.1-1.6-1.1c-0.8,0-1.6,0.3-2.2,0.8l-0.9-1.6c1-0.8,2.3-1.2,3.5-1.2c1.9,0,3.6,0.7,3.6,3.1v4.8h-2.5V148.9z M196.7,147
		c-0.3-0.4-0.8-0.5-1.4-0.5c-0.7,0-1.2,0.3-1.2,0.9c0,0.6,0.6,0.9,1.2,0.9c0.5,0,1.1-0.2,1.4-0.6V147z"/>
	<path class="st4" d="M201.5,147.5V144h-1.3v-2.1h1.3v-2.1h2.4v2.1h1.6v2.1h-1.6v2.8c0,0.4,0.3,0.8,0.7,0.8c0.3,0,0.5-0.1,0.6-0.2
		l0.5,1.9c-0.3,0.3-0.9,0.5-1.8,0.5C202.3,149.8,201.5,149,201.5,147.5z"/>
	<path class="st4" d="M206.5,139.5c0-0.8,0.6-1.4,1.4-1.4s1.4,0.6,1.4,1.4c0,0.8-0.6,1.4-1.4,1.4S206.5,140.3,206.5,139.5z
		 M206.7,141.9h2.5v7.7h-2.5V141.9z"/>
	<path class="st4" d="M210.4,145.8c0-2.2,1.6-4,4.2-4c2.7,0,4.2,1.9,4.2,4c0,2.2-1.6,4.1-4.2,4.1C212,149.8,210.4,147.9,210.4,145.8
		z M216.4,145.8c0-1-0.6-1.9-1.7-1.9c-1.1,0-1.7,0.8-1.7,1.9c0,1,0.6,1.9,1.7,1.9C215.7,147.6,216.4,146.8,216.4,145.8z"/>
	<path class="st4" d="M225.4,145.2c0-0.9-0.5-1.3-1.3-1.3c-0.7,0-1.2,0.4-1.5,0.8v5h-2.5v-7.7h2.5v0.9c0.5-0.5,1.4-1.1,2.7-1.1
		c1.8,0,2.6,1,2.6,2.4v5.5h-2.5V145.2z"/>
</g>
</svg>
