<svg width="187" height="140" viewBox="0 0 187 140" xmlns="http://www.w3.org/2000/svg"><title>BWS_logo-on</title><g id="Page-1" fill="none" fill-rule="evenodd"><g id="BWS_logo-on" fill="#1E579F"><path d="M128.035 53.24c.63.29 1.308.532 2.13.58 3.44.242 6.928-2.374 6.928-6.055 0 3.68 3.052 6.055 6.88 6.055 3.972 0 6.442-2.422 6.442-6.055 0 3.294 2.374 5.28 5.523 5.813v-13.66h-13.516v-8.14h11.094V19.184h-11.094v-6.685h12.353V.048h-26.79l.05 53.19zM118.88 69.128v40.305h26.788V96.837h-12.353V88.7h11.093V76.103h-11.093V69.42h12.353V58.373c-.533.145-1.21.29-1.84.29-2.617 0-4.99-.968-6.83-2.567-1.842 1.502-3.49 2.567-6.057 2.567-2.518 0-5.52-1.065-7.314-2.567-1.84 1.6-3.73 2.567-6.394 2.567-2.616 0-4.99-.968-6.83-2.567-1.84 1.502-4.167 2.76-6.686 2.76-2.52 0-4.844-1.258-6.685-2.76-1.84 1.6-3.73 2.567-6.393 2.567-2.616 0-4.99-.968-6.88-2.567-1.84 1.502-4.165 2.76-6.684 2.76-2.52 0-4.845-1.258-6.685-2.76-1.308 1.163-2.665 1.55-4.312 2.13L53.53 109.434H68.4l1.212-6.88h9.69l1.065 6.88h14.92l-8.574-40.305h9.882v40.305h14.436V69.128h7.85zM71.113 91.266l3.246-15.453 2.76 15.453h-6.006zM36.962 58.76c-2.568-.096-4.844-1.016-6.685-2.566a10.732 10.732 0 0 1-6.346 2.373L20.25 82.74c-.485-3.972-5.766-26.692-5.766-26.692H.29l11.87 53.336h14l4.31-28.242c.485 3.682 5.378 28.242 5.378 28.242h14.678l12.4-50.526c-2.18-.387-4.165-1.114-5.763-2.47-1.84 1.5-4.166 2.422-6.685 2.422-1.405 0-2.52-.533-3.585-1.26L41.08 82.79c-.582-3.877-4.118-24.03-4.118-24.03zM162.72 56.097c-1.454 1.453-4.7 2.567-6.395 2.52-2.76-.05-4.166-1.164-6.007-2.665a3.712 3.712 0 0 1-2.034 1.695l-.05 51.737h14.34V87.197l7.993 22.187h15.648L175.51 87.197c5.715-2.277 8.282-7.508 8.282-13.37 0-14.048-8.574-17.73-21.072-17.73zm-.097 24.948V68.498c3.924-.194 6.685 1.696 6.685 6.153 0 3.295-2.035 6.492-5.765 6.492l-.92-.097zM40.353 19.862v-8.77h.29c2.907 0 5.087 1.26 5.087 4.313 0 3.294-2.713 4.457-5.668 4.457h.29zm0 22.332v-9.786c3.294 0 6.007 1.405 6.007 4.845 0 3.44-2.81 4.94-5.91 4.94h-.097zm23.834-3.004c-.34-7.12-6.2-11.917-13.274-12.45v-.145c6.104 0 9.98-4.65 9.98-10.657 0-11.53-9.883-15.84-18.41-15.84H25.53l-.05 54.158c2.278-1.066 4.506-3.536 4.506-6.2 0 3.68 2.955 5.91 6.637 5.91 3.68 0 6.637-2.23 6.637-5.91 0 3.68 2.955 5.91 6.636 5.91 3.682 0 6.637-2.23 6.637-5.91 0 3.68 3.003 5.91 6.637 5.91 3.68 0 6.636-2.23 6.636-5.91 0 3.68 3.004 5.91 6.637 5.91 3.682 0 6.637-2.23 6.637-5.91 0 3.68 3.003 5.91 6.636 5.91 3.682 0 6.637-2.23 6.637-5.91 0 3.68 3.003 5.91 6.637 5.91 3.633 0 6.636-2.23 6.636-5.91 0 3.68 3.004 5.91 6.637 5.91 3.682 0 6.637-2.23 6.637-5.91 0 1.646.63 2.81 1.598 3.972l.05-51.93H110.11v33.57c0 1.356.05 3.197-.338 4.65-.34 1.405-1.26 2.568-3.343 2.568-1.987 0-2.908-1.114-3.343-2.616-.436-1.405-.34-3.246-.34-4.65V.096H88.31v34.88c0 1.646 0 3.68.39 5.86H78.234V.097H63.8c.338-.05.484 40.353.387 39.093z" id="Shape"/><g id="Group"><path d="M.388 25.142c1.695.678 3.584 1.017 5.377 1.017 4.99 0 8.477-3.73 8.477-8.43 0-1.89-.436-3.246-1.308-4.408-.823-1.163-2.034-2.083-3.536-3.1-.388-.29-.92-.63-1.308-1.018-.388-.387-.727-.872-.727-1.405 0-.97 1.018-1.55 1.89-1.55 1.647 0 3.39 1.452 4.214 2.712V1.308C11.965.533 10.077.048 8.332.048 2.18.048.242 5.426.242 8.38c0 1.84.582 3.246 1.454 4.41.92 1.21 2.13 2.18 3.584 3.196.436.29.872.58 1.21.97.34.387.583.823.583 1.404 0 1.114-1.115 1.695-2.132 1.695-1.84 0-3.584-1.404-4.552-2.81v7.897zM33.038 25.723V.483h-7.17v9.06h-3.44V.483H15.26v25.24h7.17v-10.22h3.44v10.22zM42.242 25.723V.483h-7.17v25.24zM51.446 25.723V17.44c6.25.145 10.464-1.84 10.464-8.43 0-6.636-4.844-8.574-11.093-8.574h-6.54v25.24h7.17v.047zm3.246-16.76c0 1.888-1.21 2.906-3.197 2.81V5.957l.533-.048c1.744 0 2.664 1.453 2.664 3.052zM70.194 25.723V17.44c6.25.145 10.463-1.84 10.463-8.43 0-6.636-4.844-8.574-11.093-8.574h-6.588v25.24h7.218v.047zm3.197-16.76c0 1.888-1.26 2.906-3.196 2.81V5.957l.533-.048c1.744 0 2.664 1.453 2.664 3.052zM88.94 25.723V.483h-7.217v25.24zM90.83 25.723h6.928V18.31c0-2.372-.34-4.746-.485-7.12l.097-.048 5.377 14.58h6.928V.485H102.7v6.443c0 2.907.532 5.813.822 8.72l-.048.05L97.66.483h-6.83v25.24zM120.67 11.142v5.33h2.666c.048 1.452-.582 3.632-2.47 3.632-2.81 0-2.665-4.408-2.762-6.25 0-1.89-.29-7.702 3.052-7.702 1.26 0 1.986 1.6 2.034 2.568l6.928-2.422c-1.55-3.634-4.748-6.25-9.06-6.25-7.798 0-10.318 6.928-10.318 13.177 0 6.394 2.52 12.934 10.367 12.934 8.332 0 9.592-7.752 9.592-13.952l-.05-1.066h-9.98z" id="Shape" transform="translate(25.19 113.84)"/></g></g></g></svg>