<svg width="1240" height="120" viewBox="0 0 1240 120" fill="none" xmlns="http://www.w3.org/2000/svg">
<rect x="160" width="340" height="120" fill="#F2F1E8"/>
<rect x="530" width="340" height="120" fill="#F2F1E8"/>
<rect x="900" width="340" height="120" fill="#F2F1E8"/>
<rect width="130" height="120" fill="#004376"/>
<path d="M46.4192 35.2748C46.2551 35.1107 46.1731 34.7826 46.2551 34.5365C46.3372 34.2904 46.5012 34.0443 46.7473 33.9623L50.767 32.4856C50.9311 32.4036 51.0952 32.4036 51.2592 32.4856C51.3413 32.4856 51.4233 32.5677 51.5053 32.5677L67.5021 41.5915C64.3027 42.2477 61.5956 42.822 60.119 43.1501C58.2322 43.5603 56.4274 43.9705 54.7047 44.2986L46.4192 35.2748ZM98.6751 45.7752C98.347 44.3806 97.2806 43.0681 95.886 42.0837C94.9016 43.4783 92.3585 44.1345 90.8819 44.4627C90.8819 44.4627 89.6514 44.6267 89.1592 43.7244C88.667 42.822 89.1592 42.5759 89.1592 42.5759C92.1124 41.9196 93.3429 41.2633 93.4249 40.7711C90.6358 39.6226 87.3544 39.2125 84.7293 39.7047C78.6587 40.9352 64.5488 43.9705 60.6112 44.7908C53.5562 46.2674 48.306 47.662 44.3684 48.9746C44.2863 48.8925 44.2863 48.8925 44.2043 48.8105L35.5086 43.7244C35.4266 43.6423 35.3446 43.6423 35.2625 43.6423C35.0985 43.6423 34.9344 43.6423 34.8524 43.6423L31.9812 44.2986C31.735 44.3806 31.571 44.5447 31.4889 44.7908C31.4069 45.0369 31.4069 45.283 31.571 45.5291L36.0829 52.5021C33.2937 54.1427 32.8835 55.3733 32.8015 55.8655C32.6374 57.6702 44.1222 59.9672 59.9549 56.6858L53.8023 72.7646C53.7203 73.0107 53.7203 73.3388 53.8843 73.5849C53.9664 73.749 54.1304 73.831 54.3766 73.913C54.4586 73.913 54.5406 73.913 54.6227 73.913L59.3807 73.2568C59.6268 73.2568 59.7908 73.0927 59.9549 72.9286L74.8852 53.5685C76.6899 53.1583 77.8384 52.9943 80.3815 52.42C91.21 49.959 99.3314 48.8105 98.6751 45.7752Z" fill="white"/>
<path d="M25.6719 101H28.6639L24.6319 90.328H21.1759L17.1599 101H20.1519L20.6959 99.384H25.1279L25.6719 101ZM22.9039 92.728L24.4079 97.064H21.4159L22.9039 92.728ZM29.4522 101H32.2042V90.328H29.4522V101ZM40.0761 101H43.2281L41.0521 97.08C42.0441 96.728 43.1801 95.736 43.1801 93.88C43.1801 91.896 41.8361 90.328 39.4681 90.328H34.1241V101H36.8761V97.384H38.2841L40.0761 101ZM40.3801 93.848C40.3801 94.584 39.7721 95.048 39.0521 95.048H36.8761V92.648H39.0521C39.7721 92.648 40.3801 93.112 40.3801 93.848ZM48.7959 101H51.5479V96.76H56.5079V94.424H51.5479V92.648H56.6199V90.328H48.7959V101ZM64.0604 101H67.2124L65.0364 97.08C66.0284 96.728 67.1644 95.736 67.1644 93.88C67.1644 91.896 65.8204 90.328 63.4524 90.328H58.1084V101H60.8604V97.384H62.2684L64.0604 101ZM64.3644 93.848C64.3644 94.584 63.7564 95.048 63.0364 95.048H60.8604V92.648H63.0364C63.7564 92.648 64.3644 93.112 64.3644 93.848ZM68.6866 101H76.5106V98.68H71.4386V96.76H76.3986V94.424H71.4386V92.648H76.5106V90.328H68.6866V101ZM78.1084 101H80.8604V90.328H78.1084V101ZM82.2363 95.672C82.2363 99.064 84.8283 101.192 88.0123 101.192C90.0283 101.192 91.5803 100.376 92.7323 99.112V94.936H87.5803V97.224H90.0283V98.12C89.5963 98.472 88.8443 98.76 88.0123 98.76C86.2683 98.76 85.0363 97.416 85.0363 95.672C85.0363 93.928 86.2683 92.584 88.0123 92.584C89.0203 92.584 89.8363 93.144 90.2683 93.848L92.5723 92.632C91.7883 91.304 90.3483 90.152 88.0123 90.152C84.8283 90.152 82.2363 92.28 82.2363 95.672ZM101.527 101H104.279V90.328H101.527V94.312H97.0948V90.328H94.3428V101H97.0948V96.712H101.527V101ZM108.586 101H111.338V92.728H114.314V90.328H105.594V92.728H108.586V101Z" fill="white"/>
<path d="M276.512 36.006C276.512 39.822 279.428 42.216 283.01 42.216C285.278 42.216 287.024 41.298 288.32 39.876V35.178H282.524V37.752H285.278V38.76C284.792 39.156 283.946 39.48 283.01 39.48C281.048 39.48 279.662 37.968 279.662 36.006C279.662 34.044 281.048 32.532 283.01 32.532C284.144 32.532 285.062 33.162 285.548 33.954L288.14 32.586C287.258 31.092 285.638 29.796 283.01 29.796C279.428 29.796 276.512 32.19 276.512 36.006ZM296.828 42H300.374L297.926 37.59C299.042 37.194 300.32 36.078 300.32 33.99C300.32 31.758 298.808 29.994 296.144 29.994H290.132V42H293.228V37.932H294.812L296.828 42ZM297.17 33.954C297.17 34.782 296.486 35.304 295.676 35.304H293.228V32.604H295.676C296.486 32.604 297.17 33.126 297.17 33.954ZM302.032 42H310.834V39.39H305.128V37.23H310.708V34.602H305.128V32.604H310.834V29.994H302.032V42ZM312.632 42H321.434V39.39H315.728V37.23H321.308V34.602H315.728V32.604H321.434V29.994H312.632V42ZM331.403 42H334.391V29.994H331.277V36.906L326.417 29.994H323.231V42H326.327V34.746L331.403 42ZM336.556 42H344.476V39.3H339.652V29.994H336.556V42ZM354.381 42H357.747L353.211 29.994H349.323L344.805 42H348.171L348.783 40.182H353.769L354.381 42ZM351.267 32.694L352.959 37.572H349.593L351.267 32.694ZM366.806 42H369.794V29.994H366.68V36.906L361.82 29.994H358.634V42H361.73V34.746L366.806 42ZM371.958 42H377.016C380.778 42 383.496 39.714 383.496 35.988C383.496 32.262 380.778 29.994 376.998 29.994H371.958V42ZM375.054 39.3V32.694H377.016C379.212 32.694 380.328 34.134 380.328 35.988C380.328 37.77 379.104 39.3 376.998 39.3H375.054Z" fill="#333333"/>
<path d="M232.696 93H238.878C243.476 93 246.798 90.206 246.798 85.652C246.798 81.098 243.476 78.326 238.856 78.326H232.696V93ZM236.48 89.7V81.626H238.878C241.562 81.626 242.926 83.386 242.926 85.652C242.926 87.83 241.43 89.7 238.856 89.7H236.48ZM258.113 93H262.227L256.683 78.326H251.931L246.409 93H250.523L251.271 90.778H257.365L258.113 93ZM254.307 81.626L256.375 87.588H252.261L254.307 81.626ZM263.311 93H267.095V78.326H263.311V93ZM269.735 93H279.415V89.7H273.519V78.326H269.735V93ZM282.569 93H286.353V87.082L291.897 78.326H287.607L284.461 83.738L281.271 78.326H277.003L282.569 87.082V93ZM299.116 93H303.802C308.356 93 311.216 89.744 311.216 85.674C311.216 81.648 308.356 78.326 303.802 78.326H299.116V93ZM300.37 91.856V79.47H303.802C307.696 79.47 309.896 82.242 309.896 85.674C309.896 89.106 307.674 91.856 303.802 91.856H300.37ZM314.348 93H323.654V91.856H315.602V86.048H323.5V84.904H315.602V79.47H323.654V78.326H314.348V93ZM326.766 93H328.02V86.906H332.266C335.06 86.906 336.688 84.926 336.688 82.616C336.688 80.306 335.082 78.326 332.266 78.326H326.766V93ZM335.368 82.616C335.368 84.464 334.07 85.762 332.134 85.762H328.02V79.47H332.134C334.07 79.47 335.368 80.768 335.368 82.616ZM348.265 93H349.673L343.667 78.326H342.105L336.099 93H337.507L338.981 89.392H346.791L348.265 93ZM342.875 79.558L346.395 88.248H339.377L342.875 79.558ZM360.441 93H361.959L357.713 86.84C359.891 86.752 361.783 85.278 361.783 82.616C361.783 79.932 359.847 78.326 357.317 78.326H351.839V93H353.093V86.928H356.327L360.441 93ZM360.463 82.616C360.463 84.464 359.143 85.784 357.207 85.784H353.093V79.47H357.207C359.143 79.47 360.463 80.768 360.463 82.616ZM368.426 93H369.702V79.47H374.498V78.326H363.63V79.47H368.426V93ZM377.104 87.368C377.104 90.976 379.062 93.264 382.824 93.264C386.608 93.264 388.544 90.998 388.544 87.368V78.326H387.268V87.346C387.268 90.316 385.706 92.12 382.824 92.12C379.942 92.12 378.38 90.316 378.38 87.346V78.326H377.104V87.368ZM400.788 93H402.306L398.06 86.84C400.238 86.752 402.13 85.278 402.13 82.616C402.13 79.932 400.194 78.326 397.664 78.326H392.186V93H393.44V86.928H396.674L400.788 93ZM400.81 82.616C400.81 84.464 399.49 85.784 397.554 85.784H393.44V79.47H397.554C399.49 79.47 400.81 80.768 400.81 82.616ZM405.249 93H414.555V91.856H406.503V86.048H414.401V84.904H406.503V79.47H414.555V78.326H405.249V93ZM416.853 90.932C417.975 92.296 419.801 93.264 422.221 93.264C426.181 93.264 427.435 90.998 427.435 89.128C427.435 86.136 424.817 85.388 422.463 84.728C420.461 84.178 418.635 83.672 418.635 81.934C418.635 80.35 420.109 79.228 422.067 79.228C423.717 79.228 425.213 79.8 426.269 81.076L427.105 80.152C425.961 78.854 424.311 78.084 422.133 78.084C419.471 78.084 417.315 79.602 417.315 82C417.315 84.706 419.779 85.366 422.089 86.004C424.135 86.554 426.115 87.126 426.115 89.194C426.115 90.448 425.257 92.12 422.243 92.12C420.153 92.12 418.613 91.086 417.667 89.986L416.853 90.932Z" fill="#333333"/>
<path d="M602.696 93H608.878C613.476 93 616.798 90.206 616.798 85.652C616.798 81.098 613.476 78.326 608.856 78.326H602.696V93ZM606.48 89.7V81.626H608.878C611.562 81.626 612.926 83.386 612.926 85.652C612.926 87.83 611.43 89.7 608.856 89.7H606.48ZM628.113 93H632.227L626.683 78.326H621.931L616.409 93H620.523L621.271 90.778H627.365L628.113 93ZM624.307 81.626L626.375 87.588H622.261L624.307 81.626ZM633.311 93H637.095V78.326H633.311V93ZM639.735 93H649.415V89.7H643.519V78.326H639.735V93ZM652.569 93H656.353V87.082L661.897 78.326H657.607L654.461 83.738L651.271 78.326H647.003L652.569 87.082V93ZM669.116 93H673.802C678.356 93 681.216 89.744 681.216 85.674C681.216 81.648 678.356 78.326 673.802 78.326H669.116V93ZM670.37 91.856V79.47H673.802C677.696 79.47 679.896 82.242 679.896 85.674C679.896 89.106 677.674 91.856 673.802 91.856H670.37ZM684.348 93H693.654V91.856H685.602V86.048H693.5V84.904H685.602V79.47H693.654V78.326H684.348V93ZM696.766 93H698.02V86.906H702.266C705.06 86.906 706.688 84.926 706.688 82.616C706.688 80.306 705.082 78.326 702.266 78.326H696.766V93ZM705.368 82.616C705.368 84.464 704.07 85.762 702.134 85.762H698.02V79.47H702.134C704.07 79.47 705.368 80.768 705.368 82.616ZM718.265 93H719.673L713.667 78.326H712.105L706.099 93H707.507L708.981 89.392H716.791L718.265 93ZM712.875 79.558L716.395 88.248H709.377L712.875 79.558ZM730.441 93H731.959L727.713 86.84C729.891 86.752 731.783 85.278 731.783 82.616C731.783 79.932 729.847 78.326 727.317 78.326H721.839V93H723.093V86.928H726.327L730.441 93ZM730.463 82.616C730.463 84.464 729.143 85.784 727.207 85.784H723.093V79.47H727.207C729.143 79.47 730.463 80.768 730.463 82.616ZM738.426 93H739.702V79.47H744.498V78.326H733.63V79.47H738.426V93ZM747.104 87.368C747.104 90.976 749.062 93.264 752.824 93.264C756.608 93.264 758.544 90.998 758.544 87.368V78.326H757.268V87.346C757.268 90.316 755.706 92.12 752.824 92.12C749.942 92.12 748.38 90.316 748.38 87.346V78.326H747.104V87.368ZM770.788 93H772.306L768.06 86.84C770.238 86.752 772.13 85.278 772.13 82.616C772.13 79.932 770.194 78.326 767.664 78.326H762.186V93H763.44V86.928H766.674L770.788 93ZM770.81 82.616C770.81 84.464 769.49 85.784 767.554 85.784H763.44V79.47H767.554C769.49 79.47 770.81 80.768 770.81 82.616ZM775.249 93H784.555V91.856H776.503V86.048H784.401V84.904H776.503V79.47H784.555V78.326H775.249V93ZM786.853 90.932C787.975 92.296 789.801 93.264 792.221 93.264C796.181 93.264 797.435 90.998 797.435 89.128C797.435 86.136 794.817 85.388 792.463 84.728C790.461 84.178 788.635 83.672 788.635 81.934C788.635 80.35 790.109 79.228 792.067 79.228C793.717 79.228 795.213 79.8 796.269 81.076L797.105 80.152C795.961 78.854 794.311 78.084 792.133 78.084C789.471 78.084 787.315 79.602 787.315 82C787.315 84.706 789.779 85.366 792.089 86.004C794.135 86.554 796.115 87.126 796.115 89.194C796.115 90.448 795.257 92.12 792.243 92.12C790.153 92.12 788.613 91.086 787.667 89.986L786.853 90.932Z" fill="#333333"/>
<path d="M972.696 93H978.878C983.476 93 986.798 90.206 986.798 85.652C986.798 81.098 983.476 78.326 978.856 78.326H972.696V93ZM976.48 89.7V81.626H978.878C981.562 81.626 982.926 83.386 982.926 85.652C982.926 87.83 981.43 89.7 978.856 89.7H976.48ZM998.113 93H1002.23L996.683 78.326H991.931L986.409 93H990.523L991.271 90.778H997.365L998.113 93ZM994.307 81.626L996.375 87.588H992.261L994.307 81.626ZM1003.31 93H1007.1V78.326H1003.31V93ZM1009.74 93H1019.42V89.7H1013.52V78.326H1009.74V93ZM1022.57 93H1026.35V87.082L1031.9 78.326H1027.61L1024.46 83.738L1021.27 78.326H1017L1022.57 87.082V93ZM1039.12 93H1043.8C1048.36 93 1051.22 89.744 1051.22 85.674C1051.22 81.648 1048.36 78.326 1043.8 78.326H1039.12V93ZM1040.37 91.856V79.47H1043.8C1047.7 79.47 1049.9 82.242 1049.9 85.674C1049.9 89.106 1047.67 91.856 1043.8 91.856H1040.37ZM1054.35 93H1063.65V91.856H1055.6V86.048H1063.5V84.904H1055.6V79.47H1063.65V78.326H1054.35V93ZM1066.77 93H1068.02V86.906H1072.27C1075.06 86.906 1076.69 84.926 1076.69 82.616C1076.69 80.306 1075.08 78.326 1072.27 78.326H1066.77V93ZM1075.37 82.616C1075.37 84.464 1074.07 85.762 1072.13 85.762H1068.02V79.47H1072.13C1074.07 79.47 1075.37 80.768 1075.37 82.616ZM1088.26 93H1089.67L1083.67 78.326H1082.1L1076.1 93H1077.51L1078.98 89.392H1086.79L1088.26 93ZM1082.87 79.558L1086.39 88.248H1079.38L1082.87 79.558ZM1100.44 93H1101.96L1097.71 86.84C1099.89 86.752 1101.78 85.278 1101.78 82.616C1101.78 79.932 1099.85 78.326 1097.32 78.326H1091.84V93H1093.09V86.928H1096.33L1100.44 93ZM1100.46 82.616C1100.46 84.464 1099.14 85.784 1097.21 85.784H1093.09V79.47H1097.21C1099.14 79.47 1100.46 80.768 1100.46 82.616ZM1108.43 93H1109.7V79.47H1114.5V78.326H1103.63V79.47H1108.43V93ZM1117.1 87.368C1117.1 90.976 1119.06 93.264 1122.82 93.264C1126.61 93.264 1128.54 90.998 1128.54 87.368V78.326H1127.27V87.346C1127.27 90.316 1125.71 92.12 1122.82 92.12C1119.94 92.12 1118.38 90.316 1118.38 87.346V78.326H1117.1V87.368ZM1140.79 93H1142.31L1138.06 86.84C1140.24 86.752 1142.13 85.278 1142.13 82.616C1142.13 79.932 1140.19 78.326 1137.66 78.326H1132.19V93H1133.44V86.928H1136.67L1140.79 93ZM1140.81 82.616C1140.81 84.464 1139.49 85.784 1137.55 85.784H1133.44V79.47H1137.55C1139.49 79.47 1140.81 80.768 1140.81 82.616ZM1145.25 93H1154.55V91.856H1146.5V86.048H1154.4V84.904H1146.5V79.47H1154.55V78.326H1145.25V93ZM1156.85 90.932C1157.97 92.296 1159.8 93.264 1162.22 93.264C1166.18 93.264 1167.43 90.998 1167.43 89.128C1167.43 86.136 1164.82 85.388 1162.46 84.728C1160.46 84.178 1158.63 83.672 1158.63 81.934C1158.63 80.35 1160.11 79.228 1162.07 79.228C1163.72 79.228 1165.21 79.8 1166.27 81.076L1167.1 80.152C1165.96 78.854 1164.31 78.084 1162.13 78.084C1159.47 78.084 1157.31 79.602 1157.31 82C1157.31 84.706 1159.78 85.366 1162.09 86.004C1164.13 86.554 1166.11 87.126 1166.11 89.194C1166.11 90.448 1165.26 92.12 1162.24 92.12C1160.15 92.12 1158.61 91.086 1157.67 89.986L1156.85 90.932Z" fill="#333333"/>
<path d="M662.681 42H665.777V29.994H662.681V42ZM673.732 42.216C676.72 42.216 678.286 40.542 679.06 38.994L676.396 37.734C676 38.688 674.974 39.48 673.732 39.48C671.86 39.48 670.474 37.968 670.474 36.006C670.474 34.044 671.86 32.532 673.732 32.532C674.974 32.532 676 33.324 676.396 34.278L679.06 33.018C678.268 31.434 676.72 29.796 673.732 29.796C670.132 29.796 667.324 32.298 667.324 36.006C667.324 39.696 670.132 42.216 673.732 42.216ZM680.399 42H689.201V39.39H683.495V37.23H689.075V34.602H683.495V32.604H689.201V29.994H680.399V42ZM690.999 42H698.919V39.3H694.095V29.994H690.999V42ZM708.824 42H712.19L707.654 29.994H703.766L699.248 42H702.614L703.226 40.182H708.212L708.824 42ZM705.71 32.694L707.402 37.572H704.036L705.71 32.694ZM721.249 42H724.237V29.994H721.123V36.906L716.263 29.994H713.077V42H716.173V34.746L721.249 42ZM726.401 42H731.459C735.221 42 737.939 39.714 737.939 35.988C737.939 32.262 735.221 29.994 731.441 29.994H726.401V42ZM729.497 39.3V32.694H731.459C733.655 32.694 734.771 34.134 734.771 35.988C734.771 37.77 733.547 39.3 731.441 39.3H729.497Z" fill="#333333"/>
<path d="M1001.76 42H1004.86V37.23H1010.44V34.602H1004.86V32.604H1010.56V29.994H1001.76V42ZM1019.69 42H1023.06L1018.52 29.994H1014.63L1010.12 42H1013.48L1014.09 40.182H1019.08L1019.69 42ZM1016.58 32.694L1018.27 37.572H1014.9L1016.58 32.694ZM1030.64 42H1034.19L1031.74 37.59C1032.85 37.194 1034.13 36.078 1034.13 33.99C1034.13 31.758 1032.62 29.994 1029.96 29.994H1023.94V42H1027.04V37.932H1028.62L1030.64 42ZM1030.98 33.954C1030.98 34.782 1030.3 35.304 1029.49 35.304H1027.04V32.604H1029.49C1030.3 32.604 1030.98 33.126 1030.98 33.954ZM1035.23 36.006C1035.23 39.66 1037.99 42.216 1041.66 42.216C1045.33 42.216 1048.07 39.66 1048.07 36.006C1048.07 32.352 1045.33 29.796 1041.66 29.796C1037.99 29.796 1035.23 32.352 1035.23 36.006ZM1044.92 36.006C1044.92 37.95 1043.64 39.48 1041.66 39.48C1039.66 39.48 1038.38 37.95 1038.38 36.006C1038.38 34.044 1039.66 32.532 1041.66 32.532C1043.64 32.532 1044.92 34.044 1044.92 36.006ZM1049.63 42H1058.43V39.39H1052.72V37.23H1058.3V34.602H1052.72V32.604H1058.43V29.994H1049.63V42ZM1064.83 42H1067.93V29.994H1064.83V42ZM1069.22 40.308C1070.43 41.46 1072.12 42.216 1074.55 42.216C1077.77 42.216 1079.55 40.614 1079.55 38.202C1079.55 35.484 1076.82 34.908 1074.84 34.494C1073.51 34.242 1072.77 34.026 1072.77 33.396C1072.77 32.874 1073.16 32.46 1074.19 32.46C1075.25 32.46 1076.57 32.874 1077.57 33.702L1079.27 31.488C1077.99 30.39 1076.31 29.814 1074.39 29.814C1071.31 29.814 1069.6 31.56 1069.6 33.576C1069.6 36.42 1072.37 36.924 1074.35 37.32C1075.63 37.59 1076.4 37.86 1076.4 38.544C1076.4 39.12 1075.76 39.57 1074.69 39.57C1073.06 39.57 1071.72 38.85 1070.86 37.986L1069.22 40.308ZM1081 42H1088.92V39.3H1084.1V29.994H1081V42ZM1098.83 42H1102.19L1097.66 29.994H1093.77L1089.25 42H1092.62L1093.23 40.182H1098.22L1098.83 42ZM1095.71 32.694L1097.41 37.572H1094.04L1095.71 32.694ZM1111.25 42H1114.24V29.994H1111.13V36.906L1106.27 29.994H1103.08V42H1106.18V34.746L1111.25 42ZM1116.41 42H1121.46C1125.23 42 1127.94 39.714 1127.94 35.988C1127.94 32.262 1125.23 29.994 1121.45 29.994H1116.41V42ZM1119.5 39.3V32.694H1121.46C1123.66 32.694 1124.78 34.134 1124.78 35.988C1124.78 37.77 1123.55 39.3 1121.45 39.3H1119.5ZM1128.62 40.308C1129.83 41.46 1131.52 42.216 1133.95 42.216C1137.17 42.216 1138.95 40.614 1138.95 38.202C1138.95 35.484 1136.22 34.908 1134.24 34.494C1132.9 34.242 1132.17 34.026 1132.17 33.396C1132.17 32.874 1132.56 32.46 1133.59 32.46C1134.65 32.46 1135.96 32.874 1136.97 33.702L1138.66 31.488C1137.39 30.39 1135.71 29.814 1133.79 29.814C1130.71 29.814 1129 31.56 1129 33.576C1129 36.42 1131.77 36.924 1133.75 37.32C1135.03 37.59 1135.8 37.86 1135.8 38.544C1135.8 39.12 1135.15 39.57 1134.09 39.57C1132.45 39.57 1131.12 38.85 1130.26 37.986L1128.62 40.308Z" fill="#333333"/>
<g clip-path="url(#clip0)">
<path d="M991.855 24H956V48H991.855V24Z" fill="white"/>
<path d="M956 39.2536H965.774V48H972.281V39.2536H991.829V32.7464H972.281V24H965.774V32.7464H956V39.2536Z" fill="#0066B2"/>
<path d="M956 37.6202H967.407V48H970.674V37.6202H991.855V34.3535H970.674V24H967.407V34.3535H956V37.6202Z" fill="#E63542"/>
</g>
<g clip-path="url(#clip1)">
<path d="M1185.86 24H1150V48H1185.86V24Z" fill="white"/>
<path d="M1150 39.2536H1159.77V48H1166.28V39.2536H1185.83V32.7464H1166.28V24H1159.77V32.7464H1150V39.2536Z" fill="#0066B2"/>
<path d="M1150 37.6202H1161.41V48H1164.67V37.6202H1185.86V34.3535H1164.67V24H1161.41V34.3535H1150V37.6202Z" fill="#E63542"/>
</g>
<g clip-path="url(#clip2)">
<path d="M265.855 24H230V48H265.855V24Z" fill="white"/>
<path d="M230 36.0395H265.855V48H230V36.0395ZM235.98 36.0395C235.98 40.4391 239.537 43.9956 243.936 43.9956C248.336 43.9956 251.892 40.4391 251.892 36.0395C251.892 31.64 248.336 28.0834 243.936 28.0834C239.537 28.0834 235.98 31.64 235.98 36.0395Z" fill="#E41A35"/>
</g>
<g clip-path="url(#clip3)">
<path d="M429.855 24H394V48H429.855V24Z" fill="white"/>
<path d="M394 36.0395H429.855V48H394V36.0395ZM399.98 36.0395C399.98 40.4391 403.537 43.9956 407.936 43.9956C412.336 43.9956 415.892 40.4391 415.892 36.0395C415.892 31.64 412.336 28.0834 407.936 28.0834C403.537 28.0834 399.98 31.64 399.98 36.0395Z" fill="#E41A35"/>
</g>
<path d="M652.833 24H617V48H652.833V24Z" fill="#2F207E"/>
<path d="M652.833 32.9308H632.086V24H625.952V32.9308H617V39.0692H625.952V48H632.086V39.0692H652.833V32.9308Z" fill="white"/>
<path d="M627.61 24V34.5906H617V37.4094H627.61V48H630.428V37.4094H652.833V34.5906H630.428V24H627.61Z" fill="#E50004"/>
<path d="M783.833 24H748V48H783.833V24Z" fill="#2F207E"/>
<path d="M783.833 32.9308H763.086V24H756.952V32.9308H748V39.0692H756.952V48H763.086V39.0692H783.833V32.9308Z" fill="white"/>
<path d="M758.61 24V34.5906H748V37.4094H758.61V48H761.428V37.4094H783.833V34.5906H761.428V24H758.61Z" fill="#E50004"/>
<defs>
<clipPath id="clip0">
<rect width="35.8551" height="24" fill="white" transform="translate(956 24)"/>
</clipPath>
<clipPath id="clip1">
<rect width="35.8551" height="24" fill="white" transform="translate(1150 24)"/>
</clipPath>
<clipPath id="clip2">
<rect width="35.8551" height="24" fill="white" transform="translate(230 24)"/>
</clipPath>
<clipPath id="clip3">
<rect width="35.8551" height="24" fill="white" transform="translate(394 24)"/>
</clipPath>
</defs>
</svg>
