<svg width="100" height="100" viewBox="0 0 100 100" xmlns="http://www.w3.org/2000/svg"><title>customs-on</title><g id="Page-1" fill="none" fill-rule="evenodd"><g id="customs-on"><g id="Group"><path d="M49.9 0C22.3 0 0 22.3 0 49.9c0 27.6 22.3 49.9 49.9 49.9 27.6 0 49.9-22.3 49.9-49.9C99.8 22.3 77.4 0 49.9 0z" id="Shape" fill="#0060A9"/><path d="M44 24.4h11.8c.8 0 1.5-.7 1.5-1.5v-1.5c0-.8-.7-1.5-1.5-1.5h-1.5c-.8 0-1.5-.7-1.5-1.5s-.7-1.5-1.5-1.5h-2.9c-.8 0-1.5.7-1.5 1.5s-.7 1.5-1.5 1.5H44c-.8 0-1.5.7-1.5 1.5V23c0 .8.7 1.4 1.5 1.4zm5.9-5.9c.8 0 1.5.7 1.5 1.5s-.7 1.5-1.5 1.5-1.5-.7-1.5-1.5.7-1.5 1.5-1.5zM69.8 26.5H30c-.8 0-1.5.7-1.5 1.5v49.8c0 .8.7 1.5 1.5 1.5h39.8c.8 0 1.5-.7 1.5-1.5V58.1l-1.5 2-6.7 10.4-1.6 2.8c-.2.5-.5 1-1 1.3-.6.3-2 .3-2.7.3-1.5 0-1.8 0-2.1-.2-.5-.3-.7-1-1-1.6-1-2.1-2.8-6.8-2.8-9.1 0-.8.5-1.2 1.1-1.6 1-.7 2.4-1.5 3.6-1.5.9 0 1 .8 1.3 1.5l.9 2.2c.1.4.6 1.7 1.1 1.7.5 0 1-1.1 1.2-1.4l10.3-15.3V28c-.1-.9-.8-1.5-1.6-1.5z" id="Shape" fill="#FFF"/></g></g></g></svg>