<svg width="1152" height="240" viewBox="0 0 1152 240" fill="none" xmlns="http://www.w3.org/2000/svg">
<g clip-path="url(#clip0_203_0)">
<rect width="1152" height="240" fill="white"/>
<rect x="384" y="120" width="768" height="60" fill="white"/>
<rect x="384" y="180" width="768" height="60" fill="white"/>
<rect width="287" height="240" fill="#F2F1E8"/>
<rect width="1152" height="60" fill="#0060A9"/>
<line x1="1" y1="179.5" x2="1152" y2="179.5" stroke="#004376"/>
<line x1="1" y1="59.5" x2="1150" y2="59.5" stroke="#004376"/>
<line x1="1" y1="119.5" x2="1151" y2="119.5" stroke="#004376"/>
<line x1="287.5" y1="2.18557e-08" x2="287.5" y2="240" stroke="#004376"/>
<line x1="574.5" y1="2.18557e-08" x2="574.5" y2="240" stroke="#004376"/>
<line x1="861.5" y1="2.18557e-08" x2="861.5" y2="240" stroke="#004376"/>
<rect x="0.5" y="0.5" width="1151" height="239" stroke="#004376"/>
<path d="M411.566 40V35.2H403.342C409.07 31.488 411.406 28.704 411.406 25.44C411.406 21.152 407.79 18.336 402.766 18.336C399.79 18.336 396.398 19.392 394.126 21.888L397.166 25.536C398.702 24.096 400.494 23.2 402.766 23.2C404.43 23.2 405.806 23.968 405.806 25.44C405.806 27.552 404.078 29.024 394.83 35.712V40H411.566ZM413.691 29.344C413.691 34.976 416.603 40.384 422.843 40.384C429.083 40.384 431.995 34.976 431.995 29.344C431.995 23.712 429.083 18.336 422.843 18.336C416.603 18.336 413.691 23.712 413.691 29.344ZM426.427 29.344C426.427 33.12 425.403 35.52 422.843 35.52C420.283 35.52 419.259 33.12 419.259 29.344C419.259 25.568 420.283 23.2 422.843 23.2C425.403 23.2 426.427 25.568 426.427 29.344ZM450.972 40V35.2H442.748C448.476 31.488 450.812 28.704 450.812 25.44C450.812 21.152 447.196 18.336 442.172 18.336C439.196 18.336 435.804 19.392 433.532 21.888L436.572 25.536C438.108 24.096 439.9 23.2 442.172 23.2C443.836 23.2 445.212 23.968 445.212 25.44C445.212 27.552 443.484 29.024 434.236 35.712V40H450.972ZM464.65 40V18.656H459.882L452.426 26.016L455.562 29.312L459.146 25.696V40H464.65Z" fill="white"/>
<path d="M697.238 40V35.2H689.014C694.742 31.488 697.078 28.704 697.078 25.44C697.078 21.152 693.462 18.336 688.438 18.336C685.462 18.336 682.07 19.392 679.798 21.888L682.838 25.536C684.374 24.096 686.166 23.2 688.438 23.2C690.102 23.2 691.478 23.968 691.478 25.44C691.478 27.552 689.75 29.024 680.502 35.712V40H697.238ZM699.363 29.344C699.363 34.976 702.275 40.384 708.515 40.384C714.755 40.384 717.667 34.976 717.667 29.344C717.667 23.712 714.755 18.336 708.515 18.336C702.275 18.336 699.363 23.712 699.363 29.344ZM712.099 29.344C712.099 33.12 711.075 35.52 708.515 35.52C705.955 35.52 704.931 33.12 704.931 29.344C704.931 25.568 705.955 23.2 708.515 23.2C711.075 23.2 712.099 25.568 712.099 29.344ZM736.644 40V35.2H728.42C734.148 31.488 736.484 28.704 736.484 25.44C736.484 21.152 732.868 18.336 727.844 18.336C724.868 18.336 721.476 19.392 719.204 21.888L722.244 25.536C723.78 24.096 725.572 23.2 727.844 23.2C729.508 23.2 730.884 23.968 730.884 25.44C730.884 27.552 729.156 29.024 719.908 35.712V40H736.644ZM738.77 29.344C738.77 34.976 741.682 40.384 747.922 40.384C754.162 40.384 757.074 34.976 757.074 29.344C757.074 23.712 754.162 18.336 747.922 18.336C741.682 18.336 738.77 23.712 738.77 29.344ZM751.506 29.344C751.506 33.12 750.482 35.52 747.922 35.52C745.362 35.52 744.338 33.12 744.338 29.344C744.338 25.568 745.362 23.2 747.922 23.2C750.482 23.2 751.506 25.568 751.506 29.344Z" fill="white"/>
<path d="M937.342 30.36C937.342 35.608 940.414 39.384 947.262 39.384C954.11 39.384 957.15 35.64 957.15 30.328V17.656H951.55V30.168C951.55 32.696 950.206 34.52 947.262 34.52C944.286 34.52 942.942 32.696 942.942 30.168V17.656H937.342V30.36ZM971.27 39H976.166V17.656H971.27V25.368C970.022 23.832 968.39 23.16 966.694 23.16C962.822 23.16 959.846 26.2 959.846 31.256C959.846 36.504 962.886 39.384 966.694 39.384C968.422 39.384 969.99 38.68 971.27 37.208V39ZM971.27 33.624C970.63 34.456 969.35 35.032 968.294 35.032C966.342 35.032 964.902 33.56 964.902 31.256C964.902 28.952 966.342 27.512 968.294 27.512C969.35 27.512 970.63 28.056 971.27 28.888V33.624ZM983.744 39H988.992L995.072 23.544H989.856L986.336 33.336L982.848 23.544H977.664L983.744 39ZM999.022 21.592C1000.59 21.592 1001.84 20.344 1001.84 18.776C1001.84 17.208 1000.59 15.96 999.022 15.96C997.454 15.96 996.206 17.208 996.206 18.776C996.206 20.344 997.454 21.592 999.022 21.592ZM996.558 39H1001.49V23.544H996.558V39ZM1014.85 39H1020.93L1014.95 30.584L1020.64 23.544H1014.69L1009.99 29.72V17.656H1005.06V39H1009.99V35.288L1011.46 33.528L1014.85 39ZM1022.53 39H1027.45V17.656H1022.53V39ZM1033.49 21.592C1035.06 21.592 1036.31 20.344 1036.31 18.776C1036.31 17.208 1035.06 15.96 1033.49 15.96C1031.92 15.96 1030.67 17.208 1030.67 18.776C1030.67 20.344 1031.92 21.592 1033.49 21.592ZM1031.03 39H1035.95V23.544H1031.03V39ZM1049.99 39H1054.92V28.056C1054.92 25.208 1053.32 23.16 1049.8 23.16C1047.21 23.16 1045.38 24.344 1044.45 25.432V23.544H1039.53V39H1044.45V29.016C1045.03 28.312 1045.99 27.512 1047.46 27.512C1049 27.512 1049.99 28.184 1049.99 30.072V39ZM1058.08 42.968C1060.06 44.6 1062.27 45.272 1064.93 45.272C1068.77 45.272 1073.76 43.928 1073.76 37.624V23.544H1068.86V25.368C1067.62 23.832 1066.02 23.16 1064.29 23.16C1060.42 23.16 1057.47 25.848 1057.47 30.936C1057.47 36.152 1060.51 38.744 1064.29 38.744C1066.05 38.744 1067.58 38.008 1068.86 36.504V37.688C1068.86 40.568 1066.56 41.24 1064.93 41.24C1063.14 41.24 1061.41 40.728 1060.22 39.448L1058.08 42.968ZM1068.86 33.016C1068.26 33.848 1066.94 34.392 1065.92 34.392C1063.97 34.392 1062.53 33.208 1062.53 30.936C1062.53 28.696 1063.97 27.512 1065.92 27.512C1066.94 27.512 1068.26 28.056 1068.86 28.888V33.016Z" fill="white"/>
<path d="M21.624 89.008C21.624 93.88 25.296 97.288 30.192 97.288C35.088 97.288 38.736 93.88 38.736 89.008C38.736 84.136 35.088 80.728 30.192 80.728C25.296 80.728 21.624 84.136 21.624 89.008ZM34.536 89.008C34.536 91.6 32.832 93.64 30.192 93.64C27.528 93.64 25.824 91.6 25.824 89.008C25.824 86.392 27.528 84.376 30.192 84.376C32.832 84.376 34.536 86.392 34.536 89.008ZM55.335 97H59.007V88.6C59.007 86.224 57.663 85.12 55.527 85.12C53.703 85.12 52.191 86.176 51.519 87.184C51.039 85.816 49.887 85.12 48.231 85.12C46.407 85.12 44.919 86.152 44.415 86.824V85.408H40.719V97H44.415V89.512C44.799 89.032 45.495 88.384 46.479 88.384C47.607 88.384 48.015 89.056 48.015 89.944V97H51.711V89.512C52.071 89.032 52.791 88.384 53.799 88.384C54.903 88.384 55.335 89.056 55.335 89.944V97ZM60.735 95.512C61.959 96.592 64.095 97.288 66.159 97.288C69.495 97.288 71.439 95.656 71.439 93.448C71.439 90.376 68.511 89.896 66.543 89.56C65.319 89.344 64.695 89.152 64.695 88.624C64.695 88.12 65.295 87.832 66.159 87.832C67.551 87.832 68.871 88.432 69.567 89.104L70.983 86.656C69.735 85.744 68.079 85.12 66.135 85.12C62.919 85.12 61.167 86.896 61.167 88.936C61.167 91.888 63.951 92.296 65.919 92.632C67.119 92.824 67.911 93.04 67.911 93.64C67.911 94.144 67.455 94.504 66.351 94.504C64.983 94.504 63.135 93.736 62.271 92.968L60.735 95.512ZM84.24 92.368H92.16V91.576C92.16 87.64 89.76 85.12 86.568 85.12C84.48 85.12 83.28 85.888 82.416 86.824C81.72 85.744 80.496 85.12 78.528 85.12C76.728 85.12 74.712 85.648 73.224 86.92L74.544 89.272C75.552 88.456 76.8 88.024 78.024 88.024C79.584 88.024 80.52 88.72 80.52 89.704V91.048C79.728 90.208 78.24 89.752 76.728 89.752C74.496 89.752 72.6 90.952 72.6 93.52C72.6 96.136 74.88 97.288 77.568 97.288C79.608 97.288 81.36 96.496 82.368 95.44C83.448 96.76 84.912 97.288 86.688 97.288C88.176 97.288 90.12 96.784 91.272 95.752L89.64 93.376C89.04 93.976 87.984 94.36 87.048 94.36C85.392 94.36 84.504 93.4 84.24 92.368ZM88.632 89.968H84.192C84.336 89.104 84.936 87.976 86.4 87.976C87.984 87.976 88.536 89.152 88.632 89.968ZM80.52 93.016V93.136C80.52 93.784 79.44 94.576 78.072 94.576C77.184 94.576 76.272 94.216 76.272 93.376C76.272 92.56 77.208 92.176 78.264 92.176C79.152 92.176 80.088 92.488 80.52 93.016ZM98.3844 97.288C99.7524 97.288 100.664 96.952 101.12 96.52L100.4 93.736C100.28 93.88 99.8724 94.024 99.4644 94.024C98.8164 94.024 98.4324 93.52 98.4324 92.848V88.624H100.784V85.408H98.4324V82.24H94.7604V85.408H92.8404V88.624H94.7604V93.88C94.7604 96.112 96.0324 97.288 98.3844 97.288ZM110.489 97H114.185V88.792C114.185 86.656 112.985 85.12 110.345 85.12C108.401 85.12 107.033 86.008 106.337 86.824V85.408H102.641V97H106.337V89.512C106.769 88.984 107.489 88.384 108.593 88.384C109.745 88.384 110.489 88.888 110.489 90.304V97ZM118.715 83.944C119.891 83.944 120.827 83.008 120.827 81.832C120.827 80.656 119.891 79.72 118.715 79.72C117.539 79.72 116.603 80.656 116.603 81.832C116.603 83.008 117.539 83.944 118.715 83.944ZM116.867 97H120.563V85.408H116.867V97ZM131.09 97H134.786V88.792C134.786 86.656 133.586 85.12 130.946 85.12C129.002 85.12 127.634 86.008 126.938 86.824V85.408H123.242V97H126.938V89.512C127.37 88.984 128.09 88.384 129.194 88.384C130.346 88.384 131.09 88.888 131.09 90.304V97ZM137.157 99.976C138.645 101.2 140.301 101.704 142.293 101.704C145.173 101.704 148.917 100.696 148.917 95.968V85.408H145.245V86.776C144.309 85.624 143.109 85.12 141.813 85.12C138.909 85.12 136.701 87.136 136.701 90.952C136.701 94.864 138.981 96.808 141.813 96.808C143.133 96.808 144.285 96.256 145.245 95.128V96.016C145.245 98.176 143.517 98.68 142.293 98.68C140.949 98.68 139.653 98.296 138.765 97.336L137.157 99.976ZM145.245 92.512C144.789 93.136 143.805 93.544 143.037 93.544C141.573 93.544 140.493 92.656 140.493 90.952C140.493 89.272 141.573 88.384 143.037 88.384C143.805 88.384 144.789 88.792 145.245 89.416V92.512Z" fill="#333333"/>
<path d="M416.919 89.032C416.919 93.376 418.623 97.288 423.087 97.288C426.591 97.288 428.703 94.84 428.703 92.056C428.703 88.648 426.351 86.944 423.471 86.944C421.407 86.944 419.631 88.336 418.935 89.44C418.911 89.224 418.911 89.032 418.911 88.816C418.911 85.672 420.327 82.528 423.423 82.528C425.103 82.528 426.039 83.2 426.855 84.16L427.863 82.672C426.879 81.544 425.487 80.752 423.423 80.752C418.935 80.752 416.919 84.688 416.919 89.032ZM426.687 92.128C426.687 93.664 425.487 95.512 423.015 95.512C420.231 95.512 419.175 93.064 418.983 91.072C419.871 89.656 421.407 88.672 422.991 88.672C425.055 88.672 426.687 89.776 426.687 92.128ZM432.131 100.048C433.235 99.256 434.099 97.888 434.099 96.424C434.099 95.272 433.379 94.6 432.587 94.6C431.867 94.6 431.315 95.2 431.315 95.896C431.315 96.616 431.795 97.12 432.467 97.12C432.587 97.12 432.755 97.096 432.803 97.072C432.707 97.864 432.011 98.8 431.243 99.304L432.131 100.048ZM438.925 97L445.477 82.36V80.992H434.557V82.768H443.173L436.717 97H438.925ZM446.86 94.648C447.844 96.088 449.836 97.288 452.548 97.288C456.076 97.288 458.212 95.344 458.212 92.68C458.212 90.112 455.98 88.864 454.516 88.744C456.028 88.48 457.972 87.328 457.972 85.024C457.972 82.312 455.62 80.752 452.548 80.752C450.076 80.752 448.228 81.832 447.076 83.224L448.18 84.472C449.356 83.2 450.652 82.528 452.404 82.528C454.348 82.528 455.98 83.488 455.98 85.264C455.98 87.112 454.276 87.904 452.26 87.904C451.612 87.904 450.868 87.904 450.604 87.88V89.704C450.844 89.68 451.588 89.68 452.26 89.68C454.612 89.68 456.244 90.52 456.244 92.512C456.244 94.36 454.828 95.512 452.5 95.512C450.604 95.512 448.972 94.648 448.036 93.4L446.86 94.648ZM464.635 97L471.187 82.36V80.992H460.267V82.768H468.883L462.427 97H464.635ZM495.655 97V88.624C495.655 86.296 494.527 85.12 492.415 85.12C490.734 85.12 489.175 86.224 488.527 87.28C488.191 86.08 487.183 85.12 485.407 85.12C483.703 85.12 482.143 86.344 481.663 87.088V85.408H479.863V97H481.663V88.528C482.287 87.592 483.535 86.728 484.711 86.728C486.223 86.728 486.847 87.664 486.847 89.128V97H488.647V88.504C489.247 87.592 490.519 86.728 491.719 86.728C493.207 86.728 493.855 87.664 493.855 89.128V97H495.655ZM500.133 83.464C500.805 83.464 501.357 82.912 501.357 82.24C501.357 81.568 500.805 81.04 500.133 81.04C499.485 81.04 498.933 81.568 498.933 82.24C498.933 82.912 499.485 83.464 500.133 83.464ZM501.045 97V85.408H499.245V97H501.045ZM513.684 97V89.032C513.684 86.224 511.644 85.12 509.196 85.12C507.3 85.12 505.812 85.744 504.564 87.04L505.404 88.288C506.436 87.184 507.564 86.68 508.956 86.68C510.636 86.68 511.884 87.568 511.884 89.128V91.216C510.948 90.136 509.628 89.632 508.044 89.632C506.076 89.632 503.988 90.856 503.988 93.448C503.988 95.968 506.076 97.288 508.044 97.288C509.604 97.288 510.924 96.736 511.884 95.68V97H513.684ZM511.884 94.552C511.188 95.512 509.964 95.992 508.692 95.992C507.012 95.992 505.836 94.936 505.836 93.472C505.836 91.984 507.012 90.928 508.692 90.928C509.964 90.928 511.188 91.408 511.884 92.368V94.552ZM516.932 95.92C516.932 96.64 517.532 97.24 518.252 97.24C518.972 97.24 519.572 96.64 519.572 95.92C519.572 95.2 518.972 94.6 518.252 94.6C517.532 94.6 516.932 95.2 516.932 95.92ZM539.211 97L534.051 90.664L539.187 85.408H536.907L530.811 91.576V80.992H529.011V97H530.811V93.688L532.731 91.792L536.907 97H539.211ZM543.139 97V88.792C543.667 87.856 545.179 86.944 546.283 86.944C546.571 86.944 546.787 86.968 547.003 87.016V85.168C545.419 85.168 544.075 86.056 543.139 87.28V85.408H541.339V97H543.139ZM546.909 95.92C546.909 96.64 547.509 97.24 548.229 97.24C548.949 97.24 549.549 96.64 549.549 95.92C549.549 95.2 548.949 94.6 548.229 94.6C547.509 94.6 546.909 95.2 546.909 95.92Z" fill="#333333"/>
<path d="M701.482 94.72C702.682 96.304 704.41 97.288 707.122 97.288C710.338 97.288 712.81 95.272 712.81 92.008C712.81 88.72 710.386 86.896 707.722 86.896C706.114 86.896 704.746 87.568 703.978 88.336V82.768H711.778V80.992H701.986V89.632L703.45 90.136C704.53 89.08 705.73 88.624 707.146 88.624C709.306 88.624 710.818 89.968 710.818 92.08C710.818 94.024 709.306 95.512 707.122 95.512C705.154 95.512 703.762 94.744 702.706 93.4L701.482 94.72ZM716.311 100.048C717.415 99.256 718.279 97.888 718.279 96.424C718.279 95.272 717.559 94.6 716.767 94.6C716.047 94.6 715.495 95.2 715.495 95.896C715.495 96.616 715.975 97.12 716.647 97.12C716.767 97.12 716.935 97.096 716.983 97.072C716.887 97.864 716.191 98.8 715.423 99.304L716.311 100.048ZM723.104 97L729.656 82.36V80.992H718.736V82.768H727.352L720.896 97H723.104ZM735.456 97L742.008 82.36V80.992H731.088V82.768H739.704L733.248 97H735.456ZM744.711 95.344C745.719 96.496 747.111 97.264 749.151 97.264C753.639 97.264 755.655 93.328 755.655 89.008C755.655 84.64 753.951 80.728 749.463 80.728C745.983 80.728 743.871 83.2 743.871 85.96C743.871 89.368 746.247 91.072 749.127 91.072C751.167 91.072 752.943 89.68 753.639 88.576C753.663 88.792 753.663 89.008 753.663 89.224C753.663 92.248 752.391 95.488 749.151 95.488C747.495 95.488 746.535 94.816 745.719 93.856L744.711 95.344ZM753.567 86.968C752.727 88.384 751.167 89.344 749.583 89.344C747.519 89.344 745.887 88.24 745.887 85.888C745.887 84.376 747.111 82.504 749.559 82.504C752.343 82.504 753.399 84.976 753.567 86.968ZM780.655 97V88.624C780.655 86.296 779.527 85.12 777.415 85.12C775.734 85.12 774.175 86.224 773.527 87.28C773.191 86.08 772.183 85.12 770.407 85.12C768.703 85.12 767.143 86.344 766.663 87.088V85.408H764.863V97H766.663V88.528C767.287 87.592 768.535 86.728 769.711 86.728C771.223 86.728 771.847 87.664 771.847 89.128V97H773.647V88.504C774.247 87.592 775.519 86.728 776.719 86.728C778.207 86.728 778.855 87.664 778.855 89.128V97H780.655ZM785.133 83.464C785.805 83.464 786.357 82.912 786.357 82.24C786.357 81.568 785.805 81.04 785.133 81.04C784.485 81.04 783.933 81.568 783.933 82.24C783.933 82.912 784.485 83.464 785.133 83.464ZM786.045 97V85.408H784.245V97H786.045ZM798.684 97V89.032C798.684 86.224 796.644 85.12 794.196 85.12C792.3 85.12 790.812 85.744 789.564 87.04L790.404 88.288C791.436 87.184 792.564 86.68 793.956 86.68C795.636 86.68 796.884 87.568 796.884 89.128V91.216C795.948 90.136 794.628 89.632 793.044 89.632C791.076 89.632 788.988 90.856 788.988 93.448C788.988 95.968 791.076 97.288 793.044 97.288C794.604 97.288 795.924 96.736 796.884 95.68V97H798.684ZM796.884 94.552C796.188 95.512 794.964 95.992 793.692 95.992C792.012 95.992 790.836 94.936 790.836 93.472C790.836 91.984 792.012 90.928 793.692 90.928C794.964 90.928 796.188 91.408 796.884 92.368V94.552ZM801.932 95.92C801.932 96.64 802.532 97.24 803.252 97.24C803.972 97.24 804.572 96.64 804.572 95.92C804.572 95.2 803.972 94.6 803.252 94.6C802.532 94.6 801.932 95.2 801.932 95.92ZM824.211 97L819.051 90.664L824.187 85.408H821.907L815.811 91.576V80.992H814.011V97H815.811V93.688L817.731 91.792L821.907 97H824.211ZM828.139 97V88.792C828.667 87.856 830.179 86.944 831.283 86.944C831.571 86.944 831.787 86.968 832.003 87.016V85.168C830.419 85.168 829.075 86.056 828.139 87.28V85.408H826.339V97H828.139ZM831.909 95.92C831.909 96.64 832.509 97.24 833.229 97.24C833.949 97.24 834.549 96.64 834.549 95.92C834.549 95.2 833.949 94.6 833.229 94.6C832.509 94.6 831.909 95.2 831.909 95.92Z" fill="#333333"/>
<path d="M993.796 89.536V88.288H989.188V83.32H987.82V88.288H983.212V89.536H987.82V94.648H989.188V89.536H993.796ZM1002.7 95.344C1003.7 96.496 1005.1 97.264 1007.14 97.264C1011.62 97.264 1013.64 93.328 1013.64 89.008C1013.64 84.64 1011.94 80.728 1007.45 80.728C1003.97 80.728 1001.86 83.2 1001.86 85.96C1001.86 89.368 1004.23 91.072 1007.11 91.072C1009.15 91.072 1010.93 89.68 1011.62 88.576C1011.65 88.792 1011.65 89.008 1011.65 89.224C1011.65 92.248 1010.38 95.488 1007.14 95.488C1005.48 95.488 1004.52 94.816 1003.7 93.856L1002.7 95.344ZM1011.55 86.968C1010.71 88.384 1009.15 89.344 1007.57 89.344C1005.5 89.344 1003.87 88.24 1003.87 85.888C1003.87 84.376 1005.1 82.504 1007.54 82.504C1010.33 82.504 1011.38 84.976 1011.55 86.968ZM1016.44 94.72C1017.64 96.304 1019.37 97.288 1022.08 97.288C1025.3 97.288 1027.77 95.272 1027.77 92.008C1027.77 88.72 1025.35 86.896 1022.68 86.896C1021.08 86.896 1019.71 87.568 1018.94 88.336V82.768H1026.74V80.992H1016.95V89.632L1018.41 90.136C1019.49 89.08 1020.69 88.624 1022.11 88.624C1024.27 88.624 1025.78 89.968 1025.78 92.08C1025.78 94.024 1024.27 95.512 1022.08 95.512C1020.12 95.512 1018.72 94.744 1017.67 93.4L1016.44 94.72ZM1030.26 92.944C1030.26 95.68 1032.83 97.288 1036 97.288C1039.14 97.288 1041.74 95.656 1041.74 92.944C1041.74 90.808 1039.91 89.344 1037.92 88.744C1039.77 88.216 1041.5 87.016 1041.5 84.904C1041.5 82.024 1038.64 80.752 1036 80.752C1033.34 80.752 1030.53 82.024 1030.53 84.904C1030.53 87.016 1032.23 88.216 1034.08 88.744C1032.09 89.344 1030.26 90.808 1030.26 92.944ZM1039.48 85.168C1039.48 87.112 1036.98 87.76 1036 87.928C1035.04 87.76 1032.52 87.112 1032.52 85.168C1032.52 83.512 1034.06 82.528 1036 82.528C1037.92 82.528 1039.48 83.512 1039.48 85.168ZM1039.72 92.728C1039.72 94.456 1037.97 95.512 1036 95.512C1034.01 95.512 1032.26 94.456 1032.26 92.728C1032.26 90.64 1035.02 89.752 1036 89.632C1036.98 89.752 1039.72 90.64 1039.72 92.728ZM1066.74 97V88.624C1066.74 86.296 1065.61 85.12 1063.5 85.12C1061.82 85.12 1060.26 86.224 1059.61 87.28C1059.28 86.08 1058.27 85.12 1056.49 85.12C1054.79 85.12 1053.23 86.344 1052.75 87.088V85.408H1050.95V97H1052.75V88.528C1053.37 87.592 1054.62 86.728 1055.8 86.728C1057.31 86.728 1057.93 87.664 1057.93 89.128V97H1059.73V88.504C1060.33 87.592 1061.6 86.728 1062.8 86.728C1064.29 86.728 1064.94 87.664 1064.94 89.128V97H1066.74ZM1071.22 83.464C1071.89 83.464 1072.44 82.912 1072.44 82.24C1072.44 81.568 1071.89 81.04 1071.22 81.04C1070.57 81.04 1070.02 81.568 1070.02 82.24C1070.02 82.912 1070.57 83.464 1071.22 83.464ZM1072.13 97V85.408H1070.33V97H1072.13ZM1080.79 97.288C1084.31 97.288 1086.52 94.552 1086.52 91.192C1086.52 87.832 1084.31 85.12 1080.79 85.12C1077.26 85.12 1075.05 87.832 1075.05 91.192C1075.05 94.552 1077.26 97.288 1080.79 97.288ZM1080.79 95.68C1078.31 95.68 1076.92 93.568 1076.92 91.192C1076.92 88.84 1078.31 86.728 1080.79 86.728C1083.26 86.728 1084.63 88.84 1084.63 91.192C1084.63 93.568 1083.26 95.68 1080.79 95.68ZM1088.93 95.92C1088.93 96.64 1089.53 97.24 1090.25 97.24C1090.97 97.24 1091.57 96.64 1091.57 95.92C1091.57 95.2 1090.97 94.6 1090.25 94.6C1089.53 94.6 1088.93 95.2 1088.93 95.92ZM1111.21 97L1106.05 90.664L1111.19 85.408H1108.91L1102.81 91.576V80.992H1101.01V97H1102.81V93.688L1104.73 91.792L1108.91 97H1111.21ZM1115.14 97V88.792C1115.67 87.856 1117.18 86.944 1118.28 86.944C1118.57 86.944 1118.79 86.968 1119 87.016V85.168C1117.42 85.168 1116.08 86.056 1115.14 87.28V85.408H1113.34V97H1115.14ZM1118.91 95.92C1118.91 96.64 1119.51 97.24 1120.23 97.24C1120.95 97.24 1121.55 96.64 1121.55 95.92C1121.55 95.2 1120.95 94.6 1120.23 94.6C1119.51 94.6 1118.91 95.2 1118.91 95.92Z" fill="#333333"/>
<path d="M994.855 151.984V150.4H989.095V151.984H994.855ZM1003.34 154.72C1004.54 156.304 1006.27 157.288 1008.98 157.288C1012.2 157.288 1014.67 155.272 1014.67 152.008C1014.67 148.72 1012.25 146.896 1009.58 146.896C1007.97 146.896 1006.61 147.568 1005.84 148.336V142.768H1013.64V140.992H1003.85V149.632L1005.31 150.136C1006.39 149.08 1007.59 148.624 1009.01 148.624C1011.17 148.624 1012.68 149.968 1012.68 152.08C1012.68 154.024 1011.17 155.512 1008.98 155.512C1007.01 155.512 1005.62 154.744 1004.57 153.4L1003.34 154.72ZM1022.18 157V140.992H1020.43L1016.42 145.12L1017.62 146.344L1020.19 143.632V157H1022.18ZM1026.3 160.048C1027.41 159.256 1028.27 157.888 1028.27 156.424C1028.27 155.272 1027.55 154.6 1026.76 154.6C1026.04 154.6 1025.49 155.2 1025.49 155.896C1025.49 156.616 1025.97 157.12 1026.64 157.12C1026.76 157.12 1026.93 157.096 1026.97 157.072C1026.88 157.864 1026.18 158.8 1025.41 159.304L1026.3 160.048ZM1039.95 157V152.944H1042.2V151.192H1039.95V140.992H1037.21L1030.35 151.288V152.944H1037.95V157H1039.95ZM1037.95 151.192H1032.34L1037.95 142.84V151.192ZM1066.74 157V148.624C1066.74 146.296 1065.61 145.12 1063.5 145.12C1061.82 145.12 1060.26 146.224 1059.61 147.28C1059.28 146.08 1058.27 145.12 1056.49 145.12C1054.79 145.12 1053.23 146.344 1052.75 147.088V145.408H1050.95V157H1052.75V148.528C1053.37 147.592 1054.62 146.728 1055.8 146.728C1057.31 146.728 1057.93 147.664 1057.93 149.128V157H1059.73V148.504C1060.33 147.592 1061.6 146.728 1062.8 146.728C1064.29 146.728 1064.94 147.664 1064.94 149.128V157H1066.74ZM1071.22 143.464C1071.89 143.464 1072.44 142.912 1072.44 142.24C1072.44 141.568 1071.89 141.04 1071.22 141.04C1070.57 141.04 1070.02 141.568 1070.02 142.24C1070.02 142.912 1070.57 143.464 1071.22 143.464ZM1072.13 157V145.408H1070.33V157H1072.13ZM1080.79 157.288C1084.31 157.288 1086.52 154.552 1086.52 151.192C1086.52 147.832 1084.31 145.12 1080.79 145.12C1077.26 145.12 1075.05 147.832 1075.05 151.192C1075.05 154.552 1077.26 157.288 1080.79 157.288ZM1080.79 155.68C1078.31 155.68 1076.92 153.568 1076.92 151.192C1076.92 148.84 1078.31 146.728 1080.79 146.728C1083.26 146.728 1084.63 148.84 1084.63 151.192C1084.63 153.568 1083.26 155.68 1080.79 155.68ZM1088.93 155.92C1088.93 156.64 1089.53 157.24 1090.25 157.24C1090.97 157.24 1091.57 156.64 1091.57 155.92C1091.57 155.2 1090.97 154.6 1090.25 154.6C1089.53 154.6 1088.93 155.2 1088.93 155.92ZM1111.21 157L1106.05 150.664L1111.19 145.408H1108.91L1102.81 151.576V140.992H1101.01V157H1102.81V153.688L1104.73 151.792L1108.91 157H1111.21ZM1115.14 157V148.792C1115.67 147.856 1117.18 146.944 1118.28 146.944C1118.57 146.944 1118.79 146.968 1119 147.016V145.168C1117.42 145.168 1116.08 146.056 1115.14 147.28V145.408H1113.34V157H1115.14ZM1118.91 155.92C1118.91 156.64 1119.51 157.24 1120.23 157.24C1120.95 157.24 1121.55 156.64 1121.55 155.92C1121.55 155.2 1120.95 154.6 1120.23 154.6C1119.51 154.6 1118.91 155.2 1118.91 155.92Z" fill="#333333"/>
<path d="M979.499 209.536V208.288H974.891V203.32H973.523V208.288H968.915V209.536H973.523V214.648H974.891V209.536H979.499ZM992.647 217V200.992H990.895L986.887 205.12L988.087 206.344L990.655 203.632V217H992.647ZM995.74 209.008C995.74 212.896 997.468 217.288 1001.86 217.288C1006.23 217.288 1007.98 212.896 1007.98 209.008C1007.98 205.096 1006.23 200.752 1001.86 200.752C997.468 200.752 995.74 205.096 995.74 209.008ZM1005.94 209.008C1005.94 212.2 1004.91 215.512 1001.86 215.512C998.812 215.512 997.78 212.2 997.78 209.008C997.78 205.816 998.812 202.528 1001.86 202.528C1004.91 202.528 1005.94 205.816 1005.94 209.008ZM1021.5 217V215.224H1013.65C1018.11 211.696 1021.43 208.72 1021.43 205.456C1021.43 202.264 1018.71 200.752 1016.05 200.752C1013.79 200.752 1011.71 201.664 1010.48 203.272L1011.71 204.544C1012.64 203.344 1014.13 202.528 1016.05 202.528C1017.71 202.528 1019.39 203.416 1019.39 205.456C1019.39 208.216 1016.27 210.88 1010.51 215.416V217H1021.5ZM1025.58 220.048C1026.68 219.256 1027.54 217.888 1027.54 216.424C1027.54 215.272 1026.82 214.6 1026.03 214.6C1025.31 214.6 1024.76 215.2 1024.76 215.896C1024.76 216.616 1025.24 217.12 1025.91 217.12C1026.03 217.12 1026.2 217.096 1026.25 217.072C1026.15 217.864 1025.46 218.8 1024.69 219.304L1025.58 220.048ZM1041.14 217V215.224H1033.29C1037.76 211.696 1041.07 208.72 1041.07 205.456C1041.07 202.264 1038.36 200.752 1035.69 200.752C1033.44 200.752 1031.35 201.664 1030.12 203.272L1031.35 204.544C1032.28 203.344 1033.77 202.528 1035.69 202.528C1037.35 202.528 1039.03 203.416 1039.03 205.456C1039.03 208.216 1035.91 210.88 1030.15 215.416V217H1041.14ZM1066.74 217V208.624C1066.74 206.296 1065.61 205.12 1063.5 205.12C1061.82 205.12 1060.26 206.224 1059.61 207.28C1059.28 206.08 1058.27 205.12 1056.49 205.12C1054.79 205.12 1053.23 206.344 1052.75 207.088V205.408H1050.95V217H1052.75V208.528C1053.37 207.592 1054.62 206.728 1055.8 206.728C1057.31 206.728 1057.93 207.664 1057.93 209.128V217H1059.73V208.504C1060.33 207.592 1061.6 206.728 1062.8 206.728C1064.29 206.728 1064.94 207.664 1064.94 209.128V217H1066.74ZM1071.22 203.464C1071.89 203.464 1072.44 202.912 1072.44 202.24C1072.44 201.568 1071.89 201.04 1071.22 201.04C1070.57 201.04 1070.02 201.568 1070.02 202.24C1070.02 202.912 1070.57 203.464 1071.22 203.464ZM1072.13 217V205.408H1070.33V217H1072.13ZM1080.79 217.288C1084.31 217.288 1086.52 214.552 1086.52 211.192C1086.52 207.832 1084.31 205.12 1080.79 205.12C1077.26 205.12 1075.05 207.832 1075.05 211.192C1075.05 214.552 1077.26 217.288 1080.79 217.288ZM1080.79 215.68C1078.31 215.68 1076.92 213.568 1076.92 211.192C1076.92 208.84 1078.31 206.728 1080.79 206.728C1083.26 206.728 1084.63 208.84 1084.63 211.192C1084.63 213.568 1083.26 215.68 1080.79 215.68ZM1088.93 215.92C1088.93 216.64 1089.53 217.24 1090.25 217.24C1090.97 217.24 1091.57 216.64 1091.57 215.92C1091.57 215.2 1090.97 214.6 1090.25 214.6C1089.53 214.6 1088.93 215.2 1088.93 215.92ZM1111.21 217L1106.05 210.664L1111.19 205.408H1108.91L1102.81 211.576V200.992H1101.01V217H1102.81V213.688L1104.73 211.792L1108.91 217H1111.21ZM1115.14 217V208.792C1115.67 207.856 1117.18 206.944 1118.28 206.944C1118.57 206.944 1118.79 206.968 1119 207.016V205.168C1117.42 205.168 1116.08 206.056 1115.14 207.28V205.408H1113.34V217H1115.14ZM1118.91 215.92C1118.91 216.64 1119.51 217.24 1120.23 217.24C1120.95 217.24 1121.55 216.64 1121.55 215.92C1121.55 215.2 1120.95 214.6 1120.23 214.6C1119.51 214.6 1118.91 215.2 1118.91 215.92Z" fill="#333333"/>
<path d="M31.368 157H36.096L32.832 151.12C34.32 150.592 36.024 149.104 36.024 146.32C36.024 143.344 34.008 140.992 30.456 140.992H22.44V157H26.568V151.576H28.68L31.368 157ZM31.824 146.272C31.824 147.376 30.912 148.072 29.832 148.072H26.568V144.472H29.832C30.912 144.472 31.824 145.168 31.824 146.272ZM36.7166 151.192C36.7166 154.96 39.4766 157.288 43.0526 157.288C44.8286 157.288 46.7486 156.784 47.9006 155.752L46.3406 153.448C45.6926 154.024 44.5406 154.432 43.5086 154.432C41.7806 154.432 40.7726 153.448 40.5566 152.368H48.8126V151.576C48.8126 147.64 46.3166 145.12 42.8846 145.12C39.2606 145.12 36.7166 147.832 36.7166 151.192ZM42.8846 147.976C44.5886 147.976 45.1886 149.152 45.2846 149.968H40.5086C40.6526 149.128 41.2766 147.976 42.8846 147.976ZM49.6491 155.512C50.8731 156.592 53.0091 157.288 55.0731 157.288C58.4091 157.288 60.3531 155.656 60.3531 153.448C60.3531 150.376 57.4251 149.896 55.4571 149.56C54.2331 149.344 53.6091 149.152 53.6091 148.624C53.6091 148.12 54.2091 147.832 55.0731 147.832C56.4651 147.832 57.7851 148.432 58.4811 149.104L59.8971 146.656C58.6491 145.744 56.9931 145.12 55.0491 145.12C51.8331 145.12 50.0811 146.896 50.0811 148.936C50.0811 151.888 52.8651 152.296 54.8331 152.632C56.0331 152.824 56.8251 153.04 56.8251 153.64C56.8251 154.144 56.3691 154.504 55.2651 154.504C53.8971 154.504 52.0491 153.736 51.1851 152.968L49.6491 155.512ZM70.0821 157H73.7781V145.408H70.0821V152.896C69.6501 153.448 68.9301 154.024 67.8741 154.024C66.6741 154.024 65.9541 153.544 65.9541 152.152V145.408H62.2581V153.664C62.2581 155.8 63.4341 157.288 66.0741 157.288C68.0181 157.288 69.3621 156.424 70.0821 155.608V157ZM76.4612 157H80.1572V140.992H76.4612V157ZM87.2282 157.288C88.5962 157.288 89.5082 156.952 89.9642 156.52L89.2442 153.736C89.1242 153.88 88.7162 154.024 88.3082 154.024C87.6602 154.024 87.2762 153.52 87.2762 152.848V148.624H89.6282V145.408H87.2762V142.24H83.6042V145.408H81.6842V148.624H83.6042V153.88C83.6042 156.112 84.8762 157.288 87.2282 157.288ZM98.3246 157H102.021V149.752C102.021 146.152 99.4046 145.12 96.6206 145.12C94.8446 145.12 92.8526 145.648 91.3646 146.92L92.6846 149.248C93.6206 148.456 94.8206 148.024 95.9726 148.024C97.4606 148.024 98.3246 148.696 98.3246 149.704V151.168C97.6286 150.304 96.2606 149.824 94.7246 149.824C92.9486 149.824 90.7406 150.664 90.7406 153.472C90.7406 156.088 92.9486 157.288 94.7246 157.288C96.2126 157.288 97.6046 156.712 98.3246 155.848V157ZM98.3246 154.024C97.9406 154.576 97.0766 154.864 96.2606 154.864C95.2766 154.864 94.4126 154.432 94.4126 153.52C94.4126 152.608 95.2766 152.176 96.2606 152.176C97.0766 152.176 97.9406 152.464 98.3246 152.992V154.024ZM109.095 157.288C110.463 157.288 111.375 156.952 111.831 156.52L111.111 153.736C110.991 153.88 110.583 154.024 110.175 154.024C109.527 154.024 109.143 153.52 109.143 152.848V148.624H111.495V145.408H109.143V142.24H105.471V145.408H103.551V148.624H105.471V153.88C105.471 156.112 106.743 157.288 109.095 157.288ZM120.284 157H123.98V148.624H126.332V145.408H123.98V144.928C123.98 144.04 124.484 143.56 125.252 143.56C125.588 143.56 125.924 143.632 126.212 143.8L126.884 141.28C126.308 140.968 125.444 140.752 124.436 140.752C122.036 140.752 120.284 142.36 120.284 144.832V145.408H118.364V148.624H120.284V157ZM138.156 147.04L139.596 145.408H137.388L136.86 146.008C135.924 145.432 134.748 145.12 133.404 145.12C129.468 145.12 127.092 147.928 127.092 151.192C127.092 152.776 127.644 154.24 128.652 155.344L127.212 157H129.372L129.924 156.376C130.884 156.952 132.036 157.288 133.404 157.288C137.388 157.288 139.74 154.456 139.74 151.192C139.74 149.608 139.188 148.144 138.156 147.04ZM130.908 151.192C130.908 149.656 131.796 148.384 133.404 148.384C133.836 148.384 134.22 148.48 134.556 148.648L131.148 152.512C130.98 152.128 130.908 151.672 130.908 151.192ZM133.404 154.024C132.948 154.024 132.564 153.928 132.228 153.76L135.684 149.848C135.852 150.256 135.948 150.712 135.948 151.192C135.948 152.752 135.036 154.024 133.404 154.024ZM141.688 157H145.384V149.656C145.864 148.984 147.136 148.576 148.096 148.576C148.48 148.576 148.792 148.624 149.008 148.696V145.12C147.616 145.12 146.152 145.936 145.384 146.872V145.408H141.688V157ZM155.844 155.512C157.068 156.592 159.204 157.288 161.268 157.288C164.604 157.288 166.548 155.656 166.548 153.448C166.548 150.376 163.62 149.896 161.652 149.56C160.428 149.344 159.804 149.152 159.804 148.624C159.804 148.12 160.404 147.832 161.268 147.832C162.66 147.832 163.98 148.432 164.676 149.104L166.092 146.656C164.844 145.744 163.188 145.12 161.244 145.12C158.028 145.12 156.276 146.896 156.276 148.936C156.276 151.888 159.06 152.296 161.028 152.632C162.228 152.824 163.02 153.04 163.02 153.64C163.02 154.144 162.564 154.504 161.46 154.504C160.092 154.504 158.244 153.736 157.38 152.968L155.844 155.512ZM175.797 157H180.357L175.869 150.688L180.141 145.408H175.677L172.149 150.04V140.992H168.453V157H172.149V154.216L173.253 152.896L175.797 157ZM188.395 157H192.091V149.752C192.091 146.152 189.475 145.12 186.691 145.12C184.915 145.12 182.923 145.648 181.435 146.92L182.755 149.248C183.691 148.456 184.891 148.024 186.043 148.024C187.531 148.024 188.395 148.696 188.395 149.704V151.168C187.699 150.304 186.331 149.824 184.795 149.824C183.019 149.824 180.811 150.664 180.811 153.472C180.811 156.088 183.019 157.288 184.795 157.288C186.283 157.288 187.675 156.712 188.395 155.848V157ZM188.395 154.024C188.011 154.576 187.147 154.864 186.331 154.864C185.347 154.864 184.483 154.432 184.483 153.52C184.483 152.608 185.347 152.176 186.331 152.176C187.147 152.176 188.011 152.464 188.395 152.992V154.024ZM199.166 157.288C200.534 157.288 201.446 156.952 201.902 156.52L201.182 153.736C201.062 153.88 200.654 154.024 200.246 154.024C199.598 154.024 199.214 153.52 199.214 152.848V148.624H201.566V145.408H199.214V142.24H195.542V145.408H193.622V148.624H195.542V153.88C195.542 156.112 196.814 157.288 199.166 157.288Z" fill="#333333"/>
<path d="M422.053 157V140.992H420.301L416.293 145.12L417.493 146.344L420.061 143.632V157H422.053ZM434.29 157V152.944H436.546V151.192H434.29V140.992H431.554L424.69 151.288V152.944H432.298V157H434.29ZM432.298 151.192H426.682L432.298 142.84V151.192ZM438.529 149.008C438.529 152.896 440.257 157.288 444.649 157.288C449.017 157.288 450.769 152.896 450.769 149.008C450.769 145.096 449.017 140.752 444.649 140.752C440.257 140.752 438.529 145.096 438.529 149.008ZM448.729 149.008C448.729 152.2 447.697 155.512 444.649 155.512C441.601 155.512 440.569 152.2 440.569 149.008C440.569 145.816 441.601 142.528 444.649 142.528C447.697 142.528 448.729 145.816 448.729 149.008ZM453.506 160.048C454.61 159.256 455.474 157.888 455.474 156.424C455.474 155.272 454.754 154.6 453.962 154.6C453.242 154.6 452.69 155.2 452.69 155.896C452.69 156.616 453.17 157.12 453.842 157.12C453.962 157.12 454.13 157.096 454.178 157.072C454.082 157.864 453.386 158.8 452.618 159.304L453.506 160.048ZM458.797 155.344C459.805 156.496 461.197 157.264 463.237 157.264C467.725 157.264 469.741 153.328 469.741 149.008C469.741 144.64 468.037 140.728 463.549 140.728C460.069 140.728 457.957 143.2 457.957 145.96C457.957 149.368 460.333 151.072 463.213 151.072C465.253 151.072 467.029 149.68 467.725 148.576C467.749 148.792 467.749 149.008 467.749 149.224C467.749 152.248 466.477 155.488 463.237 155.488C461.581 155.488 460.621 154.816 459.805 153.856L458.797 155.344ZM467.653 146.968C466.813 148.384 465.253 149.344 463.669 149.344C461.605 149.344 459.973 148.24 459.973 145.888C459.973 144.376 461.197 142.504 463.645 142.504C466.429 142.504 467.485 144.976 467.653 146.968ZM494.74 157V148.624C494.74 146.296 493.612 145.12 491.5 145.12C489.82 145.12 488.26 146.224 487.612 147.28C487.276 146.08 486.268 145.12 484.492 145.12C482.788 145.12 481.228 146.344 480.748 147.088V145.408H478.948V157H480.748V148.528C481.372 147.592 482.62 146.728 483.796 146.728C485.308 146.728 485.932 147.664 485.932 149.128V157H487.732V148.504C488.332 147.592 489.604 146.728 490.804 146.728C492.292 146.728 492.94 147.664 492.94 149.128V157H494.74ZM499.219 143.464C499.891 143.464 500.443 142.912 500.443 142.24C500.443 141.568 499.891 141.04 499.219 141.04C498.571 141.04 498.019 141.568 498.019 142.24C498.019 142.912 498.571 143.464 499.219 143.464ZM500.131 157V145.408H498.331V157H500.131ZM508.786 157.288C512.314 157.288 514.522 154.552 514.522 151.192C514.522 147.832 512.314 145.12 508.786 145.12C505.258 145.12 503.05 147.832 503.05 151.192C503.05 154.552 505.258 157.288 508.786 157.288ZM508.786 155.68C506.314 155.68 504.922 153.568 504.922 151.192C504.922 148.84 506.314 146.728 508.786 146.728C511.258 146.728 512.626 148.84 512.626 151.192C512.626 153.568 511.258 155.68 508.786 155.68ZM516.932 155.92C516.932 156.64 517.532 157.24 518.252 157.24C518.972 157.24 519.572 156.64 519.572 155.92C519.572 155.2 518.972 154.6 518.252 154.6C517.532 154.6 516.932 155.2 516.932 155.92ZM539.211 157L534.051 150.664L539.187 145.408H536.907L530.811 151.576V140.992H529.011V157H530.811V153.688L532.731 151.792L536.907 157H539.211ZM543.139 157V148.792C543.667 147.856 545.179 146.944 546.283 146.944C546.571 146.944 546.787 146.968 547.003 147.016V145.168C545.419 145.168 544.075 146.056 543.139 147.28V145.408H541.339V157H543.139ZM546.909 155.92C546.909 156.64 547.509 157.24 548.229 157.24C548.949 157.24 549.549 156.64 549.549 155.92C549.549 155.2 548.949 154.6 548.229 154.6C547.509 154.6 546.909 155.2 546.909 155.92Z" fill="#333333"/>
<path d="M706.912 157V140.992H705.16L701.152 145.12L702.352 146.344L704.92 143.632V157H706.912ZM710.797 155.344C711.805 156.496 713.197 157.264 715.237 157.264C719.725 157.264 721.741 153.328 721.741 149.008C721.741 144.64 720.037 140.728 715.549 140.728C712.069 140.728 709.957 143.2 709.957 145.96C709.957 149.368 712.333 151.072 715.213 151.072C717.253 151.072 719.029 149.68 719.725 148.576C719.749 148.792 719.749 149.008 719.749 149.224C719.749 152.248 718.477 155.488 715.237 155.488C713.581 155.488 712.621 154.816 711.805 153.856L710.797 155.344ZM719.653 146.968C718.813 148.384 717.253 149.344 715.669 149.344C713.605 149.344 711.973 148.24 711.973 145.888C711.973 144.376 713.197 142.504 715.645 142.504C718.429 142.504 719.485 144.976 719.653 146.968ZM735.249 157V155.224H727.401C731.865 151.696 735.177 148.72 735.177 145.456C735.177 142.264 732.465 140.752 729.801 140.752C727.545 140.752 725.457 141.664 724.233 143.272L725.457 144.544C726.393 143.344 727.881 142.528 729.801 142.528C731.457 142.528 733.137 143.416 733.137 145.456C733.137 148.216 730.017 150.88 724.257 155.416V157H735.249ZM739.326 160.048C740.43 159.256 741.294 157.888 741.294 156.424C741.294 155.272 740.574 154.6 739.782 154.6C739.062 154.6 738.51 155.2 738.51 155.896C738.51 156.616 738.99 157.12 739.662 157.12C739.782 157.12 739.95 157.096 739.998 157.072C739.902 157.864 739.206 158.8 738.438 159.304L739.326 160.048ZM743.298 154.648C744.282 156.088 746.274 157.288 748.986 157.288C752.514 157.288 754.65 155.344 754.65 152.68C754.65 150.112 752.418 148.864 750.954 148.744C752.466 148.48 754.41 147.328 754.41 145.024C754.41 142.312 752.058 140.752 748.986 140.752C746.514 140.752 744.666 141.832 743.514 143.224L744.618 144.472C745.794 143.2 747.09 142.528 748.842 142.528C750.786 142.528 752.418 143.488 752.418 145.264C752.418 147.112 750.714 147.904 748.698 147.904C748.05 147.904 747.306 147.904 747.042 147.88V149.704C747.282 149.68 748.026 149.68 748.698 149.68C751.05 149.68 752.682 150.52 752.682 152.512C752.682 154.36 751.266 155.512 748.938 155.512C747.042 155.512 745.41 154.648 744.474 153.4L743.298 154.648ZM779.74 157V148.624C779.74 146.296 778.612 145.12 776.5 145.12C774.82 145.12 773.26 146.224 772.612 147.28C772.276 146.08 771.268 145.12 769.492 145.12C767.788 145.12 766.228 146.344 765.748 147.088V145.408H763.948V157H765.748V148.528C766.372 147.592 767.62 146.728 768.796 146.728C770.308 146.728 770.932 147.664 770.932 149.128V157H772.732V148.504C773.332 147.592 774.604 146.728 775.804 146.728C777.292 146.728 777.94 147.664 777.94 149.128V157H779.74ZM784.219 143.464C784.891 143.464 785.443 142.912 785.443 142.24C785.443 141.568 784.891 141.04 784.219 141.04C783.571 141.04 783.019 141.568 783.019 142.24C783.019 142.912 783.571 143.464 784.219 143.464ZM785.131 157V145.408H783.331V157H785.131ZM793.786 157.288C797.314 157.288 799.522 154.552 799.522 151.192C799.522 147.832 797.314 145.12 793.786 145.12C790.258 145.12 788.05 147.832 788.05 151.192C788.05 154.552 790.258 157.288 793.786 157.288ZM793.786 155.68C791.314 155.68 789.922 153.568 789.922 151.192C789.922 148.84 791.314 146.728 793.786 146.728C796.258 146.728 797.626 148.84 797.626 151.192C797.626 153.568 796.258 155.68 793.786 155.68ZM801.932 155.92C801.932 156.64 802.532 157.24 803.252 157.24C803.972 157.24 804.572 156.64 804.572 155.92C804.572 155.2 803.972 154.6 803.252 154.6C802.532 154.6 801.932 155.2 801.932 155.92ZM824.211 157L819.051 150.664L824.187 145.408H821.907L815.811 151.576V140.992H814.011V157H815.811V153.688L817.731 151.792L821.907 157H824.211ZM828.139 157V148.792C828.667 147.856 830.179 146.944 831.283 146.944C831.571 146.944 831.787 146.968 832.003 147.016V145.168C830.419 145.168 829.075 146.056 828.139 147.28V145.408H826.339V157H828.139ZM831.909 155.92C831.909 156.64 832.509 157.24 833.229 157.24C833.949 157.24 834.549 156.64 834.549 155.92C834.549 155.2 833.949 154.6 833.229 154.6C832.509 154.6 831.909 155.2 831.909 155.92Z" fill="#333333"/>
<path d="M22.44 217H34.176V213.52H26.568V210.64H34.008V207.136H26.568V204.472H34.176V200.992H22.44V217ZM36.1648 219.976C37.6528 221.2 39.3088 221.704 41.3008 221.704C44.1808 221.704 47.9248 220.696 47.9248 215.968V205.408H44.2528V206.776C43.3168 205.624 42.1168 205.12 40.8208 205.12C37.9168 205.12 35.7088 207.136 35.7088 210.952C35.7088 214.864 37.9888 216.808 40.8208 216.808C42.1408 216.808 43.2928 216.256 44.2528 215.128V216.016C44.2528 218.176 42.5248 218.68 41.3008 218.68C39.9568 218.68 38.6608 218.296 37.7728 217.336L36.1648 219.976ZM44.2528 212.512C43.7968 213.136 42.8128 213.544 42.0448 213.544C40.5808 213.544 39.5008 212.656 39.5008 210.952C39.5008 209.272 40.5808 208.384 42.0448 208.384C42.8128 208.384 43.7968 208.792 44.2528 209.416V212.512ZM49.8651 211.192C49.8651 214.96 52.6251 217.288 56.2011 217.288C57.9771 217.288 59.8971 216.784 61.0491 215.752L59.4891 213.448C58.8411 214.024 57.6891 214.432 56.6571 214.432C54.9291 214.432 53.9211 213.448 53.7051 212.368H61.9611V211.576C61.9611 207.64 59.4651 205.12 56.0331 205.12C52.4091 205.12 49.8651 207.832 49.8651 211.192ZM56.0331 207.976C57.7371 207.976 58.3371 209.152 58.4331 209.968H53.6571C53.8011 209.128 54.4251 207.976 56.0331 207.976ZM71.6295 217H75.3255V208.792C75.3255 206.656 74.1255 205.12 71.4855 205.12C69.5415 205.12 68.1735 206.008 67.4775 206.824V205.408H63.7815V217H67.4775V209.512C67.9095 208.984 68.6295 208.384 69.7335 208.384C70.8855 208.384 71.6295 208.888 71.6295 210.304V217ZM85.3521 217H89.9121L85.4241 210.688L89.6961 205.408H85.2321L81.7041 210.04V200.992H78.0081V217H81.7041V214.216L82.8081 212.896L85.3521 217ZM97.9496 217H101.646V209.752C101.646 206.152 99.0296 205.12 96.2456 205.12C94.4696 205.12 92.4776 205.648 90.9896 206.92L92.3096 209.248C93.2456 208.456 94.4456 208.024 95.5976 208.024C97.0856 208.024 97.9496 208.696 97.9496 209.704V211.168C97.2536 210.304 95.8856 209.824 94.3496 209.824C92.5736 209.824 90.3656 210.664 90.3656 213.472C90.3656 216.088 92.5736 217.288 94.3496 217.288C95.8376 217.288 97.2296 216.712 97.9496 215.848V217ZM97.9496 214.024C97.5656 214.576 96.7016 214.864 95.8856 214.864C94.9016 214.864 94.0376 214.432 94.0376 213.52C94.0376 212.608 94.9016 212.176 95.8856 212.176C96.7016 212.176 97.5656 212.464 97.9496 212.992V214.024ZM108.024 221.416V215.632C108.984 216.784 110.16 217.288 111.456 217.288C114.36 217.288 116.544 215.128 116.544 211.192C116.544 207.28 114.36 205.12 111.456 205.12C110.136 205.12 108.936 205.648 108.024 206.752V205.408H104.328V221.416H108.024ZM112.776 211.192C112.776 212.944 111.672 214.024 110.232 214.024C109.44 214.024 108.48 213.568 108.024 212.968V209.44C108.48 208.816 109.44 208.384 110.232 208.384C111.672 208.384 112.776 209.464 112.776 211.192ZM120.333 203.944C121.509 203.944 122.445 203.008 122.445 201.832C122.445 200.656 121.509 199.72 120.333 199.72C119.157 199.72 118.221 200.656 118.221 201.832C118.221 203.008 119.157 203.944 120.333 203.944ZM118.485 217H122.181V205.408H118.485V217ZM129.252 217.288C130.62 217.288 131.532 216.952 131.988 216.52L131.268 213.736C131.148 213.88 130.74 214.024 130.332 214.024C129.684 214.024 129.3 213.52 129.3 212.848V208.624H131.652V205.408H129.3V202.24H125.628V205.408H123.708V208.624H125.628V213.88C125.628 216.112 126.9 217.288 129.252 217.288ZM140.348 217H144.044V209.752C144.044 206.152 141.428 205.12 138.644 205.12C136.868 205.12 134.876 205.648 133.388 206.92L134.708 209.248C135.644 208.456 136.844 208.024 137.996 208.024C139.484 208.024 140.348 208.696 140.348 209.704V211.168C139.652 210.304 138.284 209.824 136.748 209.824C134.972 209.824 132.764 210.664 132.764 213.472C132.764 216.088 134.972 217.288 136.748 217.288C138.236 217.288 139.628 216.712 140.348 215.848V217ZM140.348 214.024C139.964 214.576 139.1 214.864 138.284 214.864C137.3 214.864 136.436 214.432 136.436 213.52C136.436 212.608 137.3 212.176 138.284 212.176C139.1 212.176 139.964 212.464 140.348 212.992V214.024ZM146.727 217H150.423V200.992H146.727V217Z" fill="#333333"/>
<path d="M410.576 214.72C411.776 216.304 413.504 217.288 416.216 217.288C419.432 217.288 421.904 215.272 421.904 212.008C421.904 208.72 419.48 206.896 416.816 206.896C415.208 206.896 413.84 207.568 413.072 208.336V202.768H420.872V200.992H411.08V209.632L412.544 210.136C413.624 209.08 414.824 208.624 416.24 208.624C418.4 208.624 419.912 209.968 419.912 212.08C419.912 214.024 418.4 215.512 416.216 215.512C414.248 215.512 412.856 214.744 411.8 213.4L410.576 214.72ZM424.372 209.032C424.372 213.376 426.076 217.288 430.54 217.288C434.044 217.288 436.156 214.84 436.156 212.056C436.156 208.648 433.804 206.944 430.924 206.944C428.86 206.944 427.084 208.336 426.388 209.44C426.364 209.224 426.364 209.032 426.364 208.816C426.364 205.672 427.78 202.528 430.876 202.528C432.556 202.528 433.492 203.2 434.308 204.16L435.316 202.672C434.332 201.544 432.94 200.752 430.876 200.752C426.388 200.752 424.372 204.688 424.372 209.032ZM434.14 212.128C434.14 213.664 432.94 215.512 430.468 215.512C427.684 215.512 426.628 213.064 426.436 211.072C427.324 209.656 428.86 208.672 430.444 208.672C432.508 208.672 434.14 209.776 434.14 212.128ZM438.576 212.944C438.576 215.68 441.144 217.288 444.312 217.288C447.456 217.288 450.048 215.656 450.048 212.944C450.048 210.808 448.224 209.344 446.232 208.744C448.08 208.216 449.808 207.016 449.808 204.904C449.808 202.024 446.952 200.752 444.312 200.752C441.648 200.752 438.84 202.024 438.84 204.904C438.84 207.016 440.544 208.216 442.392 208.744C440.4 209.344 438.576 210.808 438.576 212.944ZM447.792 205.168C447.792 207.112 445.296 207.76 444.312 207.928C443.352 207.76 440.832 207.112 440.832 205.168C440.832 203.512 442.368 202.528 444.312 202.528C446.232 202.528 447.792 203.512 447.792 205.168ZM448.032 212.728C448.032 214.456 446.28 215.512 444.312 215.512C442.32 215.512 440.568 214.456 440.568 212.728C440.568 210.64 443.328 209.752 444.312 209.632C445.296 209.752 448.032 210.64 448.032 212.728ZM453.529 220.048C454.633 219.256 455.497 217.888 455.497 216.424C455.497 215.272 454.777 214.6 453.985 214.6C453.265 214.6 452.713 215.2 452.713 215.896C452.713 216.616 453.193 217.12 453.865 217.12C453.985 217.12 454.153 217.096 454.201 217.072C454.105 217.864 453.409 218.8 452.641 219.304L453.529 220.048ZM458.389 214.72C459.589 216.304 461.317 217.288 464.029 217.288C467.245 217.288 469.717 215.272 469.717 212.008C469.717 208.72 467.293 206.896 464.629 206.896C463.021 206.896 461.653 207.568 460.885 208.336V202.768H468.685V200.992H458.893V209.632L460.357 210.136C461.437 209.08 462.637 208.624 464.053 208.624C466.213 208.624 467.725 209.968 467.725 212.08C467.725 214.024 466.213 215.512 464.029 215.512C462.061 215.512 460.669 214.744 459.613 213.4L458.389 214.72ZM494.74 217V208.624C494.74 206.296 493.612 205.12 491.5 205.12C489.82 205.12 488.26 206.224 487.612 207.28C487.276 206.08 486.268 205.12 484.492 205.12C482.788 205.12 481.228 206.344 480.748 207.088V205.408H478.948V217H480.748V208.528C481.372 207.592 482.62 206.728 483.796 206.728C485.308 206.728 485.932 207.664 485.932 209.128V217H487.732V208.504C488.332 207.592 489.604 206.728 490.804 206.728C492.292 206.728 492.94 207.664 492.94 209.128V217H494.74ZM499.219 203.464C499.891 203.464 500.443 202.912 500.443 202.24C500.443 201.568 499.891 201.04 499.219 201.04C498.571 201.04 498.019 201.568 498.019 202.24C498.019 202.912 498.571 203.464 499.219 203.464ZM500.131 217V205.408H498.331V217H500.131ZM508.786 217.288C512.314 217.288 514.522 214.552 514.522 211.192C514.522 207.832 512.314 205.12 508.786 205.12C505.258 205.12 503.05 207.832 503.05 211.192C503.05 214.552 505.258 217.288 508.786 217.288ZM508.786 215.68C506.314 215.68 504.922 213.568 504.922 211.192C504.922 208.84 506.314 206.728 508.786 206.728C511.258 206.728 512.626 208.84 512.626 211.192C512.626 213.568 511.258 215.68 508.786 215.68ZM516.932 215.92C516.932 216.64 517.532 217.24 518.252 217.24C518.972 217.24 519.572 216.64 519.572 215.92C519.572 215.2 518.972 214.6 518.252 214.6C517.532 214.6 516.932 215.2 516.932 215.92ZM539.211 217L534.051 210.664L539.187 205.408H536.907L530.811 211.576V200.992H529.011V217H530.811V213.688L532.731 211.792L536.907 217H539.211ZM543.139 217V208.792C543.667 207.856 545.179 206.944 546.283 206.944C546.571 206.944 546.787 206.968 547.003 207.016V205.168C545.419 205.168 544.075 206.056 543.139 207.28V205.408H541.339V217H543.139ZM546.909 215.92C546.909 216.64 547.509 217.24 548.229 217.24C548.949 217.24 549.549 216.64 549.549 215.92C549.549 215.2 548.949 214.6 548.229 214.6C547.509 214.6 546.909 215.2 546.909 215.92Z" fill="#333333"/>
<path d="M705.696 217V212.944H707.952V211.192H705.696V200.992H702.96L696.096 211.288V212.944H703.704V217H705.696ZM703.704 211.192H698.088L703.704 202.84V211.192ZM709.935 209.032C709.935 213.376 711.639 217.288 716.103 217.288C719.607 217.288 721.719 214.84 721.719 212.056C721.719 208.648 719.367 206.944 716.487 206.944C714.423 206.944 712.647 208.336 711.951 209.44C711.927 209.224 711.927 209.032 711.927 208.816C711.927 205.672 713.343 202.528 716.439 202.528C718.119 202.528 719.055 203.2 719.871 204.16L720.879 202.672C719.895 201.544 718.503 200.752 716.439 200.752C711.951 200.752 709.935 204.688 709.935 209.032ZM719.703 212.128C719.703 213.664 718.503 215.512 716.031 215.512C713.247 215.512 712.191 213.064 711.999 211.072C712.887 209.656 714.423 208.672 716.007 208.672C718.071 208.672 719.703 209.776 719.703 212.128ZM724.115 209.032C724.115 213.376 725.819 217.288 730.283 217.288C733.787 217.288 735.899 214.84 735.899 212.056C735.899 208.648 733.547 206.944 730.667 206.944C728.603 206.944 726.827 208.336 726.131 209.44C726.107 209.224 726.107 209.032 726.107 208.816C726.107 205.672 727.523 202.528 730.619 202.528C732.299 202.528 733.235 203.2 734.051 204.16L735.059 202.672C734.075 201.544 732.683 200.752 730.619 200.752C726.131 200.752 724.115 204.688 724.115 209.032ZM733.883 212.128C733.883 213.664 732.683 215.512 730.211 215.512C727.427 215.512 726.371 213.064 726.179 211.072C727.067 209.656 728.603 208.672 730.187 208.672C732.251 208.672 733.883 209.776 733.883 212.128ZM739.326 220.048C740.43 219.256 741.294 217.888 741.294 216.424C741.294 215.272 740.574 214.6 739.782 214.6C739.062 214.6 738.51 215.2 738.51 215.896C738.51 216.616 738.99 217.12 739.662 217.12C739.782 217.12 739.95 217.096 739.998 217.072C739.902 217.864 739.206 218.8 738.438 219.304L739.326 220.048ZM743.298 214.648C744.282 216.088 746.274 217.288 748.986 217.288C752.514 217.288 754.65 215.344 754.65 212.68C754.65 210.112 752.418 208.864 750.954 208.744C752.466 208.48 754.41 207.328 754.41 205.024C754.41 202.312 752.058 200.752 748.986 200.752C746.514 200.752 744.666 201.832 743.514 203.224L744.618 204.472C745.794 203.2 747.09 202.528 748.842 202.528C750.786 202.528 752.418 203.488 752.418 205.264C752.418 207.112 750.714 207.904 748.698 207.904C748.05 207.904 747.306 207.904 747.042 207.88V209.704C747.282 209.68 748.026 209.68 748.698 209.68C751.05 209.68 752.682 210.52 752.682 212.512C752.682 214.36 751.266 215.512 748.938 215.512C747.042 215.512 745.41 214.648 744.474 213.4L743.298 214.648ZM779.74 217V208.624C779.74 206.296 778.612 205.12 776.5 205.12C774.82 205.12 773.26 206.224 772.612 207.28C772.276 206.08 771.268 205.12 769.492 205.12C767.788 205.12 766.228 206.344 765.748 207.088V205.408H763.948V217H765.748V208.528C766.372 207.592 767.62 206.728 768.796 206.728C770.308 206.728 770.932 207.664 770.932 209.128V217H772.732V208.504C773.332 207.592 774.604 206.728 775.804 206.728C777.292 206.728 777.94 207.664 777.94 209.128V217H779.74ZM784.219 203.464C784.891 203.464 785.443 202.912 785.443 202.24C785.443 201.568 784.891 201.04 784.219 201.04C783.571 201.04 783.019 201.568 783.019 202.24C783.019 202.912 783.571 203.464 784.219 203.464ZM785.131 217V205.408H783.331V217H785.131ZM793.786 217.288C797.314 217.288 799.522 214.552 799.522 211.192C799.522 207.832 797.314 205.12 793.786 205.12C790.258 205.12 788.05 207.832 788.05 211.192C788.05 214.552 790.258 217.288 793.786 217.288ZM793.786 215.68C791.314 215.68 789.922 213.568 789.922 211.192C789.922 208.84 791.314 206.728 793.786 206.728C796.258 206.728 797.626 208.84 797.626 211.192C797.626 213.568 796.258 215.68 793.786 215.68ZM801.932 215.92C801.932 216.64 802.532 217.24 803.252 217.24C803.972 217.24 804.572 216.64 804.572 215.92C804.572 215.2 803.972 214.6 803.252 214.6C802.532 214.6 801.932 215.2 801.932 215.92ZM824.211 217L819.051 210.664L824.187 205.408H821.907L815.811 211.576V200.992H814.011V217H815.811V213.688L817.731 211.792L821.907 217H824.211ZM828.139 217V208.792C828.667 207.856 830.179 206.944 831.283 206.944C831.571 206.944 831.787 206.968 832.003 207.016V205.168C830.419 205.168 829.075 206.056 828.139 207.28V205.408H826.339V217H828.139ZM831.909 215.92C831.909 216.64 832.509 217.24 833.229 217.24C833.949 217.24 834.549 216.64 834.549 215.92C834.549 215.2 833.949 214.6 833.229 214.6C832.509 214.6 831.909 215.2 831.909 215.92Z" fill="#333333"/>
<line x1="1150" y1="179.5" x2="1535" y2="179.5" stroke="#004376"/>
</g>
<defs>
<clipPath id="clip0_203_0">
<rect width="1152" height="240" fill="white"/>
</clipPath>
</defs>
</svg>
