<svg xmlns="http://www.w3.org/2000/svg" viewBox="0 0 1037 300"><defs><style>.cls-1{fill:#fff;}.cls-2{fill:#333;}.cls-3,.cls-4{fill:#f50;}.cls-3{fill-rule:evenodd;}.cls-5{fill:#2360a5;}</style></defs><g id="Layer_2" data-name="Layer 2"><g id="Layer_1-2" data-name="Layer 1"><g id="Layer_2-2" data-name="Layer 2"><g id="Layer_1-2-2" data-name="Layer 1-2"><circle class="cls-1" cx="150" cy="150" r="150"/><path class="cls-2" d="M66.34,167h1.59l3,7.82,3-7.82h1.59l-3.71,9.35H70.05Z"/><path class="cls-2" d="M76.4,167.64a.82.82,0,0,1,.82-.81.81.81,0,1,1,0,1.61h0a.81.81,0,0,1-.82-.8Zm.2,1.93h1.26v6.77H76.6Z"/><path class="cls-2" d="M91.7,171.83c0-.79-.35-1.31-1.18-1.31a2.17,2.17,0,0,0-1.68,1v4.85H87.58v-4.51c0-.79-.34-1.31-1.19-1.31a2.21,2.21,0,0,0-1.66,1v4.83H83.47v-6.77h1.26v1a2.94,2.94,0,0,1,2.19-1.12,1.75,1.75,0,0,1,1.83,1.27A2.85,2.85,0,0,1,91,169.4a1.76,1.76,0,0,1,1.92,2v4.89H91.7Z"/><path class="cls-2" d="M94.53,173A3.42,3.42,0,1,1,98,176.51a3.36,3.36,0,0,1-3.47-3.24Zm5.52,0a2.12,2.12,0,1,0-2.1,2.43,2.19,2.19,0,0,0,2.11-2.27A.86.86,0,0,0,100.05,173Z"/><path class="cls-2" d="M107.78,175.37a2.84,2.84,0,0,1-2.21,1.14c-1.77,0-3-1.33-3-3.55s1.26-3.56,3-3.56a2.76,2.76,0,0,1,2.21,1.15V167H109v9.35h-1.26Zm0-3.85a2.32,2.32,0,0,0-1.88-1c-1.26,0-2,1-2,2.44s.78,2.42,2,2.42a2.32,2.32,0,0,0,1.88-1Z"/><path class="cls-2" d="M111.31,174.84v-4.16h-1.13v-1.11h1.13v-1.85h1.26v1.85h1.37v1.11h-1.37v3.88c0,.48.22.82.65.82a1,1,0,0,0,.69-.26l.32.95a1.79,1.79,0,0,1-1.31.44,1.47,1.47,0,0,1-1.62-1.31A1.45,1.45,0,0,1,111.31,174.84Z"/><path class="cls-2" d="M119.51,175.6a2.92,2.92,0,0,1-2.21.91,2.26,2.26,0,0,1-2.36-2.16v-.09a2.19,2.19,0,0,1,2.14-2.22h.22a2.84,2.84,0,0,1,2.21.9v-1.12c0-.84-.68-1.35-1.65-1.35a2.78,2.78,0,0,0-2,.9l-.55-.87a3.81,3.81,0,0,1,2.77-1.11c1.48,0,2.72.65,2.72,2.37v4.57h-1.26Zm0-1.89a2.13,2.13,0,0,0-1.74-.78,1.36,1.36,0,1,0-.4,2.69,1.34,1.34,0,0,0,.4,0,2.12,2.12,0,0,0,1.74-.77Z"/><path class="cls-2" d="M123.33,177.15a2.67,2.67,0,0,0,2.17.9,1.88,1.88,0,0,0,2.09-1.62c0-.11,0-.21,0-.32v-.88a2.83,2.83,0,0,1-2.22,1.16c-1.75,0-3-1.28-3-3.5s1.27-3.49,3-3.49a2.73,2.73,0,0,1,2.22,1.15v-1h1.26v6.5c0,2.33-1.69,3-3.36,3a3.61,3.61,0,0,1-2.77-1Zm4.27-5.63a2.36,2.36,0,0,0-1.87-1,2.4,2.4,0,0,0,0,4.75,2.36,2.36,0,0,0,1.87-1Z"/><path class="cls-2" d="M133.83,169.4a3.35,3.35,0,0,1,3.29,3.66v.31h-5.35a2.22,2.22,0,0,0,2.3,2.1,2.82,2.82,0,0,0,2-.8l.59.83a3.8,3.8,0,0,1-2.72,1,3.56,3.56,0,0,1-.11-7.11Zm-2.07,3.06h4.13a2,2,0,0,0-2-2h-.06a2.07,2.07,0,0,0-2.07,2Z"/><path class="cls-2" d="M138.7,169.57H140v1a2.89,2.89,0,0,1,2.22-1.19v1.27a3.23,3.23,0,0,0-.44,0,2.41,2.41,0,0,0-1.78,1v4.71h-1.3Z"/><path class="cls-2" d="M151.87,175.37a2.84,2.84,0,0,1-2.22,1.14c-1.76,0-3-1.33-3-3.55s1.26-3.56,3-3.56a2.79,2.79,0,0,1,2.22,1.15V167h1.26v9.35h-1.26Zm0-3.85a2.32,2.32,0,0,0-1.88-1c-1.26,0-2.05,1-2.05,2.44a2.13,2.13,0,0,0,1.84,2.4l.21,0a2.32,2.32,0,0,0,1.88-1Z"/><path class="cls-2" d="M154.94,167.64a.82.82,0,0,1,.91-.72.81.81,0,0,1,.72.72.82.82,0,0,1-.91.72A.81.81,0,0,1,154.94,167.64Zm.2,1.93h1.26v6.77h-1.26Z"/><path class="cls-2" d="M163,172c0-1.12-.58-1.49-1.45-1.49a2.41,2.41,0,0,0-1.86,1v4.83H158.4v-6.77h1.26v1a3.27,3.27,0,0,1,2.4-1.12,2,2,0,0,1,2.17,1.81,2.41,2.41,0,0,1,0,.38v4.75H163Z"/><path class="cls-2" d="M174,175.6a2.92,2.92,0,0,1-2.21.91,2.26,2.26,0,0,1-2.35-2.15v-.1a2.19,2.19,0,0,1,2.14-2.22h.21a2.84,2.84,0,0,1,2.21.9v-1.12c0-.84-.68-1.35-1.65-1.35a2.78,2.78,0,0,0-2,.9l-.55-.87a3.85,3.85,0,0,1,2.78-1.11c1.47,0,2.71.65,2.71,2.37v4.57H174Zm0-1.89a2.12,2.12,0,0,0-1.74-.78,1.36,1.36,0,1,0-.4,2.69,1.34,1.34,0,0,0,.4,0,2.12,2.12,0,0,0,1.74-.77Z"/><path class="cls-2" d="M181.85,172c0-1.12-.57-1.49-1.44-1.49a2.41,2.41,0,0,0-1.86,1v4.83h-1.26v-6.77h1.26v1a3.2,3.2,0,0,1,2.39-1.12,2,2,0,0,1,2.17,1.81,2.41,2.41,0,0,1,0,.38v4.75h-1.26Z"/><path class="cls-2" d="M185.12,174.53a3.26,3.26,0,0,0,2.27,1c1,0,1.46-.39,1.46-1s-.77-.9-1.64-1.09c-1.15-.27-2.49-.58-2.49-2,0-1.08.92-2,2.58-2a3.6,3.6,0,0,1,2.57,1l-.56.88a2.65,2.65,0,0,0-2-.82c-.85,0-1.39.33-1.39.88s.73.78,1.57,1c1.18.27,2.58.59,2.58,2.14,0,1.17-.95,2.08-2.73,2.08a3.85,3.85,0,0,1-2.82-1Z"/><path class="cls-2" d="M198.08,173a3.36,3.36,0,0,1-3.15,3.55h-.27a3.48,3.48,0,0,1-1.81-.48l-.7,1-.5-.36.71-1a3.67,3.67,0,0,1-1.12-2.72,3.36,3.36,0,0,1,3.16-3.55h.26a3.47,3.47,0,0,1,1.86.51l.73-1,.49.35-.74,1A3.57,3.57,0,0,1,198.08,173Zm-5,1.69,2.71-3.76a1.92,1.92,0,0,0-1.16-.36,2.2,2.2,0,0,0-2.11,2.29.71.71,0,0,0,0,.14,2.62,2.62,0,0,0,.58,1.64Zm3.65-1.69a2.67,2.67,0,0,0-.5-1.64l-2.71,3.75a1.92,1.92,0,0,0,1.11.32,2.19,2.19,0,0,0,2.14-2.24,1.21,1.21,0,0,0,0-.19Z"/><path class="cls-2" d="M200.22,177.15a2.67,2.67,0,0,0,2.17.9,1.88,1.88,0,0,0,2.09-1.62c0-.11,0-.21,0-.32v-.88a2.85,2.85,0,0,1-2.23,1.16c-1.75,0-3-1.28-3-3.5s1.26-3.49,3-3.49a2.79,2.79,0,0,1,2.23,1.15v-1h1.26v6.5c0,2.33-1.69,3-3.36,3a3.62,3.62,0,0,1-2.78-1Zm4.27-5.63a2.35,2.35,0,0,0-1.88-1,2.4,2.4,0,0,0,0,4.75,2.38,2.38,0,0,0,1.88-1Z"/><path class="cls-2" d="M212.32,172c0-1.12-.58-1.49-1.45-1.49a2.41,2.41,0,0,0-1.86,1v4.83h-1.26v-6.77H209v1a3.23,3.23,0,0,1,2.39-1.12,2,2,0,0,1,2.18,1.8,2.54,2.54,0,0,1,0,.39v4.75h-1.26Z"/><path class="cls-2" d="M215.38,167.64a.82.82,0,0,1,.81-.81.81.81,0,0,1,0,1.61h0A.82.82,0,0,1,215.38,167.64Zm.19,1.93h1.26v6.77h-1.26Z"/><path class="cls-2" d="M223.4,172c0-1.12-.57-1.49-1.44-1.49a2.41,2.41,0,0,0-1.86,1v4.83h-1.26v-6.77h1.26v1a3.2,3.2,0,0,1,2.39-1.12,2,2,0,0,1,2.17,1.81,2.41,2.41,0,0,1,0,.38v4.75H223.4Z"/><path class="cls-2" d="M227.21,177.15a2.67,2.67,0,0,0,2.17.9,1.88,1.88,0,0,0,2.09-1.62c0-.11,0-.21,0-.32v-.88a2.85,2.85,0,0,1-2.23,1.16c-1.75,0-3-1.28-3-3.5s1.26-3.49,3-3.49a2.76,2.76,0,0,1,2.23,1.15v-1h1.26v6.5c0,2.33-1.69,3-3.36,3a3.57,3.57,0,0,1-2.77-1Zm4.27-5.63a2.35,2.35,0,0,0-1.88-1,2.4,2.4,0,0,0,0,4.75,2.38,2.38,0,0,0,1.88-1Z"/><path class="cls-2" d="M76.19,191.33a3.35,3.35,0,0,0,2.27,1c1,0,1.46-.39,1.46-1s-.77-.9-1.64-1.09c-1.15-.27-2.49-.58-2.49-2,0-1.08.92-2,2.58-2a3.6,3.6,0,0,1,2.57,1l-.56.88a2.65,2.65,0,0,0-2-.82c-.86,0-1.39.33-1.39.88s.73.78,1.57,1c1.18.27,2.58.59,2.58,2.14,0,1.17-1,2.08-2.73,2.08a3.84,3.84,0,0,1-2.82-1.05Z"/><path class="cls-2" d="M82.31,189.75a3.42,3.42,0,1,1,3.42,3.56A3.36,3.36,0,0,1,82.3,190,2.44,2.44,0,0,1,82.31,189.75Zm5.52,0a2.12,2.12,0,1,0-2.1,2.44,2.19,2.19,0,0,0,2.11-2.26A1.09,1.09,0,0,0,87.83,189.75Z"/><path class="cls-2" d="M99,188.63c0-.79-.35-1.31-1.17-1.31a2.21,2.21,0,0,0-1.69,1v4.85h-1.3v-4.51c0-.79-.33-1.31-1.19-1.31a2.21,2.21,0,0,0-1.65,1v4.84H90.74v-6.77H92v1a2.94,2.94,0,0,1,2.19-1.12A1.74,1.74,0,0,1,96,187.46a2.86,2.86,0,0,1,2.28-1.26c1.25,0,1.92.69,1.92,2.05v4.89H99Z"/><path class="cls-2" d="M105.83,183.79h1.26v3.56a2.73,2.73,0,0,1,2.22-1.15c1.76,0,3,1.39,3,3.56s-1.26,3.55-3,3.55a2.78,2.78,0,0,1-2.22-1.14v1h-1.26Zm3.14,8.4c1.26,0,2-1,2-2.43s-.78-2.44-2-2.44a2.38,2.38,0,0,0-1.88,1v2.88a2.34,2.34,0,0,0,1.91,1Z"/><path class="cls-2" d="M113.92,183.79h1.26v9.35h-1.26Z"/><path class="cls-2" d="M117,184.44a.82.82,0,0,1,.81-.81.81.81,0,0,1,0,1.61h0A.82.82,0,0,1,117,184.44Zm.19,1.93h1.27v6.77h-1.27Z"/><path class="cls-2" d="M119.45,186.37h1.35l2.11,5.31,2.12-5.31h1.36l-2.79,6.77h-1.36Z"/><path class="cls-2" d="M130.37,186.2a3.36,3.36,0,0,1,3.3,3.66v.31h-5.36a2.22,2.22,0,0,0,2.3,2.1,2.93,2.93,0,0,0,2-.8l.58.83a3.78,3.78,0,0,1-2.71,1,3.56,3.56,0,0,1-.12-7.11Zm-2.07,3.06h4.13a2,2,0,0,0-2-2h-.06a2.07,2.07,0,0,0-2.07,2Z"/><path class="cls-2" d="M135.24,186.37h1.26v1a2.89,2.89,0,0,1,2.22-1.19v1.27a1.62,1.62,0,0,0-.44,0,2.41,2.41,0,0,0-1.78,1v4.71h-1.26Z"/><path class="cls-2" d="M143.59,183.79h1.26v9.35h-1.26Z"/><path class="cls-2" d="M154.74,192.24a2.56,2.56,0,0,0,1.86-.8l.59.86a3.67,3.67,0,0,1-2.51,1,2.86,2.86,0,0,1-2.69-1.5,3.21,3.21,0,0,1-2.8,1.5c-1.44,0-2.73-.75-2.73-2.25a2.24,2.24,0,0,1,2.26-2.22h.22a3.37,3.37,0,0,1,2.42.87v-1.09c0-.84-.74-1.35-1.79-1.35a3.1,3.1,0,0,0-2.23.9l-.55-.87a4,4,0,0,1,2.89-1.11,2.29,2.29,0,0,1,2.42,1.39,2.76,2.76,0,0,1,2.5-1.39c1.9,0,3.05,1.59,3.05,3.66v.31h-5A2.1,2.1,0,0,0,154.74,192.24Zm-5.3-2.51c-1,0-1.71.47-1.71,1.26s.72,1.25,1.71,1.25a1.85,1.85,0,0,0,1.92-1.6v-.12a2.5,2.5,0,0,0-1.92-.79Zm5.07-2.49a2,2,0,0,0-1.9,2h3.81a1.94,1.94,0,0,0-1.88-2Z"/><path class="cls-2" d="M159.23,191.33a3.26,3.26,0,0,0,2.27,1c.95,0,1.45-.39,1.45-1s-.77-.9-1.64-1.09c-1.15-.27-2.49-.58-2.49-2,0-1.08.92-2,2.58-2a3.6,3.6,0,0,1,2.57,1l-.56.88a2.65,2.65,0,0,0-2-.82c-.85,0-1.39.33-1.39.88s.73.78,1.57,1c1.18.27,2.58.59,2.58,2.14,0,1.17-.95,2.08-2.73,2.08a3.84,3.84,0,0,1-2.82-1.05Z"/><path class="cls-2" d="M166,191.64v-4.16h-1.1v-1.11H166v-1.85h1.26v1.85h1.37v1.11h-1.37v3.88c0,.47.22.83.65.83a1,1,0,0,0,.69-.27l.32,1a1.79,1.79,0,0,1-1.31.44,1.46,1.46,0,0,1-1.62-1.3A1.48,1.48,0,0,1,166,191.64Z"/><path class="cls-2" d="M174.21,194a2.67,2.67,0,0,0,2.17.9,1.88,1.88,0,0,0,2.09-1.62c0-.11,0-.21,0-.32v-1a2.85,2.85,0,0,1-2.23,1.16c-1.75,0-3-1.28-3-3.5s1.26-3.49,3-3.49a2.79,2.79,0,0,1,2.23,1.15v-1h1.26v6.5c0,2.33-1.7,3-3.36,3a3.67,3.67,0,0,1-2.78-1Zm4.27-5.63a2.35,2.35,0,0,0-1.88-1,2.4,2.4,0,0,0,0,4.75,2.38,2.38,0,0,0,1.88-1Z"/><path class="cls-2" d="M181.74,186.37H183v1a2.89,2.89,0,0,1,2.21-1.19v1.27a1.55,1.55,0,0,0-.43,0,2.4,2.4,0,0,0-1.78,1v4.71h-1.26Z"/><path class="cls-2" d="M191,192.21a3.36,3.36,0,0,1-2.41,1.1,1.91,1.91,0,0,1-2.16-1.62,1.63,1.63,0,0,1,0-.54v-4.78h1.26v4.36c0,1.12.56,1.46,1.43,1.46a2.45,2.45,0,0,0,1.88-1v-4.86h1.26v6.77H191Z"/><path class="cls-2" d="M198.86,188.81c0-1.12-.57-1.49-1.44-1.49a2.41,2.41,0,0,0-1.86,1v4.84h-1.27v-6.77h1.27v1A3.23,3.23,0,0,1,198,186.2a2,2,0,0,1,2.17,1.81,2.41,2.41,0,0,1,0,.38v4.75h-1.26Z"/><path class="cls-2" d="M206.94,192.17a2.84,2.84,0,0,1-2.21,1.14c-1.77,0-3-1.34-3-3.55s1.26-3.56,3-3.56a2.76,2.76,0,0,1,2.21,1.15v-3.56h1.26v9.35h-1.26Zm0-3.85a2.32,2.32,0,0,0-1.88-1c-1.26,0-2,1-2,2.44s.78,2.43,2,2.43a2.35,2.35,0,0,0,1.88-1Z"/><path class="cls-2" d="M210,184.44a.81.81,0,1,1,.81.81A.81.81,0,0,1,210,184.44Zm.19,1.93h1.26v6.77h-1.26Z"/><path class="cls-2" d="M214,194a2.67,2.67,0,0,0,2.17.9,1.88,1.88,0,0,0,2.09-1.62c0-.11,0-.21,0-.32v-1a2.83,2.83,0,0,1-2.22,1.16c-1.76,0-3-1.28-3-3.5s1.26-3.49,3-3.49a2.73,2.73,0,0,1,2.22,1.15v-1h1.26v6.5c0,2.33-1.69,3-3.36,3a3.64,3.64,0,0,1-2.77-1Zm4.27-5.63a2.36,2.36,0,0,0-1.87-1,2.4,2.4,0,0,0,0,4.75,2.36,2.36,0,0,0,1.87-1Z"/><path class="cls-2" d="M221.8,191.64v-4.16h-1.12v-1.11h1.12v-1.85h1.27v1.85h1.37v1.11h-1.37v3.88c0,.47.22.83.65.83a1,1,0,0,0,.69-.27l.32,1a1.79,1.79,0,0,1-1.31.44,1.48,1.48,0,0,1-1.63-1.31A1.41,1.41,0,0,1,221.8,191.64Z"/><path class="cls-2" d="M59,201.24a.82.82,0,0,1,.81-.81.81.81,0,0,1,0,1.61h0A.82.82,0,0,1,59,201.24Zm.2,1.93h1.26v6.77H59.23Z"/><path class="cls-2" d="M63,210.75a2.69,2.69,0,0,0,2.18.9A1.88,1.88,0,0,0,67.27,210c0-.11,0-.21,0-.32v-.88a2.85,2.85,0,0,1-2.2,1.17c-1.75,0-3-1.28-3-3.5s1.26-3.49,3-3.49a2.79,2.79,0,0,1,2.23,1.15v-1h1.26v6.5c0,2.33-1.7,3-3.36,3a3.62,3.62,0,0,1-2.78-1Zm4.28-5.63a2.35,2.35,0,0,0-1.88-1,2.4,2.4,0,0,0,0,4.75,2.38,2.38,0,0,0,1.88-1Z"/><path class="cls-2" d="M73.54,203a3.35,3.35,0,0,1,3.29,3.66V207H71.48a2.2,2.2,0,0,0,2.29,2.1,2.93,2.93,0,0,0,2-.8l.58.83a3.78,3.78,0,0,1-2.71,1,3.56,3.56,0,0,1-.11-7.11Zm-2.08,3.06h4.13a2,2,0,0,0-2-2A2.07,2.07,0,0,0,71.46,206.06Z"/><path class="cls-2" d="M83,205.61c0-1.12-.57-1.49-1.44-1.49a2.41,2.41,0,0,0-1.86,1V210H78.41v-6.77h1.26v1A3.22,3.22,0,0,1,82.06,203a2,2,0,0,1,2.17,1.81,2.41,2.41,0,0,1,0,.38v4.75H83Z"/><path class="cls-2" d="M90.8,205.61c0-1.12-.58-1.49-1.45-1.49a2.41,2.41,0,0,0-1.86,1V210H86.23v-6.77h1.26v1a3.27,3.27,0,0,1,2.4-1.12,2,2,0,0,1,2.17,1.81,2.41,2.41,0,0,1,0,.38V210H90.8Z"/><path class="cls-2" d="M97,203a3.35,3.35,0,0,1,3.29,3.66V207H95a2.21,2.21,0,0,0,2.29,2.1,2.93,2.93,0,0,0,2-.8l.59.83a3.8,3.8,0,0,1-2.72,1A3.57,3.57,0,1,1,97,203Zm-2,3.06h4.14A2,2,0,0,0,97.21,204H97A2.08,2.08,0,0,0,95,206.06Z"/><path class="cls-2" d="M110.12,205.43c0-.79-.35-1.31-1.18-1.31a2.17,2.17,0,0,0-1.68,1V210H106v-4.51c0-.79-.34-1.31-1.19-1.31a2.21,2.21,0,0,0-1.65,1V210H101.9v-6.77h1.26v1a3,3,0,0,1,2.18-1.12,1.76,1.76,0,0,1,1.84,1.27,2.84,2.84,0,0,1,2.28-1.27c1.25,0,1.92.69,1.92,2V210h-1.26Z"/><path class="cls-2" d="M121.16,209.2a2.92,2.92,0,0,1-2.21.91A2.26,2.26,0,0,1,116.6,208v-.09a2.19,2.19,0,0,1,2.13-2.23H119a2.84,2.84,0,0,1,2.21.9v-1.12c0-.84-.68-1.35-1.65-1.35a2.78,2.78,0,0,0-2,.9l-.55-.87a3.85,3.85,0,0,1,2.78-1.11c1.47,0,2.71.65,2.71,2.37v4.57h-1.26Zm0-1.9a2.13,2.13,0,0,0-1.73-.77,1.36,1.36,0,1,0-.4,2.69,1.34,1.34,0,0,0,.4,0,2.12,2.12,0,0,0,1.73-.77Z"/><path class="cls-2" d="M124.74,204.28h-1.12v-1.11h1.12v-.45a2,2,0,0,1,1.72-2.24,1.94,1.94,0,0,1,.34,0,2.13,2.13,0,0,1,1.11.25l-.29.94a1.21,1.21,0,0,0-.61-.16c-.63,0-1,.42-1,1.23v.45h1.38v1.11H126v5.66h-1.26Z"/><path class="cls-2" d="M131.2,203.17h1.34l2.12,5.31,2.11-5.31h1.36l-2.79,6.77H134Z"/><path class="cls-2" d="M138.73,206.55a3.42,3.42,0,1,1,3.42,3.56,3.36,3.36,0,0,1-3.43-3.29A2.44,2.44,0,0,1,138.73,206.55Zm5.52,0a2.12,2.12,0,1,0-2.1,2.44,2.19,2.19,0,0,0,2.11-2.26A1.09,1.09,0,0,0,144.25,206.55Z"/><path class="cls-2" d="M147.16,203.17h1.26v1a2.9,2.9,0,0,1,2.21-1.19v1.27h-.43a2.4,2.4,0,0,0-1.78,1V210h-1.26Z"/><path class="cls-2" d="M154.86,203a3.35,3.35,0,0,1,3.29,3.66V207H152.8a2.22,2.22,0,0,0,2.3,2.1,2.86,2.86,0,0,0,2-.8l.59.83a3.8,3.8,0,0,1-2.72,1,3.56,3.56,0,0,1-.11-7.11Zm-2.07,3.06h4.13a2,2,0,0,0-2-2h-.06A2.07,2.07,0,0,0,152.79,206.06Z"/><path class="cls-2" d="M159.74,208.13a3.35,3.35,0,0,0,2.27,1c1,0,1.46-.39,1.46-1s-.77-.9-1.64-1.09c-1.15-.27-2.49-.58-2.49-2,0-1.08.92-2,2.58-2a3.6,3.6,0,0,1,2.57,1l-.56.88a2.65,2.65,0,0,0-2-.82c-.86,0-1.39.33-1.39.88s.73.78,1.57,1c1.18.27,2.58.59,2.58,2.14,0,1.17-.95,2.08-2.73,2.08a3.84,3.84,0,0,1-2.82-1Z"/><path class="cls-2" d="M174.71,209a2.78,2.78,0,0,1-2.21,1.14c-1.77,0-3-1.33-3-3.55s1.26-3.56,3-3.56a2.73,2.73,0,0,1,2.21,1.15v-3.56H176V210h-1.26Zm0-3.85a2.32,2.32,0,0,0-1.88-1c-1.26,0-2,1-2,2.44s.78,2.43,2,2.43a2.32,2.32,0,0,0,1.88-1Z"/><path class="cls-2" d="M178.41,211.56a.94.94,0,0,0,1-.66l.39-.89-2.8-6.84h1.35l2.11,5.31,2.12-5.31h1.35l-3.33,8.06a2.13,2.13,0,0,1-2.16,1.45,3.46,3.46,0,0,1-.78-.09l.2-1.14A1.46,1.46,0,0,0,178.41,211.56Z"/><path class="cls-2" d="M185.49,210.75a2.67,2.67,0,0,0,2.17.9,1.88,1.88,0,0,0,2.09-1.62c0-.11,0-.21,0-.32v-.88a2.85,2.85,0,0,1-2.23,1.16c-1.75,0-3-1.28-3-3.5s1.26-3.49,3-3.49a2.73,2.73,0,0,1,2.23,1.15v-1H191v6.5c0,2.33-1.69,3-3.36,3a3.61,3.61,0,0,1-2.77-1Zm4.27-5.63a2.35,2.35,0,0,0-1.88-1,2.4,2.4,0,0,0,0,4.75,2.38,2.38,0,0,0,1.88-1Z"/><path class="cls-2" d="M193.27,208.44v-4.16h-1.12v-1.11h1.12v-1.85h1.26v1.85h1.38v1.11h-1.38v3.88c0,.47.23.83.66.83a1,1,0,0,0,.69-.27l.32.95a1.81,1.81,0,0,1-1.32.44,1.49,1.49,0,0,1-1.62-1.33A1.29,1.29,0,0,1,193.27,208.44Z"/><path class="cls-2" d="M197.11,201.24a.82.82,0,0,1,.81-.81.81.81,0,0,1,0,1.61h0A.82.82,0,0,1,197.11,201.24Zm.2,1.93h1.26v6.77h-1.26Z"/><path class="cls-2" d="M201.11,210.75a2.67,2.67,0,0,0,2.17.9,1.88,1.88,0,0,0,2.1-1.63c0-.11,0-.21,0-.31v-.88a2.85,2.85,0,0,1-2.23,1.16c-1.75,0-3-1.28-3-3.5s1.26-3.49,3-3.49a2.79,2.79,0,0,1,2.23,1.15v-1h1.26v6.5c0,2.33-1.7,3-3.37,3a3.61,3.61,0,0,1-2.77-1Zm4.28-5.63a2.35,2.35,0,0,0-1.88-1,2.4,2.4,0,0,0,0,4.75,2.38,2.38,0,0,0,1.88-1Z"/><path class="cls-2" d="M211.61,203a3.36,3.36,0,0,1,3.3,3.66V207h-5.35a2.2,2.2,0,0,0,2.29,2.1,2.93,2.93,0,0,0,2-.8l.58.83a3.78,3.78,0,0,1-2.71,1,3.56,3.56,0,0,1-.12-7.11Zm-2.07,3.06h4.13a2,2,0,0,0-2-2h-.06A2.07,2.07,0,0,0,209.54,206.06Z"/><path class="cls-2" d="M220.41,204.28h-1.13v-1.11h1.13v-.45a2,2,0,0,1,1.72-2.24,1.83,1.83,0,0,1,.33,0,2.13,2.13,0,0,1,1.11.25l-.29.94a1.21,1.21,0,0,0-.61-.16c-.63,0-1,.42-1,1.23v.45H223v1.11h-1.37v5.66h-1.26Z"/><path class="cls-2" d="M223.82,206.55a3.42,3.42,0,1,1,3.42,3.56,3.36,3.36,0,0,1-3.43-3.29A2.44,2.44,0,0,1,223.82,206.55Zm5.52,0a2.12,2.12,0,1,0-2.1,2.44,2.19,2.19,0,0,0,2.11-2.26,1.09,1.09,0,0,0,0-.18Z"/><path class="cls-2" d="M232.25,200.59h1.26v9.35h-1.26Z"/><path class="cls-2" d="M237.79,207l-1,1v1.88h-1.26v-9.35h1.26v6l3.27-3.43h1.58l-2.92,3.07,3,3.7h-1.6Z"/><path class="cls-2" d="M60.42,218a.82.82,0,0,1,.82-.81.81.81,0,1,1,0,1.61h0a.81.81,0,0,1-.82-.8Zm.2,1.93h1.26v6.77H60.62Z"/><path class="cls-2" d="M67.52,217.39h3.94a2.88,2.88,0,0,1,.34,5.75,1.93,1.93,0,0,1-.34,0H68.92v3.6h-1.4Zm3.75,1.24H68.92v3.28h2.35a1.64,1.64,0,1,0,0-3.28Z"/><path class="cls-2" d="M78.62,219.8a3.36,3.36,0,0,1,3.3,3.66v.31H76.56a2.22,2.22,0,0,0,2.3,2.1,2.93,2.93,0,0,0,2-.8l.58.83a3.78,3.78,0,0,1-2.71,1,3.56,3.56,0,0,1-.12-7.11Zm-2.07,3.06h4.13a2,2,0,0,0-2-2h-.06A2.07,2.07,0,0,0,76.55,222.86Z"/><path class="cls-2" d="M83.07,223.35a3.42,3.42,0,1,1,3.42,3.56,3.36,3.36,0,0,1-3.43-3.29A2.44,2.44,0,0,1,83.07,223.35Zm5.52,0a2.12,2.12,0,1,0-2.1,2.44,2.19,2.19,0,0,0,2.11-2.26A1.09,1.09,0,0,0,88.59,223.35Z"/><path class="cls-2" d="M91.5,229.32V220h1.26v1A2.78,2.78,0,0,1,95,219.8c1.76,0,3,1.33,3,3.55s-1.25,3.56-3,3.56a2.73,2.73,0,0,1-2.22-1.15v3.56Zm3.14-8.4a2.32,2.32,0,0,0-1.88,1v2.87a2.38,2.38,0,0,0,1.88,1c1.26,0,2-1,2-2.44s-.74-2.43-2-2.43Z"/><path class="cls-2" d="M99.58,217.39h1.26v9.35H99.58Z"/><path class="cls-2" d="M105.81,219.8a3.35,3.35,0,0,1,3.29,3.66v.31h-5.35a2.22,2.22,0,0,0,2.3,2.1,2.86,2.86,0,0,0,2-.8l.59.83a3.8,3.8,0,0,1-2.72,1,3.56,3.56,0,0,1-.11-7.11Zm-2.07,3.06h4.13a2,2,0,0,0-2-2h-.06A2.07,2.07,0,0,0,103.74,222.86Z"/><path class="cls-2" d="M122,226.74h-1.69c-.25-.23-.57-.55-.92-.9a3.82,3.82,0,0,1-2.66,1.07c-1.64,0-3-.89-3-2.64a3.08,3.08,0,0,1,2-2.76,4.36,4.36,0,0,1-.69-2.07,2.28,2.28,0,0,1,2.34-2.2h.1a2,2,0,0,1,2.2,1.78.34.34,0,0,1,0,.1c0,1.42-1.17,2-2.35,2.61.35.47.71.91,1,1.24s.69.79,1,1.17a8.85,8.85,0,0,0,1-2.05l1,.48a12.4,12.4,0,0,1-1.27,2.35C120.71,225.52,121.28,226.09,122,226.74Zm-3.34-1.66a12.66,12.66,0,0,1-1.22-1.34c-.22-.34-.74-.91-1.1-1.41a2.16,2.16,0,0,0-1.22,1.84,1.67,1.67,0,0,0,1.63,1.71h.12a2.54,2.54,0,0,0,1.75-.8ZM116.9,221c.92-.47,1.71-.93,1.71-1.78a.94.94,0,0,0-.88-1h-.12a1.2,1.2,0,0,0-1.21,1.19v.07A3.05,3.05,0,0,0,116.9,221Z"/><path class="cls-2" d="M126.53,222.07a4.68,4.68,0,0,1,4.53-4.83h.26a4.23,4.23,0,0,1,3.71,2l-1.19.63a3,3,0,0,0-2.52-1.36,3.59,3.59,0,0,0,0,7.17,3,3,0,0,0,2.52-1.36L135,225a4.24,4.24,0,0,1-3.71,2,4.68,4.68,0,0,1-4.79-4.56C126.52,222.28,126.53,222.18,126.53,222.07Z"/><path class="cls-2" d="M141,225.81a3.36,3.36,0,0,1-2.41,1.1,1.91,1.91,0,0,1-2.16-1.62,1.63,1.63,0,0,1,0-.54V220h1.26v4.36c0,1.12.56,1.46,1.43,1.46a2.45,2.45,0,0,0,1.88-1V220h1.26v6.77H141Z"/><path class="cls-2" d="M144.22,217.39h1.27v9.35h-1.27Z"/><path class="cls-2" d="M147.74,225.24v-4.16h-1.12V220h1.12v-1.85H149V220h1.37v1.11H149V225c0,.48.22.83.66.83a1,1,0,0,0,.68-.27l.33.95a1.81,1.81,0,0,1-1.32.44,1.48,1.48,0,0,1-1.62-1.32A1.7,1.7,0,0,1,147.74,225.24Z"/><path class="cls-2" d="M156.34,225.81a3.36,3.36,0,0,1-2.41,1.1,1.91,1.91,0,0,1-2.16-1.62,1.63,1.63,0,0,1,0-.54V220H153v4.36c0,1.12.56,1.46,1.43,1.46a2.45,2.45,0,0,0,1.88-1V220h1.26v6.77h-1.26Z"/><path class="cls-2" d="M159.6,220h1.26v1a2.89,2.89,0,0,1,2.21-1.19v1.27a1.55,1.55,0,0,0-.43,0,2.4,2.4,0,0,0-1.78,1v4.71H159.6Z"/><path class="cls-2" d="M167.3,219.8a3.35,3.35,0,0,1,3.29,3.66v.31h-5.35a2.22,2.22,0,0,0,2.3,2.1,2.86,2.86,0,0,0,2-.8l.59.83a3.8,3.8,0,0,1-2.72,1,3.56,3.56,0,0,1-.11-7.11Zm-2.08,3.06h4.14a2,2,0,0,0-2-2h-.06A2.08,2.08,0,0,0,165.22,222.86Z"/><path class="cls-2" d="M180,226a2.92,2.92,0,0,1-2.21.91,2.26,2.26,0,0,1-2.35-2.15v-.1a2.19,2.19,0,0,1,2.14-2.22h.21a2.84,2.84,0,0,1,2.21.9v-1.12c0-.84-.68-1.35-1.65-1.35a2.78,2.78,0,0,0-2,.9l-.55-.87a3.85,3.85,0,0,1,2.78-1.11c1.47,0,2.71.65,2.71,2.37v4.57H180Zm0-1.9a2.12,2.12,0,0,0-1.73-.77,1.36,1.36,0,1,0-.4,2.69,1.34,1.34,0,0,0,.4,0,2.09,2.09,0,0,0,1.73-.77Z"/><path class="cls-2" d="M183.54,221.08h-1.12V220h1.12v-.45a2,2,0,0,1,1.71-2.25,2.06,2.06,0,0,1,.35,0,2.23,2.23,0,0,1,1.1.26l-.29.94a1.15,1.15,0,0,0-.6-.16c-.64,0-1,.42-1,1.23V220h1.37v1.11H184.8v5.66h-1.26Z"/><path class="cls-2" d="M192.19,225.77a2.84,2.84,0,0,1-2.21,1.14c-1.77,0-3-1.33-3-3.55s1.26-3.56,3-3.56a2.76,2.76,0,0,1,2.21,1.15v-3.56h1.26v9.35h-1.26Zm0-3.85a2.32,2.32,0,0,0-1.88-1c-1.26,0-2,1-2,2.44s.78,2.43,2,2.43a2.32,2.32,0,0,0,1.88-1Z"/><path class="cls-2" d="M198.43,219.8a3.36,3.36,0,0,1,3.3,3.66v.31h-5.36a2.22,2.22,0,0,0,2.3,2.1,2.82,2.82,0,0,0,2-.8l.59.83a3.78,3.78,0,0,1-2.71,1,3.56,3.56,0,0,1-.12-7.11Zm-2.07,3.06h4.13a2,2,0,0,0-2-2h-.06a2.07,2.07,0,0,0-2.07,2Z"/><path class="cls-2" d="M203.3,217.39h1.26v9.35H203.3Z"/><path class="cls-2" d="M206.37,218a.82.82,0,0,1,.81-.81.81.81,0,0,1,0,1.61h0A.82.82,0,0,1,206.37,218Zm.2,1.93h1.26v6.77h-1.26Z"/><path class="cls-2" d="M214.39,222.41c0-1.12-.57-1.49-1.44-1.49a2.41,2.41,0,0,0-1.86,1v4.83h-1.26V220h1.26V221a3.23,3.23,0,0,1,2.39-1.12,2,2,0,0,1,2.17,1.81,2.41,2.41,0,0,1,0,.38v4.75h-1.26Z"/><path class="cls-2" d="M218.2,227.55a2.67,2.67,0,0,0,2.17.9,1.88,1.88,0,0,0,2.09-1.62c0-.11,0-.21,0-.32v-.88a2.85,2.85,0,0,1-2.23,1.16c-1.75,0-3-1.29-3-3.5s1.26-3.49,3-3.49a2.76,2.76,0,0,1,2.23,1.15v-1h1.26v6.5c0,2.33-1.69,3-3.36,3a3.61,3.61,0,0,1-2.77-1Zm4.27-5.63a2.35,2.35,0,0,0-1.88-1,2.4,2.4,0,0,0,0,4.75,2.38,2.38,0,0,0,1.88-1Z"/><path class="cls-2" d="M228.7,219.8a3.35,3.35,0,0,1,3.29,3.66v.31h-5.35a2.22,2.22,0,0,0,2.3,2.1,2.86,2.86,0,0,0,2-.8l.59.83a3.8,3.8,0,0,1-2.72,1,3.56,3.56,0,0,1-.11-7.11Zm-2.07,3.06h4.13a2,2,0,0,0-2-2h-.06a2.07,2.07,0,0,0-2.07,2Z"/><path class="cls-2" d="M238.14,222.41c0-1.12-.58-1.49-1.45-1.49a2.41,2.41,0,0,0-1.86,1v4.83h-1.26V220h1.26V221a3.27,3.27,0,0,1,2.4-1.12,2,2,0,0,1,2.17,1.81,2.16,2.16,0,0,1,0,.36v4.75h-1.26Z"/><path class="cls-2" d="M25.76,138.82a5,5,0,0,1,4.56,2.48L28,142.52a2.63,2.63,0,0,0-2.25-1.27,3.09,3.09,0,1,0,0,6.18,3.34,3.34,0,0,0,2-.64v-.9H25.32v-2.28h5.16v4.17a6.16,6.16,0,0,1-4.72,2.08,5.53,5.53,0,1,1,0-11Z"/><path class="cls-2" d="M32,141.94h2.46v1a3.38,3.38,0,0,1,2.42-1.17v2.38a2.49,2.49,0,0,0-.61-.08,2.45,2.45,0,0,0-1.81.72v4.9H32Z"/><path class="cls-2" d="M43.24,148.74a3.51,3.51,0,0,1-2.67,1.12A2.23,2.23,0,0,1,38,148a1.87,1.87,0,0,1,0-.53v-5.51h2.46v4.5c0,.93.48,1.25,1.28,1.25a1.83,1.83,0,0,0,1.47-.76v-5h2.47v7.73H43.24Z"/><path class="cls-2" d="M52.73,145.21c0-1-.49-1.28-1.26-1.28a1.91,1.91,0,0,0-1.51.75v5H47.5V142H50v1a3.5,3.5,0,0,1,2.68-1.14,2.28,2.28,0,0,1,2.55,2,2.57,2.57,0,0,1,0,.48v5.47H52.73Z"/><path class="cls-2" d="M62.19,148.78a3,3,0,0,1-2.29,1.08c-1.91,0-3.43-1.44-3.43-4.06s1.49-4.05,3.43-4.05a2.88,2.88,0,0,1,2.29,1.1V139h2.45v10.67H62.19Zm0-4.17a2,2,0,0,0-1.49-.68A1.71,1.71,0,0,0,59,145.62a1.09,1.09,0,0,0,0,.18,1.72,1.72,0,0,0,1.54,1.88h.16a2,2,0,0,0,1.49-.71Z"/><path class="cls-2" d="M66.27,139.56a1.41,1.41,0,1,1,1.42,1.4h0a1.39,1.39,0,0,1-1.4-1.38Zm.17,2.38h2.47v7.73H66.44Z"/><path class="cls-2" d="M71.56,149.9a3.11,3.11,0,0,0,2.35.89,1.74,1.74,0,0,0,2-1.46,1.62,1.62,0,0,0,0-.31v-.6a2.88,2.88,0,0,1-2.29,1.12c-1.88,0-3.4-1.29-3.4-3.9s1.47-3.89,3.4-3.89a2.82,2.82,0,0,1,2.29,1.1v-.91h2.45v7c0,3.16-2.49,3.83-4.42,3.83a5.17,5.17,0,0,1-3.42-1.15Zm4.32-5.29a2,2,0,0,0-1.47-.68,1.72,1.72,0,0,0,0,3.44h0a2,2,0,0,0,1.47-.69Z"/><path class="cls-2" d="M85.1,149.9a3.08,3.08,0,0,0,2.35.89,1.74,1.74,0,0,0,2-1.46,1.62,1.62,0,0,0,0-.31v-.6a2.88,2.88,0,0,1-2.29,1.12c-1.89,0-3.41-1.29-3.41-3.9s1.47-3.89,3.41-3.89a2.88,2.88,0,0,1,2.29,1.1v-.91H91.9v7c0,3.16-2.5,3.83-4.42,3.83A5.09,5.09,0,0,1,84,151.66Zm4.32-5.29a2,2,0,0,0-1.47-.68,1.72,1.72,0,1,0,0,3.44h0a2,2,0,0,0,1.47-.69Z"/><path class="cls-2" d="M97.27,141.75a4,4,0,0,1,4,4.3v.53H95.72a1.86,1.86,0,0,0,2,1.38,3,3,0,0,0,1.89-.66l1,1.54a5,5,0,0,1-3.23,1,4.06,4.06,0,0,1-.5-8.1h.38ZM95.69,145h3.19a1.5,1.5,0,0,0-1.61-1.33A1.53,1.53,0,0,0,95.69,145Z"/><path class="cls-2" d="M107.68,145.21a1.13,1.13,0,0,0-.93-1.28,1,1,0,0,0-.34,0,1.88,1.88,0,0,0-1.5.75v5h-2.47V142h2.47v1a3.48,3.48,0,0,1,2.67-1.14,2.28,2.28,0,0,1,2.55,2,2.57,2.57,0,0,1,0,.48v5.47h-2.46Z"/><path class="cls-2" d="M117.16,145.21c0-1-.49-1.28-1.26-1.28a1.91,1.91,0,0,0-1.51.75v5h-2.46V142h2.46v1a3.5,3.5,0,0,1,2.68-1.14,2.28,2.28,0,0,1,2.55,2,2.57,2.57,0,0,1,0,.48v5.47h-2.47Z"/><path class="cls-2" d="M125,141.75a4,4,0,0,1,4,4.3v.53h-5.5a1.83,1.83,0,0,0,2,1.38,3,3,0,0,0,1.89-.66l1,1.54a5,5,0,0,1-3.23,1,4.06,4.06,0,1,1-.5-8.1h.39ZM123.43,145h3.19a1.49,1.49,0,0,0-1.6-1.33A1.54,1.54,0,0,0,123.43,145Z"/><path class="cls-2" d="M139.93,145a.93.93,0,0,0-.85-1h-.15a1.8,1.8,0,0,0-1.39.75v5h-2.47V145a.92.92,0,0,0-.83-1h-.17a1.81,1.81,0,0,0-1.38.75v5h-2.47V142h2.47V143a3.43,3.43,0,0,1,2.54-1.14,2.1,2.1,0,0,1,2.2,1.37,3.32,3.32,0,0,1,2.67-1.37,2.08,2.08,0,0,1,2.32,1.81,2.18,2.18,0,0,1,0,.51v5.6H140Z"/><path class="cls-2" d="M145.05,149.9a3.11,3.11,0,0,0,2.35.89,1.74,1.74,0,0,0,2-1.46,1.62,1.62,0,0,0,0-.31v-.6a2.88,2.88,0,0,1-2.29,1.12c-1.89,0-3.41-1.29-3.41-3.9s1.48-3.89,3.41-3.89a2.82,2.82,0,0,1,2.29,1.1v-.91h2.45v7c0,3.16-2.5,3.83-4.42,3.83a5.12,5.12,0,0,1-3.42-1.15Zm4.32-5.29a2,2,0,0,0-1.47-.68,1.72,1.72,0,0,0,0,3.44h0a2,2,0,0,0,1.47-.69Z"/><path class="cls-2" d="M158.19,148.9a3.19,3.19,0,0,1-2.4,1,2.55,2.55,0,0,1-2.66-2.44v-.1a2.39,2.39,0,0,1,2.31-2.45l.35,0a3.11,3.11,0,0,1,2.4.89v-1c0-.68-.58-1.12-1.57-1.12a3.47,3.47,0,0,0-2.2.81l-.88-1.55a5.46,5.46,0,0,1,3.51-1.2c1.86,0,3.6.69,3.6,3.09v4.83h-2.46Zm0-1.9a1.79,1.79,0,0,0-1.38-.55c-.66,0-1.23.29-1.23.9s.57.9,1.23.9a1.72,1.72,0,0,0,1.38-.56Z"/><path class="cls-2" d="M167.67,145.21c0-1-.49-1.28-1.26-1.28a1.88,1.88,0,0,0-1.5.75v5h-2.47V142h2.47v1a3.48,3.48,0,0,1,2.67-1.14,2.28,2.28,0,0,1,2.55,2,2.57,2.57,0,0,1,0,.48v5.47h-2.47Z"/><path class="cls-2" d="M172.79,149.9a3.14,3.14,0,0,0,2.36.89,1.73,1.73,0,0,0,2-1.44,1.83,1.83,0,0,0,0-.33v-.6a2.87,2.87,0,0,1-2.28,1.12c-1.89,0-3.41-1.29-3.41-3.9s1.47-3.89,3.41-3.89a2.82,2.82,0,0,1,2.28,1.1v-.91h2.45v7c0,3.16-2.49,3.83-4.41,3.83a5.16,5.16,0,0,1-3.43-1.15Zm4.32-5.29a2,2,0,0,0-1.47-.68,1.72,1.72,0,1,0,0,3.44,2,2,0,0,0,1.47-.69Z"/><path class="cls-2" d="M190,148.9a3.17,3.17,0,0,1-2.41,1,2.55,2.55,0,0,1-2.65-2.45v-.09a2.37,2.37,0,0,1,2.31-2.44,1.9,1.9,0,0,1,.34,0,3.14,3.14,0,0,1,2.41.89v-1c0-.68-.58-1.12-1.57-1.12a3.47,3.47,0,0,0-2.2.81l-.88-1.55a5.46,5.46,0,0,1,3.51-1.2c1.86,0,3.6.69,3.6,3.09v4.83H190Zm0-1.9a1.79,1.79,0,0,0-1.38-.55c-.66,0-1.23.29-1.23.9s.57.9,1.23.9a1.72,1.72,0,0,0,1.38-.56Z"/><path class="cls-2" d="M194.81,144.09h-1.28v-2.15h1.28v-.38a2.62,2.62,0,0,1,2.51-2.72h.26a3.43,3.43,0,0,1,1.63.35l-.45,1.68a1.32,1.32,0,0,0-.64-.16.81.81,0,0,0-.86.76.76.76,0,0,0,0,.15v.32h1.57v2.15h-1.57v5.58h-2.46Z"/><path class="cls-2" d="M208.52,148.9a3.19,3.19,0,0,1-2.4,1,2.57,2.57,0,0,1-2.66-2.46v-.08a2.38,2.38,0,0,1,2.33-2.44,1.82,1.82,0,0,1,.33,0,3.1,3.1,0,0,1,2.4.89v-1c0-.68-.57-1.12-1.57-1.12a3.39,3.39,0,0,0-2.19.81l-.88-1.55a5.46,5.46,0,0,1,3.51-1.2c1.85,0,3.6.69,3.6,3.09v4.83h-2.47Zm0-1.9a1.72,1.72,0,0,0-1.37-.55c-.66,0-1.24.29-1.24.9s.58.9,1.24.9a1.7,1.7,0,0,0,1.37-.56Z"/><path class="cls-2" d="M218,145.21a1.12,1.12,0,0,0-.91-1.28,1,1,0,0,0-.35,0,1.91,1.91,0,0,0-1.51.75v5h-2.46V142h2.46v1a3.48,3.48,0,0,1,2.67-1.14,2.29,2.29,0,0,1,2.56,2,2.36,2.36,0,0,1,0,.46v5.47H218Z"/><path class="cls-2" d="M222.63,147a4.72,4.72,0,0,0,2.72,1c.74,0,1-.24,1-.58s-.52-.54-1.33-.67c-1.31-.23-3.16-.5-3.16-2.47,0-1.36,1.16-2.54,3.31-2.54a5.56,5.56,0,0,1,3.23,1l-.94,1.64a3.46,3.46,0,0,0-2.28-.85c-.57,0-1,.19-1,.53s.41.48,1.23.62c1.31.22,3.27.54,3.27,2.59,0,1.48-1.3,2.56-3.53,2.56a5.73,5.73,0,0,1-3.61-1.18Z"/><path class="cls-2" d="M237.93,145.8a4,4,0,0,1-3.93,4.07h-.29a4.46,4.46,0,0,1-2-.41l-.7,1-.85-.61.67-.94a4.1,4.1,0,0,1,2.57-7.15h.27a4.62,4.62,0,0,1,2,.43l.74-1,.83.59-.7,1A4,4,0,0,1,237.93,145.8Zm-5.62,1.1,2.07-2.85a1.89,1.89,0,0,0-.67-.12,1.68,1.68,0,0,0-1.72,1.64,1.77,1.77,0,0,0,0,.23,2.22,2.22,0,0,0,.31,1.1Zm3.09-1.1a2.18,2.18,0,0,0-.25-1.06l-2.05,2.85a1.73,1.73,0,0,0,2.21-1.05,1.86,1.86,0,0,0,.09-.74Z"/><path class="cls-2" d="M240.09,149.9a3.08,3.08,0,0,0,2.35.89,1.74,1.74,0,0,0,2-1.46,1.62,1.62,0,0,0,0-.31v-.6a2.88,2.88,0,0,1-2.29,1.12c-1.89,0-3.41-1.29-3.41-3.9s1.47-3.89,3.41-3.89a2.82,2.82,0,0,1,2.29,1.1v-.91h2.45v7c0,3.16-2.5,3.83-4.42,3.83a5.12,5.12,0,0,1-3.42-1.15Zm4.32-5.29a2,2,0,0,0-1.47-.68,1.72,1.72,0,1,0,0,3.44,2,2,0,0,0,1.47-.69Z"/><path class="cls-2" d="M253.9,145.21a1.13,1.13,0,0,0-.93-1.28,1,1,0,0,0-.34,0,1.92,1.92,0,0,0-1.5.75v5h-2.47V142h2.47v1a3.48,3.48,0,0,1,2.67-1.14,2.28,2.28,0,0,1,2.55,2,2.57,2.57,0,0,1,0,.48v5.47H253.9Z"/><path class="cls-2" d="M258,139.56a1.41,1.41,0,1,1,1.42,1.4h0a1.39,1.39,0,0,1-1.4-1.38Zm.17,2.38h2.47v7.73h-2.47Z"/><path class="cls-2" d="M267.64,145.21c0-1-.49-1.28-1.26-1.28a1.91,1.91,0,0,0-1.51.75v5h-2.46V142h2.46v1a3.5,3.5,0,0,1,2.68-1.14,2.28,2.28,0,0,1,2.55,2,2.57,2.57,0,0,1,0,.48v5.47h-2.47Z"/><path class="cls-2" d="M272.76,149.9a3.11,3.11,0,0,0,2.35.89,1.74,1.74,0,0,0,2-1.46,1.62,1.62,0,0,0,0-.31v-.6a2.88,2.88,0,0,1-2.29,1.12c-1.89,0-3.41-1.29-3.41-3.9s1.48-3.89,3.41-3.89a2.82,2.82,0,0,1,2.29,1.1v-.91h2.45v7c0,3.16-2.5,3.83-4.42,3.83a5.17,5.17,0,0,1-3.42-1.15Zm4.32-5.29a2,2,0,0,0-1.47-.68,1.72,1.72,0,0,0,0,3.44,2,2,0,0,0,1.47-.69Z"/><path class="cls-3" d="M142.37,37.51h35.9a3.3,3.3,0,0,1,3.26,3.26v75.48a3.26,3.26,0,0,1-3.26,3.26H121.73a3.26,3.26,0,0,1-3.26-3.26h0V61.34a4.85,4.85,0,0,1,1.43-3.43l19-19A4.83,4.83,0,0,1,142.37,37.51ZM125,67.45v43.89a1.71,1.71,0,0,0,1.66,1.66h46.62a1.6,1.6,0,0,0,1.6-1.6h0V45.68a1.59,1.59,0,0,0-1.58-1.6H148.51a1.61,1.61,0,0,0-1.61,1.6V62.6a3.26,3.26,0,0,1-3.26,3.25h-17A1.61,1.61,0,0,0,125,67.43Zm7.11,12.75h35.78a.82.82,0,0,1,.8.8v3.25a.78.78,0,0,1-.76.8H132.11a.78.78,0,0,1-.8-.76V81a.78.78,0,0,1,.76-.8Zm35.78,10.45H132.11a.78.78,0,0,0-.8.76v3.3a.78.78,0,0,0,.76.8h35.82a.78.78,0,0,0,.8-.76v-3.3A.86.86,0,0,0,167.89,90.65Zm-35.78,10.52h35.78a.82.82,0,0,1,.8.8v3.25a.78.78,0,0,1-.76.8H132.11a.78.78,0,0,1-.8-.76V102a.78.78,0,0,1,.73-.83Z"/><circle class="cls-1" cx="518.5" cy="150" r="150"/><path class="cls-2" d="M418.92,167.49h1.4v9.35h-1.4Z"/><path class="cls-2" d="M426.94,172.51c0-1.12-.57-1.49-1.44-1.49a2.41,2.41,0,0,0-1.86,1v4.83h-1.26v-6.77h1.26v1A3.23,3.23,0,0,1,426,169.9a2,2,0,0,1,2.18,1.8,2.54,2.54,0,0,1,0,.39v4.75h-1.27Z"/><path class="cls-2" d="M435,175.87a2.78,2.78,0,0,1-2.21,1.14c-1.77,0-3-1.33-3-3.55s1.26-3.56,3-3.56a2.73,2.73,0,0,1,2.21,1.15v-3.56h1.26v9.35H435Zm0-3.85a2.31,2.31,0,0,0-1.87-1c-1.27,0-2,1-2,2.44a2.13,2.13,0,0,0,1.84,2.4l.16,0a2.29,2.29,0,0,0,1.87-1Z"/><path class="cls-2" d="M441.27,169.9a3.35,3.35,0,0,1,3.29,3.66v.31h-5.35a2.2,2.2,0,0,0,2.29,2.1,2.93,2.93,0,0,0,2-.8l.58.83a3.78,3.78,0,0,1-2.71,1,3.56,3.56,0,0,1-.11-7.11Zm-2.08,3.1h4.13a2,2,0,0,0-2-2h-.05A2.08,2.08,0,0,0,439.19,173Z"/><path class="cls-2" d="M450.7,172.51c0-1.12-.57-1.49-1.44-1.49a2.41,2.41,0,0,0-1.86,1v4.83h-1.26v-6.77h1.26v1a3.2,3.2,0,0,1,2.39-1.12,2,2,0,0,1,2.17,1.81,2.41,2.41,0,0,1,0,.38v4.75H450.7Z"/><path class="cls-2" d="M454.27,171.18h-1.12v-1.11h1.12v-.45a2,2,0,0,1,1.71-2.25,2.06,2.06,0,0,1,.35,0,2.24,2.24,0,0,1,1.11.26l-.3.94a1.15,1.15,0,0,0-.6-.16c-.63,0-1,.42-1,1.23v.45h1.37v1.11h-1.37v5.66h-1.26Z"/><path class="cls-2" d="M457.69,173.45A3.42,3.42,0,1,1,461.1,177a3.35,3.35,0,0,1-3.41-3.3A2.08,2.08,0,0,1,457.69,173.45Zm5.51,0a2.12,2.12,0,1,0-2.1,2.43,2.19,2.19,0,0,0,2.11-2.27A.86.86,0,0,0,463.2,173.45Z"/><path class="cls-2" d="M466.11,170.07h1.26v1a2.89,2.89,0,0,1,2.22-1.19v1.27a3.23,3.23,0,0,0-.44,0,2.41,2.41,0,0,0-1.78,1v4.71h-1.26Z"/><path class="cls-2" d="M477.43,169.9a3.35,3.35,0,0,1,3.29,3.66v.31h-5.35a2.21,2.21,0,0,0,2.29,2.1,2.93,2.93,0,0,0,2-.8l.59.83a3.8,3.8,0,0,1-2.72,1,3.56,3.56,0,0,1-.11-7.11Zm-2.08,3.1h4.14a2,2,0,0,0-2-2h-.06A2.08,2.08,0,0,0,475.35,173Z"/><path class="cls-2" d="M486.86,172.51c0-1.12-.57-1.49-1.44-1.49a2.41,2.41,0,0,0-1.86,1v4.83H482.3v-6.77h1.26v1A3.24,3.24,0,0,1,486,169.9a2,2,0,0,1,2.17,1.81,2.41,2.41,0,0,1,0,.38v4.75h-1.26Z"/><path class="cls-2" d="M498.3,175.91a3.36,3.36,0,0,1-2.41,1.1,1.91,1.91,0,0,1-2.16-1.62,1.63,1.63,0,0,1,0-.54v-4.78H495v4.36c0,1.12.57,1.45,1.43,1.45a2.4,2.4,0,0,0,1.88-.95v-4.86h1.26v6.77H498.3Z"/><path class="cls-2" d="M502.11,177.65a2.67,2.67,0,0,0,2.17.9,1.88,1.88,0,0,0,2.09-1.62c0-.11,0-.21,0-.32v-.88a2.85,2.85,0,0,1-2.23,1.16c-1.75,0-3-1.28-3-3.5s1.26-3.49,3-3.49a2.79,2.79,0,0,1,2.23,1.15v-1h1.26v6.5c0,2.33-1.7,3-3.36,3a3.62,3.62,0,0,1-2.78-1Zm4.27-5.63a2.35,2.35,0,0,0-1.88-1,2.4,2.4,0,0,0,0,4.75,2.38,2.38,0,0,0,1.88-1Z"/><path class="cls-2" d="M512.61,169.9a3.35,3.35,0,0,1,3.29,3.66v.31h-5.35a2.22,2.22,0,0,0,2.3,2.1,2.86,2.86,0,0,0,2-.8l.59.83a3.8,3.8,0,0,1-2.72,1,3.56,3.56,0,0,1-.11-7.11Zm-2.08,3.1h4.14a2,2,0,0,0-2-2h-.06A2.08,2.08,0,0,0,510.53,173Z"/><path class="cls-2" d="M521.1,175a3.26,3.26,0,0,0,2.27,1c1,0,1.46-.39,1.46-1s-.77-.9-1.64-1.09c-1.15-.27-2.49-.58-2.49-2,0-1.08.92-2,2.57-2a3.63,3.63,0,0,1,2.58,1l-.56.88a2.65,2.65,0,0,0-2-.82c-.86,0-1.39.33-1.39.88s.73.78,1.57,1c1.18.27,2.58.59,2.58,2.14,0,1.17-.95,2.08-2.73,2.08a3.85,3.85,0,0,1-2.82-1Z"/><path class="cls-2" d="M530.61,169.9a3.35,3.35,0,0,1,3.29,3.66v.31h-5.35a2.22,2.22,0,0,0,2.3,2.1,2.86,2.86,0,0,0,2-.8l.59.83a3.8,3.8,0,0,1-2.72,1,3.56,3.56,0,0,1-.11-7.11Zm-2.07,3.1h4.13a2,2,0,0,0-2-2h-.06A2.07,2.07,0,0,0,528.54,173Z"/><path class="cls-2" d="M540.05,172.51c0-1.12-.58-1.49-1.45-1.49a2.41,2.41,0,0,0-1.86,1v4.83h-1.26v-6.77h1.26v1a3.27,3.27,0,0,1,2.4-1.12,2,2,0,0,1,2.17,1.81,2.41,2.41,0,0,1,0,.38v4.75h-1.26Z"/><path class="cls-2" d="M548.12,175.87a2.78,2.78,0,0,1-2.21,1.14c-1.76,0-3-1.33-3-3.55s1.26-3.56,3-3.56a2.73,2.73,0,0,1,2.21,1.15v-3.56h1.27v9.35h-1.27Zm0-3.85a2.29,2.29,0,0,0-1.87-1c-1.26,0-2,1-2,2.44a2.13,2.13,0,0,0,1.84,2.4l.16,0a2.29,2.29,0,0,0,1.87-1Z"/><path class="cls-2" d="M554.37,169.9a3.35,3.35,0,0,1,3.29,3.66v.31h-5.35a2.22,2.22,0,0,0,2.3,2.1,2.86,2.86,0,0,0,2-.8l.59.83a3.8,3.8,0,0,1-2.72,1,3.56,3.56,0,0,1-.11-7.11Zm-2.08,3.1h4.14a2,2,0,0,0-2-2h-.06A2.08,2.08,0,0,0,552.29,173Z"/><path class="cls-2" d="M559.24,170.07h1.26v1a2.9,2.9,0,0,1,2.21-1.19v1.27a3.09,3.09,0,0,0-.43,0,2.4,2.4,0,0,0-1.78,1v4.71h-1.26Z"/><path class="cls-2" d="M566.59,170.07h1.34l2.12,5.31,2.11-5.31h1.36l-2.79,6.77h-1.35Z"/><path class="cls-2" d="M574.34,168.14a.82.82,0,0,1,.82-.81.81.81,0,1,1,0,1.61h0a.81.81,0,0,1-.82-.8Zm.2,1.93h1.26v6.77h-1.26Z"/><path class="cls-2" d="M586.23,175.87A2.77,2.77,0,0,1,584,177c-1.77,0-3-1.33-3-3.55s1.26-3.56,3-3.56a2.73,2.73,0,0,1,2.21,1.15v-3.56h1.26v9.35h-1.26Zm0-3.85a2.31,2.31,0,0,0-1.87-1c-1.27,0-2.05,1-2.05,2.44a2.13,2.13,0,0,0,1.84,2.4l.21,0a2.29,2.29,0,0,0,1.87-1Z"/><path class="cls-2" d="M589.31,168.14a.82.82,0,0,1,.81-.81.81.81,0,0,1,0,1.61h0A.82.82,0,0,1,589.31,168.14Zm.2,1.93h1.26v6.77h-1.26Z"/><path class="cls-2" d="M593.31,177.65a2.67,2.67,0,0,0,2.17.9,1.88,1.88,0,0,0,2.1-1.63c0-.11,0-.21,0-.31v-.88a2.85,2.85,0,0,1-2.23,1.16c-1.75,0-3-1.28-3-3.5s1.26-3.49,3-3.49a2.79,2.79,0,0,1,2.23,1.15v-1h1.26v6.5c0,2.33-1.7,3-3.37,3a3.61,3.61,0,0,1-2.77-1Zm4.28-5.63a2.38,2.38,0,0,0-1.88-1,2.4,2.4,0,0,0,0,4.75,2.38,2.38,0,0,0,1.88-1Z"/><path class="cls-2" d="M607.43,169.9a3.35,3.35,0,0,1,3.29,3.66v.31h-5.35a2.22,2.22,0,0,0,2.3,2.1,2.86,2.86,0,0,0,2-.8l.59.83a3.8,3.8,0,0,1-2.72,1,3.56,3.56,0,0,1-.11-7.11Zm-2.08,3.1h4.14a2,2,0,0,0-2-2h-.06A2.08,2.08,0,0,0,605.35,173Z"/><path class="cls-2" d="M616.86,172.51c0-1.12-.57-1.49-1.44-1.49a2.41,2.41,0,0,0-1.86,1v4.83H612.3v-6.77h1.26v1A3.24,3.24,0,0,1,616,169.9a2,2,0,0,1,2.17,1.81,2.41,2.41,0,0,1,0,.38v4.75h-1.26Z"/><path class="cls-2" d="M428.38,190.25a3.42,3.42,0,1,1,3.41,3.56,3.37,3.37,0,0,1-3.42-3.3A2.26,2.26,0,0,1,428.38,190.25Zm5.52,0a2.13,2.13,0,1,0-2.11,2.44,2.2,2.2,0,0,0,2.12-2.28A.86.86,0,0,0,433.9,190.25Z"/><path class="cls-2" d="M436.8,196.21v-9.34h1.27v1a2.75,2.75,0,0,1,2.21-1.14c1.76,0,3,1.34,3,3.55s-1.25,3.56-3,3.56a2.71,2.71,0,0,1-2.21-1.15v3.55Zm3.14-8.39a2.29,2.29,0,0,0-1.87,1v2.87a2.36,2.36,0,0,0,1.87,1c1.26,0,2-1,2-2.44S441.2,187.82,439.94,187.82Z"/><path class="cls-2" d="M449.7,192.67a2.84,2.84,0,0,1-2.21,1.14c-1.77,0-3-1.34-3-3.55s1.26-3.56,3-3.56a2.73,2.73,0,0,1,2.21,1.15v-3.56H451v9.35h-1.3Zm0-3.85a2.32,2.32,0,0,0-1.88-1c-1.26,0-2,1-2,2.44s.78,2.43,2,2.43a2.32,2.32,0,0,0,1.88-1Z"/><path class="cls-2" d="M457.15,192.9a2.92,2.92,0,0,1-2.21.91,2.26,2.26,0,0,1-2.36-2.16v-.09a2.19,2.19,0,0,1,2.14-2.22h.22a2.84,2.84,0,0,1,2.21.9v-1.12c0-.84-.69-1.35-1.65-1.35a2.78,2.78,0,0,0-2,.9l-.55-.87a3.81,3.81,0,0,1,2.77-1.11c1.47,0,2.72.65,2.72,2.37v4.57h-1.26Zm0-1.9a2.15,2.15,0,0,0-1.74-.77,1.36,1.36,0,1,0-.4,2.69,1.34,1.34,0,0,0,.4,0,2.12,2.12,0,0,0,1.74-.77Z"/><path class="cls-2" d="M460.67,192.14V188h-1.12v-1.11h1.12V185h1.27v1.85h1.37V188h-1.37v3.88c0,.47.22.83.65.83a1,1,0,0,0,.69-.27l.32,1a1.79,1.79,0,0,1-1.31.44,1.49,1.49,0,0,1-1.64-1.31A1.55,1.55,0,0,1,460.67,192.14Z"/><path class="cls-2" d="M467.68,186.7a3.35,3.35,0,0,1,3.29,3.66v.31h-5.35a2.21,2.21,0,0,0,2.29,2.1,2.93,2.93,0,0,0,2-.8l.59.83a3.8,3.8,0,0,1-2.72,1,3.56,3.56,0,0,1-.11-7.11Zm-2.08,3.06h4.14a2,2,0,0,0-2-2h-.06A2.08,2.08,0,0,0,465.6,189.76Z"/><path class="cls-2" d="M472.55,186.87h1.26v1a2.89,2.89,0,0,1,2.21-1.19V188a1.55,1.55,0,0,0-.43,0,2.4,2.4,0,0,0-1.78,1v4.71h-1.26Z"/><path class="cls-2" d="M477.08,184.94a.82.82,0,0,1,.82-.81.81.81,0,0,1,0,1.61h0a.81.81,0,0,1-.82-.8Zm.2,1.93h1.26v6.77h-1.26Z"/><path class="cls-2" d="M485.11,189.31c0-1.12-.58-1.49-1.45-1.49a2.43,2.43,0,0,0-1.86,1v4.84h-1.26v-6.77h1.26v1a3.27,3.27,0,0,1,2.4-1.12,2,2,0,0,1,2.17,1.81,2.41,2.41,0,0,1,0,.38v4.75h-1.26Z"/><path class="cls-2" d="M488.91,194.45a2.67,2.67,0,0,0,2.17.9,1.88,1.88,0,0,0,2.09-1.62c0-.11,0-.21,0-.32v-.88a2.83,2.83,0,0,1-2.22,1.16c-1.75,0-3-1.28-3-3.5s1.26-3.49,3-3.49a2.73,2.73,0,0,1,2.22,1.15v-1h1.27v6.5c0,2.33-1.7,3-3.37,3a3.64,3.64,0,0,1-2.77-1Zm4.27-5.63a2.36,2.36,0,0,0-1.87-1,2.4,2.4,0,0,0,0,4.75,2.36,2.36,0,0,0,1.87-1Z"/><path class="cls-2" d="M500.06,196.21v-9.34h1.26v1a2.75,2.75,0,0,1,2.21-1.14c1.76,0,3,1.34,3,3.55s-1.25,3.56-3,3.56a2.71,2.71,0,0,1-2.21-1.15v3.55Zm3.13-8.39a2.29,2.29,0,0,0-1.87,1v2.87a2.36,2.36,0,0,0,1.87,1c1.26,0,2-1,2-2.44S504.45,187.82,503.19,187.82Z"/><path class="cls-2" d="M512.31,192.9a2.92,2.92,0,0,1-2.21.91,2.26,2.26,0,0,1-2.36-2.14v-.11a2.19,2.19,0,0,1,2.14-2.22h.22a2.84,2.84,0,0,1,2.21.9v-1.12c0-.84-.69-1.35-1.65-1.35a2.82,2.82,0,0,0-2,.9l-.54-.87a3.81,3.81,0,0,1,2.77-1.11c1.47,0,2.72.65,2.72,2.37v4.57h-1.26Zm0-1.9a2.15,2.15,0,0,0-1.74-.77,1.36,1.36,0,1,0-.4,2.69,1.34,1.34,0,0,0,.4,0,2.12,2.12,0,0,0,1.74-.77Zm-1.43-7.74a1.42,1.42,0,1,1-1.3,1.3A1.43,1.43,0,0,1,510.88,183.26Zm0,.64a.79.79,0,0,0-.77.77.77.77,0,0,0,1.54,0h0a.76.76,0,0,0-.77-.77Z"/><path class="cls-2" d="M524,192.67a2.78,2.78,0,0,1-2.21,1.14c-1.77,0-3-1.34-3-3.55s1.26-3.56,3-3.56a2.73,2.73,0,0,1,2.21,1.15v-3.56h1.26v9.35H524Zm0-3.85a2.31,2.31,0,0,0-1.87-1c-1.27,0-2,1-2,2.44s.78,2.43,2,2.43a2.33,2.33,0,0,0,1.87-1Z"/><path class="cls-2" d="M527.09,184.94a.82.82,0,0,1,.81-.81.81.81,0,0,1,0,1.61h0A.82.82,0,0,1,527.09,184.94Zm.2,1.93h1.26v6.77h-1.26Z"/><path class="cls-2" d="M535.11,189.31c0-1.12-.57-1.49-1.44-1.49a2.41,2.41,0,0,0-1.86,1v4.84h-1.26v-6.77h1.26v1a3.23,3.23,0,0,1,2.39-1.12,2,2,0,0,1,2.17,1.81,2.41,2.41,0,0,1,0,.38v4.75h-1.26Z"/><path class="cls-2" d="M546.16,192.9a2.92,2.92,0,0,1-2.21.91,2.26,2.26,0,0,1-2.36-2.16v-.09a2.19,2.19,0,0,1,2.14-2.22H544a2.84,2.84,0,0,1,2.21.9v-1.12c0-.84-.69-1.35-1.65-1.35a2.78,2.78,0,0,0-2,.9l-.55-.87a3.81,3.81,0,0,1,2.77-1.11c1.47,0,2.72.65,2.72,2.37v4.57h-1.26Zm0-1.9a2.15,2.15,0,0,0-1.74-.77,1.36,1.36,0,1,0-.4,2.69,1.34,1.34,0,0,0,.4,0,2.12,2.12,0,0,0,1.74-.77Z"/><path class="cls-2" d="M554,189.31c0-1.12-.58-1.49-1.44-1.49a2.45,2.45,0,0,0-1.87,1v4.84h-1.26v-6.77h1.26v1a3.27,3.27,0,0,1,2.4-1.12,2,2,0,0,1,2.17,1.81,2.41,2.41,0,0,1,0,.38v4.75H554Z"/><path class="cls-2" d="M557.27,191.83a3.3,3.3,0,0,0,2.27,1c1,0,1.46-.39,1.46-1s-.77-.9-1.64-1.09c-1.15-.27-2.49-.58-2.49-2,0-1.08.92-2,2.57-2a3.63,3.63,0,0,1,2.58,1l-.56.88a2.65,2.65,0,0,0-2-.82c-.86,0-1.39.33-1.39.88s.73.78,1.57,1c1.18.27,2.58.59,2.58,2.14,0,1.17-1,2.08-2.73,2.08a3.84,3.84,0,0,1-2.82-1.05Z"/><path class="cls-2" d="M570.22,190.25a3.34,3.34,0,0,1-3.13,3.55h-.28a3.39,3.39,0,0,1-1.81-.48l-.7,1-.5-.36.71-1a3.65,3.65,0,0,1-1.12-2.71,3.36,3.36,0,0,1,3.16-3.55h.26a3.47,3.47,0,0,1,1.86.51l.73-1,.49.35-.74,1A3.64,3.64,0,0,1,570.22,190.25Zm-5,1.69,2.72-3.77a2,2,0,0,0-1.16-.35,2.2,2.2,0,0,0-2.11,2.29.71.71,0,0,0,0,.14,2.66,2.66,0,0,0,.57,1.69Zm3.66-1.69a2.6,2.6,0,0,0-.51-1.64l-2.7,3.75a1.9,1.9,0,0,0,1.11.33,2.2,2.2,0,0,0,2.14-2.26,1.09,1.09,0,0,0,0-.18Z"/><path class="cls-2" d="M572.36,194.45a2.69,2.69,0,0,0,2.18.9,1.88,1.88,0,0,0,2.09-1.62c0-.11,0-.21,0-.32v-.88a2.85,2.85,0,0,1-2.23,1.16c-1.75,0-3-1.28-3-3.5s1.26-3.49,3-3.49a2.79,2.79,0,0,1,2.23,1.15v-1h1.26v6.5c0,2.33-1.7,3-3.36,3a3.67,3.67,0,0,1-2.78-1Zm4.28-5.63a2.35,2.35,0,0,0-1.88-1,2.4,2.4,0,0,0,0,4.75,2.38,2.38,0,0,0,1.88-1Z"/><path class="cls-2" d="M584.46,189.31c0-1.12-.57-1.49-1.44-1.49a2.41,2.41,0,0,0-1.86,1v4.84H579.9v-6.77h1.26v1a3.2,3.2,0,0,1,2.39-1.12,2,2,0,0,1,2.17,1.81,2.41,2.41,0,0,1,0,.38v4.75h-1.26Z"/><path class="cls-2" d="M587.53,184.94a.81.81,0,1,1,.81.81A.81.81,0,0,1,587.53,184.94Zm.19,1.93H589v6.77h-1.26Z"/><path class="cls-2" d="M595.55,189.31c0-1.12-.58-1.49-1.44-1.49a2.45,2.45,0,0,0-1.87,1v4.84H591v-6.77h1.26v1a3.27,3.27,0,0,1,2.4-1.12,2,2,0,0,1,2.17,1.81,2.41,2.41,0,0,1,0,.38v4.75h-1.26Z"/><path class="cls-2" d="M599.36,194.45a2.67,2.67,0,0,0,2.17.9,1.88,1.88,0,0,0,2.09-1.62c0-.11,0-.21,0-.32v-.88a2.85,2.85,0,0,1-2.23,1.16c-1.75,0-3-1.28-3-3.5s1.26-3.49,3-3.49a2.79,2.79,0,0,1,2.23,1.15v-1h1.26v6.5c0,2.33-1.7,3-3.36,3a3.67,3.67,0,0,1-2.78-1Zm4.27-5.63a2.35,2.35,0,0,0-1.88-1,2.4,2.4,0,0,0,0,4.75,2.38,2.38,0,0,0,1.88-1Z"/><path class="cls-2" d="M607.53,192a.88.88,0,1,1-.87.89v0A.88.88,0,0,1,607.53,192Z"/><path class="cls-2" d="M424.92,206.26h-5.17v4.18h-1.4v-9.35h1.4V205h5.17v-3.93h1.4v9.35h-1.4Z"/><path class="cls-2" d="M427.37,203.67h1.34l2.12,5.31,2.11-5.31h1.36l-2.78,6.77h-1.36Z"/><path class="cls-2" d="M435.13,201.74a.81.81,0,1,1,.81.81A.81.81,0,0,1,435.13,201.74Zm.19,1.93h1.26v6.77h-1.26Z"/><path class="cls-2" d="M438.6,208.63a3.3,3.3,0,0,0,2.27,1c.95,0,1.45-.39,1.45-1s-.77-.9-1.64-1.09c-1.14-.27-2.49-.58-2.49-2,0-1.08.93-2,2.58-2a3.63,3.63,0,0,1,2.58,1l-.56.88a2.69,2.69,0,0,0-2-.82c-.85,0-1.38.33-1.38.88s.72.78,1.56,1c1.18.27,2.58.59,2.58,2.14,0,1.17-1,2.08-2.73,2.08a3.8,3.8,0,0,1-2.81-1Z"/><path class="cls-2" d="M453.57,209.47a2.84,2.84,0,0,1-2.22,1.14c-1.76,0-3-1.33-3-3.55s1.26-3.56,3-3.56a2.79,2.79,0,0,1,2.22,1.15v-3.56h1.26v9.35h-1.26Zm0-3.85a2.32,2.32,0,0,0-1.88-1c-1.26,0-2.05,1-2.05,2.44a2.14,2.14,0,0,0,1.85,2.41l.2,0a2.32,2.32,0,0,0,1.88-1Z"/><path class="cls-2" d="M461.41,209.51a3.36,3.36,0,0,1-2.41,1.1,1.91,1.91,0,0,1-2.16-1.62,1.63,1.63,0,0,1,0-.54v-4.78h1.26V208c0,1.12.56,1.46,1.43,1.46a2.45,2.45,0,0,0,1.88-1V203.6h1.26v6.77h-1.26Z"/><path class="cls-2" d="M468.08,201.74A.82.82,0,0,1,469,201a.81.81,0,0,1,.72.72.82.82,0,0,1-.91.72A.81.81,0,0,1,468.08,201.74Zm.2,1.93h1.26v6.77h-1.26Z"/><path class="cls-2" d="M473.82,207.52l-1,1v1.88h-1.26v-9.35h1.26v6l3.26-3.43h1.59l-2.92,3.07,2.94,3.7H476.1Z"/><path class="cls-2" d="M481.1,207.52l-1,1v1.88h-1.26v-9.35h1.26v6l3.26-3.43h1.58L482,206.74l2.94,3.7h-1.59Z"/><path class="cls-2" d="M488.73,203.5a3.35,3.35,0,0,1,3.29,3.66v.31h-5.35a2.22,2.22,0,0,0,2.3,2.1,2.86,2.86,0,0,0,2-.8l.59.83a3.8,3.8,0,0,1-2.72,1,3.56,3.56,0,0,1-.11-7.11Zm-2.07,3.06h4.13a2,2,0,0,0-2-2h-.06A2.07,2.07,0,0,0,486.66,206.56Z"/><path class="cls-2" d="M497.76,211.25a2.67,2.67,0,0,0,2.17.9,1.88,1.88,0,0,0,2.09-1.62c0-.11,0-.21,0-.32v-.88a2.85,2.85,0,0,1-2.23,1.16c-1.75,0-3-1.28-3-3.5s1.26-3.49,3-3.49a2.73,2.73,0,0,1,2.23,1.15v-1h1.26v6.5c0,2.33-1.69,3-3.36,3a3.61,3.61,0,0,1-2.77-1Zm4.27-5.63a2.35,2.35,0,0,0-1.88-1,2.4,2.4,0,0,0,0,4.75,2.38,2.38,0,0,0,1.88-1Z"/><path class="cls-2" d="M509.47,209.7a3,3,0,0,1-2.22.91,2.26,2.26,0,0,1-2.35-2.15v-.09a2.19,2.19,0,0,1,2.13-2.23h.22a2.85,2.85,0,0,1,2.22.9v-1.12c0-.84-.69-1.35-1.66-1.35a2.78,2.78,0,0,0-2,.9l-.54-.87A3.82,3.82,0,0,1,508,203.5c1.47,0,2.72.65,2.72,2.37v4.57h-1.26Zm0-1.9a2.15,2.15,0,0,0-1.74-.77,1.36,1.36,0,1,0-.4,2.69,1.34,1.34,0,0,0,.4,0,2.12,2.12,0,0,0,1.74-.77ZM508,200.06a1.42,1.42,0,1,1-1.3,1.3A1.43,1.43,0,0,1,508,200.06Zm0,.64a.79.79,0,0,0-.77.77.77.77,0,1,0,.77-.77Z"/><path class="cls-2" d="M512.74,203.67H514v1a2.9,2.9,0,0,1,2.21-1.19v1.27h-.43a2.4,2.4,0,0,0-1.78,1v4.71h-1.26Z"/><path class="cls-2" d="M520.09,203.67h1.34l2.12,5.31,2.11-5.31H527l-2.79,6.77h-1.35Z"/><path class="cls-2" d="M527.84,201.74a.82.82,0,0,1,.82-.81.81.81,0,0,1,0,1.61h0a.81.81,0,0,1-.82-.8Zm.2,1.93h1.26v6.77H528Z"/><path class="cls-2" d="M536.12,209.47a2.84,2.84,0,0,1-2.21,1.14c-1.77,0-3-1.33-3-3.55s1.26-3.56,3-3.56a2.76,2.76,0,0,1,2.21,1.15v-3.56h1.26v9.35h-1.26Zm0-3.85a2.32,2.32,0,0,0-1.88-1c-1.26,0-2,1-2,2.44s.78,2.43,2,2.43a2.32,2.32,0,0,0,1.88-1Z"/><path class="cls-2" d="M542.36,203.5a3.36,3.36,0,0,1,3.3,3.66v.31H540.3a2.22,2.22,0,0,0,2.3,2.1,2.93,2.93,0,0,0,2-.8l.58.83a3.78,3.78,0,0,1-2.71,1,3.56,3.56,0,0,1-.12-7.11Zm-2.07,3.06h4.13a2,2,0,0,0-2-2h-.06A2.07,2.07,0,0,0,540.29,206.56Z"/><path class="cls-2" d="M547.23,203.67h1.26v1a2.89,2.89,0,0,1,2.22-1.19v1.27h-.44a2.41,2.41,0,0,0-1.78,1v4.71h-1.26Z"/><path class="cls-2" d="M554.94,203.5a3.35,3.35,0,0,1,3.29,3.66v.31h-5.35a2.2,2.2,0,0,0,2.29,2.1,2.93,2.93,0,0,0,2-.8l.59.83a3.8,3.8,0,0,1-2.72,1,3.56,3.56,0,0,1-.11-7.11Zm-2.08,3.06H557a2,2,0,0,0-2-2A2.08,2.08,0,0,0,552.86,206.56Z"/><path class="cls-2" d="M562.42,203.67h1.35l2.11,5.31,2.12-5.31h1.36l-2.79,6.77h-1.36Z"/><path class="cls-2" d="M570.18,201.74a.82.82,0,0,1,.81-.81.81.81,0,1,1,0,1.61h0A.82.82,0,0,1,570.18,201.74Zm.2,1.93h1.26v6.77h-1.26Z"/><path class="cls-2" d="M573.64,201.09h1.26v9.35h-1.26Z"/><path class="cls-2" d="M579.52,203.67h1.34L583,209l2.11-5.31h1.36l-2.79,6.77H582.3Z"/><path class="cls-2" d="M587.27,201.74a.82.82,0,0,1,.82-.81.81.81,0,1,1,0,1.61h0a.81.81,0,0,1-.82-.8Zm.2,1.93h1.26v6.77h-1.26Z"/><path class="cls-2" d="M598.52,209.7a3,3,0,0,1-2.22.91,2.26,2.26,0,0,1-2.35-2.15v-.09a2.19,2.19,0,0,1,2.13-2.23h.22a2.85,2.85,0,0,1,2.22.9v-1.12c0-.84-.69-1.35-1.66-1.35a2.78,2.78,0,0,0-2,.9l-.54-.87a3.81,3.81,0,0,1,2.77-1.11c1.47,0,2.72.65,2.72,2.37v4.57h-1.26Zm0-1.9a2.15,2.15,0,0,0-1.74-.77,1.36,1.36,0,1,0-.4,2.69,1.34,1.34,0,0,0,.4,0,2.12,2.12,0,0,0,1.74-.77Z"/><path class="cls-2" d="M601.79,201.09h1.26v9.35h-1.26Z"/><path class="cls-2" d="M605.3,208.94v-4.16h-1.12v-1.11h1.12v-1.85h1.26v1.85h1.38v1.11h-1.38v3.88c0,.47.23.83.66.83a1,1,0,0,0,.69-.27l.32.95a1.79,1.79,0,0,1-1.31.44,1.5,1.5,0,0,1-1.63-1.32A1.37,1.37,0,0,1,605.3,208.94Z"/><path class="cls-2" d="M609.14,201.74a.82.82,0,0,1,.91-.72.81.81,0,0,1,.72.72.82.82,0,0,1-.91.72A.81.81,0,0,1,609.14,201.74Zm.2,1.93h1.26v6.77h-1.26Z"/><path class="cls-2" d="M617.42,209.47a2.84,2.84,0,0,1-2.22,1.14c-1.76,0-3-1.33-3-3.55s1.26-3.56,3-3.56a2.79,2.79,0,0,1,2.22,1.15v-3.56h1.26v9.35h-1.26Zm0-3.85a2.32,2.32,0,0,0-1.88-1c-1.26,0-2,1-2,2.44a2.15,2.15,0,0,0,1.85,2.42h.15a2.32,2.32,0,0,0,1.88-1Z"/><path class="cls-2" d="M454.15,217.89h1.26v3.56a2.71,2.71,0,0,1,2.21-1.15c1.77,0,3,1.39,3,3.56s-1.26,3.55-3,3.55a2.78,2.78,0,0,1-2.21-1.14v1h-1.26Zm3.14,8.4c1.26,0,2-1,2-2.43s-.78-2.44-2-2.44a2.38,2.38,0,0,0-1.88,1v2.87A2.32,2.32,0,0,0,457.29,226.29Z"/><path class="cls-2" d="M465.21,220.3A3.35,3.35,0,0,1,468.5,224v.31h-5.35a2.22,2.22,0,0,0,2.3,2.1,2.86,2.86,0,0,0,2-.8l.59.83a3.8,3.8,0,0,1-2.72,1,3.56,3.56,0,0,1-.11-7.11Zm-2.07,3.06h4.13a2,2,0,0,0-2-2h-.06a2.07,2.07,0,0,0-2.07,2Z"/><path class="cls-2" d="M470.63,228.05a2.67,2.67,0,0,0,2.17.9,1.88,1.88,0,0,0,2.09-1.62c0-.11,0-.21,0-.32v-.88a2.85,2.85,0,0,1-2.23,1.16c-1.75,0-3-1.29-3-3.5s1.26-3.49,3-3.49a2.76,2.76,0,0,1,2.23,1.15v-1h1.26V227c0,2.33-1.69,3-3.36,3a3.61,3.61,0,0,1-2.77-1Zm4.27-5.63a2.35,2.35,0,0,0-1.88-1,2.4,2.4,0,0,0,0,4.75,2.38,2.38,0,0,0,1.88-1Z"/><path class="cls-2" d="M478.16,220.47h1.26v1a2.9,2.9,0,0,1,2.21-1.19v1.27a1.55,1.55,0,0,0-.43,0,2.41,2.41,0,0,0-1.78,1v4.71h-1.26Z"/><path class="cls-2" d="M487.46,226.31a3.36,3.36,0,0,1-2.41,1.1,1.91,1.91,0,0,1-2.16-1.62,1.63,1.63,0,0,1,0-.54v-4.78h1.26v4.36c0,1.12.56,1.46,1.43,1.46a2.45,2.45,0,0,0,1.88-1v-4.86h1.26v6.77h-1.26Z"/><path class="cls-2" d="M495.28,222.91c0-1.12-.57-1.49-1.44-1.49a2.41,2.41,0,0,0-1.86,1v4.83h-1.26v-6.77H492v1a3.23,3.23,0,0,1,2.39-1.12,2,2,0,0,1,2.17,1.81,2.41,2.41,0,0,1,0,.38v4.75H495.3Z"/><path class="cls-2" d="M503.36,226.27a2.78,2.78,0,0,1-2.21,1.14c-1.77,0-3-1.33-3-3.55s1.26-3.56,3-3.56a2.73,2.73,0,0,1,2.21,1.15v-3.56h1.26v9.35h-1.26Zm0-3.85a2.31,2.31,0,0,0-1.87-1c-1.27,0-2.05,1-2.05,2.44s.78,2.43,2.05,2.43a2.29,2.29,0,0,0,1.87-1Z"/><path class="cls-2" d="M509.6,220.3a3.36,3.36,0,0,1,3.3,3.66v.31h-5.35a2.2,2.2,0,0,0,2.29,2.1,2.93,2.93,0,0,0,2-.8l.58.83a3.78,3.78,0,0,1-2.71,1,3.56,3.56,0,0,1-.12-7.11Zm-2.07,3.06h4.13a2,2,0,0,0-2-2h-.06A2.07,2.07,0,0,0,507.53,223.36Z"/><path class="cls-2" d="M517.09,220.47h1.35l2.11,5.31,2.12-5.31H524l-2.79,6.77h-1.36Z"/><path class="cls-2" d="M524.62,223.85a3.42,3.42,0,1,1,3.42,3.56,3.36,3.36,0,0,1-3.43-3.29A2.44,2.44,0,0,1,524.62,223.85Zm5.52,0a2.12,2.12,0,1,0-2.1,2.44,2.19,2.19,0,0,0,2.11-2.26A1.09,1.09,0,0,0,530.14,223.85Z"/><path class="cls-2" d="M533.05,220.47h1.26v1a2.89,2.89,0,0,1,2.22-1.19v1.27a1.62,1.62,0,0,0-.44,0,2.41,2.41,0,0,0-1.78,1v4.71h-1.26Z"/><path class="cls-2" d="M540.75,220.3a3.36,3.36,0,0,1,3.3,3.66v.31H538.7a2.2,2.2,0,0,0,2.29,2.1,2.93,2.93,0,0,0,2-.8l.58.83a3.78,3.78,0,0,1-2.71,1,3.56,3.56,0,0,1-.12-7.11Zm-2.07,3.06h4.13a2,2,0,0,0-2-2h-.06A2.07,2.07,0,0,0,538.68,223.36Z"/><path class="cls-2" d="M545.64,225.43a3.24,3.24,0,0,0,2.27,1c1,0,1.46-.4,1.46-1s-.78-.9-1.64-1.09c-1.15-.27-2.5-.58-2.5-2,0-1.08.93-2,2.58-2a3.63,3.63,0,0,1,2.58,1l-.56.88a2.69,2.69,0,0,0-2-.82c-.85,0-1.38.33-1.38.88s.73.78,1.57,1c1.17.27,2.57.59,2.57,2.14,0,1.17-1,2.08-2.73,2.08a3.83,3.83,0,0,1-2.81-1Z"/><path class="cls-2" d="M554.79,220.47h1.35l2.11,5.31,2.12-5.31h1.36l-2.79,6.77h-1.36Z"/><path class="cls-2" d="M566.92,226.5a2.92,2.92,0,0,1-2.21.91,2.26,2.26,0,0,1-2.36-2.16v-.09a2.19,2.19,0,0,1,2.14-2.22h.22a2.84,2.84,0,0,1,2.21.9v-1.12c0-.84-.69-1.35-1.65-1.35a2.78,2.78,0,0,0-2,.9l-.55-.87a3.81,3.81,0,0,1,2.77-1.11c1.47,0,2.72.65,2.72,2.37v4.57H567Zm0-1.9a2.15,2.15,0,0,0-1.74-.77,1.36,1.36,0,1,0-.4,2.69,1.34,1.34,0,0,0,.4,0,2.12,2.12,0,0,0,1.74-.77Z"/><path class="cls-2" d="M570.19,217.89h1.27v9.35h-1.27Z"/><path class="cls-2" d="M574,228.05a2.67,2.67,0,0,0,2.17.9,1.88,1.88,0,0,0,2.09-1.62c0-.11,0-.21,0-.32v-.88a2.83,2.83,0,0,1-2.22,1.16c-1.75,0-3-1.29-3-3.5s1.26-3.49,3-3.49a2.73,2.73,0,0,1,2.22,1.15v-1h1.27V227c0,2.33-1.7,3-3.37,3a3.61,3.61,0,0,1-2.77-1Zm4.27-5.63a2.36,2.36,0,0,0-1.87-1,2.4,2.4,0,0,0,0,4.75,2.36,2.36,0,0,0,1.87-1Z"/><path class="cls-2" d="M582.18,225.64a.88.88,0,1,1-.87.89v0A.87.87,0,0,1,582.18,225.64Z"/><path class="cls-2" d="M426,139.5h2.76v10.67H426Z"/><path class="cls-2" d="M435.82,145.71a1.13,1.13,0,0,0-.93-1.28,1,1,0,0,0-.34,0,1.89,1.89,0,0,0-1.5.75v5h-2.47v-7.73h2.47v1a3.48,3.48,0,0,1,2.67-1.14,2.28,2.28,0,0,1,2.55,2,2.57,2.57,0,0,1,0,.48v5.47h-2.46Z"/><path class="cls-2" d="M445.27,149.28a3,3,0,0,1-2.29,1.08c-1.9,0-3.42-1.44-3.42-4.06s1.49-4.05,3.42-4.05a2.88,2.88,0,0,1,2.29,1.1V139.5h2.45v10.67h-2.45Zm0-4.17a2,2,0,0,0-1.49-.68,1.7,1.7,0,0,0-1.7,1.7,1,1,0,0,0,0,.17,1.71,1.71,0,0,0,1.52,1.88h.17a2,2,0,0,0,1.49-.71Z"/><path class="cls-2" d="M449.35,140.06a1.41,1.41,0,1,1,1.42,1.4h0a1.4,1.4,0,0,1-1.41-1.39Zm.18,2.38H452v7.73h-2.46Z"/><path class="cls-2" d="M452.72,142.44h2.6l1.74,4.9,1.76-4.9h2.61l-3,7.73h-2.62Z"/><path class="cls-2" d="M462,140.06a1.41,1.41,0,1,1,1.42,1.4h0a1.4,1.4,0,0,1-1.41-1.39Zm.18,2.38h2.46v7.73h-2.46Z"/><path class="cls-2" d="M471.62,149.28a3,3,0,0,1-2.29,1.08c-1.9,0-3.42-1.44-3.42-4.06s1.49-4.05,3.42-4.05a2.88,2.88,0,0,1,2.29,1.1V139.5h2.45v10.67h-2.45Zm0-4.17a2,2,0,0,0-1.49-.68,1.7,1.7,0,0,0-1.7,1.7,1,1,0,0,0,0,.17,1.71,1.71,0,0,0,1.52,1.88h.17a2,2,0,0,0,1.49-.71Z"/><path class="cls-2" d="M481.09,149.24a3.51,3.51,0,0,1-2.67,1.12,2.24,2.24,0,0,1-2.53-1.91,2.79,2.79,0,0,1,0-.5v-5.51h2.46v4.5c0,.93.48,1.25,1.28,1.25a1.83,1.83,0,0,0,1.47-.76v-5h2.47v7.73h-2.47Z"/><path class="cls-2" d="M489,142.25c2.29,0,3.95,1.68,3.95,4.3v.53h-5.5a1.83,1.83,0,0,0,2,1.38,3,3,0,0,0,1.88-.66l1.05,1.54a5,5,0,0,1-3.24,1,4.06,4.06,0,1,1-.5-8.1H489Zm-1.58,3.23h3.18a1.48,1.48,0,0,0-1.6-1.33,1.52,1.52,0,0,0-1.63,1.33Z"/><path class="cls-2" d="M494.12,139.5h2.46v10.67h-2.46Z"/><path class="cls-2" d="M503,148.09v-3.5h-1.3v-2.15H503v-2.11h2.45v2.11H507v2.15h-1.57v2.81a.72.72,0,0,0,.63.79h.06a1,1,0,0,0,.62-.19l.48,1.85a2.63,2.63,0,0,1-1.82.51C503.83,150.36,503,149.58,503,148.09Z"/><path class="cls-2" d="M508.05,140.06a1.41,1.41,0,1,1,1.42,1.4h0a1.4,1.4,0,0,1-1.41-1.39Zm.18,2.38h2.46v7.73h-2.46Z"/><path class="cls-2" d="M512.48,139.5H515v10.67h-2.47Z"/><path class="cls-2" d="M516.74,139.5h2.46v3.85a2.85,2.85,0,0,1,2.29-1.1c1.92,0,3.41,1.52,3.41,4.05s-1.5,4.06-3.41,4.06a3,3,0,0,1-2.29-1.08v.89h-2.46Zm3.94,8.69a1.89,1.89,0,0,0,0-3.76,2,2,0,0,0-1.48.7v2.37A2,2,0,0,0,520.68,148.19Z"/><path class="cls-2" d="M530.76,149.4a3.19,3.19,0,0,1-2.4,1A2.55,2.55,0,0,1,525.7,148v-.1a2.39,2.39,0,0,1,2.31-2.45l.35,0a3.11,3.11,0,0,1,2.4.89v-1c0-.68-.58-1.12-1.57-1.12a3.38,3.38,0,0,0-2.19.8l-.88-1.55a5.43,5.43,0,0,1,3.5-1.2c1.86,0,3.6.69,3.6,3.09v4.83h-2.46Zm0-1.9a1.79,1.79,0,0,0-1.38-.55c-.66,0-1.23.29-1.23.9s.57.9,1.23.9a1.72,1.72,0,0,0,1.38-.56Z"/><path class="cls-2" d="M535.88,150.4a3.08,3.08,0,0,0,2.35.89,1.74,1.74,0,0,0,2-1.46,1.62,1.62,0,0,0,0-.31v-.6a2.88,2.88,0,0,1-2.29,1.12c-1.89,0-3.41-1.29-3.41-3.9s1.47-3.89,3.41-3.89a2.88,2.88,0,0,1,2.29,1.1v-.91h2.45v7c0,3.16-2.5,3.83-4.42,3.83a5.22,5.22,0,0,1-3.43-1.15Zm4.32-5.29a2,2,0,0,0-1.48-.68,1.72,1.72,0,0,0,0,3.44,2,2,0,0,0,1.48-.69Z"/><path class="cls-2" d="M548.05,142.25a4,4,0,0,1,4,4.3v.53H546.5a1.86,1.86,0,0,0,2,1.38,3,3,0,0,0,1.89-.66l1,1.54a5,5,0,0,1-3.24,1,4.06,4.06,0,1,1-.5-8.1H548Zm-1.58,3.23h3.18a1.48,1.48,0,0,0-1.6-1.33A1.52,1.52,0,0,0,546.47,145.48Z"/><path class="cls-2" d="M563,145.47a.93.93,0,0,0-.85-1H562a1.8,1.8,0,0,0-1.39.75v5h-2.47v-4.7a.92.92,0,0,0-.83-1,.49.49,0,0,0-.17,0,1.81,1.81,0,0,0-1.38.75v5H553.3v-7.73h2.46v1a3.45,3.45,0,0,1,2.55-1.14,2.1,2.1,0,0,1,2.19,1.37,3.34,3.34,0,0,1,2.67-1.37,2.09,2.09,0,0,1,2.33,2.32v5.6H563Z"/><path class="cls-2" d="M570.82,142.25c2.29,0,3.95,1.68,3.95,4.3v.53h-5.5a1.83,1.83,0,0,0,2,1.38,3,3,0,0,0,1.88-.66l1,1.54a5,5,0,0,1-3.24,1,4.06,4.06,0,1,1-.5-8.1h.39Zm-1.58,3.23h3.18a1.48,1.48,0,0,0-1.6-1.33A1.52,1.52,0,0,0,569.24,145.48Z"/><path class="cls-2" d="M576,139.5h2.46v10.67H576Z"/><path class="cls-2" d="M585.44,149.28a3,3,0,0,1-2.28,1.08c-1.91,0-3.43-1.44-3.43-4.06s1.49-4.05,3.43-4.05a2.86,2.86,0,0,1,2.28,1.1V139.5h2.45v10.67h-2.45Zm0-4.17a2,2,0,0,0-1.48-.68,1.71,1.71,0,0,0-1.71,1.69,1.09,1.09,0,0,0,0,.18,1.72,1.72,0,0,0,1.54,1.88H584a2,2,0,0,0,1.48-.71Z"/><path class="cls-2" d="M589.52,140.06a1.41,1.41,0,1,1,1.42,1.4h0a1.4,1.4,0,0,1-1.41-1.39Zm.18,2.38h2.46v7.73H589.7Z"/><path class="cls-2" d="M599.19,145.71a1.13,1.13,0,0,0-.93-1.28,1,1,0,0,0-.34,0,1.92,1.92,0,0,0-1.5.75v5H594v-7.73h2.47v1a3.48,3.48,0,0,1,2.67-1.14,2.28,2.28,0,0,1,2.55,2,2.57,2.57,0,0,1,0,.48v5.47h-2.46Z"/><path class="cls-2" d="M604.31,150.4a3.08,3.08,0,0,0,2.35.89,1.74,1.74,0,0,0,2-1.46,1.62,1.62,0,0,0,0-.31v-.6a2.88,2.88,0,0,1-2.29,1.12c-1.89,0-3.41-1.29-3.41-3.9s1.47-3.89,3.41-3.89a2.88,2.88,0,0,1,2.29,1.1v-.91h2.45v7c0,3.16-2.5,3.83-4.42,3.83a5.22,5.22,0,0,1-3.43-1.15Zm4.32-5.29a2,2,0,0,0-1.48-.68,1.72,1.72,0,0,0,0,3.44,2,2,0,0,0,1.48-.69Z"/><path class="cls-3" d="M518.48,95.11,488.09,70.29h60.77Zm0,7.42a3.38,3.38,0,0,0,2-.73L554,74.48v43.07a2.46,2.46,0,0,1-2.46,2.46H485.46a2.46,2.46,0,0,1-2.46-2.46V74.48l33.49,27.32a3.2,3.2,0,0,0,2,.73Z"/><circle class="cls-1" cx="887" cy="150" r="150"/><path class="cls-2" d="M803,166.84a4.41,4.41,0,0,1,3.7,1.85l-1.14.66a3.22,3.22,0,0,0-2.56-1.26,3.59,3.59,0,1,0,2.37,6.26v-1.68h-3v-1.23h4.4v3.43a5,5,0,0,1-3.77,1.65,4.84,4.84,0,0,1,0-9.68Z"/><path class="cls-2" d="M812.69,175.6a2.92,2.92,0,0,1-2.21.91,2.26,2.26,0,0,1-2.36-2.16v-.09a2.19,2.19,0,0,1,2.14-2.22h.22a2.84,2.84,0,0,1,2.21.9v-1.12c0-.84-.69-1.35-1.65-1.35a2.78,2.78,0,0,0-2,.9l-.55-.87a3.81,3.81,0,0,1,2.77-1.11c1.48,0,2.72.65,2.72,2.37v4.57h-1.26Zm0-1.89a2.1,2.1,0,0,0-1.73-.78,1.36,1.36,0,1,0-.4,2.69,1.34,1.34,0,0,0,.4,0,2.12,2.12,0,0,0,1.73-.77ZM811.26,166a1.42,1.42,0,1,1-1.3,1.3A1.43,1.43,0,0,1,811.26,166Zm0,.64a.78.78,0,0,0,0,1.56.78.78,0,0,0,.77-.79h0a.76.76,0,0,0-.71-.81h-.06Z"/><path class="cls-2" d="M816,169.57h1.26v1a2.83,2.83,0,0,1,2.21-1.19v1.27a3.23,3.23,0,0,0-.44,0,2.38,2.38,0,0,0-1.77,1v4.71H816Z"/><path class="cls-2" d="M829.13,175.37a2.84,2.84,0,0,1-2.21,1.14c-1.77,0-3-1.33-3-3.55s1.26-3.56,3-3.56a2.76,2.76,0,0,1,2.21,1.15V167h1.26v9.35h-1.26Zm0-3.85a2.32,2.32,0,0,0-1.88-1c-1.26,0-2,1-2,2.44s.78,2.42,2,2.42a2.32,2.32,0,0,0,1.88-1Z"/><path class="cls-2" d="M837,175.41a3.36,3.36,0,0,1-2.41,1.1,1.91,1.91,0,0,1-2.16-1.62,1.63,1.63,0,0,1,0-.54v-4.78h1.26v4.36c0,1.12.56,1.45,1.43,1.45a2.4,2.4,0,0,0,1.88-.95v-4.86h1.26v6.77H837Z"/><path class="cls-2" d="M842.85,169.57h1.34l2.12,5.31,2.11-5.31h1.36L847,176.34h-1.36Z"/><path class="cls-2" d="M850.6,167.64a.82.82,0,0,1,.82-.81.81.81,0,0,1,0,1.61h0a.81.81,0,0,1-.82-.8Zm.2,1.93h1.26v6.77H850.8Z"/><path class="cls-2" d="M858.88,175.37a2.84,2.84,0,0,1-2.21,1.14c-1.77,0-3-1.33-3-3.55s1.26-3.56,3-3.56a2.76,2.76,0,0,1,2.21,1.15V167h1.26v9.35h-1.26Zm0-3.85a2.32,2.32,0,0,0-1.88-1c-1.26,0-2,1-2,2.44s.78,2.42,2,2.42a2.32,2.32,0,0,0,1.88-1Z"/><path class="cls-2" d="M865.12,169.4a3.35,3.35,0,0,1,3.29,3.66v.31h-5.35a2.22,2.22,0,0,0,2.3,2.1,2.86,2.86,0,0,0,2-.8l.59.83a3.8,3.8,0,0,1-2.72,1,3.56,3.56,0,0,1-.11-7.11Zm-2.07,3.06h4.13a2,2,0,0,0-2-2h-.06a2.07,2.07,0,0,0-2.07,2Z"/><path class="cls-2" d="M870,169.57h1.26v1a2.89,2.89,0,0,1,2.22-1.19v1.27a3.23,3.23,0,0,0-.44,0,2.41,2.41,0,0,0-1.78,1v4.71H870Z"/><path class="cls-2" d="M877.69,169.4a3.36,3.36,0,0,1,3.3,3.66v.31h-5.36a2.22,2.22,0,0,0,2.3,2.1,2.93,2.93,0,0,0,2-.8l.58.83a3.78,3.78,0,0,1-2.71,1,3.56,3.56,0,0,1-.12-7.11Zm-2.07,3.06h4.13a2,2,0,0,0-2-2h-.06a2.07,2.07,0,0,0-2.07,2Z"/><path class="cls-2" d="M886.43,174.84v-4.16h-1.12v-1.11h1.12v-1.85h1.26v1.85h1.37v1.11h-1.37v3.88c0,.48.22.82.66.82a1,1,0,0,0,.68-.26l.33.95a1.81,1.81,0,0,1-1.32.44,1.47,1.47,0,0,1-1.62-1.31A1.45,1.45,0,0,1,886.43,174.84Z"/><path class="cls-2" d="M890.26,167.64a.82.82,0,0,1,.82-.81.81.81,0,1,1,0,1.61h0a.81.81,0,0,1-.82-.8Zm.2,1.93h1.26v6.77h-1.26Z"/><path class="cls-2" d="M893.72,167H895v9.35h-1.26Z"/><path class="cls-2" d="M903.57,169.4a3.35,3.35,0,0,1,3.29,3.66v.31h-5.35a2.21,2.21,0,0,0,2.29,2.1,2.93,2.93,0,0,0,2-.8l.59.83a3.8,3.8,0,0,1-2.72,1,3.56,3.56,0,0,1-.11-7.11Zm-2.08,3.06h4.13a2,2,0,0,0-2-2,2.07,2.07,0,0,0-2.13,2Z"/><path class="cls-2" d="M913,172c0-1.12-.57-1.49-1.44-1.49a2.41,2.41,0,0,0-1.86,1v4.83h-1.26v-6.77h1.26v1a3.23,3.23,0,0,1,2.39-1.12,2,2,0,0,1,2.17,1.81,2.41,2.41,0,0,1,0,.38v4.75H913Z"/><path class="cls-2" d="M919.88,178.92v-9.35h1.26v1a2.75,2.75,0,0,1,2.21-1.14c1.76,0,3,1.33,3,3.55s-1.25,3.56-3,3.56a2.71,2.71,0,0,1-2.21-1.15V179Zm3.13-8.4a2.29,2.29,0,0,0-1.87,1v2.87a2.33,2.33,0,0,0,1.87,1c1.26,0,2-1,2-2.43s-.74-2.44-2-2.44Z"/><path class="cls-2" d="M930.92,169.4a3.35,3.35,0,0,1,3.29,3.66v.31h-5.35a2.22,2.22,0,0,0,2.3,2.1,2.82,2.82,0,0,0,2-.8l.59.83a3.8,3.8,0,0,1-2.72,1,3.56,3.56,0,0,1-.11-7.11Zm-2.07,3.06H933a2,2,0,0,0-2-2h-.06a2.08,2.08,0,0,0-2.09,2Z"/><path class="cls-2" d="M935.79,169.57h1.26v1a2.89,2.89,0,0,1,2.22-1.19v1.27a3.23,3.23,0,0,0-.44,0,2.41,2.41,0,0,0-1.78,1v4.71h-1.26Z"/><path class="cls-2" d="M940.54,174.53a3.24,3.24,0,0,0,2.27,1c1,0,1.46-.39,1.46-1s-.77-.9-1.64-1.09c-1.15-.27-2.5-.58-2.5-2,0-1.08.93-2,2.58-2a3.63,3.63,0,0,1,2.58,1l-.56.88a2.69,2.69,0,0,0-2-.82c-.85,0-1.38.33-1.38.88s.73.78,1.57,1c1.17.27,2.57.59,2.57,2.14,0,1.17-1,2.08-2.73,2.08a3.83,3.83,0,0,1-2.81-1Z"/><path class="cls-2" d="M946.66,173a3.42,3.42,0,1,1,3.41,3.56,3.37,3.37,0,0,1-3.42-3.3A2.26,2.26,0,0,1,946.66,173Zm5.52,0a2.13,2.13,0,1,0-2.11,2.43,2.2,2.2,0,0,0,2.12-2.28A.76.76,0,0,0,952.18,173Z"/><path class="cls-2" d="M959.65,172c0-1.12-.57-1.49-1.44-1.49a2.41,2.41,0,0,0-1.86,1v4.83h-1.27v-6.77h1.27v1a3.2,3.2,0,0,1,2.39-1.12,2,2,0,0,1,2.17,1.81,2.41,2.41,0,0,1,0,.38v4.75h-1.26Z"/><path class="cls-2" d="M962.91,167h1.26v9.35h-1.26Z"/><path class="cls-2" d="M966,167.64a.81.81,0,1,1,.81.81A.81.81,0,0,1,966,167.64Zm.19,1.93h1.26v6.77h-1.26Z"/><path class="cls-2" d="M970,177.15a2.67,2.67,0,0,0,2.17.9,1.88,1.88,0,0,0,2.09-1.62c0-.11,0-.21,0-.32v-.88a2.83,2.83,0,0,1-2.22,1.16c-1.76,0-3-1.28-3-3.5s1.26-3.49,3-3.49a2.73,2.73,0,0,1,2.22,1.15v-1h1.26v6.5c0,2.33-1.69,3-3.36,3a3.64,3.64,0,0,1-2.77-1Zm4.27-5.63a2.36,2.36,0,0,0-1.87-1,2.4,2.4,0,0,0,0,4.75,2.36,2.36,0,0,0,1.87-1Z"/><path class="cls-2" d="M787.15,191.33a3.35,3.35,0,0,0,2.27,1c1,0,1.46-.39,1.46-1s-.77-.9-1.64-1.09c-1.15-.27-2.49-.58-2.49-2,0-1.08.92-2,2.58-2a3.6,3.6,0,0,1,2.57,1l-.56.88a2.65,2.65,0,0,0-2-.82c-.85,0-1.39.33-1.39.88s.73.78,1.57,1c1.18.27,2.58.59,2.58,2.14,0,1.17-1,2.08-2.73,2.08a3.83,3.83,0,0,1-2.82-1.06Z"/><path class="cls-2" d="M797.87,192.4a3,3,0,0,1-2.22.91,2.26,2.26,0,0,1-2.35-2.15v-.1a2.19,2.19,0,0,1,2.14-2.22h.21a2.85,2.85,0,0,1,2.22.9v-1.12c0-.84-.69-1.35-1.66-1.35a2.78,2.78,0,0,0-2,.9l-.54-.87a3.81,3.81,0,0,1,2.77-1.11c1.47,0,2.72.65,2.72,2.37v4.57H797.9Zm0-1.9a2.15,2.15,0,0,0-1.74-.77,1.36,1.36,0,1,0-.4,2.69,1.34,1.34,0,0,0,.4,0,2.12,2.12,0,0,0,1.74-.77Z"/><path class="cls-2" d="M809.36,188.63c0-.79-.35-1.31-1.17-1.31a2.21,2.21,0,0,0-1.69,1v4.85h-1.26v-4.51c0-.79-.33-1.31-1.19-1.31a2.24,2.24,0,0,0-1.65,1v4.84h-1.26v-6.77h1.26v1a2.94,2.94,0,0,1,2.19-1.12,1.76,1.76,0,0,1,1.83,1.26,2.86,2.86,0,0,1,2.28-1.26c1.25,0,1.92.69,1.92,2.05v4.89h-1.26Z"/><path class="cls-2" d="M812.87,191.64v-4.16h-1.12v-1.11h1.12v-1.85h1.26v1.85h1.38v1.11h-1.38v3.88c0,.47.23.83.66.83a1,1,0,0,0,.69-.27l.32,1a1.81,1.81,0,0,1-1.32.44,1.48,1.48,0,0,1-1.62-1.32A1.34,1.34,0,0,1,812.87,191.64Z"/><path class="cls-2" d="M821.08,192.4a2.92,2.92,0,0,1-2.21.91,2.26,2.26,0,0,1-2.36-2.14v-.11a2.19,2.19,0,0,1,2.14-2.22h.22a2.84,2.84,0,0,1,2.21.9v-1.12c0-.84-.69-1.35-1.65-1.35a2.82,2.82,0,0,0-2,.9l-.54-.87a3.81,3.81,0,0,1,2.77-1.11c1.47,0,2.72.65,2.72,2.37v4.57h-1.26Zm0-1.9a2.15,2.15,0,0,0-1.74-.77,1.36,1.36,0,1,0-.4,2.69,1.34,1.34,0,0,0,.4,0,2.12,2.12,0,0,0,1.74-.77Z"/><path class="cls-2" d="M824.35,183.79h1.26v9.35h-1.26Z"/><path class="cls-2" d="M830.58,186.2a3.36,3.36,0,0,1,3.3,3.66v.31h-5.36a2.22,2.22,0,0,0,2.3,2.1,2.93,2.93,0,0,0,2-.8l.58.83a3.78,3.78,0,0,1-2.71,1,3.56,3.56,0,0,1-.12-7.11Zm-2.07,3.06h4.13a2,2,0,0,0-2-2h-.06A2.07,2.07,0,0,0,828.51,189.26Z"/><path class="cls-2" d="M835.16,194.47a2.18,2.18,0,0,0,1-1.3H836a.75.75,0,0,1-.75-.75v0a.85.85,0,0,1,.84-.86h0a1,1,0,0,1,1,1,1,1,0,0,1,0,.17,2.88,2.88,0,0,1-1.23,2.26Z"/><path class="cls-2" d="M841.32,186.37h1.34l2.12,5.31,2.11-5.31h1.36l-2.78,6.77h-1.36Z"/><path class="cls-2" d="M849.08,184.44a.81.81,0,1,1,.81.81A.81.81,0,0,1,849.08,184.44Zm.19,1.93h1.26v6.77h-1.26Z"/><path class="cls-2" d="M852.53,183.79h1.26v9.35h-1.26Z"/><path class="cls-2" d="M864.23,192.17a2.84,2.84,0,0,1-2.22,1.14c-1.76,0-3-1.34-3-3.55s1.26-3.56,3-3.56a2.79,2.79,0,0,1,2.22,1.15v-3.56h1.26v9.35h-1.26Zm0-3.85a2.32,2.32,0,0,0-1.88-1c-1.26,0-2.05,1-2.05,2.44a2.14,2.14,0,0,0,1.85,2.41l.2,0a2.35,2.35,0,0,0,1.88-1Z"/><path class="cls-2" d="M872.07,192.21a3.36,3.36,0,0,1-2.41,1.1,1.91,1.91,0,0,1-2.16-1.62,1.63,1.63,0,0,1,0-.54v-4.78h1.26v4.36c0,1.12.56,1.46,1.43,1.46a2.45,2.45,0,0,0,1.88-1v-4.86h1.26v6.77h-1.26Z"/><path class="cls-2" d="M887.16,188.63c0-.79-.35-1.31-1.18-1.31a2.17,2.17,0,0,0-1.68,1v4.85H883v-4.51c0-.79-.33-1.31-1.19-1.31a2.21,2.21,0,0,0-1.65,1v4.84H878.9v-6.77h1.26v1a3,3,0,0,1,2.18-1.12,1.77,1.77,0,0,1,1.84,1.26,2.86,2.86,0,0,1,2.28-1.26c1.25,0,1.92.69,1.92,2.05v4.89h-1.26Z"/><path class="cls-2" d="M890,189.75a3.42,3.42,0,1,1,3.42,3.56A3.36,3.36,0,0,1,890,190,2.44,2.44,0,0,1,890,189.75Zm5.52,0a2.13,2.13,0,1,0-2.1,2.44,2.2,2.2,0,0,0,2.11-2.29A.76.76,0,0,0,895.52,189.75Z"/><path class="cls-2" d="M903.24,192.17a2.78,2.78,0,0,1-2.21,1.14c-1.76,0-3-1.34-3-3.55s1.27-3.56,3-3.56a2.73,2.73,0,0,1,2.21,1.15v-3.56h1.26v9.35h-1.26Zm0-3.85a2.31,2.31,0,0,0-1.87-1c-1.26,0-2,1-2,2.44a2.15,2.15,0,0,0,1.85,2.42h.15a2.33,2.33,0,0,0,1.87-1Z"/><path class="cls-2" d="M906.77,191.64v-4.16h-1.12v-1.11h1.12v-1.85H908v1.85h1.37v1.11H908v3.88c0,.47.22.83.66.83a1,1,0,0,0,.69-.27l.32,1a1.81,1.81,0,0,1-1.32.44,1.49,1.49,0,0,1-1.6-1.35A1.51,1.51,0,0,1,906.77,191.64Z"/><path class="cls-2" d="M915,192.4a3,3,0,0,1-2.22.91,2.26,2.26,0,0,1-2.35-2.15v-.1a2.19,2.19,0,0,1,2.14-2.22h.21a2.85,2.85,0,0,1,2.22.9v-1.12c0-.84-.69-1.35-1.66-1.35a2.78,2.78,0,0,0-2,.9l-.54-.87a3.81,3.81,0,0,1,2.77-1.11c1.47,0,2.72.65,2.72,2.37v4.57H915Zm0-1.9a2.15,2.15,0,0,0-1.74-.77,1.36,1.36,0,1,0-.4,2.69,1.34,1.34,0,0,0,.4,0,2.12,2.12,0,0,0,1.74-.77Z"/><path class="cls-2" d="M918.8,194a2.67,2.67,0,0,0,2.17.9,1.88,1.88,0,0,0,2.09-1.62c0-.11,0-.21,0-.32v-1a2.85,2.85,0,0,1-2.23,1.16c-1.75,0-3-1.28-3-3.5s1.26-3.49,3-3.49a2.79,2.79,0,0,1,2.23,1.15v-1h1.26v6.5c0,2.33-1.7,3-3.36,3a3.65,3.65,0,0,1-2.78-1Zm4.27-5.63a2.35,2.35,0,0,0-1.88-1,2.4,2.4,0,0,0,0,4.75,2.38,2.38,0,0,0,1.88-1Z"/><path class="cls-2" d="M929.3,186.2a3.35,3.35,0,0,1,3.29,3.66v.31h-5.35a2.22,2.22,0,0,0,2.3,2.1,2.86,2.86,0,0,0,2-.8l.59.83a3.8,3.8,0,0,1-2.72,1,3.56,3.56,0,0,1-.11-7.11Zm-2.08,3.06h4.14a2,2,0,0,0-2-2h-.06A2.08,2.08,0,0,0,927.22,189.26Z"/><path class="cls-2" d="M937.58,184.44a.82.82,0,0,1,.82-.81.81.81,0,1,1,0,1.61h0a.81.81,0,0,1-.82-.8Zm.2,1.93H939v6.77h-1.26Z"/><path class="cls-2" d="M945.61,188.81c0-1.12-.58-1.49-1.44-1.49a2.45,2.45,0,0,0-1.87,1v4.84H941v-6.77h1.26v1a3.27,3.27,0,0,1,2.4-1.12,2,2,0,0,1,2.17,1.81,2.41,2.41,0,0,1,0,.38v4.75h-1.26Z"/><path class="cls-2" d="M949.18,187.48h-1.12v-1.11h1.12v-.45a2,2,0,0,1,1.71-2.25,2.06,2.06,0,0,1,.35,0,2.23,2.23,0,0,1,1.1.26l-.29.94a1.15,1.15,0,0,0-.6-.16c-.63,0-1,.42-1,1.23v.45h1.37v1.11h-1.37v5.66h-1.26Z"/><path class="cls-2" d="M952.59,189.75a3.42,3.42,0,1,1,3.42,3.56,3.36,3.36,0,0,1-3.43-3.29A2.44,2.44,0,0,1,952.59,189.75Zm5.52,0a2.12,2.12,0,1,0-2.1,2.44,2.19,2.19,0,0,0,2.11-2.26,1.09,1.09,0,0,0,0-.18Z"/><path class="cls-2" d="M961,186.37h1.26v1a2.9,2.9,0,0,1,2.21-1.19v1.27a1.55,1.55,0,0,0-.43,0,2.4,2.4,0,0,0-1.78,1v4.71H961Z"/><path class="cls-2" d="M974,188.63c0-.79-.35-1.31-1.17-1.31a2.17,2.17,0,0,0-1.68,1v4.85h-1.26v-4.51c0-.79-.34-1.31-1.19-1.31a2.21,2.21,0,0,0-1.66,1v4.84h-1.26v-6.77H967v1a2.94,2.94,0,0,1,2.19-1.12,1.76,1.76,0,0,1,1.83,1.26,2.82,2.82,0,0,1,2.29-1.26c1.24,0,1.91.69,1.91,2.05v4.89H974Z"/><path class="cls-2" d="M981.41,192.4a3,3,0,0,1-2.22.91,2.26,2.26,0,0,1-2.35-2.15v-.1a2.19,2.19,0,0,1,2.14-2.22h.21a2.85,2.85,0,0,1,2.22.9v-1.12c0-.84-.69-1.35-1.66-1.35a2.78,2.78,0,0,0-2,.9l-.55-.87a3.8,3.8,0,0,1,2.8-1.11c1.47,0,2.72.65,2.72,2.37v4.57h-1.26Zm0-1.9a2.15,2.15,0,0,0-1.74-.77,1.36,1.36,0,1,0-.4,2.69,1.34,1.34,0,0,0,.4,0,2.12,2.12,0,0,0,1.74-.77Z"/><path class="cls-2" d="M984.09,189.2h3.36v1.09h-3.36Z"/><path class="cls-2" d="M788.58,208.44v-4.16h-1.13v-1.11h1.13v-1.85h1.26v1.85h1.37v1.11h-1.37v3.88c0,.47.22.83.65.83a1,1,0,0,0,.69-.27l.32.95a1.79,1.79,0,0,1-1.31.44,1.47,1.47,0,0,1-1.62-1.31A1.45,1.45,0,0,1,788.58,208.44Z"/><path class="cls-2" d="M792.41,201.24a.82.82,0,0,1,.91-.72.81.81,0,0,1,.72.72.82.82,0,0,1-.91.72A.81.81,0,0,1,792.41,201.24Zm.2,1.93h1.26v6.77h-1.26Z"/><path class="cls-2" d="M795.45,206.55a3.42,3.42,0,1,1,3.42,3.56,3.36,3.36,0,0,1-3.43-3.29A2.44,2.44,0,0,1,795.45,206.55Zm5.52,0a2.12,2.12,0,1,0-2.1,2.44,2.19,2.19,0,0,0,2.14-2.24,1.41,1.41,0,0,0,0-.2Z"/><path class="cls-2" d="M808.44,205.61c0-1.12-.57-1.49-1.44-1.49a2.41,2.41,0,0,0-1.86,1V210h-1.26v-6.77h1.26v1a3.23,3.23,0,0,1,2.39-1.12,2,2,0,0,1,2.17,1.81,2.41,2.41,0,0,1,0,.38V210h-1.26Z"/><path class="cls-2" d="M814.89,206.55a3.42,3.42,0,1,1,3.42,3.56,3.36,3.36,0,0,1-3.43-3.29A2.44,2.44,0,0,1,814.89,206.55Zm5.52,0a2.12,2.12,0,1,0-2.1,2.44,2.19,2.19,0,0,0,2.11-2.26,1.09,1.09,0,0,0,0-.18Z"/><path class="cls-2" d="M831.55,205.43c0-.79-.35-1.31-1.18-1.31a2.17,2.17,0,0,0-1.68,1V210h-1.26v-4.51c0-.79-.34-1.31-1.19-1.31a2.21,2.21,0,0,0-1.66,1V210h-1.26v-6.77h1.26v1a2.94,2.94,0,0,1,2.19-1.12,1.76,1.76,0,0,1,1.83,1.26,2.89,2.89,0,0,1,2.29-1.26c1.24,0,1.92.69,1.92,2.05V210h-1.26Z"/><path class="cls-2" d="M838.67,208.44v-4.16h-1.12v-1.11h1.12v-1.85h1.26v1.85h1.37v1.11h-1.37v3.88c0,.47.22.83.66.83a1,1,0,0,0,.68-.27l.32.95a1.75,1.75,0,0,1-1.31.44,1.47,1.47,0,0,1-1.62-1.31A1.45,1.45,0,0,1,838.67,208.44Z"/><path class="cls-2" d="M842.5,201.24a.82.82,0,0,1,.82-.81.81.81,0,0,1,0,1.61h0a.81.81,0,0,1-.82-.8Zm.2,1.93H844v6.77h-1.3Z"/><path class="cls-2" d="M850.78,209a2.84,2.84,0,0,1-2.21,1.14c-1.77,0-3-1.34-3-3.55s1.26-3.56,3-3.56a2.76,2.76,0,0,1,2.21,1.15v-3.56H852V210h-1.26Zm0-3.85a2.32,2.32,0,0,0-1.88-1c-1.26,0-2,1-2,2.44s.78,2.43,2,2.43a2.32,2.32,0,0,0,1.88-1Z"/><path class="cls-2" d="M857.24,206.55a3.42,3.42,0,1,1,3.42,3.56,3.36,3.36,0,0,1-3.43-3.29A2.44,2.44,0,0,1,857.24,206.55Zm5.52,0a2.12,2.12,0,1,0-2.1,2.44,2.19,2.19,0,0,0,2.11-2.26A1.09,1.09,0,0,0,862.76,206.55Z"/><path class="cls-2" d="M866.22,210.75a2.67,2.67,0,0,0,2.17.9,1.88,1.88,0,0,0,2.09-1.62c0-.11,0-.21,0-.32v-.88a2.85,2.85,0,0,1-2.23,1.16c-1.75,0-3-1.28-3-3.5s1.26-3.49,3-3.49a2.73,2.73,0,0,1,2.23,1.15v-1h1.26v6.5c0,2.33-1.69,3-3.36,3a3.61,3.61,0,0,1-2.77-1Zm4.27-5.63a2.35,2.35,0,0,0-1.88-1,2.4,2.4,0,0,0,0,4.75,2.38,2.38,0,0,0,1.88-1Z"/><path class="cls-2" d="M877.38,208.13a3.3,3.3,0,0,0,2.27,1c1,0,1.45-.39,1.45-1s-.77-.9-1.64-1.09c-1.14-.27-2.49-.58-2.49-2,0-1.08.93-2,2.58-2a3.63,3.63,0,0,1,2.58,1l-.56.88a2.69,2.69,0,0,0-2-.82c-.85,0-1.38.33-1.38.88s.72.78,1.56,1c1.18.27,2.58.59,2.58,2.14,0,1.17-1,2.08-2.73,2.08a3.83,3.83,0,0,1-2.82-1.06Z"/><path class="cls-2" d="M884.17,208.44v-4.16h-1.12v-1.11h1.12v-1.85h1.26v1.85h1.37v1.11h-1.37v3.88c0,.47.22.83.66.83a1,1,0,0,0,.68-.27l.32.95a1.75,1.75,0,0,1-1.31.44,1.47,1.47,0,0,1-1.62-1.31A1.45,1.45,0,0,1,884.17,208.44Z"/><path class="cls-2" d="M891.17,203a3.35,3.35,0,0,1,3.29,3.66V207h-5.35a2.22,2.22,0,0,0,2.3,2.1,2.86,2.86,0,0,0,2-.8l.59.83a3.8,3.8,0,0,1-2.72,1,3.56,3.56,0,0,1-.11-7.11Zm-2.07,3.06h4.13a2,2,0,0,0-2-2h-.06A2.07,2.07,0,0,0,889.1,206.06Z"/><path class="cls-2" d="M900.86,209a2.84,2.84,0,0,1-2.22,1.14c-1.76,0-3-1.34-3-3.55s1.26-3.56,3-3.56a2.79,2.79,0,0,1,2.22,1.15v-3.56h1.26V210h-1.26Zm0-3.85a2.32,2.32,0,0,0-1.88-1c-1.26,0-2,1-2,2.44s.78,2.43,2,2.43a2.32,2.32,0,0,0,1.88-1Z"/><path class="cls-2" d="M903.92,211.27a2.18,2.18,0,0,0,1-1.3h-.21a.75.75,0,0,1-.75-.75v0a.85.85,0,0,1,.84-.86h0a1,1,0,0,1,1,1,1,1,0,0,1,0,.17,2.88,2.88,0,0,1-1.23,2.26Z"/><path class="cls-2" d="M911.09,208.13a3.3,3.3,0,0,0,2.27,1c.95,0,1.46-.39,1.46-1s-.78-.9-1.64-1.09c-1.15-.27-2.5-.58-2.5-2,0-1.08.93-2,2.58-2a3.63,3.63,0,0,1,2.58,1l-.56.88a2.69,2.69,0,0,0-2-.82c-.85,0-1.38.33-1.38.88s.73.78,1.57,1c1.17.27,2.57.59,2.57,2.14,0,1.17-.95,2.08-2.73,2.08a3.81,3.81,0,0,1-2.81-1.06Z"/><path class="cls-2" d="M921.8,209.2a2.92,2.92,0,0,1-2.21.91,2.26,2.26,0,0,1-2.36-2.16v-.09a2.19,2.19,0,0,1,2.14-2.22h.22a2.84,2.84,0,0,1,2.21.9v-1.12c0-.84-.69-1.35-1.65-1.35a2.78,2.78,0,0,0-2,.9l-.55-.87a3.81,3.81,0,0,1,2.77-1.11c1.48,0,2.72.65,2.72,2.37v4.57H921.8Zm0-1.9a2.15,2.15,0,0,0-1.74-.77,1.36,1.36,0,1,0-.4,2.69,1.34,1.34,0,0,0,.4,0,2.12,2.12,0,0,0,1.74-.77Z"/><path class="cls-2" d="M933.3,205.43c0-.79-.35-1.31-1.18-1.31a2.17,2.17,0,0,0-1.68,1V210h-1.26v-4.51c0-.79-.34-1.31-1.19-1.31a2.19,2.19,0,0,0-1.65,1V210h-1.26v-6.77h1.26v1a2.88,2.88,0,0,1,2.18-1.12,1.77,1.77,0,0,1,1.84,1.26,2.81,2.81,0,0,1,2.28-1.26c1.25,0,1.92.69,1.92,2.05V210H933.3Z"/><path class="cls-2" d="M936.81,208.44v-4.16h-1.12v-1.11h1.12v-1.85h1.26v1.85h1.37v1.11h-1.37v3.88c0,.47.22.83.66.83a1,1,0,0,0,.68-.27l.32.95a1.75,1.75,0,0,1-1.31.44,1.47,1.47,0,0,1-1.62-1.31A1.45,1.45,0,0,1,936.81,208.44Z"/><path class="cls-2" d="M947.42,203a3.35,3.35,0,0,1,3.29,3.66V207h-5.35a2.22,2.22,0,0,0,2.3,2.1,2.86,2.86,0,0,0,2-.8l.59.83a3.8,3.8,0,0,1-2.72,1,3.56,3.56,0,0,1-.11-7.11Zm-2.07,3.06h4.13a2,2,0,0,0-2-2h-.06A2.07,2.07,0,0,0,945.35,206.06Z"/><path class="cls-2" d="M956.86,205.61c0-1.12-.58-1.49-1.45-1.49a2.43,2.43,0,0,0-1.86,1V210h-1.26v-6.77h1.26v1A3.24,3.24,0,0,1,956,203a2,2,0,0,1,2.17,1.81,2.41,2.41,0,0,1,0,.38v4.75h-1.26Z"/><path class="cls-2" d="M966,207l-1,1v1.88h-1.26v-9.35H965v6l3.26-3.43h1.59l-2.92,3.07,2.94,3.7h-1.59Z"/><path class="cls-2" d="M970.25,206.55a3.42,3.42,0,1,1,3.42,3.56,3.36,3.36,0,0,1-3.43-3.29A2.44,2.44,0,0,1,970.25,206.55Zm5.52,0a2.12,2.12,0,1,0-2.1,2.44,2.19,2.19,0,0,0,2.11-2.26A1.09,1.09,0,0,0,975.77,206.55Z"/><path class="cls-2" d="M978.68,203.17h1.26v1a2.89,2.89,0,0,1,2.22-1.19v1.27a1.62,1.62,0,0,0-.44,0,2.41,2.41,0,0,0-1.78,1V210h-1.26Z"/><path class="cls-2" d="M983.67,208.44v-4.16h-1.13v-1.11h1.13v-1.85h1.26v1.85h1.37v1.11h-1.37v3.88c0,.47.22.83.65.83a1,1,0,0,0,.69-.27l.32.95a1.75,1.75,0,0,1-1.31.44,1.47,1.47,0,0,1-1.62-1.31A1.45,1.45,0,0,1,983.67,208.44Z"/><path class="cls-2" d="M806.54,217.4h1.26V221a2.7,2.7,0,0,1,2.2-1.2c1.77,0,3,1.39,3,3.56s-1.26,3.55-3,3.55a2.77,2.77,0,0,1-2.21-1.14v1h-1.26Zm3.13,8.39c1.27,0,2.05-1,2.05-2.43s-.78-2.44-2.05-2.44a2.31,2.31,0,0,0-1.87,1v2.88A2.32,2.32,0,0,0,809.67,225.79Z"/><path class="cls-2" d="M817.6,219.8a3.35,3.35,0,0,1,3.29,3.66v.31h-5.35a2.22,2.22,0,0,0,2.3,2.1,2.86,2.86,0,0,0,2-.8l.59.83a3.8,3.8,0,0,1-2.72,1,3.56,3.56,0,0,1-.11-7.11Zm-2.07,3.06h4.13a2,2,0,0,0-2-2h-.06a2.05,2.05,0,0,0-2.07,2Z"/><path class="cls-2" d="M822.48,224.93a3.24,3.24,0,0,0,2.27,1c1,0,1.46-.39,1.46-1s-.77-.89-1.64-1.09c-1.15-.27-2.49-.58-2.49-2,0-1.08.92-2,2.57-2a3.63,3.63,0,0,1,2.58,1l-.56.88a2.65,2.65,0,0,0-2-.82c-.86,0-1.39.33-1.39.88s.73.78,1.57,1c1.18.27,2.58.59,2.58,2.14,0,1.17-1,2.08-2.73,2.08a3.85,3.85,0,0,1-2.82-1Z"/><path class="cls-2" d="M831.3,223.82l-1,1v1.88H829v-9.3h1.26v6l3.26-3.43h1.59l-2.9,3,2.95,3.7h-1.6Z"/><path class="cls-2" d="M836.3,220h1.26v1a2.9,2.9,0,0,1,2.21-1.19v1.27a3.09,3.09,0,0,0-.43,0,2.41,2.41,0,0,0-1.78,1v4.71H836.3Z"/><path class="cls-2" d="M840.84,218a.81.81,0,1,1,.81.81A.81.81,0,0,1,840.84,218Zm.16,2h1.26v6.77H841Z"/><path class="cls-2" d="M843.3,220h1.34l2.12,5.31,2.12-5.31h1.35l-2.78,6.77h-1.36Z"/><path class="cls-2" d="M854.22,219.8a3.35,3.35,0,0,1,3.29,3.66v.31h-5.35a2.22,2.22,0,0,0,2.3,2.1,2.86,2.86,0,0,0,2-.8l.59.83a3.8,3.8,0,0,1-2.72,1,3.56,3.56,0,0,1-.11-7.11Zm-2.07,3.06h4.13a2,2,0,0,0-2-2h-.06a2.07,2.07,0,0,0-2.07,2Z"/><path class="cls-2" d="M859.09,217.4h1.26v9.34h-1.26Z"/><path class="cls-2" d="M862.37,224.93a3.24,3.24,0,0,0,2.27,1c1,0,1.45-.39,1.45-1s-.77-.89-1.63-1.09c-1.15-.27-2.5-.58-2.5-2,0-1.08.93-2,2.58-2a3.63,3.63,0,0,1,2.58,1l-.56.88a2.69,2.69,0,0,0-2-.82c-.85,0-1.38.33-1.38.88s.73.78,1.57,1c1.17.27,2.57.59,2.57,2.14,0,1.17-1,2.08-2.73,2.08a3.83,3.83,0,0,1-2.81-1Z"/><path class="cls-2" d="M871.88,219.8a3.35,3.35,0,0,1,3.29,3.66v.31h-5.35a2.2,2.2,0,0,0,2.29,2.1,2.93,2.93,0,0,0,2-.8l.59.83a3.8,3.8,0,0,1-2.72,1,3.56,3.56,0,0,1-.11-7.11Zm-2.08,3.06h4.13a2,2,0,0,0-2-2A2.07,2.07,0,0,0,869.8,222.86Z"/><path class="cls-2" d="M884.53,226a2.92,2.92,0,0,1-2.21.91,2.26,2.26,0,0,1-2.35-2.15v-.09a2.19,2.19,0,0,1,2.13-2.23h.22a2.84,2.84,0,0,1,2.21.9v-1.12c0-.84-.68-1.35-1.65-1.35a2.78,2.78,0,0,0-2,.9l-.55-.87a3.85,3.85,0,0,1,2.78-1.11c1.47,0,2.71.65,2.71,2.37v4.57h-1.26Zm0-1.9a2.13,2.13,0,0,0-1.73-.77,1.36,1.36,0,1,0-.4,2.69,1.34,1.34,0,0,0,.4,0,2.12,2.12,0,0,0,1.73-.77Z"/><path class="cls-2" d="M888.11,221.08H887V220h1.12v-.45a2,2,0,0,1,1.71-2.25,2.06,2.06,0,0,1,.35,0,2.24,2.24,0,0,1,1.11.26l-.29.94a1.21,1.21,0,0,0-.61-.16c-.63,0-1,.42-1,1.23V220h1.37v1.11h-1.37v5.66h-1.27Z"/><path class="cls-2" d="M900.38,225.77a2.84,2.84,0,0,1-2.21,1.14c-1.77,0-3-1.33-3-3.55s1.26-3.56,3-3.56a2.76,2.76,0,0,1,2.21,1.15V217.4h1.26v9.34h-1.26Zm0-3.85a2.32,2.32,0,0,0-1.88-1c-1.26,0-2,1-2,2.44s.78,2.43,2,2.43a2.35,2.35,0,0,0,1.88-1Z"/><path class="cls-2" d="M906.62,219.8a3.36,3.36,0,0,1,3.3,3.66v.31h-5.36a2.22,2.22,0,0,0,2.3,2.1,2.93,2.93,0,0,0,2-.8l.58.83a3.78,3.78,0,0,1-2.71,1,3.56,3.56,0,0,1-.12-7.11Zm-2.07,3.06h4.13a2,2,0,0,0-2-2h-.06A2.07,2.07,0,0,0,904.55,222.86Z"/><path class="cls-2" d="M915.36,225.24v-4.16h-1.12V220h1.12v-1.85h1.26V220H918v1.11h-1.37V225c0,.48.22.83.66.83a1,1,0,0,0,.68-.27l.33.95A1.81,1.81,0,0,1,917,227a1.47,1.47,0,0,1-1.62-1.71Z"/><path class="cls-2" d="M919.19,218a.82.82,0,0,1,.82-.81.81.81,0,1,1,0,1.61h0a.81.81,0,0,1-.82-.8Zm.2,1.93h1.26v6.77h-1.26Z"/><path class="cls-2" d="M927.22,222.41c0-1.12-.58-1.49-1.44-1.49a2.45,2.45,0,0,0-1.87,1v4.83h-1.26V220h1.26V221a3.27,3.27,0,0,1,2.4-1.12,2,2,0,0,1,2.17,1.81,2.41,2.41,0,0,1,0,.38v4.75h-1.26Z"/><path class="cls-2" d="M931,227.55a2.62,2.62,0,0,0,2.18.9,1.88,1.88,0,0,0,2.09-1.62c0-.11,0-.21,0-.32v-.88a2.85,2.85,0,0,1-2.23,1.16c-1.75,0-3-1.28-3-3.5s1.26-3.49,3-3.49a2.77,2.77,0,0,1,2.25,1.2v-1h1.26v6.5c0,2.33-1.7,3-3.36,3a3.65,3.65,0,0,1-2.78-1Zm4.28-5.63a2.35,2.35,0,0,0-1.88-1,2.4,2.4,0,0,0,0,4.75,2.38,2.38,0,0,0,1.88-1Z"/><path class="cls-2" d="M941.17,220h1.35l2.11,5.31,2.12-5.31h1.36l-2.79,6.77H944Z"/><path class="cls-2" d="M948.93,218a.82.82,0,0,1,.91-.72.81.81,0,0,1,.72.72.82.82,0,0,1-.91.72A.81.81,0,0,1,948.93,218Zm.2,1.93h1.26v6.77h-1.26Z"/><path class="cls-2" d="M955,220h1.34l2.12,5.31,2.11-5.31h1.36l-2.79,6.77h-1.36Z"/><path class="cls-2" d="M962.76,218a.82.82,0,0,1,.82-.81.81.81,0,0,1,0,1.61h0a.81.81,0,0,1-.82-.8Zm.24,2h1.26v6.77H963Z"/><path class="cls-2" d="M966.22,217.4h1.26v9.34h-1.26Z"/><path class="cls-2" d="M803.84,244.35a2.64,2.64,0,0,0,2.17.9,1.88,1.88,0,0,0,2.09-1.62c0-.11,0-.21,0-.32v-.88a2.83,2.83,0,0,1-2.22,1.16c-1.75,0-3-1.28-3-3.5s1.26-3.49,3-3.49a2.73,2.73,0,0,1,2.22,1.15v-1h1.27v6.5c0,2.33-1.7,3-3.37,3a3.64,3.64,0,0,1-2.77-1Zm4.27-5.63a2.36,2.36,0,0,0-1.87-1,2.4,2.4,0,0,0,0,4.75,2.36,2.36,0,0,0,1.87-1Z"/><path class="cls-2" d="M814.34,236.6a3.35,3.35,0,0,1,3.29,3.66v.31h-5.35a2.22,2.22,0,0,0,2.3,2.1,2.82,2.82,0,0,0,2-.8l.59.83a3.78,3.78,0,0,1-2.71,1,3.56,3.56,0,0,1-.12-7.11Zm-2.07,3.06h4.13a2,2,0,0,0-2-2h-.06A2.07,2.07,0,0,0,812.27,239.66Z"/><path class="cls-2" d="M823.78,239.21c0-1.12-.57-1.49-1.44-1.49a2.45,2.45,0,0,0-1.87,1v4.83h-1.26v-6.77h1.26v.95a3.27,3.27,0,0,1,2.4-1.12,2,2,0,0,1,2.17,1.81,2.41,2.41,0,0,1,0,.38v4.75h-1.26Z"/><path class="cls-2" d="M831.61,239.21c0-1.12-.58-1.49-1.45-1.49a2.41,2.41,0,0,0-1.86,1v4.83H827v-6.77h1.26v.95a3.27,3.27,0,0,1,2.4-1.12,2,2,0,0,1,2.17,1.81,2.41,2.41,0,0,1,0,.38v4.75h-1.26Z"/><path class="cls-2" d="M837.84,236.6a3.35,3.35,0,0,1,3.29,3.66v.31h-5.35a2.21,2.21,0,0,0,2.29,2.1,2.93,2.93,0,0,0,2-.8l.59.83a3.8,3.8,0,0,1-2.72,1,3.56,3.56,0,0,1-.11-7.11Zm-2.08,3.06h4.13a2,2,0,0,0-2-2A2.07,2.07,0,0,0,835.76,239.66Z"/><path class="cls-2" d="M850.93,239c0-.79-.35-1.31-1.18-1.31a2.17,2.17,0,0,0-1.68,1v4.85h-1.26V239c0-.79-.34-1.31-1.19-1.31a2.17,2.17,0,0,0-1.65,1v4.83h-1.26v-6.77H844v.95a2.88,2.88,0,0,1,2.18-1.12,1.76,1.76,0,0,1,1.84,1.27,2.84,2.84,0,0,1,2.28-1.27c1.25,0,1.92.69,1.92,2v4.89H851Z"/><path class="cls-2" d="M854.73,244.35a2.64,2.64,0,0,0,2.17.9,1.88,1.88,0,0,0,2.09-1.62c0-.11,0-.21,0-.32v-.88a2.83,2.83,0,0,1-2.22,1.16c-1.75,0-3-1.28-3-3.5s1.27-3.49,3-3.49a2.73,2.73,0,0,1,2.22,1.15v-1h1.26v6.5c0,2.33-1.69,3-3.36,3a3.64,3.64,0,0,1-2.77-1Zm4.27-5.63a2.36,2.36,0,0,0-1.87-1,2.4,2.4,0,0,0,0,4.75,2.36,2.36,0,0,0,1.87-1Z"/><path class="cls-2" d="M866.44,242.8a2.91,2.91,0,0,1-2.22.91,2.26,2.26,0,0,1-2.35-2.15v-.1a2.19,2.19,0,0,1,2.14-2.22h.21a2.85,2.85,0,0,1,2.22.9V239c0-.84-.69-1.35-1.65-1.35a2.82,2.82,0,0,0-2,.9l-.54-.87A3.77,3.77,0,0,1,865,236.6c1.47,0,2.72.65,2.72,2.37v4.57h-1.26Zm0-1.9a2.15,2.15,0,0,0-1.74-.77,1.36,1.36,0,1,0-.4,2.69,1.34,1.34,0,0,0,.4,0,2.12,2.12,0,0,0,1.74-.77ZM865,233.16a1.42,1.42,0,1,1-1.3,1.3A1.43,1.43,0,0,1,865,233.16Zm0,.64a.79.79,0,0,0-.77.77.77.77,0,0,0,1.54,0h0A.76.76,0,0,0,865,233.8Z"/><path class="cls-2" d="M877.89,242.61a3.36,3.36,0,0,1-2.41,1.1,1.91,1.91,0,0,1-2.16-1.62,1.63,1.63,0,0,1,0-.54v-4.78h1.26v4.36c0,1.12.56,1.46,1.43,1.46a2.45,2.45,0,0,0,1.88-1v-4.86h1.26v6.77h-1.26Z"/><path class="cls-2" d="M885.72,239.21c0-1.12-.58-1.49-1.45-1.49a2.41,2.41,0,0,0-1.86,1v4.83h-1.26v-6.77h1.26v.95a3.27,3.27,0,0,1,2.4-1.12,2,2,0,0,1,2.17,1.81,2.41,2.41,0,0,1,0,.38v4.75h-1.26Z"/><path class="cls-2" d="M893.79,242.57a2.78,2.78,0,0,1-2.21,1.14c-1.76,0-3-1.33-3-3.55s1.26-3.56,3-3.56a2.73,2.73,0,0,1,2.21,1.15V234.2h1.27v9.34h-1.27Zm0-3.85a2.31,2.31,0,0,0-1.87-1c-1.26,0-2,1-2,2.44a2.15,2.15,0,0,0,1.85,2.42h.15a2.33,2.33,0,0,0,1.87-1Z"/><path class="cls-2" d="M900,236.6a3.35,3.35,0,0,1,3.29,3.66v.31H898a2.22,2.22,0,0,0,2.3,2.1,2.86,2.86,0,0,0,2-.8l.59.83a3.8,3.8,0,0,1-2.72,1,3.56,3.56,0,0,1-.11-7.11Zm-2,3.06h4.14a2,2,0,0,0-2-2h-.06A2.08,2.08,0,0,0,898,239.66Z"/><path class="cls-2" d="M904.91,236.77h1.26v1a2.9,2.9,0,0,1,2.21-1.19v1.27H908a2.4,2.4,0,0,0-1.78,1v4.71h-1.26Z"/><path class="cls-2" d="M913.27,241.73a3.24,3.24,0,0,0,2.27,1c1,0,1.45-.39,1.45-1s-.77-.9-1.64-1.09c-1.14-.27-2.49-.58-2.49-2,0-1.08.93-2,2.58-2a3.63,3.63,0,0,1,2.58,1l-.56.88a2.69,2.69,0,0,0-2-.82c-.85,0-1.38.33-1.38.88s.72.78,1.56,1c1.18.27,2.58.59,2.58,2.14,0,1.17-1,2.08-2.73,2.08a3.88,3.88,0,0,1-2.82-1.05Z"/><path class="cls-2" d="M924,242.8a2.92,2.92,0,0,1-2.21.91,2.26,2.26,0,0,1-2.36-2.14v-.11a2.19,2.19,0,0,1,2.14-2.22h.22a2.84,2.84,0,0,1,2.21.9V239c0-.84-.69-1.35-1.65-1.35a2.82,2.82,0,0,0-2,.9l-.54-.87a3.81,3.81,0,0,1,2.77-1.11c1.47,0,2.72.65,2.72,2.37v4.57H924Zm0-1.9a2.15,2.15,0,0,0-1.74-.77,1.36,1.36,0,1,0-.4,2.69,1.34,1.34,0,0,0,.4,0,2.12,2.12,0,0,0,1.74-.77Z"/><path class="cls-2" d="M935.48,239c0-.79-.36-1.31-1.18-1.31a2.17,2.17,0,0,0-1.68,1v4.85h-1.26V239c0-.79-.34-1.31-1.19-1.31a2.21,2.21,0,0,0-1.66,1v4.83h-1.26v-6.77h1.26v.95a2.94,2.94,0,0,1,2.19-1.12,1.75,1.75,0,0,1,1.83,1.27,2.86,2.86,0,0,1,2.29-1.27c1.24,0,1.92.69,1.92,2v4.89h-1.26Z"/><path class="cls-2" d="M939,242v-4.16h-1.12v-1.11H939v-1.85h1.27v1.85h1.37v1.11h-1.37v3.88c0,.48.22.83.65.83a1,1,0,0,0,.69-.27l.32,1a1.77,1.77,0,0,1-1.32.44A1.48,1.48,0,0,1,939,242.4,1.34,1.34,0,0,1,939,242Z"/><path class="cls-2" d="M947.19,242.8a2.92,2.92,0,0,1-2.21.91,2.26,2.26,0,0,1-2.36-2.16v-.09a2.19,2.19,0,0,1,2.14-2.22H945a2.84,2.84,0,0,1,2.21.9V239c0-.84-.69-1.35-1.65-1.35a2.78,2.78,0,0,0-2,.9l-.55-.87a3.81,3.81,0,0,1,2.77-1.11c1.48,0,2.72.65,2.72,2.37v4.57h-1.26Zm0-1.9a2.15,2.15,0,0,0-1.74-.77,1.36,1.36,0,1,0-.4,2.69,1.34,1.34,0,0,0,.4,0,2.12,2.12,0,0,0,1.74-.77Z"/><path class="cls-2" d="M950.46,234.2h1.27v9.34h-1.27Z"/><path class="cls-2" d="M956.7,236.6a3.35,3.35,0,0,1,3.29,3.66v.31h-5.35a2.21,2.21,0,0,0,2.29,2.1,2.93,2.93,0,0,0,2-.8l.59.83a3.8,3.8,0,0,1-2.72,1,3.56,3.56,0,0,1-.11-7.11Zm-2.08,3.06h4.13a2,2,0,0,0-2-2A2.07,2.07,0,0,0,954.62,239.66Z"/><path class="cls-2" d="M966.13,239.21c0-1.12-.57-1.49-1.44-1.49a2.41,2.41,0,0,0-1.86,1v4.83h-1.26v-6.77h1.26v.95a3.23,3.23,0,0,1,2.39-1.12,2,2,0,0,1,2.17,1.81,2.41,2.41,0,0,1,0,.38v4.75h-1.26Z"/><path class="cls-2" d="M970,241.94a.88.88,0,1,1-.87.89v0A.87.87,0,0,1,970,241.94Z"/><path class="cls-2" d="M790.47,139h5.34a3.53,3.53,0,0,1,.38,7.05h-3v3.62h-2.75Zm5,2.32h-2.22v2.4h2.22a1.2,1.2,0,0,0,0-2.4Z"/><path class="cls-2" d="M804,141.75a4,4,0,0,1,4,4.3v.53h-5.51a1.86,1.86,0,0,0,2,1.38,3,3,0,0,0,1.89-.66l1,1.54a5,5,0,0,1-3.23,1,4.06,4.06,0,0,1-.5-8.1H804ZM802.42,145h3.18a1.48,1.48,0,0,0-1.6-1.33A1.52,1.52,0,0,0,802.42,145Z"/><path class="cls-2" d="M809.17,141.94h2.46v1a3.38,3.38,0,0,1,2.42-1.17v2.38a2.49,2.49,0,0,0-.61-.08,2.45,2.45,0,0,0-1.81.72v4.9h-2.46Z"/><path class="cls-2" d="M815.54,147a4.72,4.72,0,0,0,2.72,1c.73,0,1-.24,1-.58s-.53-.54-1.33-.67c-1.31-.23-3.17-.5-3.17-2.47,0-1.36,1.17-2.54,3.31-2.54a5.45,5.45,0,0,1,3.24,1l-1,1.64a3.46,3.46,0,0,0-2.27-.85c-.58,0-1,.19-1,.53s.42.48,1.24.62c1.31.22,3.26.54,3.26,2.59,0,1.48-1.29,2.56-3.52,2.56a5.76,5.76,0,0,1-3.62-1.18Z"/><path class="cls-2" d="M822.4,145.8a4.22,4.22,0,1,1,4.38,4.06h-.17a4,4,0,0,1-4.2-3.78A2.72,2.72,0,0,1,822.4,145.8Zm5.91,0a1.7,1.7,0,0,0-1.52-1.86h-.18a1.89,1.89,0,0,0,0,3.76,1.72,1.72,0,0,0,1.71-1.71A1.09,1.09,0,0,0,828.31,145.8Z"/><path class="cls-2" d="M837.36,145.21c0-1-.49-1.28-1.26-1.28a1.91,1.91,0,0,0-1.51.75v5h-2.46V142h2.46v1a3.5,3.5,0,0,1,2.68-1.14,2.28,2.28,0,0,1,2.55,2,2.57,2.57,0,0,1,0,.48v5.47h-2.47Z"/><path class="cls-2" d="M841.62,139h2.46v10.67h-2.46Z"/><path class="cls-2" d="M845.7,139.56a1.41,1.41,0,1,1,1.42,1.4h0a1.4,1.4,0,0,1-1.41-1.39Zm.17,2.38h2.47v7.73h-2.47Z"/><path class="cls-2" d="M851,149.9a3.14,3.14,0,0,0,2.36.89,1.73,1.73,0,0,0,2-1.44,1.83,1.83,0,0,0,0-.33v-.6a2.87,2.87,0,0,1-2.28,1.12c-1.89,0-3.41-1.29-3.41-3.9s1.47-3.89,3.41-3.89a2.82,2.82,0,0,1,2.28,1.1v-.91h2.45v7c0,3.16-2.49,3.83-4.41,3.83a5.16,5.16,0,0,1-3.43-1.15Zm4.32-5.29a2,2,0,0,0-1.47-.68,1.72,1.72,0,0,0,0,3.44h0a2,2,0,0,0,1.47-.69Z"/><path class="cls-2" d="M864,147a4.72,4.72,0,0,0,2.72,1c.74,0,1-.24,1-.58s-.52-.54-1.33-.67c-1.31-.23-3.16-.5-3.16-2.47,0-1.36,1.16-2.54,3.31-2.54a5.4,5.4,0,0,1,3.23,1l-.94,1.64a3.46,3.46,0,0,0-2.28-.85c-.57,0-1,.19-1,.53s.41.48,1.23.62c1.31.22,3.27.54,3.27,2.59,0,1.48-1.3,2.56-3.53,2.56a5.73,5.73,0,0,1-3.61-1.18Z"/><path class="cls-2" d="M876,148.9a3.19,3.19,0,0,1-2.4,1,2.55,2.55,0,0,1-2.66-2.44v-.1a2.39,2.39,0,0,1,2.31-2.45l.35,0a3.11,3.11,0,0,1,2.4.89v-1c0-.68-.58-1.12-1.57-1.12a3.39,3.39,0,0,0-2.19.81l-.88-1.55a5.43,5.43,0,0,1,3.5-1.2c1.86,0,3.61.69,3.61,3.09v4.83H876Zm0-1.9a1.75,1.75,0,0,0-1.38-.55c-.65,0-1.23.29-1.23.9s.58.9,1.23.9a1.72,1.72,0,0,0,1.38-.56Z"/><path class="cls-2" d="M890,145a.93.93,0,0,0-.85-1H889a1.78,1.78,0,0,0-1.39.75v5h-2.47V145a.92.92,0,0,0-.83-1h-.17a1.81,1.81,0,0,0-1.38.75v5h-2.47V142h2.47V143a3.43,3.43,0,0,1,2.54-1.14,2.1,2.1,0,0,1,2.2,1.37,3.32,3.32,0,0,1,2.67-1.37,2.08,2.08,0,0,1,2.32,1.81,2.17,2.17,0,0,1,0,.51v5.6H890Z"/><path class="cls-2" d="M894.74,147.59v-3.5h-1.28v-2.15h1.28v-2.11h2.45v2.11h1.56v2.15h-1.56v2.81a.7.7,0,0,0,.6.78h.08a1,1,0,0,0,.63-.19l.48,1.85a2.67,2.67,0,0,1-1.83.51C895.58,149.86,894.74,149.08,894.74,147.59Z"/><path class="cls-2" d="M904.55,148.9a3.17,3.17,0,0,1-2.41,1,2.55,2.55,0,0,1-2.65-2.45v-.09a2.37,2.37,0,0,1,2.31-2.44,1.9,1.9,0,0,1,.34,0,3.14,3.14,0,0,1,2.41.89v-1c0-.68-.58-1.12-1.57-1.12a3.39,3.39,0,0,0-2.19.81L899.9,143a5.46,5.46,0,0,1,3.51-1.2c1.86,0,3.6.69,3.6,3.09v4.83h-2.46Zm0-1.9a1.79,1.79,0,0,0-1.38-.55c-.66,0-1.23.29-1.23.9s.57.9,1.23.9a1.72,1.72,0,0,0,1.38-.56Z"/><path class="cls-2" d="M908.8,139h2.46v10.67H908.8Z"/><path class="cls-2" d="M916.66,141.75a4,4,0,0,1,4,4.3v.53H915.1a1.86,1.86,0,0,0,2,1.38,3,3,0,0,0,1.89-.66l1,1.54a5,5,0,0,1-3.23,1,4.06,4.06,0,0,1-.5-8.1h.39ZM915.07,145h3.19a1.5,1.5,0,0,0-1.6-1.33A1.52,1.52,0,0,0,915.07,145Z"/><path class="cls-2" d="M935.67,145a.93.93,0,0,0-.85-1h-.15a1.8,1.8,0,0,0-1.39.75v5h-2.46V145a.93.93,0,0,0-.85-1h-.15a1.81,1.81,0,0,0-1.38.75v5H926V142h2.46V143a3.45,3.45,0,0,1,2.55-1.14,2.1,2.1,0,0,1,2.19,1.37,3.34,3.34,0,0,1,2.67-1.37,2.09,2.09,0,0,1,2.33,2.32v5.6h-2.45Z"/><path class="cls-2" d="M943.52,141.75a4,4,0,0,1,4,4.3v.53H942a1.83,1.83,0,0,0,2,1.38,3,3,0,0,0,1.89-.66l1,1.54a5,5,0,0,1-3.24,1,4.06,4.06,0,0,1-.5-8.1h.39ZM941.94,145h3.18a1.48,1.48,0,0,0-1.6-1.33A1.52,1.52,0,0,0,941.94,145Z"/><path class="cls-2" d="M953.89,148.78a3,3,0,0,1-2.29,1.08c-1.9,0-3.43-1.44-3.43-4.06s1.49-4.05,3.43-4.05a2.88,2.88,0,0,1,2.29,1.1V139h2.45v10.67h-2.45Zm0-4.17a2,2,0,0,0-1.49-.68,1.71,1.71,0,0,0-1.71,1.69,1.09,1.09,0,0,0,0,.18,1.72,1.72,0,0,0,1.54,1.88h.16a2,2,0,0,0,1.49-.71Z"/><path class="cls-2" d="M967.44,148.78a3,3,0,0,1-2.29,1.08c-1.9,0-3.42-1.44-3.42-4.06s1.48-4.05,3.42-4.05a2.88,2.88,0,0,1,2.29,1.1V139h2.45v10.67h-2.45Zm0-4.17a2,2,0,0,0-1.49-.68,1.71,1.71,0,0,0-1.71,1.69,1.09,1.09,0,0,0,0,.18,1.72,1.72,0,0,0,1.54,1.88H966a2,2,0,0,0,1.49-.71Z"/><path class="cls-2" d="M971.52,139.56a1.41,1.41,0,1,1,1.42,1.4h0a1.4,1.4,0,0,1-1.41-1.39Zm.17,2.38h2.47v7.73h-2.47Z"/><path class="cls-2" d="M976.81,149.9a3.14,3.14,0,0,0,2.36.89,1.74,1.74,0,0,0,2-1.46,1.62,1.62,0,0,0,0-.31v-.6a2.88,2.88,0,0,1-2.29,1.12c-1.89,0-3.41-1.29-3.41-3.9s1.47-3.89,3.41-3.89a2.88,2.88,0,0,1,2.29,1.1v-.91h2.44v7c0,3.16-2.49,3.83-4.41,3.83a5.16,5.16,0,0,1-3.43-1.15Zm4.33-5.29a2,2,0,0,0-1.48-.68,1.72,1.72,0,1,0,0,3.44,2,2,0,0,0,1.48-.69Z"/><path class="cls-4" d="M861.13,113.1a25.87,25.87,0,0,1,13-22.44,21,21,0,1,1,25.68,0,26,26,0,0,1,13,22.44V117c0,1.92.13,2.43-2.44,2.43h-46.8c-2.57,0-2.44-.51-2.44-2.43Z"/><path class="cls-5" d="M355.29,149.31l-15.11-11.26a.85.85,0,0,0-1.21.14.89.89,0,0,0-.19.55v5.59a.86.86,0,0,1-.84.87h-.15l-24.16-3.71a.85.85,0,0,0-1,.7.88.88,0,0,0,0,.16v15.32a.87.87,0,0,0,.85.87h.16l24.16-3.69a.86.86,0,0,1,1,.72.38.38,0,0,1,0,.15v5.54a.87.87,0,0,0,.84.88.83.83,0,0,0,.56-.19l15.11-11.26a.86.86,0,0,0,.15-1.21A.71.71,0,0,0,355.29,149.31Z"/><path class="cls-5" d="M724.29,149.31l-15.11-11.26a.85.85,0,0,0-1.21.14.89.89,0,0,0-.19.55v5.59a.86.86,0,0,1-.84.87h-.15l-24.16-3.71a.85.85,0,0,0-1,.7.88.88,0,0,0,0,.16v15.32a.87.87,0,0,0,.85.87h.16l24.16-3.68a.85.85,0,0,1,1,.71.38.38,0,0,1,0,.15v5.54a.87.87,0,0,0,.84.88.83.83,0,0,0,.56-.19l15.11-11.26a.86.86,0,0,0,.15-1.21A.71.71,0,0,0,724.29,149.31Z"/></g></g></g></g></svg>