<svg width="100" height="100" viewBox="0 0 100 100" xmlns="http://www.w3.org/2000/svg"><title>Slice 1</title><g id="Page-1" fill="none" fill-rule="evenodd"><g id="insurance-on"><g id="Layer_2"><g id="Blue_icons"><circle id="Oval" fill="#0060A9" cx="49.942" cy="49.942" r="49.942"/><path d="M65.643 14.332c-1.55.802-3.28 1.856-3.645 2.485a1.91 1.91 0 0 0 1.652 2.867c.685 0 1.318-.364 1.662-.956.365-.624.412-2.654.33-4.396zM72.13 18.077c-1.552.8-3.28 1.856-3.645 2.484a1.91 1.91 0 0 0 1.652 2.87 1.925 1.925 0 0 0 1.665-.95c.36-.633.408-2.66.328-4.403zM59.018 18.317c-1.55.8-3.28 1.857-3.645 2.485a1.91 1.91 0 0 0 1.653 2.868c.684 0 1.317-.364 1.662-.956.364-.628.41-2.654.33-4.397zM65.504 22.062c-1.55.8-3.28 1.857-3.645 2.485a1.91 1.91 0 0 0 1.652 2.867 1.92 1.92 0 0 0 1.66-.956c.365-.627.414-2.654.332-4.396zM71.99 25.807c-1.55.8-3.28 1.856-3.645 2.485a1.91 1.91 0 0 0 1.653 2.867c.684 0 1.317-.365 1.662-.957.363-.627.412-2.654.33-4.396zM48.53 53.422v21.362c0 1.642-1.713 1.69-1.91 1.69-.31 0-1.855-.078-1.855-1.6a1.495 1.495 0 0 0-2.987 0c0 3.014 2.43 4.59 4.843 4.59 2.43 0 4.9-1.607 4.9-4.68V53.482c-.53-.6-2.57-.46-2.99-.058zM51.175 29.93c-.243-1.504-.704-3.84-1.232-3.84-.53 0-.992 2.336-1.233 3.84-27.72.642-25.807 22.574-24.267 22.574.973 0 2.033-1.95 4.85-1.95 2.816 0 3.533 1.95 4.35 1.95.82 0 2.785-1.95 5.604-1.95 2.82 0 3.906 1.95 4.85 1.95.942 0 3.03-1.95 5.847-1.95 2.817 0 4.903 1.95 5.847 1.95.945 0 2.035-1.95 4.85-1.95 2.816 0 4.78 1.95 5.6 1.95.82 0 1.536-1.95 4.352-1.95 2.815 0 3.878 1.95 4.85 1.95 1.54 0 3.454-21.932-24.267-22.573z" id="Shape" fill="#FFF"/></g></g></g></g></svg>