<svg width="100" height="100" viewBox="0 0 100 100" xmlns="http://www.w3.org/2000/svg"><title>Service - Port Agency (blue)</title><g id="Page-1" fill="none" fill-rule="evenodd"><g id="Service---Port-Agency-(blue)"><ellipse id="Oval" fill="#0060A9" cx="49.821" cy="49.882" rx="49.821" ry="49.882"/><path d="M68.867 56.808c-2.284-2.75-5.42-4.85-9.404-6.295.85 4.5 2.28 8.44 4.347 11.772 1.996-5.232 7.646 7.2-.485 8.252-7.505.97-9.624.742-9.978-6.937L52.27 33.276l7.676-.657v-2.576l-7.55-.648c1.885-.9 3.182-2.488 3.182-5.117 0-2.747-2.548-5.705-5.704-5.705-3.155 0-5.703 2.954-5.703 5.704 0 2.63 1.3 4.22 3.19 5.12l-7.558.644v2.563l7.674.658L46.4 63.583c-.363 7.783-2.395 8.036-9.978 6.94-8.1-1.168-2.496-13.533-.486-8.252 2.063-3.325 3.5-7.266 4.35-11.77-3.995 1.435-7.13 3.533-9.406 6.294 3.5 1.03-12.38 16.548 2.063 19.438 4.788.958 13.826 1.213 16.927 4.94 3.102-3.726 12.136-3.982 16.927-4.94 14.443-2.878-1.43-18.395 2.07-19.424zm-18.985-29.71a2.818 2.818 0 1 1 0-5.635 2.818 2.818 0 0 1 0 5.636z" id="Shape" fill="#FFF"/></g></g></svg>