<svg width="100" height="100" viewBox="0 0 100 100" xmlns="http://www.w3.org/2000/svg"><title>Service - Chartering (blue)</title><g id="Page-1" fill="none" fill-rule="evenodd"><g id="Service---Chartering-(blue)"><circle id="Oval" fill="#0060A9" cx="49.882" cy="49.882" r="49.882"/><path d="M35.325 76.996C33.48 68.628 24.022 59.53 20.915 56.73a.728.728 0 0 1 .294-1.25l27.27-8.033a.364.364 0 0 1 .473.353v29.196H35.325zm29.115 0c1.846-8.368 11.303-17.465 14.41-20.267a.728.728 0 0 0-.294-1.25l-27.273-8.033a.364.364 0 0 0-.472.35v29.2h13.63zm-30.563-40.87h-1.84a.455.455 0 0 1-.452-.516l-.018-2.605a.45.45 0 0 1 .45-.497h1.86V27.74c0-.15.12-.27.27-.27h7.294v-3.64h-.572v-1.06h6.606v1.06H46.9v3.64h5.962v-3.64h-.572v-1.06h6.605v1.06h-.57v3.64h7.292c.15 0 .27.12.27.27v4.764h1.95a.407.407 0 0 1 .408.407v2.713a.502.502 0 0 1-.503.502h-1.854v6.033h1a.42.42 0 0 1 .416.4l.35 7.74a.364.364 0 0 1-.47.352L50.37 45.732a1.745 1.745 0 0 0-.98 0l-16.81 4.92a.364.364 0 0 1-.474-.354l.35-7.74a.42.42 0 0 1 .42-.398h.997v-6.035h.002zm17.977 6.032h9.71v-6.033h-9.71v6.033zm-13.653 0h9.71v-6.033H38.2v6.033z" id="Shape" fill="#FFF"/></g></g></svg>