<svg width="100" height="100" viewBox="0 0 100 100" xmlns="http://www.w3.org/2000/svg"><title>Service - North Atlantic (blue)</title><g id="Page-1" fill="none" fill-rule="evenodd"><g id="Service---North-Atlantic-(blue)"><circle id="Oval" fill="#0060A9" cx="49.882" cy="49.882" r="49.882"/><path d="M34.422 36.31l-.773.294 1.77-4.773c.137-.372.396-.687.733-.895l9.11-5.613c.113-.07.22-.15.314-.243l5.084-5.004a1.778 1.778 0 0 1 2.205-.23l9.02 5.762c.31.2.553.49.69.83l4.386 10.82-.7 1.54-3.06-2.33a2.904 2.904 0 0 0-3.222-.197l-.533.312c-.386.225-.82.358-1.266.388l-3.05.206c-.3.02-.596.088-.877.2l-1.876.746c-.43.17-.908.168-1.335-.01l-1.952-.8a2.904 2.904 0 0 0-2.296.036l-.183.082a2.904 2.904 0 0 1-3.453-.83l-.12-.15a2.904 2.904 0 0 0-3.773-.66l-2.648 1.61-2.194-1.09zm27.046 1.994l-1.856 1.08-4.26.29c-.196.014-.388.06-.57.136l-2.376 1.004c-.437.184-.93.186-1.368.006l-2.348-.97a1.778 1.778 0 0 0-1.404.02l-2.204.99a1.778 1.778 0 0 1-2.113-.508l-1.124-1.394a1.778 1.778 0 0 0-2.305-.405l-2.79 1.7-2.455-1.215-1.802.685-1.335 3.59c-.052.14-.086.288-.102.438l-.675 6.575c-.058.578.168 1.15.608 1.53l2.56 2.204c.2.17.357.382.463.62l4.668 10.437c.144.322.38.594.678.78l4.55 2.854c.52.326.834.895.834 1.507v1.69c0 .385.125.76.356 1.07l4.876 6.476a1.778 1.778 0 0 0 2.998-.25l5.31-10.226c.08-.158.186-.303.31-.43l6.222-6.31c.333-.34.518-.797.512-1.273l-.078-5.903a1.778 1.778 0 0 1 .68-1.42l2.79-2.184c.43-.337.68-.853.68-1.398V44.15c0-.21-.037-.417-.11-.614l-1.085-2.94-.956 2.1-5.776-4.392z" id="Shape" fill="#FFF"/></g></g></svg>