<svg width="100" height="100" viewBox="0 0 100 100" xmlns="http://www.w3.org/2000/svg"><title>warehousing-on</title><g id="Page-1" fill="none" fill-rule="evenodd"><g id="warehousing-on"><circle id="Oval" fill="#0060A9" cx="49.942" cy="49.942" r="49.942"/><path d="M76.65 49.092h-4.174a.306.306 0 0 1-.306-.306V30.203a3.402 3.402 0 0 0-3.402-3.402H57.855c-9.543 0-12.648 9.093-13.1 10.714-.405 1.458-3.047 13.73-3.887 17.57a.304.304 0 0 1-.3.243h-1.897a.306.306 0 0 1-.305-.306V26.3c0-.17.137-.306.306-.306h2.764c.17 0 .306-.137.306-.306v-1.593a.306.306 0 0 0-.306-.306h-6.23a.306.306 0 0 0-.306.305v17.937h-1.92a.306.306 0 0 0-.306.306v23.51c0 .15-.11.28-.26.3L14.073 68.84a.306.306 0 0 0-.26.302v.768c0 .17.136.306.305.306h19.087a8.193 8.193 0 0 0 15.718 0h16.5a6.12 6.12 0 0 0 12.23 0h2.22a.69.69 0 0 0 .688-.69V53.262c0-2.26-1.18-4.168-3.913-4.168zm-32.705 5.863c1.104-4.94 3.54-15.81 3.767-16.618.243-.868 2.57-8.47 10.148-8.47h10.916c.186 0 .337.15.337.336v18.583c0 .17-.137.306-.306.306h-10.14c-4.996 0-2.673 6.234-6.95 6.234h-7.473a.304.304 0 0 1-.3-.37z" id="Shape" fill="#FFF"/></g></g></svg>