<svg width="1240" height="120" viewBox="0 0 1240 120" fill="none" xmlns="http://www.w3.org/2000/svg">
<rect x="160" width="340" height="120" fill="#F2F1E8"/>
<rect x="530" width="340" height="120" fill="#F2F1E8"/>
<rect x="900" width="340" height="120" fill="#F2F1E8"/>
<path d="M280.221 36.006C280.221 39.822 283.137 42.216 286.719 42.216C288.987 42.216 290.733 41.298 292.029 39.876V35.178H286.233V37.752H288.987V38.76C288.501 39.156 287.655 39.48 286.719 39.48C284.757 39.48 283.371 37.968 283.371 36.006C283.371 34.044 284.757 32.532 286.719 32.532C287.853 32.532 288.771 33.162 289.257 33.954L291.849 32.586C290.967 31.092 289.347 29.796 286.719 29.796C283.137 29.796 280.221 32.19 280.221 36.006ZM300.537 42H304.083L301.635 37.59C302.751 37.194 304.029 36.078 304.029 33.99C304.029 31.758 302.517 29.994 299.853 29.994H293.841V42H296.937V37.932H298.521L300.537 42ZM300.879 33.954C300.879 34.782 300.195 35.304 299.385 35.304H296.937V32.604H299.385C300.195 32.604 300.879 33.126 300.879 33.954ZM315.803 31.236L316.685 30.03L315.443 29.13L314.507 30.426C313.643 30.012 312.635 29.796 311.555 29.796C307.883 29.796 305.129 32.352 305.129 36.006C305.129 37.914 305.885 39.534 307.127 40.632L306.173 41.964L307.415 42.864L308.405 41.496C309.323 41.964 310.385 42.216 311.555 42.216C315.227 42.216 317.963 39.66 317.963 36.006C317.963 34.008 317.153 32.352 315.803 31.236ZM308.279 36.006C308.279 34.044 309.557 32.532 311.555 32.532C312.023 32.532 312.437 32.622 312.815 32.766L308.927 38.166C308.513 37.572 308.279 36.834 308.279 36.006ZM311.555 39.48C311.015 39.48 310.511 39.372 310.097 39.156L314.057 33.684C314.543 34.296 314.813 35.106 314.813 36.006C314.813 37.95 313.535 39.48 311.555 39.48ZM327.694 42H330.682V29.994H327.568V36.906L322.708 29.994H319.522V42H322.618V34.746L327.694 42ZM332.847 42H340.767V39.3H335.943V29.994H332.847V42ZM350.672 42H354.038L349.502 29.994H345.614L341.096 42H344.462L345.074 40.182H350.06L350.672 42ZM347.558 32.694L349.25 37.572H345.884L347.558 32.694ZM363.097 42H366.085V29.994H362.971V36.906L358.111 29.994H354.925V42H358.021V34.746L363.097 42ZM368.249 42H373.307C377.069 42 379.787 39.714 379.787 35.988C379.787 32.262 377.069 29.994 373.289 29.994H368.249V42ZM371.345 39.3V32.694H373.307C375.503 32.694 376.619 34.134 376.619 35.988C376.619 37.77 375.395 39.3 373.289 39.3H371.345Z" fill="#333333"/>
<path d="M218.14 87.06C218.14 90.668 220.252 93.264 224.96 93.264C229.668 93.264 231.758 90.69 231.758 87.038V78.326H227.908V86.928C227.908 88.666 226.984 89.92 224.96 89.92C222.914 89.92 221.99 88.666 221.99 86.928V78.326H218.14V87.06ZM233.656 85.674C233.656 90.338 237.22 93.264 241.598 93.264C244.37 93.264 246.504 92.142 248.088 90.404V84.662H241.004V87.808H244.37V89.04C243.776 89.524 242.742 89.92 241.598 89.92C239.2 89.92 237.506 88.072 237.506 85.674C237.506 83.276 239.2 81.428 241.598 81.428C242.984 81.428 244.106 82.198 244.7 83.166L247.868 81.494C246.79 79.668 244.81 78.084 241.598 78.084C237.22 78.084 233.656 81.01 233.656 85.674ZM250.302 93H261.06V89.81H254.086V87.17H260.906V83.958H254.086V81.516H261.06V78.326H250.302V93ZM273.245 93H276.898V78.326H273.092V86.774L267.152 78.326H263.258V93H267.042V84.134L273.245 93ZM282.821 93H286.605V81.626H290.697V78.326H278.707V81.626H282.821V93ZM292.498 93H302.178V89.7H296.282V78.326H292.498V93ZM304.142 93H307.926V78.326H304.142V93ZM309.818 85.674C309.818 90.338 313.382 93.264 317.76 93.264C320.532 93.264 322.666 92.142 324.25 90.404V84.662H317.166V87.808H320.532V89.04C319.938 89.524 318.904 89.92 317.76 89.92C315.362 89.92 313.668 88.072 313.668 85.674C313.668 83.276 315.362 81.428 317.76 81.428C319.146 81.428 320.268 82.198 320.862 83.166L324.03 81.494C322.952 79.668 320.972 78.084 317.76 78.084C313.382 78.084 309.818 81.01 309.818 85.674ZM326.465 93H337.223V89.81H330.249V87.17H337.069V83.958H330.249V81.516H337.223V78.326H326.465V93ZM356.225 93H357.633L351.627 78.326H350.065L344.059 93H345.467L346.941 89.392H354.751L356.225 93ZM350.835 79.558L354.355 88.248H347.337L350.835 79.558ZM359.799 93H361.053V86.048H368.951V84.904H361.053V79.47H369.105V78.326H359.799V93ZM371.172 85.674C371.172 90.206 374.472 93.286 378.608 93.286C380.918 93.286 382.854 92.296 384.174 90.844V85.718H377.354V86.862H382.92V90.36C382.106 91.174 380.566 92.142 378.608 92.142C375.154 92.142 372.492 89.458 372.492 85.674C372.492 81.846 375.154 79.228 378.608 79.228C380.478 79.228 382.15 80.042 383.184 81.274L384.13 80.592C382.788 79.052 381.028 78.084 378.608 78.084C374.472 78.084 371.172 81.142 371.172 85.674ZM397.99 93H399.398L393.392 78.326H391.83L385.824 93H387.232L388.706 89.392H396.516L397.99 93ZM392.6 79.558L396.12 88.248H389.102L392.6 79.558ZM412.058 93H413.29V78.326H412.036V90.822L402.84 78.326H401.564V93H402.818V80.328L412.058 93ZM416.397 85.674C416.397 90.206 419.697 93.286 423.833 93.286C426.143 93.286 428.079 92.296 429.399 90.844V85.718H422.579V86.862H428.145V90.36C427.331 91.174 425.791 92.142 423.833 92.142C420.379 92.142 417.717 89.458 417.717 85.674C417.717 81.846 420.379 79.228 423.833 79.228C425.703 79.228 427.375 80.042 428.409 81.274L429.355 80.592C428.013 79.052 426.253 78.084 423.833 78.084C419.697 78.084 416.397 81.142 416.397 85.674ZM432.588 93H441.894V91.856H433.842V86.048H441.74V84.904H433.842V79.47H441.894V78.326H432.588V93Z" fill="#333333"/>
<path d="M588.14 87.06C588.14 90.668 590.252 93.264 594.96 93.264C599.668 93.264 601.758 90.69 601.758 87.038V78.326H597.908V86.928C597.908 88.666 596.984 89.92 594.96 89.92C592.914 89.92 591.99 88.666 591.99 86.928V78.326H588.14V87.06ZM603.656 85.674C603.656 90.338 607.22 93.264 611.598 93.264C614.37 93.264 616.504 92.142 618.088 90.404V84.662H611.004V87.808H614.37V89.04C613.776 89.524 612.742 89.92 611.598 89.92C609.2 89.92 607.506 88.072 607.506 85.674C607.506 83.276 609.2 81.428 611.598 81.428C612.984 81.428 614.106 82.198 614.7 83.166L617.868 81.494C616.79 79.668 614.81 78.084 611.598 78.084C607.22 78.084 603.656 81.01 603.656 85.674ZM620.302 93H631.06V89.81H624.086V87.17H630.906V83.958H624.086V81.516H631.06V78.326H620.302V93ZM643.245 93H646.898V78.326H643.092V86.774L637.152 78.326H633.258V93H637.042V84.134L643.245 93ZM652.821 93H656.605V81.626H660.697V78.326H648.707V81.626H652.821V93ZM662.498 93H672.178V89.7H666.282V78.326H662.498V93ZM674.142 93H677.926V78.326H674.142V93ZM679.818 85.674C679.818 90.338 683.382 93.264 687.76 93.264C690.532 93.264 692.666 92.142 694.25 90.404V84.662H687.166V87.808H690.532V89.04C689.938 89.524 688.904 89.92 687.76 89.92C685.362 89.92 683.668 88.072 683.668 85.674C683.668 83.276 685.362 81.428 687.76 81.428C689.146 81.428 690.268 82.198 690.862 83.166L694.03 81.494C692.952 79.668 690.972 78.084 687.76 78.084C683.382 78.084 679.818 81.01 679.818 85.674ZM696.465 93H707.223V89.81H700.249V87.17H707.069V83.958H700.249V81.516H707.223V78.326H696.465V93ZM726.225 93H727.633L721.627 78.326H720.065L714.059 93H715.467L716.941 89.392H724.751L726.225 93ZM720.835 79.558L724.355 88.248H717.337L720.835 79.558ZM729.799 93H731.053V86.048H738.951V84.904H731.053V79.47H739.105V78.326H729.799V93ZM741.172 85.674C741.172 90.206 744.472 93.286 748.608 93.286C750.918 93.286 752.854 92.296 754.174 90.844V85.718H747.354V86.862H752.92V90.36C752.106 91.174 750.566 92.142 748.608 92.142C745.154 92.142 742.492 89.458 742.492 85.674C742.492 81.846 745.154 79.228 748.608 79.228C750.478 79.228 752.15 80.042 753.184 81.274L754.13 80.592C752.788 79.052 751.028 78.084 748.608 78.084C744.472 78.084 741.172 81.142 741.172 85.674ZM767.99 93H769.398L763.392 78.326H761.83L755.824 93H757.232L758.706 89.392H766.516L767.99 93ZM762.6 79.558L766.12 88.248H759.102L762.6 79.558ZM782.058 93H783.29V78.326H782.036V90.822L772.84 78.326H771.564V93H772.818V80.328L782.058 93ZM786.397 85.674C786.397 90.206 789.697 93.286 793.833 93.286C796.143 93.286 798.079 92.296 799.399 90.844V85.718H792.579V86.862H798.145V90.36C797.331 91.174 795.791 92.142 793.833 92.142C790.379 92.142 787.717 89.458 787.717 85.674C787.717 81.846 790.379 79.228 793.833 79.228C795.703 79.228 797.375 80.042 798.409 81.274L799.355 80.592C798.013 79.052 796.253 78.084 793.833 78.084C789.697 78.084 786.397 81.142 786.397 85.674ZM802.588 93H811.894V91.856H803.842V86.048H811.74V84.904H803.842V79.47H811.894V78.326H802.588V93Z" fill="#333333"/>
<path d="M958.14 87.06C958.14 90.668 960.252 93.264 964.96 93.264C969.668 93.264 971.758 90.69 971.758 87.038V78.326H967.908V86.928C967.908 88.666 966.984 89.92 964.96 89.92C962.914 89.92 961.99 88.666 961.99 86.928V78.326H958.14V87.06ZM973.656 85.674C973.656 90.338 977.22 93.264 981.598 93.264C984.37 93.264 986.504 92.142 988.088 90.404V84.662H981.004V87.808H984.37V89.04C983.776 89.524 982.742 89.92 981.598 89.92C979.2 89.92 977.506 88.072 977.506 85.674C977.506 83.276 979.2 81.428 981.598 81.428C982.984 81.428 984.106 82.198 984.7 83.166L987.868 81.494C986.79 79.668 984.81 78.084 981.598 78.084C977.22 78.084 973.656 81.01 973.656 85.674ZM990.302 93H1001.06V89.81H994.086V87.17H1000.91V83.958H994.086V81.516H1001.06V78.326H990.302V93ZM1013.25 93H1016.9V78.326H1013.09V86.774L1007.15 78.326H1003.26V93H1007.04V84.134L1013.25 93ZM1022.82 93H1026.6V81.626H1030.7V78.326H1018.71V81.626H1022.82V93ZM1032.5 93H1042.18V89.7H1036.28V78.326H1032.5V93ZM1044.14 93H1047.93V78.326H1044.14V93ZM1049.82 85.674C1049.82 90.338 1053.38 93.264 1057.76 93.264C1060.53 93.264 1062.67 92.142 1064.25 90.404V84.662H1057.17V87.808H1060.53V89.04C1059.94 89.524 1058.9 89.92 1057.76 89.92C1055.36 89.92 1053.67 88.072 1053.67 85.674C1053.67 83.276 1055.36 81.428 1057.76 81.428C1059.15 81.428 1060.27 82.198 1060.86 83.166L1064.03 81.494C1062.95 79.668 1060.97 78.084 1057.76 78.084C1053.38 78.084 1049.82 81.01 1049.82 85.674ZM1066.46 93H1077.22V89.81H1070.25V87.17H1077.07V83.958H1070.25V81.516H1077.22V78.326H1066.46V93ZM1096.22 93H1097.63L1091.63 78.326H1090.06L1084.06 93H1085.47L1086.94 89.392H1094.75L1096.22 93ZM1090.83 79.558L1094.35 88.248H1087.34L1090.83 79.558ZM1099.8 93H1101.05V86.048H1108.95V84.904H1101.05V79.47H1109.1V78.326H1099.8V93ZM1111.17 85.674C1111.17 90.206 1114.47 93.286 1118.61 93.286C1120.92 93.286 1122.85 92.296 1124.17 90.844V85.718H1117.35V86.862H1122.92V90.36C1122.11 91.174 1120.57 92.142 1118.61 92.142C1115.15 92.142 1112.49 89.458 1112.49 85.674C1112.49 81.846 1115.15 79.228 1118.61 79.228C1120.48 79.228 1122.15 80.042 1123.18 81.274L1124.13 80.592C1122.79 79.052 1121.03 78.084 1118.61 78.084C1114.47 78.084 1111.17 81.142 1111.17 85.674ZM1137.99 93H1139.4L1133.39 78.326H1131.83L1125.82 93H1127.23L1128.71 89.392H1136.52L1137.99 93ZM1132.6 79.558L1136.12 88.248H1129.1L1132.6 79.558ZM1152.06 93H1153.29V78.326H1152.04V90.822L1142.84 78.326H1141.56V93H1142.82V80.328L1152.06 93ZM1156.4 85.674C1156.4 90.206 1159.7 93.286 1163.83 93.286C1166.14 93.286 1168.08 92.296 1169.4 90.844V85.718H1162.58V86.862H1168.15V90.36C1167.33 91.174 1165.79 92.142 1163.83 92.142C1160.38 92.142 1157.72 89.458 1157.72 85.674C1157.72 81.846 1160.38 79.228 1163.83 79.228C1165.7 79.228 1167.38 80.042 1168.41 81.274L1169.36 80.592C1168.01 79.052 1166.25 78.084 1163.83 78.084C1159.7 78.084 1156.4 81.142 1156.4 85.674ZM1172.59 93H1181.89V91.856H1173.84V86.048H1181.74V84.904H1173.84V79.47H1181.89V78.326H1172.59V93Z" fill="#333333"/>
<path d="M668.754 42H671.85V29.994H668.754V42ZM673.146 40.308C674.352 41.46 676.044 42.216 678.474 42.216C681.696 42.216 683.478 40.614 683.478 38.202C683.478 35.484 680.742 34.908 678.762 34.494C677.43 34.242 676.692 34.026 676.692 33.396C676.692 32.874 677.088 32.46 678.114 32.46C679.176 32.46 680.49 32.874 681.498 33.702L683.19 31.488C681.912 30.39 680.238 29.814 678.312 29.814C675.234 29.814 673.524 31.56 673.524 33.576C673.524 36.42 676.296 36.924 678.276 37.32C679.554 37.59 680.328 37.86 680.328 38.544C680.328 39.12 679.68 39.57 678.618 39.57C676.98 39.57 675.648 38.85 674.784 37.986L673.146 40.308ZM684.926 42H692.846V39.3H688.022V29.994H684.926V42ZM702.751 42H706.117L701.581 29.994H697.693L693.175 42H696.541L697.153 40.182H702.139L702.751 42ZM699.637 32.694L701.329 37.572H697.963L699.637 32.694ZM715.176 42H718.164V29.994H715.05V36.906L710.19 29.994H707.004V42H710.1V34.746L715.176 42ZM720.328 42H725.386C729.148 42 731.866 39.714 731.866 35.988C731.866 32.262 729.148 29.994 725.368 29.994H720.328V42ZM723.424 39.3V32.694H725.386C727.582 32.694 728.698 34.134 728.698 35.988C728.698 37.77 727.474 39.3 725.368 39.3H723.424Z" fill="#333333"/>
<path d="M1021.4 42H1024.5V37.23H1030.08V34.602H1024.5V32.604H1030.21V29.994H1021.4V42ZM1038.13 42H1046.93V39.39H1041.23V37.23H1046.81V34.602H1041.23V32.604H1046.93V29.994H1036.85L1029.65 42H1033.04L1034.04 40.182H1038.13V42ZM1038.13 32.694V37.572H1035.45L1038.13 32.694ZM1055.35 42H1058.89L1056.44 37.59C1057.56 37.194 1058.84 36.078 1058.84 33.99C1058.84 31.758 1057.33 29.994 1054.66 29.994H1048.65V42H1051.75V37.932H1053.33L1055.35 42ZM1055.69 33.954C1055.69 34.782 1055 35.304 1054.19 35.304H1051.75V32.604H1054.19C1055 32.604 1055.69 33.126 1055.69 33.954ZM1070.61 31.236L1071.49 30.03L1070.25 29.13L1069.32 30.426C1068.45 30.012 1067.44 29.796 1066.36 29.796C1062.69 29.796 1059.94 32.352 1059.94 36.006C1059.94 37.914 1060.69 39.534 1061.94 40.632L1060.98 41.964L1062.22 42.864L1063.21 41.496C1064.13 41.964 1065.19 42.216 1066.36 42.216C1070.04 42.216 1072.77 39.66 1072.77 36.006C1072.77 34.008 1071.96 32.352 1070.61 31.236ZM1063.09 36.006C1063.09 34.044 1064.37 32.532 1066.36 32.532C1066.83 32.532 1067.25 32.622 1067.62 32.766L1063.74 38.166C1063.32 37.572 1063.09 36.834 1063.09 36.006ZM1066.36 39.48C1065.82 39.48 1065.32 39.372 1064.91 39.156L1068.87 33.684C1069.35 34.296 1069.62 35.106 1069.62 36.006C1069.62 37.95 1068.34 39.48 1066.36 39.48ZM1074.33 42H1083.13V39.39H1077.43V37.23H1083.01V34.602H1077.43V32.604H1083.13V29.994H1074.33V42ZM1091.63 42H1095.17L1092.73 37.59C1093.84 37.194 1095.12 36.078 1095.12 33.99C1095.12 31.758 1093.61 29.994 1090.94 29.994H1084.93V42H1088.03V37.932H1089.61L1091.63 42ZM1091.97 33.954C1091.97 34.782 1091.29 35.304 1090.48 35.304H1088.03V32.604H1090.48C1091.29 32.604 1091.97 33.126 1091.97 33.954ZM1105 42H1107.99V29.994H1104.88V36.906L1100.02 29.994H1096.83V42H1099.93V34.746L1105 42ZM1110.16 42H1118.96V39.39H1113.25V37.23H1118.83V34.602H1113.25V32.604H1118.96V29.994H1110.16V42Z" fill="#333333"/>
<rect width="130" height="120" fill="#004376"/>
<path fill-rule="evenodd" clip-rule="evenodd" d="M98.347 47.0878C98.1009 46.5956 97.6087 46.2674 97.1165 46.2674H54.5406V36.7514C54.5406 36.0131 53.9663 35.3569 53.146 35.3569H51.7514V29.2863C51.7514 28.8761 51.4233 28.63 51.0951 28.63H49.7005C49.2904 28.63 49.0443 28.9582 49.0443 29.2863V32.6497H46.9934C46.5832 32.6497 46.3371 32.9779 46.3371 33.306V35.3569H43.3019C42.6456 35.3569 42.1534 35.767 41.9893 36.4233L40.9229 40.8532H38.2157C37.4774 40.8532 36.8211 41.4274 36.8211 42.2478V46.3495H32.7194C31.9811 46.3495 31.3248 46.9237 31.3248 47.7441C31.3248 52.0919 32.8835 56.3577 34.4421 59.6391L32.7194 63.5767C32.5553 63.9869 32.6374 64.4791 32.8835 64.8072C33.1296 65.1354 33.5398 65.3815 33.9499 65.3815H43.712C43.7941 65.3815 43.8761 65.3815 43.9581 65.2994C44.113 65.2994 44.2679 65.3177 44.4314 65.337L44.4315 65.337C44.6144 65.3586 44.8081 65.3815 45.0246 65.3815H81.694C91.5953 65.3815 93.0893 60.4841 94.5623 55.6558L94.5734 55.6194C95.3117 53.1583 96.05 50.6973 98.0188 48.7285C98.429 48.1542 98.5931 47.58 98.347 47.0878ZM43.712 53.5685C42.6456 53.5685 41.8252 52.7482 41.8252 51.6817C41.8252 50.6153 42.6456 49.7949 43.712 49.7949C44.7785 49.7949 45.5988 50.6153 45.5988 51.6817C45.5988 52.7482 44.7785 53.5685 43.712 53.5685ZM47.8138 39.4586H51.9155V40.8532H47.8138V39.4586ZM50.5209 53.5685C49.4544 53.5685 48.6341 52.7482 48.6341 51.6817C48.6341 50.6153 49.4544 49.7949 50.5209 49.7949C51.5873 49.7949 52.4077 50.6153 52.4077 51.6817C52.4077 52.7482 51.5053 53.5685 50.5209 53.5685ZM57.2477 53.5685C56.1813 53.5685 55.3609 52.7482 55.3609 51.6817C55.3609 50.6153 56.1813 49.7949 57.2477 49.7949C58.3142 49.7949 59.1345 50.6153 59.1345 51.6817C59.1345 52.7482 58.3142 53.5685 57.2477 53.5685ZM68.8146 44.8729H64.7129C64.3847 44.8729 64.0566 44.6268 64.0566 44.2166V41.5095C64.0566 41.1813 64.3027 40.8532 64.7129 40.8532H68.8146C69.1427 40.8532 69.4709 41.0993 69.4709 41.5095V44.2166C69.4709 44.5447 69.2248 44.8729 68.8146 44.8729ZM75.6234 44.8729H71.5217C71.1115 44.8729 70.7834 44.6268 70.8654 44.2166V41.5095C70.8654 41.1813 71.1115 40.8532 71.5217 40.8532H75.6234C75.9516 40.8532 76.2797 41.0993 76.2797 41.5095V44.2166C76.2797 44.5447 76.0336 44.8729 75.6234 44.8729ZM62.0877 44.8729H57.986C57.5758 44.8729 57.2477 44.6268 57.3297 44.2166V41.5095C57.3297 41.1813 57.5758 40.8532 57.986 40.8532H62.0877C62.4159 40.8532 62.744 41.0993 62.744 41.5095V44.2166C62.744 44.5447 62.4979 44.8729 62.0877 44.8729ZM78.3306 44.8729H82.4323C82.8425 44.8729 83.0886 44.5447 83.0886 44.2166V41.5095C83.0886 41.0993 82.7605 40.8532 82.4323 40.8532H78.3306C77.9204 40.8532 77.6743 41.1813 77.6743 41.5095V44.2166C77.5923 44.6268 77.9204 44.8729 78.3306 44.8729ZM89.1591 44.8729H85.0574C84.7292 44.8729 84.4011 44.6268 84.4011 44.2166V41.5095C84.4011 41.1813 84.6472 40.8532 85.0574 40.8532H89.1591C89.4872 40.8532 89.8154 41.0993 89.8154 41.5095V44.2166C89.8154 44.5447 89.5693 44.8729 89.1591 44.8729Z" fill="white"/>
<path d="M29.5201 99.496C30.5921 100.52 32.0961 101.192 34.2561 101.192C37.1201 101.192 38.7041 99.768 38.7041 97.624C38.7041 95.208 36.2721 94.696 34.5121 94.328C33.3281 94.104 32.6721 93.912 32.6721 93.352C32.6721 92.888 33.0241 92.52 33.9361 92.52C34.8801 92.52 36.0481 92.888 36.9441 93.624L38.4481 91.656C37.3121 90.68 35.8241 90.168 34.1121 90.168C31.3761 90.168 29.8561 91.72 29.8561 93.512C29.8561 96.04 32.3201 96.488 34.0801 96.84C35.2161 97.08 35.9041 97.32 35.9041 97.928C35.9041 98.44 35.3281 98.84 34.3841 98.84C32.9281 98.84 31.7441 98.2 30.9761 97.432L29.5201 99.496ZM48.9353 91.432L49.7193 90.36L48.6153 89.56L47.7833 90.712C47.0153 90.344 46.1193 90.152 45.1593 90.152C41.8953 90.152 39.4473 92.424 39.4473 95.672C39.4473 97.368 40.1193 98.808 41.2233 99.784L40.3753 100.968L41.4793 101.768L42.3593 100.552C43.1753 100.968 44.1193 101.192 45.1593 101.192C48.4233 101.192 50.8553 98.92 50.8553 95.672C50.8553 93.896 50.1353 92.424 48.9353 91.432ZM42.2473 95.672C42.2473 93.928 43.3833 92.584 45.1593 92.584C45.5753 92.584 45.9433 92.664 46.2793 92.792L42.8233 97.592C42.4553 97.064 42.2473 96.408 42.2473 95.672ZM45.1593 98.76C44.6793 98.76 44.2313 98.664 43.8633 98.472L47.3833 93.608C47.8153 94.152 48.0553 94.872 48.0553 95.672C48.0553 97.4 46.9193 98.76 45.1593 98.76ZM52.2413 101H54.9933V96.76H59.9533V94.424H54.9933V92.648H60.0653V90.328H52.2413V101ZM67.5058 101H70.6578L68.4818 97.08C69.4738 96.728 70.6098 95.736 70.6098 93.88C70.6098 91.896 69.2658 90.328 66.8978 90.328H61.5538V101H64.3058V97.384H65.7138L67.5058 101ZM67.8098 93.848C67.8098 94.584 67.2018 95.048 66.4818 95.048H64.3058V92.648H66.4818C67.2018 92.648 67.8098 93.112 67.8098 93.848ZM79.5079 101H82.4999L78.4679 90.328H75.0119L70.9959 101H73.9879L74.5319 99.384H78.9639L79.5079 101ZM76.7399 92.728L78.2439 97.064H75.2519L76.7399 92.728ZM82.2285 95.672C82.2285 99.064 84.8205 101.192 88.0045 101.192C90.0205 101.192 91.5725 100.376 92.7245 99.112V94.936H87.5725V97.224H90.0205V98.12C89.5885 98.472 88.8365 98.76 88.0045 98.76C86.2605 98.76 85.0285 97.416 85.0285 95.672C85.0285 93.928 86.2605 92.584 88.0045 92.584C89.0125 92.584 89.8285 93.144 90.2605 93.848L92.5645 92.632C91.7805 91.304 90.3405 90.152 88.0045 90.152C84.8205 90.152 82.2285 92.28 82.2285 95.672ZM96.594 101H99.346V92.728H102.322V90.328H93.602V92.728H96.594V101Z" fill="white"/>
<g clip-path="url(#clip0)">
<path d="M1011.86 24H976V48H1011.86V24Z" fill="white"/>
<path d="M976 39.2536H985.774V48H992.281V39.2536H1011.83V32.7464H992.281V24H985.774V32.7464H976V39.2536Z" fill="#0066B2"/>
<path d="M976 37.6202H987.407V48H990.674V37.6202H1011.86V34.3535H990.674V24H987.407V34.3535H976V37.6202Z" fill="#E63542"/>
</g>
<g clip-path="url(#clip1)">
<path d="M1165.86 24H1130V48H1165.86V24Z" fill="white"/>
<path d="M1130 39.2536H1139.77V48H1146.28V39.2536H1165.83V32.7464H1146.28V24H1139.77V32.7464H1130V39.2536Z" fill="#0066B2"/>
<path d="M1130 37.6202H1141.41V48H1144.67V37.6202H1165.86V34.3535H1144.67V24H1141.41V34.3535H1130V37.6202Z" fill="#E63542"/>
</g>
<g clip-path="url(#clip2)">
<path d="M269.855 24H234V48H269.855V24Z" fill="white"/>
<path d="M234 36.0395H269.855V48H234V36.0395ZM239.98 36.0395C239.98 40.4391 243.537 43.9956 247.936 43.9956C252.336 43.9956 255.892 40.4391 255.892 36.0395C255.892 31.6399 252.336 28.0834 247.936 28.0834C243.537 28.0834 239.98 31.6399 239.98 36.0395Z" fill="#E41A35"/>
</g>
<g clip-path="url(#clip3)">
<path d="M425.855 24H390V48H425.855V24Z" fill="white"/>
<path d="M390 36.0395H425.855V48H390V36.0395ZM395.98 36.0395C395.98 40.4391 399.537 43.9956 403.936 43.9956C408.336 43.9956 411.892 40.4391 411.892 36.0395C411.892 31.6399 408.336 28.0834 403.936 28.0834C399.537 28.0834 395.98 31.6399 395.98 36.0395Z" fill="#E41A35"/>
</g>
<path d="M658.833 24H623V48H658.833V24Z" fill="#2F207E"/>
<path d="M658.833 32.9308H638.086V24H631.952V32.9308H623V39.0692H631.952V48H638.086V39.0692H658.833V32.9308Z" fill="white"/>
<path d="M633.61 24V34.5906H623V37.4094H633.61V48H636.428V37.4094H658.833V34.5906H636.428V24H633.61Z" fill="#E50004"/>
<path d="M777.833 24H742V48H777.833V24Z" fill="#2F207E"/>
<path d="M777.833 32.9308H757.086V24H750.952V32.9308H742V39.0692H750.952V48H757.086V39.0692H777.833V32.9308Z" fill="white"/>
<path d="M752.61 24V34.5906H742V37.4094H752.61V48H755.428V37.4094H777.833V34.5906H755.428V24H752.61Z" fill="#E50004"/>
<defs>
<clipPath id="clip0">
<rect width="35.8551" height="24" fill="white" transform="translate(976 24)"/>
</clipPath>
<clipPath id="clip1">
<rect width="35.8551" height="24" fill="white" transform="translate(1130 24)"/>
</clipPath>
<clipPath id="clip2">
<rect width="35.8551" height="24" fill="white" transform="translate(234 24)"/>
</clipPath>
<clipPath id="clip3">
<rect width="35.8551" height="24" fill="white" transform="translate(390 24)"/>
</clipPath>
</defs>
</svg>
