<svg width="100" height="100" viewBox="0 0 100 100" xmlns="http://www.w3.org/2000/svg"><title>Service - Stevedoring (blue)</title><g id="Page-1" fill="none" fill-rule="evenodd"><g id="Service---Stevedoring-(blue)"><circle id="Oval" fill="#0060A9" cx="49.882" cy="49.882" r="49.882"/><path d="M67.056 31.373h-4.354V21.16a.39.39 0 0 0-.296-.365l-6.05-1.053a.41.41 0 0 0-.534.364v11.267h-11.88V20.106a.41.41 0 0 0-.532-.364l-6.05 1.053a.39.39 0 0 0-.298.364v10.213H32.71a1.93 1.93 0 0 0-1.93 1.93v10.942c0 .716.3 1.4.826 1.884l9.41 8.675a3.846 3.846 0 0 0 2.607 1.02h.96l.828 3.894a.385.385 0 0 0 .377.304h1.646c.337 4.95 2.82 6.684 4.502 7.856 1.284.893 1.81 1.258 1.867 2.934.074 2.185-1.543 4.14-3.727 4.248a3.933 3.933 0 0 1-4.11-3.585.38.38 0 0 0-.382-.34H41.37a.384.384 0 0 0-.386.394 8.915 8.915 0 0 0 9.236 8.504c5.583-.21 9.466-5.568 8.365-11.044-.598-2.964-2.414-4.227-3.808-5.195-1.303-.907-2.157-1.505-2.36-3.77h1.555a.385.385 0 0 0 .376-.306l.828-3.896h.962c.966 0 1.896-.364 2.607-1.02l9.41-8.675c.527-.486.826-1.17.827-1.885v-10.94a1.93 1.93 0 0 0-1.926-1.932z" id="Shape" fill="#FFF"/></g></g></svg>