<svg id="Layer_1" data-name="Layer 1" xmlns="http://www.w3.org/2000/svg" viewBox="0 0 1860 500"><defs><style>.cls-1,.cls-3{fill:none}.cls-2{clip-path:url(#clip-path)}.cls-3{stroke:#f2623e;stroke-width:10px}.cls-4{fill:#f2623e}.cls-5{fill:#fff}.cls-6{fill:#eeece1}.cls-7{clip-path:url(#clip-path-2)}.cls-8{fill:#0087ca}.cls-9{clip-path:url(#clip-path-4)}.cls-10{clip-path:url(#clip-path-6)}.cls-11{clip-path:url(#clip-path-8)}.cls-12{clip-path:url(#clip-path-10)}.cls-13{fill:#3b3626}</style><clipPath id="clip-path"><path class="cls-1" d="M0 0h1860v500H0z"/></clipPath><clipPath id="clip-path-2"><circle class="cls-1" cx="200" cy="200" r="200"/></clipPath><clipPath id="clip-path-4"><circle class="cls-1" cx="565" cy="200" r="200"/></clipPath><clipPath id="clip-path-6"><circle class="cls-1" cx="930" cy="200" r="200"/></clipPath><clipPath id="clip-path-8"><circle class="cls-1" cx="1295" cy="200" r="200"/></clipPath><clipPath id="clip-path-10"><circle class="cls-1" cx="1660" cy="200" r="200"/></clipPath></defs><title>Artboard 1</title><g class="cls-2"><path class="cls-3" d="M200 425.34V468s0 10 10 10h710s10 0 10-10v-79.34"/><path class="cls-4" d="M200 415l-15.77 16.96h31.54L200 415z"/><path class="cls-5" d="M200 415c118.74 0 215-96.26 215-215S318.74-15 200-15-15 81.26-15 200s96.26 215 215 215"/><path class="cls-6" d="M200 400c110.46 0 200-89.54 200-200S310.46 0 200 0 0 89.54 0 200s89.54 200 200 200"/></g><g class="cls-7"><path class="cls-8" d="M185 0h30v50h-30z"/><path class="cls-5" d="M199.67 32.66l-2.6 2.57-2.62-2.73 5.86-5.75h4v15.33h-4.64z"/></g><g class="cls-2"><path class="cls-5" d="M565 415c118.74 0 215-96.26 215-215S683.74-15 565-15 350 81.26 350 200s96.26 215 215 215"/><path class="cls-6" d="M565 400c110.46 0 200-89.54 200-200S675.46 0 565 0 365 89.54 365 200s89.54 200 200 200"/></g><g class="cls-9"><path class="cls-8" d="M550 0h30v50h-30z"/><path class="cls-5" d="M558.89 38.47c7-4.94 7.68-5.51 7.68-6.66 0-.74-.78-1.2-1.86-1.2a5.92 5.92 0 0 0-4 1.59l-2.53-3.08a8.93 8.93 0 0 1 6.48-2.6c4 0 6.58 2.21 6.58 5.29 0 2.09-1.2 3.81-5.31 6.23h5.45v4h-12.49z"/></g><g class="cls-2"><path class="cls-5" d="M930 415c118.74 0 215-96.26 215-215S1048.74-15 930-15 715 81.26 715 200s96.26 215 215 215"/><path class="cls-6" d="M930 400c110.46 0 200-89.54 200-200S1040.46 0 930 0 730 89.54 730 200s89.54 200 200 200"/></g><g class="cls-10"><path class="cls-8" d="M915 0h30v50h-30z"/><path class="cls-5" d="M925.46 37a7 7 0 0 0 4.16 1.51c1.52 0 2.23-.55 2.23-1.17s-.32-1-2.37-1h-2.23v-3.91h2.23c1.47 0 2.12-.37 2.12-.92 0-.71-1-1.1-2.28-1.1a6.3 6.3 0 0 0-3.82 1.42l-2.11-2.8a8.29 8.29 0 0 1 6.44-2.53c4.23 0 6.39 1.72 6.39 4.25a3.74 3.74 0 0 1-3.38 3.4c1.7.19 3.63 1.48 3.63 3.59 0 2.74-2.69 4.6-6.67 4.6a9 9 0 0 1-6.62-2.34z"/></g><g class="cls-2"><path class="cls-5" d="M1295 415c118.74 0 215-96.26 215-215s-96.26-215-215-215-215 96.26-215 215 96.26 215 215 215"/><path class="cls-6" d="M1295 400c110.46 0 200-89.54 200-200S1405.46 0 1295 0s-200 89.54-200 200 89.54 200 200 200"/></g><g class="cls-11"><path class="cls-8" d="M1280 0h30v50h-30z"/><path class="cls-5" d="M1295.48 39.62h-7.38v-3.56l5.59-9.31h6.44v8.83h1.77v4h-1.77v2.46h-4.65zm-2.9-4h2.9v-4.87z"/></g><g class="cls-2"><path class="cls-5" d="M1660 415c118.74 0 215-96.26 215-215s-96.26-215-215-215-215 96.26-215 215 96.26 215 215 215"/><path class="cls-6" d="M1660 400c110.46 0 200-89.54 200-200S1770.46 0 1660 0s-200 89.54-200 200 89.54 200 200 200"/></g><g class="cls-12"><path class="cls-8" d="M1645 0h30v50h-30z"/><path class="cls-5" d="M1656 37.14a6.54 6.54 0 0 0 4 1.33c1.54 0 2.16-.71 2.16-1.44s-.6-1.38-2-1.38a3.9 3.9 0 0 0-2.85 1.05L1654 36v-9.25h11.72v3.86h-7.31v2.44a5.72 5.72 0 0 1 3.43-1.17 4.82 4.82 0 0 1 4.94 5c0 3.38-2.53 5.52-6.83 5.52a9.31 9.31 0 0 1-6.41-2.16z"/></g><g class="cls-2"><path class="cls-5" d="M361 230a30 30 0 1 0-30-30 30 30 0 0 0 30 30"/><path class="cls-4" d="M361 222a22 22 0 1 0-22-22 22 22 0 0 0 22 22"/><path class="cls-5" d="M370.22 201.45l-7.35 7.34a2 2 0 0 1-2.89 0l-.18-.17a2.05 2.05 0 0 1 0-2.9l3.67-3.67h-10.24a2.05 2.05 0 0 1 0-4.1h10.24l-3.67-3.67a2.05 2.05 0 0 1 0-2.9l.18-.18a2.06 2.06 0 0 1 2.89 0l7.35 7.35a2.05 2.05 0 0 1 0 2.9M726 230a30 30 0 1 0-30-30 30 30 0 0 0 30 30"/><path class="cls-4" d="M726 222a22 22 0 1 0-22-22 22 22 0 0 0 22 22"/><path class="cls-5" d="M735.22 201.45l-7.35 7.34a2 2 0 0 1-2.89 0l-.18-.17a2.05 2.05 0 0 1 0-2.9l3.67-3.67h-10.24a2.05 2.05 0 0 1 0-4.1h10.24l-3.67-3.67a2.05 2.05 0 0 1 0-2.9l.18-.18a2.06 2.06 0 0 1 2.89 0l7.35 7.35a2.05 2.05 0 0 1 0 2.9M1091 230a30 30 0 1 0-30-30 30 30 0 0 0 30 30"/><path class="cls-4" d="M1091 222a22 22 0 1 0-22-22 22 22 0 0 0 22 22"/><path class="cls-5" d="M1100.22 201.45l-7.35 7.34a2 2 0 0 1-2.89 0l-.18-.17a2.05 2.05 0 0 1 0-2.9l3.67-3.67h-10.24a2 2 0 1 1 0-4.1h10.24l-3.67-3.67a2.05 2.05 0 0 1 0-2.9l.18-.18a2.06 2.06 0 0 1 2.89 0l7.35 7.35a2.05 2.05 0 0 1 0 2.9M1456 230a30 30 0 1 0-30-30 30 30 0 0 0 30 30"/><path class="cls-4" d="M1456 222a22 22 0 1 0-22-22 22 22 0 0 0 22 22"/><path class="cls-5" d="M1465.22 201.45l-7.35 7.34a2 2 0 0 1-2.89 0l-.18-.17a2.05 2.05 0 0 1 0-2.9l3.67-3.67h-10.24a2.05 2.05 0 1 1 0-4.1h10.24l-3.67-3.67a2.05 2.05 0 0 1 0-2.9l.18-.18a2.06 2.06 0 0 1 2.89 0l7.35 7.35a2.05 2.05 0 0 1 0 2.9"/><path class="cls-13" d="M143.68 152.83h112.64v80.63h16.48v-83.67a14.69 14.69 0 0 0-14.65-14.65h-116.3a14.69 14.69 0 0 0-14.65 14.65v83.67h16.48zM222.8 256.54h-45.6v-7.67h45.6zm-112.8-16v13.69a10.67 10.67 0 0 0 10.63 10.64h158.74A10.67 10.67 0 0 0 290 254.23v-13.69z"/><path class="cls-13" d="M200 194c-10.22 0-18.54-8.7-18.54-19.39a2.91 2.91 0 0 1 5.81 0c0 7.49 5.71 13.58 12.73 13.58s12.73-6.09 12.73-13.58a2.91 2.91 0 0 1 5.81 0c0 10.69-8.32 19.39-18.54 19.39m22.59-29.6h-45.17a5.51 5.51 0 0 0-5.37 4.92l-5 54.23a4.45 4.45 0 0 0 4.49 4.92h56.88a4.46 4.46 0 0 0 4.5-4.92l-5-54.23a5.51 5.51 0 0 0-5.37-4.92"/></g><path class="cls-13" d="M129.08 332.69a8.28 8.28 0 1 1-8.35 8.28 8 8 0 0 1 8.35-8.28zm0 3c-3 0-4.85 2.26-4.85 5.26s1.9 5.25 4.85 5.25 4.92-2.26 4.92-5.2-2-5.29-4.92-5.29zM139.81 337.37h3V339a5 5 0 0 1 3.7-1.85v3a3.93 3.93 0 0 0-.84-.07 3.89 3.89 0 0 0-2.86 1.29V349h-3zM156.27 347.5a4.56 4.56 0 0 1-3.58 1.75c-2.92 0-5.13-2.21-5.13-6.07s2.18-6.1 5.13-6.1a4.46 4.46 0 0 1 3.58 1.78V333h3.07v16h-3.07zm0-6.39a3.35 3.35 0 0 0-2.64-1.32c-1.73 0-2.93 1.37-2.93 3.39s1.2 3.36 2.93 3.36a3.38 3.38 0 0 0 2.64-1.32zM162.17 337.37h3.05V339a5 5 0 0 1 3.7-1.85v3a4 4 0 0 0-.84-.07 3.89 3.89 0 0 0-2.86 1.29V349h-3.05zM175.85 337.08c3.46 0 5.81 2.59 5.81 6.38v.68h-8.61a3.11 3.11 0 0 0 3.33 2.68 4.76 4.76 0 0 0 3.1-1.15l1.34 2a7.12 7.12 0 0 1-4.77 1.61 6.09 6.09 0 1 1-.2-12.17zm-2.85 5h5.71a2.69 2.69 0 0 0-2.86-2.57 2.78 2.78 0 0 0-2.85 2.56zM183.75 333h3.05v5.91a4.45 4.45 0 0 1 3.57-1.78c3 0 5.14 2.3 5.14 6.1s-2.21 6.07-5.14 6.07a4.56 4.56 0 0 1-3.57-1.75V349h-3.05zm5.66 13.59c1.78 0 3-1.35 3-3.36s-1.18-3.39-3-3.39a3.35 3.35 0 0 0-2.61 1.35v4.1a3.4 3.4 0 0 0 2.61 1.25zM203 337.08c3.46 0 5.81 2.59 5.81 6.38v.68h-8.62a3.13 3.13 0 0 0 3.34 2.68 4.76 4.76 0 0 0 3.1-1.15l1.34 2a7.16 7.16 0 0 1-4.78 1.61 6.09 6.09 0 1 1-.19-12.17zm-2.85 5h5.71a2.69 2.69 0 0 0-2.86-2.58 2.78 2.78 0 0 0-2.83 2.57zM211.2 345.31a6.66 6.66 0 0 0 4 1.59c1.32 0 1.95-.46 1.95-1.18s-1-1.1-2.33-1.37c-2-.38-4.56-.86-4.56-3.62 0-2 1.7-3.65 4.75-3.65a7.31 7.31 0 0 1 4.66 1.58l-1.2 2.09a4.93 4.93 0 0 0-3.44-1.34c-1.1 0-1.82.41-1.82 1.08s.91 1 2.21 1.25c2 .38 4.66.91 4.66 3.79 0 2.13-1.8 3.72-5 3.72a7.81 7.81 0 0 1-5.19-1.8zM222.94 346.08V340H221v-2.66h1.92v-3.14H226v3.17h2.35V340H226v5.23c0 .72.39 1.28 1.06 1.28a1.68 1.68 0 0 0 1.06-.34l.64 2.3a3.73 3.73 0 0 1-2.54.75c-2.13.03-3.28-1.08-3.28-3.14zM230.14 333.84a1.83 1.83 0 1 1 3.65 0 1.83 1.83 0 0 1-3.65 0zm.31 3.53h3.05V349h-3.05zM236.33 333h3v16h-3zM242.19 333h3.05v16h-3.05zM247.76 333.84a1.84 1.84 0 0 1 1.82-1.83 1.83 1.83 0 1 1-1.82 1.83zm.31 3.53h3.05V349h-3.05zM261.77 342c0-1.61-.84-2.16-2.13-2.16a3.29 3.29 0 0 0-2.64 1.37V349h-3v-11.63h3v1.51a5.29 5.29 0 0 1 4.05-1.8c2.55 0 3.77 1.44 3.77 3.7V349h-3.05zM268.85 349.73a4.62 4.62 0 0 0 3.63 1.44c1.46 0 3.19-.65 3.19-2.93v-1.18a4.5 4.5 0 0 1-3.58 1.83c-2.9 0-5.11-2-5.11-5.91s2.18-5.9 5.11-5.9a4.47 4.47 0 0 1 3.58 1.78v-1.49h3.07v10.8c0 4.41-3.41 5.49-6.26 5.49a7 7 0 0 1-5-1.72zm6.82-8.62a3.31 3.31 0 0 0-2.62-1.32 3.21 3.21 0 0 0 0 6.39 3.4 3.4 0 0 0 2.62-1.32zM498.87 333h3.41v13h6.77v3h-10.18zM518.24 347.76a4.78 4.78 0 0 1-3.67 1.49 3.87 3.87 0 0 1-4-3.84c0-2.71 2.19-3.7 4-3.7a4.68 4.68 0 0 1 3.67 1.42v-1.61c0-1.18-1-1.94-2.55-1.94a4.88 4.88 0 0 0-3.38 1.36l-1.15-2a7.63 7.63 0 0 1 5.06-1.82c2.64 0 5.07 1.05 5.07 4.39V349h-3zm0-3a3 3 0 0 0-2.45-1c-1.2 0-2.18.65-2.18 1.75s1 1.7 2.18 1.7a3.07 3.07 0 0 0 2.45-1zM525.29 349.73a4.62 4.62 0 0 0 3.63 1.44c1.46 0 3.19-.65 3.19-2.93v-1.18a4.5 4.5 0 0 1-3.58 1.83c-2.9 0-5.11-2-5.11-5.91s2.19-5.9 5.11-5.9a4.46 4.46 0 0 1 3.58 1.78v-1.49h3.07v10.8c0 4.41-3.41 5.49-6.26 5.49a7 7 0 0 1-5-1.72zm6.82-8.62a3.3 3.3 0 0 0-2.62-1.32 3.21 3.21 0 0 0 0 6.39 3.39 3.39 0 0 0 2.62-1.32zM543.34 337.08c3.46 0 5.81 2.59 5.81 6.38v.68h-8.62a3.13 3.13 0 0 0 3.34 2.68 4.76 4.76 0 0 0 3.1-1.15l1.34 2a7.16 7.16 0 0 1-4.78 1.61 6.09 6.09 0 1 1-.19-12.17zm-2.85 5h5.71a2.69 2.69 0 0 0-2.86-2.57 2.78 2.78 0 0 0-2.85 2.56zM551.24 337.37h3V339a4.94 4.94 0 0 1 3.76-1.9v3a4 4 0 0 0-3.69 1.22V349h-3zM560.19 345.31a6.66 6.66 0 0 0 4 1.59c1.32 0 1.94-.46 1.94-1.18s-1-1.1-2.33-1.37c-2-.38-4.56-.86-4.56-3.62 0-2 1.71-3.65 4.76-3.65a7.3 7.3 0 0 1 4.65 1.58l-1.2 2.09a4.88 4.88 0 0 0-3.43-1.34c-1.1 0-1.82.41-1.82 1.08s.91 1 2.2 1.25c2 .38 4.66.91 4.66 3.79 0 2.13-1.8 3.72-5 3.72a7.79 7.79 0 0 1-5.18-1.8zM571.92 346.08V340H570v-2.66h1.92v-3.14H575v3.17h2.35V340H575v5.23c0 .72.38 1.28 1 1.28a1.66 1.66 0 0 0 1.06-.34l.65 2.3a3.78 3.78 0 0 1-2.55.75c-2.08.03-3.24-1.08-3.24-3.14zM580.9 351a1.54 1.54 0 0 0 1.61-.84l.43-1-4.7-11.76h3.26l3 8.06 3-8.06h3.29l-5.45 13.49c-.87 2.18-2.4 2.76-4.39 2.8a9 9 0 0 1-1.52-.16l.46-2.74a2.61 2.61 0 0 0 1.01.21zM592.2 337.37h3V339a5 5 0 0 1 3.7-1.85v3a4 4 0 0 0-.84-.07 3.89 3.89 0 0 0-2.86 1.29V349h-3zM600.27 333.84a1.83 1.83 0 1 1 3.65 0 1.83 1.83 0 0 1-3.65 0zm.31 3.53h3V349h-3zM614.28 342c0-1.61-.84-2.16-2.13-2.16a3.29 3.29 0 0 0-2.64 1.37V349h-3v-11.63h3v1.51a5.29 5.29 0 0 1 4-1.8c2.55 0 3.77 1.44 3.77 3.7V349h-3.05zM621.34 349.73a4.62 4.62 0 0 0 3.62 1.44c1.47 0 3.2-.65 3.2-2.93v-1.18a4.51 4.51 0 0 1-3.58 1.83c-2.9 0-5.11-2-5.11-5.91s2.18-5.9 5.11-5.9a4.47 4.47 0 0 1 3.58 1.78v-1.49h3.07v10.8c0 4.41-3.41 5.49-6.27 5.49a7 7 0 0 1-5-1.72zm6.82-8.62a3.31 3.31 0 0 0-2.62-1.32 3.21 3.21 0 0 0 0 6.39 3.4 3.4 0 0 0 2.62-1.32zM1248.73 336H1244v-3h12.77v3h-4.65v13h-3.43zM1257 337.37h3V339a5 5 0 0 1 3.7-1.85v3a3.93 3.93 0 0 0-.84-.07 3.89 3.89 0 0 0-2.86 1.29V349h-3zM1272.39 347.76a4.78 4.78 0 0 1-3.67 1.49 3.86 3.86 0 0 1-4-3.84c0-2.71 2.18-3.7 4-3.7a4.68 4.68 0 0 1 3.67 1.42v-1.61c0-1.18-1-1.94-2.54-1.94a4.9 4.9 0 0 0-3.39 1.36l-1.15-2a7.65 7.65 0 0 1 5.06-1.82c2.64 0 5.07 1.05 5.07 4.39V349h-3zm0-3a3 3 0 0 0-2.45-1c-1.2 0-2.18.65-2.18 1.75s1 1.7 2.18 1.7a3 3 0 0 0 2.45-1zM1286.07 342a1.88 1.88 0 0 0-2.14-2.16 3.3 3.3 0 0 0-2.64 1.37V349h-3v-11.63h3v1.51a5.31 5.31 0 0 1 4.06-1.8c2.54 0 3.77 1.44 3.77 3.7V349h-3zM1292.33 345.31a6.66 6.66 0 0 0 4 1.59c1.32 0 2-.46 2-1.18s-1-1.1-2.33-1.37c-2-.38-4.56-.86-4.56-3.62 0-2 1.7-3.65 4.75-3.65a7.31 7.31 0 0 1 4.66 1.58l-1.2 2.09a4.93 4.93 0 0 0-3.44-1.34c-1.1 0-1.82.41-1.82 1.08s.91 1 2.21 1.25c2 .38 4.65.91 4.65 3.79 0 2.13-1.8 3.72-5 3.72a7.81 7.81 0 0 1-5.19-1.8zM1303.32 353.38v-16h3v1.46a4.48 4.48 0 0 1 3.58-1.75c3 0 5.14 2.21 5.14 6.07s-2.16 6.1-5.14 6.1a4.44 4.44 0 0 1-3.58-1.78v5.91zm5.67-13.59a3.43 3.43 0 0 0-2.62 1.32v4.11a3.5 3.5 0 0 0 2.62 1.32c1.75 0 2.93-1.37 2.93-3.39s-1.18-3.36-2.92-3.36zM1316.6 343.15a6.13 6.13 0 1 1 6.12 6.1 5.87 5.87 0 0 1-6.12-6.1zm9.09 0c0-1.8-1.08-3.36-3-3.36s-3 1.56-3 3.36 1.06 3.39 3 3.39 3-1.54 3-3.39zM1331 337.37h3V339a5 5 0 0 1 3.7-1.85v3a3.93 3.93 0 0 0-.84-.07 3.89 3.89 0 0 0-2.86 1.29V349h-3zM1340.62 346.08V340h-1.92v-2.66h1.92v-3.14h3.07v3.17h2.31V340h-2.35v5.23c0 .72.39 1.28 1.06 1.28a1.63 1.63 0 0 0 1-.34l.65 2.3a3.73 3.73 0 0 1-2.54.75c-2.05.03-3.2-1.08-3.2-3.14zM837.58 333h7.49a5.14 5.14 0 1 1 0 10.27H841V349h-3.41zm7 2.93H841v4.41h3.62a2.21 2.21 0 1 0 0-4.41zM852.17 333h3.05v16h-3.05zM865.85 347.5a5.44 5.44 0 0 1-4.08 1.75c-2.54 0-3.74-1.39-3.74-3.65v-8.23h3.05v7a1.86 1.86 0 0 0 2.13 2.14 3.4 3.4 0 0 0 2.64-1.32v-7.85h3V349h-3zM876.17 344.5l-1.39 1.5v3h-3v-16h3v9.58l4.39-5.16h3.75l-4.59 5.25 4.73 6.34h-3.81zM892.33 342a1.88 1.88 0 0 0-2.14-2.16 3.29 3.29 0 0 0-2.64 1.37V349h-3v-11.63h3v1.51a5.3 5.3 0 0 1 4.06-1.8c2.54 0 3.76 1.44 3.76 3.7V349h-3zM897.85 333.84a1.84 1.84 0 0 1 1.82-1.83 1.83 1.83 0 1 1-1.82 1.83zm.31 3.53h3.05V349h-3.05zM911.86 342c0-1.61-.84-2.16-2.13-2.16a3.29 3.29 0 0 0-2.64 1.37V349H904v-11.63h3.05v1.51a5.29 5.29 0 0 1 4-1.8c2.55 0 3.77 1.44 3.77 3.7V349h-3zM918.94 349.73a4.62 4.62 0 0 0 3.63 1.44c1.46 0 3.19-.65 3.19-2.93v-1.18a4.5 4.5 0 0 1-3.58 1.83c-2.9 0-5.11-2-5.11-5.91s2.18-5.9 5.11-5.9a4.47 4.47 0 0 1 3.58 1.78v-1.49h3.07v10.8c0 4.41-3.41 5.49-6.26 5.49a7 7 0 0 1-5-1.72zm6.82-8.62a3.31 3.31 0 0 0-2.62-1.32 3.21 3.21 0 0 0 0 6.39 3.4 3.4 0 0 0 2.62-1.32zM936 332.47h2.21l-5.69 17h-2.21zM938.86 353.38v-16h3v1.46a4.48 4.48 0 0 1 3.58-1.75c3 0 5.13 2.21 5.13 6.07s-2.16 6.1-5.13 6.1a4.43 4.43 0 0 1-3.58-1.78v5.91zm5.67-13.59a3.42 3.42 0 0 0-2.62 1.32v4.11a3.48 3.48 0 0 0 2.62 1.32c1.75 0 2.92-1.37 2.92-3.39s-1.17-3.36-2.92-3.36zM959.74 347.76a4.78 4.78 0 0 1-3.67 1.49 3.86 3.86 0 0 1-4-3.84c0-2.71 2.18-3.7 4-3.7a4.67 4.67 0 0 1 3.67 1.42v-1.61c0-1.18-1-1.94-2.54-1.94a4.9 4.9 0 0 0-3.39 1.36l-1.15-2a7.65 7.65 0 0 1 5.07-1.82c2.64 0 5.06 1.05 5.06 4.39V349h-3zm0-3a3 3 0 0 0-2.45-1c-1.2 0-2.18.65-2.18 1.75s1 1.7 2.18 1.7a3 3 0 0 0 2.45-1zM970 344.5l-1.4 1.48v3h-3V333h3v9.58l4.4-5.16h3.74l-4.58 5.25 4.72 6.34h-3.81zM986.19 342a1.88 1.88 0 0 0-2.14-2.16 3.3 3.3 0 0 0-2.64 1.37V349h-3v-11.63h3v1.51a5.31 5.31 0 0 1 4.06-1.8c2.54 0 3.77 1.44 3.77 3.7V349h-3zM991.73 333.84a1.83 1.83 0 1 1 3.65 0 1.83 1.83 0 0 1-3.65 0zm.31 3.53h3.05V349H992zM1005.75 342a1.88 1.88 0 0 0-2.14-2.16 3.3 3.3 0 0 0-2.64 1.37V349h-3.05v-11.63h3.08v1.51a5.31 5.31 0 0 1 4.06-1.8c2.54 0 3.77 1.44 3.77 3.7V349h-3zM1012.83 349.73a4.6 4.6 0 0 0 3.62 1.44c1.47 0 3.19-.65 3.19-2.93v-1.18a4.49 4.49 0 0 1-3.57 1.83c-2.91 0-5.11-2-5.11-5.91s2.18-5.9 5.11-5.9a4.44 4.44 0 0 1 3.57 1.78v-1.49h3.08v10.8c0 4.41-3.41 5.49-6.27 5.49a7 7 0 0 1-5-1.72zm6.81-8.62a3.28 3.28 0 0 0-2.61-1.32 3.21 3.21 0 0 0 0 6.39 3.37 3.37 0 0 0 2.61-1.32zM1615.54 333h3.46v13h6.77v3h-10.18zM1633 337.08c3.45 0 5.81 2.59 5.81 6.38v.68h-8.62a3.12 3.12 0 0 0 3.34 2.68 4.71 4.71 0 0 0 3.09-1.15l1.35 2a7.16 7.16 0 0 1-4.78 1.61 6.09 6.09 0 1 1-.19-12.17zm-2.86 5h5.71a2.69 2.69 0 0 0-2.85-2.57 2.79 2.79 0 0 0-2.89 2.56zM1638.92 337.37h3.26l3 8.06 3-8.06h3.29l-4.61 11.63h-3.29zM1657.69 337.08c3.45 0 5.8 2.59 5.8 6.38v.68h-8.61a3.12 3.12 0 0 0 3.33 2.68 4.74 4.74 0 0 0 3.1-1.15l1.34 2a7.12 7.12 0 0 1-4.77 1.61 6.09 6.09 0 1 1-.19-12.17zm-2.86 5h5.71a2.69 2.69 0 0 0-2.85-2.57 2.79 2.79 0 0 0-2.86 2.56zM1665.56 337.37h3V339a4.94 4.94 0 0 1 3.69-1.85v3a4 4 0 0 0-3.69 1.22V349h-3zM1673.6 333.84a1.83 1.83 0 1 1 3.65 0 1.83 1.83 0 0 1-3.65 0zm.31 3.53h3V349h-3zM1687.61 342c0-1.61-.84-2.16-2.13-2.16a3.29 3.29 0 0 0-2.64 1.37V349h-3v-11.63h3v1.51a5.29 5.29 0 0 1 4.05-1.8c2.55 0 3.77 1.44 3.77 3.7V349h-3.05zM1694.67 349.73a4.6 4.6 0 0 0 3.62 1.44c1.47 0 3.2-.65 3.2-2.93v-1.18a4.51 4.51 0 0 1-3.58 1.83c-2.91 0-5.11-2-5.11-5.91s2.18-5.9 5.11-5.9a4.47 4.47 0 0 1 3.58 1.78v-1.49h3.07v10.8c0 4.41-3.41 5.49-6.27 5.49a7 7 0 0 1-5-1.72zm6.82-8.62a3.31 3.31 0 0 0-2.62-1.32 3.21 3.21 0 0 0 0 6.39 3.4 3.4 0 0 0 2.62-1.32zM444.44 446.69a8.28 8.28 0 1 1-8.35 8.28 8 8 0 0 1 8.35-8.28zm0 3c-2.95 0-4.85 2.26-4.85 5.26s1.9 5.25 4.85 5.25 4.87-2.28 4.87-5.25-1.92-5.24-4.87-5.24zM455.17 467.38v-16h3v1.46a4.48 4.48 0 0 1 3.58-1.75c3 0 5.14 2.21 5.14 6.07s-2.16 6.1-5.14 6.1a4.44 4.44 0 0 1-3.58-1.78v5.91zm5.66-13.59a3.45 3.45 0 0 0-2.62 1.32v4.11a3.52 3.52 0 0 0 2.62 1.32c1.75 0 2.93-1.37 2.93-3.39s-1.18-3.36-2.93-3.36zM477.17 461.5a4.56 4.56 0 0 1-3.57 1.75c-2.93 0-5.14-2.21-5.14-6.07s2.19-6.1 5.14-6.1a4.44 4.44 0 0 1 3.57 1.78V447h3.08v16h-3.08zm0-6.39a3.32 3.32 0 0 0-2.64-1.32c-1.72 0-2.92 1.37-2.92 3.39s1.2 3.36 2.92 3.36a3.35 3.35 0 0 0 2.64-1.32zM490.09 461.76a4.8 4.8 0 0 1-3.68 1.49 3.87 3.87 0 0 1-4-3.84c0-2.71 2.19-3.7 4-3.7a4.69 4.69 0 0 1 3.68 1.42v-1.61c0-1.18-1-1.94-2.55-1.94a4.86 4.86 0 0 0-3.38 1.36l-1.15-2a7.63 7.63 0 0 1 5.06-1.82c2.64 0 5.06 1.05 5.06 4.39V463h-3zm0-3a3 3 0 0 0-2.45-1c-1.2 0-2.19.65-2.19 1.75s1 1.7 2.19 1.7a3.07 3.07 0 0 0 2.45-1zM496.54 460.08V454h-1.92v-2.66h1.92v-3.14h3.07v3.17H502V454h-2.36v5.23c0 .72.39 1.28 1.06 1.28a1.66 1.66 0 0 0 1.06-.34l.64 2.3a3.73 3.73 0 0 1-2.54.75c-2.17.03-3.32-1.08-3.32-3.14zM509.14 451.08c3.46 0 5.81 2.59 5.81 6.38v.68h-8.62a3.13 3.13 0 0 0 3.34 2.68 4.76 4.76 0 0 0 3.1-1.15l1.34 2a7.16 7.16 0 0 1-4.78 1.61 6.09 6.09 0 1 1-.19-12.17zm-2.85 5H512a2.69 2.69 0 0 0-2.86-2.57 2.78 2.78 0 0 0-2.85 2.56zM517 451.37h3V453a5 5 0 0 1 3.7-1.85v3a4 4 0 0 0-.84-.07 3.89 3.89 0 0 0-2.86 1.29V463h-3zM525.05 447.84a1.83 1.83 0 1 1 3.65 0 1.83 1.83 0 0 1-3.65 0zm.31 3.53h3V463h-3zM539.07 456a1.88 1.88 0 0 0-2.14-2.16 3.3 3.3 0 0 0-2.64 1.37V463h-3v-11.63h3v1.51a5.31 5.31 0 0 1 4.06-1.8c2.54 0 3.77 1.44 3.77 3.7V463h-3zM546.15 463.73a4.6 4.6 0 0 0 3.62 1.44c1.47 0 3.2-.65 3.2-2.93v-1.18a4.52 4.52 0 0 1-3.58 1.83c-2.91 0-5.11-2-5.11-5.91s2.18-5.9 5.11-5.9a4.47 4.47 0 0 1 3.58 1.78v-1.49H556v10.8c0 4.41-3.41 5.49-6.27 5.49a7 7 0 0 1-5-1.72zm6.82-8.62a3.31 3.31 0 0 0-2.62-1.32 3.21 3.21 0 0 0 0 6.39 3.4 3.4 0 0 0 2.62-1.32zM565.2 467.38v-16h3v1.46a4.48 4.48 0 0 1 3.58-1.75c3 0 5.13 2.21 5.13 6.07s-2.16 6.1-5.13 6.1a4.44 4.44 0 0 1-3.58-1.78v5.91zm5.67-13.59a3.43 3.43 0 0 0-2.62 1.32v4.11a3.5 3.5 0 0 0 2.62 1.32c1.75 0 2.93-1.37 2.93-3.39s-1.18-3.36-2.93-3.36zM586.08 461.76a4.78 4.78 0 0 1-3.67 1.49 3.86 3.86 0 0 1-4-3.84c0-2.71 2.18-3.7 4-3.7a4.65 4.65 0 0 1 3.67 1.42v-1.61c0-1.18-1-1.94-2.54-1.94a4.86 4.86 0 0 0-3.38 1.36l-1.16-2a7.65 7.65 0 0 1 5.07-1.82c2.64 0 5.06 1.05 5.06 4.39V463h-3zm0-3a3 3 0 0 0-2.44-1c-1.2 0-2.19.65-2.19 1.75s1 1.7 2.19 1.7a3 3 0 0 0 2.44-1zm-1.94-13.59a2.54 2.54 0 0 1 2.5 2.54 2.5 2.5 0 0 1-2.5 2.52 2.53 2.53 0 0 1-2.52-2.52 2.57 2.57 0 0 1 2.52-2.56zm0 1.42a1.14 1.14 0 0 0-1.13 1.12 1.16 1.16 0 0 0 1.13 1.13 1.12 1.12 0 0 0 1.1-1.13 1.1 1.1 0 0 0-1.1-1.14zM606 455.06l-2.45 7.9h-3.26l-3.53-11.59H600l2.16 7.8 2.54-7.8h2.71l2.55 7.8 2.16-7.8h3.17L611.72 463h-3.24zM621.75 451.08c3.45 0 5.81 2.59 5.81 6.38v.68h-8.62a3.12 3.12 0 0 0 3.34 2.68 4.71 4.71 0 0 0 3.09-1.15l1.35 2a7.16 7.16 0 0 1-4.78 1.61 6.09 6.09 0 1 1-.19-12.17zm-2.86 5h5.71a2.69 2.69 0 0 0-2.85-2.57 2.79 2.79 0 0 0-2.86 2.56zM629.64 447h3.05v5.91a4.46 4.46 0 0 1 3.58-1.78c3 0 5.13 2.3 5.13 6.1s-2.2 6.07-5.13 6.07a4.58 4.58 0 0 1-3.58-1.75V463h-3.05zm5.67 13.59c1.77 0 3-1.35 3-3.36s-1.18-3.39-3-3.39a3.37 3.37 0 0 0-2.62 1.35v4.1a3.42 3.42 0 0 0 2.62 1.25zM644 459.31a6.66 6.66 0 0 0 4 1.59c1.32 0 1.94-.46 1.94-1.18s-1-1.1-2.33-1.37c-2-.38-4.56-.86-4.56-3.62 0-2 1.71-3.65 4.75-3.65a7.31 7.31 0 0 1 4.66 1.58l-1.2 2.09a4.92 4.92 0 0 0-3.43-1.34c-1.11 0-1.83.41-1.83 1.08s.92 1 2.21 1.25c2 .38 4.66.91 4.66 3.79 0 2.13-1.8 3.72-5 3.72a7.79 7.79 0 0 1-5.18-1.8zM662.79 455.9c0-1.61-.84-2.11-2.16-2.11a3.36 3.36 0 0 0-2.64 1.37V463h-3v-16h3v5.93a5.34 5.34 0 0 1 4.08-1.8c2.54 0 3.77 1.39 3.77 3.65V463h-3.05zM668 457.15a6.13 6.13 0 1 1 6.12 6.1 5.87 5.87 0 0 1-6.12-6.1zm9.09 0c0-1.8-1.08-3.36-3-3.36s-3 1.56-3 3.36 1 3.39 3 3.39S677 459 677 457.15zM682.35 467.38v-16h3v1.46a4.46 4.46 0 0 1 3.57-1.75c3 0 5.14 2.21 5.14 6.07s-2.16 6.1-5.14 6.1a4.41 4.41 0 0 1-3.57-1.78v5.91zm5.65-13.59a3.41 3.41 0 0 0-2.61 1.32v4.11a3.48 3.48 0 0 0 2.61 1.32c1.75 0 2.93-1.37 2.93-3.39s-1.17-3.36-2.93-3.36z"/><g class="cls-2"><path class="cls-13" d="M1341.28 238.19a7.74 7.74 0 1 1 7.74-7.74 7.75 7.75 0 0 1-7.74 7.74m-5.67-66.19h15l16.68 21.4h-31.65zm-90.47 66.24a7.74 7.74 0 1 1 7.73-7.74 7.75 7.75 0 0 1-7.73 7.74m137.08-45.7l-25.7-32.77a11.78 11.78 0 0 0-8.47-4.33h-28.91v-6.55a7.14 7.14 0 0 0-7.12-7.12h-99.9a7.14 7.14 0 0 0-7.12 7.12v79.07a7.14 7.14 0 0 0 7.12 7.12h5.59a27.8 27.8 0 0 0 54.85 0H1312a6.76 6.76 0 0 0 1.8-.27 27.79 27.79 0 0 0 54.88.27h13c3.14 0 3.34-2.4 3.34-5.33V200c0-3.91-2.78-7.46-2.78-7.46M655 197.55a2.6 2.6 0 0 0-2.6-2.57h-45.27a2.6 2.6 0 0 0-2.6 2.57v42.39a2.6 2.6 0 0 0 2.6 2.57h45.27a2.6 2.6 0 0 0 2.6-2.57z"/><path class="cls-13" d="M487.73 246.27a11.12 11.12 0 1 1 11.11 11 11.06 11.06 0 0 1-11.11-11M505 156.69h50.63c1.53 0 1.74 1 2.25 2.86l9 49.21v11.34h-24l-6.2-9.83-33.19-.1v-51.54a1.8 1.8 0 0 1 1.55-1.94m76.71 89.58a11.11 11.11 0 1 1-11.11-11 11.06 11.06 0 0 1 11.11 11m-63.3 2.95H551a19.8 19.8 0 0 0 35.06 9.09h47.32v-8.55H596.7V134.19h-10.83v66.29h-11.74l-7.8-42.61c-.91-5.58-5.11-9.74-10.13-9.74H505a10.37 10.37 0 0 0-10.21 10.5v41.85h-4c-11.72 0-15.79 8.09-15.79 12.53v28.18a8 8 0 0 0 4.17 7 19.79 19.79 0 0 0 39.2 1.06"/></g><path class="cls-13" d="M886.44 244.81h35.32v12.72h-35.32zm51.8 0h35.32v12.72h-35.32zm-73.58 0H870v12.72h-5.3V266h130.64v-8.47h-5.29v-12.72h5.29v-8.47H864.66z"/><g class="cls-2"><path class="cls-13" d="M992.49 183.55h-22.92v7.12l-1.22-1.34-1.59 1.52-.86-1.52-.89 1.54-1.61-1.54-1.33 1.39v-7.17h-22.92a1.58 1.58 0 0 0-1.56 1.59v45.79a1.59 1.59 0 0 0 1.56 1.6h53.34a1.59 1.59 0 0 0 1.55-1.6v-45.79a1.57 1.57 0 0 0-1.55-1.59M927.16 177.21h-26.68v7.33l-1.56-1.54-1.25 1.73-.54-1.73-.56 1.74-1.28-1.74-1.7 1.58v-7.39h-26.67a1.78 1.78 0 0 0-1.76 1.8v51.71a1.79 1.79 0 0 0 1.76 1.81h60.24a1.79 1.79 0 0 0 1.75-1.81V179a1.78 1.78 0 0 0-1.75-1.8M904.58 134H889.2v6.61l-1.69-1.21-1.29 1.38-.57-1.38-.6 1.39-1.31-1.39-1.8 1.26V134h-15.37a1.43 1.43 0 0 0-1.41 1.44v36.15a1.43 1.43 0 0 0 1.41 1.44h38a1.43 1.43 0 0 0 1.4-1.44v-36.15a1.43 1.43 0 0 0-1.4-1.44M1633.1 204.65c10 3.26 18.23-2.28 17.78-5.27a26.89 26.89 0 0 1-11.54-12.61 40 40 0 0 1-3.49-17.71c3.45-1.59 8.27-5.44 11.4-14.92 2.31 5.83 19.16 18.44 35.9 19.68a38.63 38.63 0 0 1-3.35 13 25.46 25.46 0 0 1-12.59 12.61c2.67 8.71 12.86 6 15.61 5.27 8.52-2.38 16.61-16.88 11-42.22-4.3-19.29-13.34-32.66-27.19-35.72-18.31-4-39.76 3.31-41.18 39.27-.76 19.56-1.77 35.57 7.7 38.67M1712.52 229.64c-6.32-5.61-16-9-22.81-10.87l5.35 14.95h-10.78L1660 261.78l-24.27-28.06h-10.79l5.35-14.95c-6.78 1.88-16.49 5.26-22.81 10.87-8.26 7.33 6.76 44.64 6.76 44.64h91.52s15-37.31 6.76-44.64"/><path class="cls-13" d="M1647.66 211.64l-5.49 5.19L1660 237l17.83-20.12-5.49-5.19c-3.94 9.86-20.74 9.86-24.68 0"/></g></svg>