<svg width="100" height="100" viewBox="0 0 100 100" xmlns="http://www.w3.org/2000/svg"><title>Service - IT (blue)</title><g id="Page-1" fill="none" fill-rule="evenodd"><g id="Service---IT-(blue)"><circle id="Oval" fill="#0060A9" cx="49.882" cy="49.882" r="49.882"/><path d="M55.66 68.218a5.777 5.777 0 1 1-11.555 0 5.777 5.777 0 0 1 11.554 0zM49.88 37.612a37.286 37.286 0 0 0-21.618 6.878 1.03 1.03 0 0 0-.19 1.502l3.254 3.878c.344.408.942.487 1.38.183a30.306 30.306 0 0 1 34.345 0 1.034 1.034 0 0 0 1.38-.183l3.254-3.878a1.03 1.03 0 0 0-.19-1.502 37.286 37.286 0 0 0-21.615-6.878zM64.037 55.11a1.034 1.034 0 0 0-.23-1.53 25.566 25.566 0 0 0-27.853 0 1.034 1.034 0 0 0-.23 1.53l3.267 3.892c.326.39.887.483 1.32.22a18.512 18.512 0 0 1 19.14 0 1.03 1.03 0 0 0 1.32-.22l3.267-3.892zm-40.34-14.336c.35.418.965.492 1.404.168 14.775-10.756 34.8-10.756 49.573 0 .44.32 1.05.247 1.4-.168l3.24-3.863a1.032 1.032 0 0 0-.174-1.492c-17.382-12.86-41.126-12.86-58.507 0a1.032 1.032 0 0 0-.175 1.493l3.238 3.864z" id="Shape" fill="#FFF"/></g></g></svg>