<svg width="100" height="100" viewBox="0 0 100 100" xmlns="http://www.w3.org/2000/svg"><title>aerospace-on</title><g id="Page-1" fill="none" fill-rule="evenodd"><g id="aerospace-on" fill-rule="nonzero"><path d="M50 0C22.384 0 0 22.384 0 50s22.384 50 50 50 50-22.384 50-50S77.616 0 50 0z" id="Shape" fill="#0060A9"/><path d="M76.534 56.877l-19.94-16.413a2.444 2.444 0 0 1-.885-1.75c.02-1.024.02-7.147 0-8.106v-.713h-.023c-.03-.85-.08-1.653-.14-2.362-.403-4.64-2.656-9.16-5.54-9.203-2.882.042-5.135 4.564-5.54 9.203-.06.71-.108 1.508-.14 2.362h-.022v.713c-.023.96-.025 7.082 0 8.106a2.442 2.442 0 0 1-.887 1.75L23.472 56.877c-.376.31-.594.77-.594 1.258v6.032a1.303 1.303 0 0 0 1.303 1.304l18.22-4.886A1.466 1.466 0 0 1 44.248 62v4.198l-.015.656c-.008.367-.14.72-.374 1.002l-4.38 5.28c-.254.307-.393.693-.393 1.09v6.284c0 .368.2.707.52.887l.254.143c.322.183.72.175 1.035-.023 1.704-1.063 7.188-4.404 9.105-4.404 1.917 0 7.406 3.34 9.105 4.404.315.197.713.206 1.037.023l.255-.143c.32-.18.518-.52.52-.887v-6.28c0-.396-.14-.78-.394-1.088l-4.38-5.28a1.63 1.63 0 0 1-.373-1.003l-.015-.657v-4.198a1.466 1.466 0 0 1 1.85-1.42l18.22 4.88c.718 0 1.3-.58 1.304-1.298v-6.032c0-.487-.22-.95-.596-1.258z" id="Shape" fill="#FFF"/></g></g></svg>