<svg width="140" height="140" viewBox="0 0 140 140" fill="none" xmlns="http://www.w3.org/2000/svg">
<circle cx="70" cy="70" r="70" fill="#3D3224"/>
<mask id="mask0" mask-type="alpha" maskUnits="userSpaceOnUse" x="3" y="42" width="135" height="66">
<path d="M36.5797 82.1288C30.9145 80.3011 8.7271 71.4292 3 69.5809C5.59574 60.4009 8.17087 51.2621 10.8078 42C11.3228 42.1643 11.7555 42.3081 12.1881 42.4723C16.2053 43.9921 36.7858 52.597 40.8236 54.0962C43.5841 55.123 46.1798 54.8766 48.7756 53.3158C51.9275 51.4469 55.1619 49.7424 58.4581 48.161C61.5895 46.6618 64.8856 45.9636 68.2848 47.3396C69.5209 47.853 70.6333 48.6334 72.096 49.4548C71.3338 49.8861 70.9217 50.1326 70.4891 50.379C67.1723 52.3095 63.8144 54.1578 60.5594 56.1909C57.5722 58.0598 56.1508 60.8938 56.604 64.4056C57.0778 68.1638 59.3439 70.5666 62.9903 71.6346C64.968 72.2096 66.8427 71.7578 68.6556 70.9363C71.4162 69.663 74.1973 68.3897 76.9579 67.1165C79.6566 65.8637 81.6961 66.1923 83.7974 68.2665C89.1537 73.5855 94.4894 78.9046 99.8044 84.2441C101.288 85.7433 101.329 88.064 99.9074 89.5221C98.4242 91.0418 96.1168 91.1034 94.5306 89.6248C92.7589 87.9613 91.0078 86.2567 89.2361 84.6138C88.8859 84.2852 88.4532 84.0593 88.0412 83.7923C87.9588 83.8745 87.897 83.9566 87.8146 84.0388C88.412 84.7986 88.9683 85.5996 89.5863 86.3389C90.8636 87.8175 92.2026 89.2346 93.5005 90.6927C94.4894 91.8222 94.7366 93.1366 94.2421 94.5331C93.7477 95.909 92.6765 96.6894 91.255 96.8948C90.0601 97.0796 89.0301 96.6483 88.1442 95.8474C85.9811 93.958 83.818 92.0481 81.6343 90.1587C81.0369 89.6453 80.3776 89.2346 79.7596 88.7622C79.6772 88.8238 79.6154 88.8854 79.533 88.9471C79.7596 89.2756 79.945 89.6658 80.2334 89.9328C81.9227 91.5963 83.612 93.2392 85.3425 94.8616C86.3107 95.7653 87.176 96.7099 87.176 98.1475C87.1966 99.7905 86.4343 100.961 84.9717 101.68C83.6326 102.337 81.8609 102.008 80.7691 100.941C78.915 99.1538 77.1021 97.3261 75.2686 95.5394C74.8153 95.0875 74.2797 94.7179 73.5793 94.4509C73.7853 94.8 73.9707 95.1697 74.2385 95.4777C75.6188 97.0591 76.9784 98.6199 78.3999 100.181C80.5424 102.522 79.533 105.828 76.484 106.568C75.2892 106.855 74.3003 106.424 73.4145 105.726C72.6522 105.109 71.9724 104.35 71.3338 103.61C71.1483 103.405 71.1689 102.974 71.1689 102.645C71.3544 98.5172 69.5209 95.601 65.7921 93.9375C65.4418 93.7937 65.1122 93.383 64.9886 93.0339C64.1234 90.6105 62.5371 88.906 60.1474 87.8791C59.7972 87.7354 59.4469 87.3452 59.3027 86.9755C58.3757 84.6959 56.8718 83.053 54.5645 82.1288C54.2555 82.0056 53.9258 81.6976 53.8228 81.4101C51.9687 76.091 45.9326 74.5302 41.318 76.7482C39.0313 77.8983 37.5068 79.7466 36.5797 82.1288Z" fill="white"/>
<path d="M129.223 46.2716C130.253 48.6334 131.324 51.0773 132.395 53.5006C134.208 57.6285 135.98 61.7769 137.834 65.9048C138.143 66.5825 138.04 66.9111 137.36 67.2602C132.952 69.5398 117.48 77.7545 113.092 80.0752C111.485 80.9377 109.775 81.3279 107.962 81.369C106.211 81.4101 104.666 80.8966 103.389 79.6439C97.6619 73.9963 91.8524 68.4103 86.1871 62.6805C83.9828 60.442 81.3253 60.2983 78.7295 61.6742C75.0419 63.6252 71.3131 65.5146 67.5844 67.404C65.7921 68.3076 64.0204 68.3076 62.3105 67.1986C59.3645 65.3092 59.1585 61.6332 61.9603 59.5384C63.3817 58.491 64.9474 57.6079 66.5131 56.7454C72.199 53.5417 77.9261 50.379 83.6326 47.1753C86.1253 45.7788 88.4532 46.0252 90.6164 47.7503C93.5829 50.1326 96.5701 52.4943 99.3512 55.0819C101.308 56.9097 103.348 57.2588 105.738 56.4579C109.837 55.0614 125 47.7092 129.223 46.2716Z" fill="white"/>
<path d="M57.2839 101.166C51.0211 102.337 49.7027 101.084 51.3507 95.4572C50.7327 95.601 50.2177 95.7242 49.6821 95.8474C48.3018 96.1555 46.9627 96.2581 45.8915 95.0465C44.7996 93.8143 44.7378 92.4794 45.3352 91.0418C45.5 90.6311 45.6649 90.2409 45.9121 89.6453C45.1498 89.8507 44.573 90.015 43.9962 90.1587C41.4004 90.8364 39.2991 89.2346 39.2785 86.5648C39.2785 84.0593 41.2562 81.0815 43.5635 80.1573C47.1893 78.6787 50.5267 81.1431 50.1559 85.004C50.1353 85.1477 50.1559 85.271 50.1559 85.579C51.7834 85.4353 53.3491 85.6406 54.5851 86.8728C55.8418 88.105 55.8212 89.6864 55.677 91.2677C60.2916 91.4731 61.7337 93.116 61.1775 97.5725C62.0633 97.5725 62.9697 97.4082 63.7938 97.593C67.1518 98.435 68.326 102.193 66.2247 105.13C64.762 107.163 61.4247 108.436 58.9937 107.861C56.9954 107.389 55.8212 105.418 56.4186 103.446C56.6452 102.686 56.9748 101.988 57.2839 101.166Z" fill="white"/>
</mask>
<g mask="url(#mask0)">
<circle cx="70" cy="70" r="55" fill="white"/>
</g>
</svg>
